<?xml version="1.0" encoding="UTF-8" standalone="no"?>
<!DOCTYPE svg PUBLIC "-//W3C//DTD SVG 1.1//EN"
 "http://www.w3.org/Graphics/SVG/1.1/DTD/svg11.dtd">
<!-- Generated by graphviz version 2.42.3 (0)
 -->
<!-- Title: main Pages: 1 -->
<svg width="351pt" height="104pt"
 viewBox="0.00 0.00 351.00 104.00" xmlns="http://www.w3.org/2000/svg" xmlns:xlink="http://www.w3.org/1999/xlink">
<g id="graph0" class="graph" transform="scale(1 1) rotate(0) translate(4 100)">
<title>main</title>
<polygon fill="white" stroke="transparent" points="-4,4 -4,-100 347,-100 347,4 -4,4"/>
<!-- Node1 -->
<g id="node1" class="node">
<title>Node1</title>
<g id="a_node1"><a xlink:title="Main function.">
<polygon fill="#bfbfbf" stroke="black" points="0,-38.5 0,-57.5 38,-57.5 38,-38.5 0,-38.5"/>
<text text-anchor="middle" x="19" y="-45.5" font-family="Helvetica,sans-Serif" font-size="10.00">main</text>
</a>
</g>
</g>
<!-- Node2 -->
<g id="node2" class="node">
<title>Node2</title>
<g id="a_node2"><a xlink:href="readInTools_8c.html#aae07b562b487646845b24aa277a191f3" target="_top" xlink:title="Read parameter file and create commands list.">
<polygon fill="white" stroke="black" points="84.5,-76.5 84.5,-95.5 137.5,-95.5 137.5,-76.5 84.5,-76.5"/>
<text text-anchor="middle" x="111" y="-83.5" font-family="Helvetica,sans-Serif" font-size="10.00">fillCmds</text>
</a>
</g>
</g>
<!-- Node1&#45;&gt;Node2 -->
<g id="edge1" class="edge">
<title>Node1&#45;&gt;Node2</title>
<path fill="none" stroke="midnightblue" d="M38.21,-55.69C49.62,-60.51 64.64,-66.85 77.99,-72.48"/>
<polygon fill="midnightblue" stroke="midnightblue" points="76.77,-75.77 87.34,-76.43 79.49,-69.32 76.77,-75.77"/>
</g>
<!-- Node3 -->
<g id="node3" class="node">
<title>Node3</title>
<g id="a_node3"><a xlink:href="readInTools_8c.html#a54ce5bb180132f80c48a1d5681df55f7" target="_top" xlink:title="Get a boolean from the commands list.">
<polygon fill="white" stroke="black" points="86,-38.5 86,-57.5 136,-57.5 136,-38.5 86,-38.5"/>
<text text-anchor="middle" x="111" y="-45.5" font-family="Helvetica,sans-Serif" font-size="10.00">getBool</text>
</a>
</g>
</g>
<!-- Node1&#45;&gt;Node3 -->
<g id="edge2" class="edge">
<title>Node1&#45;&gt;Node3</title>
<path fill="none" stroke="midnightblue" d="M38.21,-48C48.89,-48 62.72,-48 75.39,-48"/>
<polygon fill="midnightblue" stroke="midnightblue" points="75.67,-51.5 85.67,-48 75.67,-44.5 75.67,-51.5"/>
</g>
<!-- Node6 -->
<g id="node6" class="node">
<title>Node6</title>
<g id="a_node6"><a xlink:href="readInTools_8c.html#a6480fc1fe754a2408323da4b1bc42bfe" target="_top" xlink:title="Print out all remaining commands in the list.">
<polygon fill="white" stroke="black" points="74,-0.5 74,-19.5 148,-19.5 148,-0.5 74,-0.5"/>
<text text-anchor="middle" x="111" y="-7.5" font-family="Helvetica,sans-Serif" font-size="10.00">ignoredCmds</text>
</a>
</g>
</g>
<!-- Node1&#45;&gt;Node6 -->
<g id="edge5" class="edge">
<title>Node1&#45;&gt;Node6</title>
<path fill="none" stroke="midnightblue" d="M38.21,-40.31C49.62,-35.49 64.64,-29.15 77.99,-23.52"/>
<polygon fill="midnightblue" stroke="midnightblue" points="79.49,-26.68 87.34,-19.57 76.77,-20.23 79.49,-26.68"/>
</g>
<!-- Node4 -->
<g id="node4" class="node">
<title>Node4</title>
<g id="a_node4"><a xlink:href="readInTools_8c.html#a86a2f0407995fa7f2e7bb06f1849f7c1" target="_top" xlink:title="Find a command in the commands list.">
<polygon fill="white" stroke="black" points="187,-38.5 187,-57.5 240,-57.5 240,-38.5 187,-38.5"/>
<text text-anchor="middle" x="213.5" y="-45.5" font-family="Helvetica,sans-Serif" font-size="10.00">findCmd</text>
</a>
</g>
</g>
<!-- Node3&#45;&gt;Node4 -->
<g id="edge3" class="edge">
<title>Node3&#45;&gt;Node4</title>
<path fill="none" stroke="midnightblue" d="M136.07,-48C148.17,-48 163.07,-48 176.5,-48"/>
<polygon fill="midnightblue" stroke="midnightblue" points="176.87,-51.5 186.87,-48 176.87,-44.5 176.87,-51.5"/>
</g>
<!-- Node5 -->
<g id="node5" class="node">
<title>Node5</title>
<g id="a_node5"><a xlink:href="readInTools_8c.html#ad5d64c5886e695aa1141d1b8b0e117d9" target="_top" xlink:title="Delete a single node of the command list.">
<polygon fill="white" stroke="black" points="279,-38.5 279,-57.5 343,-57.5 343,-38.5 279,-38.5"/>
<text text-anchor="middle" x="311" y="-45.5" font-family="Helvetica,sans-Serif" font-size="10.00">deleteCmd</text>
</a>
</g>
</g>
<!-- Node4&#45;&gt;Node5 -->
<g id="edge4" class="edge">
<title>Node4&#45;&gt;Node5</title>
<path fill="none" stroke="midnightblue" d="M240.09,-48C248.86,-48 258.9,-48 268.59,-48"/>
<polygon fill="midnightblue" stroke="midnightblue" points="268.89,-51.5 278.89,-48 268.89,-44.5 268.89,-51.5"/>
</g>
<!-- Node7 -->
<g id="node7" class="node">
<title>Node7</title>
<g id="a_node7"><a xlink:href="readInTools_8c.html#a7e438b29fd04b468dade4655578868c3" target="_top" xlink:title="Delete all commands in the commands list.">
<polygon fill="white" stroke="black" points="184,-0.5 184,-19.5 243,-19.5 243,-0.5 184,-0.5"/>
<text text-anchor="middle" x="213.5" y="-7.5" font-family="Helvetica,sans-Serif" font-size="10.00">freeCmds</text>
</a>
</g>
</g>
<!-- Node6&#45;&gt;Node7 -->
<g id="edge6" class="edge">
<title>Node6&#45;&gt;Node7</title>
<path fill="none" stroke="midnightblue" d="M148.28,-10C156.51,-10 165.27,-10 173.6,-10"/>
<polygon fill="midnightblue" stroke="midnightblue" points="173.84,-13.5 183.84,-10 173.84,-6.5 173.84,-13.5"/>
</g>
</g>
</svg>
