<?xml version="1.0" encoding="UTF-8" standalone="no"?>
<!DOCTYPE svg PUBLIC "-//W3C//DTD SVG 1.1//EN"
 "http://www.w3.org/Graphics/SVG/1.1/DTD/svg11.dtd">
<!-- Generated by graphviz version 2.42.3 (0)
 -->
<!-- Title: src/main.h Pages: 1 -->
<svg width="982pt" height="263pt"
 viewBox="0.00 0.00 981.50 263.00" xmlns="http://www.w3.org/2000/svg" xmlns:xlink="http://www.w3.org/1999/xlink">
<g id="graph0" class="graph" transform="scale(1 1) rotate(0) translate(4 259)">
<title>src/main.h</title>
<polygon fill="white" stroke="transparent" points="-4,4 -4,-259 977.5,-259 977.5,4 -4,4"/>
<!-- Node1 -->
<g id="node1" class="node">
<title>Node1</title>
<g id="a_node1"><a xlink:title="Contains the global constants and definitions.">
<polygon fill="#bfbfbf" stroke="black" points="466,-235.5 466,-254.5 528,-254.5 528,-235.5 466,-235.5"/>
<text text-anchor="middle" x="497" y="-242.5" font-family="Helvetica,sans-Serif" font-size="10.00">src/main.h</text>
</a>
</g>
</g>
<!-- Node2 -->
<g id="node2" class="node">
<title>Node2</title>
<g id="a_node2"><a xlink:href="analyze_8h_source.html" target="_top" xlink:title=" ">
<polygon fill="white" stroke="black" points="306,-56.5 306,-75.5 380,-75.5 380,-56.5 306,-56.5"/>
<text text-anchor="middle" x="343" y="-63.5" font-family="Helvetica,sans-Serif" font-size="10.00">src/analyze.h</text>
</a>
</g>
</g>
<!-- Node1&#45;&gt;Node2 -->
<g id="edge1" class="edge">
<title>Node1&#45;&gt;Node2</title>
<path fill="none" stroke="midnightblue" d="M496.48,-225.29C494.71,-197.2 487.4,-144.03 458,-112 437.78,-89.97 405.45,-78.58 380.21,-72.79"/>
<polygon fill="midnightblue" stroke="midnightblue" points="492.98,-225.52 496.94,-235.35 499.98,-225.2 492.98,-225.52"/>
</g>
<!-- Node4 -->
<g id="node4" class="node">
<title>Node4</title>
<g id="a_node4"><a xlink:href="output_8c.html" target="_top" xlink:title="Contains all functions used for writing flow solutions.">
<polygon fill="white" stroke="black" points="428,-0.5 428,-19.5 496,-19.5 496,-0.5 428,-0.5"/>
<text text-anchor="middle" x="462" y="-7.5" font-family="Helvetica,sans-Serif" font-size="10.00">src/output.c</text>
</a>
</g>
</g>
<!-- Node1&#45;&gt;Node4 -->
<g id="edge22" class="edge">
<title>Node1&#45;&gt;Node4</title>
<path fill="none" stroke="midnightblue" d="M506.43,-226.25C510.21,-218.17 514.11,-208.35 516,-199 528.61,-136.71 542.96,-113.56 516,-56 508.34,-39.64 491.49,-27.16 478.63,-19.54"/>
<polygon fill="midnightblue" stroke="midnightblue" points="503.21,-224.86 501.88,-235.37 509.47,-227.99 503.21,-224.86"/>
</g>
<!-- Node5 -->
<g id="node5" class="node">
<title>Node5</title>
<g id="a_node5"><a xlink:href="mesh_8h_source.html" target="_top" xlink:title=" ">
<polygon fill="white" stroke="black" points="245.5,-174 245.5,-193 310.5,-193 310.5,-174 245.5,-174"/>
<text text-anchor="middle" x="278" y="-181" font-family="Helvetica,sans-Serif" font-size="10.00">src/mesh.h</text>
</a>
</g>
</g>
<!-- Node1&#45;&gt;Node5 -->
<g id="edge4" class="edge">
<title>Node1&#45;&gt;Node5</title>
<path fill="none" stroke="midnightblue" d="M455.86,-232.82C413.32,-221.26 347.83,-203.47 309.32,-193.01"/>
<polygon fill="midnightblue" stroke="midnightblue" points="455.05,-236.23 465.62,-235.48 456.89,-229.48 455.05,-236.23"/>
</g>
<!-- Node6 -->
<g id="node6" class="node">
<title>Node6</title>
<g id="a_node6"><a xlink:href="euler_2boundary_8h_source.html" target="_top" xlink:title=" ">
<polygon fill="white" stroke="black" points="344.5,-112.5 344.5,-131.5 449.5,-131.5 449.5,-112.5 344.5,-112.5"/>
<text text-anchor="middle" x="397" y="-119.5" font-family="Helvetica,sans-Serif" font-size="10.00">src/euler/boundary.h</text>
</a>
</g>
</g>
<!-- Node1&#45;&gt;Node6 -->
<g id="edge17" class="edge">
<title>Node1&#45;&gt;Node6</title>
<path fill="none" stroke="midnightblue" d="M483.31,-227.43C461.75,-201.35 420.64,-151.6 404.13,-131.62"/>
<polygon fill="midnightblue" stroke="midnightblue" points="480.74,-229.82 489.81,-235.3 486.14,-225.36 480.74,-229.82"/>
</g>
<!-- Node7 -->
<g id="node7" class="node">
<title>Node7</title>
<g id="a_node7"><a xlink:href="linearSolver_8h_source.html" target="_top" xlink:title=" ">
<polygon fill="white" stroke="black" points="0,-112.5 0,-131.5 92,-131.5 92,-112.5 0,-112.5"/>
<text text-anchor="middle" x="46" y="-119.5" font-family="Helvetica,sans-Serif" font-size="10.00">src/linearSolver.h</text>
</a>
</g>
</g>
<!-- Node1&#45;&gt;Node7 -->
<g id="edge19" class="edge">
<title>Node1&#45;&gt;Node7</title>
<path fill="none" stroke="midnightblue" d="M455.52,-241.62C397.6,-237.42 289.76,-226.38 202,-199 146.78,-181.78 86.64,-147.64 60.02,-131.65"/>
<polygon fill="midnightblue" stroke="midnightblue" points="455.51,-245.13 465.73,-242.33 456,-238.15 455.51,-245.13"/>
</g>
<!-- Node8 -->
<g id="node8" class="node">
<title>Node8</title>
<g id="a_node8"><a xlink:href="navierstokes_2boundary_8h_source.html" target="_top" xlink:title=" ">
<polygon fill="white" stroke="black" points="110,-112.5 110,-131.5 250,-131.5 250,-112.5 110,-112.5"/>
<text text-anchor="middle" x="180" y="-119.5" font-family="Helvetica,sans-Serif" font-size="10.00">src/navierstokes/boundary.h</text>
</a>
</g>
</g>
<!-- Node1&#45;&gt;Node8 -->
<g id="edge20" class="edge">
<title>Node1&#45;&gt;Node8</title>
<path fill="none" stroke="midnightblue" d="M455.47,-240.62C391.39,-234.79 272.04,-221.26 236,-199 209.23,-182.47 191.11,-147.98 183.73,-131.77"/>
<polygon fill="midnightblue" stroke="midnightblue" points="455.36,-244.13 465.64,-241.52 455.98,-237.15 455.36,-244.13"/>
</g>
<!-- Node9 -->
<g id="node9" class="node">
<title>Node9</title>
<g id="a_node9"><a xlink:href="readInTools_8h.html" target="_top" xlink:title=" ">
<polygon fill="white" stroke="black" points="416.5,-56.5 416.5,-75.5 507.5,-75.5 507.5,-56.5 416.5,-56.5"/>
<text text-anchor="middle" x="462" y="-63.5" font-family="Helvetica,sans-Serif" font-size="10.00">src/readInTools.h</text>
</a>
</g>
</g>
<!-- Node1&#45;&gt;Node9 -->
<g id="edge14" class="edge">
<title>Node1&#45;&gt;Node9</title>
<path fill="none" stroke="midnightblue" d="M499.4,-225.39C502.08,-199.32 504.55,-150.77 492,-112 487.43,-97.89 477.08,-84.05 469.82,-75.53"/>
<polygon fill="midnightblue" stroke="midnightblue" points="495.92,-225.05 498.25,-235.38 502.87,-225.85 495.92,-225.05"/>
</g>
<!-- Node10 -->
<g id="node10" class="node">
<title>Node10</title>
<g id="a_node10"><a xlink:href="euler_2equationOfState_8h_source.html" target="_top" xlink:title=" ">
<polygon fill="white" stroke="black" points="582,-174 582,-193 718,-193 718,-174 582,-174"/>
<text text-anchor="middle" x="650" y="-181" font-family="Helvetica,sans-Serif" font-size="10.00">src/euler/equationOfState.h</text>
</a>
</g>
</g>
<!-- Node1&#45;&gt;Node10 -->
<g id="edge18" class="edge">
<title>Node1&#45;&gt;Node10</title>
<path fill="none" stroke="midnightblue" d="M528.42,-231.78C558.15,-220.22 602.01,-203.16 628.12,-193.01"/>
<polygon fill="midnightblue" stroke="midnightblue" points="526.97,-228.59 518.92,-235.48 529.51,-235.11 526.97,-228.59"/>
</g>
<!-- Node11 -->
<g id="node11" class="node">
<title>Node11</title>
<g id="a_node11"><a xlink:href="navierstokes_2equationOfState_8h_source.html" target="_top" xlink:title=" ">
<polygon fill="white" stroke="black" points="736,-168.5 736,-198.5 864,-198.5 864,-168.5 736,-168.5"/>
<text text-anchor="start" x="744" y="-186.5" font-family="Helvetica,sans-Serif" font-size="10.00">src/navierstokes/equation</text>
<text text-anchor="middle" x="800" y="-175.5" font-family="Helvetica,sans-Serif" font-size="10.00">OfState.h</text>
</a>
</g>
</g>
<!-- Node1&#45;&gt;Node11 -->
<g id="edge21" class="edge">
<title>Node1&#45;&gt;Node11</title>
<path fill="none" stroke="midnightblue" d="M538.15,-235.99C584.18,-227.01 660.94,-212.02 727,-199 729.92,-198.43 732.9,-197.84 735.91,-197.24"/>
<polygon fill="midnightblue" stroke="midnightblue" points="537.4,-232.57 528.26,-237.91 538.74,-239.44 537.4,-232.57"/>
</g>
<!-- Node12 -->
<g id="node12" class="node">
<title>Node12</title>
<g id="a_node12"><a xlink:href="readInTools_8c.html" target="_top" xlink:title="Provides functions for reading data from the .ini parameter file.">
<polygon fill="white" stroke="black" points="882.5,-174 882.5,-193 973.5,-193 973.5,-174 882.5,-174"/>
<text text-anchor="middle" x="928" y="-181" font-family="Helvetica,sans-Serif" font-size="10.00">src/readInTools.c</text>
</a>
</g>
</g>
<!-- Node1&#45;&gt;Node12 -->
<g id="edge23" class="edge">
<title>Node1&#45;&gt;Node12</title>
<path fill="none" stroke="midnightblue" d="M538.54,-240.92C608.16,-235.34 752.6,-221.96 873,-199 881.44,-197.39 890.49,-195.2 898.77,-193.01"/>
<polygon fill="midnightblue" stroke="midnightblue" points="538.12,-237.45 528.42,-241.72 538.67,-244.42 538.12,-237.45"/>
</g>
<!-- Node3 -->
<g id="node3" class="node">
<title>Node3</title>
<g id="a_node3"><a xlink:href="main_8c.html" target="_top" xlink:title="Contains the main function of ccfd">
<polygon fill="white" stroke="black" points="247,-0.5 247,-19.5 309,-19.5 309,-0.5 247,-0.5"/>
<text text-anchor="middle" x="278" y="-7.5" font-family="Helvetica,sans-Serif" font-size="10.00">src/main.c</text>
</a>
</g>
</g>
<!-- Node2&#45;&gt;Node3 -->
<g id="edge2" class="edge">
<title>Node2&#45;&gt;Node3</title>
<path fill="none" stroke="midnightblue" d="M324.73,-49.82C313.08,-40.15 298.4,-27.95 288.63,-19.83"/>
<polygon fill="midnightblue" stroke="midnightblue" points="322.63,-52.63 332.56,-56.32 327.1,-47.24 322.63,-52.63"/>
</g>
<!-- Node2&#45;&gt;Node4 -->
<g id="edge3" class="edge">
<title>Node2&#45;&gt;Node4</title>
<path fill="none" stroke="midnightblue" d="M371.14,-52.23C393.4,-42.13 423.86,-28.31 443.23,-19.52"/>
<polygon fill="midnightblue" stroke="midnightblue" points="369.52,-49.12 361.86,-56.44 372.41,-55.5 369.52,-49.12"/>
</g>
<!-- Node5&#45;&gt;Node2 -->
<g id="edge5" class="edge">
<title>Node5&#45;&gt;Node2</title>
<path fill="none" stroke="midnightblue" d="M287.84,-165.01C301.94,-139.96 327.37,-94.77 338.06,-75.78"/>
<polygon fill="midnightblue" stroke="midnightblue" points="284.74,-163.39 282.89,-173.82 290.84,-166.82 284.74,-163.39"/>
</g>
<!-- Node5&#45;&gt;Node3 -->
<g id="edge9" class="edge">
<title>Node5&#45;&gt;Node3</title>
<path fill="none" stroke="midnightblue" d="M278,-163.35C278,-126.23 278,-45.83 278,-19.52"/>
<polygon fill="midnightblue" stroke="midnightblue" points="274.5,-163.76 278,-173.76 281.5,-163.76 274.5,-163.76"/>
</g>
<!-- Node5&#45;&gt;Node6 -->
<g id="edge6" class="edge">
<title>Node5&#45;&gt;Node6</title>
<path fill="none" stroke="midnightblue" d="M304.27,-169.37C327.33,-157.83 360.2,-141.4 379.98,-131.51"/>
<polygon fill="midnightblue" stroke="midnightblue" points="302.43,-166.37 295.05,-173.98 305.56,-172.63 302.43,-166.37"/>
</g>
<!-- Node5&#45;&gt;Node7 -->
<g id="edge7" class="edge">
<title>Node5&#45;&gt;Node7</title>
<path fill="none" stroke="midnightblue" d="M235.5,-171.6C190.53,-160.07 120.48,-142.1 79.33,-131.55"/>
<polygon fill="midnightblue" stroke="midnightblue" points="234.7,-175.01 245.25,-174.1 236.44,-168.23 234.7,-175.01"/>
</g>
<!-- Node5&#45;&gt;Node8 -->
<g id="edge10" class="edge">
<title>Node5&#45;&gt;Node8</title>
<path fill="none" stroke="midnightblue" d="M250.1,-169.06C229.57,-157.54 203.12,-141.31 189.12,-131.51"/>
<polygon fill="midnightblue" stroke="midnightblue" points="248.61,-172.23 259.06,-173.98 251.98,-166.09 248.61,-172.23"/>
</g>
<!-- Node7&#45;&gt;Node3 -->
<g id="edge8" class="edge">
<title>Node7&#45;&gt;Node3</title>
<path fill="none" stroke="midnightblue" d="M73.37,-108.02C121.35,-85.27 219.39,-38.79 259.88,-19.59"/>
<polygon fill="midnightblue" stroke="midnightblue" points="71.74,-104.92 64.2,-112.37 74.74,-111.25 71.74,-104.92"/>
</g>
<!-- Node8&#45;&gt;Node2 -->
<g id="edge11" class="edge">
<title>Node8&#45;&gt;Node2</title>
<path fill="none" stroke="midnightblue" d="M215.7,-109.17C246.4,-99 289.92,-84.59 317.29,-75.52"/>
<polygon fill="midnightblue" stroke="midnightblue" points="214.22,-105.98 205.83,-112.44 216.42,-112.62 214.22,-105.98"/>
</g>
<!-- Node8&#45;&gt;Node3 -->
<g id="edge13" class="edge">
<title>Node8&#45;&gt;Node3</title>
<path fill="none" stroke="midnightblue" d="M194.35,-104.9C215.41,-81.25 253.99,-37.95 270.35,-19.59"/>
<polygon fill="midnightblue" stroke="midnightblue" points="191.73,-102.57 187.69,-112.37 196.96,-107.23 191.73,-102.57"/>
</g>
<!-- Node8&#45;&gt;Node5 -->
<g id="edge12" class="edge">
<title>Node8&#45;&gt;Node5</title>
<path fill="none" stroke="midnightblue" d="M207.86,-136.42C228.39,-147.93 254.84,-164.17 268.86,-173.98"/>
<polygon fill="midnightblue" stroke="midnightblue" points="209.36,-133.26 198.91,-131.51 205.99,-139.39 209.36,-133.26"/>
</g>
<!-- Node9&#45;&gt;Node3 -->
<g id="edge15" class="edge">
<title>Node9&#45;&gt;Node3</title>
<path fill="none" stroke="midnightblue" d="M423.05,-53.57C388.34,-43.38 338.32,-28.7 307.02,-19.52"/>
<polygon fill="midnightblue" stroke="midnightblue" points="422.26,-56.99 432.84,-56.44 424.23,-50.27 422.26,-56.99"/>
</g>
<!-- Node9&#45;&gt;Node4 -->
<g id="edge16" class="edge">
<title>Node9&#45;&gt;Node4</title>
<path fill="none" stroke="midnightblue" d="M462,-45.8C462,-36.91 462,-26.78 462,-19.75"/>
<polygon fill="midnightblue" stroke="midnightblue" points="458.5,-46.08 462,-56.08 465.5,-46.08 458.5,-46.08"/>
</g>
</g>
</svg>
