<?xml version="1.0" encoding="UTF-8" standalone="no"?>
<!DOCTYPE svg PUBLIC "-//W3C//DTD SVG 1.1//EN"
 "http://www.w3.org/Graphics/SVG/1.1/DTD/svg11.dtd">
<!-- Generated by graphviz version 2.42.3 (0)
 -->
<!-- Title: getStr Pages: 1 -->
<svg width="240pt" height="28pt"
 viewBox="0.00 0.00 240.00 28.00" xmlns="http://www.w3.org/2000/svg" xmlns:xlink="http://www.w3.org/1999/xlink">
<g id="graph0" class="graph" transform="scale(1 1) rotate(0) translate(4 24)">
<title>getStr</title>
<polygon fill="white" stroke="transparent" points="-4,4 -4,-24 236,-24 236,4 -4,4"/>
<!-- Node1 -->
<g id="node1" class="node">
<title>Node1</title>
<g id="a_node1"><a xlink:title="Get a string from the commands list.">
<polygon fill="#bfbfbf" stroke="black" points="0,-0.5 0,-19.5 43,-19.5 43,-0.5 0,-0.5"/>
<text text-anchor="middle" x="21.5" y="-7.5" font-family="Helvetica,sans-Serif" font-size="10.00">getStr</text>
</a>
</g>
</g>
<!-- Node2 -->
<g id="node2" class="node">
<title>Node2</title>
<g id="a_node2"><a xlink:href="readInTools_8c.html#a86a2f0407995fa7f2e7bb06f1849f7c1" target="_top" xlink:title="Find a command in the commands list.">
<polygon fill="white" stroke="black" points="79,-0.5 79,-19.5 132,-19.5 132,-0.5 79,-0.5"/>
<text text-anchor="middle" x="105.5" y="-7.5" font-family="Helvetica,sans-Serif" font-size="10.00">findCmd</text>
</a>
</g>
</g>
<!-- Node1&#45;&gt;Node2 -->
<g id="edge1" class="edge">
<title>Node1&#45;&gt;Node2</title>
<path fill="none" stroke="midnightblue" d="M43.19,-10C50.97,-10 60.05,-10 68.8,-10"/>
<polygon fill="midnightblue" stroke="midnightblue" points="68.82,-13.5 78.82,-10 68.82,-6.5 68.82,-13.5"/>
</g>
<!-- Node3 -->
<g id="node3" class="node">
<title>Node3</title>
<g id="a_node3"><a xlink:href="readInTools_8c.html#ad5d64c5886e695aa1141d1b8b0e117d9" target="_top" xlink:title="Delete a single node of the command list.">
<polygon fill="white" stroke="black" points="168,-0.5 168,-19.5 232,-19.5 232,-0.5 168,-0.5"/>
<text text-anchor="middle" x="200" y="-7.5" font-family="Helvetica,sans-Serif" font-size="10.00">deleteCmd</text>
</a>
</g>
</g>
<!-- Node2&#45;&gt;Node3 -->
<g id="edge2" class="edge">
<title>Node2&#45;&gt;Node3</title>
<path fill="none" stroke="midnightblue" d="M132.27,-10C140.18,-10 149.1,-10 157.78,-10"/>
<polygon fill="midnightblue" stroke="midnightblue" points="157.78,-13.5 167.78,-10 157.78,-6.5 157.78,-13.5"/>
</g>
</g>
</svg>
