<?xml version="1.0" encoding="UTF-8" standalone="no"?>
<!DOCTYPE svg PUBLIC "-//W3C//DTD SVG 1.1//EN"
 "http://www.w3.org/Graphics/SVG/1.1/DTD/svg11.dtd">
<!-- Generated by graphviz version 2.42.3 (0)
 -->
<!-- Title: getBool Pages: 1 -->
<svg width="247pt" height="28pt"
 viewBox="0.00 0.00 247.00 28.00" xmlns="http://www.w3.org/2000/svg" xmlns:xlink="http://www.w3.org/1999/xlink">
<g id="graph0" class="graph" transform="scale(1 1) rotate(0) translate(4 24)">
<title>getBool</title>
<polygon fill="white" stroke="transparent" points="-4,4 -4,-24 243,-24 243,4 -4,4"/>
<!-- Node1 -->
<g id="node1" class="node">
<title>Node1</title>
<g id="a_node1"><a xlink:title="Get a boolean from the commands list.">
<polygon fill="#bfbfbf" stroke="black" points="0,-0.5 0,-19.5 50,-19.5 50,-0.5 0,-0.5"/>
<text text-anchor="middle" x="25" y="-7.5" font-family="Helvetica,sans-Serif" font-size="10.00">getBool</text>
</a>
</g>
</g>
<!-- Node2 -->
<g id="node2" class="node">
<title>Node2</title>
<g id="a_node2"><a xlink:href="readInTools_8c.html#a86a2f0407995fa7f2e7bb06f1849f7c1" target="_top" xlink:title="Find a command in the commands list.">
<polygon fill="white" stroke="black" points="86,-0.5 86,-19.5 139,-19.5 139,-0.5 86,-0.5"/>
<text text-anchor="middle" x="112.5" y="-7.5" font-family="Helvetica,sans-Serif" font-size="10.00">findCmd</text>
</a>
</g>
</g>
<!-- Node1&#45;&gt;Node2 -->
<g id="edge1" class="edge">
<title>Node1&#45;&gt;Node2</title>
<path fill="none" stroke="midnightblue" d="M50.27,-10C58.2,-10 67.19,-10 75.78,-10"/>
<polygon fill="midnightblue" stroke="midnightblue" points="75.97,-13.5 85.97,-10 75.97,-6.5 75.97,-13.5"/>
</g>
<!-- Node3 -->
<g id="node3" class="node">
<title>Node3</title>
<g id="a_node3"><a xlink:href="readInTools_8c.html#ad5d64c5886e695aa1141d1b8b0e117d9" target="_top" xlink:title="Delete a single node of the command list.">
<polygon fill="white" stroke="black" points="175,-0.5 175,-19.5 239,-19.5 239,-0.5 175,-0.5"/>
<text text-anchor="middle" x="207" y="-7.5" font-family="Helvetica,sans-Serif" font-size="10.00">deleteCmd</text>
</a>
</g>
</g>
<!-- Node2&#45;&gt;Node3 -->
<g id="edge2" class="edge">
<title>Node2&#45;&gt;Node3</title>
<path fill="none" stroke="midnightblue" d="M139.27,-10C147.18,-10 156.1,-10 164.78,-10"/>
<polygon fill="midnightblue" stroke="midnightblue" points="164.78,-13.5 174.78,-10 164.78,-6.5 164.78,-13.5"/>
</g>
</g>
</svg>
