<?xml version="1.0" encoding="UTF-8" standalone="no"?>
<!DOCTYPE svg PUBLIC "-//W3C//DTD SVG 1.1//EN"
 "http://www.w3.org/Graphics/SVG/1.1/DTD/svg11.dtd">
<!-- Generated by graphviz version 2.42.3 (0)
 -->
<!-- Title: getDbl Pages: 1 -->
<svg width="242pt" height="28pt"
 viewBox="0.00 0.00 242.00 28.00" xmlns="http://www.w3.org/2000/svg" xmlns:xlink="http://www.w3.org/1999/xlink">
<g id="graph0" class="graph" transform="scale(1 1) rotate(0) translate(4 24)">
<title>getDbl</title>
<polygon fill="white" stroke="transparent" points="-4,4 -4,-24 238,-24 238,4 -4,4"/>
<!-- Node1 -->
<g id="node1" class="node">
<title>Node1</title>
<g id="a_node1"><a xlink:title="Get a double from the commands list.">
<polygon fill="#bfbfbf" stroke="black" points="0,-0.5 0,-19.5 45,-19.5 45,-0.5 0,-0.5"/>
<text text-anchor="middle" x="22.5" y="-7.5" font-family="Helvetica,sans-Serif" font-size="10.00">getDbl</text>
</a>
</g>
</g>
<!-- Node2 -->
<g id="node2" class="node">
<title>Node2</title>
<g id="a_node2"><a xlink:href="readInTools_8c.html#a86a2f0407995fa7f2e7bb06f1849f7c1" target="_top" xlink:title="Find a command in the commands list.">
<polygon fill="white" stroke="black" points="81,-0.5 81,-19.5 134,-19.5 134,-0.5 81,-0.5"/>
<text text-anchor="middle" x="107.5" y="-7.5" font-family="Helvetica,sans-Serif" font-size="10.00">findCmd</text>
</a>
</g>
</g>
<!-- Node1&#45;&gt;Node2 -->
<g id="edge1" class="edge">
<title>Node1&#45;&gt;Node2</title>
<path fill="none" stroke="midnightblue" d="M45.31,-10C53.02,-10 61.92,-10 70.5,-10"/>
<polygon fill="midnightblue" stroke="midnightblue" points="70.71,-13.5 80.71,-10 70.71,-6.5 70.71,-13.5"/>
</g>
<!-- Node3 -->
<g id="node3" class="node">
<title>Node3</title>
<g id="a_node3"><a xlink:href="readInTools_8c.html#ad5d64c5886e695aa1141d1b8b0e117d9" target="_top" xlink:title="Delete a single node of the command list.">
<polygon fill="white" stroke="black" points="170,-0.5 170,-19.5 234,-19.5 234,-0.5 170,-0.5"/>
<text text-anchor="middle" x="202" y="-7.5" font-family="Helvetica,sans-Serif" font-size="10.00">deleteCmd</text>
</a>
</g>
</g>
<!-- Node2&#45;&gt;Node3 -->
<g id="edge2" class="edge">
<title>Node2&#45;&gt;Node3</title>
<path fill="none" stroke="midnightblue" d="M134.27,-10C142.18,-10 151.1,-10 159.78,-10"/>
<polygon fill="midnightblue" stroke="midnightblue" points="159.78,-13.5 169.78,-10 159.78,-6.5 159.78,-13.5"/>
</g>
</g>
</svg>
