<?xml version="1.0" encoding="UTF-8" standalone="no"?>
<!DOCTYPE svg PUBLIC "-//W3C//DTD SVG 1.1//EN"
 "http://www.w3.org/Graphics/SVG/1.1/DTD/svg11.dtd">
<!-- Generated by graphviz version 2.42.3 (0)
 -->
<!-- Title: getDblArray Pages: 1 -->
<svg width="265pt" height="28pt"
 viewBox="0.00 0.00 265.00 28.00" xmlns="http://www.w3.org/2000/svg" xmlns:xlink="http://www.w3.org/1999/xlink">
<g id="graph0" class="graph" transform="scale(1 1) rotate(0) translate(4 24)">
<title>getDblArray</title>
<polygon fill="white" stroke="transparent" points="-4,4 -4,-24 261,-24 261,4 -4,4"/>
<!-- Node1 -->
<g id="node1" class="node">
<title>Node1</title>
<g id="a_node1"><a xlink:title="Get a double array from the commands list.">
<polygon fill="#bfbfbf" stroke="black" points="0,-0.5 0,-19.5 68,-19.5 68,-0.5 0,-0.5"/>
<text text-anchor="middle" x="34" y="-7.5" font-family="Helvetica,sans-Serif" font-size="10.00">getDblArray</text>
</a>
</g>
</g>
<!-- Node2 -->
<g id="node2" class="node">
<title>Node2</title>
<g id="a_node2"><a xlink:href="readInTools_8c.html#a86a2f0407995fa7f2e7bb06f1849f7c1" target="_top" xlink:title="Find a command in the commands list.">
<polygon fill="white" stroke="black" points="104,-0.5 104,-19.5 157,-19.5 157,-0.5 104,-0.5"/>
<text text-anchor="middle" x="130.5" y="-7.5" font-family="Helvetica,sans-Serif" font-size="10.00">findCmd</text>
</a>
</g>
</g>
<!-- Node1&#45;&gt;Node2 -->
<g id="edge1" class="edge">
<title>Node1&#45;&gt;Node2</title>
<path fill="none" stroke="midnightblue" d="M68.05,-10C76.28,-10 85.15,-10 93.52,-10"/>
<polygon fill="midnightblue" stroke="midnightblue" points="93.76,-13.5 103.76,-10 93.76,-6.5 93.76,-13.5"/>
</g>
<!-- Node3 -->
<g id="node3" class="node">
<title>Node3</title>
<g id="a_node3"><a xlink:href="readInTools_8c.html#ad5d64c5886e695aa1141d1b8b0e117d9" target="_top" xlink:title="Delete a single node of the command list.">
<polygon fill="white" stroke="black" points="193,-0.5 193,-19.5 257,-19.5 257,-0.5 193,-0.5"/>
<text text-anchor="middle" x="225" y="-7.5" font-family="Helvetica,sans-Serif" font-size="10.00">deleteCmd</text>
</a>
</g>
</g>
<!-- Node2&#45;&gt;Node3 -->
<g id="edge2" class="edge">
<title>Node2&#45;&gt;Node3</title>
<path fill="none" stroke="midnightblue" d="M157.27,-10C165.18,-10 174.1,-10 182.78,-10"/>
<polygon fill="midnightblue" stroke="midnightblue" points="182.78,-13.5 192.78,-10 182.78,-6.5 182.78,-13.5"/>
</g>
</g>
</svg>
