<?xml version="1.0" encoding="UTF-8" standalone="no"?>
<!DOCTYPE svg PUBLIC "-//W3C//DTD SVG 1.1//EN"
 "http://www.w3.org/Graphics/SVG/1.1/DTD/svg11.dtd">
<!-- Generated by graphviz version 2.42.3 (0)
 -->
<!-- Title: deleteCmd Pages: 1 -->
<svg width="339pt" height="218pt"
 viewBox="0.00 0.00 339.00 218.00" xmlns="http://www.w3.org/2000/svg" xmlns:xlink="http://www.w3.org/1999/xlink">
<g id="graph0" class="graph" transform="scale(1 1) rotate(0) translate(4 214)">
<title>deleteCmd</title>
<polygon fill="white" stroke="transparent" points="-4,4 -4,-214 335,-214 335,4 -4,4"/>
<!-- Node1 -->
<g id="node1" class="node">
<title>Node1</title>
<g id="a_node1"><a xlink:title="Delete a single node of the command list.">
<polygon fill="#bfbfbf" stroke="black" points="267,-95.5 267,-114.5 331,-114.5 331,-95.5 267,-95.5"/>
<text text-anchor="middle" x="299" y="-102.5" font-family="Helvetica,sans-Serif" font-size="10.00">deleteCmd</text>
</a>
</g>
</g>
<!-- Node2 -->
<g id="node2" class="node">
<title>Node2</title>
<g id="a_node2"><a xlink:href="readInTools_8c.html#a86a2f0407995fa7f2e7bb06f1849f7c1" target="_top" xlink:title="Find a command in the commands list.">
<polygon fill="white" stroke="black" points="178,-95.5 178,-114.5 231,-114.5 231,-95.5 178,-95.5"/>
<text text-anchor="middle" x="204.5" y="-102.5" font-family="Helvetica,sans-Serif" font-size="10.00">findCmd</text>
</a>
</g>
</g>
<!-- Node1&#45;&gt;Node2 -->
<g id="edge1" class="edge">
<title>Node1&#45;&gt;Node2</title>
<path fill="none" stroke="midnightblue" d="M256.84,-105C248.08,-105 239.07,-105 231.09,-105"/>
<polygon fill="midnightblue" stroke="midnightblue" points="256.94,-108.5 266.94,-105 256.94,-101.5 256.94,-108.5"/>
</g>
<!-- Node3 -->
<g id="node3" class="node">
<title>Node3</title>
<g id="a_node3"><a xlink:href="readInTools_8h.html#a54ce5bb180132f80c48a1d5681df55f7" target="_top" xlink:title="Get a boolean from the commands list.">
<polygon fill="white" stroke="black" points="83,-190.5 83,-209.5 133,-209.5 133,-190.5 83,-190.5"/>
<text text-anchor="middle" x="108" y="-197.5" font-family="Helvetica,sans-Serif" font-size="10.00">getBool</text>
</a>
</g>
</g>
<!-- Node2&#45;&gt;Node3 -->
<g id="edge2" class="edge">
<title>Node2&#45;&gt;Node3</title>
<path fill="none" stroke="midnightblue" d="M191.42,-123.56C180.06,-140.03 161.86,-164.05 142,-181 137.88,-184.52 133.01,-187.73 128.3,-190.48"/>
<polygon fill="midnightblue" stroke="midnightblue" points="194.6,-125.09 197.28,-114.84 188.8,-121.19 194.6,-125.09"/>
</g>
<!-- Node5 -->
<g id="node5" class="node">
<title>Node5</title>
<g id="a_node5"><a xlink:href="readInTools_8h.html#a21afe1e7fa3e486a19cf7678b53f1782" target="_top" xlink:title="Get a double from the commands list.">
<polygon fill="white" stroke="black" points="85.5,-152.5 85.5,-171.5 130.5,-171.5 130.5,-152.5 85.5,-152.5"/>
<text text-anchor="middle" x="108" y="-159.5" font-family="Helvetica,sans-Serif" font-size="10.00">getDbl</text>
</a>
</g>
</g>
<!-- Node2&#45;&gt;Node5 -->
<g id="edge4" class="edge">
<title>Node2&#45;&gt;Node5</title>
<path fill="none" stroke="midnightblue" d="M179.89,-119.83C168.49,-126.92 154.59,-135.49 142,-143 136.78,-146.12 131.05,-149.45 125.85,-152.43"/>
<polygon fill="midnightblue" stroke="midnightblue" points="181.79,-122.77 188.42,-114.5 178.08,-116.83 181.79,-122.77"/>
</g>
<!-- Node6 -->
<g id="node6" class="node">
<title>Node6</title>
<g id="a_node6"><a xlink:href="readInTools_8h.html#ae70140bbdb2b646ee2b5814a4eeec25d" target="_top" xlink:title="Get a double array from the commands list.">
<polygon fill="white" stroke="black" points="74,-114.5 74,-133.5 142,-133.5 142,-114.5 74,-114.5"/>
<text text-anchor="middle" x="108" y="-121.5" font-family="Helvetica,sans-Serif" font-size="10.00">getDblArray</text>
</a>
</g>
</g>
<!-- Node2&#45;&gt;Node6 -->
<g id="edge5" class="edge">
<title>Node2&#45;&gt;Node6</title>
<path fill="none" stroke="midnightblue" d="M167.79,-112.18C159.41,-113.86 150.52,-115.65 142.25,-117.31"/>
<polygon fill="midnightblue" stroke="midnightblue" points="168.56,-115.59 177.68,-110.19 167.18,-108.73 168.56,-115.59"/>
</g>
<!-- Node7 -->
<g id="node7" class="node">
<title>Node7</title>
<g id="a_node7"><a xlink:href="readInTools_8h.html#ad920bf2e8d08267c632f9d48f6932d43" target="_top" xlink:title="Get an integer from the commands list.">
<polygon fill="white" stroke="black" points="87.5,-76.5 87.5,-95.5 128.5,-95.5 128.5,-76.5 87.5,-76.5"/>
<text text-anchor="middle" x="108" y="-83.5" font-family="Helvetica,sans-Serif" font-size="10.00">getInt</text>
</a>
</g>
</g>
<!-- Node2&#45;&gt;Node7 -->
<g id="edge6" class="edge">
<title>Node2&#45;&gt;Node7</title>
<path fill="none" stroke="midnightblue" d="M167.49,-97.76C154.36,-95.12 140,-92.23 128.8,-89.98"/>
<polygon fill="midnightblue" stroke="midnightblue" points="167.18,-101.27 177.68,-99.81 168.56,-94.41 167.18,-101.27"/>
</g>
<!-- Node8 -->
<g id="node8" class="node">
<title>Node8</title>
<g id="a_node8"><a xlink:href="readInTools_8h.html#aa17bbb9b3a07995ce15ba872ba3298c4" target="_top" xlink:title="Get an integer array from the commands list.">
<polygon fill="white" stroke="black" points="75.5,-38.5 75.5,-57.5 140.5,-57.5 140.5,-38.5 75.5,-38.5"/>
<text text-anchor="middle" x="108" y="-45.5" font-family="Helvetica,sans-Serif" font-size="10.00">getIntArray</text>
</a>
</g>
</g>
<!-- Node2&#45;&gt;Node8 -->
<g id="edge7" class="edge">
<title>Node2&#45;&gt;Node8</title>
<path fill="none" stroke="midnightblue" d="M179.89,-90.17C168.49,-83.08 154.59,-74.51 142,-67 136.78,-63.88 131.05,-60.55 125.85,-57.57"/>
<polygon fill="midnightblue" stroke="midnightblue" points="178.08,-93.17 188.42,-95.5 181.79,-87.23 178.08,-93.17"/>
</g>
<!-- Node9 -->
<g id="node9" class="node">
<title>Node9</title>
<g id="a_node9"><a xlink:href="readInTools_8c.html#ad1537cf7beba1f694aaeab670b9a4afd" target="_top" xlink:title="Get a string from the commands list.">
<polygon fill="white" stroke="black" points="86.5,-0.5 86.5,-19.5 129.5,-19.5 129.5,-0.5 86.5,-0.5"/>
<text text-anchor="middle" x="108" y="-7.5" font-family="Helvetica,sans-Serif" font-size="10.00">getStr</text>
</a>
</g>
</g>
<!-- Node2&#45;&gt;Node9 -->
<g id="edge8" class="edge">
<title>Node2&#45;&gt;Node9</title>
<path fill="none" stroke="midnightblue" d="M191.42,-86.44C180.06,-69.97 161.86,-45.95 142,-29 137.88,-25.48 133.01,-22.27 128.3,-19.52"/>
<polygon fill="midnightblue" stroke="midnightblue" points="188.8,-88.81 197.28,-95.16 194.6,-84.91 188.8,-88.81"/>
</g>
<!-- Node4 -->
<g id="node4" class="node">
<title>Node4</title>
<g id="a_node4"><a xlink:href="main_8c.html#a0ddf1224851353fc92bfbff6f499fa97" target="_top" xlink:title="Main function.">
<polygon fill="white" stroke="black" points="0,-190.5 0,-209.5 38,-209.5 38,-190.5 0,-190.5"/>
<text text-anchor="middle" x="19" y="-197.5" font-family="Helvetica,sans-Serif" font-size="10.00">main</text>
</a>
</g>
</g>
<!-- Node3&#45;&gt;Node4 -->
<g id="edge3" class="edge">
<title>Node3&#45;&gt;Node4</title>
<path fill="none" stroke="midnightblue" d="M72.7,-200C60.85,-200 48.05,-200 38.03,-200"/>
<polygon fill="midnightblue" stroke="midnightblue" points="72.77,-203.5 82.77,-200 72.77,-196.5 72.77,-203.5"/>
</g>
</g>
</svg>
