<?xml version="1.0" encoding="UTF-8" standalone="no"?>
<!DOCTYPE svg PUBLIC "-//W3C//DTD SVG 1.1//EN"
 "http://www.w3.org/Graphics/SVG/1.1/DTD/svg11.dtd">
<!-- Generated by graphviz version 2.42.3 (0)
 -->
<!-- Title: getInt Pages: 1 -->
<svg width="238pt" height="28pt"
 viewBox="0.00 0.00 238.00 28.00" xmlns="http://www.w3.org/2000/svg" xmlns:xlink="http://www.w3.org/1999/xlink">
<g id="graph0" class="graph" transform="scale(1 1) rotate(0) translate(4 24)">
<title>getInt</title>
<polygon fill="white" stroke="transparent" points="-4,4 -4,-24 234,-24 234,4 -4,4"/>
<!-- Node1 -->
<g id="node1" class="node">
<title>Node1</title>
<g id="a_node1"><a xlink:title="Get an integer from the commands list.">
<polygon fill="#bfbfbf" stroke="black" points="0,-0.5 0,-19.5 41,-19.5 41,-0.5 0,-0.5"/>
<text text-anchor="middle" x="20.5" y="-7.5" font-family="Helvetica,sans-Serif" font-size="10.00">getInt</text>
</a>
</g>
</g>
<!-- Node2 -->
<g id="node2" class="node">
<title>Node2</title>
<g id="a_node2"><a xlink:href="readInTools_8c.html#a86a2f0407995fa7f2e7bb06f1849f7c1" target="_top" xlink:title="Find a command in the commands list.">
<polygon fill="white" stroke="black" points="77,-0.5 77,-19.5 130,-19.5 130,-0.5 77,-0.5"/>
<text text-anchor="middle" x="103.5" y="-7.5" font-family="Helvetica,sans-Serif" font-size="10.00">findCmd</text>
</a>
</g>
</g>
<!-- Node1&#45;&gt;Node2 -->
<g id="edge1" class="edge">
<title>Node1&#45;&gt;Node2</title>
<path fill="none" stroke="midnightblue" d="M41.11,-10C48.85,-10 57.99,-10 66.82,-10"/>
<polygon fill="midnightblue" stroke="midnightblue" points="66.94,-13.5 76.94,-10 66.94,-6.5 66.94,-13.5"/>
</g>
<!-- Node3 -->
<g id="node3" class="node">
<title>Node3</title>
<g id="a_node3"><a xlink:href="readInTools_8c.html#ad5d64c5886e695aa1141d1b8b0e117d9" target="_top" xlink:title="Delete a single node of the command list.">
<polygon fill="white" stroke="black" points="166,-0.5 166,-19.5 230,-19.5 230,-0.5 166,-0.5"/>
<text text-anchor="middle" x="198" y="-7.5" font-family="Helvetica,sans-Serif" font-size="10.00">deleteCmd</text>
</a>
</g>
</g>
<!-- Node2&#45;&gt;Node3 -->
<g id="edge2" class="edge">
<title>Node2&#45;&gt;Node3</title>
<path fill="none" stroke="midnightblue" d="M130.27,-10C138.18,-10 147.1,-10 155.78,-10"/>
<polygon fill="midnightblue" stroke="midnightblue" points="155.78,-13.5 165.78,-10 155.78,-6.5 155.78,-13.5"/>
</g>
</g>
</svg>
