<?xml version="1.0" encoding="UTF-8" standalone="no"?>
<!DOCTYPE svg PUBLIC "-//W3C//DTD SVG 1.1//EN"
 "http://www.w3.org/Graphics/SVG/1.1/DTD/svg11.dtd">
<!-- Generated by graphviz version 2.44.0 (0)
 -->
<!-- Title: ccfd/src/analyze.h Pages: 1 -->
<svg width="229pt" height="196pt"
 viewBox="0.00 0.00 228.86 196.00" xmlns="http://www.w3.org/2000/svg" xmlns:xlink="http://www.w3.org/1999/xlink">
<g id="graph0" class="graph" transform="scale(1 1) rotate(0) translate(4 192)">
<title>ccfd/src/analyze.h</title>
<polygon fill="white" stroke="transparent" points="-4,4 -4,-192 224.86,-192 224.86,4 -4,4"/>
<!-- Node1 -->
<g id="node1" class="node">
<title>Node1</title>
<g id="a_node1"><a xlink:title="Contains the structure definitions of wing_t and recordPoint_t">
<polygon fill="#bfbfbf" stroke="black" points="89,-168.5 89,-187.5 185,-187.5 185,-168.5 89,-168.5"/>
<text text-anchor="middle" x="137" y="-175.5" font-family="Helvetica,sans-Serif" font-size="10.00">ccfd/src/analyze.h</text>
</a>
</g>
</g>
<!-- Node2 -->
<g id="node2" class="node">
<title>Node2</title>
<g id="a_node2"><a xlink:title=" ">
<polygon fill="white" stroke="#bfbfbf" points="0,-112.5 0,-131.5 48,-131.5 48,-112.5 0,-112.5"/>
<text text-anchor="middle" x="24" y="-119.5" font-family="Helvetica,sans-Serif" font-size="10.00">stdlib.h</text>
</a>
</g>
</g>
<!-- Node1&#45;&gt;Node2 -->
<g id="edge1" class="edge">
<title>Node1&#45;&gt;Node2</title>
<path fill="none" stroke="midnightblue" d="M119.09,-168.44C100.75,-159.68 71.99,-145.94 50.91,-135.86"/>
<polygon fill="midnightblue" stroke="midnightblue" points="52.35,-132.67 41.82,-131.52 49.33,-138.99 52.35,-132.67"/>
</g>
<!-- Node3 -->
<g id="node3" class="node">
<title>Node3</title>
<g id="a_node3"><a xlink:title=" ">
<polygon fill="white" stroke="#bfbfbf" points="48,-56.5 48,-75.5 104,-75.5 104,-56.5 48,-56.5"/>
<text text-anchor="middle" x="76" y="-63.5" font-family="Helvetica,sans-Serif" font-size="10.00">stdbool.h</text>
</a>
</g>
</g>
<!-- Node1&#45;&gt;Node3 -->
<g id="edge2" class="edge">
<title>Node1&#45;&gt;Node3</title>
<path fill="none" stroke="midnightblue" d="M126.56,-168.4C117.04,-160.03 103.25,-146.49 95,-132 86.82,-117.63 81.89,-99.44 79.11,-85.95"/>
<polygon fill="midnightblue" stroke="midnightblue" points="82.52,-85.12 77.26,-75.92 75.64,-86.39 82.52,-85.12"/>
</g>
<!-- Node4 -->
<g id="node4" class="node">
<title>Node4</title>
<g id="a_node4"><a xlink:href="main_8h.html" target="_top" xlink:title="Contains the global constants and definitions.">
<polygon fill="white" stroke="black" points="162,-0.5 162,-19.5 208,-19.5 208,-0.5 162,-0.5"/>
<text text-anchor="middle" x="185" y="-7.5" font-family="Helvetica,sans-Serif" font-size="10.00">main.h</text>
</a>
</g>
</g>
<!-- Node1&#45;&gt;Node4 -->
<g id="edge3" class="edge">
<title>Node1&#45;&gt;Node4</title>
<path fill="none" stroke="midnightblue" d="M152.07,-168.34C164.93,-160.32 183.15,-147.33 195,-132 211.56,-110.57 213.56,-102.53 219,-76 220.79,-67.29 221.83,-64.43 219,-56 215.4,-45.25 208.1,-35.02 201.18,-27.04"/>
<polygon fill="midnightblue" stroke="midnightblue" points="203.65,-24.56 194.29,-19.61 198.52,-29.32 203.65,-24.56"/>
</g>
<!-- Node5 -->
<g id="node5" class="node">
<title>Node5</title>
<g id="a_node5"><a xlink:href="boundary_8h.html" target="_top" xlink:title="Contains the structure definition of a boundary.">
<polygon fill="white" stroke="black" points="104.5,-112.5 104.5,-131.5 169.5,-131.5 169.5,-112.5 104.5,-112.5"/>
<text text-anchor="middle" x="137" y="-119.5" font-family="Helvetica,sans-Serif" font-size="10.00">boundary.h</text>
</a>
</g>
</g>
<!-- Node1&#45;&gt;Node5 -->
<g id="edge4" class="edge">
<title>Node1&#45;&gt;Node5</title>
<path fill="none" stroke="midnightblue" d="M137,-168.08C137,-161.01 137,-150.86 137,-141.99"/>
<polygon fill="midnightblue" stroke="midnightblue" points="140.5,-141.75 137,-131.75 133.5,-141.75 140.5,-141.75"/>
</g>
<!-- Node6 -->
<g id="node6" class="node">
<title>Node6</title>
<g id="a_node6"><a xlink:href="mesh_8h.html" target="_top" xlink:title="Contains the definitions of all structs for the mesh handling.">
<polygon fill="white" stroke="black" points="160.5,-56.5 160.5,-75.5 209.5,-75.5 209.5,-56.5 160.5,-56.5"/>
<text text-anchor="middle" x="185" y="-63.5" font-family="Helvetica,sans-Serif" font-size="10.00">mesh.h</text>
</a>
</g>
</g>
<!-- Node1&#45;&gt;Node6 -->
<g id="edge10" class="edge">
<title>Node1&#45;&gt;Node6</title>
<path fill="none" stroke="midnightblue" d="M148.48,-168.41C158.44,-160.25 172.27,-147.02 179,-132 185.45,-117.6 186.66,-99.64 186.42,-86.25"/>
<polygon fill="midnightblue" stroke="midnightblue" points="189.9,-85.69 185.93,-75.86 182.91,-86.02 189.9,-85.69"/>
</g>
<!-- Node5&#45;&gt;Node3 -->
<g id="edge5" class="edge">
<title>Node5&#45;&gt;Node3</title>
<path fill="none" stroke="midnightblue" d="M127.2,-112.32C118.18,-104.34 104.59,-92.31 93.68,-82.65"/>
<polygon fill="midnightblue" stroke="midnightblue" points="95.79,-79.84 85.98,-75.83 91.15,-85.08 95.79,-79.84"/>
</g>
<!-- Node5&#45;&gt;Node4 -->
<g id="edge6" class="edge">
<title>Node5&#45;&gt;Node4</title>
<path fill="none" stroke="midnightblue" d="M137.88,-112.23C139.43,-99.39 143.31,-74.95 152,-56 156.68,-45.78 163.9,-35.58 170.39,-27.48"/>
<polygon fill="midnightblue" stroke="midnightblue" points="173.25,-29.53 177,-19.62 167.89,-25.02 173.25,-29.53"/>
</g>
<!-- Node5&#45;&gt;Node6 -->
<g id="edge7" class="edge">
<title>Node5&#45;&gt;Node6</title>
<path fill="none" stroke="midnightblue" d="M139.76,-112.08C145.14,-104.14 155.29,-92.34 164.75,-82.8"/>
<polygon fill="midnightblue" stroke="midnightblue" points="167.3,-85.2 172.09,-75.75 162.45,-80.15 167.3,-85.2"/>
</g>
<!-- Node6&#45;&gt;Node4 -->
<g id="edge8" class="edge">
<title>Node6&#45;&gt;Node4</title>
<path fill="none" stroke="midnightblue" d="M185,-56.08C185,-49.01 185,-38.86 185,-29.99"/>
<polygon fill="midnightblue" stroke="midnightblue" points="188.5,-29.75 185,-19.75 181.5,-29.75 188.5,-29.75"/>
</g>
<!-- Node6&#45;&gt;Node5 -->
<g id="edge9" class="edge">
<title>Node6&#45;&gt;Node5</title>
<path fill="none" stroke="midnightblue" d="M182.3,-75.83C176.92,-83.79 166.71,-95.67 157.2,-105.25"/>
<polygon fill="midnightblue" stroke="midnightblue" points="154.62,-102.88 149.83,-112.32 159.47,-107.93 154.62,-102.88"/>
</g>
</g>
</svg>
