<?xml version="1.0" encoding="UTF-8" standalone="no"?>
<!DOCTYPE svg PUBLIC "-//W3C//DTD SVG 1.1//EN"
 "http://www.w3.org/Graphics/SVG/1.1/DTD/svg11.dtd">
<!-- Generated by graphviz version 2.44.0 (0)
 -->
<!-- Title: ccfd/src/boundary.c Pages: 1 -->
<svg width="679pt" height="196pt"
 viewBox="0.00 0.00 679.00 196.00" xmlns="http://www.w3.org/2000/svg" xmlns:xlink="http://www.w3.org/1999/xlink">
<g id="graph0" class="graph" transform="scale(1 1) rotate(0) translate(4 192)">
<title>ccfd/src/boundary.c</title>
<polygon fill="white" stroke="transparent" points="-4,4 -4,-192 675,-192 675,4 -4,4"/>
<!-- Node1 -->
<g id="node1" class="node">
<title>Node1</title>
<g id="a_node1"><a xlink:title="Contains the functions for initializing and applying boundary conditions.">
<polygon fill="#bfbfbf" stroke="black" points="256.5,-168.5 256.5,-187.5 359.5,-187.5 359.5,-168.5 256.5,-168.5"/>
<text text-anchor="middle" x="308" y="-175.5" font-family="Helvetica,sans-Serif" font-size="10.00">ccfd/src/boundary.c</text>
</a>
</g>
</g>
<!-- Node2 -->
<g id="node2" class="node">
<title>Node2</title>
<g id="a_node2"><a xlink:title=" ">
<polygon fill="white" stroke="#bfbfbf" points="0,-112.5 0,-131.5 46,-131.5 46,-112.5 0,-112.5"/>
<text text-anchor="middle" x="23" y="-119.5" font-family="Helvetica,sans-Serif" font-size="10.00">stdio.h</text>
</a>
</g>
</g>
<!-- Node1&#45;&gt;Node2 -->
<g id="edge1" class="edge">
<title>Node1&#45;&gt;Node2</title>
<path fill="none" stroke="midnightblue" d="M256.34,-169.33C207.2,-161.7 131.04,-148.98 56.09,-132.07"/>
<polygon fill="midnightblue" stroke="midnightblue" points="56.53,-128.58 46,-129.76 54.97,-135.4 56.53,-128.58"/>
</g>
<!-- Node3 -->
<g id="node3" class="node">
<title>Node3</title>
<g id="a_node3"><a xlink:title=" ">
<polygon fill="white" stroke="#bfbfbf" points="64,-112.5 64,-131.5 112,-131.5 112,-112.5 64,-112.5"/>
<text text-anchor="middle" x="88" y="-119.5" font-family="Helvetica,sans-Serif" font-size="10.00">stdlib.h</text>
</a>
</g>
</g>
<!-- Node1&#45;&gt;Node3 -->
<g id="edge2" class="edge">
<title>Node1&#45;&gt;Node3</title>
<path fill="none" stroke="midnightblue" d="M271.02,-168.45C235.3,-160.11 179.44,-146.87 122.09,-132.23"/>
<polygon fill="midnightblue" stroke="midnightblue" points="122.68,-128.76 112.13,-129.67 120.95,-135.54 122.68,-128.76"/>
</g>
<!-- Node4 -->
<g id="node4" class="node">
<title>Node4</title>
<g id="a_node4"><a xlink:title=" ">
<polygon fill="white" stroke="#bfbfbf" points="130.5,-112.5 130.5,-131.5 177.5,-131.5 177.5,-112.5 130.5,-112.5"/>
<text text-anchor="middle" x="154" y="-119.5" font-family="Helvetica,sans-Serif" font-size="10.00">math.h</text>
</a>
</g>
</g>
<!-- Node1&#45;&gt;Node4 -->
<g id="edge3" class="edge">
<title>Node1&#45;&gt;Node4</title>
<path fill="none" stroke="midnightblue" d="M283.6,-168.44C257.58,-159.32 216.2,-144.81 187.22,-134.65"/>
<polygon fill="midnightblue" stroke="midnightblue" points="188.12,-131.26 177.53,-131.25 185.81,-137.86 188.12,-131.26"/>
</g>
<!-- Node5 -->
<g id="node5" class="node">
<title>Node5</title>
<g id="a_node5"><a xlink:href="main_8h.html" target="_top" xlink:title="Contains the global constants and definitions.">
<polygon fill="white" stroke="black" points="382,-0.5 382,-19.5 428,-19.5 428,-0.5 382,-0.5"/>
<text text-anchor="middle" x="405" y="-7.5" font-family="Helvetica,sans-Serif" font-size="10.00">main.h</text>
</a>
</g>
</g>
<!-- Node1&#45;&gt;Node5 -->
<g id="edge4" class="edge">
<title>Node1&#45;&gt;Node5</title>
<path fill="none" stroke="midnightblue" d="M359.51,-174.59C400.13,-170.5 456.64,-159.79 498,-132 523.39,-114.94 528.67,-105.13 538,-76 551.98,-32.38 482.04,-17.99 438.25,-13.28"/>
<polygon fill="midnightblue" stroke="midnightblue" points="438.57,-9.79 428.28,-12.32 437.9,-16.76 438.57,-9.79"/>
</g>
<!-- Node6 -->
<g id="node6" class="node">
<title>Node6</title>
<g id="a_node6"><a xlink:href="boundary_8h.html" target="_top" xlink:title="Contains the structure definition of a boundary.">
<polygon fill="white" stroke="black" points="234.5,-112.5 234.5,-131.5 299.5,-131.5 299.5,-112.5 234.5,-112.5"/>
<text text-anchor="middle" x="267" y="-119.5" font-family="Helvetica,sans-Serif" font-size="10.00">boundary.h</text>
</a>
</g>
</g>
<!-- Node1&#45;&gt;Node6 -->
<g id="edge5" class="edge">
<title>Node1&#45;&gt;Node6</title>
<path fill="none" stroke="midnightblue" d="M301.23,-168.08C295.44,-160.46 286.94,-149.26 279.86,-139.94"/>
<polygon fill="midnightblue" stroke="midnightblue" points="282.48,-137.6 273.64,-131.75 276.9,-141.83 282.48,-137.6"/>
</g>
<!-- Node8 -->
<g id="node8" class="node">
<title>Node8</title>
<g id="a_node8"><a xlink:href="mesh_8h.html" target="_top" xlink:title="Contains the definitions of all structs for the mesh handling.">
<polygon fill="white" stroke="black" points="215.5,-56.5 215.5,-75.5 264.5,-75.5 264.5,-56.5 215.5,-56.5"/>
<text text-anchor="middle" x="240" y="-63.5" font-family="Helvetica,sans-Serif" font-size="10.00">mesh.h</text>
</a>
</g>
</g>
<!-- Node1&#45;&gt;Node8 -->
<g id="edge16" class="edge">
<title>Node1&#45;&gt;Node8</title>
<path fill="none" stroke="midnightblue" d="M275.82,-168.49C257.46,-161.8 235.98,-150.45 225,-132 216.32,-117.43 222.48,-98.25 229.34,-84.51"/>
<polygon fill="midnightblue" stroke="midnightblue" points="232.49,-86.06 234.26,-75.61 226.36,-82.67 232.49,-86.06"/>
</g>
<!-- Node9 -->
<g id="node9" class="node">
<title>Node9</title>
<g id="a_node9"><a xlink:href="readInTools_8h.html" target="_top" xlink:title=" ">
<polygon fill="white" stroke="black" points="398,-112.5 398,-131.5 472,-131.5 472,-112.5 398,-112.5"/>
<text text-anchor="middle" x="435" y="-119.5" font-family="Helvetica,sans-Serif" font-size="10.00">readInTools.h</text>
</a>
</g>
</g>
<!-- Node1&#45;&gt;Node9 -->
<g id="edge11" class="edge">
<title>Node1&#45;&gt;Node9</title>
<path fill="none" stroke="midnightblue" d="M328.12,-168.44C349.02,-159.56 381.93,-145.56 405.72,-135.45"/>
<polygon fill="midnightblue" stroke="midnightblue" points="407.14,-138.65 414.97,-131.52 404.4,-132.21 407.14,-138.65"/>
</g>
<!-- Node10 -->
<g id="node10" class="node">
<title>Node10</title>
<g id="a_node10"><a xlink:href="equation_8h.html" target="_top" xlink:title=" ">
<polygon fill="white" stroke="black" points="318,-112.5 318,-131.5 380,-131.5 380,-112.5 318,-112.5"/>
<text text-anchor="middle" x="349" y="-119.5" font-family="Helvetica,sans-Serif" font-size="10.00">equation.h</text>
</a>
</g>
</g>
<!-- Node1&#45;&gt;Node10 -->
<g id="edge14" class="edge">
<title>Node1&#45;&gt;Node10</title>
<path fill="none" stroke="midnightblue" d="M314.77,-168.08C320.56,-160.46 329.06,-149.26 336.14,-139.94"/>
<polygon fill="midnightblue" stroke="midnightblue" points="339.1,-141.83 342.36,-131.75 333.52,-137.6 339.1,-141.83"/>
</g>
<!-- Node11 -->
<g id="node11" class="node">
<title>Node11</title>
<g id="a_node11"><a xlink:href="equationOfState_8h.html" target="_top" xlink:title=" ">
<polygon fill="white" stroke="black" points="433.5,-56.5 433.5,-75.5 528.5,-75.5 528.5,-56.5 433.5,-56.5"/>
<text text-anchor="middle" x="481" y="-63.5" font-family="Helvetica,sans-Serif" font-size="10.00">equationOfState.h</text>
</a>
</g>
</g>
<!-- Node1&#45;&gt;Node11 -->
<g id="edge17" class="edge">
<title>Node1&#45;&gt;Node11</title>
<path fill="none" stroke="midnightblue" d="M359.79,-170.53C405.19,-163.67 466.19,-151.15 481,-132 491.02,-119.04 489.68,-99.87 486.63,-85.71"/>
<polygon fill="midnightblue" stroke="midnightblue" points="489.92,-84.43 484.01,-75.63 483.14,-86.19 489.92,-84.43"/>
</g>
<!-- Node12 -->
<g id="node12" class="node">
<title>Node12</title>
<g id="a_node12"><a xlink:href="exactFunction_8h.html" target="_top" xlink:title=" ">
<polygon fill="white" stroke="black" points="585,-112.5 585,-131.5 671,-131.5 671,-112.5 585,-112.5"/>
<text text-anchor="middle" x="628" y="-119.5" font-family="Helvetica,sans-Serif" font-size="10.00">exactFunction.h</text>
</a>
</g>
</g>
<!-- Node1&#45;&gt;Node12 -->
<g id="edge19" class="edge">
<title>Node1&#45;&gt;Node12</title>
<path fill="none" stroke="midnightblue" d="M358.7,-168.44C417.68,-158.49 514.6,-142.14 574.67,-132"/>
<polygon fill="midnightblue" stroke="midnightblue" points="575.44,-135.42 584.72,-130.3 574.27,-128.52 575.44,-135.42"/>
</g>
<!-- Node6&#45;&gt;Node5 -->
<g id="edge7" class="edge">
<title>Node6&#45;&gt;Node5</title>
<path fill="none" stroke="midnightblue" d="M271.12,-112.36C277.96,-98.82 292.81,-72.42 312,-56 329.64,-40.9 353.21,-29.57 372.22,-22.05"/>
<polygon fill="midnightblue" stroke="midnightblue" points="373.57,-25.28 381.68,-18.47 371.09,-18.74 373.57,-25.28"/>
</g>
<!-- Node7 -->
<g id="node7" class="node">
<title>Node7</title>
<g id="a_node7"><a xlink:title=" ">
<polygon fill="white" stroke="#bfbfbf" points="321,-56.5 321,-75.5 377,-75.5 377,-56.5 321,-56.5"/>
<text text-anchor="middle" x="349" y="-63.5" font-family="Helvetica,sans-Serif" font-size="10.00">stdbool.h</text>
</a>
</g>
</g>
<!-- Node6&#45;&gt;Node7 -->
<g id="edge6" class="edge">
<title>Node6&#45;&gt;Node7</title>
<path fill="none" stroke="midnightblue" d="M280.17,-112.32C292.85,-103.98 312.23,-91.21 327.21,-81.35"/>
<polygon fill="midnightblue" stroke="midnightblue" points="329.43,-84.08 335.86,-75.65 325.58,-78.23 329.43,-84.08"/>
</g>
<!-- Node6&#45;&gt;Node8 -->
<g id="edge8" class="edge">
<title>Node6&#45;&gt;Node8</title>
<path fill="none" stroke="midnightblue" d="M257.38,-112.08C252.23,-104.85 246.59,-94.41 242.76,-85.4"/>
<polygon fill="midnightblue" stroke="midnightblue" points="245.96,-83.95 239.24,-75.75 239.38,-86.35 245.96,-83.95"/>
</g>
<!-- Node8&#45;&gt;Node5 -->
<g id="edge9" class="edge">
<title>Node8&#45;&gt;Node5</title>
<path fill="none" stroke="midnightblue" d="M264.7,-56.92C293.34,-47.54 340.64,-32.06 372.31,-21.7"/>
<polygon fill="midnightblue" stroke="midnightblue" points="373.58,-24.97 381.99,-18.53 371.4,-18.31 373.58,-24.97"/>
</g>
<!-- Node8&#45;&gt;Node6 -->
<g id="edge10" class="edge">
<title>Node8&#45;&gt;Node6</title>
<path fill="none" stroke="midnightblue" d="M249.51,-75.75C254.7,-83.01 260.42,-93.59 264.27,-102.69"/>
<polygon fill="midnightblue" stroke="midnightblue" points="260.99,-103.89 267.71,-112.08 267.56,-101.49 260.99,-103.89"/>
</g>
<!-- Node9&#45;&gt;Node5 -->
<g id="edge13" class="edge">
<title>Node9&#45;&gt;Node5</title>
<path fill="none" stroke="midnightblue" d="M432.65,-112.37C427.78,-94.54 416.54,-53.3 409.98,-29.27"/>
<polygon fill="midnightblue" stroke="midnightblue" points="413.35,-28.32 407.34,-19.59 406.6,-30.16 413.35,-28.32"/>
</g>
<!-- Node9&#45;&gt;Node7 -->
<g id="edge12" class="edge">
<title>Node9&#45;&gt;Node7</title>
<path fill="none" stroke="midnightblue" d="M421.18,-112.32C407.77,-103.9 387.18,-90.97 371.41,-81.07"/>
<polygon fill="midnightblue" stroke="midnightblue" points="373.11,-78.01 362.78,-75.65 369.39,-83.94 373.11,-78.01"/>
</g>
<!-- Node10&#45;&gt;Node7 -->
<g id="edge15" class="edge">
<title>Node10&#45;&gt;Node7</title>
<path fill="none" stroke="midnightblue" d="M349,-112.08C349,-105.01 349,-94.86 349,-85.99"/>
<polygon fill="midnightblue" stroke="midnightblue" points="352.5,-85.75 349,-75.75 345.5,-85.75 352.5,-85.75"/>
</g>
<!-- Node11&#45;&gt;Node5 -->
<g id="edge18" class="edge">
<title>Node11&#45;&gt;Node5</title>
<path fill="none" stroke="midnightblue" d="M468.79,-56.32C457.22,-48.11 439.62,-35.6 425.84,-25.81"/>
<polygon fill="midnightblue" stroke="midnightblue" points="427.61,-22.77 417.43,-19.83 423.56,-28.48 427.61,-22.77"/>
</g>
</g>
</svg>
