<?xml version="1.0" encoding="UTF-8" standalone="no"?>
<!DOCTYPE svg PUBLIC "-//W3C//DTD SVG 1.1//EN"
 "http://www.w3.org/Graphics/SVG/1.1/DTD/svg11.dtd">
<!-- Generated by graphviz version 2.44.0 (0)
 -->
<!-- Title: ccfd/src/boundary.h Pages: 1 -->
<svg width="1437pt" height="196pt"
 viewBox="0.00 0.00 1436.50 196.00" xmlns="http://www.w3.org/2000/svg" xmlns:xlink="http://www.w3.org/1999/xlink">
<g id="graph0" class="graph" transform="scale(1 1) rotate(0) translate(4 192)">
<title>ccfd/src/boundary.h</title>
<polygon fill="white" stroke="transparent" points="-4,4 -4,-192 1432.5,-192 1432.5,4 -4,4"/>
<!-- Node1 -->
<g id="node1" class="node">
<title>Node1</title>
<g id="a_node1"><a xlink:title="Contains the structure definition of a boundary.">
<polygon fill="#bfbfbf" stroke="black" points="502.5,-168.5 502.5,-187.5 605.5,-187.5 605.5,-168.5 502.5,-168.5"/>
<text text-anchor="middle" x="554" y="-175.5" font-family="Helvetica,sans-Serif" font-size="10.00">ccfd/src/boundary.h</text>
</a>
</g>
</g>
<!-- Node2 -->
<g id="node2" class="node">
<title>Node2</title>
<g id="a_node2"><a xlink:href="analyze_8h.html" target="_top" xlink:title="Contains the structure definitions of wing_t and recordPoint_t">
<polygon fill="white" stroke="black" points="55,-56.5 55,-75.5 151,-75.5 151,-56.5 55,-56.5"/>
<text text-anchor="middle" x="103" y="-63.5" font-family="Helvetica,sans-Serif" font-size="10.00">ccfd/src/analyze.h</text>
</a>
</g>
</g>
<!-- Node1&#45;&gt;Node2 -->
<g id="edge1" class="edge">
<title>Node1&#45;&gt;Node2</title>
<path fill="none" stroke="midnightblue" d="M492.35,-174.94C397.53,-170.94 221,-159.89 165,-132 138.76,-118.93 117.62,-90 108.24,-75.56"/>
<polygon fill="midnightblue" stroke="midnightblue" points="492.25,-178.44 502.38,-175.35 492.53,-171.45 492.25,-178.44"/>
</g>
<!-- Node4 -->
<g id="node4" class="node">
<title>Node4</title>
<g id="a_node4"><a xlink:href="main_8c.html" target="_top" xlink:title="Contains the main function of ccfd">
<polygon fill="white" stroke="black" points="259,-0.5 259,-19.5 343,-19.5 343,-0.5 259,-0.5"/>
<text text-anchor="middle" x="301" y="-7.5" font-family="Helvetica,sans-Serif" font-size="10.00">ccfd/src/main.c</text>
</a>
</g>
</g>
<!-- Node1&#45;&gt;Node4 -->
<g id="edge27" class="edge">
<title>Node1&#45;&gt;Node4</title>
<path fill="none" stroke="midnightblue" d="M492.36,-168.63C400.02,-154.67 232.84,-123.4 198,-76 177.59,-48.23 224.93,-29.47 262.02,-19.51"/>
<polygon fill="midnightblue" stroke="midnightblue" points="492.01,-172.12 502.42,-170.13 493.05,-165.19 492.01,-172.12"/>
</g>
<!-- Node7 -->
<g id="node7" class="node">
<title>Node7</title>
<g id="a_node7"><a xlink:href="mesh_8h.html" target="_top" xlink:title="Contains the definitions of all structs for the mesh handling.">
<polygon fill="white" stroke="black" points="609.5,-112.5 609.5,-131.5 696.5,-131.5 696.5,-112.5 609.5,-112.5"/>
<text text-anchor="middle" x="653" y="-119.5" font-family="Helvetica,sans-Serif" font-size="10.00">ccfd/src/mesh.h</text>
</a>
</g>
</g>
<!-- Node1&#45;&gt;Node7 -->
<g id="edge6" class="edge">
<title>Node1&#45;&gt;Node7</title>
<path fill="none" stroke="midnightblue" d="M573.84,-162.9C590.77,-153 614.77,-140.07 632.02,-131.65"/>
<polygon fill="midnightblue" stroke="midnightblue" points="571.57,-160.18 564.79,-168.32 575.17,-166.18 571.57,-160.18"/>
</g>
<!-- Node8 -->
<g id="node8" class="node">
<title>Node8</title>
<g id="a_node8"><a xlink:href="boundary_8c.html" target="_top" xlink:title="Contains the functions for initializing and applying boundary conditions.">
<polygon fill="white" stroke="black" points="207.5,-56.5 207.5,-75.5 310.5,-75.5 310.5,-56.5 207.5,-56.5"/>
<text text-anchor="middle" x="259" y="-63.5" font-family="Helvetica,sans-Serif" font-size="10.00">ccfd/src/boundary.c</text>
</a>
</g>
</g>
<!-- Node1&#45;&gt;Node8 -->
<g id="edge25" class="edge">
<title>Node1&#45;&gt;Node8</title>
<path fill="none" stroke="midnightblue" d="M521.46,-164.86C461.32,-142.44 334.18,-95.03 282.04,-75.59"/>
<polygon fill="midnightblue" stroke="midnightblue" points="520.26,-168.15 530.85,-168.37 522.7,-161.6 520.26,-168.15"/>
</g>
<!-- Node11 -->
<g id="node11" class="node">
<title>Node11</title>
<g id="a_node11"><a xlink:href="fluxCalculation_8c.html" target="_top" xlink:title="Contains the flux calculation functions.">
<polygon fill="white" stroke="black" points="1301.5,-0.5 1301.5,-19.5 1428.5,-19.5 1428.5,-0.5 1301.5,-0.5"/>
<text text-anchor="middle" x="1365" y="-7.5" font-family="Helvetica,sans-Serif" font-size="10.00">ccfd/src/fluxCalculation.c</text>
</a>
</g>
</g>
<!-- Node1&#45;&gt;Node11 -->
<g id="edge26" class="edge">
<title>Node1&#45;&gt;Node11</title>
<path fill="none" stroke="midnightblue" d="M615.78,-173.94C796.8,-164.37 1316.38,-132.17 1366,-76 1379.75,-60.44 1373.22,-33.67 1368.46,-19.84"/>
<polygon fill="midnightblue" stroke="midnightblue" points="615.43,-170.46 605.62,-174.48 615.79,-177.45 615.43,-170.46"/>
</g>
<!-- Node3 -->
<g id="node3" class="node">
<title>Node3</title>
<g id="a_node3"><a xlink:href="analyze_8c.html" target="_top" xlink:title="Contains functions for analyzing flow results.">
<polygon fill="white" stroke="black" points="0,-0.5 0,-19.5 96,-19.5 96,-0.5 0,-0.5"/>
<text text-anchor="middle" x="48" y="-7.5" font-family="Helvetica,sans-Serif" font-size="10.00">ccfd/src/analyze.c</text>
</a>
</g>
</g>
<!-- Node2&#45;&gt;Node3 -->
<g id="edge2" class="edge">
<title>Node2&#45;&gt;Node3</title>
<path fill="none" stroke="midnightblue" d="M86.71,-49C76.96,-39.43 64.95,-27.64 56.91,-19.75"/>
<polygon fill="midnightblue" stroke="midnightblue" points="84.33,-51.57 93.92,-56.08 89.23,-46.58 84.33,-51.57"/>
</g>
<!-- Node2&#45;&gt;Node4 -->
<g id="edge3" class="edge">
<title>Node2&#45;&gt;Node4</title>
<path fill="none" stroke="midnightblue" d="M144.44,-53.7C181.81,-43.51 235.94,-28.74 269.77,-19.52"/>
<polygon fill="midnightblue" stroke="midnightblue" points="143.1,-50.44 134.37,-56.44 144.94,-57.19 143.1,-50.44"/>
</g>
<!-- Node5 -->
<g id="node5" class="node">
<title>Node5</title>
<g id="a_node5"><a xlink:href="output_8c.html" target="_top" xlink:title="Contains all functions used for writing flow solutions.">
<polygon fill="white" stroke="black" points="114.5,-0.5 114.5,-19.5 203.5,-19.5 203.5,-0.5 114.5,-0.5"/>
<text text-anchor="middle" x="159" y="-7.5" font-family="Helvetica,sans-Serif" font-size="10.00">ccfd/src/output.c</text>
</a>
</g>
</g>
<!-- Node2&#45;&gt;Node5 -->
<g id="edge4" class="edge">
<title>Node2&#45;&gt;Node5</title>
<path fill="none" stroke="midnightblue" d="M119.33,-49.25C129.26,-39.67 141.59,-27.79 149.84,-19.83"/>
<polygon fill="midnightblue" stroke="midnightblue" points="116.77,-46.86 112,-56.32 121.63,-51.9 116.77,-46.86"/>
</g>
<!-- Node6 -->
<g id="node6" class="node">
<title>Node6</title>
<g id="a_node6"><a xlink:href="timeDiscretization_8c.html" target="_top" xlink:title="Contains the functions for performing the time stepping process.">
<polygon fill="white" stroke="black" points="582,-0.5 582,-19.5 724,-19.5 724,-0.5 582,-0.5"/>
<text text-anchor="middle" x="653" y="-7.5" font-family="Helvetica,sans-Serif" font-size="10.00">ccfd/src/timeDiscretization.c</text>
</a>
</g>
</g>
<!-- Node2&#45;&gt;Node6 -->
<g id="edge5" class="edge">
<title>Node2&#45;&gt;Node6</title>
<path fill="none" stroke="midnightblue" d="M161.41,-59.27C263.05,-49.29 472.07,-28.76 581.94,-17.98"/>
<polygon fill="midnightblue" stroke="midnightblue" points="160.94,-55.79 151.33,-60.26 161.62,-62.76 160.94,-55.79"/>
</g>
<!-- Node7&#45;&gt;Node1 -->
<g id="edge7" class="edge">
<title>Node7&#45;&gt;Node1</title>
<path fill="none" stroke="midnightblue" d="M633.21,-137.07C616.29,-146.97 592.29,-159.9 575.02,-168.32"/>
<polygon fill="midnightblue" stroke="midnightblue" points="635.47,-139.8 642.24,-131.65 631.87,-133.8 635.47,-139.8"/>
</g>
<!-- Node7&#45;&gt;Node2 -->
<g id="edge8" class="edge">
<title>Node7&#45;&gt;Node2</title>
<path fill="none" stroke="midnightblue" d="M599.13,-115.71C491.99,-105.19 253.7,-81.8 151.3,-71.74"/>
<polygon fill="midnightblue" stroke="midnightblue" points="599.09,-119.22 609.38,-116.72 599.77,-112.26 599.09,-119.22"/>
</g>
<!-- Node7&#45;&gt;Node4 -->
<g id="edge20" class="edge">
<title>Node7&#45;&gt;Node4</title>
<path fill="none" stroke="midnightblue" d="M599.24,-117.22C525.78,-111.31 398.52,-98.2 358,-76 333.52,-62.59 314.52,-34.35 305.96,-19.91"/>
<polygon fill="midnightblue" stroke="midnightblue" points="598.99,-120.71 609.23,-118 599.54,-113.73 598.99,-120.71"/>
</g>
<!-- Node7&#45;&gt;Node6 -->
<g id="edge24" class="edge">
<title>Node7&#45;&gt;Node6</title>
<path fill="none" stroke="midnightblue" d="M653,-102.35C653,-78.25 653,-37.31 653,-19.59"/>
<polygon fill="midnightblue" stroke="midnightblue" points="649.5,-102.37 653,-112.37 656.5,-102.37 649.5,-102.37"/>
</g>
<!-- Node7&#45;&gt;Node8 -->
<g id="edge9" class="edge">
<title>Node7&#45;&gt;Node8</title>
<path fill="none" stroke="midnightblue" d="M599.03,-113.6C523.01,-103.18 385.38,-84.32 310.65,-74.08"/>
<polygon fill="midnightblue" stroke="midnightblue" points="598.95,-117.12 609.33,-115.01 599.9,-110.19 598.95,-117.12"/>
</g>
<!-- Node9 -->
<g id="node9" class="node">
<title>Node9</title>
<g id="a_node9"><a xlink:href="exactFunction_8c.html" target="_top" xlink:title="Contains the exact function evaluation function.">
<polygon fill="white" stroke="black" points="367,-56.5 367,-75.5 491,-75.5 491,-56.5 367,-56.5"/>
<text text-anchor="middle" x="429" y="-63.5" font-family="Helvetica,sans-Serif" font-size="10.00">ccfd/src/exactFunction.c</text>
</a>
</g>
</g>
<!-- Node7&#45;&gt;Node9 -->
<g id="edge10" class="edge">
<title>Node7&#45;&gt;Node9</title>
<path fill="none" stroke="midnightblue" d="M607.74,-110.09C565.42,-99.89 503.09,-84.86 464.33,-75.52"/>
<polygon fill="midnightblue" stroke="midnightblue" points="606.96,-113.5 617.51,-112.44 608.61,-106.7 606.96,-113.5"/>
</g>
<!-- Node10 -->
<g id="node10" class="node">
<title>Node10</title>
<g id="a_node10"><a xlink:href="finiteVolume_8c.html" target="_top" xlink:title="Finite volume time derivative functions.">
<polygon fill="white" stroke="black" points="509,-56.5 509,-75.5 625,-75.5 625,-56.5 509,-56.5"/>
<text text-anchor="middle" x="567" y="-63.5" font-family="Helvetica,sans-Serif" font-size="10.00">ccfd/src/finiteVolume.c</text>
</a>
</g>
</g>
<!-- Node7&#45;&gt;Node10 -->
<g id="edge11" class="edge">
<title>Node7&#45;&gt;Node10</title>
<path fill="none" stroke="midnightblue" d="M630.55,-106.9C614.78,-97 594.19,-84.07 580.78,-75.65"/>
<polygon fill="midnightblue" stroke="midnightblue" points="628.85,-109.97 639.18,-112.32 632.57,-104.04 628.85,-109.97"/>
</g>
<!-- Node7&#45;&gt;Node11 -->
<g id="edge12" class="edge">
<title>Node7&#45;&gt;Node11</title>
<path fill="none" stroke="midnightblue" d="M706.92,-121C861.21,-120.51 1296.57,-115.62 1346,-76 1363.06,-62.32 1365.36,-34.21 1365.34,-19.85"/>
<polygon fill="midnightblue" stroke="midnightblue" points="706.73,-117.5 696.74,-121.03 706.75,-124.5 706.73,-117.5"/>
</g>
<!-- Node12 -->
<g id="node12" class="node">
<title>Node12</title>
<g id="a_node12"><a xlink:href="linearSolver_8h.html" target="_top" xlink:title=" ">
<polygon fill="white" stroke="black" points="681.5,-56.5 681.5,-75.5 794.5,-75.5 794.5,-56.5 681.5,-56.5"/>
<text text-anchor="middle" x="738" y="-63.5" font-family="Helvetica,sans-Serif" font-size="10.00">ccfd/src/linearSolver.h</text>
</a>
</g>
</g>
<!-- Node7&#45;&gt;Node12 -->
<g id="edge13" class="edge">
<title>Node7&#45;&gt;Node12</title>
<path fill="none" stroke="midnightblue" d="M675.19,-106.9C690.78,-97 711.13,-84.07 724.38,-75.65"/>
<polygon fill="midnightblue" stroke="midnightblue" points="673.22,-104.01 666.66,-112.32 676.97,-109.92 673.22,-104.01"/>
</g>
<!-- Node13 -->
<g id="node13" class="node">
<title>Node13</title>
<g id="a_node13"><a xlink:href="linearSolver_8c.html" target="_top" xlink:title="Contains the functions for solving the linear system of equations during implicit calculations.">
<polygon fill="white" stroke="black" points="827.5,-0.5 827.5,-19.5 940.5,-19.5 940.5,-0.5 827.5,-0.5"/>
<text text-anchor="middle" x="884" y="-7.5" font-family="Helvetica,sans-Serif" font-size="10.00">ccfd/src/linearSolver.c</text>
</a>
</g>
</g>
<!-- Node7&#45;&gt;Node13 -->
<g id="edge19" class="edge">
<title>Node7&#45;&gt;Node13</title>
<path fill="none" stroke="midnightblue" d="M707.06,-120.85C783.8,-119.36 918.42,-111.58 949,-76 967.41,-54.58 929.29,-31.71 904.01,-19.63"/>
<polygon fill="midnightblue" stroke="midnightblue" points="706.57,-117.36 696.63,-121.02 706.69,-124.36 706.57,-117.36"/>
</g>
<!-- Node14 -->
<g id="node14" class="node">
<title>Node14</title>
<g id="a_node14"><a xlink:href="initialCondition_8c.html" target="_top" xlink:title="Functions involving the initialization and application of initial conditions.">
<polygon fill="white" stroke="black" points="812.5,-56.5 812.5,-75.5 939.5,-75.5 939.5,-56.5 812.5,-56.5"/>
<text text-anchor="middle" x="876" y="-63.5" font-family="Helvetica,sans-Serif" font-size="10.00">ccfd/src/initialCondition.c</text>
</a>
</g>
</g>
<!-- Node7&#45;&gt;Node14 -->
<g id="edge18" class="edge">
<title>Node7&#45;&gt;Node14</title>
<path fill="none" stroke="midnightblue" d="M698.06,-110.09C740.19,-99.89 802.24,-84.86 840.83,-75.52"/>
<polygon fill="midnightblue" stroke="midnightblue" points="697.23,-106.69 688.34,-112.44 698.88,-113.49 697.23,-106.69"/>
</g>
<!-- Node15 -->
<g id="node15" class="node">
<title>Node15</title>
<g id="a_node15"><a xlink:href="mesh_8c.html" target="_top" xlink:title="Contains all the functions for reading and creating meshes.">
<polygon fill="white" stroke="black" points="996.5,-56.5 996.5,-75.5 1083.5,-75.5 1083.5,-56.5 996.5,-56.5"/>
<text text-anchor="middle" x="1040" y="-63.5" font-family="Helvetica,sans-Serif" font-size="10.00">ccfd/src/mesh.c</text>
</a>
</g>
</g>
<!-- Node7&#45;&gt;Node15 -->
<g id="edge21" class="edge">
<title>Node7&#45;&gt;Node15</title>
<path fill="none" stroke="midnightblue" d="M706.71,-113.96C771.88,-105.34 885.07,-90.15 982,-76 986.64,-75.32 991.48,-74.6 996.31,-73.87"/>
<polygon fill="midnightblue" stroke="midnightblue" points="706.13,-110.5 696.67,-115.28 707.05,-117.44 706.13,-110.5"/>
</g>
<!-- Node16 -->
<g id="node16" class="node">
<title>Node16</title>
<g id="a_node16"><a xlink:href="reconstruction_8c.html" target="_top" xlink:title="Contains the reconstruction and limiter functions.">
<polygon fill="white" stroke="black" points="1101.5,-56.5 1101.5,-75.5 1226.5,-75.5 1226.5,-56.5 1101.5,-56.5"/>
<text text-anchor="middle" x="1164" y="-63.5" font-family="Helvetica,sans-Serif" font-size="10.00">ccfd/src/reconstruction.c</text>
</a>
</g>
</g>
<!-- Node7&#45;&gt;Node16 -->
<g id="edge22" class="edge">
<title>Node7&#45;&gt;Node16</title>
<path fill="none" stroke="midnightblue" d="M706.95,-115.91C789.97,-107.97 954,-91.92 1093,-76 1095.72,-75.69 1098.49,-75.37 1101.29,-75.03"/>
<polygon fill="midnightblue" stroke="midnightblue" points="706.38,-112.44 696.75,-116.88 707.04,-119.41 706.38,-112.44"/>
</g>
<!-- Node17 -->
<g id="node17" class="node">
<title>Node17</title>
<g id="a_node17"><a xlink:href="source_8c.html" target="_top" xlink:title="Contains the functions for initializing and evaluating the source term.">
<polygon fill="white" stroke="black" points="1245,-56.5 1245,-75.5 1337,-75.5 1337,-56.5 1245,-56.5"/>
<text text-anchor="middle" x="1291" y="-63.5" font-family="Helvetica,sans-Serif" font-size="10.00">ccfd/src/source.c</text>
</a>
</g>
</g>
<!-- Node7&#45;&gt;Node17 -->
<g id="edge23" class="edge">
<title>Node7&#45;&gt;Node17</title>
<path fill="none" stroke="midnightblue" d="M706.79,-118.38C809.78,-113.03 1041.84,-99.34 1236,-76 1238.88,-75.65 1241.84,-75.26 1244.83,-74.85"/>
<polygon fill="midnightblue" stroke="midnightblue" points="706.45,-114.9 696.64,-118.9 706.81,-121.89 706.45,-114.9"/>
</g>
<!-- Node12&#45;&gt;Node4 -->
<g id="edge16" class="edge">
<title>Node12&#45;&gt;Node4</title>
<path fill="none" stroke="midnightblue" d="M671.37,-56.77C580.22,-45.5 419.31,-25.62 343.18,-16.21"/>
<polygon fill="midnightblue" stroke="midnightblue" points="670.96,-60.24 681.32,-58 671.82,-53.3 670.96,-60.24"/>
</g>
<!-- Node12&#45;&gt;Node6 -->
<g id="edge17" class="edge">
<title>Node12&#45;&gt;Node6</title>
<path fill="none" stroke="midnightblue" d="M715.81,-50.9C700.22,-41 679.87,-28.07 666.62,-19.65"/>
<polygon fill="midnightblue" stroke="midnightblue" points="714.03,-53.92 724.34,-56.32 717.78,-48.01 714.03,-53.92"/>
</g>
<!-- Node12&#45;&gt;Node11 -->
<g id="edge14" class="edge">
<title>Node12&#45;&gt;Node11</title>
<path fill="none" stroke="midnightblue" d="M804.51,-56.01C991.42,-36.01 1199.06,-21.56 1301.37,-14.95"/>
<polygon fill="midnightblue" stroke="midnightblue" points="804.07,-52.53 794.5,-57.09 804.82,-59.49 804.07,-52.53"/>
</g>
<!-- Node12&#45;&gt;Node13 -->
<g id="edge15" class="edge">
<title>Node12&#45;&gt;Node13</title>
<path fill="none" stroke="midnightblue" d="M770.7,-52.91C798.15,-42.75 836.67,-28.51 860.97,-19.52"/>
<polygon fill="midnightblue" stroke="midnightblue" points="769.3,-49.69 761.13,-56.44 771.73,-56.26 769.3,-49.69"/>
</g>
</g>
</svg>
