<?xml version="1.0" encoding="UTF-8" standalone="no"?>
<!DOCTYPE svg PUBLIC "-//W3C//DTD SVG 1.1//EN"
 "http://www.w3.org/Graphics/SVG/1.1/DTD/svg11.dtd">
<!-- Generated by graphviz version 2.44.0 (0)
 -->
<!-- Title: ccfd/src/equation.h Pages: 1 -->
<svg width="1686pt" height="84pt"
 viewBox="0.00 0.00 1686.00 84.00" xmlns="http://www.w3.org/2000/svg" xmlns:xlink="http://www.w3.org/1999/xlink">
<g id="graph0" class="graph" transform="scale(1 1) rotate(0) translate(4 80)">
<title>ccfd/src/equation.h</title>
<polygon fill="white" stroke="transparent" points="-4,4 -4,-80 1682,-80 1682,4 -4,4"/>
<!-- Node1 -->
<g id="node1" class="node">
<title>Node1</title>
<g id="a_node1"><a xlink:title=" ">
<polygon fill="#bfbfbf" stroke="black" points="800,-56.5 800,-75.5 900,-75.5 900,-56.5 800,-56.5"/>
<text text-anchor="middle" x="850" y="-63.5" font-family="Helvetica,sans-Serif" font-size="10.00">ccfd/src/equation.h</text>
</a>
</g>
</g>
<!-- Node2 -->
<g id="node2" class="node">
<title>Node2</title>
<g id="a_node2"><a xlink:href="analyze_8c.html" target="_top" xlink:title="Contains functions for analyzing flow results.">
<polygon fill="white" stroke="black" points="0,-0.5 0,-19.5 96,-19.5 96,-0.5 0,-0.5"/>
<text text-anchor="middle" x="48" y="-7.5" font-family="Helvetica,sans-Serif" font-size="10.00">ccfd/src/analyze.c</text>
</a>
</g>
</g>
<!-- Node1&#45;&gt;Node2 -->
<g id="edge1" class="edge">
<title>Node1&#45;&gt;Node2</title>
<path fill="none" stroke="midnightblue" d="M789.42,-63.32C662.28,-59.35 358.4,-47.59 105,-20 102.11,-19.69 99.15,-19.33 96.16,-18.94"/>
<polygon fill="midnightblue" stroke="midnightblue" points="789.62,-66.83 799.72,-63.63 789.83,-59.83 789.62,-66.83"/>
</g>
<!-- Node3 -->
<g id="node3" class="node">
<title>Node3</title>
<g id="a_node3"><a xlink:href="boundary_8c.html" target="_top" xlink:title="Contains the functions for initializing and applying boundary conditions.">
<polygon fill="white" stroke="black" points="114.5,-0.5 114.5,-19.5 217.5,-19.5 217.5,-0.5 114.5,-0.5"/>
<text text-anchor="middle" x="166" y="-7.5" font-family="Helvetica,sans-Serif" font-size="10.00">ccfd/src/boundary.c</text>
</a>
</g>
</g>
<!-- Node1&#45;&gt;Node3 -->
<g id="edge2" class="edge">
<title>Node1&#45;&gt;Node3</title>
<path fill="none" stroke="midnightblue" d="M789.79,-62.14C678.44,-56.53 432.93,-42.6 227,-20 223.91,-19.66 220.74,-19.28 217.55,-18.88"/>
<polygon fill="midnightblue" stroke="midnightblue" points="789.66,-65.64 799.82,-62.64 790.01,-58.65 789.66,-65.64"/>
</g>
<!-- Node4 -->
<g id="node4" class="node">
<title>Node4</title>
<g id="a_node4"><a xlink:href="equation_8c.html" target="_top" xlink:title="Contains the function for initializing the physical constants.">
<polygon fill="white" stroke="black" points="236,-0.5 236,-19.5 336,-19.5 336,-0.5 236,-0.5"/>
<text text-anchor="middle" x="286" y="-7.5" font-family="Helvetica,sans-Serif" font-size="10.00">ccfd/src/equation.c</text>
</a>
</g>
</g>
<!-- Node1&#45;&gt;Node4 -->
<g id="edge3" class="edge">
<title>Node1&#45;&gt;Node4</title>
<path fill="none" stroke="midnightblue" d="M789.74,-60.85C694.92,-54.06 505.2,-39.34 345,-20 342.12,-19.65 339.16,-19.27 336.18,-18.87"/>
<polygon fill="midnightblue" stroke="midnightblue" points="789.49,-64.35 799.72,-61.57 789.99,-57.36 789.49,-64.35"/>
</g>
<!-- Node5 -->
<g id="node5" class="node">
<title>Node5</title>
<g id="a_node5"><a xlink:href="equationOfState_8c.html" target="_top" xlink:title="Contains conversion functions between the different variable types.">
<polygon fill="white" stroke="black" points="354,-0.5 354,-19.5 488,-19.5 488,-0.5 354,-0.5"/>
<text text-anchor="middle" x="421" y="-7.5" font-family="Helvetica,sans-Serif" font-size="10.00">ccfd/src/equationOfState.c</text>
</a>
</g>
</g>
<!-- Node1&#45;&gt;Node5 -->
<g id="edge4" class="edge">
<title>Node1&#45;&gt;Node5</title>
<path fill="none" stroke="midnightblue" d="M789.62,-57.4C710.2,-47.4 571.05,-29.89 488.31,-19.47"/>
<polygon fill="midnightblue" stroke="midnightblue" points="789.59,-60.92 799.95,-58.7 790.46,-53.98 789.59,-60.92"/>
</g>
<!-- Node6 -->
<g id="node6" class="node">
<title>Node6</title>
<g id="a_node6"><a xlink:href="exactFunction_8c.html" target="_top" xlink:title="Contains the exact function evaluation function.">
<polygon fill="white" stroke="black" points="506,-0.5 506,-19.5 630,-19.5 630,-0.5 506,-0.5"/>
<text text-anchor="middle" x="568" y="-7.5" font-family="Helvetica,sans-Serif" font-size="10.00">ccfd/src/exactFunction.c</text>
</a>
</g>
</g>
<!-- Node1&#45;&gt;Node6 -->
<g id="edge5" class="edge">
<title>Node1&#45;&gt;Node6</title>
<path fill="none" stroke="midnightblue" d="M795.36,-54.54C742.06,-44.33 662,-29 612.47,-19.52"/>
<polygon fill="midnightblue" stroke="midnightblue" points="794.84,-58 805.32,-56.44 796.15,-51.13 794.84,-58"/>
</g>
<!-- Node7 -->
<g id="node7" class="node">
<title>Node7</title>
<g id="a_node7"><a xlink:href="exactRiemann_8c.html" target="_top" xlink:title="Contains the function to calculate the exact Riemann flux.">
<polygon fill="white" stroke="black" points="648.5,-0.5 648.5,-19.5 773.5,-19.5 773.5,-0.5 648.5,-0.5"/>
<text text-anchor="middle" x="711" y="-7.5" font-family="Helvetica,sans-Serif" font-size="10.00">ccfd/src/exactRiemann.c</text>
</a>
</g>
</g>
<!-- Node1&#45;&gt;Node7 -->
<g id="edge6" class="edge">
<title>Node1&#45;&gt;Node7</title>
<path fill="none" stroke="midnightblue" d="M818.52,-52.77C792.41,-42.63 755.96,-28.47 732.92,-19.52"/>
<polygon fill="midnightblue" stroke="midnightblue" points="817.39,-56.08 827.98,-56.44 819.92,-49.56 817.39,-56.08"/>
</g>
<!-- Node8 -->
<g id="node8" class="node">
<title>Node8</title>
<g id="a_node8"><a xlink:href="finiteVolume_8c.html" target="_top" xlink:title="Finite volume time derivative functions.">
<polygon fill="white" stroke="black" points="792,-0.5 792,-19.5 908,-19.5 908,-0.5 792,-0.5"/>
<text text-anchor="middle" x="850" y="-7.5" font-family="Helvetica,sans-Serif" font-size="10.00">ccfd/src/finiteVolume.c</text>
</a>
</g>
</g>
<!-- Node1&#45;&gt;Node8 -->
<g id="edge7" class="edge">
<title>Node1&#45;&gt;Node8</title>
<path fill="none" stroke="midnightblue" d="M850,-45.8C850,-36.91 850,-26.78 850,-19.75"/>
<polygon fill="midnightblue" stroke="midnightblue" points="846.5,-46.08 850,-56.08 853.5,-46.08 846.5,-46.08"/>
</g>
<!-- Node9 -->
<g id="node9" class="node">
<title>Node9</title>
<g id="a_node9"><a xlink:href="fluxCalculation_8c.html" target="_top" xlink:title="Contains the flux calculation functions.">
<polygon fill="white" stroke="black" points="926.5,-0.5 926.5,-19.5 1053.5,-19.5 1053.5,-0.5 926.5,-0.5"/>
<text text-anchor="middle" x="990" y="-7.5" font-family="Helvetica,sans-Serif" font-size="10.00">ccfd/src/fluxCalculation.c</text>
</a>
</g>
</g>
<!-- Node1&#45;&gt;Node9 -->
<g id="edge8" class="edge">
<title>Node1&#45;&gt;Node9</title>
<path fill="none" stroke="midnightblue" d="M881.7,-52.77C908,-42.63 944.72,-28.47 967.92,-19.52"/>
<polygon fill="midnightblue" stroke="midnightblue" points="880.25,-49.58 872.18,-56.44 882.77,-56.11 880.25,-49.58"/>
</g>
<!-- Node10 -->
<g id="node10" class="node">
<title>Node10</title>
<g id="a_node10"><a xlink:href="initialCondition_8c.html" target="_top" xlink:title="Functions involving the initialization and application of initial conditions.">
<polygon fill="white" stroke="black" points="1071.5,-0.5 1071.5,-19.5 1198.5,-19.5 1198.5,-0.5 1071.5,-0.5"/>
<text text-anchor="middle" x="1135" y="-7.5" font-family="Helvetica,sans-Serif" font-size="10.00">ccfd/src/initialCondition.c</text>
</a>
</g>
</g>
<!-- Node1&#45;&gt;Node10 -->
<g id="edge9" class="edge">
<title>Node1&#45;&gt;Node10</title>
<path fill="none" stroke="midnightblue" d="M905.22,-54.54C959.08,-44.33 1040,-29 1090.05,-19.52"/>
<polygon fill="midnightblue" stroke="midnightblue" points="904.33,-51.14 895.16,-56.44 905.64,-58.02 904.33,-51.14"/>
</g>
<!-- Node11 -->
<g id="node11" class="node">
<title>Node11</title>
<g id="a_node11"><a xlink:href="main_8c.html" target="_top" xlink:title="Contains the main function of ccfd">
<polygon fill="white" stroke="black" points="1217,-0.5 1217,-19.5 1301,-19.5 1301,-0.5 1217,-0.5"/>
<text text-anchor="middle" x="1259" y="-7.5" font-family="Helvetica,sans-Serif" font-size="10.00">ccfd/src/main.c</text>
</a>
</g>
</g>
<!-- Node1&#45;&gt;Node11 -->
<g id="edge10" class="edge">
<title>Node1&#45;&gt;Node11</title>
<path fill="none" stroke="midnightblue" d="M910.35,-58.34C981.61,-50.26 1103.65,-35.76 1208,-20 1210.84,-19.57 1213.78,-19.11 1216.73,-18.63"/>
<polygon fill="midnightblue" stroke="midnightblue" points="909.75,-54.88 900.21,-59.48 910.54,-61.84 909.75,-54.88"/>
</g>
<!-- Node12 -->
<g id="node12" class="node">
<title>Node12</title>
<g id="a_node12"><a xlink:href="output_8c.html" target="_top" xlink:title="Contains all functions used for writing flow solutions.">
<polygon fill="white" stroke="black" points="1318.5,-0.5 1318.5,-19.5 1407.5,-19.5 1407.5,-0.5 1318.5,-0.5"/>
<text text-anchor="middle" x="1363" y="-7.5" font-family="Helvetica,sans-Serif" font-size="10.00">ccfd/src/output.c</text>
</a>
</g>
</g>
<!-- Node1&#45;&gt;Node12 -->
<g id="edge11" class="edge">
<title>Node1&#45;&gt;Node12</title>
<path fill="none" stroke="midnightblue" d="M910.23,-60.47C998.26,-53.55 1167.13,-39.1 1310,-20 1312.68,-19.64 1315.44,-19.25 1318.21,-18.83"/>
<polygon fill="midnightblue" stroke="midnightblue" points="909.86,-56.99 900.16,-61.26 910.41,-63.97 909.86,-56.99"/>
</g>
<!-- Node13 -->
<g id="node13" class="node">
<title>Node13</title>
<g id="a_node13"><a xlink:href="source_8c.html" target="_top" xlink:title="Contains the functions for initializing and evaluating the source term.">
<polygon fill="white" stroke="black" points="1426,-0.5 1426,-19.5 1518,-19.5 1518,-0.5 1426,-0.5"/>
<text text-anchor="middle" x="1472" y="-7.5" font-family="Helvetica,sans-Serif" font-size="10.00">ccfd/src/source.c</text>
</a>
</g>
</g>
<!-- Node1&#45;&gt;Node13 -->
<g id="edge12" class="edge">
<title>Node1&#45;&gt;Node13</title>
<path fill="none" stroke="midnightblue" d="M910.49,-61.85C1014.34,-56.08 1233.14,-42.3 1417,-20 1419.88,-19.65 1422.84,-19.26 1425.83,-18.84"/>
<polygon fill="midnightblue" stroke="midnightblue" points="909.99,-58.37 900.2,-62.42 910.38,-65.36 909.99,-58.37"/>
</g>
<!-- Node14 -->
<g id="node14" class="node">
<title>Node14</title>
<g id="a_node14"><a xlink:href="timeDiscretization_8c.html" target="_top" xlink:title="Contains the functions for performing the time stepping process.">
<polygon fill="white" stroke="black" points="1536,-0.5 1536,-19.5 1678,-19.5 1678,-0.5 1536,-0.5"/>
<text text-anchor="middle" x="1607" y="-7.5" font-family="Helvetica,sans-Serif" font-size="10.00">ccfd/src/timeDiscretization.c</text>
</a>
</g>
</g>
<!-- Node1&#45;&gt;Node14 -->
<g id="edge13" class="edge">
<title>Node1&#45;&gt;Node14</title>
<path fill="none" stroke="midnightblue" d="M910.47,-61.91C1028.93,-55.65 1299.79,-40.32 1527,-20 1529.92,-19.74 1532.91,-19.46 1535.92,-19.17"/>
<polygon fill="midnightblue" stroke="midnightblue" points="909.97,-58.43 900.17,-62.45 910.34,-65.42 909.97,-58.43"/>
</g>
</g>
</svg>
