<?xml version="1.0" encoding="UTF-8" standalone="no"?>
<!DOCTYPE svg PUBLIC "-//W3C//DTD SVG 1.1//EN"
 "http://www.w3.org/Graphics/SVG/1.1/DTD/svg11.dtd">
<!-- Generated by graphviz version 2.44.0 (0)
 -->
<!-- Title: ccfd/src/equationOfState.c Pages: 1 -->
<svg width="200pt" height="140pt"
 viewBox="0.00 0.00 199.50 140.00" xmlns="http://www.w3.org/2000/svg" xmlns:xlink="http://www.w3.org/1999/xlink">
<g id="graph0" class="graph" transform="scale(1 1) rotate(0) translate(4 136)">
<title>ccfd/src/equationOfState.c</title>
<polygon fill="white" stroke="transparent" points="-4,4 -4,-136 195.5,-136 195.5,4 -4,4"/>
<!-- Node1 -->
<g id="node1" class="node">
<title>Node1</title>
<g id="a_node1"><a xlink:title="Contains conversion functions between the different variable types.">
<polygon fill="#bfbfbf" stroke="black" points="21.5,-112.5 21.5,-131.5 155.5,-131.5 155.5,-112.5 21.5,-112.5"/>
<text text-anchor="middle" x="88.5" y="-119.5" font-family="Helvetica,sans-Serif" font-size="10.00">ccfd/src/equationOfState.c</text>
</a>
</g>
</g>
<!-- Node2 -->
<g id="node2" class="node">
<title>Node2</title>
<g id="a_node2"><a xlink:title=" ">
<polygon fill="white" stroke="#bfbfbf" points="0,-56.5 0,-75.5 47,-75.5 47,-56.5 0,-56.5"/>
<text text-anchor="middle" x="23.5" y="-63.5" font-family="Helvetica,sans-Serif" font-size="10.00">math.h</text>
</a>
</g>
</g>
<!-- Node1&#45;&gt;Node2 -->
<g id="edge1" class="edge">
<title>Node1&#45;&gt;Node2</title>
<path fill="none" stroke="midnightblue" d="M78.06,-112.32C68.35,-104.26 53.68,-92.08 42,-82.37"/>
<polygon fill="midnightblue" stroke="midnightblue" points="44.06,-79.53 34.13,-75.83 39.59,-84.92 44.06,-79.53"/>
</g>
<!-- Node3 -->
<g id="node3" class="node">
<title>Node3</title>
<g id="a_node3"><a xlink:href="main_8h.html" target="_top" xlink:title="Contains the global constants and definitions.">
<polygon fill="white" stroke="black" points="65.5,-56.5 65.5,-75.5 111.5,-75.5 111.5,-56.5 65.5,-56.5"/>
<text text-anchor="middle" x="88.5" y="-63.5" font-family="Helvetica,sans-Serif" font-size="10.00">main.h</text>
</a>
</g>
</g>
<!-- Node1&#45;&gt;Node3 -->
<g id="edge2" class="edge">
<title>Node1&#45;&gt;Node3</title>
<path fill="none" stroke="midnightblue" d="M88.5,-112.08C88.5,-105.01 88.5,-94.86 88.5,-85.99"/>
<polygon fill="midnightblue" stroke="midnightblue" points="92,-85.75 88.5,-75.75 85,-85.75 92,-85.75"/>
</g>
<!-- Node4 -->
<g id="node4" class="node">
<title>Node4</title>
<g id="a_node4"><a xlink:href="equation_8h.html" target="_top" xlink:title=" ">
<polygon fill="white" stroke="black" points="129.5,-56.5 129.5,-75.5 191.5,-75.5 191.5,-56.5 129.5,-56.5"/>
<text text-anchor="middle" x="160.5" y="-63.5" font-family="Helvetica,sans-Serif" font-size="10.00">equation.h</text>
</a>
</g>
</g>
<!-- Node1&#45;&gt;Node4 -->
<g id="edge3" class="edge">
<title>Node1&#45;&gt;Node4</title>
<path fill="none" stroke="midnightblue" d="M100.07,-112.32C110.92,-104.18 127.38,-91.84 140.38,-82.09"/>
<polygon fill="midnightblue" stroke="midnightblue" points="142.82,-84.63 148.72,-75.83 138.62,-79.03 142.82,-84.63"/>
</g>
<!-- Node5 -->
<g id="node5" class="node">
<title>Node5</title>
<g id="a_node5"><a xlink:title=" ">
<polygon fill="white" stroke="#bfbfbf" points="132.5,-0.5 132.5,-19.5 188.5,-19.5 188.5,-0.5 132.5,-0.5"/>
<text text-anchor="middle" x="160.5" y="-7.5" font-family="Helvetica,sans-Serif" font-size="10.00">stdbool.h</text>
</a>
</g>
</g>
<!-- Node4&#45;&gt;Node5 -->
<g id="edge4" class="edge">
<title>Node4&#45;&gt;Node5</title>
<path fill="none" stroke="midnightblue" d="M160.5,-56.08C160.5,-49.01 160.5,-38.86 160.5,-29.99"/>
<polygon fill="midnightblue" stroke="midnightblue" points="164,-29.75 160.5,-19.75 157,-29.75 164,-29.75"/>
</g>
</g>
</svg>
