<?xml version="1.0" encoding="UTF-8" standalone="no"?>
<!DOCTYPE svg PUBLIC "-//W3C//DTD SVG 1.1//EN"
 "http://www.w3.org/Graphics/SVG/1.1/DTD/svg11.dtd">
<!-- Generated by graphviz version 2.44.0 (0)
 -->
<!-- Title: ccfd/src/exactFunction.h Pages: 1 -->
<svg width="478pt" height="84pt"
 viewBox="0.00 0.00 477.50 84.00" xmlns="http://www.w3.org/2000/svg" xmlns:xlink="http://www.w3.org/1999/xlink">
<g id="graph0" class="graph" transform="scale(1 1) rotate(0) translate(4 80)">
<title>ccfd/src/exactFunction.h</title>
<polygon fill="white" stroke="transparent" points="-4,4 -4,-80 473.5,-80 473.5,4 -4,4"/>
<!-- Node1 -->
<g id="node1" class="node">
<title>Node1</title>
<g id="a_node1"><a xlink:title=" ">
<polygon fill="#bfbfbf" stroke="black" points="170,-56.5 170,-75.5 294,-75.5 294,-56.5 170,-56.5"/>
<text text-anchor="middle" x="232" y="-63.5" font-family="Helvetica,sans-Serif" font-size="10.00">ccfd/src/exactFunction.h</text>
</a>
</g>
</g>
<!-- Node2 -->
<g id="node2" class="node">
<title>Node2</title>
<g id="a_node2"><a xlink:href="analyze_8c.html" target="_top" xlink:title="Contains functions for analyzing flow results.">
<polygon fill="white" stroke="black" points="0,-0.5 0,-19.5 96,-19.5 96,-0.5 0,-0.5"/>
<text text-anchor="middle" x="48" y="-7.5" font-family="Helvetica,sans-Serif" font-size="10.00">ccfd/src/analyze.c</text>
</a>
</g>
</g>
<!-- Node1&#45;&gt;Node2 -->
<g id="edge1" class="edge">
<title>Node1&#45;&gt;Node2</title>
<path fill="none" stroke="midnightblue" d="M193.05,-53.57C158.34,-43.38 108.32,-28.7 77.02,-19.52"/>
<polygon fill="midnightblue" stroke="midnightblue" points="192.26,-56.99 202.84,-56.44 194.23,-50.27 192.26,-56.99"/>
</g>
<!-- Node3 -->
<g id="node3" class="node">
<title>Node3</title>
<g id="a_node3"><a xlink:href="boundary_8c.html" target="_top" xlink:title="Contains the functions for initializing and applying boundary conditions.">
<polygon fill="white" stroke="black" points="114.5,-0.5 114.5,-19.5 217.5,-19.5 217.5,-0.5 114.5,-0.5"/>
<text text-anchor="middle" x="166" y="-7.5" font-family="Helvetica,sans-Serif" font-size="10.00">ccfd/src/boundary.c</text>
</a>
</g>
</g>
<!-- Node1&#45;&gt;Node3 -->
<g id="edge2" class="edge">
<title>Node1&#45;&gt;Node3</title>
<path fill="none" stroke="midnightblue" d="M213.45,-49.82C201.62,-40.15 186.71,-27.95 176.8,-19.83"/>
<polygon fill="midnightblue" stroke="midnightblue" points="211.44,-52.7 221.4,-56.32 215.87,-47.28 211.44,-52.7"/>
</g>
<!-- Node4 -->
<g id="node4" class="node">
<title>Node4</title>
<g id="a_node4"><a xlink:href="initialCondition_8c.html" target="_top" xlink:title="Functions involving the initialization and application of initial conditions.">
<polygon fill="white" stroke="black" points="235.5,-0.5 235.5,-19.5 362.5,-19.5 362.5,-0.5 235.5,-0.5"/>
<text text-anchor="middle" x="299" y="-7.5" font-family="Helvetica,sans-Serif" font-size="10.00">ccfd/src/initialCondition.c</text>
</a>
</g>
</g>
<!-- Node1&#45;&gt;Node4 -->
<g id="edge3" class="edge">
<title>Node1&#45;&gt;Node4</title>
<path fill="none" stroke="midnightblue" d="M250.83,-49.82C262.84,-40.15 277.97,-27.95 288.04,-19.83"/>
<polygon fill="midnightblue" stroke="midnightblue" points="248.35,-47.32 242.76,-56.32 252.75,-52.77 248.35,-47.32"/>
</g>
<!-- Node5 -->
<g id="node5" class="node">
<title>Node5</title>
<g id="a_node5"><a xlink:href="output_8c.html" target="_top" xlink:title="Contains all functions used for writing flow solutions.">
<polygon fill="white" stroke="black" points="380.5,-0.5 380.5,-19.5 469.5,-19.5 469.5,-0.5 380.5,-0.5"/>
<text text-anchor="middle" x="425" y="-7.5" font-family="Helvetica,sans-Serif" font-size="10.00">ccfd/src/output.c</text>
</a>
</g>
</g>
<!-- Node1&#45;&gt;Node5 -->
<g id="edge4" class="edge">
<title>Node1&#45;&gt;Node5</title>
<path fill="none" stroke="midnightblue" d="M272.39,-53.7C308.82,-43.51 361.59,-28.74 394.56,-19.52"/>
<polygon fill="midnightblue" stroke="midnightblue" points="271.27,-50.38 262.58,-56.44 273.15,-57.12 271.27,-50.38"/>
</g>
</g>
</svg>
