<?xml version="1.0" encoding="UTF-8" standalone="no"?>
<!DOCTYPE svg PUBLIC "-//W3C//DTD SVG 1.1//EN"
 "http://www.w3.org/Graphics/SVG/1.1/DTD/svg11.dtd">
<!-- Generated by graphviz version 2.44.0 (0)
 -->
<!-- Title: ccfd/src/finiteVolume.h Pages: 1 -->
<svg width="661pt" height="84pt"
 viewBox="0.00 0.00 661.00 84.00" xmlns="http://www.w3.org/2000/svg" xmlns:xlink="http://www.w3.org/1999/xlink">
<g id="graph0" class="graph" transform="scale(1 1) rotate(0) translate(4 80)">
<title>ccfd/src/finiteVolume.h</title>
<polygon fill="white" stroke="transparent" points="-4,4 -4,-80 657,-80 657,4 -4,4"/>
<!-- Node1 -->
<g id="node1" class="node">
<title>Node1</title>
<g id="a_node1"><a xlink:title=" ">
<polygon fill="#bfbfbf" stroke="black" points="250,-56.5 250,-75.5 366,-75.5 366,-56.5 250,-56.5"/>
<text text-anchor="middle" x="308" y="-63.5" font-family="Helvetica,sans-Serif" font-size="10.00">ccfd/src/finiteVolume.h</text>
</a>
</g>
</g>
<!-- Node2 -->
<g id="node2" class="node">
<title>Node2</title>
<g id="a_node2"><a xlink:href="finiteVolume_8c.html" target="_top" xlink:title="Finite volume time derivative functions.">
<polygon fill="white" stroke="black" points="0,-0.5 0,-19.5 116,-19.5 116,-0.5 0,-0.5"/>
<text text-anchor="middle" x="58" y="-7.5" font-family="Helvetica,sans-Serif" font-size="10.00">ccfd/src/finiteVolume.c</text>
</a>
</g>
</g>
<!-- Node1&#45;&gt;Node2 -->
<g id="edge1" class="edge">
<title>Node1&#45;&gt;Node2</title>
<path fill="none" stroke="midnightblue" d="M258.38,-54.28C211.13,-44.08 140.96,-28.92 97.43,-19.52"/>
<polygon fill="midnightblue" stroke="midnightblue" points="257.87,-57.75 268.39,-56.44 259.35,-50.91 257.87,-57.75"/>
</g>
<!-- Node3 -->
<g id="node3" class="node">
<title>Node3</title>
<g id="a_node3"><a xlink:href="linearSolver_8c.html" target="_top" xlink:title="Contains the functions for solving the linear system of equations during implicit calculations.">
<polygon fill="white" stroke="black" points="134.5,-0.5 134.5,-19.5 247.5,-19.5 247.5,-0.5 134.5,-0.5"/>
<text text-anchor="middle" x="191" y="-7.5" font-family="Helvetica,sans-Serif" font-size="10.00">ccfd/src/linearSolver.c</text>
</a>
</g>
</g>
<!-- Node1&#45;&gt;Node3 -->
<g id="edge2" class="edge">
<title>Node1&#45;&gt;Node3</title>
<path fill="none" stroke="midnightblue" d="M280.34,-52.23C258.45,-42.13 228.5,-28.31 209.45,-19.52"/>
<polygon fill="midnightblue" stroke="midnightblue" points="278.91,-55.43 289.46,-56.44 281.85,-49.08 278.91,-55.43"/>
</g>
<!-- Node4 -->
<g id="node4" class="node">
<title>Node4</title>
<g id="a_node4"><a xlink:href="main_8c.html" target="_top" xlink:title="Contains the main function of ccfd">
<polygon fill="white" stroke="black" points="266,-0.5 266,-19.5 350,-19.5 350,-0.5 266,-0.5"/>
<text text-anchor="middle" x="308" y="-7.5" font-family="Helvetica,sans-Serif" font-size="10.00">ccfd/src/main.c</text>
</a>
</g>
</g>
<!-- Node1&#45;&gt;Node4 -->
<g id="edge3" class="edge">
<title>Node1&#45;&gt;Node4</title>
<path fill="none" stroke="midnightblue" d="M308,-45.8C308,-36.91 308,-26.78 308,-19.75"/>
<polygon fill="midnightblue" stroke="midnightblue" points="304.5,-46.08 308,-56.08 311.5,-46.08 304.5,-46.08"/>
</g>
<!-- Node5 -->
<g id="node5" class="node">
<title>Node5</title>
<g id="a_node5"><a xlink:href="reconstruction_8c.html" target="_top" xlink:title="Contains the reconstruction and limiter functions.">
<polygon fill="white" stroke="black" points="367.5,-0.5 367.5,-19.5 492.5,-19.5 492.5,-0.5 367.5,-0.5"/>
<text text-anchor="middle" x="430" y="-7.5" font-family="Helvetica,sans-Serif" font-size="10.00">ccfd/src/reconstruction.c</text>
</a>
</g>
</g>
<!-- Node1&#45;&gt;Node5 -->
<g id="edge4" class="edge">
<title>Node1&#45;&gt;Node5</title>
<path fill="none" stroke="midnightblue" d="M336.54,-52.37C359.39,-42.26 390.81,-28.35 410.76,-19.52"/>
<polygon fill="midnightblue" stroke="midnightblue" points="335.06,-49.2 327.33,-56.44 337.89,-55.6 335.06,-49.2"/>
</g>
<!-- Node6 -->
<g id="node6" class="node">
<title>Node6</title>
<g id="a_node6"><a xlink:href="timeDiscretization_8c.html" target="_top" xlink:title="Contains the functions for performing the time stepping process.">
<polygon fill="white" stroke="black" points="511,-0.5 511,-19.5 653,-19.5 653,-0.5 511,-0.5"/>
<text text-anchor="middle" x="582" y="-7.5" font-family="Helvetica,sans-Serif" font-size="10.00">ccfd/src/timeDiscretization.c</text>
</a>
</g>
</g>
<!-- Node1&#45;&gt;Node6 -->
<g id="edge5" class="edge">
<title>Node1&#45;&gt;Node6</title>
<path fill="none" stroke="midnightblue" d="M361.41,-54.47C413.2,-44.27 490.77,-28.98 538.79,-19.52"/>
<polygon fill="midnightblue" stroke="midnightblue" points="360.55,-51.08 351.42,-56.44 361.9,-57.94 360.55,-51.08"/>
</g>
</g>
</svg>
