<?xml version="1.0" encoding="UTF-8" standalone="no"?>
<!DOCTYPE svg PUBLIC "-//W3C//DTD SVG 1.1//EN"
 "http://www.w3.org/Graphics/SVG/1.1/DTD/svg11.dtd">
<!-- Generated by graphviz version 2.44.0 (0)
 -->
<!-- Title: ccfd/src/fluxCalculation.c Pages: 1 -->
<svg width="421pt" height="252pt"
 viewBox="0.00 0.00 420.50 252.00" xmlns="http://www.w3.org/2000/svg" xmlns:xlink="http://www.w3.org/1999/xlink">
<g id="graph0" class="graph" transform="scale(1 1) rotate(0) translate(4 248)">
<title>ccfd/src/fluxCalculation.c</title>
<polygon fill="white" stroke="transparent" points="-4,4 -4,-248 416.5,-248 416.5,4 -4,4"/>
<!-- Node1 -->
<g id="node1" class="node">
<title>Node1</title>
<g id="a_node1"><a xlink:title="Contains the flux calculation functions.">
<polygon fill="#bfbfbf" stroke="black" points="151,-224.5 151,-243.5 278,-243.5 278,-224.5 151,-224.5"/>
<text text-anchor="middle" x="214.5" y="-231.5" font-family="Helvetica,sans-Serif" font-size="10.00">ccfd/src/fluxCalculation.c</text>
</a>
</g>
</g>
<!-- Node2 -->
<g id="node2" class="node">
<title>Node2</title>
<g id="a_node2"><a xlink:title=" ">
<polygon fill="white" stroke="#bfbfbf" points="0,-168.5 0,-187.5 47,-187.5 47,-168.5 0,-168.5"/>
<text text-anchor="middle" x="23.5" y="-175.5" font-family="Helvetica,sans-Serif" font-size="10.00">math.h</text>
</a>
</g>
</g>
<!-- Node1&#45;&gt;Node2 -->
<g id="edge1" class="edge">
<title>Node1&#45;&gt;Node2</title>
<path fill="none" stroke="midnightblue" d="M184.24,-224.44C149.67,-214.67 93.28,-198.73 57.3,-188.56"/>
<polygon fill="midnightblue" stroke="midnightblue" points="57.86,-185.08 47.29,-185.73 55.96,-191.81 57.86,-185.08"/>
</g>
<!-- Node3 -->
<g id="node3" class="node">
<title>Node3</title>
<g id="a_node3"><a xlink:href="main_8h.html" target="_top" xlink:title="Contains the global constants and definitions.">
<polygon fill="white" stroke="black" points="109.5,-0.5 109.5,-19.5 155.5,-19.5 155.5,-0.5 109.5,-0.5"/>
<text text-anchor="middle" x="132.5" y="-7.5" font-family="Helvetica,sans-Serif" font-size="10.00">main.h</text>
</a>
</g>
</g>
<!-- Node1&#45;&gt;Node3 -->
<g id="edge2" class="edge">
<title>Node1&#45;&gt;Node3</title>
<path fill="none" stroke="midnightblue" d="M200.47,-224.27C188.56,-216.19 171.81,-203.17 161.5,-188 127.57,-138.07 127.49,-116.33 129.5,-56 129.79,-47.38 130.38,-37.85 130.97,-29.79"/>
<polygon fill="midnightblue" stroke="midnightblue" points="134.47,-29.86 131.75,-19.62 127.49,-29.32 134.47,-29.86"/>
</g>
<!-- Node4 -->
<g id="node4" class="node">
<title>Node4</title>
<g id="a_node4"><a xlink:href="mesh_8h.html" target="_top" xlink:title="Contains the definitions of all structs for the mesh handling.">
<polygon fill="white" stroke="black" points="165,-112.5 165,-131.5 214,-131.5 214,-112.5 165,-112.5"/>
<text text-anchor="middle" x="189.5" y="-119.5" font-family="Helvetica,sans-Serif" font-size="10.00">mesh.h</text>
</a>
</g>
</g>
<!-- Node1&#45;&gt;Node4 -->
<g id="edge3" class="edge">
<title>Node1&#45;&gt;Node4</title>
<path fill="none" stroke="midnightblue" d="M200.42,-224.26C189.15,-216.35 174.15,-203.58 167.5,-188 160.72,-172.13 168.66,-153.41 176.83,-140.15"/>
<polygon fill="midnightblue" stroke="midnightblue" points="179.92,-141.82 182.61,-131.57 174.12,-137.91 179.92,-141.82"/>
</g>
<!-- Node5 -->
<g id="node5" class="node">
<title>Node5</title>
<g id="a_node5"><a xlink:href="boundary_8h.html" target="_top" xlink:title="Contains the structure definition of a boundary.">
<polygon fill="white" stroke="black" points="180,-56.5 180,-75.5 245,-75.5 245,-56.5 180,-56.5"/>
<text text-anchor="middle" x="212.5" y="-63.5" font-family="Helvetica,sans-Serif" font-size="10.00">boundary.h</text>
</a>
</g>
</g>
<!-- Node1&#45;&gt;Node5 -->
<g id="edge12" class="edge">
<title>Node1&#45;&gt;Node5</title>
<path fill="none" stroke="midnightblue" d="M228.29,-224.19C239.33,-216.24 254,-203.45 260.5,-188 263.95,-179.81 262.46,-176.67 260.5,-168 253.45,-136.73 235.53,-103.78 223.69,-84.33"/>
<polygon fill="midnightblue" stroke="midnightblue" points="226.56,-82.32 218.29,-75.7 220.63,-86.03 226.56,-82.32"/>
</g>
<!-- Node7 -->
<g id="node7" class="node">
<title>Node7</title>
<g id="a_node7"><a xlink:href="equation_8h.html" target="_top" xlink:title=" ">
<polygon fill="white" stroke="black" points="350.5,-112.5 350.5,-131.5 412.5,-131.5 412.5,-112.5 350.5,-112.5"/>
<text text-anchor="middle" x="381.5" y="-119.5" font-family="Helvetica,sans-Serif" font-size="10.00">equation.h</text>
</a>
</g>
</g>
<!-- Node1&#45;&gt;Node7 -->
<g id="edge9" class="edge">
<title>Node1&#45;&gt;Node7</title>
<path fill="none" stroke="midnightblue" d="M278.45,-226.42C327.63,-219.88 389.74,-207.9 405.5,-188 416.75,-173.79 406.44,-153.78 396.05,-139.73"/>
<polygon fill="midnightblue" stroke="midnightblue" points="398.74,-137.48 389.76,-131.85 393.27,-141.85 398.74,-137.48"/>
</g>
<!-- Node8 -->
<g id="node8" class="node">
<title>Node8</title>
<g id="a_node8"><a xlink:href="exactRiemann_8h.html" target="_top" xlink:title=" ">
<polygon fill="white" stroke="black" points="309,-168.5 309,-187.5 396,-187.5 396,-168.5 309,-168.5"/>
<text text-anchor="middle" x="352.5" y="-175.5" font-family="Helvetica,sans-Serif" font-size="10.00">exactRiemann.h</text>
</a>
</g>
</g>
<!-- Node1&#45;&gt;Node8 -->
<g id="edge11" class="edge">
<title>Node1&#45;&gt;Node8</title>
<path fill="none" stroke="midnightblue" d="M236.37,-224.44C259.28,-215.48 295.48,-201.31 321.37,-191.18"/>
<polygon fill="midnightblue" stroke="midnightblue" points="322.7,-194.42 330.74,-187.52 320.15,-187.9 322.7,-194.42"/>
</g>
<!-- Node9 -->
<g id="node9" class="node">
<title>Node9</title>
<g id="a_node9"><a xlink:href="linearSolver_8h.html" target="_top" xlink:title=" ">
<polygon fill="white" stroke="black" points="177,-168.5 177,-187.5 252,-187.5 252,-168.5 177,-168.5"/>
<text text-anchor="middle" x="214.5" y="-175.5" font-family="Helvetica,sans-Serif" font-size="10.00">linearSolver.h</text>
</a>
</g>
</g>
<!-- Node1&#45;&gt;Node9 -->
<g id="edge13" class="edge">
<title>Node1&#45;&gt;Node9</title>
<path fill="none" stroke="midnightblue" d="M214.5,-224.08C214.5,-217.01 214.5,-206.86 214.5,-197.99"/>
<polygon fill="midnightblue" stroke="midnightblue" points="218,-197.75 214.5,-187.75 211,-197.75 218,-197.75"/>
</g>
<!-- Node4&#45;&gt;Node3 -->
<g id="edge4" class="edge">
<title>Node4&#45;&gt;Node3</title>
<path fill="none" stroke="midnightblue" d="M185.03,-112.37C175.7,-94.38 154.03,-52.55 141.63,-28.63"/>
<polygon fill="midnightblue" stroke="midnightblue" points="144.66,-26.86 136.95,-19.59 138.45,-30.08 144.66,-26.86"/>
</g>
<!-- Node4&#45;&gt;Node5 -->
<g id="edge5" class="edge">
<title>Node4&#45;&gt;Node5</title>
<path fill="none" stroke="midnightblue" d="M188.13,-112.08C189.74,-104.61 193.98,-93.72 198.67,-84.52"/>
<polygon fill="midnightblue" stroke="midnightblue" points="201.76,-86.18 203.64,-75.75 195.67,-82.73 201.76,-86.18"/>
</g>
<!-- Node5&#45;&gt;Node3 -->
<g id="edge7" class="edge">
<title>Node5&#45;&gt;Node3</title>
<path fill="none" stroke="midnightblue" d="M199.65,-56.32C187.28,-47.98 168.37,-35.21 153.76,-25.35"/>
<polygon fill="midnightblue" stroke="midnightblue" points="155.57,-22.35 145.32,-19.65 151.65,-28.15 155.57,-22.35"/>
</g>
<!-- Node5&#45;&gt;Node4 -->
<g id="edge8" class="edge">
<title>Node5&#45;&gt;Node4</title>
<path fill="none" stroke="midnightblue" d="M213.9,-75.75C212.34,-83.17 208.12,-94.05 203.43,-103.27"/>
<polygon fill="midnightblue" stroke="midnightblue" points="200.33,-101.65 198.46,-112.08 206.43,-105.09 200.33,-101.65"/>
</g>
<!-- Node6 -->
<g id="node6" class="node">
<title>Node6</title>
<g id="a_node6"><a xlink:title=" ">
<polygon fill="white" stroke="#bfbfbf" points="245.5,-0.5 245.5,-19.5 301.5,-19.5 301.5,-0.5 245.5,-0.5"/>
<text text-anchor="middle" x="273.5" y="-7.5" font-family="Helvetica,sans-Serif" font-size="10.00">stdbool.h</text>
</a>
</g>
</g>
<!-- Node5&#45;&gt;Node6 -->
<g id="edge6" class="edge">
<title>Node5&#45;&gt;Node6</title>
<path fill="none" stroke="midnightblue" d="M222.3,-56.32C231.32,-48.34 244.91,-36.31 255.82,-26.65"/>
<polygon fill="midnightblue" stroke="midnightblue" points="258.35,-29.08 263.52,-19.83 253.71,-23.84 258.35,-29.08"/>
</g>
<!-- Node7&#45;&gt;Node6 -->
<g id="edge10" class="edge">
<title>Node7&#45;&gt;Node6</title>
<path fill="none" stroke="midnightblue" d="M373.03,-112.37C354.89,-93.89 312.08,-50.29 288.96,-26.74"/>
<polygon fill="midnightblue" stroke="midnightblue" points="291.44,-24.28 281.94,-19.59 286.44,-29.18 291.44,-24.28"/>
</g>
<!-- Node9&#45;&gt;Node3 -->
<g id="edge15" class="edge">
<title>Node9&#45;&gt;Node3</title>
<path fill="none" stroke="midnightblue" d="M197.21,-168.39C183.68,-160.72 165.52,-148.22 155.5,-132 135.71,-99.98 132.26,-54.78 132.04,-29.67"/>
<polygon fill="midnightblue" stroke="midnightblue" points="135.54,-29.69 132.12,-19.66 128.54,-29.64 135.54,-29.69"/>
</g>
<!-- Node9&#45;&gt;Node4 -->
<g id="edge16" class="edge">
<title>Node9&#45;&gt;Node4</title>
<path fill="none" stroke="midnightblue" d="M210.37,-168.08C206.99,-160.77 202.08,-150.18 197.88,-141.1"/>
<polygon fill="midnightblue" stroke="midnightblue" points="200.93,-139.36 193.55,-131.75 194.58,-142.3 200.93,-139.36"/>
</g>
<!-- Node9&#45;&gt;Node6 -->
<g id="edge14" class="edge">
<title>Node9&#45;&gt;Node6</title>
<path fill="none" stroke="midnightblue" d="M218.2,-168.45C225.6,-151.18 242.56,-110.78 254.5,-76 259.81,-60.54 264.96,-42.69 268.55,-29.62"/>
<polygon fill="midnightblue" stroke="midnightblue" points="271.94,-30.48 271.18,-19.91 265.19,-28.65 271.94,-30.48"/>
</g>
</g>
</svg>
