<?xml version="1.0" encoding="UTF-8" standalone="no"?>
<!DOCTYPE svg PUBLIC "-//W3C//DTD SVG 1.1//EN"
 "http://www.w3.org/Graphics/SVG/1.1/DTD/svg11.dtd">
<!-- Generated by graphviz version 2.44.0 (0)
 -->
<!-- Title: ccfd/src/fluxCalculation.h Pages: 1 -->
<svg width="256pt" height="84pt"
 viewBox="0.00 0.00 255.50 84.00" xmlns="http://www.w3.org/2000/svg" xmlns:xlink="http://www.w3.org/1999/xlink">
<g id="graph0" class="graph" transform="scale(1 1) rotate(0) translate(4 80)">
<title>ccfd/src/fluxCalculation.h</title>
<polygon fill="white" stroke="transparent" points="-4,4 -4,-80 251.5,-80 251.5,4 -4,4"/>
<!-- Node1 -->
<g id="node1" class="node">
<title>Node1</title>
<g id="a_node1"><a xlink:title=" ">
<polygon fill="#bfbfbf" stroke="black" points="60.5,-56.5 60.5,-75.5 187.5,-75.5 187.5,-56.5 60.5,-56.5"/>
<text text-anchor="middle" x="124" y="-63.5" font-family="Helvetica,sans-Serif" font-size="10.00">ccfd/src/fluxCalculation.h</text>
</a>
</g>
</g>
<!-- Node2 -->
<g id="node2" class="node">
<title>Node2</title>
<g id="a_node2"><a xlink:href="finiteVolume_8c.html" target="_top" xlink:title="Finite volume time derivative functions.">
<polygon fill="white" stroke="black" points="0,-0.5 0,-19.5 116,-19.5 116,-0.5 0,-0.5"/>
<text text-anchor="middle" x="58" y="-7.5" font-family="Helvetica,sans-Serif" font-size="10.00">ccfd/src/finiteVolume.c</text>
</a>
</g>
</g>
<!-- Node1&#45;&gt;Node2 -->
<g id="edge1" class="edge">
<title>Node1&#45;&gt;Node2</title>
<path fill="none" stroke="midnightblue" d="M105.45,-49.82C93.62,-40.15 78.71,-27.95 68.8,-19.83"/>
<polygon fill="midnightblue" stroke="midnightblue" points="103.44,-52.7 113.4,-56.32 107.87,-47.28 103.44,-52.7"/>
</g>
<!-- Node3 -->
<g id="node3" class="node">
<title>Node3</title>
<g id="a_node3"><a xlink:href="linearSolver_8c.html" target="_top" xlink:title="Contains the functions for solving the linear system of equations during implicit calculations.">
<polygon fill="white" stroke="black" points="134.5,-0.5 134.5,-19.5 247.5,-19.5 247.5,-0.5 134.5,-0.5"/>
<text text-anchor="middle" x="191" y="-7.5" font-family="Helvetica,sans-Serif" font-size="10.00">ccfd/src/linearSolver.c</text>
</a>
</g>
</g>
<!-- Node1&#45;&gt;Node3 -->
<g id="edge2" class="edge">
<title>Node1&#45;&gt;Node3</title>
<path fill="none" stroke="midnightblue" d="M142.83,-49.82C154.84,-40.15 169.97,-27.95 180.04,-19.83"/>
<polygon fill="midnightblue" stroke="midnightblue" points="140.35,-47.32 134.76,-56.32 144.75,-52.77 140.35,-47.32"/>
</g>
</g>
</svg>
