<?xml version="1.0" encoding="UTF-8" standalone="no"?>
<!DOCTYPE svg PUBLIC "-//W3C//DTD SVG 1.1//EN"
 "http://www.w3.org/Graphics/SVG/1.1/DTD/svg11.dtd">
<!-- Generated by graphviz version 2.44.0 (0)
 -->
<!-- Title: ccfd/src/initialCondition.c Pages: 1 -->
<!--zoomable 196 -->
<svg id="main" version="1.1" xmlns="http://www.w3.org/2000/svg" xmlns:xlink="http://www.w3.org/1999/xlink" xml:space="preserve" onload="init(evt)">
<style type="text/css"><![CDATA[
.edge:hover path { stroke: red; }
.edge:hover polygon { stroke: red; fill: red; }
]]></style>
<script type="text/javascript"><![CDATA[
var edges = document.getElementsByTagName('g');
if (edges && edges.length) {
  for (var i=0;i<edges.length;i++) {
    if (edges[i].id.substr(0,4)=='edge') {
      edges[i].setAttribute('class','edge');
    }
  }
}
]]></script>
        <defs>
                <circle id="rim" cx="0" cy="0" r="7"/>
                <circle id="rim2" cx="0" cy="0" r="3.5"/>
                <g id="zoomPlus">
                        <use xlink:href="#rim" fill="#404040">
                                <set attributeName="fill" to="#808080" begin="zoomplus.mouseover" end="zoomplus.mouseout"/>
                        </use>
                        <path d="M-4,0h8M0,-4v8" fill="none" stroke="white" stroke-width="1.5" pointer-events="none"/>
                </g>
                <g id="zoomMin">
                        <use xlink:href="#rim" fill="#404040">
                                <set attributeName="fill" to="#808080" begin="zoomminus.mouseover" end="zoomminus.mouseout"/>
                        </use>
                        <path d="M-4,0h8" fill="none" stroke="white" stroke-width="1.5" pointer-events="none"/>
                </g>
                <g id="dirArrow">
                        <path fill="none" stroke="white" stroke-width="1.5" d="M0,-3.0v7 M-2.5,-0.5L0,-3.0L2.5,-0.5"/>
                </g>
               <g id="resetDef">
                       <use xlink:href="#rim2" fill="#404040">
                               <set attributeName="fill" to="#808080" begin="reset.mouseover" end="reset.mouseout"/>
                       </use>
               </g>
        </defs>

<script type="text/javascript">
var viewWidth = 933;
var viewHeight = 196;
var sectionId = 'dynsection-0';
</script>
<script xlink:href="svgpan.js"/>
<svg id="graph" class="graph">
<g id="viewport">
<title>ccfd/src/initialCondition.c</title>
<polygon fill="white" stroke="transparent" points="-4,4 -4,-192 929,-192 929,4 -4,4"/>
<!-- Node1 -->
<g id="node1" class="node">
<title>Node1</title>
<g id="a_node1"><a xlink:title="Functions involving the initialization and application of initial conditions.">
<polygon fill="#bfbfbf" stroke="black" points="326.5,-168.5 326.5,-187.5 453.5,-187.5 453.5,-168.5 326.5,-168.5"/>
<text text-anchor="middle" x="390" y="-175.5" font-family="Helvetica,sans-Serif" font-size="10.00">ccfd/src/initialCondition.c</text>
</a>
</g>
</g>
<!-- Node2 -->
<g id="node2" class="node">
<title>Node2</title>
<g id="a_node2"><a xlink:title=" ">
<polygon fill="white" stroke="#bfbfbf" points="0,-112.5 0,-131.5 46,-131.5 46,-112.5 0,-112.5"/>
<text text-anchor="middle" x="23" y="-119.5" font-family="Helvetica,sans-Serif" font-size="10.00">stdio.h</text>
</a>
</g>
</g>
<!-- Node1&#45;&gt;Node2 -->
<g id="edge1" class="edge">
<title>Node1&#45;&gt;Node2</title>
<path fill="none" stroke="midnightblue" d="M326.26,-171.13C260.72,-164.49 155.57,-152.16 56.23,-132.01"/>
<polygon fill="midnightblue" stroke="midnightblue" points="56.83,-128.56 46.33,-129.97 55.41,-135.41 56.83,-128.56"/>
</g>
<!-- Node3 -->
<g id="node3" class="node">
<title>Node3</title>
<g id="a_node3"><a xlink:title=" ">
<polygon fill="white" stroke="#bfbfbf" points="64,-112.5 64,-131.5 112,-131.5 112,-112.5 64,-112.5"/>
<text text-anchor="middle" x="88" y="-119.5" font-family="Helvetica,sans-Serif" font-size="10.00">stdlib.h</text>
</a>
</g>
</g>
<!-- Node1&#45;&gt;Node3 -->
<g id="edge2" class="edge">
<title>Node1&#45;&gt;Node3</title>
<path fill="none" stroke="midnightblue" d="M328.23,-168.47C275.73,-160.81 198.21,-148.53 121.87,-132.01"/>
<polygon fill="midnightblue" stroke="midnightblue" points="122.6,-128.59 112.08,-129.87 121.1,-135.43 122.6,-128.59"/>
</g>
<!-- Node4 -->
<g id="node4" class="node">
<title>Node4</title>
<g id="a_node4"><a xlink:title=" ">
<polygon fill="white" stroke="#bfbfbf" points="130.5,-112.5 130.5,-131.5 177.5,-131.5 177.5,-112.5 130.5,-112.5"/>
<text text-anchor="middle" x="154" y="-119.5" font-family="Helvetica,sans-Serif" font-size="10.00">math.h</text>
</a>
</g>
</g>
<!-- Node1&#45;&gt;Node4 -->
<g id="edge3" class="edge">
<title>Node1&#45;&gt;Node4</title>
<path fill="none" stroke="midnightblue" d="M348.03,-168.47C308.77,-160.33 248.29,-147.38 187.48,-132.28"/>
<polygon fill="midnightblue" stroke="midnightblue" points="188.28,-128.87 177.73,-129.84 186.58,-135.66 188.28,-128.87"/>
</g>
<!-- Node5 -->
<g id="node5" class="node">
<title>Node5</title>
<g id="a_node5"><a xlink:title=" ">
<polygon fill="white" stroke="#bfbfbf" points="195.5,-112.5 195.5,-131.5 244.5,-131.5 244.5,-112.5 195.5,-112.5"/>
<text text-anchor="middle" x="220" y="-119.5" font-family="Helvetica,sans-Serif" font-size="10.00">string.h</text>
</a>
</g>
</g>
<!-- Node1&#45;&gt;Node5 -->
<g id="edge4" class="edge">
<title>Node1&#45;&gt;Node5</title>
<path fill="none" stroke="midnightblue" d="M363.06,-168.44C333.66,-159.1 286.51,-144.13 254.44,-133.94"/>
<polygon fill="midnightblue" stroke="midnightblue" points="255.19,-130.51 244.6,-130.82 253.07,-137.18 255.19,-130.51"/>
</g>
<!-- Node6 -->
<g id="node6" class="node">
<title>Node6</title>
<g id="a_node6"><a xlink:href="main_8h.html" target="_top" xlink:title="Contains the global constants and definitions.">
<polygon fill="white" stroke="black" points="305,-0.5 305,-19.5 351,-19.5 351,-0.5 305,-0.5"/>
<text text-anchor="middle" x="328" y="-7.5" font-family="Helvetica,sans-Serif" font-size="10.00">main.h</text>
</a>
</g>
</g>
<!-- Node1&#45;&gt;Node6 -->
<g id="edge5" class="edge">
<title>Node1&#45;&gt;Node6</title>
<path fill="none" stroke="midnightblue" d="M370.78,-168.44C356.69,-161.02 338.58,-148.82 330,-132 313.19,-99.06 318.55,-54.2 323.54,-29.4"/>
<polygon fill="midnightblue" stroke="midnightblue" points="326.98,-30.05 325.73,-19.53 320.15,-28.53 326.98,-30.05"/>
</g>
<!-- Node7 -->
<g id="node7" class="node">
<title>Node7</title>
<g id="a_node7"><a xlink:href="readInTools_8h.html" target="_top" xlink:title=" ">
<polygon fill="white" stroke="black" points="440,-56.5 440,-75.5 514,-75.5 514,-56.5 440,-56.5"/>
<text text-anchor="middle" x="477" y="-63.5" font-family="Helvetica,sans-Serif" font-size="10.00">readInTools.h</text>
</a>
</g>
</g>
<!-- Node1&#45;&gt;Node7 -->
<g id="edge6" class="edge">
<title>Node1&#45;&gt;Node7</title>
<path fill="none" stroke="midnightblue" d="M396.9,-168.15C406.68,-155.62 425.14,-132.01 441,-112 448.47,-102.57 456.86,-92.07 463.67,-83.59"/>
<polygon fill="midnightblue" stroke="midnightblue" points="466.54,-85.6 470.07,-75.61 461.08,-81.21 466.54,-85.6"/>
</g>
<!-- Node9 -->
<g id="node9" class="node">
<title>Node9</title>
<g id="a_node9"><a xlink:href="initialCondition_8h.html" target="_top" xlink:title=" ">
<polygon fill="white" stroke="black" points="605.5,-112.5 605.5,-131.5 694.5,-131.5 694.5,-112.5 605.5,-112.5"/>
<text text-anchor="middle" x="650" y="-119.5" font-family="Helvetica,sans-Serif" font-size="10.00">initialCondition.h</text>
</a>
</g>
</g>
<!-- Node1&#45;&gt;Node9 -->
<g id="edge9" class="edge">
<title>Node1&#45;&gt;Node9</title>
<path fill="none" stroke="midnightblue" d="M431.2,-168.44C476.65,-159 549.84,-143.8 598.91,-133.61"/>
<polygon fill="midnightblue" stroke="midnightblue" points="599.92,-136.98 608.99,-131.52 598.49,-130.12 599.92,-136.98"/>
</g>
<!-- Node10 -->
<g id="node10" class="node">
<title>Node10</title>
<g id="a_node10"><a xlink:href="equation_8h.html" target="_top" xlink:title=" ">
<polygon fill="white" stroke="black" points="532,-56.5 532,-75.5 594,-75.5 594,-56.5 532,-56.5"/>
<text text-anchor="middle" x="563" y="-63.5" font-family="Helvetica,sans-Serif" font-size="10.00">equation.h</text>
</a>
</g>
</g>
<!-- Node1&#45;&gt;Node10 -->
<g id="edge10" class="edge">
<title>Node1&#45;&gt;Node10</title>
<path fill="none" stroke="midnightblue" d="M399.89,-168.34C415.14,-155.21 445.63,-129.92 474,-112 493.27,-99.83 516.25,-88.28 534.03,-79.93"/>
<polygon fill="midnightblue" stroke="midnightblue" points="535.71,-83.01 543.32,-75.63 532.78,-76.65 535.71,-83.01"/>
</g>
<!-- Node11 -->
<g id="node11" class="node">
<title>Node11</title>
<g id="a_node11"><a xlink:href="memTools_8h.html" target="_top" xlink:title=" ">
<polygon fill="white" stroke="black" points="751,-112.5 751,-131.5 821,-131.5 821,-112.5 751,-112.5"/>
<text text-anchor="middle" x="786" y="-119.5" font-family="Helvetica,sans-Serif" font-size="10.00">memTools.h</text>
</a>
</g>
</g>
<!-- Node1&#45;&gt;Node11 -->
<g id="edge12" class="edge">
<title>Node1&#45;&gt;Node11</title>
<path fill="none" stroke="midnightblue" d="M453.78,-169.75C523.5,-161.59 638.42,-147.43 737,-132 738.27,-131.8 739.57,-131.59 740.87,-131.38"/>
<polygon fill="midnightblue" stroke="midnightblue" points="741.7,-134.79 750.97,-129.66 740.53,-127.89 741.7,-134.79"/>
</g>
<!-- Node12 -->
<g id="node12" class="node">
<title>Node12</title>
<g id="a_node12"><a xlink:title=" ">
<polygon fill="white" stroke="#bfbfbf" points="716,-56.5 716,-75.5 772,-75.5 772,-56.5 716,-56.5"/>
<text text-anchor="middle" x="744" y="-63.5" font-family="Helvetica,sans-Serif" font-size="10.00">cgnslib.h</text>
</a>
</g>
</g>
<!-- Node1&#45;&gt;Node12 -->
<g id="edge26" class="edge">
<title>Node1&#45;&gt;Node12</title>
<path fill="none" stroke="midnightblue" d="M453.78,-174.09C533.11,-169.41 662.99,-157.95 703,-132 719.92,-121.03 731.15,-100.36 737.51,-85.26"/>
<polygon fill="midnightblue" stroke="midnightblue" points="740.79,-86.48 741.15,-75.89 734.27,-83.95 740.79,-86.48"/>
</g>
<!-- Node13 -->
<g id="node13" class="node">
<title>Node13</title>
<g id="a_node13"><a xlink:href="timeDiscretization_8h.html" target="_top" xlink:title=" ">
<polygon fill="white" stroke="black" points="483,-112.5 483,-131.5 587,-131.5 587,-112.5 483,-112.5"/>
<text text-anchor="middle" x="535" y="-119.5" font-family="Helvetica,sans-Serif" font-size="10.00">timeDiscretization.h</text>
</a>
</g>
</g>
<!-- Node1&#45;&gt;Node13 -->
<g id="edge14" class="edge">
<title>Node1&#45;&gt;Node13</title>
<path fill="none" stroke="midnightblue" d="M412.98,-168.44C437.16,-159.44 475.42,-145.19 502.65,-135.05"/>
<polygon fill="midnightblue" stroke="midnightblue" points="503.98,-138.29 512.13,-131.52 501.54,-131.73 503.98,-138.29"/>
</g>
<!-- Node15 -->
<g id="node15" class="node">
<title>Node15</title>
<g id="a_node15"><a xlink:href="mesh_8h.html" target="_top" xlink:title="Contains the definitions of all structs for the mesh handling.">
<polygon fill="white" stroke="black" points="339.5,-112.5 339.5,-131.5 388.5,-131.5 388.5,-112.5 339.5,-112.5"/>
<text text-anchor="middle" x="364" y="-119.5" font-family="Helvetica,sans-Serif" font-size="10.00">mesh.h</text>
</a>
</g>
</g>
<!-- Node1&#45;&gt;Node15 -->
<g id="edge17" class="edge">
<title>Node1&#45;&gt;Node15</title>
<path fill="none" stroke="midnightblue" d="M385.71,-168.08C382.15,-160.69 376.98,-149.95 372.58,-140.81"/>
<polygon fill="midnightblue" stroke="midnightblue" points="375.71,-139.24 368.21,-131.75 369.4,-142.28 375.71,-139.24"/>
</g>
<!-- Node17 -->
<g id="node17" class="node">
<title>Node17</title>
<g id="a_node17"><a xlink:href="exactFunction_8h.html" target="_top" xlink:title=" ">
<polygon fill="white" stroke="black" points="839,-112.5 839,-131.5 925,-131.5 925,-112.5 839,-112.5"/>
<text text-anchor="middle" x="882" y="-119.5" font-family="Helvetica,sans-Serif" font-size="10.00">exactFunction.h</text>
</a>
</g>
</g>
<!-- Node1&#45;&gt;Node17 -->
<g id="edge23" class="edge">
<title>Node1&#45;&gt;Node17</title>
<path fill="none" stroke="midnightblue" d="M453.56,-171.9C537.24,-164.86 689.16,-151.03 828.87,-132.07"/>
<polygon fill="midnightblue" stroke="midnightblue" points="829.47,-135.52 838.91,-130.7 828.52,-128.58 829.47,-135.52"/>
</g>
<!-- Node18 -->
<g id="node18" class="node">
<title>Node18</title>
<g id="a_node18"><a xlink:href="equationOfState_8h.html" target="_top" xlink:title=" ">
<polygon fill="white" stroke="black" points="166.5,-56.5 166.5,-75.5 261.5,-75.5 261.5,-56.5 166.5,-56.5"/>
<text text-anchor="middle" x="214" y="-63.5" font-family="Helvetica,sans-Serif" font-size="10.00">equationOfState.h</text>
</a>
</g>
</g>
<!-- Node1&#45;&gt;Node18 -->
<g id="edge24" class="edge">
<title>Node1&#45;&gt;Node18</title>
<path fill="none" stroke="midnightblue" d="M369.01,-168.38C349.71,-160.1 320.59,-146.71 297,-132 272.93,-116.99 247.58,-96.33 231.33,-82.36"/>
<polygon fill="midnightblue" stroke="midnightblue" points="233.55,-79.66 223.71,-75.74 228.96,-84.94 233.55,-79.66"/>
</g>
<!-- Node7&#45;&gt;Node6 -->
<g id="edge8" class="edge">
<title>Node7&#45;&gt;Node6</title>
<path fill="none" stroke="midnightblue" d="M453.39,-56.44C428.4,-47.39 388.76,-33.02 360.75,-22.87"/>
<polygon fill="midnightblue" stroke="midnightblue" points="361.6,-19.46 351.01,-19.34 359.22,-26.04 361.6,-19.46"/>
</g>
<!-- Node8 -->
<g id="node8" class="node">
<title>Node8</title>
<g id="a_node8"><a xlink:title=" ">
<polygon fill="white" stroke="#bfbfbf" points="492,-0.5 492,-19.5 548,-19.5 548,-0.5 492,-0.5"/>
<text text-anchor="middle" x="520" y="-7.5" font-family="Helvetica,sans-Serif" font-size="10.00">stdbool.h</text>
</a>
</g>
</g>
<!-- Node7&#45;&gt;Node8 -->
<g id="edge7" class="edge">
<title>Node7&#45;&gt;Node8</title>
<path fill="none" stroke="midnightblue" d="M484.1,-56.08C490.24,-48.38 499.27,-37.03 506.74,-27.65"/>
<polygon fill="midnightblue" stroke="midnightblue" points="509.54,-29.75 513.03,-19.75 504.06,-25.39 509.54,-29.75"/>
</g>
<!-- Node10&#45;&gt;Node8 -->
<g id="edge11" class="edge">
<title>Node10&#45;&gt;Node8</title>
<path fill="none" stroke="midnightblue" d="M555.9,-56.08C549.76,-48.38 540.73,-37.03 533.26,-27.65"/>
<polygon fill="midnightblue" stroke="midnightblue" points="535.94,-25.39 526.97,-19.75 530.46,-29.75 535.94,-25.39"/>
</g>
<!-- Node11&#45;&gt;Node12 -->
<g id="edge13" class="edge">
<title>Node11&#45;&gt;Node12</title>
<path fill="none" stroke="midnightblue" d="M779.06,-112.08C773.07,-104.38 764.25,-93.03 756.95,-83.65"/>
<polygon fill="midnightblue" stroke="midnightblue" points="759.71,-81.5 750.81,-75.75 754.18,-85.79 759.71,-81.5"/>
</g>
<!-- Node13&#45;&gt;Node8 -->
<g id="edge15" class="edge">
<title>Node13&#45;&gt;Node8</title>
<path fill="none" stroke="midnightblue" d="M575.06,-112.48C609.16,-104.31 654.3,-91.03 665,-76 670.16,-68.76 670.27,-63.16 665,-56 640.7,-23.02 592.46,-13.5 558.31,-11.11"/>
<polygon fill="midnightblue" stroke="midnightblue" points="558.37,-7.61 548.2,-10.58 558,-14.6 558.37,-7.61"/>
</g>
<!-- Node14 -->
<g id="node14" class="node">
<title>Node14</title>
<g id="a_node14"><a xlink:title=" ">
<polygon fill="white" stroke="#bfbfbf" points="612,-56.5 612,-75.5 656,-75.5 656,-56.5 612,-56.5"/>
<text text-anchor="middle" x="634" y="-63.5" font-family="Helvetica,sans-Serif" font-size="10.00">time.h</text>
</a>
</g>
</g>
<!-- Node13&#45;&gt;Node14 -->
<g id="edge16" class="edge">
<title>Node13&#45;&gt;Node14</title>
<path fill="none" stroke="midnightblue" d="M550.91,-112.32C566.64,-103.74 590.94,-90.49 609.21,-80.52"/>
<polygon fill="midnightblue" stroke="midnightblue" points="611.03,-83.52 618.13,-75.65 607.68,-77.37 611.03,-83.52"/>
</g>
<!-- Node15&#45;&gt;Node6 -->
<g id="edge18" class="edge">
<title>Node15&#45;&gt;Node6</title>
<path fill="none" stroke="midnightblue" d="M360.54,-112.44C356.96,-103.44 351.29,-88.83 347,-76 341.81,-60.49 336.66,-42.65 333.03,-29.59"/>
<polygon fill="midnightblue" stroke="midnightblue" points="336.39,-28.62 330.37,-19.9 329.64,-30.47 336.39,-28.62"/>
</g>
<!-- Node16 -->
<g id="node16" class="node">
<title>Node16</title>
<g id="a_node16"><a xlink:href="boundary_8h.html" target="_top" xlink:title="Contains the structure definition of a boundary.">
<polygon fill="white" stroke="black" points="356.5,-56.5 356.5,-75.5 421.5,-75.5 421.5,-56.5 356.5,-56.5"/>
<text text-anchor="middle" x="389" y="-63.5" font-family="Helvetica,sans-Serif" font-size="10.00">boundary.h</text>
</a>
</g>
</g>
<!-- Node15&#45;&gt;Node16 -->
<g id="edge19" class="edge">
<title>Node15&#45;&gt;Node16</title>
<path fill="none" stroke="midnightblue" d="M362.96,-112.08C364.84,-104.61 369.49,-93.72 374.52,-84.52"/>
<polygon fill="midnightblue" stroke="midnightblue" points="377.65,-86.12 379.82,-75.75 371.65,-82.5 377.65,-86.12"/>
</g>
<!-- Node16&#45;&gt;Node6 -->
<g id="edge21" class="edge">
<title>Node16&#45;&gt;Node6</title>
<path fill="none" stroke="midnightblue" d="M379.2,-56.32C370.18,-48.34 356.59,-36.31 345.68,-26.65"/>
<polygon fill="midnightblue" stroke="midnightblue" points="347.79,-23.84 337.98,-19.83 343.15,-29.08 347.79,-23.84"/>
</g>
<!-- Node16&#45;&gt;Node8 -->
<g id="edge20" class="edge">
<title>Node16&#45;&gt;Node8</title>
<path fill="none" stroke="midnightblue" d="M409.76,-56.44C431.32,-47.56 465.26,-33.56 489.79,-23.45"/>
<polygon fill="midnightblue" stroke="midnightblue" points="491.43,-26.56 499.34,-19.52 488.76,-20.09 491.43,-26.56"/>
</g>
<!-- Node16&#45;&gt;Node15 -->
<g id="edge22" class="edge">
<title>Node16&#45;&gt;Node15</title>
<path fill="none" stroke="midnightblue" d="M390.08,-75.75C388.24,-83.17 383.62,-94.05 378.59,-103.27"/>
<polygon fill="midnightblue" stroke="midnightblue" points="375.45,-101.71 373.29,-112.08 381.45,-105.32 375.45,-101.71"/>
</g>
<!-- Node18&#45;&gt;Node6 -->
<g id="edge25" class="edge">
<title>Node18&#45;&gt;Node6</title>
<path fill="none" stroke="midnightblue" d="M232.06,-56.44C250.57,-47.68 279.58,-33.94 300.86,-23.86"/>
<polygon fill="midnightblue" stroke="midnightblue" points="302.48,-26.96 310.02,-19.52 299.49,-20.63 302.48,-26.96"/>
</g>
</g>
</svg>
        <g id="navigator" transform="translate(0 0)" fill="#404254">
                <rect fill="#f2f5e9" fill-opacity="0.5" stroke="#606060" stroke-width=".5" x="0" y="0" width="60" height="60"/>
                <use id="zoomplus" xlink:href="#zoomPlus" x="17" y="9" onmousedown="handleZoom(evt,'in')"/>
                <use id="zoomminus" xlink:href="#zoomMin" x="42" y="9" onmousedown="handleZoom(evt,'out')"/>
                <use id="reset" xlink:href="#resetDef" x="30" y="36" onmousedown="handleReset()"/>
                <g id="arrowUp" xlink:href="#dirArrow" transform="translate(30 24)" onmousedown="handlePan(0,-1)">
                  <use xlink:href="#rim" fill="#404040">
                        <set attributeName="fill" to="#808080" begin="arrowUp.mouseover" end="arrowUp.mouseout"/>
                  </use>
                  <path fill="none" stroke="white" stroke-width="1.5" d="M0,-3.0v7 M-2.5,-0.5L0,-3.0L2.5,-0.5"/>
                </g>
                <g id="arrowRight" xlink:href="#dirArrow" transform="rotate(90) translate(36 -43)" onmousedown="handlePan(1,0)">
                  <use xlink:href="#rim" fill="#404040">
                        <set attributeName="fill" to="#808080" begin="arrowRight.mouseover" end="arrowRight.mouseout"/>
                  </use>
                  <path fill="none" stroke="white" stroke-width="1.5" d="M0,-3.0v7 M-2.5,-0.5L0,-3.0L2.5,-0.5"/>
                </g>
                <g id="arrowDown" xlink:href="#dirArrow" transform="rotate(180) translate(-30 -48)" onmousedown="handlePan(0,1)">
                  <use xlink:href="#rim" fill="#404040">
                        <set attributeName="fill" to="#808080" begin="arrowDown.mouseover" end="arrowDown.mouseout"/>
                  </use>
                  <path fill="none" stroke="white" stroke-width="1.5" d="M0,-3.0v7 M-2.5,-0.5L0,-3.0L2.5,-0.5"/>
                </g>
                <g id="arrowLeft" xlink:href="#dirArrow" transform="rotate(270) translate(-36 17)" onmousedown="handlePan(-1,0)">
                  <use xlink:href="#rim" fill="#404040">
                        <set attributeName="fill" to="#808080" begin="arrowLeft.mouseover" end="arrowLeft.mouseout"/>
                  </use>
                  <path fill="none" stroke="white" stroke-width="1.5" d="M0,-3.0v7 M-2.5,-0.5L0,-3.0L2.5,-0.5"/>
                </g>
        </g>
        <svg viewBox="0 0 15 15" width="100%" height="30px" preserveAspectRatio="xMaxYMin meet">
         <g id="arrow_out" transform="scale(0.3 0.3)">
          <a xlink:href="initialCondition_8c__incl_org.svg" target="_base">
           <rect id="button" ry="5" rx="5" y="6" x="6" height="38" width="38"
                fill="#f2f5e9" fill-opacity="0.5" stroke="#606060" stroke-width="1.0"/>
           <path id="arrow"
             d="M 11.500037,31.436501 C 11.940474,20.09759 22.043105,11.32322 32.158766,21.979434 L 37.068811,17.246167 C 37.068811,17.246167 37.088388,32 37.088388,32 L 22.160133,31.978069 C 22.160133,31.978069 26.997745,27.140456 26.997745,27.140456 C 18.528582,18.264221 13.291696,25.230495 11.500037,31.436501 z"
             style="fill:#404040;"/>
          </a>
         </g>
        </svg>
</svg>
