<?xml version="1.0" encoding="UTF-8" standalone="no"?>
<!DOCTYPE svg PUBLIC "-//W3C//DTD SVG 1.1//EN"
 "http://www.w3.org/Graphics/SVG/1.1/DTD/svg11.dtd">
<!-- Generated by graphviz version 2.44.0 (0)
 -->
<!-- Title: ccfd/src/linearSolver.c Pages: 1 -->
<!--zoomable 252 -->
<svg id="main" version="1.1" xmlns="http://www.w3.org/2000/svg" xmlns:xlink="http://www.w3.org/1999/xlink" xml:space="preserve" onload="init(evt)">
<style type="text/css"><![CDATA[
.edge:hover path { stroke: red; }
.edge:hover polygon { stroke: red; fill: red; }
]]></style>
<script type="text/javascript"><![CDATA[
var edges = document.getElementsByTagName('g');
if (edges && edges.length) {
  for (var i=0;i<edges.length;i++) {
    if (edges[i].id.substr(0,4)=='edge') {
      edges[i].setAttribute('class','edge');
    }
  }
}
]]></script>
        <defs>
                <circle id="rim" cx="0" cy="0" r="7"/>
                <circle id="rim2" cx="0" cy="0" r="3.5"/>
                <g id="zoomPlus">
                        <use xlink:href="#rim" fill="#404040">
                                <set attributeName="fill" to="#808080" begin="zoomplus.mouseover" end="zoomplus.mouseout"/>
                        </use>
                        <path d="M-4,0h8M0,-4v8" fill="none" stroke="white" stroke-width="1.5" pointer-events="none"/>
                </g>
                <g id="zoomMin">
                        <use xlink:href="#rim" fill="#404040">
                                <set attributeName="fill" to="#808080" begin="zoomminus.mouseover" end="zoomminus.mouseout"/>
                        </use>
                        <path d="M-4,0h8" fill="none" stroke="white" stroke-width="1.5" pointer-events="none"/>
                </g>
                <g id="dirArrow">
                        <path fill="none" stroke="white" stroke-width="1.5" d="M0,-3.0v7 M-2.5,-0.5L0,-3.0L2.5,-0.5"/>
                </g>
               <g id="resetDef">
                       <use xlink:href="#rim2" fill="#404040">
                               <set attributeName="fill" to="#808080" begin="reset.mouseover" end="reset.mouseout"/>
                       </use>
               </g>
        </defs>

<script type="text/javascript">
var viewWidth = 1088;
var viewHeight = 252;
var sectionId = 'dynsection-0';
</script>
<script xlink:href="svgpan.js"/>
<svg id="graph" class="graph">
<g id="viewport">
<title>ccfd/src/linearSolver.c</title>
<polygon fill="white" stroke="transparent" points="-4,4 -4,-248 1084,-248 1084,4 -4,4"/>
<!-- Node1 -->
<g id="node1" class="node">
<title>Node1</title>
<g id="a_node1"><a xlink:title="Contains the functions for solving the linear system of equations during implicit calculations.">
<polygon fill="#bfbfbf" stroke="black" points="489.5,-224.5 489.5,-243.5 602.5,-243.5 602.5,-224.5 489.5,-224.5"/>
<text text-anchor="middle" x="546" y="-231.5" font-family="Helvetica,sans-Serif" font-size="10.00">ccfd/src/linearSolver.c</text>
</a>
</g>
</g>
<!-- Node2 -->
<g id="node2" class="node">
<title>Node2</title>
<g id="a_node2"><a xlink:title=" ">
<polygon fill="white" stroke="#bfbfbf" points="0,-168.5 0,-187.5 46,-187.5 46,-168.5 0,-168.5"/>
<text text-anchor="middle" x="23" y="-175.5" font-family="Helvetica,sans-Serif" font-size="10.00">stdio.h</text>
</a>
</g>
</g>
<!-- Node1&#45;&gt;Node2 -->
<g id="edge1" class="edge">
<title>Node1&#45;&gt;Node2</title>
<path fill="none" stroke="midnightblue" d="M489.21,-231.16C399.17,-227.51 218.13,-217.18 56.43,-187.95"/>
<polygon fill="midnightblue" stroke="midnightblue" points="56.77,-184.45 46.3,-186.09 55.51,-191.33 56.77,-184.45"/>
</g>
<!-- Node3 -->
<g id="node3" class="node">
<title>Node3</title>
<g id="a_node3"><a xlink:title=" ">
<polygon fill="white" stroke="#bfbfbf" points="64,-168.5 64,-187.5 112,-187.5 112,-168.5 64,-168.5"/>
<text text-anchor="middle" x="88" y="-175.5" font-family="Helvetica,sans-Serif" font-size="10.00">stdlib.h</text>
</a>
</g>
</g>
<!-- Node1&#45;&gt;Node3 -->
<g id="edge2" class="edge">
<title>Node1&#45;&gt;Node3</title>
<path fill="none" stroke="midnightblue" d="M489.3,-229.2C408.31,-223.26 255.02,-210.1 126,-188 124.72,-187.78 123.42,-187.54 122.11,-187.29"/>
<polygon fill="midnightblue" stroke="midnightblue" points="122.54,-183.81 112.03,-185.17 121.09,-190.66 122.54,-183.81"/>
</g>
<!-- Node4 -->
<g id="node4" class="node">
<title>Node4</title>
<g id="a_node4"><a xlink:title=" ">
<polygon fill="white" stroke="#bfbfbf" points="255,-0.5 255,-19.5 311,-19.5 311,-0.5 255,-0.5"/>
<text text-anchor="middle" x="283" y="-7.5" font-family="Helvetica,sans-Serif" font-size="10.00">stdbool.h</text>
</a>
</g>
</g>
<!-- Node1&#45;&gt;Node4 -->
<g id="edge3" class="edge">
<title>Node1&#45;&gt;Node4</title>
<path fill="none" stroke="midnightblue" d="M489.46,-229.92C389.96,-223.98 191.86,-209.57 169,-188 144.22,-164.62 144.46,-142.81 159,-112 178.67,-70.31 224.99,-40.21 255.11,-24.21"/>
<polygon fill="midnightblue" stroke="midnightblue" points="256.97,-27.19 264.27,-19.51 253.77,-20.96 256.97,-27.19"/>
</g>
<!-- Node5 -->
<g id="node5" class="node">
<title>Node5</title>
<g id="a_node5"><a xlink:title=" ">
<polygon fill="white" stroke="#bfbfbf" points="612.5,-168.5 612.5,-187.5 659.5,-187.5 659.5,-168.5 612.5,-168.5"/>
<text text-anchor="middle" x="636" y="-175.5" font-family="Helvetica,sans-Serif" font-size="10.00">math.h</text>
</a>
</g>
</g>
<!-- Node1&#45;&gt;Node5 -->
<g id="edge4" class="edge">
<title>Node1&#45;&gt;Node5</title>
<path fill="none" stroke="midnightblue" d="M560.46,-224.32C574.5,-215.9 596.05,-202.97 612.54,-193.07"/>
<polygon fill="midnightblue" stroke="midnightblue" points="614.8,-195.8 621.58,-187.65 611.2,-189.8 614.8,-195.8"/>
</g>
<!-- Node6 -->
<g id="node6" class="node">
<title>Node6</title>
<g id="a_node6"><a xlink:title=" ">
<polygon fill="white" stroke="#bfbfbf" points="677.5,-168.5 677.5,-187.5 720.5,-187.5 720.5,-168.5 677.5,-168.5"/>
<text text-anchor="middle" x="699" y="-175.5" font-family="Helvetica,sans-Serif" font-size="10.00">float.h</text>
</a>
</g>
</g>
<!-- Node1&#45;&gt;Node6 -->
<g id="edge5" class="edge">
<title>Node1&#45;&gt;Node6</title>
<path fill="none" stroke="midnightblue" d="M570.24,-224.44C596.62,-215.13 638.89,-200.22 667.74,-190.03"/>
<polygon fill="midnightblue" stroke="midnightblue" points="669.08,-193.27 677.34,-186.64 666.75,-186.67 669.08,-193.27"/>
</g>
<!-- Node7 -->
<g id="node7" class="node">
<title>Node7</title>
<g id="a_node7"><a xlink:title=" ">
<polygon fill="white" stroke="#bfbfbf" points="738.5,-168.5 738.5,-187.5 787.5,-187.5 787.5,-168.5 738.5,-168.5"/>
<text text-anchor="middle" x="763" y="-175.5" font-family="Helvetica,sans-Serif" font-size="10.00">string.h</text>
</a>
</g>
</g>
<!-- Node1&#45;&gt;Node7 -->
<g id="edge6" class="edge">
<title>Node1&#45;&gt;Node7</title>
<path fill="none" stroke="midnightblue" d="M582.03,-224.48C617.15,-216.12 672.29,-202.81 728.41,-188.37"/>
<polygon fill="midnightblue" stroke="midnightblue" points="729.35,-191.74 738.15,-185.85 727.59,-184.96 729.35,-191.74"/>
</g>
<!-- Node8 -->
<g id="node8" class="node">
<title>Node8</title>
<g id="a_node8"><a xlink:href="main_8h.html" target="_top" xlink:title="Contains the global constants and definitions.">
<polygon fill="white" stroke="black" points="466,-0.5 466,-19.5 512,-19.5 512,-0.5 466,-0.5"/>
<text text-anchor="middle" x="489" y="-7.5" font-family="Helvetica,sans-Serif" font-size="10.00">main.h</text>
</a>
</g>
</g>
<!-- Node1&#45;&gt;Node8 -->
<g id="edge7" class="edge">
<title>Node1&#45;&gt;Node8</title>
<path fill="none" stroke="midnightblue" d="M544.01,-224.5C537.98,-198.93 519.33,-120.52 502,-56 499.62,-47.15 496.82,-37.38 494.43,-29.21"/>
<polygon fill="midnightblue" stroke="midnightblue" points="497.78,-28.2 491.59,-19.6 491.07,-30.18 497.78,-28.2"/>
</g>
<!-- Node9 -->
<g id="node9" class="node">
<title>Node9</title>
<g id="a_node9"><a xlink:href="linearSolver_8h.html" target="_top" xlink:title=" ">
<polygon fill="white" stroke="black" points="404.5,-168.5 404.5,-187.5 479.5,-187.5 479.5,-168.5 404.5,-168.5"/>
<text text-anchor="middle" x="442" y="-175.5" font-family="Helvetica,sans-Serif" font-size="10.00">linearSolver.h</text>
</a>
</g>
</g>
<!-- Node1&#45;&gt;Node9 -->
<g id="edge8" class="edge">
<title>Node1&#45;&gt;Node9</title>
<path fill="none" stroke="midnightblue" d="M529.29,-224.32C512.69,-215.7 487,-202.36 467.78,-192.39"/>
<polygon fill="midnightblue" stroke="midnightblue" points="469.16,-189.16 458.67,-187.65 465.93,-195.37 469.16,-189.16"/>
</g>
<!-- Node10 -->
<g id="node10" class="node">
<title>Node10</title>
<g id="a_node10"><a xlink:href="mesh_8h.html" target="_top" xlink:title="Contains the definitions of all structs for the mesh handling.">
<polygon fill="white" stroke="black" points="417.5,-112.5 417.5,-131.5 466.5,-131.5 466.5,-112.5 417.5,-112.5"/>
<text text-anchor="middle" x="442" y="-119.5" font-family="Helvetica,sans-Serif" font-size="10.00">mesh.h</text>
</a>
</g>
</g>
<!-- Node1&#45;&gt;Node10 -->
<g id="edge20" class="edge">
<title>Node1&#45;&gt;Node10</title>
<path fill="none" stroke="midnightblue" d="M538.67,-224.42C527.84,-211.82 506.8,-187.69 488,-168 478.55,-158.1 467.61,-147.37 458.77,-138.88"/>
<polygon fill="midnightblue" stroke="midnightblue" points="460.99,-136.16 451.35,-131.79 456.16,-141.22 460.99,-136.16"/>
</g>
<!-- Node12 -->
<g id="node12" class="node">
<title>Node12</title>
<g id="a_node12"><a xlink:href="readInTools_8h.html" target="_top" xlink:title=" ">
<polygon fill="white" stroke="black" points="246,-56.5 246,-75.5 320,-75.5 320,-56.5 246,-56.5"/>
<text text-anchor="middle" x="283" y="-63.5" font-family="Helvetica,sans-Serif" font-size="10.00">readInTools.h</text>
</a>
</g>
</g>
<!-- Node1&#45;&gt;Node12 -->
<g id="edge17" class="edge">
<title>Node1&#45;&gt;Node12</title>
<path fill="none" stroke="midnightblue" d="M493.15,-224.46C462.77,-217.84 424.84,-206.58 395,-188 350.63,-160.38 312.58,-110.61 294.41,-84.33"/>
<polygon fill="midnightblue" stroke="midnightblue" points="297.13,-82.12 288.63,-75.8 291.34,-86.04 297.13,-82.12"/>
</g>
<!-- Node13 -->
<g id="node13" class="node">
<title>Node13</title>
<g id="a_node13"><a xlink:href="timeDiscretization_8h.html" target="_top" xlink:title=" ">
<polygon fill="white" stroke="black" points="178,-168.5 178,-187.5 282,-187.5 282,-168.5 178,-168.5"/>
<text text-anchor="middle" x="230" y="-175.5" font-family="Helvetica,sans-Serif" font-size="10.00">timeDiscretization.h</text>
</a>
</g>
</g>
<!-- Node1&#45;&gt;Node13 -->
<g id="edge21" class="edge">
<title>Node1&#45;&gt;Node13</title>
<path fill="none" stroke="midnightblue" d="M495.93,-224.44C439.99,-214.89 349.49,-199.42 289.86,-189.23"/>
<polygon fill="midnightblue" stroke="midnightblue" points="290.28,-185.75 279.84,-187.52 289.1,-192.65 290.28,-185.75"/>
</g>
<!-- Node15 -->
<g id="node15" class="node">
<title>Node15</title>
<g id="a_node15"><a xlink:href="memTools_8h.html" target="_top" xlink:title=" ">
<polygon fill="white" stroke="black" points="806,-168.5 806,-187.5 876,-187.5 876,-168.5 806,-168.5"/>
<text text-anchor="middle" x="841" y="-175.5" font-family="Helvetica,sans-Serif" font-size="10.00">memTools.h</text>
</a>
</g>
</g>
<!-- Node1&#45;&gt;Node15 -->
<g id="edge24" class="edge">
<title>Node1&#45;&gt;Node15</title>
<path fill="none" stroke="midnightblue" d="M595.6,-224.48C644.1,-216.06 720.32,-202.61 795.79,-188.2"/>
<polygon fill="midnightblue" stroke="midnightblue" points="796.79,-191.57 805.95,-186.25 795.47,-184.69 796.79,-191.57"/>
</g>
<!-- Node17 -->
<g id="node17" class="node">
<title>Node17</title>
<g id="a_node17"><a xlink:href="fluxCalculation_8h.html" target="_top" xlink:title=" ">
<polygon fill="white" stroke="black" points="894.5,-168.5 894.5,-187.5 983.5,-187.5 983.5,-168.5 894.5,-168.5"/>
<text text-anchor="middle" x="939" y="-175.5" font-family="Helvetica,sans-Serif" font-size="10.00">fluxCalculation.h</text>
</a>
</g>
</g>
<!-- Node1&#45;&gt;Node17 -->
<g id="edge26" class="edge">
<title>Node1&#45;&gt;Node17</title>
<path fill="none" stroke="midnightblue" d="M602.76,-226.05C668.05,-217.92 778.73,-203.75 884.05,-188.1"/>
<polygon fill="midnightblue" stroke="midnightblue" points="884.86,-191.52 894.23,-186.58 883.82,-184.59 884.86,-191.52"/>
</g>
<!-- Node18 -->
<g id="node18" class="node">
<title>Node18</title>
<g id="a_node18"><a xlink:href="equationOfState_8h.html" target="_top" xlink:title=" ">
<polygon fill="white" stroke="black" points="574.5,-56.5 574.5,-75.5 669.5,-75.5 669.5,-56.5 574.5,-56.5"/>
<text text-anchor="middle" x="622" y="-63.5" font-family="Helvetica,sans-Serif" font-size="10.00">equationOfState.h</text>
</a>
</g>
</g>
<!-- Node1&#45;&gt;Node18 -->
<g id="edge27" class="edge">
<title>Node1&#45;&gt;Node18</title>
<path fill="none" stroke="midnightblue" d="M550.09,-224.08C562.15,-197.72 597.79,-119.88 613.91,-84.66"/>
<polygon fill="midnightblue" stroke="midnightblue" points="617.1,-86.12 618.08,-75.57 610.73,-83.2 617.1,-86.12"/>
</g>
<!-- Node19 -->
<g id="node19" class="node">
<title>Node19</title>
<g id="a_node19"><a xlink:href="finiteVolume_8h.html" target="_top" xlink:title=" ">
<polygon fill="white" stroke="black" points="1002,-168.5 1002,-187.5 1080,-187.5 1080,-168.5 1002,-168.5"/>
<text text-anchor="middle" x="1041" y="-175.5" font-family="Helvetica,sans-Serif" font-size="10.00">finiteVolume.h</text>
</a>
</g>
</g>
<!-- Node1&#45;&gt;Node19 -->
<g id="edge29" class="edge">
<title>Node1&#45;&gt;Node19</title>
<path fill="none" stroke="midnightblue" d="M602.64,-228.85C685.76,-222.42 845.87,-208.73 991.72,-188.07"/>
<polygon fill="midnightblue" stroke="midnightblue" points="992.35,-191.52 1001.75,-186.64 991.36,-184.59 992.35,-191.52"/>
</g>
<!-- Node9&#45;&gt;Node4 -->
<g id="edge9" class="edge">
<title>Node9&#45;&gt;Node4</title>
<path fill="none" stroke="midnightblue" d="M434.18,-168.37C416.01,-148.35 369.38,-97.32 329,-56 319.32,-46.09 308.22,-35.22 299.35,-26.64"/>
<polygon fill="midnightblue" stroke="midnightblue" points="301.57,-23.92 291.94,-19.51 296.71,-28.97 301.57,-23.92"/>
</g>
<!-- Node9&#45;&gt;Node8 -->
<g id="edge10" class="edge">
<title>Node9&#45;&gt;Node8</title>
<path fill="none" stroke="midnightblue" d="M450.64,-168.21C458.43,-159.7 469.48,-146.07 475,-132 488.47,-97.67 490.09,-53.97 489.75,-29.59"/>
<polygon fill="midnightblue" stroke="midnightblue" points="493.24,-29.47 489.48,-19.57 486.25,-29.66 493.24,-29.47"/>
</g>
<!-- Node9&#45;&gt;Node10 -->
<g id="edge11" class="edge">
<title>Node9&#45;&gt;Node10</title>
<path fill="none" stroke="midnightblue" d="M442,-168.08C442,-161.01 442,-150.86 442,-141.99"/>
<polygon fill="midnightblue" stroke="midnightblue" points="445.5,-141.75 442,-131.75 438.5,-141.75 445.5,-141.75"/>
</g>
<!-- Node10&#45;&gt;Node8 -->
<g id="edge12" class="edge">
<title>Node10&#45;&gt;Node8</title>
<path fill="none" stroke="midnightblue" d="M445.69,-112.37C453.34,-94.46 471.09,-52.92 481.33,-28.95"/>
<polygon fill="midnightblue" stroke="midnightblue" points="484.62,-30.16 485.33,-19.59 478.18,-27.41 484.62,-30.16"/>
</g>
<!-- Node11 -->
<g id="node11" class="node">
<title>Node11</title>
<g id="a_node11"><a xlink:href="boundary_8h.html" target="_top" xlink:title="Contains the structure definition of a boundary.">
<polygon fill="white" stroke="black" points="376.5,-56.5 376.5,-75.5 441.5,-75.5 441.5,-56.5 376.5,-56.5"/>
<text text-anchor="middle" x="409" y="-63.5" font-family="Helvetica,sans-Serif" font-size="10.00">boundary.h</text>
</a>
</g>
</g>
<!-- Node10&#45;&gt;Node11 -->
<g id="edge13" class="edge">
<title>Node10&#45;&gt;Node11</title>
<path fill="none" stroke="midnightblue" d="M431.38,-112.08C425.31,-104.69 418.34,-93.95 413.49,-84.81"/>
<polygon fill="midnightblue" stroke="midnightblue" points="416.65,-83.3 409.22,-75.75 410.32,-86.29 416.65,-83.3"/>
</g>
<!-- Node11&#45;&gt;Node4 -->
<g id="edge14" class="edge">
<title>Node11&#45;&gt;Node4</title>
<path fill="none" stroke="midnightblue" d="M389.03,-56.44C368.39,-47.6 335.94,-33.69 312.37,-23.59"/>
<polygon fill="midnightblue" stroke="midnightblue" points="313.44,-20.24 302.87,-19.52 310.68,-26.67 313.44,-20.24"/>
</g>
<!-- Node11&#45;&gt;Node8 -->
<g id="edge15" class="edge">
<title>Node11&#45;&gt;Node8</title>
<path fill="none" stroke="midnightblue" d="M421.85,-56.32C434.22,-47.98 453.13,-35.21 467.74,-25.35"/>
<polygon fill="midnightblue" stroke="midnightblue" points="469.85,-28.15 476.18,-19.65 465.93,-22.35 469.85,-28.15"/>
</g>
<!-- Node11&#45;&gt;Node10 -->
<g id="edge16" class="edge">
<title>Node11&#45;&gt;Node10</title>
<path fill="none" stroke="midnightblue" d="M419.48,-75.75C425.54,-83.09 432.52,-93.82 437.4,-102.98"/>
<polygon fill="midnightblue" stroke="midnightblue" points="434.27,-104.55 441.72,-112.08 440.59,-101.55 434.27,-104.55"/>
</g>
<!-- Node12&#45;&gt;Node4 -->
<g id="edge18" class="edge">
<title>Node12&#45;&gt;Node4</title>
<path fill="none" stroke="midnightblue" d="M283,-56.08C283,-49.01 283,-38.86 283,-29.99"/>
<polygon fill="midnightblue" stroke="midnightblue" points="286.5,-29.75 283,-19.75 279.5,-29.75 286.5,-29.75"/>
</g>
<!-- Node12&#45;&gt;Node8 -->
<g id="edge19" class="edge">
<title>Node12&#45;&gt;Node8</title>
<path fill="none" stroke="midnightblue" d="M315.64,-56.44C354.07,-46.37 417.53,-29.74 456.08,-19.63"/>
<polygon fill="midnightblue" stroke="midnightblue" points="457,-23.01 465.78,-17.09 455.22,-16.24 457,-23.01"/>
</g>
<!-- Node13&#45;&gt;Node4 -->
<g id="edge22" class="edge">
<title>Node13&#45;&gt;Node4</title>
<path fill="none" stroke="midnightblue" d="M228.45,-168.28C225.21,-147.66 219.39,-94.69 237,-56 242.44,-44.05 252.59,-33.58 261.97,-25.76"/>
<polygon fill="midnightblue" stroke="midnightblue" points="264.14,-28.5 269.88,-19.59 259.84,-22.98 264.14,-28.5"/>
</g>
<!-- Node14 -->
<g id="node14" class="node">
<title>Node14</title>
<g id="a_node14"><a xlink:title=" ">
<polygon fill="white" stroke="#bfbfbf" points="168,-112.5 168,-131.5 212,-131.5 212,-112.5 168,-112.5"/>
<text text-anchor="middle" x="190" y="-119.5" font-family="Helvetica,sans-Serif" font-size="10.00">time.h</text>
</a>
</g>
</g>
<!-- Node13&#45;&gt;Node14 -->
<g id="edge23" class="edge">
<title>Node13&#45;&gt;Node14</title>
<path fill="none" stroke="midnightblue" d="M223.39,-168.08C217.74,-160.46 209.46,-149.26 202.55,-139.94"/>
<polygon fill="midnightblue" stroke="midnightblue" points="205.25,-137.7 196.48,-131.75 199.62,-141.87 205.25,-137.7"/>
</g>
<!-- Node16 -->
<g id="node16" class="node">
<title>Node16</title>
<g id="a_node16"><a xlink:title=" ">
<polygon fill="white" stroke="#bfbfbf" points="813,-112.5 813,-131.5 869,-131.5 869,-112.5 813,-112.5"/>
<text text-anchor="middle" x="841" y="-119.5" font-family="Helvetica,sans-Serif" font-size="10.00">cgnslib.h</text>
</a>
</g>
</g>
<!-- Node15&#45;&gt;Node16 -->
<g id="edge25" class="edge">
<title>Node15&#45;&gt;Node16</title>
<path fill="none" stroke="midnightblue" d="M841,-168.08C841,-161.01 841,-150.86 841,-141.99"/>
<polygon fill="midnightblue" stroke="midnightblue" points="844.5,-141.75 841,-131.75 837.5,-141.75 844.5,-141.75"/>
</g>
<!-- Node18&#45;&gt;Node8 -->
<g id="edge28" class="edge">
<title>Node18&#45;&gt;Node8</title>
<path fill="none" stroke="midnightblue" d="M600.93,-56.44C578.94,-47.52 544.27,-33.44 519.34,-23.32"/>
<polygon fill="midnightblue" stroke="midnightblue" points="520.56,-20.04 509.98,-19.52 517.92,-26.52 520.56,-20.04"/>
</g>
</g>
</svg>
        <g id="navigator" transform="translate(0 0)" fill="#404254">
                <rect fill="#f2f5e9" fill-opacity="0.5" stroke="#606060" stroke-width=".5" x="0" y="0" width="60" height="60"/>
                <use id="zoomplus" xlink:href="#zoomPlus" x="17" y="9" onmousedown="handleZoom(evt,'in')"/>
                <use id="zoomminus" xlink:href="#zoomMin" x="42" y="9" onmousedown="handleZoom(evt,'out')"/>
                <use id="reset" xlink:href="#resetDef" x="30" y="36" onmousedown="handleReset()"/>
                <g id="arrowUp" xlink:href="#dirArrow" transform="translate(30 24)" onmousedown="handlePan(0,-1)">
                  <use xlink:href="#rim" fill="#404040">
                        <set attributeName="fill" to="#808080" begin="arrowUp.mouseover" end="arrowUp.mouseout"/>
                  </use>
                  <path fill="none" stroke="white" stroke-width="1.5" d="M0,-3.0v7 M-2.5,-0.5L0,-3.0L2.5,-0.5"/>
                </g>
                <g id="arrowRight" xlink:href="#dirArrow" transform="rotate(90) translate(36 -43)" onmousedown="handlePan(1,0)">
                  <use xlink:href="#rim" fill="#404040">
                        <set attributeName="fill" to="#808080" begin="arrowRight.mouseover" end="arrowRight.mouseout"/>
                  </use>
                  <path fill="none" stroke="white" stroke-width="1.5" d="M0,-3.0v7 M-2.5,-0.5L0,-3.0L2.5,-0.5"/>
                </g>
                <g id="arrowDown" xlink:href="#dirArrow" transform="rotate(180) translate(-30 -48)" onmousedown="handlePan(0,1)">
                  <use xlink:href="#rim" fill="#404040">
                        <set attributeName="fill" to="#808080" begin="arrowDown.mouseover" end="arrowDown.mouseout"/>
                  </use>
                  <path fill="none" stroke="white" stroke-width="1.5" d="M0,-3.0v7 M-2.5,-0.5L0,-3.0L2.5,-0.5"/>
                </g>
                <g id="arrowLeft" xlink:href="#dirArrow" transform="rotate(270) translate(-36 17)" onmousedown="handlePan(-1,0)">
                  <use xlink:href="#rim" fill="#404040">
                        <set attributeName="fill" to="#808080" begin="arrowLeft.mouseover" end="arrowLeft.mouseout"/>
                  </use>
                  <path fill="none" stroke="white" stroke-width="1.5" d="M0,-3.0v7 M-2.5,-0.5L0,-3.0L2.5,-0.5"/>
                </g>
        </g>
        <svg viewBox="0 0 15 15" width="100%" height="30px" preserveAspectRatio="xMaxYMin meet">
         <g id="arrow_out" transform="scale(0.3 0.3)">
          <a xlink:href="linearSolver_8c__incl_org.svg" target="_base">
           <rect id="button" ry="5" rx="5" y="6" x="6" height="38" width="38"
                fill="#f2f5e9" fill-opacity="0.5" stroke="#606060" stroke-width="1.0"/>
           <path id="arrow"
             d="M 11.500037,31.436501 C 11.940474,20.09759 22.043105,11.32322 32.158766,21.979434 L 37.068811,17.246167 C 37.068811,17.246167 37.088388,32 37.088388,32 L 22.160133,31.978069 C 22.160133,31.978069 26.997745,27.140456 26.997745,27.140456 C 18.528582,18.264221 13.291696,25.230495 11.500037,31.436501 z"
             style="fill:#404040;"/>
          </a>
         </g>
        </svg>
</svg>
