<?xml version="1.0" encoding="UTF-8" standalone="no"?>
<!DOCTYPE svg PUBLIC "-//W3C//DTD SVG 1.1//EN"
 "http://www.w3.org/Graphics/SVG/1.1/DTD/svg11.dtd">
<!-- Generated by graphviz version 2.44.0 (0)
 -->
<!-- Title: ccfd/src/linearSolver.h Pages: 1 -->
<svg width="529pt" height="84pt"
 viewBox="0.00 0.00 528.50 84.00" xmlns="http://www.w3.org/2000/svg" xmlns:xlink="http://www.w3.org/1999/xlink">
<g id="graph0" class="graph" transform="scale(1 1) rotate(0) translate(4 80)">
<title>ccfd/src/linearSolver.h</title>
<polygon fill="white" stroke="transparent" points="-4,4 -4,-80 524.5,-80 524.5,4 -4,4"/>
<!-- Node1 -->
<g id="node1" class="node">
<title>Node1</title>
<g id="a_node1"><a xlink:title=" ">
<polygon fill="#bfbfbf" stroke="black" points="203,-56.5 203,-75.5 316,-75.5 316,-56.5 203,-56.5"/>
<text text-anchor="middle" x="259.5" y="-63.5" font-family="Helvetica,sans-Serif" font-size="10.00">ccfd/src/linearSolver.h</text>
</a>
</g>
</g>
<!-- Node2 -->
<g id="node2" class="node">
<title>Node2</title>
<g id="a_node2"><a xlink:href="fluxCalculation_8c.html" target="_top" xlink:title="Contains the flux calculation functions.">
<polygon fill="white" stroke="black" points="0,-0.5 0,-19.5 127,-19.5 127,-0.5 0,-0.5"/>
<text text-anchor="middle" x="63.5" y="-7.5" font-family="Helvetica,sans-Serif" font-size="10.00">ccfd/src/fluxCalculation.c</text>
</a>
</g>
</g>
<!-- Node1&#45;&gt;Node2 -->
<g id="edge1" class="edge">
<title>Node1&#45;&gt;Node2</title>
<path fill="none" stroke="midnightblue" d="M218.48,-53.7C181.49,-43.51 127.9,-28.74 94.41,-19.52"/>
<polygon fill="midnightblue" stroke="midnightblue" points="217.87,-57.16 228.44,-56.44 219.73,-50.41 217.87,-57.16"/>
</g>
<!-- Node3 -->
<g id="node3" class="node">
<title>Node3</title>
<g id="a_node3"><a xlink:href="linearSolver_8c.html" target="_top" xlink:title="Contains the functions for solving the linear system of equations during implicit calculations.">
<polygon fill="white" stroke="black" points="145,-0.5 145,-19.5 258,-19.5 258,-0.5 145,-0.5"/>
<text text-anchor="middle" x="201.5" y="-7.5" font-family="Helvetica,sans-Serif" font-size="10.00">ccfd/src/linearSolver.c</text>
</a>
</g>
</g>
<!-- Node1&#45;&gt;Node3 -->
<g id="edge2" class="edge">
<title>Node1&#45;&gt;Node3</title>
<path fill="none" stroke="midnightblue" d="M242.59,-49.25C232.3,-39.67 219.53,-27.79 210.99,-19.83"/>
<polygon fill="midnightblue" stroke="midnightblue" points="240.48,-52.07 250.18,-56.32 245.25,-46.95 240.48,-52.07"/>
</g>
<!-- Node4 -->
<g id="node4" class="node">
<title>Node4</title>
<g id="a_node4"><a xlink:href="main_8c.html" target="_top" xlink:title="Contains the main function of ccfd">
<polygon fill="white" stroke="black" points="276.5,-0.5 276.5,-19.5 360.5,-19.5 360.5,-0.5 276.5,-0.5"/>
<text text-anchor="middle" x="318.5" y="-7.5" font-family="Helvetica,sans-Serif" font-size="10.00">ccfd/src/main.c</text>
</a>
</g>
</g>
<!-- Node1&#45;&gt;Node4 -->
<g id="edge3" class="edge">
<title>Node1&#45;&gt;Node4</title>
<path fill="none" stroke="midnightblue" d="M276.39,-49.54C286.91,-39.91 300.07,-27.87 308.85,-19.83"/>
<polygon fill="midnightblue" stroke="midnightblue" points="273.99,-46.99 268.98,-56.32 278.72,-52.15 273.99,-46.99"/>
</g>
<!-- Node5 -->
<g id="node5" class="node">
<title>Node5</title>
<g id="a_node5"><a xlink:href="timeDiscretization_8c.html" target="_top" xlink:title="Contains the functions for performing the time stepping process.">
<polygon fill="white" stroke="black" points="378.5,-0.5 378.5,-19.5 520.5,-19.5 520.5,-0.5 378.5,-0.5"/>
<text text-anchor="middle" x="449.5" y="-7.5" font-family="Helvetica,sans-Serif" font-size="10.00">ccfd/src/timeDiscretization.c</text>
</a>
</g>
</g>
<!-- Node1&#45;&gt;Node5 -->
<g id="edge4" class="edge">
<title>Node1&#45;&gt;Node5</title>
<path fill="none" stroke="midnightblue" d="M299.26,-53.7C335.12,-43.51 387.07,-28.74 419.53,-19.52"/>
<polygon fill="midnightblue" stroke="midnightblue" points="298.27,-50.34 289.61,-56.44 300.18,-57.08 298.27,-50.34"/>
</g>
</g>
</svg>
