<?xml version="1.0" encoding="UTF-8" standalone="no"?>
<!DOCTYPE svg PUBLIC "-//W3C//DTD SVG 1.1//EN"
 "http://www.w3.org/Graphics/SVG/1.1/DTD/svg11.dtd">
<!-- Generated by graphviz version 2.44.0 (0)
 -->
<!-- Title: ccfd/src/main.h Pages: 1 -->
<svg width="2137pt" height="252pt"
 viewBox="0.00 0.00 2136.79 252.00" xmlns="http://www.w3.org/2000/svg" xmlns:xlink="http://www.w3.org/1999/xlink">
<g id="graph0" class="graph" transform="scale(1 1) rotate(0) translate(4 248)">
<title>ccfd/src/main.h</title>
<polygon fill="white" stroke="transparent" points="-4,4 -4,-248 2132.79,-248 2132.79,4 -4,4"/>
<!-- Node1 -->
<g id="node1" class="node">
<title>Node1</title>
<g id="a_node1"><a xlink:title="Contains the global constants and definitions.">
<polygon fill="#bfbfbf" stroke="black" points="895.29,-224.5 895.29,-243.5 979.29,-243.5 979.29,-224.5 895.29,-224.5"/>
<text text-anchor="middle" x="937.29" y="-231.5" font-family="Helvetica,sans-Serif" font-size="10.00">ccfd/src/main.h</text>
</a>
</g>
</g>
<!-- Node2 -->
<g id="node2" class="node">
<title>Node2</title>
<g id="a_node2"><a xlink:href="analyze_8h.html" target="_top" xlink:title="Contains the structure definitions of wing_t and recordPoint_t">
<polygon fill="white" stroke="black" points="781.29,-56.5 781.29,-75.5 877.29,-75.5 877.29,-56.5 781.29,-56.5"/>
<text text-anchor="middle" x="829.29" y="-63.5" font-family="Helvetica,sans-Serif" font-size="10.00">ccfd/src/analyze.h</text>
</a>
</g>
</g>
<!-- Node1&#45;&gt;Node2 -->
<g id="edge1" class="edge">
<title>Node1&#45;&gt;Node2</title>
<path fill="none" stroke="midnightblue" d="M925.78,-215.31C902.75,-179.92 851.77,-101.56 834.86,-75.57"/>
<polygon fill="midnightblue" stroke="midnightblue" points="923.09,-217.6 931.48,-224.08 928.96,-213.78 923.09,-217.6"/>
</g>
<!-- Node5 -->
<g id="node5" class="node">
<title>Node5</title>
<g id="a_node5"><a xlink:href="output_8c.html" target="_top" xlink:title="Contains all functions used for writing flow solutions.">
<polygon fill="white" stroke="black" points="1714.79,-0.5 1714.79,-19.5 1803.79,-19.5 1803.79,-0.5 1714.79,-0.5"/>
<text text-anchor="middle" x="1759.29" y="-7.5" font-family="Helvetica,sans-Serif" font-size="10.00">ccfd/src/output.c</text>
</a>
</g>
</g>
<!-- Node1&#45;&gt;Node5 -->
<g id="edge57" class="edge">
<title>Node1&#45;&gt;Node5</title>
<path fill="none" stroke="midnightblue" d="M989.56,-232.92C1091.74,-231.89 1324.68,-225.25 1516.29,-188 1597.28,-172.26 1621.54,-172.75 1693.29,-132 1725.86,-113.5 1740.16,-109.81 1756.29,-76 1765.14,-57.44 1762.92,-32.42 1760.9,-19.5"/>
<polygon fill="midnightblue" stroke="midnightblue" points="989.48,-229.42 979.51,-233.01 989.54,-236.42 989.48,-229.42"/>
</g>
<!-- Node6 -->
<g id="node6" class="node">
<title>Node6</title>
<g id="a_node6"><a xlink:href="timeDiscretization_8c.html" target="_top" xlink:title="Contains the functions for performing the time stepping process.">
<polygon fill="white" stroke="black" points="653.29,-0.5 653.29,-19.5 795.29,-19.5 795.29,-0.5 653.29,-0.5"/>
<text text-anchor="middle" x="724.29" y="-7.5" font-family="Helvetica,sans-Serif" font-size="10.00">ccfd/src/timeDiscretization.c</text>
</a>
</g>
</g>
<!-- Node1&#45;&gt;Node6 -->
<g id="edge61" class="edge">
<title>Node1&#45;&gt;Node6</title>
<path fill="none" stroke="midnightblue" d="M884.94,-232.8C706.09,-230.89 124.31,-213.98 16.29,-76 10.81,-69 10.2,-62.48 16.29,-56 21.7,-50.23 474.64,-24.73 653.14,-14.89"/>
<polygon fill="midnightblue" stroke="midnightblue" points="885.11,-236.31 895.14,-232.9 885.18,-229.31 885.11,-236.31"/>
</g>
<!-- Node7 -->
<g id="node7" class="node">
<title>Node7</title>
<g id="a_node7"><a xlink:href="boundary_8h.html" target="_top" xlink:title="Contains the structure definition of a boundary.">
<polygon fill="white" stroke="black" points="707.79,-168.5 707.79,-187.5 810.79,-187.5 810.79,-168.5 707.79,-168.5"/>
<text text-anchor="middle" x="759.29" y="-175.5" font-family="Helvetica,sans-Serif" font-size="10.00">ccfd/src/boundary.h</text>
</a>
</g>
</g>
<!-- Node1&#45;&gt;Node7 -->
<g id="edge6" class="edge">
<title>Node1&#45;&gt;Node7</title>
<path fill="none" stroke="midnightblue" d="M899.17,-221.44C865.61,-211.26 817.51,-196.66 787.36,-187.52"/>
<polygon fill="midnightblue" stroke="midnightblue" points="898.5,-224.89 909.08,-224.44 900.53,-218.19 898.5,-224.89"/>
</g>
<!-- Node8 -->
<g id="node8" class="node">
<title>Node8</title>
<g id="a_node8"><a xlink:href="mesh_8h.html" target="_top" xlink:title="Contains the definitions of all structs for the mesh handling.">
<polygon fill="white" stroke="black" points="707.79,-112.5 707.79,-131.5 794.79,-131.5 794.79,-112.5 707.79,-112.5"/>
<text text-anchor="middle" x="751.29" y="-119.5" font-family="Helvetica,sans-Serif" font-size="10.00">ccfd/src/mesh.h</text>
</a>
</g>
</g>
<!-- Node1&#45;&gt;Node8 -->
<g id="edge30" class="edge">
<title>Node1&#45;&gt;Node8</title>
<path fill="none" stroke="midnightblue" d="M913.63,-219.01C874.59,-195.92 797.8,-150.51 765.81,-131.59"/>
<polygon fill="midnightblue" stroke="midnightblue" points="912.3,-222.29 922.69,-224.37 915.87,-216.27 912.3,-222.29"/>
</g>
<!-- Node9 -->
<g id="node9" class="node">
<title>Node9</title>
<g id="a_node9"><a xlink:href="boundary_8c.html" target="_top" xlink:title="Contains the functions for initializing and applying boundary conditions.">
<polygon fill="white" stroke="black" points="895.79,-56.5 895.79,-75.5 998.79,-75.5 998.79,-56.5 895.79,-56.5"/>
<text text-anchor="middle" x="947.29" y="-63.5" font-family="Helvetica,sans-Serif" font-size="10.00">ccfd/src/boundary.c</text>
</a>
</g>
</g>
<!-- Node1&#45;&gt;Node9 -->
<g id="edge42" class="edge">
<title>Node1&#45;&gt;Node9</title>
<path fill="none" stroke="midnightblue" d="M938.44,-213.93C940.6,-177.92 945.22,-101.23 946.77,-75.57"/>
<polygon fill="midnightblue" stroke="midnightblue" points="934.93,-213.88 937.82,-224.08 941.92,-214.3 934.93,-213.88"/>
</g>
<!-- Node10 -->
<g id="node10" class="node">
<title>Node10</title>
<g id="a_node10"><a xlink:href="exactFunction_8c.html" target="_top" xlink:title="Contains the exact function evaluation function.">
<polygon fill="white" stroke="black" points="639.29,-56.5 639.29,-75.5 763.29,-75.5 763.29,-56.5 639.29,-56.5"/>
<text text-anchor="middle" x="701.29" y="-63.5" font-family="Helvetica,sans-Serif" font-size="10.00">ccfd/src/exactFunction.c</text>
</a>
</g>
</g>
<!-- Node1&#45;&gt;Node10 -->
<g id="edge50" class="edge">
<title>Node1&#45;&gt;Node10</title>
<path fill="none" stroke="midnightblue" d="M884.91,-230.7C821.85,-226.71 721.52,-216.02 698.29,-188 670.79,-154.84 689.25,-97.2 697.7,-75.55"/>
<polygon fill="midnightblue" stroke="midnightblue" points="884.88,-234.21 895.07,-231.31 885.3,-227.22 884.88,-234.21"/>
</g>
<!-- Node11 -->
<g id="node11" class="node">
<title>Node11</title>
<g id="a_node11"><a xlink:href="finiteVolume_8c.html" target="_top" xlink:title="Finite volume time derivative functions.">
<polygon fill="white" stroke="black" points="1239.29,-56.5 1239.29,-75.5 1355.29,-75.5 1355.29,-56.5 1239.29,-56.5"/>
<text text-anchor="middle" x="1297.29" y="-63.5" font-family="Helvetica,sans-Serif" font-size="10.00">ccfd/src/finiteVolume.c</text>
</a>
</g>
</g>
<!-- Node1&#45;&gt;Node11 -->
<g id="edge51" class="edge">
<title>Node1&#45;&gt;Node11</title>
<path fill="none" stroke="midnightblue" d="M972.66,-221.03C997.01,-212.5 1029.95,-200.39 1058.29,-188 1144.78,-150.16 1244.39,-96.25 1281.92,-75.55"/>
<polygon fill="midnightblue" stroke="midnightblue" points="971.41,-217.76 963.11,-224.34 973.71,-224.37 971.41,-217.76"/>
</g>
<!-- Node12 -->
<g id="node12" class="node">
<title>Node12</title>
<g id="a_node12"><a xlink:href="fluxCalculation_8c.html" target="_top" xlink:title="Contains the flux calculation functions.">
<polygon fill="white" stroke="black" points="208.79,-0.5 208.79,-19.5 335.79,-19.5 335.79,-0.5 208.79,-0.5"/>
<text text-anchor="middle" x="272.29" y="-7.5" font-family="Helvetica,sans-Serif" font-size="10.00">ccfd/src/fluxCalculation.c</text>
</a>
</g>
</g>
<!-- Node1&#45;&gt;Node12 -->
<g id="edge52" class="edge">
<title>Node1&#45;&gt;Node12</title>
<path fill="none" stroke="midnightblue" d="M884.89,-231.64C741.53,-227.62 345.03,-214.36 217.29,-188 145.14,-173.11 122.95,-172.3 61.29,-132 26.81,-109.47 -18.27,-87.47 8.29,-56 33.44,-26.2 138.99,-16.13 208.77,-12.73"/>
<polygon fill="midnightblue" stroke="midnightblue" points="885.08,-235.15 895.17,-231.93 885.27,-228.15 885.08,-235.15"/>
</g>
<!-- Node13 -->
<g id="node13" class="node">
<title>Node13</title>
<g id="a_node13"><a xlink:href="linearSolver_8h.html" target="_top" xlink:title=" ">
<polygon fill="white" stroke="black" points="431.79,-56.5 431.79,-75.5 544.79,-75.5 544.79,-56.5 431.79,-56.5"/>
<text text-anchor="middle" x="488.29" y="-63.5" font-family="Helvetica,sans-Serif" font-size="10.00">ccfd/src/linearSolver.h</text>
</a>
</g>
</g>
<!-- Node1&#45;&gt;Node13 -->
<g id="edge53" class="edge">
<title>Node1&#45;&gt;Node13</title>
<path fill="none" stroke="midnightblue" d="M885.22,-229.48C832.97,-224.64 750.91,-213.42 684.29,-188 607.32,-158.63 527.31,-98.18 498.99,-75.68"/>
<polygon fill="midnightblue" stroke="midnightblue" points="884.99,-232.98 895.26,-230.37 885.6,-226 884.99,-232.98"/>
</g>
<!-- Node14 -->
<g id="node14" class="node">
<title>Node14</title>
<g id="a_node14"><a xlink:href="linearSolver_8c.html" target="_top" xlink:title="Contains the functions for solving the linear system of equations during implicit calculations.">
<polygon fill="white" stroke="black" points="1008.79,-0.5 1008.79,-19.5 1121.79,-19.5 1121.79,-0.5 1008.79,-0.5"/>
<text text-anchor="middle" x="1065.29" y="-7.5" font-family="Helvetica,sans-Serif" font-size="10.00">ccfd/src/linearSolver.c</text>
</a>
</g>
</g>
<!-- Node1&#45;&gt;Node14 -->
<g id="edge55" class="edge">
<title>Node1&#45;&gt;Node14</title>
<path fill="none" stroke="midnightblue" d="M989.77,-231.65C1154.03,-226.16 1652.55,-199.41 1740.29,-76 1745.44,-68.76 1746.36,-62.49 1740.29,-56 1719.27,-33.54 1280.6,-17.7 1121.93,-12.69"/>
<polygon fill="midnightblue" stroke="midnightblue" points="989.33,-228.16 979.45,-231.98 989.55,-235.16 989.33,-228.16"/>
</g>
<!-- Node15 -->
<g id="node15" class="node">
<title>Node15</title>
<g id="a_node15"><a xlink:href="initialCondition_8c.html" target="_top" xlink:title="Functions involving the initialization and application of initial conditions.">
<polygon fill="white" stroke="black" points="1093.79,-56.5 1093.79,-75.5 1220.79,-75.5 1220.79,-56.5 1093.79,-56.5"/>
<text text-anchor="middle" x="1157.29" y="-63.5" font-family="Helvetica,sans-Serif" font-size="10.00">ccfd/src/initialCondition.c</text>
</a>
</g>
</g>
<!-- Node1&#45;&gt;Node15 -->
<g id="edge54" class="edge">
<title>Node1&#45;&gt;Node15</title>
<path fill="none" stroke="midnightblue" d="M966.54,-220.1C1002.51,-203.29 1064.22,-171.37 1108.29,-132 1127.47,-114.86 1144.14,-89.24 1152.18,-75.86"/>
<polygon fill="midnightblue" stroke="midnightblue" points="964.74,-217.07 957.11,-224.43 967.66,-223.43 964.74,-217.07"/>
</g>
<!-- Node16 -->
<g id="node16" class="node">
<title>Node16</title>
<g id="a_node16"><a xlink:href="mesh_8c.html" target="_top" xlink:title="Contains all the functions for reading and creating meshes.">
<polygon fill="white" stroke="black" points="1373.79,-56.5 1373.79,-75.5 1460.79,-75.5 1460.79,-56.5 1373.79,-56.5"/>
<text text-anchor="middle" x="1417.29" y="-63.5" font-family="Helvetica,sans-Serif" font-size="10.00">ccfd/src/mesh.c</text>
</a>
</g>
</g>
<!-- Node1&#45;&gt;Node16 -->
<g id="edge56" class="edge">
<title>Node1&#45;&gt;Node16</title>
<path fill="none" stroke="midnightblue" d="M979.83,-221.79C1011.57,-213.18 1055.9,-200.67 1094.29,-188 1209.72,-149.9 1345.19,-96.14 1396.33,-75.51"/>
<polygon fill="midnightblue" stroke="midnightblue" points="978.74,-218.46 969.99,-224.44 980.56,-225.22 978.74,-218.46"/>
</g>
<!-- Node17 -->
<g id="node17" class="node">
<title>Node17</title>
<g id="a_node17"><a xlink:href="reconstruction_8c.html" target="_top" xlink:title="Contains the reconstruction and limiter functions.">
<polygon fill="white" stroke="black" points="25.79,-56.5 25.79,-75.5 150.79,-75.5 150.79,-56.5 25.79,-56.5"/>
<text text-anchor="middle" x="88.29" y="-63.5" font-family="Helvetica,sans-Serif" font-size="10.00">ccfd/src/reconstruction.c</text>
</a>
</g>
</g>
<!-- Node1&#45;&gt;Node17 -->
<g id="edge59" class="edge">
<title>Node1&#45;&gt;Node17</title>
<path fill="none" stroke="midnightblue" d="M884.97,-228.74C813,-222.4 679.61,-208.93 567.29,-188 394.22,-155.75 190.76,-97.43 116.89,-75.58"/>
<polygon fill="midnightblue" stroke="midnightblue" points="884.86,-232.24 895.13,-229.62 885.47,-225.27 884.86,-232.24"/>
</g>
<!-- Node18 -->
<g id="node18" class="node">
<title>Node18</title>
<g id="a_node18"><a xlink:href="source_8c.html" target="_top" xlink:title="Contains the functions for initializing and evaluating the source term.">
<polygon fill="white" stroke="black" points="245.29,-56.5 245.29,-75.5 337.29,-75.5 337.29,-56.5 245.29,-56.5"/>
<text text-anchor="middle" x="291.29" y="-63.5" font-family="Helvetica,sans-Serif" font-size="10.00">ccfd/src/source.c</text>
</a>
</g>
</g>
<!-- Node1&#45;&gt;Node18 -->
<g id="edge60" class="edge">
<title>Node1&#45;&gt;Node18</title>
<path fill="none" stroke="midnightblue" d="M885.05,-228.02C825.28,-221.64 724.76,-208.86 640.29,-188 512.34,-156.41 364.92,-97.57 311.74,-75.58"/>
<polygon fill="midnightblue" stroke="midnightblue" points="884.69,-231.5 895,-229.06 885.42,-224.54 884.69,-231.5"/>
</g>
<!-- Node19 -->
<g id="node19" class="node">
<title>Node19</title>
<g id="a_node19"><a xlink:href="readInTools_8h.html" target="_top" xlink:title=" ">
<polygon fill="white" stroke="black" points="1432.79,-112.5 1432.79,-131.5 1545.79,-131.5 1545.79,-112.5 1432.79,-112.5"/>
<text text-anchor="middle" x="1489.29" y="-119.5" font-family="Helvetica,sans-Serif" font-size="10.00">ccfd/src/readInTools.h</text>
</a>
</g>
</g>
<!-- Node1&#45;&gt;Node19 -->
<g id="edge31" class="edge">
<title>Node1&#45;&gt;Node19</title>
<path fill="none" stroke="midnightblue" d="M989.36,-230.7C1091.05,-225.74 1312.35,-212.43 1384.29,-188 1422.45,-175.04 1461.19,-146.06 1479.08,-131.58"/>
<polygon fill="midnightblue" stroke="midnightblue" points="989.14,-227.21 979.32,-231.18 989.48,-234.2 989.14,-227.21"/>
</g>
<!-- Node21 -->
<g id="node21" class="node">
<title>Node21</title>
<g id="a_node21"><a xlink:href="equationOfState_8h.html" target="_top" xlink:title=" ">
<polygon fill="white" stroke="black" points="965.29,-112.5 965.29,-131.5 1099.29,-131.5 1099.29,-112.5 965.29,-112.5"/>
<text text-anchor="middle" x="1032.29" y="-119.5" font-family="Helvetica,sans-Serif" font-size="10.00">ccfd/src/equationOfState.h</text>
</a>
</g>
</g>
<!-- Node1&#45;&gt;Node21 -->
<g id="edge43" class="edge">
<title>Node1&#45;&gt;Node21</title>
<path fill="none" stroke="midnightblue" d="M951.46,-216.59C971.94,-192.87 1009.08,-149.87 1024.87,-131.59"/>
<polygon fill="midnightblue" stroke="midnightblue" points="948.63,-214.51 944.74,-224.37 953.93,-219.09 948.63,-214.51"/>
</g>
<!-- Node22 -->
<g id="node22" class="node">
<title>Node22</title>
<g id="a_node22"><a xlink:href="equationOfState_8c.html" target="_top" xlink:title="Contains conversion functions between the different variable types.">
<polygon fill="white" stroke="black" points="1863.29,-168.5 1863.29,-187.5 1997.29,-187.5 1997.29,-168.5 1863.29,-168.5"/>
<text text-anchor="middle" x="1930.29" y="-175.5" font-family="Helvetica,sans-Serif" font-size="10.00">ccfd/src/equationOfState.c</text>
</a>
</g>
</g>
<!-- Node1&#45;&gt;Node22 -->
<g id="edge49" class="edge">
<title>Node1&#45;&gt;Node22</title>
<path fill="none" stroke="midnightblue" d="M989.63,-231.54C1129.38,-227.4 1522.85,-214.16 1849.29,-188 1853.8,-187.64 1858.45,-187.23 1863.13,-186.78"/>
<polygon fill="midnightblue" stroke="midnightblue" points="989.51,-228.04 979.62,-231.84 989.72,-235.04 989.51,-228.04"/>
</g>
<!-- Node23 -->
<g id="node23" class="node">
<title>Node23</title>
<g id="a_node23"><a xlink:href="readInTools_8c.html" target="_top" xlink:title="Provides functions for reading data from the .ini parameter file.">
<polygon fill="white" stroke="black" points="2015.79,-168.5 2015.79,-187.5 2128.79,-187.5 2128.79,-168.5 2015.79,-168.5"/>
<text text-anchor="middle" x="2072.29" y="-175.5" font-family="Helvetica,sans-Serif" font-size="10.00">ccfd/src/readInTools.c</text>
</a>
</g>
</g>
<!-- Node1&#45;&gt;Node23 -->
<g id="edge58" class="edge">
<title>Node1&#45;&gt;Node23</title>
<path fill="none" stroke="midnightblue" d="M989.6,-232.53C1144.9,-230.75 1616.74,-222.68 2006.29,-188 2009.28,-187.73 2012.35,-187.43 2015.44,-187.09"/>
<polygon fill="midnightblue" stroke="midnightblue" points="989.36,-229.03 979.4,-232.64 989.44,-236.03 989.36,-229.03"/>
</g>
<!-- Node3 -->
<g id="node3" class="node">
<title>Node3</title>
<g id="a_node3"><a xlink:href="analyze_8c.html" target="_top" xlink:title="Contains functions for analyzing flow results.">
<polygon fill="white" stroke="black" points="1348.29,-0.5 1348.29,-19.5 1444.29,-19.5 1444.29,-0.5 1348.29,-0.5"/>
<text text-anchor="middle" x="1396.29" y="-7.5" font-family="Helvetica,sans-Serif" font-size="10.00">ccfd/src/analyze.c</text>
</a>
</g>
</g>
<!-- Node2&#45;&gt;Node3 -->
<g id="edge2" class="edge">
<title>Node2&#45;&gt;Node3</title>
<path fill="none" stroke="midnightblue" d="M887.39,-55.94C1062.91,-34.66 1259.01,-20.2 1348,-14.15"/>
<polygon fill="midnightblue" stroke="midnightblue" points="886.96,-52.47 877.46,-57.16 887.81,-59.42 886.96,-52.47"/>
</g>
<!-- Node4 -->
<g id="node4" class="node">
<title>Node4</title>
<g id="a_node4"><a xlink:href="main_8c.html" target="_top" xlink:title="Contains the main function of ccfd">
<polygon fill="white" stroke="black" points="446.29,-0.5 446.29,-19.5 530.29,-19.5 530.29,-0.5 446.29,-0.5"/>
<text text-anchor="middle" x="488.29" y="-7.5" font-family="Helvetica,sans-Serif" font-size="10.00">ccfd/src/main.c</text>
</a>
</g>
</g>
<!-- Node2&#45;&gt;Node4 -->
<g id="edge3" class="edge">
<title>Node2&#45;&gt;Node4</title>
<path fill="none" stroke="midnightblue" d="M770.98,-55.77C702.64,-44.95 591.06,-27.27 530.54,-17.69"/>
<polygon fill="midnightblue" stroke="midnightblue" points="770.73,-59.27 781.15,-57.38 771.82,-52.36 770.73,-59.27"/>
</g>
<!-- Node2&#45;&gt;Node5 -->
<g id="edge4" class="edge">
<title>Node2&#45;&gt;Node5</title>
<path fill="none" stroke="midnightblue" d="M887.64,-56C1068.92,-38.18 1563.44,-18.46 1714.75,-12.67"/>
<polygon fill="midnightblue" stroke="midnightblue" points="887.04,-52.54 877.44,-57.03 887.74,-59.5 887.04,-52.54"/>
</g>
<!-- Node2&#45;&gt;Node6 -->
<g id="edge5" class="edge">
<title>Node2&#45;&gt;Node6</title>
<path fill="none" stroke="midnightblue" d="M803.48,-51.73C784.03,-41.73 757.94,-28.31 741.11,-19.65"/>
<polygon fill="midnightblue" stroke="midnightblue" points="801.92,-54.86 812.42,-56.32 805.12,-48.64 801.92,-54.86"/>
</g>
<!-- Node7&#45;&gt;Node2 -->
<g id="edge7" class="edge">
<title>Node7&#45;&gt;Node2</title>
<path fill="none" stroke="midnightblue" d="M777.41,-161.58C786.11,-153.46 796.16,-142.94 803.29,-132 815.36,-113.46 823.41,-88.43 827.05,-75.51"/>
<polygon fill="midnightblue" stroke="midnightblue" points="775.03,-159.02 769.92,-168.3 779.7,-164.23 775.03,-159.02"/>
</g>
<!-- Node7&#45;&gt;Node4 -->
<g id="edge29" class="edge">
<title>Node7&#45;&gt;Node4</title>
<path fill="none" stroke="midnightblue" d="M697.46,-174.55C571.93,-168.13 294.19,-146.15 236.29,-76 230.63,-69.14 230.58,-62.82 236.29,-56 262.57,-24.61 381.56,-15.09 446.19,-12.23"/>
<polygon fill="midnightblue" stroke="midnightblue" points="697.51,-178.05 707.67,-175.05 697.86,-171.06 697.51,-178.05"/>
</g>
<!-- Node7&#45;&gt;Node8 -->
<g id="edge8" class="edge">
<title>Node7&#45;&gt;Node8</title>
<path fill="none" stroke="midnightblue" d="M750.08,-158.4C748.08,-149.36 746.97,-138.94 747.45,-131.75"/>
<polygon fill="midnightblue" stroke="midnightblue" points="746.73,-159.4 752.8,-168.08 753.47,-157.51 746.73,-159.4"/>
</g>
<!-- Node7&#45;&gt;Node9 -->
<g id="edge27" class="edge">
<title>Node7&#45;&gt;Node9</title>
<path fill="none" stroke="midnightblue" d="M782.7,-163.3C822,-140.3 900.13,-94.59 932.6,-75.59"/>
<polygon fill="midnightblue" stroke="midnightblue" points="780.9,-160.3 774.04,-168.37 784.44,-166.34 780.9,-160.3"/>
</g>
<!-- Node7&#45;&gt;Node12 -->
<g id="edge28" class="edge">
<title>Node7&#45;&gt;Node12</title>
<path fill="none" stroke="midnightblue" d="M697.38,-175.71C587.58,-172.66 363.56,-162.76 292.29,-132 257.58,-117.02 243.9,-110.42 228.29,-76 218.38,-54.16 242.89,-31.63 259.18,-19.68"/>
<polygon fill="midnightblue" stroke="midnightblue" points="697.55,-179.22 707.64,-175.99 697.74,-172.22 697.55,-179.22"/>
</g>
<!-- Node8&#45;&gt;Node2 -->
<g id="edge10" class="edge">
<title>Node8&#45;&gt;Node2</title>
<path fill="none" stroke="midnightblue" d="M772.05,-106.62C786.3,-96.76 804.74,-83.99 816.79,-75.65"/>
<polygon fill="midnightblue" stroke="midnightblue" points="770.05,-103.75 763.82,-112.32 774.03,-109.51 770.05,-103.75"/>
</g>
<!-- Node8&#45;&gt;Node4 -->
<g id="edge22" class="edge">
<title>Node8&#45;&gt;Node4</title>
<path fill="none" stroke="midnightblue" d="M697.54,-121.81C613.6,-121.79 457.35,-116.19 422.29,-76 403.57,-54.55 442.29,-31.69 467.96,-19.62"/>
<polygon fill="midnightblue" stroke="midnightblue" points="697.66,-125.31 707.65,-121.78 697.64,-118.31 697.66,-125.31"/>
</g>
<!-- Node8&#45;&gt;Node6 -->
<g id="edge26" class="edge">
<title>Node8&#45;&gt;Node6</title>
<path fill="none" stroke="midnightblue" d="M697.39,-112.27C658.03,-104.66 609.51,-92.3 597.29,-76 574.71,-45.88 623.71,-28.61 667.26,-19.55"/>
<polygon fill="midnightblue" stroke="midnightblue" points="696.96,-115.75 707.43,-114.15 698.25,-108.87 696.96,-115.75"/>
</g>
<!-- Node8&#45;&gt;Node7 -->
<g id="edge9" class="edge">
<title>Node8&#45;&gt;Node7</title>
<path fill="none" stroke="midnightblue" d="M760.45,-141.4C762.46,-150.41 763.59,-160.85 763.13,-168.08"/>
<polygon fill="midnightblue" stroke="midnightblue" points="763.81,-140.42 757.71,-131.75 757.07,-142.33 763.81,-140.42"/>
</g>
<!-- Node8&#45;&gt;Node9 -->
<g id="edge11" class="edge">
<title>Node8&#45;&gt;Node9</title>
<path fill="none" stroke="midnightblue" d="M792.31,-109.7C829.3,-99.51 882.89,-84.74 916.38,-75.52"/>
<polygon fill="midnightblue" stroke="midnightblue" points="791.05,-106.41 782.34,-112.44 792.91,-113.16 791.05,-106.41"/>
</g>
<!-- Node8&#45;&gt;Node10 -->
<g id="edge12" class="edge">
<title>Node8&#45;&gt;Node10</title>
<path fill="none" stroke="midnightblue" d="M736.21,-104.72C727.4,-95.2 716.62,-83.56 709.39,-75.75"/>
<polygon fill="midnightblue" stroke="midnightblue" points="733.67,-107.12 743.03,-112.08 738.8,-102.37 733.67,-107.12"/>
</g>
<!-- Node8&#45;&gt;Node11 -->
<g id="edge13" class="edge">
<title>Node8&#45;&gt;Node11</title>
<path fill="none" stroke="midnightblue" d="M804.9,-116.62C893.39,-109.23 1075.52,-93.41 1229.29,-76 1232.48,-75.64 1235.76,-75.25 1239.07,-74.85"/>
<polygon fill="midnightblue" stroke="midnightblue" points="804.52,-113.14 794.84,-117.45 805.1,-120.11 804.52,-113.14"/>
</g>
<!-- Node8&#45;&gt;Node12 -->
<g id="edge14" class="edge">
<title>Node8&#45;&gt;Node12</title>
<path fill="none" stroke="midnightblue" d="M697.25,-118.71C629.84,-114.74 511.59,-104.09 414.29,-76 365.57,-61.94 312.26,-33.74 287.06,-19.56"/>
<polygon fill="midnightblue" stroke="midnightblue" points="697.44,-122.23 707.62,-119.29 697.83,-115.24 697.44,-122.23"/>
</g>
<!-- Node8&#45;&gt;Node13 -->
<g id="edge15" class="edge">
<title>Node8&#45;&gt;Node13</title>
<path fill="none" stroke="midnightblue" d="M699.71,-110.41C650,-100.2 575.76,-84.96 529.76,-75.52"/>
<polygon fill="midnightblue" stroke="midnightblue" points="699.11,-113.86 709.61,-112.44 700.52,-107 699.11,-113.86"/>
</g>
<!-- Node8&#45;&gt;Node14 -->
<g id="edge21" class="edge">
<title>Node8&#45;&gt;Node14</title>
<path fill="none" stroke="midnightblue" d="M697.64,-111.34C654.77,-101.36 605.62,-83.35 630.29,-56 655.17,-28.41 896.34,-16.7 1008.48,-12.72"/>
<polygon fill="midnightblue" stroke="midnightblue" points="696.99,-114.78 707.51,-113.53 698.5,-107.95 696.99,-114.78"/>
</g>
<!-- Node8&#45;&gt;Node15 -->
<g id="edge20" class="edge">
<title>Node8&#45;&gt;Node15</title>
<path fill="none" stroke="midnightblue" d="M805.24,-113.82C879.86,-103.9 1014.33,-86.01 1093.72,-75.45"/>
<polygon fill="midnightblue" stroke="midnightblue" points="804.57,-110.38 795.12,-115.17 805.5,-117.32 804.57,-110.38"/>
</g>
<!-- Node8&#45;&gt;Node16 -->
<g id="edge23" class="edge">
<title>Node8&#45;&gt;Node16</title>
<path fill="none" stroke="midnightblue" d="M805.11,-118.77C912,-113.96 1158.48,-100.97 1364.29,-76 1367.34,-75.63 1370.49,-75.2 1373.66,-74.75"/>
<polygon fill="midnightblue" stroke="midnightblue" points="804.74,-115.28 794.9,-119.22 805.05,-122.27 804.74,-115.28"/>
</g>
<!-- Node8&#45;&gt;Node17 -->
<g id="edge24" class="edge">
<title>Node8&#45;&gt;Node17</title>
<path fill="none" stroke="midnightblue" d="M697.61,-116.63C576.12,-106.73 280.56,-82.66 150.95,-72.1"/>
<polygon fill="midnightblue" stroke="midnightblue" points="697.53,-120.13 707.79,-117.46 698.1,-113.16 697.53,-120.13"/>
</g>
<!-- Node8&#45;&gt;Node18 -->
<g id="edge25" class="edge">
<title>Node8&#45;&gt;Node18</title>
<path fill="none" stroke="midnightblue" d="M697.33,-115.57C620.42,-107.68 474.87,-92.21 351.29,-76 346.8,-75.41 342.12,-74.77 337.45,-74.1"/>
<polygon fill="midnightblue" stroke="midnightblue" points="697.41,-119.09 707.72,-116.63 698.13,-112.13 697.41,-119.09"/>
</g>
<!-- Node13&#45;&gt;Node4 -->
<g id="edge18" class="edge">
<title>Node13&#45;&gt;Node4</title>
<path fill="none" stroke="midnightblue" d="M488.29,-45.8C488.29,-36.91 488.29,-26.78 488.29,-19.75"/>
<polygon fill="midnightblue" stroke="midnightblue" points="484.79,-46.08 488.29,-56.08 491.79,-46.08 484.79,-46.08"/>
</g>
<!-- Node13&#45;&gt;Node6 -->
<g id="edge19" class="edge">
<title>Node13&#45;&gt;Node6</title>
<path fill="none" stroke="midnightblue" d="M535.69,-54.15C580.28,-43.95 646.14,-28.88 687.07,-19.52"/>
<polygon fill="midnightblue" stroke="midnightblue" points="534.65,-50.8 525.68,-56.44 536.21,-57.62 534.65,-50.8"/>
</g>
<!-- Node13&#45;&gt;Node12 -->
<g id="edge16" class="edge">
<title>Node13&#45;&gt;Node12</title>
<path fill="none" stroke="midnightblue" d="M444.12,-53.96C403.33,-43.76 343.57,-28.82 306.35,-19.52"/>
<polygon fill="midnightblue" stroke="midnightblue" points="443.51,-57.41 454.06,-56.44 445.21,-50.62 443.51,-57.41"/>
</g>
<!-- Node13&#45;&gt;Node14 -->
<g id="edge17" class="edge">
<title>Node13&#45;&gt;Node14</title>
<path fill="none" stroke="midnightblue" d="M554.97,-58.76C669.5,-48.04 901.6,-26.32 1008.75,-16.29"/>
<polygon fill="midnightblue" stroke="midnightblue" points="554.56,-55.28 544.93,-59.7 555.21,-62.25 554.56,-55.28"/>
</g>
<!-- Node19&#45;&gt;Node3 -->
<g id="edge32" class="edge">
<title>Node19&#45;&gt;Node3</title>
<path fill="none" stroke="midnightblue" d="M1530.01,-109.21C1561.71,-97.93 1597.5,-79.23 1579.29,-56 1562.84,-35.01 1493.14,-22.51 1444.68,-16.19"/>
<polygon fill="midnightblue" stroke="midnightblue" points="1528.72,-105.95 1520.37,-112.46 1530.96,-112.58 1528.72,-105.95"/>
</g>
<!-- Node19&#45;&gt;Node4 -->
<g id="edge38" class="edge">
<title>Node19&#45;&gt;Node4</title>
<path fill="none" stroke="midnightblue" d="M1489,-101.83C1487.65,-86.8 1483.13,-66.7 1469.29,-56 1432.99,-27.95 690.1,-22.32 644.29,-20 605.68,-18.04 561.72,-15.48 530.32,-13.59"/>
<polygon fill="midnightblue" stroke="midnightblue" points="1485.52,-102.28 1489.52,-112.09 1492.51,-101.93 1485.52,-102.28"/>
</g>
<!-- Node19&#45;&gt;Node5 -->
<g id="edge40" class="edge">
<title>Node19&#45;&gt;Node5</title>
<path fill="none" stroke="midnightblue" d="M1556.22,-116.86C1621.18,-111.49 1713.75,-99.84 1740.29,-76 1756.55,-61.39 1759.21,-33.69 1759.45,-19.64"/>
<polygon fill="midnightblue" stroke="midnightblue" points="1555.74,-113.39 1546.04,-117.67 1556.29,-120.37 1555.74,-113.39"/>
</g>
<!-- Node19&#45;&gt;Node6 -->
<g id="edge41" class="edge">
<title>Node19&#45;&gt;Node6</title>
<path fill="none" stroke="midnightblue" d="M1500.69,-103.13C1508.37,-88.61 1515.13,-68.55 1503.29,-56 1491.21,-43.21 985.71,-21.54 795.59,-13.83"/>
<polygon fill="midnightblue" stroke="midnightblue" points="1497.45,-101.73 1495.45,-112.13 1503.5,-105.25 1497.45,-101.73"/>
</g>
<!-- Node19&#45;&gt;Node9 -->
<g id="edge33" class="edge">
<title>Node19&#45;&gt;Node9</title>
<path fill="none" stroke="midnightblue" d="M1422.31,-114.33C1312.84,-103.42 1097.94,-82.01 999.17,-72.17"/>
<polygon fill="midnightblue" stroke="midnightblue" points="1422.26,-117.84 1432.56,-115.35 1422.96,-110.87 1422.26,-117.84"/>
</g>
<!-- Node19&#45;&gt;Node11 -->
<g id="edge35" class="edge">
<title>Node19&#45;&gt;Node11</title>
<path fill="none" stroke="midnightblue" d="M1449.1,-109.7C1412.87,-99.51 1360.37,-84.74 1327.57,-75.52"/>
<polygon fill="midnightblue" stroke="midnightblue" points="1448.29,-113.11 1458.86,-112.44 1450.18,-106.37 1448.29,-113.11"/>
</g>
<!-- Node19&#45;&gt;Node14 -->
<g id="edge37" class="edge">
<title>Node19&#45;&gt;Node14</title>
<path fill="none" stroke="midnightblue" d="M1513.53,-106.83C1533.6,-93.37 1556.54,-72.76 1541.29,-56 1513.53,-25.49 1241.96,-15.23 1121.89,-12.17"/>
<polygon fill="midnightblue" stroke="midnightblue" points="1511.5,-103.98 1504.94,-112.3 1515.26,-109.88 1511.5,-103.98"/>
</g>
<!-- Node19&#45;&gt;Node15 -->
<g id="edge36" class="edge">
<title>Node19&#45;&gt;Node15</title>
<path fill="none" stroke="midnightblue" d="M1426.52,-110.79C1363.78,-100.59 1268.43,-85.08 1209.65,-75.52"/>
<polygon fill="midnightblue" stroke="midnightblue" points="1426.25,-114.29 1436.68,-112.44 1427.37,-107.38 1426.25,-114.29"/>
</g>
<!-- Node19&#45;&gt;Node16 -->
<g id="edge39" class="edge">
<title>Node19&#45;&gt;Node16</title>
<path fill="none" stroke="midnightblue" d="M1469.42,-106.1C1456.46,-96.38 1439.99,-84.03 1429.07,-75.83"/>
<polygon fill="midnightblue" stroke="midnightblue" points="1467.62,-109.12 1477.72,-112.32 1471.82,-103.52 1467.62,-109.12"/>
</g>
<!-- Node20 -->
<g id="node20" class="node">
<title>Node20</title>
<g id="a_node20"><a xlink:href="equation_8c.html" target="_top" xlink:title="Contains the function for initializing the physical constants.">
<polygon fill="white" stroke="black" points="1631.29,-56.5 1631.29,-75.5 1731.29,-75.5 1731.29,-56.5 1631.29,-56.5"/>
<text text-anchor="middle" x="1681.29" y="-63.5" font-family="Helvetica,sans-Serif" font-size="10.00">ccfd/src/equation.c</text>
</a>
</g>
</g>
<!-- Node19&#45;&gt;Node20 -->
<g id="edge34" class="edge">
<title>Node19&#45;&gt;Node20</title>
<path fill="none" stroke="midnightblue" d="M1529.47,-109.7C1565.71,-99.51 1618.2,-84.74 1651.01,-75.52"/>
<polygon fill="midnightblue" stroke="midnightblue" points="1528.39,-106.37 1519.71,-112.44 1530.28,-113.11 1528.39,-106.37"/>
</g>
<!-- Node21&#45;&gt;Node6 -->
<g id="edge48" class="edge">
<title>Node21&#45;&gt;Node6</title>
<path fill="none" stroke="midnightblue" d="M1030.13,-102.13C1027.39,-87.29 1021.21,-67.28 1007.29,-56 975.58,-30.33 868.36,-19.08 795.38,-14.31"/>
<polygon fill="midnightblue" stroke="midnightblue" points="1026.7,-102.87 1031.62,-112.25 1033.63,-101.85 1026.7,-102.87"/>
</g>
<!-- Node21&#45;&gt;Node9 -->
<g id="edge44" class="edge">
<title>Node21&#45;&gt;Node9</title>
<path fill="none" stroke="midnightblue" d="M1010.09,-106.9C994.51,-97 974.16,-84.07 960.91,-75.65"/>
<polygon fill="midnightblue" stroke="midnightblue" points="1008.31,-109.92 1018.63,-112.32 1012.07,-104.01 1008.31,-109.92"/>
</g>
<!-- Node21&#45;&gt;Node10 -->
<g id="edge45" class="edge">
<title>Node21&#45;&gt;Node10</title>
<path fill="none" stroke="midnightblue" d="M969.71,-110.79C907.16,-100.59 812.1,-85.08 753.49,-75.52"/>
<polygon fill="midnightblue" stroke="midnightblue" points="969.41,-114.29 979.84,-112.44 970.53,-107.38 969.41,-114.29"/>
</g>
<!-- Node21&#45;&gt;Node14 -->
<g id="edge47" class="edge">
<title>Node21&#45;&gt;Node14</title>
<path fill="none" stroke="midnightblue" d="M1037.78,-102.67C1045,-78.62 1057.37,-37.39 1062.71,-19.59"/>
<polygon fill="midnightblue" stroke="midnightblue" points="1034.4,-101.78 1034.88,-112.37 1041.1,-103.8 1034.4,-101.78"/>
</g>
<!-- Node21&#45;&gt;Node15 -->
<g id="edge46" class="edge">
<title>Node21&#45;&gt;Node15</title>
<path fill="none" stroke="midnightblue" d="M1061.53,-108.37C1084.94,-98.26 1117.13,-84.35 1137.57,-75.52"/>
<polygon fill="midnightblue" stroke="midnightblue" points="1059.89,-105.26 1052.09,-112.44 1062.66,-111.69 1059.89,-105.26"/>
</g>
</g>
</svg>
