<?xml version="1.0" encoding="UTF-8" standalone="no"?>
<!DOCTYPE svg PUBLIC "-//W3C//DTD SVG 1.1//EN"
 "http://www.w3.org/Graphics/SVG/1.1/DTD/svg11.dtd">
<!-- Generated by graphviz version 2.44.0 (0)
 -->
<!-- Title: ccfd/src/mesh.h Pages: 1 -->
<!--zoomable 196 -->
<svg id="main" version="1.1" xmlns="http://www.w3.org/2000/svg" xmlns:xlink="http://www.w3.org/1999/xlink" xml:space="preserve" onload="init(evt)">
<style type="text/css"><![CDATA[
.edge:hover path { stroke: red; }
.edge:hover polygon { stroke: red; fill: red; }
]]></style>
<script type="text/javascript"><![CDATA[
var edges = document.getElementsByTagName('g');
if (edges && edges.length) {
  for (var i=0;i<edges.length;i++) {
    if (edges[i].id.substr(0,4)=='edge') {
      edges[i].setAttribute('class','edge');
    }
  }
}
]]></script>
        <defs>
                <circle id="rim" cx="0" cy="0" r="7"/>
                <circle id="rim2" cx="0" cy="0" r="3.5"/>
                <g id="zoomPlus">
                        <use xlink:href="#rim" fill="#404040">
                                <set attributeName="fill" to="#808080" begin="zoomplus.mouseover" end="zoomplus.mouseout"/>
                        </use>
                        <path d="M-4,0h8M0,-4v8" fill="none" stroke="white" stroke-width="1.5" pointer-events="none"/>
                </g>
                <g id="zoomMin">
                        <use xlink:href="#rim" fill="#404040">
                                <set attributeName="fill" to="#808080" begin="zoomminus.mouseover" end="zoomminus.mouseout"/>
                        </use>
                        <path d="M-4,0h8" fill="none" stroke="white" stroke-width="1.5" pointer-events="none"/>
                </g>
                <g id="dirArrow">
                        <path fill="none" stroke="white" stroke-width="1.5" d="M0,-3.0v7 M-2.5,-0.5L0,-3.0L2.5,-0.5"/>
                </g>
               <g id="resetDef">
                       <use xlink:href="#rim2" fill="#404040">
                               <set attributeName="fill" to="#808080" begin="reset.mouseover" end="reset.mouseout"/>
                       </use>
               </g>
        </defs>

<script type="text/javascript">
var viewWidth = 1383;
var viewHeight = 196;
var sectionId = 'dynsection-1';
</script>
<script xlink:href="svgpan.js"/>
<svg id="graph" class="graph">
<g id="viewport">
<title>ccfd/src/mesh.h</title>
<polygon fill="white" stroke="transparent" points="-4,4 -4,-192 1379,-192 1379,4 -4,4"/>
<!-- Node1 -->
<g id="node1" class="node">
<title>Node1</title>
<g id="a_node1"><a xlink:title="Contains the definitions of all structs for the mesh handling.">
<polygon fill="#bfbfbf" stroke="black" points="555.5,-168.5 555.5,-187.5 642.5,-187.5 642.5,-168.5 555.5,-168.5"/>
<text text-anchor="middle" x="599" y="-175.5" font-family="Helvetica,sans-Serif" font-size="10.00">ccfd/src/mesh.h</text>
</a>
</g>
</g>
<!-- Node2 -->
<g id="node2" class="node">
<title>Node2</title>
<g id="a_node2"><a xlink:href="boundary_8h.html" target="_top" xlink:title="Contains the structure definition of a boundary.">
<polygon fill="white" stroke="black" points="207.5,-112.5 207.5,-131.5 310.5,-131.5 310.5,-112.5 207.5,-112.5"/>
<text text-anchor="middle" x="259" y="-119.5" font-family="Helvetica,sans-Serif" font-size="10.00">ccfd/src/boundary.h</text>
</a>
</g>
</g>
<!-- Node1&#45;&gt;Node2 -->
<g id="edge1" class="edge">
<title>Node1&#45;&gt;Node2</title>
<path fill="none" stroke="midnightblue" d="M545.05,-169.21C479.66,-159.21 370.61,-141.9 307.68,-131.54"/>
<polygon fill="midnightblue" stroke="midnightblue" points="544.74,-172.71 555.16,-170.75 545.8,-165.79 544.74,-172.71"/>
</g>
<!-- Node3 -->
<g id="node3" class="node">
<title>Node3</title>
<g id="a_node3"><a xlink:href="analyze_8h.html" target="_top" xlink:title="Contains the structure definitions of wing_t and recordPoint_t">
<polygon fill="white" stroke="black" points="55,-56.5 55,-75.5 151,-75.5 151,-56.5 55,-56.5"/>
<text text-anchor="middle" x="103" y="-63.5" font-family="Helvetica,sans-Serif" font-size="10.00">ccfd/src/analyze.h</text>
</a>
</g>
</g>
<!-- Node1&#45;&gt;Node3 -->
<g id="edge11" class="edge">
<title>Node1&#45;&gt;Node3</title>
<path fill="none" stroke="midnightblue" d="M545.11,-174.64C449.08,-169.85 252.48,-157.23 189,-132 156.3,-119.01 125.25,-90.04 111.06,-75.57"/>
<polygon fill="midnightblue" stroke="midnightblue" points="545.04,-178.14 555.2,-175.13 545.38,-171.15 545.04,-178.14"/>
</g>
<!-- Node5 -->
<g id="node5" class="node">
<title>Node5</title>
<g id="a_node5"><a xlink:href="main_8c.html" target="_top" xlink:title="Contains the main function of ccfd">
<polygon fill="white" stroke="black" points="278,-0.5 278,-19.5 362,-19.5 362,-0.5 278,-0.5"/>
<text text-anchor="middle" x="320" y="-7.5" font-family="Helvetica,sans-Serif" font-size="10.00">ccfd/src/main.c</text>
</a>
</g>
</g>
<!-- Node1&#45;&gt;Node5 -->
<g id="edge23" class="edge">
<title>Node1&#45;&gt;Node5</title>
<path fill="none" stroke="midnightblue" d="M544.95,-170.6C490.95,-163.31 412.51,-150.04 388,-132 348.02,-102.58 328.35,-42.16 322.19,-19.68"/>
<polygon fill="midnightblue" stroke="midnightblue" points="544.7,-174.1 555.07,-171.93 545.61,-167.16 544.7,-174.1"/>
</g>
<!-- Node7 -->
<g id="node7" class="node">
<title>Node7</title>
<g id="a_node7"><a xlink:href="timeDiscretization_8c.html" target="_top" xlink:title="Contains the functions for performing the time stepping process.">
<polygon fill="white" stroke="black" points="490,-0.5 490,-19.5 632,-19.5 632,-0.5 490,-0.5"/>
<text text-anchor="middle" x="561" y="-7.5" font-family="Helvetica,sans-Serif" font-size="10.00">ccfd/src/timeDiscretization.c</text>
</a>
</g>
</g>
<!-- Node1&#45;&gt;Node7 -->
<g id="edge27" class="edge">
<title>Node1&#45;&gt;Node7</title>
<path fill="none" stroke="midnightblue" d="M653.09,-173.64C711.6,-168.75 799.32,-157.32 820,-132 825.62,-125.12 822.86,-120.42 820,-112 795.13,-38.77 699.91,-17.64 632.16,-12.08"/>
<polygon fill="midnightblue" stroke="midnightblue" points="652.58,-170.17 642.89,-174.46 653.13,-177.15 652.58,-170.17"/>
</g>
<!-- Node8 -->
<g id="node8" class="node">
<title>Node8</title>
<g id="a_node8"><a xlink:href="boundary_8c.html" target="_top" xlink:title="Contains the functions for initializing and applying boundary conditions.">
<polygon fill="white" stroke="black" points="169.5,-56.5 169.5,-75.5 272.5,-75.5 272.5,-56.5 169.5,-56.5"/>
<text text-anchor="middle" x="221" y="-63.5" font-family="Helvetica,sans-Serif" font-size="10.00">ccfd/src/boundary.c</text>
</a>
</g>
</g>
<!-- Node1&#45;&gt;Node8 -->
<g id="edge12" class="edge">
<title>Node1&#45;&gt;Node8</title>
<path fill="none" stroke="midnightblue" d="M544.87,-174.85C440.93,-170.16 221.65,-157.34 199,-132 184.39,-115.66 202.15,-89.23 213.29,-75.65"/>
<polygon fill="midnightblue" stroke="midnightblue" points="545.01,-178.36 555.15,-175.3 545.32,-171.36 545.01,-178.36"/>
</g>
<!-- Node9 -->
<g id="node9" class="node">
<title>Node9</title>
<g id="a_node9"><a xlink:href="fluxCalculation_8c.html" target="_top" xlink:title="Contains the flux calculation functions.">
<polygon fill="white" stroke="black" points="367.5,-56.5 367.5,-75.5 494.5,-75.5 494.5,-56.5 367.5,-56.5"/>
<text text-anchor="middle" x="431" y="-63.5" font-family="Helvetica,sans-Serif" font-size="10.00">ccfd/src/fluxCalculation.c</text>
</a>
</g>
</g>
<!-- Node1&#45;&gt;Node9 -->
<g id="edge15" class="edge">
<title>Node1&#45;&gt;Node9</title>
<path fill="none" stroke="midnightblue" d="M545.18,-172.49C491.75,-166.77 415.26,-154.78 397,-132 382.5,-113.92 405.8,-88.69 420.49,-75.62"/>
<polygon fill="midnightblue" stroke="midnightblue" points="544.89,-175.98 555.2,-173.52 545.61,-169.02 544.89,-175.98"/>
</g>
<!-- Node10 -->
<g id="node10" class="node">
<title>Node10</title>
<g id="a_node10"><a xlink:href="exactFunction_8c.html" target="_top" xlink:title="Contains the exact function evaluation function.">
<polygon fill="white" stroke="black" points="537,-112.5 537,-131.5 661,-131.5 661,-112.5 537,-112.5"/>
<text text-anchor="middle" x="599" y="-119.5" font-family="Helvetica,sans-Serif" font-size="10.00">ccfd/src/exactFunction.c</text>
</a>
</g>
</g>
<!-- Node1&#45;&gt;Node10 -->
<g id="edge13" class="edge">
<title>Node1&#45;&gt;Node10</title>
<path fill="none" stroke="midnightblue" d="M599,-157.8C599,-148.91 599,-138.78 599,-131.75"/>
<polygon fill="midnightblue" stroke="midnightblue" points="595.5,-158.08 599,-168.08 602.5,-158.08 595.5,-158.08"/>
</g>
<!-- Node11 -->
<g id="node11" class="node">
<title>Node11</title>
<g id="a_node11"><a xlink:href="finiteVolume_8c.html" target="_top" xlink:title="Finite volume time derivative functions.">
<polygon fill="white" stroke="black" points="679,-112.5 679,-131.5 795,-131.5 795,-112.5 679,-112.5"/>
<text text-anchor="middle" x="737" y="-119.5" font-family="Helvetica,sans-Serif" font-size="10.00">ccfd/src/finiteVolume.c</text>
</a>
</g>
</g>
<!-- Node1&#45;&gt;Node11 -->
<g id="edge14" class="edge">
<title>Node1&#45;&gt;Node11</title>
<path fill="none" stroke="midnightblue" d="M630.25,-164.77C656.17,-154.63 692.36,-140.47 715.24,-131.52"/>
<polygon fill="midnightblue" stroke="midnightblue" points="628.9,-161.54 620.87,-168.44 631.45,-168.06 628.9,-161.54"/>
</g>
<!-- Node12 -->
<g id="node12" class="node">
<title>Node12</title>
<g id="a_node12"><a xlink:href="linearSolver_8h.html" target="_top" xlink:title=" ">
<polygon fill="white" stroke="black" points="405.5,-112.5 405.5,-131.5 518.5,-131.5 518.5,-112.5 405.5,-112.5"/>
<text text-anchor="middle" x="462" y="-119.5" font-family="Helvetica,sans-Serif" font-size="10.00">ccfd/src/linearSolver.h</text>
</a>
</g>
</g>
<!-- Node1&#45;&gt;Node12 -->
<g id="edge16" class="edge">
<title>Node1&#45;&gt;Node12</title>
<path fill="none" stroke="midnightblue" d="M567.98,-164.77C542.24,-154.63 506.31,-140.47 483.61,-131.52"/>
<polygon fill="midnightblue" stroke="midnightblue" points="566.71,-168.03 577.29,-168.44 569.27,-161.52 566.71,-168.03"/>
</g>
<!-- Node13 -->
<g id="node13" class="node">
<title>Node13</title>
<g id="a_node13"><a xlink:href="linearSolver_8c.html" target="_top" xlink:title="Contains the functions for solving the linear system of equations during implicit calculations.">
<polygon fill="white" stroke="black" points="654.5,-56.5 654.5,-75.5 767.5,-75.5 767.5,-56.5 654.5,-56.5"/>
<text text-anchor="middle" x="711" y="-63.5" font-family="Helvetica,sans-Serif" font-size="10.00">ccfd/src/linearSolver.c</text>
</a>
</g>
</g>
<!-- Node1&#45;&gt;Node13 -->
<g id="edge22" class="edge">
<title>Node1&#45;&gt;Node13</title>
<path fill="none" stroke="midnightblue" d="M652.67,-172.71C706.92,-167.12 785.33,-155.21 804,-132 824.8,-106.14 777.93,-86.16 743.46,-75.53"/>
<polygon fill="midnightblue" stroke="midnightblue" points="652.12,-169.25 642.51,-173.71 652.8,-176.21 652.12,-169.25"/>
</g>
<!-- Node14 -->
<g id="node14" class="node">
<title>Node14</title>
<g id="a_node14"><a xlink:href="initialCondition_8c.html" target="_top" xlink:title="Functions involving the initialization and application of initial conditions.">
<polygon fill="white" stroke="black" points="889.5,-112.5 889.5,-131.5 1016.5,-131.5 1016.5,-112.5 889.5,-112.5"/>
<text text-anchor="middle" x="953" y="-119.5" font-family="Helvetica,sans-Serif" font-size="10.00">ccfd/src/initialCondition.c</text>
</a>
</g>
</g>
<!-- Node1&#45;&gt;Node14 -->
<g id="edge21" class="edge">
<title>Node1&#45;&gt;Node14</title>
<path fill="none" stroke="midnightblue" d="M652.96,-168.77C718.98,-158.7 830.21,-141.73 897.11,-131.53"/>
<polygon fill="midnightblue" stroke="midnightblue" points="652.12,-165.36 642.76,-170.32 653.18,-172.28 652.12,-165.36"/>
</g>
<!-- Node15 -->
<g id="node15" class="node">
<title>Node15</title>
<g id="a_node15"><a xlink:href="mesh_8c.html" target="_top" xlink:title="Contains all the functions for reading and creating meshes.">
<polygon fill="white" stroke="black" points="1034.5,-112.5 1034.5,-131.5 1121.5,-131.5 1121.5,-112.5 1034.5,-112.5"/>
<text text-anchor="middle" x="1078" y="-119.5" font-family="Helvetica,sans-Serif" font-size="10.00">ccfd/src/mesh.c</text>
</a>
</g>
</g>
<!-- Node1&#45;&gt;Node15 -->
<g id="edge24" class="edge">
<title>Node1&#45;&gt;Node15</title>
<path fill="none" stroke="midnightblue" d="M652.73,-172.49C733.81,-165.43 892.18,-150.61 1026,-132 1028.72,-131.62 1031.52,-131.21 1034.34,-130.77"/>
<polygon fill="midnightblue" stroke="midnightblue" points="652.42,-169 642.76,-173.35 653.02,-175.98 652.42,-169"/>
</g>
<!-- Node16 -->
<g id="node16" class="node">
<title>Node16</title>
<g id="a_node16"><a xlink:href="reconstruction_8c.html" target="_top" xlink:title="Contains the reconstruction and limiter functions.">
<polygon fill="white" stroke="black" points="1139.5,-112.5 1139.5,-131.5 1264.5,-131.5 1264.5,-112.5 1139.5,-112.5"/>
<text text-anchor="middle" x="1202" y="-119.5" font-family="Helvetica,sans-Serif" font-size="10.00">ccfd/src/reconstruction.c</text>
</a>
</g>
</g>
<!-- Node1&#45;&gt;Node16 -->
<g id="edge25" class="edge">
<title>Node1&#45;&gt;Node16</title>
<path fill="none" stroke="midnightblue" d="M652.54,-173.21C748.54,-166.26 956.24,-150.46 1131,-132 1133.72,-131.71 1136.49,-131.41 1139.3,-131.09"/>
<polygon fill="midnightblue" stroke="midnightblue" points="652.23,-169.73 642.5,-173.94 652.73,-176.71 652.23,-169.73"/>
</g>
<!-- Node17 -->
<g id="node17" class="node">
<title>Node17</title>
<g id="a_node17"><a xlink:href="source_8c.html" target="_top" xlink:title="Contains the functions for initializing and evaluating the source term.">
<polygon fill="white" stroke="black" points="1283,-112.5 1283,-131.5 1375,-131.5 1375,-112.5 1283,-112.5"/>
<text text-anchor="middle" x="1329" y="-119.5" font-family="Helvetica,sans-Serif" font-size="10.00">ccfd/src/source.c</text>
</a>
</g>
</g>
<!-- Node1&#45;&gt;Node17 -->
<g id="edge26" class="edge">
<title>Node1&#45;&gt;Node17</title>
<path fill="none" stroke="midnightblue" d="M652.81,-175.16C767.38,-170.86 1043.74,-158.45 1274,-132 1276.88,-131.67 1279.85,-131.29 1282.83,-130.88"/>
<polygon fill="midnightblue" stroke="midnightblue" points="652.43,-171.67 642.56,-175.54 652.69,-178.67 652.43,-171.67"/>
</g>
<!-- Node2&#45;&gt;Node1 -->
<g id="edge7" class="edge">
<title>Node2&#45;&gt;Node1</title>
<path fill="none" stroke="midnightblue" d="M320.65,-131.97C388.43,-142.39 495.47,-159.4 555.19,-169.26"/>
<polygon fill="midnightblue" stroke="midnightblue" points="320.95,-128.47 310.53,-130.42 319.89,-135.39 320.95,-128.47"/>
</g>
<!-- Node2&#45;&gt;Node3 -->
<g id="edge2" class="edge">
<title>Node2&#45;&gt;Node3</title>
<path fill="none" stroke="midnightblue" d="M224.83,-109.17C195.46,-99 153.8,-84.59 127.6,-75.52"/>
<polygon fill="midnightblue" stroke="midnightblue" points="223.69,-112.48 234.28,-112.44 225.98,-105.86 223.69,-112.48"/>
</g>
<!-- Node2&#45;&gt;Node5 -->
<g id="edge10" class="edge">
<title>Node2&#45;&gt;Node5</title>
<path fill="none" stroke="midnightblue" d="M268.8,-103.32C282.09,-79.37 305.28,-37.55 315.24,-19.59"/>
<polygon fill="midnightblue" stroke="midnightblue" points="265.58,-101.93 263.79,-112.37 271.7,-105.32 265.58,-101.93"/>
</g>
<!-- Node2&#45;&gt;Node8 -->
<g id="edge8" class="edge">
<title>Node2&#45;&gt;Node8</title>
<path fill="none" stroke="midnightblue" d="M246.94,-103.86C240.36,-94.5 232.49,-83.33 227.16,-75.75"/>
<polygon fill="midnightblue" stroke="midnightblue" points="244.11,-105.92 252.73,-112.08 249.83,-101.89 244.11,-105.92"/>
</g>
<!-- Node2&#45;&gt;Node9 -->
<g id="edge9" class="edge">
<title>Node2&#45;&gt;Node9</title>
<path fill="none" stroke="midnightblue" d="M295.83,-109.44C328.26,-99.26 374.74,-84.66 403.87,-75.52"/>
<polygon fill="midnightblue" stroke="midnightblue" points="294.75,-106.11 286.25,-112.44 296.84,-112.79 294.75,-106.11"/>
</g>
<!-- Node4 -->
<g id="node4" class="node">
<title>Node4</title>
<g id="a_node4"><a xlink:href="analyze_8c.html" target="_top" xlink:title="Contains functions for analyzing flow results.">
<polygon fill="white" stroke="black" points="0,-0.5 0,-19.5 96,-19.5 96,-0.5 0,-0.5"/>
<text text-anchor="middle" x="48" y="-7.5" font-family="Helvetica,sans-Serif" font-size="10.00">ccfd/src/analyze.c</text>
</a>
</g>
</g>
<!-- Node3&#45;&gt;Node4 -->
<g id="edge3" class="edge">
<title>Node3&#45;&gt;Node4</title>
<path fill="none" stroke="midnightblue" d="M86.71,-49C76.96,-39.43 64.95,-27.64 56.91,-19.75"/>
<polygon fill="midnightblue" stroke="midnightblue" points="84.33,-51.57 93.92,-56.08 89.23,-46.58 84.33,-51.57"/>
</g>
<!-- Node3&#45;&gt;Node5 -->
<g id="edge4" class="edge">
<title>Node3&#45;&gt;Node5</title>
<path fill="none" stroke="midnightblue" d="M147.11,-54.02C188.1,-43.82 248.3,-28.84 285.78,-19.52"/>
<polygon fill="midnightblue" stroke="midnightblue" points="146.24,-50.63 137.38,-56.44 147.93,-57.43 146.24,-50.63"/>
</g>
<!-- Node6 -->
<g id="node6" class="node">
<title>Node6</title>
<g id="a_node6"><a xlink:href="output_8c.html" target="_top" xlink:title="Contains all functions used for writing flow solutions.">
<polygon fill="white" stroke="black" points="114.5,-0.5 114.5,-19.5 203.5,-19.5 203.5,-0.5 114.5,-0.5"/>
<text text-anchor="middle" x="159" y="-7.5" font-family="Helvetica,sans-Serif" font-size="10.00">ccfd/src/output.c</text>
</a>
</g>
</g>
<!-- Node3&#45;&gt;Node6 -->
<g id="edge5" class="edge">
<title>Node3&#45;&gt;Node6</title>
<path fill="none" stroke="midnightblue" d="M119.33,-49.25C129.26,-39.67 141.59,-27.79 149.84,-19.83"/>
<polygon fill="midnightblue" stroke="midnightblue" points="116.77,-46.86 112,-56.32 121.63,-51.9 116.77,-46.86"/>
</g>
<!-- Node3&#45;&gt;Node7 -->
<g id="edge6" class="edge">
<title>Node3&#45;&gt;Node7</title>
<path fill="none" stroke="midnightblue" d="M160.7,-56.04C160.8,-56.03 160.9,-56.01 161,-56 275.81,-40.64 409.63,-26.31 489.72,-18.11"/>
<polygon fill="midnightblue" stroke="midnightblue" points="160.51,-52.53 151.08,-57.38 161.47,-59.47 160.51,-52.53"/>
</g>
<!-- Node12&#45;&gt;Node5 -->
<g id="edge19" class="edge">
<title>Node12&#45;&gt;Node5</title>
<path fill="none" stroke="midnightblue" d="M482.73,-106.05C498.95,-92.53 516.79,-72.29 504,-56 486.69,-33.95 410.82,-21.31 362.07,-15.33"/>
<polygon fill="midnightblue" stroke="midnightblue" points="480.28,-103.53 474.57,-112.46 484.6,-109.04 480.28,-103.53"/>
</g>
<!-- Node12&#45;&gt;Node7 -->
<g id="edge20" class="edge">
<title>Node12&#45;&gt;Node7</title>
<path fill="none" stroke="midnightblue" d="M493.87,-107.92C508.7,-100.46 525.55,-89.81 537,-76 550.97,-59.14 557.21,-33.4 559.65,-19.93"/>
<polygon fill="midnightblue" stroke="midnightblue" points="492.03,-104.92 484.49,-112.36 495.03,-111.24 492.03,-104.92"/>
</g>
<!-- Node12&#45;&gt;Node9 -->
<g id="edge17" class="edge">
<title>Node12&#45;&gt;Node9</title>
<path fill="none" stroke="midnightblue" d="M451.82,-103.27C446.53,-94.05 440.28,-83.17 436.02,-75.75"/>
<polygon fill="midnightblue" stroke="midnightblue" points="448.87,-105.15 456.88,-112.08 454.94,-101.67 448.87,-105.15"/>
</g>
<!-- Node12&#45;&gt;Node13 -->
<g id="edge18" class="edge">
<title>Node12&#45;&gt;Node13</title>
<path fill="none" stroke="midnightblue" d="M511.42,-110.28C558.48,-100.08 628.37,-84.92 671.73,-75.52"/>
<polygon fill="midnightblue" stroke="midnightblue" points="510.49,-106.9 501.45,-112.44 511.97,-113.74 510.49,-106.9"/>
</g>
</g>
</svg>
        <g id="navigator" transform="translate(0 0)" fill="#404254">
                <rect fill="#f2f5e9" fill-opacity="0.5" stroke="#606060" stroke-width=".5" x="0" y="0" width="60" height="60"/>
                <use id="zoomplus" xlink:href="#zoomPlus" x="17" y="9" onmousedown="handleZoom(evt,'in')"/>
                <use id="zoomminus" xlink:href="#zoomMin" x="42" y="9" onmousedown="handleZoom(evt,'out')"/>
                <use id="reset" xlink:href="#resetDef" x="30" y="36" onmousedown="handleReset()"/>
                <g id="arrowUp" xlink:href="#dirArrow" transform="translate(30 24)" onmousedown="handlePan(0,-1)">
                  <use xlink:href="#rim" fill="#404040">
                        <set attributeName="fill" to="#808080" begin="arrowUp.mouseover" end="arrowUp.mouseout"/>
                  </use>
                  <path fill="none" stroke="white" stroke-width="1.5" d="M0,-3.0v7 M-2.5,-0.5L0,-3.0L2.5,-0.5"/>
                </g>
                <g id="arrowRight" xlink:href="#dirArrow" transform="rotate(90) translate(36 -43)" onmousedown="handlePan(1,0)">
                  <use xlink:href="#rim" fill="#404040">
                        <set attributeName="fill" to="#808080" begin="arrowRight.mouseover" end="arrowRight.mouseout"/>
                  </use>
                  <path fill="none" stroke="white" stroke-width="1.5" d="M0,-3.0v7 M-2.5,-0.5L0,-3.0L2.5,-0.5"/>
                </g>
                <g id="arrowDown" xlink:href="#dirArrow" transform="rotate(180) translate(-30 -48)" onmousedown="handlePan(0,1)">
                  <use xlink:href="#rim" fill="#404040">
                        <set attributeName="fill" to="#808080" begin="arrowDown.mouseover" end="arrowDown.mouseout"/>
                  </use>
                  <path fill="none" stroke="white" stroke-width="1.5" d="M0,-3.0v7 M-2.5,-0.5L0,-3.0L2.5,-0.5"/>
                </g>
                <g id="arrowLeft" xlink:href="#dirArrow" transform="rotate(270) translate(-36 17)" onmousedown="handlePan(-1,0)">
                  <use xlink:href="#rim" fill="#404040">
                        <set attributeName="fill" to="#808080" begin="arrowLeft.mouseover" end="arrowLeft.mouseout"/>
                  </use>
                  <path fill="none" stroke="white" stroke-width="1.5" d="M0,-3.0v7 M-2.5,-0.5L0,-3.0L2.5,-0.5"/>
                </g>
        </g>
        <svg viewBox="0 0 15 15" width="100%" height="30px" preserveAspectRatio="xMaxYMin meet">
         <g id="arrow_out" transform="scale(0.3 0.3)">
          <a xlink:href="mesh_8h__dep__incl_org.svg" target="_base">
           <rect id="button" ry="5" rx="5" y="6" x="6" height="38" width="38"
                fill="#f2f5e9" fill-opacity="0.5" stroke="#606060" stroke-width="1.0"/>
           <path id="arrow"
             d="M 11.500037,31.436501 C 11.940474,20.09759 22.043105,11.32322 32.158766,21.979434 L 37.068811,17.246167 C 37.068811,17.246167 37.088388,32 37.088388,32 L 22.160133,31.978069 C 22.160133,31.978069 26.997745,27.140456 26.997745,27.140456 C 18.528582,18.264221 13.291696,25.230495 11.500037,31.436501 z"
             style="fill:#404040;"/>
          </a>
         </g>
        </svg>
</svg>
