<?xml version="1.0" encoding="UTF-8" standalone="no"?>
<!DOCTYPE svg PUBLIC "-//W3C//DTD SVG 1.1//EN"
 "http://www.w3.org/Graphics/SVG/1.1/DTD/svg11.dtd">
<!-- Generated by graphviz version 2.44.0 (0)
 -->
<!-- Title: ccfd/src/output.h Pages: 1 -->
<svg width="579pt" height="84pt"
 viewBox="0.00 0.00 579.00 84.00" xmlns="http://www.w3.org/2000/svg" xmlns:xlink="http://www.w3.org/1999/xlink">
<g id="graph0" class="graph" transform="scale(1 1) rotate(0) translate(4 80)">
<title>ccfd/src/output.h</title>
<polygon fill="white" stroke="transparent" points="-4,4 -4,-80 575,-80 575,4 -4,4"/>
<!-- Node1 -->
<g id="node1" class="node">
<title>Node1</title>
<g id="a_node1"><a xlink:title="Contains outputTime_t struct definition.">
<polygon fill="#bfbfbf" stroke="black" points="215.5,-56.5 215.5,-75.5 304.5,-75.5 304.5,-56.5 215.5,-56.5"/>
<text text-anchor="middle" x="260" y="-63.5" font-family="Helvetica,sans-Serif" font-size="10.00">ccfd/src/output.h</text>
</a>
</g>
</g>
<!-- Node2 -->
<g id="node2" class="node">
<title>Node2</title>
<g id="a_node2"><a xlink:href="analyze_8c.html" target="_top" xlink:title="Contains functions for analyzing flow results.">
<polygon fill="white" stroke="black" points="0,-0.5 0,-19.5 96,-19.5 96,-0.5 0,-0.5"/>
<text text-anchor="middle" x="48" y="-7.5" font-family="Helvetica,sans-Serif" font-size="10.00">ccfd/src/analyze.c</text>
</a>
</g>
</g>
<!-- Node1&#45;&gt;Node2 -->
<g id="edge1" class="edge">
<title>Node1&#45;&gt;Node2</title>
<path fill="none" stroke="midnightblue" d="M216.65,-53.96C176.61,-43.76 117.97,-28.82 81.43,-19.52"/>
<polygon fill="midnightblue" stroke="midnightblue" points="215.85,-57.37 226.41,-56.44 217.58,-50.58 215.85,-57.37"/>
</g>
<!-- Node3 -->
<g id="node3" class="node">
<title>Node3</title>
<g id="a_node3"><a xlink:href="main_8c.html" target="_top" xlink:title="Contains the main function of ccfd">
<polygon fill="white" stroke="black" points="114,-0.5 114,-19.5 198,-19.5 198,-0.5 114,-0.5"/>
<text text-anchor="middle" x="156" y="-7.5" font-family="Helvetica,sans-Serif" font-size="10.00">ccfd/src/main.c</text>
</a>
</g>
</g>
<!-- Node1&#45;&gt;Node3 -->
<g id="edge2" class="edge">
<title>Node1&#45;&gt;Node3</title>
<path fill="none" stroke="midnightblue" d="M234.17,-51.59C214.94,-41.61 189.26,-28.27 172.67,-19.65"/>
<polygon fill="midnightblue" stroke="midnightblue" points="232.8,-54.82 243.29,-56.32 236.03,-48.61 232.8,-54.82"/>
</g>
<!-- Node4 -->
<g id="node4" class="node">
<title>Node4</title>
<g id="a_node4"><a xlink:href="mesh_8c.html" target="_top" xlink:title="Contains all the functions for reading and creating meshes.">
<polygon fill="white" stroke="black" points="216.5,-0.5 216.5,-19.5 303.5,-19.5 303.5,-0.5 216.5,-0.5"/>
<text text-anchor="middle" x="260" y="-7.5" font-family="Helvetica,sans-Serif" font-size="10.00">ccfd/src/mesh.c</text>
</a>
</g>
</g>
<!-- Node1&#45;&gt;Node4 -->
<g id="edge3" class="edge">
<title>Node1&#45;&gt;Node4</title>
<path fill="none" stroke="midnightblue" d="M260,-45.8C260,-36.91 260,-26.78 260,-19.75"/>
<polygon fill="midnightblue" stroke="midnightblue" points="256.5,-46.08 260,-56.08 263.5,-46.08 256.5,-46.08"/>
</g>
<!-- Node5 -->
<g id="node5" class="node">
<title>Node5</title>
<g id="a_node5"><a xlink:href="output_8c.html" target="_top" xlink:title="Contains all functions used for writing flow solutions.">
<polygon fill="white" stroke="black" points="321.5,-0.5 321.5,-19.5 410.5,-19.5 410.5,-0.5 321.5,-0.5"/>
<text text-anchor="middle" x="366" y="-7.5" font-family="Helvetica,sans-Serif" font-size="10.00">ccfd/src/output.c</text>
</a>
</g>
</g>
<!-- Node1&#45;&gt;Node5 -->
<g id="edge4" class="edge">
<title>Node1&#45;&gt;Node5</title>
<path fill="none" stroke="midnightblue" d="M286.06,-51.73C305.68,-41.73 332.03,-28.31 349.01,-19.65"/>
<polygon fill="midnightblue" stroke="midnightblue" points="284.35,-48.67 277.03,-56.32 287.53,-54.9 284.35,-48.67"/>
</g>
<!-- Node6 -->
<g id="node6" class="node">
<title>Node6</title>
<g id="a_node6"><a xlink:href="timeDiscretization_8c.html" target="_top" xlink:title="Contains the functions for performing the time stepping process.">
<polygon fill="white" stroke="black" points="429,-0.5 429,-19.5 571,-19.5 571,-0.5 429,-0.5"/>
<text text-anchor="middle" x="500" y="-7.5" font-family="Helvetica,sans-Serif" font-size="10.00">ccfd/src/timeDiscretization.c</text>
</a>
</g>
</g>
<!-- Node1&#45;&gt;Node6 -->
<g id="edge5" class="edge">
<title>Node1&#45;&gt;Node6</title>
<path fill="none" stroke="midnightblue" d="M307.92,-54.22C353.27,-44.01 420.44,-28.9 462.15,-19.52"/>
<polygon fill="midnightblue" stroke="midnightblue" points="307.02,-50.83 298.03,-56.44 308.55,-57.66 307.02,-50.83"/>
</g>
</g>
</svg>
