<?xml version="1.0" encoding="UTF-8" standalone="no"?>
<!DOCTYPE svg PUBLIC "-//W3C//DTD SVG 1.1//EN"
 "http://www.w3.org/Graphics/SVG/1.1/DTD/svg11.dtd">
<!-- Generated by graphviz version 2.44.0 (0)
 -->
<!-- Title: ccfd/src/readInTools.h Pages: 1 -->
<svg width="1230pt" height="84pt"
 viewBox="0.00 0.00 1230.00 84.00" xmlns="http://www.w3.org/2000/svg" xmlns:xlink="http://www.w3.org/1999/xlink">
<g id="graph0" class="graph" transform="scale(1 1) rotate(0) translate(4 80)">
<title>ccfd/src/readInTools.h</title>
<polygon fill="white" stroke="transparent" points="-4,4 -4,-80 1226,-80 1226,4 -4,4"/>
<!-- Node1 -->
<g id="node1" class="node">
<title>Node1</title>
<g id="a_node1"><a xlink:title=" ">
<polygon fill="#bfbfbf" stroke="black" points="564.5,-56.5 564.5,-75.5 677.5,-75.5 677.5,-56.5 564.5,-56.5"/>
<text text-anchor="middle" x="621" y="-63.5" font-family="Helvetica,sans-Serif" font-size="10.00">ccfd/src/readInTools.h</text>
</a>
</g>
</g>
<!-- Node2 -->
<g id="node2" class="node">
<title>Node2</title>
<g id="a_node2"><a xlink:href="analyze_8c.html" target="_top" xlink:title="Contains functions for analyzing flow results.">
<polygon fill="white" stroke="black" points="0,-0.5 0,-19.5 96,-19.5 96,-0.5 0,-0.5"/>
<text text-anchor="middle" x="48" y="-7.5" font-family="Helvetica,sans-Serif" font-size="10.00">ccfd/src/analyze.c</text>
</a>
</g>
</g>
<!-- Node1&#45;&gt;Node2 -->
<g id="edge1" class="edge">
<title>Node1&#45;&gt;Node2</title>
<path fill="none" stroke="midnightblue" d="M554.26,-60.67C455.76,-53.94 265.77,-39.68 105,-20 102.12,-19.65 99.15,-19.26 96.17,-18.85"/>
<polygon fill="midnightblue" stroke="midnightblue" points="554.15,-64.17 564.36,-61.36 554.62,-57.19 554.15,-64.17"/>
</g>
<!-- Node3 -->
<g id="node3" class="node">
<title>Node3</title>
<g id="a_node3"><a xlink:href="boundary_8c.html" target="_top" xlink:title="Contains the functions for initializing and applying boundary conditions.">
<polygon fill="white" stroke="black" points="114.5,-0.5 114.5,-19.5 217.5,-19.5 217.5,-0.5 114.5,-0.5"/>
<text text-anchor="middle" x="166" y="-7.5" font-family="Helvetica,sans-Serif" font-size="10.00">ccfd/src/boundary.c</text>
</a>
</g>
</g>
<!-- Node1&#45;&gt;Node3 -->
<g id="edge2" class="edge">
<title>Node1&#45;&gt;Node3</title>
<path fill="none" stroke="midnightblue" d="M554.27,-58.05C475.84,-49.73 341.82,-35.02 227,-20 223.92,-19.6 220.76,-19.17 217.57,-18.73"/>
<polygon fill="midnightblue" stroke="midnightblue" points="554.18,-61.56 564.49,-59.13 554.92,-54.6 554.18,-61.56"/>
</g>
<!-- Node4 -->
<g id="node4" class="node">
<title>Node4</title>
<g id="a_node4"><a xlink:href="equation_8c.html" target="_top" xlink:title="Contains the function for initializing the physical constants.">
<polygon fill="white" stroke="black" points="236,-0.5 236,-19.5 336,-19.5 336,-0.5 236,-0.5"/>
<text text-anchor="middle" x="286" y="-7.5" font-family="Helvetica,sans-Serif" font-size="10.00">ccfd/src/equation.c</text>
</a>
</g>
</g>
<!-- Node1&#45;&gt;Node4 -->
<g id="edge3" class="edge">
<title>Node1&#45;&gt;Node4</title>
<path fill="none" stroke="midnightblue" d="M557.91,-54.83C493.63,-44.47 395.23,-28.61 336.1,-19.08"/>
<polygon fill="midnightblue" stroke="midnightblue" points="557.49,-58.31 567.92,-56.44 558.6,-51.4 557.49,-58.31"/>
</g>
<!-- Node5 -->
<g id="node5" class="node">
<title>Node5</title>
<g id="a_node5"><a xlink:href="finiteVolume_8c.html" target="_top" xlink:title="Finite volume time derivative functions.">
<polygon fill="white" stroke="black" points="354,-0.5 354,-19.5 470,-19.5 470,-0.5 354,-0.5"/>
<text text-anchor="middle" x="412" y="-7.5" font-family="Helvetica,sans-Serif" font-size="10.00">ccfd/src/finiteVolume.c</text>
</a>
</g>
</g>
<!-- Node1&#45;&gt;Node5 -->
<g id="edge4" class="edge">
<title>Node1&#45;&gt;Node5</title>
<path fill="none" stroke="midnightblue" d="M578.02,-53.89C538.55,-43.7 480.9,-28.8 444.96,-19.52"/>
<polygon fill="midnightblue" stroke="midnightblue" points="577.33,-57.33 587.88,-56.44 579.08,-50.55 577.33,-57.33"/>
</g>
<!-- Node6 -->
<g id="node6" class="node">
<title>Node6</title>
<g id="a_node6"><a xlink:href="initialCondition_8c.html" target="_top" xlink:title="Functions involving the initialization and application of initial conditions.">
<polygon fill="white" stroke="black" points="488.5,-0.5 488.5,-19.5 615.5,-19.5 615.5,-0.5 488.5,-0.5"/>
<text text-anchor="middle" x="552" y="-7.5" font-family="Helvetica,sans-Serif" font-size="10.00">ccfd/src/initialCondition.c</text>
</a>
</g>
</g>
<!-- Node1&#45;&gt;Node6 -->
<g id="edge5" class="edge">
<title>Node1&#45;&gt;Node6</title>
<path fill="none" stroke="midnightblue" d="M601.96,-50.1C589.54,-40.38 573.76,-28.03 563.29,-19.83"/>
<polygon fill="midnightblue" stroke="midnightblue" points="599.88,-52.92 609.91,-56.32 604.2,-47.4 599.88,-52.92"/>
</g>
<!-- Node7 -->
<g id="node7" class="node">
<title>Node7</title>
<g id="a_node7"><a xlink:href="linearSolver_8c.html" target="_top" xlink:title="Contains the functions for solving the linear system of equations during implicit calculations.">
<polygon fill="white" stroke="black" points="633.5,-0.5 633.5,-19.5 746.5,-19.5 746.5,-0.5 633.5,-0.5"/>
<text text-anchor="middle" x="690" y="-7.5" font-family="Helvetica,sans-Serif" font-size="10.00">ccfd/src/linearSolver.c</text>
</a>
</g>
</g>
<!-- Node1&#45;&gt;Node7 -->
<g id="edge6" class="edge">
<title>Node1&#45;&gt;Node7</title>
<path fill="none" stroke="midnightblue" d="M640.04,-50.1C652.46,-40.38 668.24,-28.03 678.71,-19.83"/>
<polygon fill="midnightblue" stroke="midnightblue" points="637.8,-47.4 632.09,-56.32 642.12,-52.92 637.8,-47.4"/>
</g>
<!-- Node8 -->
<g id="node8" class="node">
<title>Node8</title>
<g id="a_node8"><a xlink:href="main_8c.html" target="_top" xlink:title="Contains the main function of ccfd">
<polygon fill="white" stroke="black" points="765,-0.5 765,-19.5 849,-19.5 849,-0.5 765,-0.5"/>
<text text-anchor="middle" x="807" y="-7.5" font-family="Helvetica,sans-Serif" font-size="10.00">ccfd/src/main.c</text>
</a>
</g>
</g>
<!-- Node1&#45;&gt;Node8 -->
<g id="edge7" class="edge">
<title>Node1&#45;&gt;Node8</title>
<path fill="none" stroke="midnightblue" d="M660.38,-53.57C695.47,-43.38 746.02,-28.7 777.67,-19.52"/>
<polygon fill="midnightblue" stroke="midnightblue" points="659.1,-50.29 650.47,-56.44 661.05,-57.02 659.1,-50.29"/>
</g>
<!-- Node9 -->
<g id="node9" class="node">
<title>Node9</title>
<g id="a_node9"><a xlink:href="mesh_8c.html" target="_top" xlink:title="Contains all the functions for reading and creating meshes.">
<polygon fill="white" stroke="black" points="867.5,-0.5 867.5,-19.5 954.5,-19.5 954.5,-0.5 867.5,-0.5"/>
<text text-anchor="middle" x="911" y="-7.5" font-family="Helvetica,sans-Serif" font-size="10.00">ccfd/src/mesh.c</text>
</a>
</g>
</g>
<!-- Node1&#45;&gt;Node9 -->
<g id="edge8" class="edge">
<title>Node1&#45;&gt;Node9</title>
<path fill="none" stroke="midnightblue" d="M676.97,-54.58C732.46,-44.25 816.34,-28.63 867.16,-19.16"/>
<polygon fill="midnightblue" stroke="midnightblue" points="676.14,-51.17 666.95,-56.44 677.42,-58.05 676.14,-51.17"/>
</g>
<!-- Node10 -->
<g id="node10" class="node">
<title>Node10</title>
<g id="a_node10"><a xlink:href="output_8c.html" target="_top" xlink:title="Contains all functions used for writing flow solutions.">
<polygon fill="white" stroke="black" points="972.5,-0.5 972.5,-19.5 1061.5,-19.5 1061.5,-0.5 972.5,-0.5"/>
<text text-anchor="middle" x="1017" y="-7.5" font-family="Helvetica,sans-Serif" font-size="10.00">ccfd/src/output.c</text>
</a>
</g>
</g>
<!-- Node1&#45;&gt;Node10 -->
<g id="edge9" class="edge">
<title>Node1&#45;&gt;Node10</title>
<path fill="none" stroke="midnightblue" d="M687.86,-56.99C757.06,-48.51 868.25,-34.41 964,-20 966.77,-19.58 969.62,-19.14 972.49,-18.68"/>
<polygon fill="midnightblue" stroke="midnightblue" points="687.04,-53.56 677.54,-58.25 687.89,-60.51 687.04,-53.56"/>
</g>
<!-- Node11 -->
<g id="node11" class="node">
<title>Node11</title>
<g id="a_node11"><a xlink:href="timeDiscretization_8c.html" target="_top" xlink:title="Contains the functions for performing the time stepping process.">
<polygon fill="white" stroke="black" points="1080,-0.5 1080,-19.5 1222,-19.5 1222,-0.5 1080,-0.5"/>
<text text-anchor="middle" x="1151" y="-7.5" font-family="Helvetica,sans-Serif" font-size="10.00">ccfd/src/timeDiscretization.c</text>
</a>
</g>
</g>
<!-- Node1&#45;&gt;Node11 -->
<g id="edge10" class="edge">
<title>Node1&#45;&gt;Node11</title>
<path fill="none" stroke="midnightblue" d="M687.96,-58.57C775.89,-50.05 935.07,-34.44 1071,-20 1073.92,-19.69 1076.9,-19.37 1079.9,-19.04"/>
<polygon fill="midnightblue" stroke="midnightblue" points="687.47,-55.1 677.85,-59.54 688.14,-62.06 687.47,-55.1"/>
</g>
</g>
</svg>
