<?xml version="1.0" encoding="UTF-8" standalone="no"?>
<!DOCTYPE svg PUBLIC "-//W3C//DTD SVG 1.1//EN"
 "http://www.w3.org/Graphics/SVG/1.1/DTD/svg11.dtd">
<!-- Generated by graphviz version 2.44.0 (0)
 -->
<!-- Title: ccfd/src/timeDiscretization.h Pages: 1 -->
<svg width="990pt" height="84pt"
 viewBox="0.00 0.00 990.00 84.00" xmlns="http://www.w3.org/2000/svg" xmlns:xlink="http://www.w3.org/1999/xlink">
<g id="graph0" class="graph" transform="scale(1 1) rotate(0) translate(4 80)">
<title>ccfd/src/timeDiscretization.h</title>
<polygon fill="white" stroke="transparent" points="-4,4 -4,-80 986,-80 986,4 -4,4"/>
<!-- Node1 -->
<g id="node1" class="node">
<title>Node1</title>
<g id="a_node1"><a xlink:title=" ">
<polygon fill="#bfbfbf" stroke="black" points="437,-56.5 437,-75.5 579,-75.5 579,-56.5 437,-56.5"/>
<text text-anchor="middle" x="508" y="-63.5" font-family="Helvetica,sans-Serif" font-size="10.00">ccfd/src/timeDiscretization.h</text>
</a>
</g>
</g>
<!-- Node2 -->
<g id="node2" class="node">
<title>Node2</title>
<g id="a_node2"><a xlink:href="analyze_8c.html" target="_top" xlink:title="Contains functions for analyzing flow results.">
<polygon fill="white" stroke="black" points="0,-0.5 0,-19.5 96,-19.5 96,-0.5 0,-0.5"/>
<text text-anchor="middle" x="48" y="-7.5" font-family="Helvetica,sans-Serif" font-size="10.00">ccfd/src/analyze.c</text>
</a>
</g>
</g>
<!-- Node1&#45;&gt;Node2 -->
<g id="edge1" class="edge">
<title>Node1&#45;&gt;Node2</title>
<path fill="none" stroke="midnightblue" d="M426.71,-57.02C345.23,-48.76 216.23,-34.98 105,-20 102.12,-19.61 99.16,-19.2 96.18,-18.76"/>
<polygon fill="midnightblue" stroke="midnightblue" points="426.6,-60.52 436.9,-58.05 427.3,-53.56 426.6,-60.52"/>
</g>
<!-- Node3 -->
<g id="node3" class="node">
<title>Node3</title>
<g id="a_node3"><a xlink:href="finiteVolume_8c.html" target="_top" xlink:title="Finite volume time derivative functions.">
<polygon fill="white" stroke="black" points="114,-0.5 114,-19.5 230,-19.5 230,-0.5 114,-0.5"/>
<text text-anchor="middle" x="172" y="-7.5" font-family="Helvetica,sans-Serif" font-size="10.00">ccfd/src/finiteVolume.c</text>
</a>
</g>
</g>
<!-- Node1&#45;&gt;Node3 -->
<g id="edge2" class="edge">
<title>Node1&#45;&gt;Node3</title>
<path fill="none" stroke="midnightblue" d="M444.87,-54.85C381.38,-44.65 284.61,-29.1 224.99,-19.52"/>
<polygon fill="midnightblue" stroke="midnightblue" points="444.33,-58.31 454.76,-56.44 445.44,-51.4 444.33,-58.31"/>
</g>
<!-- Node4 -->
<g id="node4" class="node">
<title>Node4</title>
<g id="a_node4"><a xlink:href="initialCondition_8c.html" target="_top" xlink:title="Functions involving the initialization and application of initial conditions.">
<polygon fill="white" stroke="black" points="248.5,-0.5 248.5,-19.5 375.5,-19.5 375.5,-0.5 248.5,-0.5"/>
<text text-anchor="middle" x="312" y="-7.5" font-family="Helvetica,sans-Serif" font-size="10.00">ccfd/src/initialCondition.c</text>
</a>
</g>
</g>
<!-- Node1&#45;&gt;Node4 -->
<g id="edge3" class="edge">
<title>Node1&#45;&gt;Node4</title>
<path fill="none" stroke="midnightblue" d="M466.98,-53.7C429.99,-43.51 376.4,-28.74 342.91,-19.52"/>
<polygon fill="midnightblue" stroke="midnightblue" points="466.37,-57.16 476.94,-56.44 468.23,-50.41 466.37,-57.16"/>
</g>
<!-- Node5 -->
<g id="node5" class="node">
<title>Node5</title>
<g id="a_node5"><a xlink:href="linearSolver_8c.html" target="_top" xlink:title="Contains the functions for solving the linear system of equations during implicit calculations.">
<polygon fill="white" stroke="black" points="393.5,-0.5 393.5,-19.5 506.5,-19.5 506.5,-0.5 393.5,-0.5"/>
<text text-anchor="middle" x="450" y="-7.5" font-family="Helvetica,sans-Serif" font-size="10.00">ccfd/src/linearSolver.c</text>
</a>
</g>
</g>
<!-- Node1&#45;&gt;Node5 -->
<g id="edge4" class="edge">
<title>Node1&#45;&gt;Node5</title>
<path fill="none" stroke="midnightblue" d="M491.09,-49.25C480.8,-39.67 468.03,-27.79 459.49,-19.83"/>
<polygon fill="midnightblue" stroke="midnightblue" points="488.98,-52.07 498.68,-56.32 493.75,-46.95 488.98,-52.07"/>
</g>
<!-- Node6 -->
<g id="node6" class="node">
<title>Node6</title>
<g id="a_node6"><a xlink:href="main_8c.html" target="_top" xlink:title="Contains the main function of ccfd">
<polygon fill="white" stroke="black" points="525,-0.5 525,-19.5 609,-19.5 609,-0.5 525,-0.5"/>
<text text-anchor="middle" x="567" y="-7.5" font-family="Helvetica,sans-Serif" font-size="10.00">ccfd/src/main.c</text>
</a>
</g>
</g>
<!-- Node1&#45;&gt;Node6 -->
<g id="edge5" class="edge">
<title>Node1&#45;&gt;Node6</title>
<path fill="none" stroke="midnightblue" d="M524.89,-49.54C535.41,-39.91 548.57,-27.87 557.35,-19.83"/>
<polygon fill="midnightblue" stroke="midnightblue" points="522.49,-46.99 517.48,-56.32 527.22,-52.15 522.49,-46.99"/>
</g>
<!-- Node7 -->
<g id="node7" class="node">
<title>Node7</title>
<g id="a_node7"><a xlink:href="mesh_8c.html" target="_top" xlink:title="Contains all the functions for reading and creating meshes.">
<polygon fill="white" stroke="black" points="627.5,-0.5 627.5,-19.5 714.5,-19.5 714.5,-0.5 627.5,-0.5"/>
<text text-anchor="middle" x="671" y="-7.5" font-family="Helvetica,sans-Serif" font-size="10.00">ccfd/src/mesh.c</text>
</a>
</g>
</g>
<!-- Node1&#45;&gt;Node7 -->
<g id="edge6" class="edge">
<title>Node1&#45;&gt;Node7</title>
<path fill="none" stroke="midnightblue" d="M543.7,-53.17C574.4,-43 617.92,-28.59 645.29,-19.52"/>
<polygon fill="midnightblue" stroke="midnightblue" points="542.22,-49.98 533.83,-56.44 544.42,-56.62 542.22,-49.98"/>
</g>
<!-- Node8 -->
<g id="node8" class="node">
<title>Node8</title>
<g id="a_node8"><a xlink:href="output_8c.html" target="_top" xlink:title="Contains all functions used for writing flow solutions.">
<polygon fill="white" stroke="black" points="732.5,-0.5 732.5,-19.5 821.5,-19.5 821.5,-0.5 732.5,-0.5"/>
<text text-anchor="middle" x="777" y="-7.5" font-family="Helvetica,sans-Serif" font-size="10.00">ccfd/src/output.c</text>
</a>
</g>
</g>
<!-- Node1&#45;&gt;Node8 -->
<g id="edge7" class="edge">
<title>Node1&#45;&gt;Node8</title>
<path fill="none" stroke="midnightblue" d="M560.44,-54.47C611.28,-44.27 687.44,-28.98 734.58,-19.52"/>
<polygon fill="midnightblue" stroke="midnightblue" points="559.74,-51.04 550.62,-56.44 561.12,-57.91 559.74,-51.04"/>
</g>
<!-- Node9 -->
<g id="node9" class="node">
<title>Node9</title>
<g id="a_node9"><a xlink:href="timeDiscretization_8c.html" target="_top" xlink:title="Contains the functions for performing the time stepping process.">
<polygon fill="white" stroke="black" points="840,-0.5 840,-19.5 982,-19.5 982,-0.5 840,-0.5"/>
<text text-anchor="middle" x="911" y="-7.5" font-family="Helvetica,sans-Serif" font-size="10.00">ccfd/src/timeDiscretization.c</text>
</a>
</g>
</g>
<!-- Node1&#45;&gt;Node9 -->
<g id="edge8" class="edge">
<title>Node1&#45;&gt;Node9</title>
<path fill="none" stroke="midnightblue" d="M581.85,-55.1C657.95,-44.91 775.35,-29.18 847.44,-19.52"/>
<polygon fill="midnightblue" stroke="midnightblue" points="581.3,-51.65 571.86,-56.44 582.23,-58.58 581.3,-51.65"/>
</g>
</g>
</svg>
