<?xml version="1.0" encoding="UTF-8" standalone="no"?>
<!DOCTYPE svg PUBLIC "-//W3C//DTD SVG 1.1//EN"
 "http://www.w3.org/Graphics/SVG/1.1/DTD/svg11.dtd">
<!-- Generated by graphviz version 2.44.0 (0)
 -->
<!-- Title: ccfd/src/timeDiscretization.h Pages: 1 -->
<svg width="150pt" height="84pt"
 viewBox="0.00 0.00 150.00 84.00" xmlns="http://www.w3.org/2000/svg" xmlns:xlink="http://www.w3.org/1999/xlink">
<g id="graph0" class="graph" transform="scale(1 1) rotate(0) translate(4 80)">
<title>ccfd/src/timeDiscretization.h</title>
<polygon fill="white" stroke="transparent" points="-4,4 -4,-80 146,-80 146,4 -4,4"/>
<!-- Node1 -->
<g id="node1" class="node">
<title>Node1</title>
<g id="a_node1"><a xlink:title=" ">
<polygon fill="#bfbfbf" stroke="black" points="0,-56.5 0,-75.5 142,-75.5 142,-56.5 0,-56.5"/>
<text text-anchor="middle" x="71" y="-63.5" font-family="Helvetica,sans-Serif" font-size="10.00">ccfd/src/timeDiscretization.h</text>
</a>
</g>
</g>
<!-- Node2 -->
<g id="node2" class="node">
<title>Node2</title>
<g id="a_node2"><a xlink:title=" ">
<polygon fill="white" stroke="#bfbfbf" points="9,-0.5 9,-19.5 65,-19.5 65,-0.5 9,-0.5"/>
<text text-anchor="middle" x="37" y="-7.5" font-family="Helvetica,sans-Serif" font-size="10.00">stdbool.h</text>
</a>
</g>
</g>
<!-- Node1&#45;&gt;Node2 -->
<g id="edge1" class="edge">
<title>Node1&#45;&gt;Node2</title>
<path fill="none" stroke="midnightblue" d="M65.39,-56.08C60.63,-48.53 53.68,-37.49 47.85,-28.23"/>
<polygon fill="midnightblue" stroke="midnightblue" points="50.8,-26.35 42.51,-19.75 44.88,-30.08 50.8,-26.35"/>
</g>
<!-- Node3 -->
<g id="node3" class="node">
<title>Node3</title>
<g id="a_node3"><a xlink:title=" ">
<polygon fill="white" stroke="#bfbfbf" points="83,-0.5 83,-19.5 127,-19.5 127,-0.5 83,-0.5"/>
<text text-anchor="middle" x="105" y="-7.5" font-family="Helvetica,sans-Serif" font-size="10.00">time.h</text>
</a>
</g>
</g>
<!-- Node1&#45;&gt;Node3 -->
<g id="edge2" class="edge">
<title>Node1&#45;&gt;Node3</title>
<path fill="none" stroke="midnightblue" d="M76.61,-56.08C81.37,-48.53 88.32,-37.49 94.15,-28.23"/>
<polygon fill="midnightblue" stroke="midnightblue" points="97.12,-30.08 99.49,-19.75 91.2,-26.35 97.12,-30.08"/>
</g>
</g>
</svg>
