<?xml version="1.0" encoding="UTF-8" standalone="no"?>
<!DOCTYPE svg PUBLIC "-//W3C//DTD SVG 1.1//EN"
 "http://www.w3.org/Graphics/SVG/1.1/DTD/svg11.dtd">
<!-- Generated by graphviz version 2.42.3 (0)
 -->
<!-- Title: src/analyze.h Pages: 1 -->
<svg width="289pt" height="140pt"
 viewBox="0.00 0.00 288.50 140.00" xmlns="http://www.w3.org/2000/svg" xmlns:xlink="http://www.w3.org/1999/xlink">
<g id="graph0" class="graph" transform="scale(1 1) rotate(0) translate(4 136)">
<title>src/analyze.h</title>
<polygon fill="white" stroke="transparent" points="-4,4 -4,-136 284.5,-136 284.5,4 -4,4"/>
<!-- Node1 -->
<g id="node1" class="node">
<title>Node1</title>
<g id="a_node1"><a xlink:title="Contains the structure definitions of wing_t and recordPoint_t">
<polygon fill="#bfbfbf" stroke="black" points="113,-112.5 113,-131.5 187,-131.5 187,-112.5 113,-112.5"/>
<text text-anchor="middle" x="150" y="-119.5" font-family="Helvetica,sans-Serif" font-size="10.00">src/analyze.h</text>
</a>
</g>
</g>
<!-- Node2 -->
<g id="node2" class="node">
<title>Node2</title>
<g id="a_node2"><a xlink:title=" ">
<polygon fill="white" stroke="#bfbfbf" points="0,-56.5 0,-75.5 48,-75.5 48,-56.5 0,-56.5"/>
<text text-anchor="middle" x="24" y="-63.5" font-family="Helvetica,sans-Serif" font-size="10.00">stdlib.h</text>
</a>
</g>
</g>
<!-- Node1&#45;&gt;Node2 -->
<g id="edge1" class="edge">
<title>Node1&#45;&gt;Node2</title>
<path fill="none" stroke="midnightblue" d="M130.03,-112.44C109.39,-103.6 76.94,-89.69 53.37,-79.59"/>
<polygon fill="midnightblue" stroke="midnightblue" points="54.44,-76.24 43.87,-75.52 51.68,-82.67 54.44,-76.24"/>
</g>
<!-- Node3 -->
<g id="node3" class="node">
<title>Node3</title>
<g id="a_node3"><a xlink:title=" ">
<polygon fill="white" stroke="#bfbfbf" points="66,-56.5 66,-75.5 122,-75.5 122,-56.5 66,-56.5"/>
<text text-anchor="middle" x="94" y="-63.5" font-family="Helvetica,sans-Serif" font-size="10.00">stdbool.h</text>
</a>
</g>
</g>
<!-- Node1&#45;&gt;Node3 -->
<g id="edge2" class="edge">
<title>Node1&#45;&gt;Node3</title>
<path fill="none" stroke="midnightblue" d="M141,-112.32C132.81,-104.42 120.49,-92.55 110.53,-82.94"/>
<polygon fill="midnightblue" stroke="midnightblue" points="112.79,-80.26 103.16,-75.83 107.93,-85.29 112.79,-80.26"/>
</g>
<!-- Node4 -->
<g id="node4" class="node">
<title>Node4</title>
<g id="a_node4"><a xlink:href="main_8h.html" target="_top" xlink:title="Contains the global constants and definitions.">
<polygon fill="white" stroke="black" points="143,-0.5 143,-19.5 189,-19.5 189,-0.5 143,-0.5"/>
<text text-anchor="middle" x="166" y="-7.5" font-family="Helvetica,sans-Serif" font-size="10.00">main.h</text>
</a>
</g>
</g>
<!-- Node1&#45;&gt;Node4 -->
<g id="edge3" class="edge">
<title>Node1&#45;&gt;Node4</title>
<path fill="none" stroke="midnightblue" d="M151.26,-112.37C153.84,-94.62 159.79,-53.67 163.29,-29.6"/>
<polygon fill="midnightblue" stroke="midnightblue" points="166.77,-29.99 164.75,-19.59 159.85,-28.98 166.77,-29.99"/>
</g>
<!-- Node5 -->
<g id="node5" class="node">
<title>Node5</title>
<g id="a_node5"><a xlink:title=" ">
<polygon fill="white" stroke="#bfbfbf" points="215.5,-0.5 215.5,-19.5 280.5,-19.5 280.5,-0.5 215.5,-0.5"/>
<text text-anchor="middle" x="248" y="-7.5" font-family="Helvetica,sans-Serif" font-size="10.00">boundary.h</text>
</a>
</g>
</g>
<!-- Node1&#45;&gt;Node5 -->
<g id="edge4" class="edge">
<title>Node1&#45;&gt;Node5</title>
<path fill="none" stroke="midnightblue" d="M180.84,-112.46C199.66,-105.65 222.59,-94.17 236,-76 245.79,-62.73 248.37,-43.86 248.75,-29.88"/>
<polygon fill="midnightblue" stroke="midnightblue" points="252.25,-29.47 248.66,-19.5 245.25,-29.53 252.25,-29.47"/>
</g>
<!-- Node6 -->
<g id="node6" class="node">
<title>Node6</title>
<g id="a_node6"><a xlink:href="mesh_8h_source.html" target="_top" xlink:title=" ">
<polygon fill="white" stroke="black" points="178.5,-56.5 178.5,-75.5 227.5,-75.5 227.5,-56.5 178.5,-56.5"/>
<text text-anchor="middle" x="203" y="-63.5" font-family="Helvetica,sans-Serif" font-size="10.00">mesh.h</text>
</a>
</g>
</g>
<!-- Node1&#45;&gt;Node6 -->
<g id="edge5" class="edge">
<title>Node1&#45;&gt;Node6</title>
<path fill="none" stroke="midnightblue" d="M158.75,-112.08C166.47,-104.22 177.9,-92.57 187.22,-83.08"/>
<polygon fill="midnightblue" stroke="midnightblue" points="189.9,-85.34 194.41,-75.75 184.91,-80.44 189.9,-85.34"/>
</g>
<!-- Node6&#45;&gt;Node4 -->
<g id="edge6" class="edge">
<title>Node6&#45;&gt;Node4</title>
<path fill="none" stroke="midnightblue" d="M196.89,-56.08C191.72,-48.53 184.15,-37.49 177.81,-28.23"/>
<polygon fill="midnightblue" stroke="midnightblue" points="180.54,-26.02 172,-19.75 174.76,-29.98 180.54,-26.02"/>
</g>
<!-- Node6&#45;&gt;Node5 -->
<g id="edge7" class="edge">
<title>Node6&#45;&gt;Node5</title>
<path fill="none" stroke="midnightblue" d="M210.43,-56.08C216.85,-48.38 226.31,-37.03 234.12,-27.65"/>
<polygon fill="midnightblue" stroke="midnightblue" points="236.99,-29.67 240.71,-19.75 231.62,-25.19 236.99,-29.67"/>
</g>
</g>
</svg>
