<?xml version="1.0" encoding="UTF-8" standalone="no"?>
<!DOCTYPE svg PUBLIC "-//W3C//DTD SVG 1.1//EN"
 "http://www.w3.org/Graphics/SVG/1.1/DTD/svg11.dtd">
<!-- Generated by graphviz version 2.44.0 (0)
 -->
<!-- Title: src/analyze.c Pages: 1 -->
<svg width="1012pt" height="252pt"
 viewBox="0.00 0.00 1011.50 252.00" xmlns="http://www.w3.org/2000/svg" xmlns:xlink="http://www.w3.org/1999/xlink">
<g id="graph0" class="graph" transform="scale(1 1) rotate(0) translate(4 248)">
<title>src/analyze.c</title>
<polygon fill="white" stroke="transparent" points="-4,4 -4,-248 1007.5,-248 1007.5,4 -4,4"/>
<!-- Node1 -->
<g id="node1" class="node">
<title>Node1</title>
<g id="a_node1"><a xlink:title="Contains functions for analyzing flow results.">
<polygon fill="#bfbfbf" stroke="black" points="387,-224.5 387,-243.5 461,-243.5 461,-224.5 387,-224.5"/>
<text text-anchor="middle" x="424" y="-231.5" font-family="Helvetica,sans-Serif" font-size="10.00">src/analyze.c</text>
</a>
</g>
</g>
<!-- Node2 -->
<g id="node2" class="node">
<title>Node2</title>
<g id="a_node2"><a xlink:title=" ">
<polygon fill="white" stroke="#bfbfbf" points="0,-168.5 0,-187.5 46,-187.5 46,-168.5 0,-168.5"/>
<text text-anchor="middle" x="23" y="-175.5" font-family="Helvetica,sans-Serif" font-size="10.00">stdio.h</text>
</a>
</g>
</g>
<!-- Node1&#45;&gt;Node2 -->
<g id="edge1" class="edge">
<title>Node1&#45;&gt;Node2</title>
<path fill="none" stroke="midnightblue" d="M386.78,-230.35C321.57,-225.31 182.38,-212.72 56.16,-187.96"/>
<polygon fill="midnightblue" stroke="midnightblue" points="56.81,-184.52 46.32,-186 55.44,-191.39 56.81,-184.52"/>
</g>
<!-- Node3 -->
<g id="node3" class="node">
<title>Node3</title>
<g id="a_node3"><a xlink:title=" ">
<polygon fill="white" stroke="#bfbfbf" points="297,-112.5 297,-131.5 345,-131.5 345,-112.5 297,-112.5"/>
<text text-anchor="middle" x="321" y="-119.5" font-family="Helvetica,sans-Serif" font-size="10.00">stdlib.h</text>
</a>
</g>
</g>
<!-- Node1&#45;&gt;Node3 -->
<g id="edge2" class="edge">
<title>Node1&#45;&gt;Node3</title>
<path fill="none" stroke="midnightblue" d="M396.88,-224.44C378.67,-217.38 355.44,-205.63 341,-188 330.14,-174.74 325.16,-155.61 322.89,-141.54"/>
<polygon fill="midnightblue" stroke="midnightblue" points="326.35,-141.01 321.59,-131.54 319.41,-141.91 326.35,-141.01"/>
</g>
<!-- Node4 -->
<g id="node4" class="node">
<title>Node4</title>
<g id="a_node4"><a xlink:title=" ">
<polygon fill="white" stroke="#bfbfbf" points="140.5,-168.5 140.5,-187.5 189.5,-187.5 189.5,-168.5 140.5,-168.5"/>
<text text-anchor="middle" x="165" y="-175.5" font-family="Helvetica,sans-Serif" font-size="10.00">string.h</text>
</a>
</g>
</g>
<!-- Node1&#45;&gt;Node4 -->
<g id="edge3" class="edge">
<title>Node1&#45;&gt;Node4</title>
<path fill="none" stroke="midnightblue" d="M386.96,-225.72C343.19,-217.04 268.19,-201.97 204,-188 202.56,-187.69 201.09,-187.36 199.6,-187.03"/>
<polygon fill="midnightblue" stroke="midnightblue" points="200.26,-183.59 189.74,-184.81 198.72,-190.42 200.26,-183.59"/>
</g>
<!-- Node5 -->
<g id="node5" class="node">
<title>Node5</title>
<g id="a_node5"><a xlink:title=" ">
<polygon fill="white" stroke="#bfbfbf" points="345,-56.5 345,-75.5 401,-75.5 401,-56.5 345,-56.5"/>
<text text-anchor="middle" x="373" y="-63.5" font-family="Helvetica,sans-Serif" font-size="10.00">stdbool.h</text>
</a>
</g>
</g>
<!-- Node1&#45;&gt;Node5 -->
<g id="edge4" class="edge">
<title>Node1&#45;&gt;Node5</title>
<path fill="none" stroke="midnightblue" d="M461.27,-228.36C489.27,-223.04 526.8,-211.76 551,-188 576,-163.45 593.88,-139.38 572,-112 552.3,-87.34 463.58,-75.21 411.49,-70.11"/>
<polygon fill="midnightblue" stroke="midnightblue" points="411.56,-66.6 401.28,-69.15 410.91,-73.57 411.56,-66.6"/>
</g>
<!-- Node6 -->
<g id="node6" class="node">
<title>Node6</title>
<g id="a_node6"><a xlink:title=" ">
<polygon fill="white" stroke="#bfbfbf" points="246.5,-168.5 246.5,-187.5 293.5,-187.5 293.5,-168.5 246.5,-168.5"/>
<text text-anchor="middle" x="270" y="-175.5" font-family="Helvetica,sans-Serif" font-size="10.00">math.h</text>
</a>
</g>
</g>
<!-- Node1&#45;&gt;Node6 -->
<g id="edge5" class="edge">
<title>Node1&#45;&gt;Node6</title>
<path fill="none" stroke="midnightblue" d="M399.6,-224.44C373.58,-215.32 332.2,-200.81 303.22,-190.65"/>
<polygon fill="midnightblue" stroke="midnightblue" points="304.12,-187.26 293.53,-187.25 301.81,-193.86 304.12,-187.26"/>
</g>
<!-- Node7 -->
<g id="node7" class="node">
<title>Node7</title>
<g id="a_node7"><a xlink:href="analyze_8h.html" target="_top" xlink:title="Contains the structure definitions of wing_t and recordPoint_t">
<polygon fill="white" stroke="black" points="64,-168.5 64,-187.5 122,-187.5 122,-168.5 64,-168.5"/>
<text text-anchor="middle" x="93" y="-175.5" font-family="Helvetica,sans-Serif" font-size="10.00">analyze.h</text>
</a>
</g>
</g>
<!-- Node1&#45;&gt;Node7 -->
<g id="edge6" class="edge">
<title>Node1&#45;&gt;Node7</title>
<path fill="none" stroke="midnightblue" d="M386.83,-228.26C332.89,-221.18 229.58,-206.81 132.4,-188.15"/>
<polygon fill="midnightblue" stroke="midnightblue" points="132.89,-184.68 122.41,-186.21 131.56,-191.55 132.89,-184.68"/>
</g>
<!-- Node11 -->
<g id="node11" class="node">
<title>Node11</title>
<g id="a_node11"><a xlink:href="readInTools_8h.html" target="_top" xlink:title=" ">
<polygon fill="white" stroke="black" points="205,-112.5 205,-131.5 279,-131.5 279,-112.5 205,-112.5"/>
<text text-anchor="middle" x="242" y="-119.5" font-family="Helvetica,sans-Serif" font-size="10.00">readInTools.h</text>
</a>
</g>
</g>
<!-- Node1&#45;&gt;Node11 -->
<g id="edge17" class="edge">
<title>Node1&#45;&gt;Node11</title>
<path fill="none" stroke="midnightblue" d="M386.79,-229.42C337.68,-223.84 255.29,-211.21 237,-188 226.73,-174.96 229.86,-155.54 234.42,-141.32"/>
<polygon fill="midnightblue" stroke="midnightblue" points="237.81,-142.24 237.98,-131.65 231.24,-139.83 237.81,-142.24"/>
</g>
<!-- Node12 -->
<g id="node12" class="node">
<title>Node12</title>
<g id="a_node12"><a xlink:href="timeDiscretization_8h.html" target="_top" xlink:title=" ">
<polygon fill="white" stroke="black" points="420,-168.5 420,-187.5 524,-187.5 524,-168.5 420,-168.5"/>
<text text-anchor="middle" x="472" y="-175.5" font-family="Helvetica,sans-Serif" font-size="10.00">timeDiscretization.h</text>
</a>
</g>
</g>
<!-- Node1&#45;&gt;Node12 -->
<g id="edge20" class="edge">
<title>Node1&#45;&gt;Node12</title>
<path fill="none" stroke="midnightblue" d="M431.93,-224.08C438.85,-216.3 449.07,-204.8 457.45,-195.37"/>
<polygon fill="midnightblue" stroke="midnightblue" points="460.19,-197.55 464.22,-187.75 454.96,-192.9 460.19,-197.55"/>
</g>
<!-- Node14 -->
<g id="node14" class="node">
<title>Node14</title>
<g id="a_node14"><a xlink:href="output_8h.html" target="_top" xlink:title="Contains outputTime_t struct definition.">
<polygon fill="white" stroke="black" points="350.5,-168.5 350.5,-187.5 401.5,-187.5 401.5,-168.5 350.5,-168.5"/>
<text text-anchor="middle" x="376" y="-175.5" font-family="Helvetica,sans-Serif" font-size="10.00">output.h</text>
</a>
</g>
</g>
<!-- Node1&#45;&gt;Node14 -->
<g id="edge23" class="edge">
<title>Node1&#45;&gt;Node14</title>
<path fill="none" stroke="midnightblue" d="M416.07,-224.08C409.15,-216.3 398.93,-204.8 390.55,-195.37"/>
<polygon fill="midnightblue" stroke="midnightblue" points="393.04,-192.9 383.78,-187.75 387.81,-197.55 393.04,-192.9"/>
</g>
<!-- Node15 -->
<g id="node15" class="node">
<title>Node15</title>
<g id="a_node15"><a xlink:href="memTools_8h.html" target="_top" xlink:title=" ">
<polygon fill="white" stroke="black" points="826,-168.5 826,-187.5 896,-187.5 896,-168.5 826,-168.5"/>
<text text-anchor="middle" x="861" y="-175.5" font-family="Helvetica,sans-Serif" font-size="10.00">memTools.h</text>
</a>
</g>
</g>
<!-- Node1&#45;&gt;Node15 -->
<g id="edge26" class="edge">
<title>Node1&#45;&gt;Node15</title>
<path fill="none" stroke="midnightblue" d="M461.26,-229.83C529.53,-223.79 679.4,-209.43 815.77,-188.07"/>
<polygon fill="midnightblue" stroke="midnightblue" points="816.66,-191.47 825.99,-186.45 815.56,-184.56 816.66,-191.47"/>
</g>
<!-- Node17 -->
<g id="node17" class="node">
<title>Node17</title>
<g id="a_node17"><a xlink:href="reconstruction_8h.html" target="_top" xlink:title=" ">
<polygon fill="white" stroke="black" points="618,-168.5 618,-187.5 704,-187.5 704,-168.5 618,-168.5"/>
<text text-anchor="middle" x="661" y="-175.5" font-family="Helvetica,sans-Serif" font-size="10.00">reconstruction.h</text>
</a>
</g>
</g>
<!-- Node1&#45;&gt;Node17 -->
<g id="edge28" class="edge">
<title>Node1&#45;&gt;Node17</title>
<path fill="none" stroke="midnightblue" d="M461.03,-224.56C502.18,-215.19 568.74,-200.02 613.65,-189.79"/>
<polygon fill="midnightblue" stroke="midnightblue" points="614.47,-193.19 623.45,-187.56 612.92,-186.37 614.47,-193.19"/>
</g>
<!-- Node18 -->
<g id="node18" class="node">
<title>Node18</title>
<g id="a_node18"><a xlink:href="exactFunction_8h.html" target="_top" xlink:title=" ">
<polygon fill="white" stroke="black" points="722,-168.5 722,-187.5 808,-187.5 808,-168.5 722,-168.5"/>
<text text-anchor="middle" x="765" y="-175.5" font-family="Helvetica,sans-Serif" font-size="10.00">exactFunction.h</text>
</a>
</g>
</g>
<!-- Node1&#45;&gt;Node18 -->
<g id="edge29" class="edge">
<title>Node1&#45;&gt;Node18</title>
<path fill="none" stroke="midnightblue" d="M461.44,-227.38C514.74,-219.33 615.81,-203.89 711.99,-188.14"/>
<polygon fill="midnightblue" stroke="midnightblue" points="712.58,-191.59 721.88,-186.52 711.44,-184.69 712.58,-191.59"/>
</g>
<!-- Node19 -->
<g id="node19" class="node">
<title>Node19</title>
<g id="a_node19"><a xlink:href="equation_8h.html" target="_top" xlink:title=" ">
<polygon fill="white" stroke="black" points="501,-112.5 501,-131.5 563,-131.5 563,-112.5 501,-112.5"/>
<text text-anchor="middle" x="532" y="-119.5" font-family="Helvetica,sans-Serif" font-size="10.00">equation.h</text>
</a>
</g>
</g>
<!-- Node1&#45;&gt;Node19 -->
<g id="edge30" class="edge">
<title>Node1&#45;&gt;Node19</title>
<path fill="none" stroke="midnightblue" d="M461.04,-228.33C485.96,-223.05 517.06,-211.82 533,-188 542.01,-174.53 540.6,-155.72 537.62,-141.8"/>
<polygon fill="midnightblue" stroke="midnightblue" points="540.95,-140.69 535.07,-131.87 534.17,-142.43 540.95,-140.69"/>
</g>
<!-- Node20 -->
<g id="node20" class="node">
<title>Node20</title>
<g id="a_node20"><a xlink:href="initialCondition_8h.html" target="_top" xlink:title=" ">
<polygon fill="white" stroke="black" points="914.5,-168.5 914.5,-187.5 1003.5,-187.5 1003.5,-168.5 914.5,-168.5"/>
<text text-anchor="middle" x="959" y="-175.5" font-family="Helvetica,sans-Serif" font-size="10.00">initialCondition.h</text>
</a>
</g>
</g>
<!-- Node1&#45;&gt;Node20 -->
<g id="edge32" class="edge">
<title>Node1&#45;&gt;Node20</title>
<path fill="none" stroke="midnightblue" d="M461.22,-230.43C540.6,-224.76 732.61,-210 904.27,-188"/>
<polygon fill="midnightblue" stroke="midnightblue" points="904.78,-191.47 914.25,-186.71 903.88,-184.52 904.78,-191.47"/>
</g>
<!-- Node7&#45;&gt;Node3 -->
<g id="edge7" class="edge">
<title>Node7&#45;&gt;Node3</title>
<path fill="none" stroke="midnightblue" d="M122.04,-170.1C125.07,-169.39 128.09,-168.68 131,-168 197.72,-152.45 216.93,-149.65 287.11,-132.15"/>
<polygon fill="midnightblue" stroke="midnightblue" points="288.03,-135.53 296.88,-129.7 286.33,-128.74 288.03,-135.53"/>
</g>
<!-- Node7&#45;&gt;Node5 -->
<g id="edge8" class="edge">
<title>Node7&#45;&gt;Node5</title>
<path fill="none" stroke="midnightblue" d="M104.08,-168.34C122.28,-154.51 160.06,-127.45 196,-112 241.73,-92.34 297.95,-79.87 334.58,-73.16"/>
<polygon fill="midnightblue" stroke="midnightblue" points="335.6,-76.54 344.83,-71.35 334.37,-69.65 335.6,-76.54"/>
</g>
<!-- Node8 -->
<g id="node8" class="node">
<title>Node8</title>
<g id="a_node8"><a xlink:href="main_8h.html" target="_top" xlink:title="Contains the global constants and definitions.">
<polygon fill="white" stroke="black" points="96,-0.5 96,-19.5 142,-19.5 142,-0.5 96,-0.5"/>
<text text-anchor="middle" x="119" y="-7.5" font-family="Helvetica,sans-Serif" font-size="10.00">main.h</text>
</a>
</g>
</g>
<!-- Node7&#45;&gt;Node8 -->
<g id="edge9" class="edge">
<title>Node7&#45;&gt;Node8</title>
<path fill="none" stroke="midnightblue" d="M86.47,-168.38C71.85,-147.97 39.29,-95.42 59,-56 65.73,-42.54 78.61,-32.07 90.71,-24.62"/>
<polygon fill="midnightblue" stroke="midnightblue" points="92.73,-27.5 99.7,-19.52 89.28,-21.41 92.73,-27.5"/>
</g>
<!-- Node9 -->
<g id="node9" class="node">
<title>Node9</title>
<g id="a_node9"><a xlink:href="boundary_8h.html" target="_top" xlink:title="Contains the structure definition of a boundary.">
<polygon fill="white" stroke="black" points="83.5,-112.5 83.5,-131.5 148.5,-131.5 148.5,-112.5 83.5,-112.5"/>
<text text-anchor="middle" x="116" y="-119.5" font-family="Helvetica,sans-Serif" font-size="10.00">boundary.h</text>
</a>
</g>
</g>
<!-- Node7&#45;&gt;Node9 -->
<g id="edge10" class="edge">
<title>Node7&#45;&gt;Node9</title>
<path fill="none" stroke="midnightblue" d="M96.8,-168.08C99.91,-160.77 104.42,-150.18 108.29,-141.1"/>
<polygon fill="midnightblue" stroke="midnightblue" points="111.57,-142.32 112.27,-131.75 105.13,-139.58 111.57,-142.32"/>
</g>
<!-- Node10 -->
<g id="node10" class="node">
<title>Node10</title>
<g id="a_node10"><a xlink:href="mesh_8h.html" target="_top" xlink:title="Contains the definitions of all structs for the mesh handling.">
<polygon fill="white" stroke="black" points="68.5,-56.5 68.5,-75.5 117.5,-75.5 117.5,-56.5 68.5,-56.5"/>
<text text-anchor="middle" x="93" y="-63.5" font-family="Helvetica,sans-Serif" font-size="10.00">mesh.h</text>
</a>
</g>
</g>
<!-- Node7&#45;&gt;Node10 -->
<g id="edge16" class="edge">
<title>Node7&#45;&gt;Node10</title>
<path fill="none" stroke="midnightblue" d="M87.63,-168.29C80.66,-155.92 69.85,-132.51 74,-112 75.89,-102.65 79.79,-92.83 83.57,-84.75"/>
<polygon fill="midnightblue" stroke="midnightblue" points="86.79,-86.14 88.12,-75.63 80.53,-83.01 86.79,-86.14"/>
</g>
<!-- Node9&#45;&gt;Node5 -->
<g id="edge11" class="edge">
<title>Node9&#45;&gt;Node5</title>
<path fill="none" stroke="midnightblue" d="M148.55,-114.16C196.06,-104.18 284.23,-85.65 334.77,-75.03"/>
<polygon fill="midnightblue" stroke="midnightblue" points="335.59,-78.44 344.65,-72.96 334.15,-71.59 335.59,-78.44"/>
</g>
<!-- Node9&#45;&gt;Node8 -->
<g id="edge12" class="edge">
<title>Node9&#45;&gt;Node8</title>
<path fill="none" stroke="midnightblue" d="M118.48,-112.47C120.96,-103.48 124.59,-88.89 126,-76 127.71,-60.47 125.55,-42.84 123.2,-29.87"/>
<polygon fill="midnightblue" stroke="midnightblue" points="126.58,-28.94 121.17,-19.83 119.72,-30.33 126.58,-28.94"/>
</g>
<!-- Node9&#45;&gt;Node10 -->
<g id="edge13" class="edge">
<title>Node9&#45;&gt;Node10</title>
<path fill="none" stroke="midnightblue" d="M107.04,-112.08C102.43,-104.85 97.56,-94.41 94.4,-85.4"/>
<polygon fill="midnightblue" stroke="midnightblue" points="97.75,-84.38 91.6,-75.75 91.03,-86.33 97.75,-84.38"/>
</g>
<!-- Node10&#45;&gt;Node8 -->
<g id="edge14" class="edge">
<title>Node10&#45;&gt;Node8</title>
<path fill="none" stroke="midnightblue" d="M97.29,-56.08C100.85,-48.69 106.02,-37.95 110.42,-28.81"/>
<polygon fill="midnightblue" stroke="midnightblue" points="113.6,-30.28 114.79,-19.75 107.29,-27.24 113.6,-30.28"/>
</g>
<!-- Node10&#45;&gt;Node9 -->
<g id="edge15" class="edge">
<title>Node10&#45;&gt;Node9</title>
<path fill="none" stroke="midnightblue" d="M101.86,-75.75C106.46,-82.94 111.34,-93.36 114.53,-102.4"/>
<polygon fill="midnightblue" stroke="midnightblue" points="111.2,-103.47 117.37,-112.08 117.91,-101.5 111.2,-103.47"/>
</g>
<!-- Node11&#45;&gt;Node5 -->
<g id="edge18" class="edge">
<title>Node11&#45;&gt;Node5</title>
<path fill="none" stroke="midnightblue" d="M262.76,-112.44C284.32,-103.56 318.26,-89.56 342.79,-79.45"/>
<polygon fill="midnightblue" stroke="midnightblue" points="344.43,-82.56 352.34,-75.52 341.76,-76.09 344.43,-82.56"/>
</g>
<!-- Node11&#45;&gt;Node8 -->
<g id="edge19" class="edge">
<title>Node11&#45;&gt;Node8</title>
<path fill="none" stroke="midnightblue" d="M232.35,-112.37C211.6,-93.81 162.51,-49.91 136.26,-26.44"/>
<polygon fill="midnightblue" stroke="midnightblue" points="138.39,-23.65 128.61,-19.59 133.73,-28.87 138.39,-23.65"/>
</g>
<!-- Node12&#45;&gt;Node5 -->
<g id="edge21" class="edge">
<title>Node12&#45;&gt;Node5</title>
<path fill="none" stroke="midnightblue" d="M463.87,-168.45C455.35,-159.45 441.61,-144.84 430,-132 415.3,-115.75 398.82,-96.89 387.38,-83.68"/>
<polygon fill="midnightblue" stroke="midnightblue" points="389.85,-81.18 380.66,-75.91 384.55,-85.76 389.85,-81.18"/>
</g>
<!-- Node13 -->
<g id="node13" class="node">
<title>Node13</title>
<g id="a_node13"><a xlink:title=" ">
<polygon fill="white" stroke="#bfbfbf" points="439,-112.5 439,-131.5 483,-131.5 483,-112.5 439,-112.5"/>
<text text-anchor="middle" x="461" y="-119.5" font-family="Helvetica,sans-Serif" font-size="10.00">time.h</text>
</a>
</g>
</g>
<!-- Node12&#45;&gt;Node13 -->
<g id="edge22" class="edge">
<title>Node12&#45;&gt;Node13</title>
<path fill="none" stroke="midnightblue" d="M470.18,-168.08C468.73,-160.93 466.63,-150.64 464.81,-141.69"/>
<polygon fill="midnightblue" stroke="midnightblue" points="468.21,-140.85 462.78,-131.75 461.35,-142.25 468.21,-140.85"/>
</g>
<!-- Node14&#45;&gt;Node3 -->
<g id="edge25" class="edge">
<title>Node14&#45;&gt;Node3</title>
<path fill="none" stroke="midnightblue" d="M366.92,-168.08C358.83,-160.14 346.8,-148.34 337.09,-138.8"/>
<polygon fill="midnightblue" stroke="midnightblue" points="339.5,-136.26 329.91,-131.75 334.6,-141.25 339.5,-136.26"/>
</g>
<!-- Node14&#45;&gt;Node5 -->
<g id="edge24" class="edge">
<title>Node14&#45;&gt;Node5</title>
<path fill="none" stroke="midnightblue" d="M375.76,-168.37C375.28,-150.62 374.16,-109.67 373.51,-85.6"/>
<polygon fill="midnightblue" stroke="midnightblue" points="377.01,-85.49 373.23,-75.59 370.01,-85.68 377.01,-85.49"/>
</g>
<!-- Node16 -->
<g id="node16" class="node">
<title>Node16</title>
<g id="a_node16"><a xlink:title=" ">
<polygon fill="white" stroke="#bfbfbf" points="833,-112.5 833,-131.5 889,-131.5 889,-112.5 833,-112.5"/>
<text text-anchor="middle" x="861" y="-119.5" font-family="Helvetica,sans-Serif" font-size="10.00">cgnslib.h</text>
</a>
</g>
</g>
<!-- Node15&#45;&gt;Node16 -->
<g id="edge27" class="edge">
<title>Node15&#45;&gt;Node16</title>
<path fill="none" stroke="midnightblue" d="M861,-168.08C861,-161.01 861,-150.86 861,-141.99"/>
<polygon fill="midnightblue" stroke="midnightblue" points="864.5,-141.75 861,-131.75 857.5,-141.75 864.5,-141.75"/>
</g>
<!-- Node19&#45;&gt;Node5 -->
<g id="edge31" class="edge">
<title>Node19&#45;&gt;Node5</title>
<path fill="none" stroke="midnightblue" d="M506.81,-112.44C480.06,-103.36 437.6,-88.94 407.69,-78.78"/>
<polygon fill="midnightblue" stroke="midnightblue" points="408.67,-75.42 398.08,-75.52 406.42,-82.05 408.67,-75.42"/>
</g>
</g>
</svg>
