<?xml version="1.0" encoding="UTF-8" standalone="no"?>
<!DOCTYPE svg PUBLIC "-//W3C//DTD SVG 1.1//EN"
 "http://www.w3.org/Graphics/SVG/1.1/DTD/svg11.dtd">
<!-- Generated by graphviz version 2.42.3 (0)
 -->
<!-- Title: src/analyze.c Pages: 1 -->
<svg width="1107pt" height="196pt"
 viewBox="0.00 0.00 1106.50 196.00" xmlns="http://www.w3.org/2000/svg" xmlns:xlink="http://www.w3.org/1999/xlink">
<g id="graph0" class="graph" transform="scale(1 1) rotate(0) translate(4 192)">
<title>src/analyze.c</title>
<polygon fill="white" stroke="transparent" points="-4,4 -4,-192 1102.5,-192 1102.5,4 -4,4"/>
<!-- Node1 -->
<g id="node1" class="node">
<title>Node1</title>
<g id="a_node1"><a xlink:title="Contains functions for analyzing flow results.">
<polygon fill="#bfbfbf" stroke="black" points="440,-168.5 440,-187.5 514,-187.5 514,-168.5 440,-168.5"/>
<text text-anchor="middle" x="477" y="-175.5" font-family="Helvetica,sans-Serif" font-size="10.00">src/analyze.c</text>
</a>
</g>
</g>
<!-- Node2 -->
<g id="node2" class="node">
<title>Node2</title>
<g id="a_node2"><a xlink:title=" ">
<polygon fill="white" stroke="#bfbfbf" points="0,-112.5 0,-131.5 46,-131.5 46,-112.5 0,-112.5"/>
<text text-anchor="middle" x="23" y="-119.5" font-family="Helvetica,sans-Serif" font-size="10.00">stdio.h</text>
</a>
</g>
</g>
<!-- Node1&#45;&gt;Node2 -->
<g id="edge1" class="edge">
<title>Node1&#45;&gt;Node2</title>
<path fill="none" stroke="midnightblue" d="M439.72,-175.13C367.43,-171.06 203.14,-159.59 56.4,-131.97"/>
<polygon fill="midnightblue" stroke="midnightblue" points="56.79,-128.49 46.31,-130.04 55.47,-135.36 56.79,-128.49"/>
</g>
<!-- Node3 -->
<g id="node3" class="node">
<title>Node3</title>
<g id="a_node3"><a xlink:title=" ">
<polygon fill="white" stroke="#bfbfbf" points="167,-56.5 167,-75.5 215,-75.5 215,-56.5 167,-56.5"/>
<text text-anchor="middle" x="191" y="-63.5" font-family="Helvetica,sans-Serif" font-size="10.00">stdlib.h</text>
</a>
</g>
</g>
<!-- Node1&#45;&gt;Node3 -->
<g id="edge2" class="edge">
<title>Node1&#45;&gt;Node3</title>
<path fill="none" stroke="midnightblue" d="M439.88,-177.35C365.78,-177.16 203.64,-172.06 169,-132 157.13,-118.27 167.18,-97.85 177.27,-83.58"/>
<polygon fill="midnightblue" stroke="midnightblue" points="180.07,-85.67 183.36,-75.6 174.51,-81.43 180.07,-85.67"/>
</g>
<!-- Node4 -->
<g id="node4" class="node">
<title>Node4</title>
<g id="a_node4"><a xlink:title=" ">
<polygon fill="white" stroke="#bfbfbf" points="500.5,-112.5 500.5,-131.5 549.5,-131.5 549.5,-112.5 500.5,-112.5"/>
<text text-anchor="middle" x="525" y="-119.5" font-family="Helvetica,sans-Serif" font-size="10.00">string.h</text>
</a>
</g>
</g>
<!-- Node1&#45;&gt;Node4 -->
<g id="edge3" class="edge">
<title>Node1&#45;&gt;Node4</title>
<path fill="none" stroke="midnightblue" d="M484.93,-168.08C491.85,-160.3 502.07,-148.8 510.45,-139.37"/>
<polygon fill="midnightblue" stroke="midnightblue" points="513.19,-141.55 517.22,-131.75 507.96,-136.9 513.19,-141.55"/>
</g>
<!-- Node5 -->
<g id="node5" class="node">
<title>Node5</title>
<g id="a_node5"><a xlink:title=" ">
<polygon fill="white" stroke="#bfbfbf" points="233,-56.5 233,-75.5 289,-75.5 289,-56.5 233,-56.5"/>
<text text-anchor="middle" x="261" y="-63.5" font-family="Helvetica,sans-Serif" font-size="10.00">stdbool.h</text>
</a>
</g>
</g>
<!-- Node1&#45;&gt;Node5 -->
<g id="edge4" class="edge">
<title>Node1&#45;&gt;Node5</title>
<path fill="none" stroke="midnightblue" d="M439.78,-173.29C388.47,-167.41 299.75,-154.3 277,-132 264.82,-120.06 261.35,-100.45 260.6,-85.88"/>
<polygon fill="midnightblue" stroke="midnightblue" points="264.1,-85.48 260.47,-75.53 257.1,-85.57 264.1,-85.48"/>
</g>
<!-- Node6 -->
<g id="node6" class="node">
<title>Node6</title>
<g id="a_node6"><a xlink:title=" ">
<polygon fill="white" stroke="#bfbfbf" points="567.5,-112.5 567.5,-131.5 614.5,-131.5 614.5,-112.5 567.5,-112.5"/>
<text text-anchor="middle" x="591" y="-119.5" font-family="Helvetica,sans-Serif" font-size="10.00">math.h</text>
</a>
</g>
</g>
<!-- Node1&#45;&gt;Node6 -->
<g id="edge5" class="edge">
<title>Node1&#45;&gt;Node6</title>
<path fill="none" stroke="midnightblue" d="M495.06,-168.44C513.57,-159.68 542.58,-145.94 563.86,-135.86"/>
<polygon fill="midnightblue" stroke="midnightblue" points="565.48,-138.96 573.02,-131.52 562.49,-132.63 565.48,-138.96"/>
</g>
<!-- Node7 -->
<g id="node7" class="node">
<title>Node7</title>
<g id="a_node7"><a xlink:href="analyze_8h.html" target="_top" xlink:title="Contains the structure definitions of wing_t and recordPoint_t">
<polygon fill="white" stroke="black" points="64,-112.5 64,-131.5 122,-131.5 122,-112.5 64,-112.5"/>
<text text-anchor="middle" x="93" y="-119.5" font-family="Helvetica,sans-Serif" font-size="10.00">analyze.h</text>
</a>
</g>
</g>
<!-- Node1&#45;&gt;Node7 -->
<g id="edge6" class="edge">
<title>Node1&#45;&gt;Node7</title>
<path fill="none" stroke="midnightblue" d="M439.78,-173.01C376.94,-166.08 245.93,-150.73 136,-132 134.73,-131.78 133.44,-131.56 132.14,-131.32"/>
<polygon fill="midnightblue" stroke="midnightblue" points="132.57,-127.84 122.09,-129.4 131.25,-134.71 132.57,-127.84"/>
</g>
<!-- Node11 -->
<g id="node11" class="node">
<title>Node11</title>
<g id="a_node11"><a xlink:href="readInTools_8h.html" target="_top" xlink:title=" ">
<polygon fill="white" stroke="black" points="286,-112.5 286,-131.5 360,-131.5 360,-112.5 286,-112.5"/>
<text text-anchor="middle" x="323" y="-119.5" font-family="Helvetica,sans-Serif" font-size="10.00">readInTools.h</text>
</a>
</g>
</g>
<!-- Node1&#45;&gt;Node11 -->
<g id="edge14" class="edge">
<title>Node1&#45;&gt;Node11</title>
<path fill="none" stroke="midnightblue" d="M452.6,-168.44C426.8,-159.4 385.92,-145.06 356.98,-134.92"/>
<polygon fill="midnightblue" stroke="midnightblue" points="357.88,-131.52 347.29,-131.52 355.57,-138.13 357.88,-131.52"/>
</g>
<!-- Node12 -->
<g id="node12" class="node">
<title>Node12</title>
<g id="a_node12"><a xlink:href="timeDiscretization_8h.html" target="_top" xlink:title=" ">
<polygon fill="white" stroke="black" points="378,-112.5 378,-131.5 482,-131.5 482,-112.5 378,-112.5"/>
<text text-anchor="middle" x="430" y="-119.5" font-family="Helvetica,sans-Serif" font-size="10.00">timeDiscretization.h</text>
</a>
</g>
</g>
<!-- Node1&#45;&gt;Node12 -->
<g id="edge17" class="edge">
<title>Node1&#45;&gt;Node12</title>
<path fill="none" stroke="midnightblue" d="M469.24,-168.08C462.46,-160.3 452.46,-148.8 444.24,-139.37"/>
<polygon fill="midnightblue" stroke="midnightblue" points="446.82,-137 437.62,-131.75 441.54,-141.59 446.82,-137"/>
</g>
<!-- Node14 -->
<g id="node14" class="node">
<title>Node14</title>
<g id="a_node14"><a xlink:href="output_8h.html" target="_top" xlink:title="Contains outputTime_t struct definition.">
<polygon fill="white" stroke="black" points="178.5,-112.5 178.5,-131.5 229.5,-131.5 229.5,-112.5 178.5,-112.5"/>
<text text-anchor="middle" x="204" y="-119.5" font-family="Helvetica,sans-Serif" font-size="10.00">output.h</text>
</a>
</g>
</g>
<!-- Node1&#45;&gt;Node14 -->
<g id="edge20" class="edge">
<title>Node1&#45;&gt;Node14</title>
<path fill="none" stroke="midnightblue" d="M439.8,-170.18C393.75,-161.65 312.96,-146.41 244,-132 242.56,-131.7 241.1,-131.39 239.62,-131.07"/>
<polygon fill="midnightblue" stroke="midnightblue" points="240.31,-127.64 229.8,-128.93 238.82,-134.48 240.31,-127.64"/>
</g>
<!-- Node15 -->
<g id="node15" class="node">
<title>Node15</title>
<g id="a_node15"><a xlink:href="memTools_8h.html" target="_top" xlink:title=" ">
<polygon fill="white" stroke="black" points="633,-112.5 633,-131.5 703,-131.5 703,-112.5 633,-112.5"/>
<text text-anchor="middle" x="668" y="-119.5" font-family="Helvetica,sans-Serif" font-size="10.00">memTools.h</text>
</a>
</g>
</g>
<!-- Node1&#45;&gt;Node15 -->
<g id="edge23" class="edge">
<title>Node1&#45;&gt;Node15</title>
<path fill="none" stroke="midnightblue" d="M507.26,-168.44C539.96,-159.2 592.18,-144.44 628.18,-134.26"/>
<polygon fill="midnightblue" stroke="midnightblue" points="629.21,-137.61 637.88,-131.52 627.3,-130.87 629.21,-137.61"/>
</g>
<!-- Node17 -->
<g id="node17" class="node">
<title>Node17</title>
<g id="a_node17"><a xlink:href="reconstruction_8h.html" target="_top" xlink:title=" ">
<polygon fill="white" stroke="black" points="721,-112.5 721,-131.5 807,-131.5 807,-112.5 721,-112.5"/>
<text text-anchor="middle" x="764" y="-119.5" font-family="Helvetica,sans-Serif" font-size="10.00">reconstruction.h</text>
</a>
</g>
</g>
<!-- Node1&#45;&gt;Node17 -->
<g id="edge25" class="edge">
<title>Node1&#45;&gt;Node17</title>
<path fill="none" stroke="midnightblue" d="M514.23,-170C564.3,-160.57 653.67,-143.76 710.82,-133.01"/>
<polygon fill="midnightblue" stroke="midnightblue" points="711.57,-136.43 720.75,-131.14 710.28,-129.55 711.57,-136.43"/>
</g>
<!-- Node18 -->
<g id="node18" class="node">
<title>Node18</title>
<g id="a_node18"><a xlink:title=" ">
<polygon fill="white" stroke="#bfbfbf" points="825,-112.5 825,-131.5 911,-131.5 911,-112.5 825,-112.5"/>
<text text-anchor="middle" x="868" y="-119.5" font-family="Helvetica,sans-Serif" font-size="10.00">exactFunction.h</text>
</a>
</g>
</g>
<!-- Node1&#45;&gt;Node18 -->
<g id="edge26" class="edge">
<title>Node1&#45;&gt;Node18</title>
<path fill="none" stroke="midnightblue" d="M514.19,-172.55C574.88,-165.18 699.24,-149.64 814.81,-132.13"/>
<polygon fill="midnightblue" stroke="midnightblue" points="815.53,-135.56 824.89,-130.6 814.48,-128.64 815.53,-135.56"/>
</g>
<!-- Node19 -->
<g id="node19" class="node">
<title>Node19</title>
<g id="a_node19"><a xlink:title=" ">
<polygon fill="white" stroke="#bfbfbf" points="929,-112.5 929,-131.5 991,-131.5 991,-112.5 929,-112.5"/>
<text text-anchor="middle" x="960" y="-119.5" font-family="Helvetica,sans-Serif" font-size="10.00">equation.h</text>
</a>
</g>
</g>
<!-- Node1&#45;&gt;Node19 -->
<g id="edge27" class="edge">
<title>Node1&#45;&gt;Node19</title>
<path fill="none" stroke="midnightblue" d="M514.24,-174.73C589.04,-169.86 762.95,-156.87 918.41,-132.08"/>
<polygon fill="midnightblue" stroke="midnightblue" points="919.31,-135.48 928.63,-130.43 918.2,-128.57 919.31,-135.48"/>
</g>
<!-- Node20 -->
<g id="node20" class="node">
<title>Node20</title>
<g id="a_node20"><a xlink:href="initialCondition_8h.html" target="_top" xlink:title=" ">
<polygon fill="white" stroke="black" points="1009.5,-112.5 1009.5,-131.5 1098.5,-131.5 1098.5,-112.5 1009.5,-112.5"/>
<text text-anchor="middle" x="1054" y="-119.5" font-family="Helvetica,sans-Serif" font-size="10.00">initialCondition.h</text>
</a>
</g>
</g>
<!-- Node1&#45;&gt;Node20 -->
<g id="edge28" class="edge">
<title>Node1&#45;&gt;Node20</title>
<path fill="none" stroke="midnightblue" d="M514.2,-174.82C598.53,-169.65 810.85,-155.41 999.17,-132"/>
<polygon fill="midnightblue" stroke="midnightblue" points="999.76,-135.46 1009.25,-130.74 998.89,-128.51 999.76,-135.46"/>
</g>
<!-- Node7&#45;&gt;Node3 -->
<g id="edge7" class="edge">
<title>Node7&#45;&gt;Node3</title>
<path fill="none" stroke="midnightblue" d="M108.75,-112.32C124.32,-103.74 148.38,-90.49 166.46,-80.52"/>
<polygon fill="midnightblue" stroke="midnightblue" points="168.22,-83.55 175.29,-75.65 164.85,-77.42 168.22,-83.55"/>
</g>
<!-- Node7&#45;&gt;Node5 -->
<g id="edge8" class="edge">
<title>Node7&#45;&gt;Node5</title>
<path fill="none" stroke="midnightblue" d="M119.62,-112.44C148.01,-103.32 193.14,-88.81 224.75,-78.65"/>
<polygon fill="midnightblue" stroke="midnightblue" points="226.06,-81.91 234.5,-75.52 223.91,-75.24 226.06,-81.91"/>
</g>
<!-- Node8 -->
<g id="node8" class="node">
<title>Node8</title>
<g id="a_node8"><a xlink:href="main_8h.html" target="_top" xlink:title="Contains the global constants and definitions.">
<polygon fill="white" stroke="black" points="116,-0.5 116,-19.5 162,-19.5 162,-0.5 116,-0.5"/>
<text text-anchor="middle" x="139" y="-7.5" font-family="Helvetica,sans-Serif" font-size="10.00">main.h</text>
</a>
</g>
</g>
<!-- Node7&#45;&gt;Node8 -->
<g id="edge9" class="edge">
<title>Node7&#45;&gt;Node8</title>
<path fill="none" stroke="midnightblue" d="M98.79,-112.34C104.52,-103.5 113.23,-89.23 119,-76 125.64,-60.78 131.02,-42.67 134.52,-29.43"/>
<polygon fill="midnightblue" stroke="midnightblue" points="137.94,-30.19 137,-19.63 131.15,-28.47 137.94,-30.19"/>
</g>
<!-- Node9 -->
<g id="node9" class="node">
<title>Node9</title>
<g id="a_node9"><a xlink:title=" ">
<polygon fill="white" stroke="#bfbfbf" points="16.5,-0.5 16.5,-19.5 81.5,-19.5 81.5,-0.5 16.5,-0.5"/>
<text text-anchor="middle" x="49" y="-7.5" font-family="Helvetica,sans-Serif" font-size="10.00">boundary.h</text>
</a>
</g>
</g>
<!-- Node7&#45;&gt;Node9 -->
<g id="edge10" class="edge">
<title>Node7&#45;&gt;Node9</title>
<path fill="none" stroke="midnightblue" d="M81.63,-112.42C71.8,-104.27 58.23,-91.04 52,-76 45.98,-61.47 45.62,-43.52 46.55,-30.17"/>
<polygon fill="midnightblue" stroke="midnightblue" points="50.07,-30.12 47.58,-19.82 43.1,-29.42 50.07,-30.12"/>
</g>
<!-- Node10 -->
<g id="node10" class="node">
<title>Node10</title>
<g id="a_node10"><a xlink:href="mesh_8h.html" target="_top" xlink:title="Contains the definitions of all structs for the mesh handling.">
<polygon fill="white" stroke="black" points="61.5,-56.5 61.5,-75.5 110.5,-75.5 110.5,-56.5 61.5,-56.5"/>
<text text-anchor="middle" x="86" y="-63.5" font-family="Helvetica,sans-Serif" font-size="10.00">mesh.h</text>
</a>
</g>
</g>
<!-- Node7&#45;&gt;Node10 -->
<g id="edge11" class="edge">
<title>Node7&#45;&gt;Node10</title>
<path fill="none" stroke="midnightblue" d="M91.84,-112.08C90.92,-104.93 89.58,-94.64 88.42,-85.69"/>
<polygon fill="midnightblue" stroke="midnightblue" points="91.89,-85.22 87.13,-75.75 84.95,-86.12 91.89,-85.22"/>
</g>
<!-- Node10&#45;&gt;Node8 -->
<g id="edge12" class="edge">
<title>Node10&#45;&gt;Node8</title>
<path fill="none" stroke="midnightblue" d="M94.75,-56.08C102.47,-48.22 113.9,-36.57 123.22,-27.08"/>
<polygon fill="midnightblue" stroke="midnightblue" points="125.9,-29.34 130.41,-19.75 120.91,-24.44 125.9,-29.34"/>
</g>
<!-- Node10&#45;&gt;Node9 -->
<g id="edge13" class="edge">
<title>Node10&#45;&gt;Node9</title>
<path fill="none" stroke="midnightblue" d="M79.89,-56.08C74.72,-48.53 67.15,-37.49 60.81,-28.23"/>
<polygon fill="midnightblue" stroke="midnightblue" points="63.54,-26.02 55,-19.75 57.76,-29.98 63.54,-26.02"/>
</g>
<!-- Node11&#45;&gt;Node5 -->
<g id="edge15" class="edge">
<title>Node11&#45;&gt;Node5</title>
<path fill="none" stroke="midnightblue" d="M313.04,-112.32C303.87,-104.34 290.06,-92.31 278.97,-82.65"/>
<polygon fill="midnightblue" stroke="midnightblue" points="280.98,-79.76 271.14,-75.83 276.38,-85.04 280.98,-79.76"/>
</g>
<!-- Node11&#45;&gt;Node8 -->
<g id="edge16" class="edge">
<title>Node11&#45;&gt;Node8</title>
<path fill="none" stroke="midnightblue" d="M322.14,-112.48C320.28,-98.6 314.61,-71.16 298,-56 263.24,-24.28 207.75,-14.73 172.36,-11.97"/>
<polygon fill="midnightblue" stroke="midnightblue" points="172.27,-8.46 162.07,-11.31 171.83,-15.44 172.27,-8.46"/>
</g>
<!-- Node12&#45;&gt;Node5 -->
<g id="edge18" class="edge">
<title>Node12&#45;&gt;Node5</title>
<path fill="none" stroke="midnightblue" d="M403.22,-112.44C374.67,-103.32 329.27,-88.81 297.46,-78.65"/>
<polygon fill="midnightblue" stroke="midnightblue" points="298.24,-75.23 287.65,-75.52 296.11,-81.89 298.24,-75.23"/>
</g>
<!-- Node13 -->
<g id="node13" class="node">
<title>Node13</title>
<g id="a_node13"><a xlink:title=" ">
<polygon fill="white" stroke="#bfbfbf" points="408,-56.5 408,-75.5 452,-75.5 452,-56.5 408,-56.5"/>
<text text-anchor="middle" x="430" y="-63.5" font-family="Helvetica,sans-Serif" font-size="10.00">time.h</text>
</a>
</g>
</g>
<!-- Node12&#45;&gt;Node13 -->
<g id="edge19" class="edge">
<title>Node12&#45;&gt;Node13</title>
<path fill="none" stroke="midnightblue" d="M430,-112.08C430,-105.01 430,-94.86 430,-85.99"/>
<polygon fill="midnightblue" stroke="midnightblue" points="433.5,-85.75 430,-75.75 426.5,-85.75 433.5,-85.75"/>
</g>
<!-- Node14&#45;&gt;Node3 -->
<g id="edge22" class="edge">
<title>Node14&#45;&gt;Node3</title>
<path fill="none" stroke="midnightblue" d="M201.85,-112.08C200.13,-104.93 197.65,-94.64 195.5,-85.69"/>
<polygon fill="midnightblue" stroke="midnightblue" points="198.85,-84.65 193.11,-75.75 192.04,-86.29 198.85,-84.65"/>
</g>
<!-- Node14&#45;&gt;Node5 -->
<g id="edge21" class="edge">
<title>Node14&#45;&gt;Node5</title>
<path fill="none" stroke="midnightblue" d="M213.16,-112.32C221.5,-104.42 234.03,-92.55 244.18,-82.94"/>
<polygon fill="midnightblue" stroke="midnightblue" points="246.82,-85.25 251.68,-75.83 242.01,-80.17 246.82,-85.25"/>
</g>
<!-- Node16 -->
<g id="node16" class="node">
<title>Node16</title>
<g id="a_node16"><a xlink:title=" ">
<polygon fill="white" stroke="#bfbfbf" points="640,-56.5 640,-75.5 696,-75.5 696,-56.5 640,-56.5"/>
<text text-anchor="middle" x="668" y="-63.5" font-family="Helvetica,sans-Serif" font-size="10.00">cgnslib.h</text>
</a>
</g>
</g>
<!-- Node15&#45;&gt;Node16 -->
<g id="edge24" class="edge">
<title>Node15&#45;&gt;Node16</title>
<path fill="none" stroke="midnightblue" d="M668,-112.08C668,-105.01 668,-94.86 668,-85.99"/>
<polygon fill="midnightblue" stroke="midnightblue" points="671.5,-85.75 668,-75.75 664.5,-85.75 671.5,-85.75"/>
</g>
</g>
</svg>
