<?xml version="1.0" encoding="UTF-8" standalone="no"?>
<!DOCTYPE svg PUBLIC "-//W3C//DTD SVG 1.1//EN"
 "http://www.w3.org/Graphics/SVG/1.1/DTD/svg11.dtd">
<!-- Generated by graphviz version 2.42.3 (0)
 -->
<!-- Title: src/analyze.h Pages: 1 -->
<svg width="386pt" height="84pt"
 viewBox="0.00 0.00 386.00 84.00" xmlns="http://www.w3.org/2000/svg" xmlns:xlink="http://www.w3.org/1999/xlink">
<g id="graph0" class="graph" transform="scale(1 1) rotate(0) translate(4 80)">
<title>src/analyze.h</title>
<polygon fill="white" stroke="transparent" points="-4,4 -4,-80 382,-80 382,4 -4,4"/>
<!-- Node1 -->
<g id="node1" class="node">
<title>Node1</title>
<g id="a_node1"><a xlink:title="Contains the structure definitions of wing_t and recordPoint_t">
<polygon fill="#bfbfbf" stroke="black" points="127,-56.5 127,-75.5 201,-75.5 201,-56.5 127,-56.5"/>
<text text-anchor="middle" x="164" y="-63.5" font-family="Helvetica,sans-Serif" font-size="10.00">src/analyze.h</text>
</a>
</g>
</g>
<!-- Node2 -->
<g id="node2" class="node">
<title>Node2</title>
<g id="a_node2"><a xlink:href="analyze_8c.html" target="_top" xlink:title="Contains functions for analyzing flow results.">
<polygon fill="white" stroke="black" points="0,-0.5 0,-19.5 74,-19.5 74,-0.5 0,-0.5"/>
<text text-anchor="middle" x="37" y="-7.5" font-family="Helvetica,sans-Serif" font-size="10.00">src/analyze.c</text>
</a>
</g>
</g>
<!-- Node1&#45;&gt;Node2 -->
<g id="edge1" class="edge">
<title>Node1&#45;&gt;Node2</title>
<path fill="none" stroke="midnightblue" d="M134.61,-52.5C110.8,-42.38 77.89,-28.39 57.03,-19.52"/>
<polygon fill="midnightblue" stroke="midnightblue" points="133.3,-55.75 143.88,-56.44 136.04,-49.31 133.3,-55.75"/>
</g>
<!-- Node3 -->
<g id="node3" class="node">
<title>Node3</title>
<g id="a_node3"><a xlink:href="main_8c.html" target="_top" xlink:title="Contains the main function of ccfd">
<polygon fill="white" stroke="black" points="92,-0.5 92,-19.5 154,-19.5 154,-0.5 92,-0.5"/>
<text text-anchor="middle" x="123" y="-7.5" font-family="Helvetica,sans-Serif" font-size="10.00">src/main.c</text>
</a>
</g>
</g>
<!-- Node1&#45;&gt;Node3 -->
<g id="edge2" class="edge">
<title>Node1&#45;&gt;Node3</title>
<path fill="none" stroke="midnightblue" d="M150.98,-47.86C143.88,-38.5 135.4,-27.33 129.64,-19.75"/>
<polygon fill="midnightblue" stroke="midnightblue" points="148.39,-50.24 157.23,-56.08 153.97,-46 148.39,-50.24"/>
</g>
<!-- Node4 -->
<g id="node4" class="node">
<title>Node4</title>
<g id="a_node4"><a xlink:href="output_8c.html" target="_top" xlink:title="Contains all functions used for writing flow solutions.">
<polygon fill="white" stroke="black" points="172,-0.5 172,-19.5 240,-19.5 240,-0.5 172,-0.5"/>
<text text-anchor="middle" x="206" y="-7.5" font-family="Helvetica,sans-Serif" font-size="10.00">src/output.c</text>
</a>
</g>
</g>
<!-- Node1&#45;&gt;Node4 -->
<g id="edge3" class="edge">
<title>Node1&#45;&gt;Node4</title>
<path fill="none" stroke="midnightblue" d="M177.11,-48.14C184.43,-38.74 193.24,-27.4 199.19,-19.75"/>
<polygon fill="midnightblue" stroke="midnightblue" points="174.31,-46.04 170.94,-56.08 179.84,-50.34 174.31,-46.04"/>
</g>
<!-- Node5 -->
<g id="node5" class="node">
<title>Node5</title>
<g id="a_node5"><a xlink:href="timeDiscretization_8c.html" target="_top" xlink:title="Contains the functions for performing the time stepping process.">
<polygon fill="white" stroke="black" points="258,-0.5 258,-19.5 378,-19.5 378,-0.5 258,-0.5"/>
<text text-anchor="middle" x="318" y="-7.5" font-family="Helvetica,sans-Serif" font-size="10.00">src/timeDiscretization.c</text>
</a>
</g>
</g>
<!-- Node1&#45;&gt;Node5 -->
<g id="edge4" class="edge">
<title>Node1&#45;&gt;Node5</title>
<path fill="none" stroke="midnightblue" d="M198.11,-53.04C227.09,-42.88 267.96,-28.55 293.71,-19.52"/>
<polygon fill="midnightblue" stroke="midnightblue" points="196.68,-49.83 188.4,-56.44 199,-56.44 196.68,-49.83"/>
</g>
</g>
</svg>
