<?xml version="1.0" encoding="UTF-8" standalone="no"?>
<!DOCTYPE svg PUBLIC "-//W3C//DTD SVG 1.1//EN"
 "http://www.w3.org/Graphics/SVG/1.1/DTD/svg11.dtd">
<!-- Generated by graphviz version 2.44.0 (0)
 -->
<!-- Title: src/boundary.h Pages: 1 -->
<svg width="1221pt" height="196pt"
 viewBox="0.00 0.00 1220.50 196.00" xmlns="http://www.w3.org/2000/svg" xmlns:xlink="http://www.w3.org/1999/xlink">
<g id="graph0" class="graph" transform="scale(1 1) rotate(0) translate(4 192)">
<title>src/boundary.h</title>
<polygon fill="white" stroke="transparent" points="-4,4 -4,-192 1216.5,-192 1216.5,4 -4,4"/>
<!-- Node1 -->
<g id="node1" class="node">
<title>Node1</title>
<g id="a_node1"><a xlink:title="Contains the structure definition of a boundary.">
<polygon fill="#bfbfbf" stroke="black" points="429.5,-168.5 429.5,-187.5 510.5,-187.5 510.5,-168.5 429.5,-168.5"/>
<text text-anchor="middle" x="470" y="-175.5" font-family="Helvetica,sans-Serif" font-size="10.00">src/boundary.h</text>
</a>
</g>
</g>
<!-- Node2 -->
<g id="node2" class="node">
<title>Node2</title>
<g id="a_node2"><a xlink:href="analyze_8h.html" target="_top" xlink:title="Contains the structure definitions of wing_t and recordPoint_t">
<polygon fill="white" stroke="black" points="44,-56.5 44,-75.5 118,-75.5 118,-56.5 44,-56.5"/>
<text text-anchor="middle" x="81" y="-63.5" font-family="Helvetica,sans-Serif" font-size="10.00">src/analyze.h</text>
</a>
</g>
</g>
<!-- Node1&#45;&gt;Node2 -->
<g id="edge1" class="edge">
<title>Node1&#45;&gt;Node2</title>
<path fill="none" stroke="midnightblue" d="M419.1,-174.89C337.05,-170.72 179.88,-159.35 132,-132 108.83,-118.77 92.41,-90.45 85.16,-75.95"/>
<polygon fill="midnightblue" stroke="midnightblue" points="419.04,-178.39 429.2,-175.39 419.39,-171.4 419.04,-178.39"/>
</g>
<!-- Node4 -->
<g id="node4" class="node">
<title>Node4</title>
<g id="a_node4"><a xlink:href="main_8c.html" target="_top" xlink:title="Contains the main function of ccfd">
<polygon fill="white" stroke="black" points="216,-0.5 216,-19.5 278,-19.5 278,-0.5 216,-0.5"/>
<text text-anchor="middle" x="247" y="-7.5" font-family="Helvetica,sans-Serif" font-size="10.00">src/main.c</text>
</a>
</g>
</g>
<!-- Node1&#45;&gt;Node4 -->
<g id="edge27" class="edge">
<title>Node1&#45;&gt;Node4</title>
<path fill="none" stroke="midnightblue" d="M419.23,-177.33C348.35,-174.68 222,-157.94 165,-76 147.42,-50.72 189.06,-30.42 219.22,-19.59"/>
<polygon fill="midnightblue" stroke="midnightblue" points="419.18,-180.83 429.28,-177.62 419.38,-173.83 419.18,-180.83"/>
</g>
<!-- Node7 -->
<g id="node7" class="node">
<title>Node7</title>
<g id="a_node7"><a xlink:href="mesh_8h.html" target="_top" xlink:title="Contains the definitions of all structs for the mesh handling.">
<polygon fill="white" stroke="black" points="523.5,-112.5 523.5,-131.5 588.5,-131.5 588.5,-112.5 523.5,-112.5"/>
<text text-anchor="middle" x="556" y="-119.5" font-family="Helvetica,sans-Serif" font-size="10.00">src/mesh.h</text>
</a>
</g>
</g>
<!-- Node1&#45;&gt;Node7 -->
<g id="edge6" class="edge">
<title>Node1&#45;&gt;Node7</title>
<path fill="none" stroke="midnightblue" d="M487.26,-162.34C501.77,-152.52 522.16,-139.91 537.11,-131.65"/>
<polygon fill="midnightblue" stroke="midnightblue" points="484.9,-159.73 478.7,-168.32 488.9,-165.47 484.9,-159.73"/>
</g>
<!-- Node8 -->
<g id="node8" class="node">
<title>Node8</title>
<g id="a_node8"><a xlink:href="boundary_8c.html" target="_top" xlink:title="Contains the functions for initializing and applying boundary conditions.">
<polygon fill="white" stroke="black" points="174.5,-56.5 174.5,-75.5 255.5,-75.5 255.5,-56.5 174.5,-56.5"/>
<text text-anchor="middle" x="215" y="-63.5" font-family="Helvetica,sans-Serif" font-size="10.00">src/boundary.c</text>
</a>
</g>
</g>
<!-- Node1&#45;&gt;Node8 -->
<g id="edge25" class="edge">
<title>Node1&#45;&gt;Node8</title>
<path fill="none" stroke="midnightblue" d="M440.57,-164.3C388.08,-141.66 279.61,-94.87 234.92,-75.59"/>
<polygon fill="midnightblue" stroke="midnightblue" points="439.42,-167.62 449.99,-168.37 442.19,-161.19 439.42,-167.62"/>
</g>
<!-- Node11 -->
<g id="node11" class="node">
<title>Node11</title>
<g id="a_node11"><a xlink:href="fluxCalculation_8c.html" target="_top" xlink:title="Contains the flux calculation functions.">
<polygon fill="white" stroke="black" points="1107.5,-0.5 1107.5,-19.5 1212.5,-19.5 1212.5,-0.5 1107.5,-0.5"/>
<text text-anchor="middle" x="1160" y="-7.5" font-family="Helvetica,sans-Serif" font-size="10.00">src/fluxCalculation.c</text>
</a>
</g>
</g>
<!-- Node1&#45;&gt;Node11 -->
<g id="edge26" class="edge">
<title>Node1&#45;&gt;Node11</title>
<path fill="none" stroke="midnightblue" d="M521.37,-177.72C667.07,-178.56 1077.85,-172.19 1161,-76 1174.58,-60.29 1168.12,-33.58 1163.42,-19.8"/>
<polygon fill="midnightblue" stroke="midnightblue" points="520.96,-174.22 510.94,-177.65 520.91,-181.22 520.96,-174.22"/>
</g>
<!-- Node3 -->
<g id="node3" class="node">
<title>Node3</title>
<g id="a_node3"><a xlink:href="analyze_8c.html" target="_top" xlink:title="Contains functions for analyzing flow results.">
<polygon fill="white" stroke="black" points="0,-0.5 0,-19.5 74,-19.5 74,-0.5 0,-0.5"/>
<text text-anchor="middle" x="37" y="-7.5" font-family="Helvetica,sans-Serif" font-size="10.00">src/analyze.c</text>
</a>
</g>
</g>
<!-- Node2&#45;&gt;Node3 -->
<g id="edge2" class="edge">
<title>Node2&#45;&gt;Node3</title>
<path fill="none" stroke="midnightblue" d="M67.27,-48.14C59.6,-38.74 50.37,-27.4 44.13,-19.75"/>
<polygon fill="midnightblue" stroke="midnightblue" points="64.7,-50.54 73.73,-56.08 70.13,-46.12 64.7,-50.54"/>
</g>
<!-- Node2&#45;&gt;Node4 -->
<g id="edge3" class="edge">
<title>Node2&#45;&gt;Node4</title>
<path fill="none" stroke="midnightblue" d="M116.95,-53.3C148.23,-43.13 192.82,-28.62 220.82,-19.52"/>
<polygon fill="midnightblue" stroke="midnightblue" points="115.73,-50.02 107.3,-56.44 117.9,-56.68 115.73,-50.02"/>
</g>
<!-- Node5 -->
<g id="node5" class="node">
<title>Node5</title>
<g id="a_node5"><a xlink:href="output_8c.html" target="_top" xlink:title="Contains all functions used for writing flow solutions.">
<polygon fill="white" stroke="black" points="92,-0.5 92,-19.5 160,-19.5 160,-0.5 92,-0.5"/>
<text text-anchor="middle" x="126" y="-7.5" font-family="Helvetica,sans-Serif" font-size="10.00">src/output.c</text>
</a>
</g>
</g>
<!-- Node2&#45;&gt;Node5 -->
<g id="edge4" class="edge">
<title>Node2&#45;&gt;Node5</title>
<path fill="none" stroke="midnightblue" d="M95.05,-48.14C102.89,-38.74 112.33,-27.4 118.71,-19.75"/>
<polygon fill="midnightblue" stroke="midnightblue" points="92.14,-46.16 88.43,-56.08 97.52,-50.64 92.14,-46.16"/>
</g>
<!-- Node6 -->
<g id="node6" class="node">
<title>Node6</title>
<g id="a_node6"><a xlink:href="timeDiscretization_8c.html" target="_top" xlink:title="Contains the functions for performing the time stepping process.">
<polygon fill="white" stroke="black" points="496,-0.5 496,-19.5 616,-19.5 616,-0.5 496,-0.5"/>
<text text-anchor="middle" x="556" y="-7.5" font-family="Helvetica,sans-Serif" font-size="10.00">src/timeDiscretization.c</text>
</a>
</g>
</g>
<!-- Node2&#45;&gt;Node6 -->
<g id="edge5" class="edge">
<title>Node2&#45;&gt;Node6</title>
<path fill="none" stroke="midnightblue" d="M128.38,-59.61C215.36,-49.72 400.34,-28.7 495.97,-17.82"/>
<polygon fill="midnightblue" stroke="midnightblue" points="127.81,-56.16 118.27,-60.76 128.6,-63.11 127.81,-56.16"/>
</g>
<!-- Node7&#45;&gt;Node1 -->
<g id="edge7" class="edge">
<title>Node7&#45;&gt;Node1</title>
<path fill="none" stroke="midnightblue" d="M538.52,-137.81C524.04,-147.6 503.8,-160.11 488.93,-168.32"/>
<polygon fill="midnightblue" stroke="midnightblue" points="540.88,-140.43 547.08,-131.83 536.88,-134.68 540.88,-140.43"/>
</g>
<!-- Node7&#45;&gt;Node2 -->
<g id="edge8" class="edge">
<title>Node7&#45;&gt;Node2</title>
<path fill="none" stroke="midnightblue" d="M513.26,-116.14C421.09,-105.66 204.93,-81.09 118.09,-71.22"/>
<polygon fill="midnightblue" stroke="midnightblue" points="513.02,-119.64 523.35,-117.29 513.81,-112.68 513.02,-119.64"/>
</g>
<!-- Node7&#45;&gt;Node4 -->
<g id="edge20" class="edge">
<title>Node7&#45;&gt;Node4</title>
<path fill="none" stroke="midnightblue" d="M513.29,-121.91C460.5,-121.2 369.5,-113.89 303,-76 278.93,-62.29 260.27,-34.19 251.87,-19.85"/>
<polygon fill="midnightblue" stroke="midnightblue" points="513.3,-125.41 523.32,-121.97 513.34,-118.41 513.3,-125.41"/>
</g>
<!-- Node7&#45;&gt;Node6 -->
<g id="edge24" class="edge">
<title>Node7&#45;&gt;Node6</title>
<path fill="none" stroke="midnightblue" d="M556,-102.35C556,-78.25 556,-37.31 556,-19.59"/>
<polygon fill="midnightblue" stroke="midnightblue" points="552.5,-102.37 556,-112.37 559.5,-102.37 552.5,-102.37"/>
</g>
<!-- Node7&#45;&gt;Node8 -->
<g id="edge9" class="edge">
<title>Node7&#45;&gt;Node8</title>
<path fill="none" stroke="midnightblue" d="M513.5,-114.4C457.63,-105.7 356.43,-89.87 270,-76 265.32,-75.25 260.41,-74.46 255.54,-73.66"/>
<polygon fill="midnightblue" stroke="midnightblue" points="512.97,-117.86 523.39,-115.94 514.05,-110.94 512.97,-117.86"/>
</g>
<!-- Node9 -->
<g id="node9" class="node">
<title>Node9</title>
<g id="a_node9"><a xlink:href="exactFunction_8c.html" target="_top" xlink:title="Contains the exact function evaluation function.">
<polygon fill="white" stroke="black" points="312,-56.5 312,-75.5 414,-75.5 414,-56.5 312,-56.5"/>
<text text-anchor="middle" x="363" y="-63.5" font-family="Helvetica,sans-Serif" font-size="10.00">src/exactFunction.c</text>
</a>
</g>
</g>
<!-- Node7&#45;&gt;Node9 -->
<g id="edge10" class="edge">
<title>Node7&#45;&gt;Node9</title>
<path fill="none" stroke="midnightblue" d="M515.61,-109.7C479.18,-99.51 426.41,-84.74 393.44,-75.52"/>
<polygon fill="midnightblue" stroke="midnightblue" points="514.85,-113.12 525.42,-112.44 516.73,-106.38 514.85,-113.12"/>
</g>
<!-- Node10 -->
<g id="node10" class="node">
<title>Node10</title>
<g id="a_node10"><a xlink:href="finiteVolume_8c.html" target="_top" xlink:title="Finite volume time derivative functions.">
<polygon fill="white" stroke="black" points="432.5,-56.5 432.5,-75.5 527.5,-75.5 527.5,-56.5 432.5,-56.5"/>
<text text-anchor="middle" x="480" y="-63.5" font-family="Helvetica,sans-Serif" font-size="10.00">src/finiteVolume.c</text>
</a>
</g>
</g>
<!-- Node7&#45;&gt;Node10 -->
<g id="edge11" class="edge">
<title>Node7&#45;&gt;Node10</title>
<path fill="none" stroke="midnightblue" d="M535.42,-106.38C521.69,-96.62 504.07,-84.11 492.43,-75.83"/>
<polygon fill="midnightblue" stroke="midnightblue" points="533.61,-109.38 543.79,-112.32 537.66,-103.68 533.61,-109.38"/>
</g>
<!-- Node7&#45;&gt;Node11 -->
<g id="edge12" class="edge">
<title>Node7&#45;&gt;Node11</title>
<path fill="none" stroke="midnightblue" d="M599,-120.47C726.98,-118.52 1099.16,-109.94 1141,-76 1157.98,-62.22 1160.32,-34.15 1160.32,-19.83"/>
<polygon fill="midnightblue" stroke="midnightblue" points="598.74,-116.97 588.8,-120.62 598.85,-123.97 598.74,-116.97"/>
</g>
<!-- Node12 -->
<g id="node12" class="node">
<title>Node12</title>
<g id="a_node12"><a xlink:href="linearSolver_8h.html" target="_top" xlink:title=" ">
<polygon fill="white" stroke="black" points="584,-56.5 584,-75.5 676,-75.5 676,-56.5 584,-56.5"/>
<text text-anchor="middle" x="630" y="-63.5" font-family="Helvetica,sans-Serif" font-size="10.00">src/linearSolver.h</text>
</a>
</g>
</g>
<!-- Node7&#45;&gt;Node12 -->
<g id="edge13" class="edge">
<title>Node7&#45;&gt;Node12</title>
<path fill="none" stroke="midnightblue" d="M576.03,-106.38C589.41,-96.62 606.56,-84.11 617.89,-75.83"/>
<polygon fill="midnightblue" stroke="midnightblue" points="573.9,-103.6 567.89,-112.32 578.03,-109.26 573.9,-103.6"/>
</g>
<!-- Node13 -->
<g id="node13" class="node">
<title>Node13</title>
<g id="a_node13"><a xlink:href="linearSolver_8c.html" target="_top" xlink:title="Contains the functions for solving the linear system of equations during implicit calculations.">
<polygon fill="white" stroke="black" points="708,-0.5 708,-19.5 800,-19.5 800,-0.5 708,-0.5"/>
<text text-anchor="middle" x="754" y="-7.5" font-family="Helvetica,sans-Serif" font-size="10.00">src/linearSolver.c</text>
</a>
</g>
</g>
<!-- Node7&#45;&gt;Node13 -->
<g id="edge19" class="edge">
<title>Node7&#45;&gt;Node13</title>
<path fill="none" stroke="midnightblue" d="M599.27,-119.76C664.38,-116.87 782.74,-107.34 809,-76 825.99,-55.72 792.33,-32.02 770.55,-19.6"/>
<polygon fill="midnightblue" stroke="midnightblue" points="598.77,-116.27 588.92,-120.18 599.05,-123.27 598.77,-116.27"/>
</g>
<!-- Node14 -->
<g id="node14" class="node">
<title>Node14</title>
<g id="a_node14"><a xlink:href="initialCondition_8c.html" target="_top" xlink:title="Functions involving the initialization and application of initial conditions.">
<polygon fill="white" stroke="black" points="694.5,-56.5 694.5,-75.5 799.5,-75.5 799.5,-56.5 694.5,-56.5"/>
<text text-anchor="middle" x="747" y="-63.5" font-family="Helvetica,sans-Serif" font-size="10.00">src/initialCondition.c</text>
</a>
</g>
</g>
<!-- Node7&#45;&gt;Node14 -->
<g id="edge18" class="edge">
<title>Node7&#45;&gt;Node14</title>
<path fill="none" stroke="midnightblue" d="M595.97,-109.7C632.02,-99.51 684.24,-84.74 716.88,-75.52"/>
<polygon fill="midnightblue" stroke="midnightblue" points="594.94,-106.35 586.26,-112.44 596.84,-113.09 594.94,-106.35"/>
</g>
<!-- Node15 -->
<g id="node15" class="node">
<title>Node15</title>
<g id="a_node15"><a xlink:href="mesh_8c.html" target="_top" xlink:title="Contains all the functions for reading and creating meshes.">
<polygon fill="white" stroke="black" points="856.5,-56.5 856.5,-75.5 921.5,-75.5 921.5,-56.5 856.5,-56.5"/>
<text text-anchor="middle" x="889" y="-63.5" font-family="Helvetica,sans-Serif" font-size="10.00">src/mesh.c</text>
</a>
</g>
</g>
<!-- Node7&#45;&gt;Node15 -->
<g id="edge21" class="edge">
<title>Node7&#45;&gt;Node15</title>
<path fill="none" stroke="midnightblue" d="M598.56,-114.75C654.49,-106.44 755.76,-91.04 842,-76 846.67,-75.19 851.58,-74.29 856.41,-73.39"/>
<polygon fill="midnightblue" stroke="midnightblue" points="598.03,-111.29 588.66,-116.22 599.06,-118.22 598.03,-111.29"/>
</g>
<!-- Node16 -->
<g id="node16" class="node">
<title>Node16</title>
<g id="a_node16"><a xlink:href="reconstruction_8c.html" target="_top" xlink:title="Contains the reconstruction and limiter functions.">
<polygon fill="white" stroke="black" points="939.5,-56.5 939.5,-75.5 1042.5,-75.5 1042.5,-56.5 939.5,-56.5"/>
<text text-anchor="middle" x="991" y="-63.5" font-family="Helvetica,sans-Serif" font-size="10.00">src/reconstruction.c</text>
</a>
</g>
</g>
<!-- Node7&#45;&gt;Node16 -->
<g id="edge22" class="edge">
<title>Node7&#45;&gt;Node16</title>
<path fill="none" stroke="midnightblue" d="M598.79,-116.28C668.48,-108.5 810.78,-92.23 931,-76 933.71,-75.63 936.5,-75.25 939.3,-74.85"/>
<polygon fill="midnightblue" stroke="midnightblue" points="598.2,-112.82 588.65,-117.41 598.97,-119.78 598.2,-112.82"/>
</g>
<!-- Node17 -->
<g id="node17" class="node">
<title>Node17</title>
<g id="a_node17"><a xlink:href="source_8c.html" target="_top" xlink:title="Contains the functions for initializing and evaluating the source term.">
<polygon fill="white" stroke="black" points="1060.5,-56.5 1060.5,-75.5 1131.5,-75.5 1131.5,-56.5 1060.5,-56.5"/>
<text text-anchor="middle" x="1096" y="-63.5" font-family="Helvetica,sans-Serif" font-size="10.00">src/source.c</text>
</a>
</g>
</g>
<!-- Node7&#45;&gt;Node17 -->
<g id="edge23" class="edge">
<title>Node7&#45;&gt;Node17</title>
<path fill="none" stroke="midnightblue" d="M598.82,-118.72C684.98,-113.79 885.3,-100.53 1052,-76 1054.62,-75.61 1057.32,-75.17 1060.04,-74.7"/>
<polygon fill="midnightblue" stroke="midnightblue" points="598.43,-115.24 588.65,-119.3 598.83,-122.23 598.43,-115.24"/>
</g>
<!-- Node12&#45;&gt;Node4 -->
<g id="edge16" class="edge">
<title>Node12&#45;&gt;Node4</title>
<path fill="none" stroke="midnightblue" d="M573.68,-57.06C491.8,-45.52 342.66,-24.49 278.13,-15.39"/>
<polygon fill="midnightblue" stroke="midnightblue" points="573.41,-60.56 583.8,-58.49 574.39,-53.62 573.41,-60.56"/>
</g>
<!-- Node12&#45;&gt;Node6 -->
<g id="edge17" class="edge">
<title>Node12&#45;&gt;Node6</title>
<path fill="none" stroke="midnightblue" d="M609.97,-50.38C596.59,-40.62 579.44,-28.11 568.11,-19.83"/>
<polygon fill="midnightblue" stroke="midnightblue" points="607.97,-53.26 618.11,-56.32 612.1,-47.6 607.97,-53.26"/>
</g>
<!-- Node12&#45;&gt;Node11 -->
<g id="edge14" class="edge">
<title>Node12&#45;&gt;Node11</title>
<path fill="none" stroke="midnightblue" d="M686.12,-56.07C845.9,-35.92 1021.42,-21.46 1107.27,-14.89"/>
<polygon fill="midnightblue" stroke="midnightblue" points="685.59,-52.61 676.11,-57.35 686.47,-59.56 685.59,-52.61"/>
</g>
<!-- Node12&#45;&gt;Node13 -->
<g id="edge15" class="edge">
<title>Node12&#45;&gt;Node13</title>
<path fill="none" stroke="midnightblue" d="M659.01,-52.37C682.23,-42.26 714.16,-28.35 734.44,-19.52"/>
<polygon fill="midnightblue" stroke="midnightblue" points="657.42,-49.24 649.65,-56.44 660.21,-55.66 657.42,-49.24"/>
</g>
</g>
</svg>
