<?xml version="1.0" encoding="UTF-8" standalone="no"?>
<!DOCTYPE svg PUBLIC "-//W3C//DTD SVG 1.1//EN"
 "http://www.w3.org/Graphics/SVG/1.1/DTD/svg11.dtd">
<!-- Generated by graphviz version 2.42.3 (0)
 -->
<!-- Title: src/boundary.h Pages: 1 -->
<svg width="170pt" height="140pt"
 viewBox="0.00 0.00 169.50 140.00" xmlns="http://www.w3.org/2000/svg" xmlns:xlink="http://www.w3.org/1999/xlink">
<g id="graph0" class="graph" transform="scale(1 1) rotate(0) translate(4 136)">
<title>src/boundary.h</title>
<polygon fill="white" stroke="transparent" points="-4,4 -4,-136 165.5,-136 165.5,4 -4,4"/>
<!-- Node1 -->
<g id="node1" class="node">
<title>Node1</title>
<g id="a_node1"><a xlink:title="Contains the structure definition of a boundary.">
<polygon fill="#bfbfbf" stroke="black" points="69.5,-112.5 69.5,-131.5 150.5,-131.5 150.5,-112.5 69.5,-112.5"/>
<text text-anchor="middle" x="110" y="-119.5" font-family="Helvetica,sans-Serif" font-size="10.00">src/boundary.h</text>
</a>
</g>
</g>
<!-- Node2 -->
<g id="node2" class="node">
<title>Node2</title>
<g id="a_node2"><a xlink:title=" ">
<polygon fill="white" stroke="#bfbfbf" points="0,-56.5 0,-75.5 56,-75.5 56,-56.5 0,-56.5"/>
<text text-anchor="middle" x="28" y="-63.5" font-family="Helvetica,sans-Serif" font-size="10.00">stdbool.h</text>
</a>
</g>
</g>
<!-- Node1&#45;&gt;Node2 -->
<g id="edge1" class="edge">
<title>Node1&#45;&gt;Node2</title>
<path fill="none" stroke="midnightblue" d="M96.83,-112.32C84.15,-103.98 64.77,-91.21 49.79,-81.35"/>
<polygon fill="midnightblue" stroke="midnightblue" points="51.42,-78.23 41.14,-75.65 47.57,-84.08 51.42,-78.23"/>
</g>
<!-- Node3 -->
<g id="node3" class="node">
<title>Node3</title>
<g id="a_node3"><a xlink:href="main_8h.html" target="_top" xlink:title="Contains the global constants and definitions.">
<polygon fill="white" stroke="black" points="87,-0.5 87,-19.5 133,-19.5 133,-0.5 87,-0.5"/>
<text text-anchor="middle" x="110" y="-7.5" font-family="Helvetica,sans-Serif" font-size="10.00">main.h</text>
</a>
</g>
</g>
<!-- Node1&#45;&gt;Node3 -->
<g id="edge2" class="edge">
<title>Node1&#45;&gt;Node3</title>
<path fill="none" stroke="midnightblue" d="M108.51,-112.41C107.02,-103.38 104.85,-88.74 104,-76 102.97,-60.43 104.78,-42.81 106.68,-29.85"/>
<polygon fill="midnightblue" stroke="midnightblue" points="110.16,-30.25 108.3,-19.82 103.25,-29.13 110.16,-30.25"/>
</g>
<!-- Node4 -->
<g id="node4" class="node">
<title>Node4</title>
<g id="a_node4"><a xlink:href="mesh_8h.html" target="_top" xlink:title="Contains the definitions of all structs for the mesh handling.">
<polygon fill="white" stroke="black" points="112.5,-56.5 112.5,-75.5 161.5,-75.5 161.5,-56.5 112.5,-56.5"/>
<text text-anchor="middle" x="137" y="-63.5" font-family="Helvetica,sans-Serif" font-size="10.00">mesh.h</text>
</a>
</g>
</g>
<!-- Node1&#45;&gt;Node4 -->
<g id="edge3" class="edge">
<title>Node1&#45;&gt;Node4</title>
<path fill="none" stroke="midnightblue" d="M109.29,-112.08C111.47,-104.53 116.6,-93.49 122.04,-84.23"/>
<polygon fill="midnightblue" stroke="midnightblue" points="125.03,-86.06 127.49,-75.75 119.14,-82.27 125.03,-86.06"/>
</g>
<!-- Node4&#45;&gt;Node1 -->
<g id="edge5" class="edge">
<title>Node4&#45;&gt;Node1</title>
<path fill="none" stroke="midnightblue" d="M137.76,-75.75C135.62,-83.25 130.51,-94.27 125.08,-103.57"/>
<polygon fill="midnightblue" stroke="midnightblue" points="122.07,-101.77 119.62,-112.08 127.96,-105.55 122.07,-101.77"/>
</g>
<!-- Node4&#45;&gt;Node3 -->
<g id="edge4" class="edge">
<title>Node4&#45;&gt;Node3</title>
<path fill="none" stroke="midnightblue" d="M132.54,-56.08C128.85,-48.69 123.48,-37.95 118.91,-28.81"/>
<polygon fill="midnightblue" stroke="midnightblue" points="121.98,-27.13 114.38,-19.75 115.72,-30.26 121.98,-27.13"/>
</g>
</g>
</svg>
