<?xml version="1.0" encoding="UTF-8" standalone="no"?>
<!DOCTYPE svg PUBLIC "-//W3C//DTD SVG 1.1//EN"
 "http://www.w3.org/Graphics/SVG/1.1/DTD/svg11.dtd">
<!-- Generated by graphviz version 2.42.3 (0)
 -->
<!-- Title: src/equation.h Pages: 1 -->
<svg width="1404pt" height="84pt"
 viewBox="0.00 0.00 1404.00 84.00" xmlns="http://www.w3.org/2000/svg" xmlns:xlink="http://www.w3.org/1999/xlink">
<g id="graph0" class="graph" transform="scale(1 1) rotate(0) translate(4 80)">
<title>src/equation.h</title>
<polygon fill="white" stroke="transparent" points="-4,4 -4,-80 1400,-80 1400,4 -4,4"/>
<!-- Node1 -->
<g id="node1" class="node">
<title>Node1</title>
<g id="a_node1"><a xlink:title=" ">
<polygon fill="#bfbfbf" stroke="black" points="669,-56.5 669,-75.5 747,-75.5 747,-56.5 669,-56.5"/>
<text text-anchor="middle" x="708" y="-63.5" font-family="Helvetica,sans-Serif" font-size="10.00">src/equation.h</text>
</a>
</g>
</g>
<!-- Node2 -->
<g id="node2" class="node">
<title>Node2</title>
<g id="a_node2"><a xlink:href="analyze_8c.html" target="_top" xlink:title="Contains functions for analyzing flow results.">
<polygon fill="white" stroke="black" points="0,-0.5 0,-19.5 74,-19.5 74,-0.5 0,-0.5"/>
<text text-anchor="middle" x="37" y="-7.5" font-family="Helvetica,sans-Serif" font-size="10.00">src/analyze.c</text>
</a>
</g>
</g>
<!-- Node1&#45;&gt;Node2 -->
<g id="edge1" class="edge">
<title>Node1&#45;&gt;Node2</title>
<path fill="none" stroke="midnightblue" d="M658.64,-63.48C552.76,-59.78 296.15,-48.42 83,-20 80.1,-19.61 77.1,-19.16 74.09,-18.66"/>
<polygon fill="midnightblue" stroke="midnightblue" points="658.59,-66.98 668.71,-63.83 658.83,-59.99 658.59,-66.98"/>
</g>
<!-- Node3 -->
<g id="node3" class="node">
<title>Node3</title>
<g id="a_node3"><a xlink:href="boundary_8c.html" target="_top" xlink:title="Contains the functions for initializing and applying boundary conditions.">
<polygon fill="white" stroke="black" points="92.5,-0.5 92.5,-19.5 173.5,-19.5 173.5,-0.5 92.5,-0.5"/>
<text text-anchor="middle" x="133" y="-7.5" font-family="Helvetica,sans-Serif" font-size="10.00">src/boundary.c</text>
</a>
</g>
</g>
<!-- Node1&#45;&gt;Node3 -->
<g id="edge2" class="edge">
<title>Node1&#45;&gt;Node3</title>
<path fill="none" stroke="midnightblue" d="M658.69,-62.3C565.48,-56.86 357.16,-43.09 183,-20 179.94,-19.59 176.78,-19.13 173.61,-18.63"/>
<polygon fill="midnightblue" stroke="midnightblue" points="658.49,-65.8 668.68,-62.88 658.9,-58.81 658.49,-65.8"/>
</g>
<!-- Node4 -->
<g id="node4" class="node">
<title>Node4</title>
<g id="a_node4"><a xlink:href="equation_8c.html" target="_top" xlink:title="Contains the function for initializing the physical constants.">
<polygon fill="white" stroke="black" points="192,-0.5 192,-19.5 270,-19.5 270,-0.5 192,-0.5"/>
<text text-anchor="middle" x="231" y="-7.5" font-family="Helvetica,sans-Serif" font-size="10.00">src/equation.c</text>
</a>
</g>
</g>
<!-- Node1&#45;&gt;Node4 -->
<g id="edge3" class="edge">
<title>Node1&#45;&gt;Node4</title>
<path fill="none" stroke="midnightblue" d="M658.56,-61.12C578.56,-54.55 415.87,-39.98 279,-20 276.15,-19.58 273.21,-19.12 270.25,-18.63"/>
<polygon fill="midnightblue" stroke="midnightblue" points="658.58,-64.63 668.83,-61.96 659.15,-57.66 658.58,-64.63"/>
</g>
<!-- Node5 -->
<g id="node5" class="node">
<title>Node5</title>
<g id="a_node5"><a xlink:href="equationOfState_8c.html" target="_top" xlink:title="Contains conversion functions between the different variable types.">
<polygon fill="white" stroke="black" points="288,-0.5 288,-19.5 400,-19.5 400,-0.5 288,-0.5"/>
<text text-anchor="middle" x="344" y="-7.5" font-family="Helvetica,sans-Serif" font-size="10.00">src/equationOfState.c</text>
</a>
</g>
</g>
<!-- Node1&#45;&gt;Node5 -->
<g id="edge4" class="edge">
<title>Node1&#45;&gt;Node5</title>
<path fill="none" stroke="midnightblue" d="M658.76,-57.69C591.39,-47.7 470.79,-29.81 400.03,-19.31"/>
<polygon fill="midnightblue" stroke="midnightblue" points="658.29,-61.16 668.7,-59.17 659.32,-54.24 658.29,-61.16"/>
</g>
<!-- Node6 -->
<g id="node6" class="node">
<title>Node6</title>
<g id="a_node6"><a xlink:href="exactFunction_8c.html" target="_top" xlink:title="Contains the exact function evaluation function.">
<polygon fill="white" stroke="black" points="418,-0.5 418,-19.5 520,-19.5 520,-0.5 418,-0.5"/>
<text text-anchor="middle" x="469" y="-7.5" font-family="Helvetica,sans-Serif" font-size="10.00">src/exactFunction.c</text>
</a>
</g>
</g>
<!-- Node1&#45;&gt;Node6 -->
<g id="edge5" class="edge">
<title>Node1&#45;&gt;Node6</title>
<path fill="none" stroke="midnightblue" d="M660.28,-54.22C615.11,-44.01 548.23,-28.9 506.69,-19.52"/>
<polygon fill="midnightblue" stroke="midnightblue" points="659.6,-57.65 670.13,-56.44 661.15,-50.83 659.6,-57.65"/>
</g>
<!-- Node7 -->
<g id="node7" class="node">
<title>Node7</title>
<g id="a_node7"><a xlink:href="exactRiemann_8c.html" target="_top" xlink:title="Contains the function to calculate the exact Riemann flux.">
<polygon fill="white" stroke="black" points="538,-0.5 538,-19.5 642,-19.5 642,-0.5 538,-0.5"/>
<text text-anchor="middle" x="590" y="-7.5" font-family="Helvetica,sans-Serif" font-size="10.00">src/exactRiemann.c</text>
</a>
</g>
</g>
<!-- Node1&#45;&gt;Node7 -->
<g id="edge6" class="edge">
<title>Node1&#45;&gt;Node7</title>
<path fill="none" stroke="midnightblue" d="M680.1,-52.23C658.03,-42.13 627.82,-28.31 608.61,-19.52"/>
<polygon fill="midnightblue" stroke="midnightblue" points="678.75,-55.46 689.3,-56.44 681.67,-49.1 678.75,-55.46"/>
</g>
<!-- Node8 -->
<g id="node8" class="node">
<title>Node8</title>
<g id="a_node8"><a xlink:href="finiteVolume_8c.html" target="_top" xlink:title="Finite volume time derivative functions.">
<polygon fill="white" stroke="black" points="660.5,-0.5 660.5,-19.5 755.5,-19.5 755.5,-0.5 660.5,-0.5"/>
<text text-anchor="middle" x="708" y="-7.5" font-family="Helvetica,sans-Serif" font-size="10.00">src/finiteVolume.c</text>
</a>
</g>
</g>
<!-- Node1&#45;&gt;Node8 -->
<g id="edge7" class="edge">
<title>Node1&#45;&gt;Node8</title>
<path fill="none" stroke="midnightblue" d="M708,-45.8C708,-36.91 708,-26.78 708,-19.75"/>
<polygon fill="midnightblue" stroke="midnightblue" points="704.5,-46.08 708,-56.08 711.5,-46.08 704.5,-46.08"/>
</g>
<!-- Node9 -->
<g id="node9" class="node">
<title>Node9</title>
<g id="a_node9"><a xlink:href="fluxCalculation_8c.html" target="_top" xlink:title="Contains the flux calculation functions.">
<polygon fill="white" stroke="black" points="773.5,-0.5 773.5,-19.5 878.5,-19.5 878.5,-0.5 773.5,-0.5"/>
<text text-anchor="middle" x="826" y="-7.5" font-family="Helvetica,sans-Serif" font-size="10.00">src/fluxCalculation.c</text>
</a>
</g>
</g>
<!-- Node1&#45;&gt;Node9 -->
<g id="edge8" class="edge">
<title>Node1&#45;&gt;Node9</title>
<path fill="none" stroke="midnightblue" d="M735.9,-52.23C757.97,-42.13 788.18,-28.31 807.39,-19.52"/>
<polygon fill="midnightblue" stroke="midnightblue" points="734.33,-49.1 726.7,-56.44 737.25,-55.46 734.33,-49.1"/>
</g>
<!-- Node10 -->
<g id="node10" class="node">
<title>Node10</title>
<g id="a_node10"><a xlink:href="initialCondition_8c.html" target="_top" xlink:title="Functions involving the initialization and application of initial conditions.">
<polygon fill="white" stroke="black" points="896.5,-0.5 896.5,-19.5 1001.5,-19.5 1001.5,-0.5 896.5,-0.5"/>
<text text-anchor="middle" x="949" y="-7.5" font-family="Helvetica,sans-Serif" font-size="10.00">src/initialCondition.c</text>
</a>
</g>
</g>
<!-- Node1&#45;&gt;Node10 -->
<g id="edge9" class="edge">
<title>Node1&#45;&gt;Node10</title>
<path fill="none" stroke="midnightblue" d="M756.12,-54.22C801.66,-44.01 869.11,-28.9 910.99,-19.52"/>
<polygon fill="midnightblue" stroke="midnightblue" points="755.18,-50.84 746.19,-56.44 756.71,-57.67 755.18,-50.84"/>
</g>
<!-- Node11 -->
<g id="node11" class="node">
<title>Node11</title>
<g id="a_node11"><a xlink:href="main_8c.html" target="_top" xlink:title="Contains the main function of ccfd">
<polygon fill="white" stroke="black" points="1020,-0.5 1020,-19.5 1082,-19.5 1082,-0.5 1020,-0.5"/>
<text text-anchor="middle" x="1051" y="-7.5" font-family="Helvetica,sans-Serif" font-size="10.00">src/main.c</text>
</a>
</g>
</g>
<!-- Node1&#45;&gt;Node11 -->
<g id="edge10" class="edge">
<title>Node1&#45;&gt;Node11</title>
<path fill="none" stroke="midnightblue" d="M757.35,-58.81C817.48,-51.01 922.04,-36.59 1011,-20 1013.8,-19.48 1016.7,-18.9 1019.6,-18.29"/>
<polygon fill="midnightblue" stroke="midnightblue" points="756.85,-55.35 747.38,-60.1 757.74,-62.29 756.85,-55.35"/>
</g>
<!-- Node12 -->
<g id="node12" class="node">
<title>Node12</title>
<g id="a_node12"><a xlink:href="output_8c.html" target="_top" xlink:title="Contains all functions used for writing flow solutions.">
<polygon fill="white" stroke="black" points="1100,-0.5 1100,-19.5 1168,-19.5 1168,-0.5 1100,-0.5"/>
<text text-anchor="middle" x="1134" y="-7.5" font-family="Helvetica,sans-Serif" font-size="10.00">src/output.c</text>
</a>
</g>
</g>
<!-- Node1&#45;&gt;Node12 -->
<g id="edge11" class="edge">
<title>Node1&#45;&gt;Node12</title>
<path fill="none" stroke="midnightblue" d="M757.31,-60.63C830.44,-53.82 971.81,-39.44 1091,-20 1093.86,-19.53 1096.82,-19.01 1099.78,-18.45"/>
<polygon fill="midnightblue" stroke="midnightblue" points="756.67,-57.17 747.03,-61.58 757.31,-64.14 756.67,-57.17"/>
</g>
<!-- Node13 -->
<g id="node13" class="node">
<title>Node13</title>
<g id="a_node13"><a xlink:href="source_8c.html" target="_top" xlink:title="Contains the functions for initializing and evaluating the source term.">
<polygon fill="white" stroke="black" points="1186.5,-0.5 1186.5,-19.5 1257.5,-19.5 1257.5,-0.5 1186.5,-0.5"/>
<text text-anchor="middle" x="1222" y="-7.5" font-family="Helvetica,sans-Serif" font-size="10.00">src/source.c</text>
</a>
</g>
</g>
<!-- Node1&#45;&gt;Node13 -->
<g id="edge12" class="edge">
<title>Node1&#45;&gt;Node13</title>
<path fill="none" stroke="midnightblue" d="M757.28,-61.93C842.95,-56.22 1024.75,-42.47 1177,-20 1180,-19.56 1183.09,-19.05 1186.2,-18.5"/>
<polygon fill="midnightblue" stroke="midnightblue" points="756.82,-58.45 747.08,-62.6 757.28,-65.44 756.82,-58.45"/>
</g>
<!-- Node14 -->
<g id="node14" class="node">
<title>Node14</title>
<g id="a_node14"><a xlink:href="timeDiscretization_8c.html" target="_top" xlink:title="Contains the functions for performing the time stepping process.">
<polygon fill="white" stroke="black" points="1276,-0.5 1276,-19.5 1396,-19.5 1396,-0.5 1276,-0.5"/>
<text text-anchor="middle" x="1336" y="-7.5" font-family="Helvetica,sans-Serif" font-size="10.00">src/timeDiscretization.c</text>
</a>
</g>
</g>
<!-- Node1&#45;&gt;Node14 -->
<g id="edge13" class="edge">
<title>Node1&#45;&gt;Node14</title>
<path fill="none" stroke="midnightblue" d="M757.17,-61.86C854.59,-55.46 1078.99,-39.82 1267,-20 1269.88,-19.7 1272.83,-19.37 1275.81,-19.03"/>
<polygon fill="midnightblue" stroke="midnightblue" points="756.78,-58.38 747.03,-62.52 757.24,-65.36 756.78,-58.38"/>
</g>
</g>
</svg>
