<?xml version="1.0" encoding="UTF-8" standalone="no"?>
<!DOCTYPE svg PUBLIC "-//W3C//DTD SVG 1.1//EN"
 "http://www.w3.org/Graphics/SVG/1.1/DTD/svg11.dtd">
<!-- Generated by graphviz version 2.42.3 (0)
 -->
<!-- Title: src/euler/fluxCalculation.c Pages: 1 -->
<svg width="469pt" height="196pt"
 viewBox="0.00 0.00 469.21 196.00" xmlns="http://www.w3.org/2000/svg" xmlns:xlink="http://www.w3.org/1999/xlink">
<g id="graph0" class="graph" transform="scale(1 1) rotate(0) translate(4 192)">
<title>src/euler/fluxCalculation.c</title>
<polygon fill="white" stroke="transparent" points="-4,4 -4,-192 465.21,-192 465.21,4 -4,4"/>
<!-- Node1 -->
<g id="node1" class="node">
<title>Node1</title>
<g id="a_node1"><a xlink:title="Contains the flux calculation functions.">
<polygon fill="#bfbfbf" stroke="black" points="152,-168.5 152,-187.5 281,-187.5 281,-168.5 152,-168.5"/>
<text text-anchor="middle" x="216.5" y="-175.5" font-family="Helvetica,sans-Serif" font-size="10.00">src/euler/fluxCalculation.c</text>
</a>
</g>
</g>
<!-- Node2 -->
<g id="node2" class="node">
<title>Node2</title>
<g id="a_node2"><a xlink:title=" ">
<polygon fill="white" stroke="#bfbfbf" points="0,-112.5 0,-131.5 47,-131.5 47,-112.5 0,-112.5"/>
<text text-anchor="middle" x="23.5" y="-119.5" font-family="Helvetica,sans-Serif" font-size="10.00">math.h</text>
</a>
</g>
</g>
<!-- Node1&#45;&gt;Node2 -->
<g id="edge1" class="edge">
<title>Node1&#45;&gt;Node2</title>
<path fill="none" stroke="midnightblue" d="M185.92,-168.44C150.75,-158.6 93.2,-142.5 56.89,-132.34"/>
<polygon fill="midnightblue" stroke="midnightblue" points="57.82,-128.97 47.25,-129.64 55.93,-135.71 57.82,-128.97"/>
</g>
<!-- Node3 -->
<g id="node3" class="node">
<title>Node3</title>
<g id="a_node3"><a xlink:href="main_8h.html" target="_top" xlink:title="Contains the global constants and definitions.">
<polygon fill="white" stroke="black" points="289.5,-0.5 289.5,-19.5 335.5,-19.5 335.5,-0.5 289.5,-0.5"/>
<text text-anchor="middle" x="312.5" y="-7.5" font-family="Helvetica,sans-Serif" font-size="10.00">main.h</text>
</a>
</g>
</g>
<!-- Node1&#45;&gt;Node3 -->
<g id="edge2" class="edge">
<title>Node1&#45;&gt;Node3</title>
<path fill="none" stroke="midnightblue" d="M159.48,-168.49C120.19,-159.77 77.83,-142.95 94.5,-112 130.96,-44.32 227.91,-21.74 279.36,-14.4"/>
<polygon fill="midnightblue" stroke="midnightblue" points="279.85,-17.87 289.31,-13.09 278.94,-10.93 279.85,-17.87"/>
</g>
<!-- Node4 -->
<g id="node4" class="node">
<title>Node4</title>
<g id="a_node4"><a xlink:href="mesh_8h.html" target="_top" xlink:title="Contains the definitions of all structs for the mesh handling.">
<polygon fill="white" stroke="black" points="379,-56.5 379,-75.5 428,-75.5 428,-56.5 379,-56.5"/>
<text text-anchor="middle" x="403.5" y="-63.5" font-family="Helvetica,sans-Serif" font-size="10.00">mesh.h</text>
</a>
</g>
</g>
<!-- Node1&#45;&gt;Node4 -->
<g id="edge3" class="edge">
<title>Node1&#45;&gt;Node4</title>
<path fill="none" stroke="midnightblue" d="M281.24,-173.92C344.57,-169.39 434.6,-158.38 456.5,-132 471,-114.53 448.17,-94.23 428.11,-81.02"/>
<polygon fill="midnightblue" stroke="midnightblue" points="429.85,-77.99 419.52,-75.66 426.15,-83.92 429.85,-77.99"/>
</g>
<!-- Node6 -->
<g id="node6" class="node">
<title>Node6</title>
<g id="a_node6"><a xlink:href="euler_2equation_8h.html" target="_top" xlink:title=" ">
<polygon fill="white" stroke="black" points="103.5,-112.5 103.5,-131.5 165.5,-131.5 165.5,-112.5 103.5,-112.5"/>
<text text-anchor="middle" x="134.5" y="-119.5" font-family="Helvetica,sans-Serif" font-size="10.00">equation.h</text>
</a>
</g>
</g>
<!-- Node1&#45;&gt;Node6 -->
<g id="edge6" class="edge">
<title>Node1&#45;&gt;Node6</title>
<path fill="none" stroke="midnightblue" d="M203.33,-168.32C190.65,-159.98 171.27,-147.21 156.29,-137.35"/>
<polygon fill="midnightblue" stroke="midnightblue" points="157.92,-134.23 147.64,-131.65 154.07,-140.08 157.92,-134.23"/>
</g>
<!-- Node8 -->
<g id="node8" class="node">
<title>Node8</title>
<g id="a_node8"><a xlink:href="euler_2exactRiemann_8h.html" target="_top" xlink:title=" ">
<polygon fill="white" stroke="black" points="267,-112.5 267,-131.5 354,-131.5 354,-112.5 267,-112.5"/>
<text text-anchor="middle" x="310.5" y="-119.5" font-family="Helvetica,sans-Serif" font-size="10.00">exactRiemann.h</text>
</a>
</g>
</g>
<!-- Node1&#45;&gt;Node8 -->
<g id="edge8" class="edge">
<title>Node1&#45;&gt;Node8</title>
<path fill="none" stroke="midnightblue" d="M231.6,-168.32C246.4,-159.82 269.19,-146.73 286.48,-136.8"/>
<polygon fill="midnightblue" stroke="midnightblue" points="288.51,-139.67 295.43,-131.65 285.02,-133.6 288.51,-139.67"/>
</g>
<!-- Node9 -->
<g id="node9" class="node">
<title>Node9</title>
<g id="a_node9"><a xlink:href="euler_2boundary_8h.html" target="_top" xlink:title="Contains the structure definition of a boundary.">
<polygon fill="white" stroke="black" points="184,-112.5 184,-131.5 249,-131.5 249,-112.5 184,-112.5"/>
<text text-anchor="middle" x="216.5" y="-119.5" font-family="Helvetica,sans-Serif" font-size="10.00">boundary.h</text>
</a>
</g>
</g>
<!-- Node1&#45;&gt;Node9 -->
<g id="edge9" class="edge">
<title>Node1&#45;&gt;Node9</title>
<path fill="none" stroke="midnightblue" d="M216.5,-168.08C216.5,-161.01 216.5,-150.86 216.5,-141.99"/>
<polygon fill="midnightblue" stroke="midnightblue" points="220,-141.75 216.5,-131.75 213,-141.75 220,-141.75"/>
</g>
<!-- Node10 -->
<g id="node10" class="node">
<title>Node10</title>
<g id="a_node10"><a xlink:href="linearSolver_8h.html" target="_top" xlink:title=" ">
<polygon fill="white" stroke="black" points="372,-112.5 372,-131.5 447,-131.5 447,-112.5 372,-112.5"/>
<text text-anchor="middle" x="409.5" y="-119.5" font-family="Helvetica,sans-Serif" font-size="10.00">linearSolver.h</text>
</a>
</g>
</g>
<!-- Node1&#45;&gt;Node10 -->
<g id="edge13" class="edge">
<title>Node1&#45;&gt;Node10</title>
<path fill="none" stroke="midnightblue" d="M247.08,-168.44C280.11,-159.2 332.89,-144.44 369.27,-134.26"/>
<polygon fill="midnightblue" stroke="midnightblue" points="370.37,-137.58 379.06,-131.52 368.49,-130.84 370.37,-137.58"/>
</g>
<!-- Node4&#45;&gt;Node3 -->
<g id="edge4" class="edge">
<title>Node4&#45;&gt;Node3</title>
<path fill="none" stroke="midnightblue" d="M388.88,-56.32C374.55,-47.82 352.49,-34.73 335.75,-24.8"/>
<polygon fill="midnightblue" stroke="midnightblue" points="337.47,-21.75 327.08,-19.65 333.9,-27.77 337.47,-21.75"/>
</g>
<!-- Node5 -->
<g id="node5" class="node">
<title>Node5</title>
<g id="a_node5"><a xlink:title=" ">
<polygon fill="white" stroke="#bfbfbf" points="371,-0.5 371,-19.5 436,-19.5 436,-0.5 371,-0.5"/>
<text text-anchor="middle" x="403.5" y="-7.5" font-family="Helvetica,sans-Serif" font-size="10.00">boundary.h</text>
</a>
</g>
</g>
<!-- Node4&#45;&gt;Node5 -->
<g id="edge5" class="edge">
<title>Node4&#45;&gt;Node5</title>
<path fill="none" stroke="midnightblue" d="M403.5,-56.08C403.5,-49.01 403.5,-38.86 403.5,-29.99"/>
<polygon fill="midnightblue" stroke="midnightblue" points="407,-29.75 403.5,-19.75 400,-29.75 407,-29.75"/>
</g>
<!-- Node7 -->
<g id="node7" class="node">
<title>Node7</title>
<g id="a_node7"><a xlink:title=" ">
<polygon fill="white" stroke="#bfbfbf" points="188.5,-56.5 188.5,-75.5 244.5,-75.5 244.5,-56.5 188.5,-56.5"/>
<text text-anchor="middle" x="216.5" y="-63.5" font-family="Helvetica,sans-Serif" font-size="10.00">stdbool.h</text>
</a>
</g>
</g>
<!-- Node6&#45;&gt;Node7 -->
<g id="edge7" class="edge">
<title>Node6&#45;&gt;Node7</title>
<path fill="none" stroke="midnightblue" d="M147.67,-112.32C160.35,-103.98 179.73,-91.21 194.71,-81.35"/>
<polygon fill="midnightblue" stroke="midnightblue" points="196.93,-84.08 203.36,-75.65 193.08,-78.23 196.93,-84.08"/>
</g>
<!-- Node9&#45;&gt;Node3 -->
<g id="edge11" class="edge">
<title>Node9&#45;&gt;Node3</title>
<path fill="none" stroke="midnightblue" d="M224.03,-112.37C240.02,-94.05 277.55,-51.05 298.22,-27.36"/>
<polygon fill="midnightblue" stroke="midnightblue" points="301.06,-29.43 305,-19.59 295.79,-24.82 301.06,-29.43"/>
</g>
<!-- Node9&#45;&gt;Node4 -->
<g id="edge12" class="edge">
<title>Node9&#45;&gt;Node4</title>
<path fill="none" stroke="midnightblue" d="M246.13,-112.44C279.5,-102.81 333.66,-87.17 368.93,-76.98"/>
<polygon fill="midnightblue" stroke="midnightblue" points="370.15,-80.27 378.79,-74.14 368.21,-73.55 370.15,-80.27"/>
</g>
<!-- Node9&#45;&gt;Node7 -->
<g id="edge10" class="edge">
<title>Node9&#45;&gt;Node7</title>
<path fill="none" stroke="midnightblue" d="M216.5,-112.08C216.5,-105.01 216.5,-94.86 216.5,-85.99"/>
<polygon fill="midnightblue" stroke="midnightblue" points="220,-85.75 216.5,-75.75 213,-85.75 220,-85.75"/>
</g>
<!-- Node10&#45;&gt;Node3 -->
<g id="edge15" class="edge">
<title>Node10&#45;&gt;Node3</title>
<path fill="none" stroke="midnightblue" d="M401.89,-112.37C385.74,-94.05 347.82,-51.05 326.93,-27.36"/>
<polygon fill="midnightblue" stroke="midnightblue" points="329.32,-24.78 320.08,-19.59 324.06,-29.41 329.32,-24.78"/>
</g>
<!-- Node10&#45;&gt;Node4 -->
<g id="edge16" class="edge">
<title>Node10&#45;&gt;Node4</title>
<path fill="none" stroke="midnightblue" d="M408.51,-112.08C407.71,-104.93 406.57,-94.64 405.58,-85.69"/>
<polygon fill="midnightblue" stroke="midnightblue" points="409.06,-85.3 404.47,-75.75 402.1,-86.08 409.06,-85.3"/>
</g>
<!-- Node10&#45;&gt;Node7 -->
<g id="edge14" class="edge">
<title>Node10&#45;&gt;Node7</title>
<path fill="none" stroke="midnightblue" d="M378.92,-112.44C345.21,-103.01 290.93,-87.83 254.51,-77.63"/>
<polygon fill="midnightblue" stroke="midnightblue" points="255.31,-74.23 244.74,-74.9 253.43,-80.97 255.31,-74.23"/>
</g>
</g>
</svg>
