<?xml version="1.0" encoding="UTF-8" standalone="no"?>
<!DOCTYPE svg PUBLIC "-//W3C//DTD SVG 1.1//EN"
 "http://www.w3.org/Graphics/SVG/1.1/DTD/svg11.dtd">
<!-- Generated by graphviz version 2.42.3 (0)
 -->
<!-- Title: src/euler/equation.h Pages: 1 -->
<svg width="825pt" height="84pt"
 viewBox="0.00 0.00 825.00 84.00" xmlns="http://www.w3.org/2000/svg" xmlns:xlink="http://www.w3.org/1999/xlink">
<g id="graph0" class="graph" transform="scale(1 1) rotate(0) translate(4 80)">
<title>src/euler/equation.h</title>
<polygon fill="white" stroke="transparent" points="-4,4 -4,-80 821,-80 821,4 -4,4"/>
<!-- Node1 -->
<g id="node1" class="node">
<title>Node1</title>
<g id="a_node1"><a xlink:title=" ">
<polygon fill="#bfbfbf" stroke="black" points="334.5,-56.5 334.5,-75.5 436.5,-75.5 436.5,-56.5 334.5,-56.5"/>
<text text-anchor="middle" x="385.5" y="-63.5" font-family="Helvetica,sans-Serif" font-size="10.00">src/euler/equation.h</text>
</a>
</g>
</g>
<!-- Node2 -->
<g id="node2" class="node">
<title>Node2</title>
<g id="a_node2"><a xlink:href="euler_2boundary_8c.html" target="_top" xlink:title="Contains the functions for initializing and applying boundary conditions.">
<polygon fill="white" stroke="black" points="0,-0.5 0,-19.5 105,-19.5 105,-0.5 0,-0.5"/>
<text text-anchor="middle" x="52.5" y="-7.5" font-family="Helvetica,sans-Serif" font-size="10.00">src/euler/boundary.c</text>
</a>
</g>
</g>
<!-- Node1&#45;&gt;Node2 -->
<g id="edge1" class="edge">
<title>Node1&#45;&gt;Node2</title>
<path fill="none" stroke="midnightblue" d="M324.02,-55.03C261.1,-44.83 164.38,-29.14 104.96,-19.51"/>
<polygon fill="midnightblue" stroke="midnightblue" points="323.77,-58.53 334.2,-56.68 324.89,-51.63 323.77,-58.53"/>
</g>
<!-- Node3 -->
<g id="node3" class="node">
<title>Node3</title>
<g id="a_node3"><a xlink:href="euler_2equation_8c.html" target="_top" xlink:title="Contains the function for initializing the physical constants.">
<polygon fill="white" stroke="black" points="123.5,-0.5 123.5,-19.5 225.5,-19.5 225.5,-0.5 123.5,-0.5"/>
<text text-anchor="middle" x="174.5" y="-7.5" font-family="Helvetica,sans-Serif" font-size="10.00">src/euler/equation.c</text>
</a>
</g>
</g>
<!-- Node1&#45;&gt;Node3 -->
<g id="edge2" class="edge">
<title>Node1&#45;&gt;Node3</title>
<path fill="none" stroke="midnightblue" d="M342.36,-53.96C302.51,-43.76 244.14,-28.82 207.78,-19.52"/>
<polygon fill="midnightblue" stroke="midnightblue" points="341.51,-57.35 352.07,-56.44 343.25,-50.57 341.51,-57.35"/>
</g>
<!-- Node4 -->
<g id="node4" class="node">
<title>Node4</title>
<g id="a_node4"><a xlink:href="euler_2equationOfState_8c.html" target="_top" xlink:title="Contains conversion functions between the different variable types.">
<polygon fill="white" stroke="black" points="243.5,-0.5 243.5,-19.5 379.5,-19.5 379.5,-0.5 243.5,-0.5"/>
<text text-anchor="middle" x="311.5" y="-7.5" font-family="Helvetica,sans-Serif" font-size="10.00">src/euler/equationOfState.c</text>
</a>
</g>
</g>
<!-- Node1&#45;&gt;Node4 -->
<g id="edge3" class="edge">
<title>Node1&#45;&gt;Node4</title>
<path fill="none" stroke="midnightblue" d="M365.47,-50.38C352.09,-40.62 334.94,-28.11 323.61,-19.83"/>
<polygon fill="midnightblue" stroke="midnightblue" points="363.47,-53.26 373.61,-56.32 367.6,-47.6 363.47,-53.26"/>
</g>
<!-- Node5 -->
<g id="node5" class="node">
<title>Node5</title>
<g id="a_node5"><a xlink:href="euler_2exactFunction_8c.html" target="_top" xlink:title="Contains the exact function evaluation function.">
<polygon fill="white" stroke="black" points="397.5,-0.5 397.5,-19.5 523.5,-19.5 523.5,-0.5 397.5,-0.5"/>
<text text-anchor="middle" x="460.5" y="-7.5" font-family="Helvetica,sans-Serif" font-size="10.00">src/euler/exactFunction.c</text>
</a>
</g>
</g>
<!-- Node1&#45;&gt;Node5 -->
<g id="edge4" class="edge">
<title>Node1&#45;&gt;Node5</title>
<path fill="none" stroke="midnightblue" d="M405.81,-50.38C419.36,-40.62 436.74,-28.11 448.23,-19.83"/>
<polygon fill="midnightblue" stroke="midnightblue" points="403.62,-47.64 397.55,-56.32 407.71,-53.32 403.62,-47.64"/>
</g>
<!-- Node6 -->
<g id="node6" class="node">
<title>Node6</title>
<g id="a_node6"><a xlink:href="euler_2exactRiemann_8c.html" target="_top" xlink:title="Contains the function to calculate the exact Riemann flux.">
<polygon fill="white" stroke="black" points="541.5,-0.5 541.5,-19.5 669.5,-19.5 669.5,-0.5 541.5,-0.5"/>
<text text-anchor="middle" x="605.5" y="-7.5" font-family="Helvetica,sans-Serif" font-size="10.00">src/euler/exactRiemann.c</text>
</a>
</g>
</g>
<!-- Node1&#45;&gt;Node6 -->
<g id="edge5" class="edge">
<title>Node1&#45;&gt;Node6</title>
<path fill="none" stroke="midnightblue" d="M430.22,-54.02C471.78,-43.82 532.81,-28.84 570.8,-19.52"/>
<polygon fill="midnightblue" stroke="midnightblue" points="429.24,-50.66 420.36,-56.44 430.91,-57.46 429.24,-50.66"/>
</g>
<!-- Node7 -->
<g id="node7" class="node">
<title>Node7</title>
<g id="a_node7"><a xlink:href="euler_2fluxCalculation_8c.html" target="_top" xlink:title="Contains the flux calculation functions.">
<polygon fill="white" stroke="black" points="688,-0.5 688,-19.5 817,-19.5 817,-0.5 688,-0.5"/>
<text text-anchor="middle" x="752.5" y="-7.5" font-family="Helvetica,sans-Serif" font-size="10.00">src/euler/fluxCalculation.c</text>
</a>
</g>
</g>
<!-- Node1&#45;&gt;Node7 -->
<g id="edge6" class="edge">
<title>Node1&#45;&gt;Node7</title>
<path fill="none" stroke="midnightblue" d="M446.81,-55.98C515.82,-45.82 627.09,-29.45 694.65,-19.51"/>
<polygon fill="midnightblue" stroke="midnightblue" points="445.91,-52.57 436.53,-57.49 446.93,-59.5 445.91,-52.57"/>
</g>
</g>
</svg>
