<?xml version="1.0" encoding="UTF-8" standalone="no"?>
<!DOCTYPE svg PUBLIC "-//W3C//DTD SVG 1.1//EN"
 "http://www.w3.org/Graphics/SVG/1.1/DTD/svg11.dtd">
<!-- Generated by graphviz version 2.42.3 (0)
 -->
<!-- Title: src/euler/equation.h Pages: 1 -->
<svg width="938pt" height="84pt"
 viewBox="0.00 0.00 938.00 84.00" xmlns="http://www.w3.org/2000/svg" xmlns:xlink="http://www.w3.org/1999/xlink">
<g id="graph0" class="graph" transform="scale(1 1) rotate(0) translate(4 80)">
<title>src/euler/equation.h</title>
<polygon fill="white" stroke="transparent" points="-4,4 -4,-80 934,-80 934,4 -4,4"/>
<!-- Node1 -->
<g id="node1" class="node">
<title>Node1</title>
<g id="a_node1"><a xlink:title=" ">
<polygon fill="#bfbfbf" stroke="black" points="409.5,-56.5 409.5,-75.5 511.5,-75.5 511.5,-56.5 409.5,-56.5"/>
<text text-anchor="middle" x="460.5" y="-63.5" font-family="Helvetica,sans-Serif" font-size="10.00">src/euler/equation.h</text>
</a>
</g>
</g>
<!-- Node2 -->
<g id="node2" class="node">
<title>Node2</title>
<g id="a_node2"><a xlink:href="euler_2boundary_8c.html" target="_top" xlink:title="Contains the functions for initializing and applying boundary conditions.">
<polygon fill="white" stroke="black" points="0,-0.5 0,-19.5 105,-19.5 105,-0.5 0,-0.5"/>
<text text-anchor="middle" x="52.5" y="-7.5" font-family="Helvetica,sans-Serif" font-size="10.00">src/euler/boundary.c</text>
</a>
</g>
</g>
<!-- Node1&#45;&gt;Node2 -->
<g id="edge1" class="edge">
<title>Node1&#45;&gt;Node2</title>
<path fill="none" stroke="midnightblue" d="M399.19,-57.3C330,-48.56 214.1,-33.71 114.5,-20 111.48,-19.58 108.38,-19.15 105.26,-18.71"/>
<polygon fill="midnightblue" stroke="midnightblue" points="399.1,-60.82 409.46,-58.6 399.98,-53.88 399.1,-60.82"/>
</g>
<!-- Node3 -->
<g id="node3" class="node">
<title>Node3</title>
<g id="a_node3"><a xlink:href="euler_2equation_8c.html" target="_top" xlink:title="Contains the function for initializing the physical constants.">
<polygon fill="white" stroke="black" points="123.5,-0.5 123.5,-19.5 225.5,-19.5 225.5,-0.5 123.5,-0.5"/>
<text text-anchor="middle" x="174.5" y="-7.5" font-family="Helvetica,sans-Serif" font-size="10.00">src/euler/equation.c</text>
</a>
</g>
</g>
<!-- Node1&#45;&gt;Node3 -->
<g id="edge2" class="edge">
<title>Node1&#45;&gt;Node3</title>
<path fill="none" stroke="midnightblue" d="M405.09,-54.54C351.03,-44.33 269.83,-29 219.61,-19.52"/>
<polygon fill="midnightblue" stroke="midnightblue" points="404.71,-58.03 415.18,-56.44 406.01,-51.15 404.71,-58.03"/>
</g>
<!-- Node4 -->
<g id="node4" class="node">
<title>Node4</title>
<g id="a_node4"><a xlink:href="euler_2equationOfState_8c.html" target="_top" xlink:title="Contains conversion functions between the different variable types.">
<polygon fill="white" stroke="black" points="243.5,-0.5 243.5,-19.5 379.5,-19.5 379.5,-0.5 243.5,-0.5"/>
<text text-anchor="middle" x="311.5" y="-7.5" font-family="Helvetica,sans-Serif" font-size="10.00">src/euler/equationOfState.c</text>
</a>
</g>
</g>
<!-- Node1&#45;&gt;Node4 -->
<g id="edge3" class="edge">
<title>Node1&#45;&gt;Node4</title>
<path fill="none" stroke="midnightblue" d="M427.13,-52.91C399.12,-42.75 359.8,-28.51 335,-19.52"/>
<polygon fill="midnightblue" stroke="midnightblue" points="426.3,-56.33 436.89,-56.44 428.68,-49.75 426.3,-56.33"/>
</g>
<!-- Node5 -->
<g id="node5" class="node">
<title>Node5</title>
<g id="a_node5"><a xlink:href="euler_2exactFunction_8c.html" target="_top" xlink:title="Contains the exact function evaluation function.">
<polygon fill="white" stroke="black" points="397.5,-0.5 397.5,-19.5 523.5,-19.5 523.5,-0.5 397.5,-0.5"/>
<text text-anchor="middle" x="460.5" y="-7.5" font-family="Helvetica,sans-Serif" font-size="10.00">src/euler/exactFunction.c</text>
</a>
</g>
</g>
<!-- Node1&#45;&gt;Node5 -->
<g id="edge4" class="edge">
<title>Node1&#45;&gt;Node5</title>
<path fill="none" stroke="midnightblue" d="M460.5,-45.8C460.5,-36.91 460.5,-26.78 460.5,-19.75"/>
<polygon fill="midnightblue" stroke="midnightblue" points="457,-46.08 460.5,-56.08 464,-46.08 457,-46.08"/>
</g>
<!-- Node6 -->
<g id="node6" class="node">
<title>Node6</title>
<g id="a_node6"><a xlink:href="euler_2exactRiemann_8c.html" target="_top" xlink:title="Contains the function to calculate the exact Riemann flux.">
<polygon fill="white" stroke="black" points="541.5,-0.5 541.5,-19.5 669.5,-19.5 669.5,-0.5 541.5,-0.5"/>
<text text-anchor="middle" x="605.5" y="-7.5" font-family="Helvetica,sans-Serif" font-size="10.00">src/euler/exactRiemann.c</text>
</a>
</g>
</g>
<!-- Node1&#45;&gt;Node6 -->
<g id="edge5" class="edge">
<title>Node1&#45;&gt;Node6</title>
<path fill="none" stroke="midnightblue" d="M492.98,-52.91C520.24,-42.75 558.49,-28.51 582.63,-19.52"/>
<polygon fill="midnightblue" stroke="midnightblue" points="491.63,-49.67 483.48,-56.44 494.07,-56.23 491.63,-49.67"/>
</g>
<!-- Node7 -->
<g id="node7" class="node">
<title>Node7</title>
<g id="a_node7"><a xlink:href="euler_2fluxCalculation_8c.html" target="_top" xlink:title="Contains the flux calculation functions.">
<polygon fill="white" stroke="black" points="688,-0.5 688,-19.5 817,-19.5 817,-0.5 688,-0.5"/>
<text text-anchor="middle" x="752.5" y="-7.5" font-family="Helvetica,sans-Serif" font-size="10.00">src/euler/fluxCalculation.c</text>
</a>
</g>
</g>
<!-- Node1&#45;&gt;Node7 -->
<g id="edge6" class="edge">
<title>Node1&#45;&gt;Node7</title>
<path fill="none" stroke="midnightblue" d="M516.73,-54.6C571.92,-44.4 655.06,-29.02 706.45,-19.52"/>
<polygon fill="midnightblue" stroke="midnightblue" points="515.97,-51.18 506.77,-56.44 517.24,-58.07 515.97,-51.18"/>
</g>
<!-- Node8 -->
<g id="node8" class="node">
<title>Node8</title>
<g id="a_node8"><a xlink:href="euler_2source_8c.html" target="_top" xlink:title="Contains the functions for initializing and evaluating the source term.">
<polygon fill="white" stroke="black" points="835,-0.5 835,-19.5 930,-19.5 930,-0.5 835,-0.5"/>
<text text-anchor="middle" x="882.5" y="-7.5" font-family="Helvetica,sans-Serif" font-size="10.00">src/euler/source.c</text>
</a>
</g>
</g>
<!-- Node1&#45;&gt;Node8 -->
<g id="edge7" class="edge">
<title>Node1&#45;&gt;Node8</title>
<path fill="none" stroke="midnightblue" d="M522.16,-58.12C594.98,-49.84 719.72,-35.14 826.5,-20 829.23,-19.61 832.03,-19.2 834.86,-18.78"/>
<polygon fill="midnightblue" stroke="midnightblue" points="521.34,-54.69 511.8,-59.3 522.13,-61.65 521.34,-54.69"/>
</g>
</g>
</svg>
