<?xml version="1.0" encoding="UTF-8" standalone="no"?>
<!DOCTYPE svg PUBLIC "-//W3C//DTD SVG 1.1//EN"
 "http://www.w3.org/Graphics/SVG/1.1/DTD/svg11.dtd">
<!-- Generated by graphviz version 2.44.0 (0)
 -->
<!-- Title: src/exactFunction.h Pages: 1 -->
<svg width="391pt" height="84pt"
 viewBox="0.00 0.00 391.00 84.00" xmlns="http://www.w3.org/2000/svg" xmlns:xlink="http://www.w3.org/1999/xlink">
<g id="graph0" class="graph" transform="scale(1 1) rotate(0) translate(4 80)">
<title>src/exactFunction.h</title>
<polygon fill="white" stroke="transparent" points="-4,4 -4,-80 387,-80 387,4 -4,4"/>
<!-- Node1 -->
<g id="node1" class="node">
<title>Node1</title>
<g id="a_node1"><a xlink:title=" ">
<polygon fill="#bfbfbf" stroke="black" points="137,-56.5 137,-75.5 239,-75.5 239,-56.5 137,-56.5"/>
<text text-anchor="middle" x="188" y="-63.5" font-family="Helvetica,sans-Serif" font-size="10.00">src/exactFunction.h</text>
</a>
</g>
</g>
<!-- Node2 -->
<g id="node2" class="node">
<title>Node2</title>
<g id="a_node2"><a xlink:href="analyze_8c.html" target="_top" xlink:title="Contains functions for analyzing flow results.">
<polygon fill="white" stroke="black" points="0,-0.5 0,-19.5 74,-19.5 74,-0.5 0,-0.5"/>
<text text-anchor="middle" x="37" y="-7.5" font-family="Helvetica,sans-Serif" font-size="10.00">src/analyze.c</text>
</a>
</g>
</g>
<!-- Node1&#45;&gt;Node2 -->
<g id="edge1" class="edge">
<title>Node1&#45;&gt;Node2</title>
<path fill="none" stroke="midnightblue" d="M154.55,-53.04C126.14,-42.88 86.06,-28.55 60.81,-19.52"/>
<polygon fill="midnightblue" stroke="midnightblue" points="153.48,-56.37 164.07,-56.44 155.84,-49.78 153.48,-56.37"/>
</g>
<!-- Node3 -->
<g id="node3" class="node">
<title>Node3</title>
<g id="a_node3"><a xlink:href="boundary_8c.html" target="_top" xlink:title="Contains the functions for initializing and applying boundary conditions.">
<polygon fill="white" stroke="black" points="92.5,-0.5 92.5,-19.5 173.5,-19.5 173.5,-0.5 92.5,-0.5"/>
<text text-anchor="middle" x="133" y="-7.5" font-family="Helvetica,sans-Serif" font-size="10.00">src/boundary.c</text>
</a>
</g>
</g>
<!-- Node1&#45;&gt;Node3 -->
<g id="edge2" class="edge">
<title>Node1&#45;&gt;Node3</title>
<path fill="none" stroke="midnightblue" d="M171.71,-49C161.96,-39.43 149.95,-27.64 141.91,-19.75"/>
<polygon fill="midnightblue" stroke="midnightblue" points="169.33,-51.57 178.92,-56.08 174.23,-46.58 169.33,-51.57"/>
</g>
<!-- Node4 -->
<g id="node4" class="node">
<title>Node4</title>
<g id="a_node4"><a xlink:href="initialCondition_8c.html" target="_top" xlink:title="Functions involving the initialization and application of initial conditions.">
<polygon fill="white" stroke="black" points="191.5,-0.5 191.5,-19.5 296.5,-19.5 296.5,-0.5 191.5,-0.5"/>
<text text-anchor="middle" x="244" y="-7.5" font-family="Helvetica,sans-Serif" font-size="10.00">src/initialCondition.c</text>
</a>
</g>
</g>
<!-- Node1&#45;&gt;Node4 -->
<g id="edge3" class="edge">
<title>Node1&#45;&gt;Node4</title>
<path fill="none" stroke="midnightblue" d="M204.33,-49.25C214.26,-39.67 226.59,-27.79 234.84,-19.83"/>
<polygon fill="midnightblue" stroke="midnightblue" points="201.77,-46.86 197,-56.32 206.63,-51.9 201.77,-46.86"/>
</g>
<!-- Node5 -->
<g id="node5" class="node">
<title>Node5</title>
<g id="a_node5"><a xlink:href="output_8c.html" target="_top" xlink:title="Contains all functions used for writing flow solutions.">
<polygon fill="white" stroke="black" points="315,-0.5 315,-19.5 383,-19.5 383,-0.5 315,-0.5"/>
<text text-anchor="middle" x="349" y="-7.5" font-family="Helvetica,sans-Serif" font-size="10.00">src/output.c</text>
</a>
</g>
</g>
<!-- Node1&#45;&gt;Node5 -->
<g id="edge4" class="edge">
<title>Node1&#45;&gt;Node5</title>
<path fill="none" stroke="midnightblue" d="M223.26,-53.17C253.58,-43 296.57,-28.59 323.61,-19.52"/>
<polygon fill="midnightblue" stroke="midnightblue" points="221.88,-49.95 213.51,-56.44 224.1,-56.58 221.88,-49.95"/>
</g>
</g>
</svg>
