<?xml version="1.0" encoding="UTF-8" standalone="no"?>
<!DOCTYPE svg PUBLIC "-//W3C//DTD SVG 1.1//EN"
 "http://www.w3.org/Graphics/SVG/1.1/DTD/svg11.dtd">
<!-- Generated by graphviz version 2.42.3 (0)
 -->
<!-- Title: src/finiteVolume.c Pages: 1 -->
<svg width="738pt" height="140pt"
 viewBox="0.00 0.00 738.00 140.00" xmlns="http://www.w3.org/2000/svg" xmlns:xlink="http://www.w3.org/1999/xlink">
<g id="graph0" class="graph" transform="scale(1 1) rotate(0) translate(4 136)">
<title>src/finiteVolume.c</title>
<polygon fill="white" stroke="transparent" points="-4,4 -4,-136 734,-136 734,4 -4,4"/>
<!-- Node1 -->
<g id="node1" class="node">
<title>Node1</title>
<g id="a_node1"><a xlink:title="Finite volume time derivative functions.">
<polygon fill="#bfbfbf" stroke="black" points="287.5,-112.5 287.5,-131.5 382.5,-131.5 382.5,-112.5 287.5,-112.5"/>
<text text-anchor="middle" x="335" y="-119.5" font-family="Helvetica,sans-Serif" font-size="10.00">src/finiteVolume.c</text>
</a>
</g>
</g>
<!-- Node2 -->
<g id="node2" class="node">
<title>Node2</title>
<g id="a_node2"><a xlink:title=" ">
<polygon fill="white" stroke="#bfbfbf" points="0,-56.5 0,-75.5 46,-75.5 46,-56.5 0,-56.5"/>
<text text-anchor="middle" x="23" y="-63.5" font-family="Helvetica,sans-Serif" font-size="10.00">stdio.h</text>
</a>
</g>
</g>
<!-- Node1&#45;&gt;Node2 -->
<g id="edge1" class="edge">
<title>Node1&#45;&gt;Node2</title>
<path fill="none" stroke="midnightblue" d="M287.12,-115.01C233.2,-107.88 142.8,-94.81 56.32,-76.09"/>
<polygon fill="midnightblue" stroke="midnightblue" points="56.86,-72.62 46.34,-73.9 55.36,-79.46 56.86,-72.62"/>
</g>
<!-- Node3 -->
<g id="node3" class="node">
<title>Node3</title>
<g id="a_node3"><a xlink:title=" ">
<polygon fill="white" stroke="#bfbfbf" points="64,-56.5 64,-75.5 112,-75.5 112,-56.5 64,-56.5"/>
<text text-anchor="middle" x="88" y="-63.5" font-family="Helvetica,sans-Serif" font-size="10.00">stdlib.h</text>
</a>
</g>
</g>
<!-- Node1&#45;&gt;Node3 -->
<g id="edge2" class="edge">
<title>Node1&#45;&gt;Node3</title>
<path fill="none" stroke="midnightblue" d="M290.56,-112.45C249.28,-104.33 185.88,-91.41 121.95,-76.12"/>
<polygon fill="midnightblue" stroke="midnightblue" points="122.65,-72.69 112.11,-73.75 121.01,-79.5 122.65,-72.69"/>
</g>
<!-- Node4 -->
<g id="node4" class="node">
<title>Node4</title>
<g id="a_node4"><a xlink:title=" ">
<polygon fill="white" stroke="#bfbfbf" points="130.5,-56.5 130.5,-75.5 177.5,-75.5 177.5,-56.5 130.5,-56.5"/>
<text text-anchor="middle" x="154" y="-63.5" font-family="Helvetica,sans-Serif" font-size="10.00">math.h</text>
</a>
</g>
</g>
<!-- Node1&#45;&gt;Node4 -->
<g id="edge3" class="edge">
<title>Node1&#45;&gt;Node4</title>
<path fill="none" stroke="midnightblue" d="M306.32,-112.44C274.07,-102.82 221.76,-87.21 187.61,-77.03"/>
<polygon fill="midnightblue" stroke="midnightblue" points="188.23,-73.56 177.64,-74.05 186.22,-80.27 188.23,-73.56"/>
</g>
<!-- Node5 -->
<g id="node5" class="node">
<title>Node5</title>
<g id="a_node5"><a xlink:href="main_8h.html" target="_top" xlink:title="Contains the global constants and definitions.">
<polygon fill="white" stroke="black" points="344,-0.5 344,-19.5 390,-19.5 390,-0.5 344,-0.5"/>
<text text-anchor="middle" x="367" y="-7.5" font-family="Helvetica,sans-Serif" font-size="10.00">main.h</text>
</a>
</g>
</g>
<!-- Node1&#45;&gt;Node5 -->
<g id="edge4" class="edge">
<title>Node1&#45;&gt;Node5</title>
<path fill="none" stroke="midnightblue" d="M338.05,-112.43C341.2,-103.41 346.2,-88.79 350,-76 354.57,-60.61 359.14,-42.97 362.39,-29.96"/>
<polygon fill="midnightblue" stroke="midnightblue" points="365.88,-30.43 364.87,-19.88 359.08,-28.76 365.88,-30.43"/>
</g>
<!-- Node6 -->
<g id="node6" class="node">
<title>Node6</title>
<g id="a_node6"><a xlink:href="finiteVolume_8h.html" target="_top" xlink:title=" ">
<polygon fill="white" stroke="black" points="263,-56.5 263,-75.5 341,-75.5 341,-56.5 263,-56.5"/>
<text text-anchor="middle" x="302" y="-63.5" font-family="Helvetica,sans-Serif" font-size="10.00">finiteVolume.h</text>
</a>
</g>
</g>
<!-- Node1&#45;&gt;Node6 -->
<g id="edge5" class="edge">
<title>Node1&#45;&gt;Node6</title>
<path fill="none" stroke="midnightblue" d="M329.55,-112.08C324.99,-104.61 318.33,-93.72 312.71,-84.52"/>
<polygon fill="midnightblue" stroke="midnightblue" points="315.55,-82.46 307.35,-75.75 309.58,-86.11 315.55,-82.46"/>
</g>
<!-- Node7 -->
<g id="node7" class="node">
<title>Node7</title>
<g id="a_node7"><a xlink:href="mesh_8h.html" target="_top" xlink:title="Contains the definitions of all structs for the mesh handling.">
<polygon fill="white" stroke="black" points="195.5,-56.5 195.5,-75.5 244.5,-75.5 244.5,-56.5 195.5,-56.5"/>
<text text-anchor="middle" x="220" y="-63.5" font-family="Helvetica,sans-Serif" font-size="10.00">mesh.h</text>
</a>
</g>
</g>
<!-- Node1&#45;&gt;Node7 -->
<g id="edge6" class="edge">
<title>Node1&#45;&gt;Node7</title>
<path fill="none" stroke="midnightblue" d="M316.78,-112.44C298.1,-103.68 268.84,-89.94 247.38,-79.86"/>
<polygon fill="midnightblue" stroke="midnightblue" points="248.68,-76.6 238.14,-75.52 245.7,-82.93 248.68,-76.6"/>
</g>
<!-- Node9 -->
<g id="node9" class="node">
<title>Node9</title>
<g id="a_node9"><a xlink:href="readInTools_8h.html" target="_top" xlink:title=" ">
<polygon fill="white" stroke="black" points="397,-56.5 397,-75.5 471,-75.5 471,-56.5 397,-56.5"/>
<text text-anchor="middle" x="434" y="-63.5" font-family="Helvetica,sans-Serif" font-size="10.00">readInTools.h</text>
</a>
</g>
</g>
<!-- Node1&#45;&gt;Node9 -->
<g id="edge9" class="edge">
<title>Node1&#45;&gt;Node9</title>
<path fill="none" stroke="midnightblue" d="M350.91,-112.32C366.64,-103.74 390.94,-90.49 409.21,-80.52"/>
<polygon fill="midnightblue" stroke="midnightblue" points="411.03,-83.52 418.13,-75.65 407.68,-77.37 411.03,-83.52"/>
</g>
<!-- Node11 -->
<g id="node11" class="node">
<title>Node11</title>
<g id="a_node11"><a xlink:title=" ">
<polygon fill="white" stroke="#bfbfbf" points="489.5,-56.5 489.5,-75.5 578.5,-75.5 578.5,-56.5 489.5,-56.5"/>
<text text-anchor="middle" x="534" y="-63.5" font-family="Helvetica,sans-Serif" font-size="10.00">fluxCalculation.h</text>
</a>
</g>
</g>
<!-- Node1&#45;&gt;Node11 -->
<g id="edge12" class="edge">
<title>Node1&#45;&gt;Node11</title>
<path fill="none" stroke="midnightblue" d="M366.53,-112.44C400.59,-103.2 455.01,-88.44 492.52,-78.26"/>
<polygon fill="midnightblue" stroke="midnightblue" points="493.88,-81.51 502.62,-75.52 492.05,-74.76 493.88,-81.51"/>
</g>
<!-- Node12 -->
<g id="node12" class="node">
<title>Node12</title>
<g id="a_node12"><a xlink:title=" ">
<polygon fill="white" stroke="#bfbfbf" points="596,-56.5 596,-75.5 658,-75.5 658,-56.5 596,-56.5"/>
<text text-anchor="middle" x="627" y="-63.5" font-family="Helvetica,sans-Serif" font-size="10.00">equation.h</text>
</a>
</g>
</g>
<!-- Node1&#45;&gt;Node12 -->
<g id="edge13" class="edge">
<title>Node1&#45;&gt;Node12</title>
<path fill="none" stroke="midnightblue" d="M382.7,-113.26C431.47,-105.18 509.67,-91.76 585.72,-76.4"/>
<polygon fill="midnightblue" stroke="midnightblue" points="586.85,-79.74 595.95,-74.31 585.45,-72.88 586.85,-79.74"/>
</g>
<!-- Node13 -->
<g id="node13" class="node">
<title>Node13</title>
<g id="a_node13"><a xlink:title=" ">
<polygon fill="white" stroke="#bfbfbf" points="676,-56.5 676,-75.5 730,-75.5 730,-56.5 676,-56.5"/>
<text text-anchor="middle" x="703" y="-63.5" font-family="Helvetica,sans-Serif" font-size="10.00">source.h</text>
</a>
</g>
</g>
<!-- Node1&#45;&gt;Node13 -->
<g id="edge14" class="edge">
<title>Node1&#45;&gt;Node13</title>
<path fill="none" stroke="midnightblue" d="M382.55,-116.22C445.29,-109.55 559.3,-96.16 665.98,-76.01"/>
<polygon fill="midnightblue" stroke="midnightblue" points="666.78,-79.42 675.94,-74.1 665.46,-72.55 666.78,-79.42"/>
</g>
<!-- Node7&#45;&gt;Node5 -->
<g id="edge7" class="edge">
<title>Node7&#45;&gt;Node5</title>
<path fill="none" stroke="midnightblue" d="M243.29,-56.44C267.81,-47.44 306.6,-33.19 334.2,-23.05"/>
<polygon fill="midnightblue" stroke="midnightblue" points="335.64,-26.25 343.82,-19.52 333.22,-19.68 335.64,-26.25"/>
</g>
<!-- Node8 -->
<g id="node8" class="node">
<title>Node8</title>
<g id="a_node8"><a xlink:title=" ">
<polygon fill="white" stroke="#bfbfbf" points="187.5,-0.5 187.5,-19.5 252.5,-19.5 252.5,-0.5 187.5,-0.5"/>
<text text-anchor="middle" x="220" y="-7.5" font-family="Helvetica,sans-Serif" font-size="10.00">boundary.h</text>
</a>
</g>
</g>
<!-- Node7&#45;&gt;Node8 -->
<g id="edge8" class="edge">
<title>Node7&#45;&gt;Node8</title>
<path fill="none" stroke="midnightblue" d="M220,-56.08C220,-49.01 220,-38.86 220,-29.99"/>
<polygon fill="midnightblue" stroke="midnightblue" points="223.5,-29.75 220,-19.75 216.5,-29.75 223.5,-29.75"/>
</g>
<!-- Node9&#45;&gt;Node5 -->
<g id="edge11" class="edge">
<title>Node9&#45;&gt;Node5</title>
<path fill="none" stroke="midnightblue" d="M423.24,-56.32C413.23,-48.26 398.11,-36.08 386.07,-26.37"/>
<polygon fill="midnightblue" stroke="midnightblue" points="387.94,-23.38 377.96,-19.83 383.55,-28.83 387.94,-23.38"/>
</g>
<!-- Node10 -->
<g id="node10" class="node">
<title>Node10</title>
<g id="a_node10"><a xlink:title=" ">
<polygon fill="white" stroke="#bfbfbf" points="408,-0.5 408,-19.5 464,-19.5 464,-0.5 408,-0.5"/>
<text text-anchor="middle" x="436" y="-7.5" font-family="Helvetica,sans-Serif" font-size="10.00">stdbool.h</text>
</a>
</g>
</g>
<!-- Node9&#45;&gt;Node10 -->
<g id="edge10" class="edge">
<title>Node9&#45;&gt;Node10</title>
<path fill="none" stroke="midnightblue" d="M434.33,-56.08C434.59,-49.01 434.97,-38.86 435.3,-29.99"/>
<polygon fill="midnightblue" stroke="midnightblue" points="438.8,-29.87 435.68,-19.75 431.81,-29.61 438.8,-29.87"/>
</g>
</g>
</svg>
