<?xml version="1.0" encoding="UTF-8" standalone="no"?>
<!DOCTYPE svg PUBLIC "-//W3C//DTD SVG 1.1//EN"
 "http://www.w3.org/Graphics/SVG/1.1/DTD/svg11.dtd">
<!-- Generated by graphviz version 2.42.3 (0)
 -->
<!-- Title: src/finiteVolume.c Pages: 1 -->
<svg width="893pt" height="196pt"
 viewBox="0.00 0.00 893.00 196.00" xmlns="http://www.w3.org/2000/svg" xmlns:xlink="http://www.w3.org/1999/xlink">
<g id="graph0" class="graph" transform="scale(1 1) rotate(0) translate(4 192)">
<title>src/finiteVolume.c</title>
<polygon fill="white" stroke="transparent" points="-4,4 -4,-192 889,-192 889,4 -4,4"/>
<!-- Node1 -->
<g id="node1" class="node">
<title>Node1</title>
<g id="a_node1"><a xlink:title="Finite volume time derivative functions.">
<polygon fill="#bfbfbf" stroke="black" points="306.5,-168.5 306.5,-187.5 401.5,-187.5 401.5,-168.5 306.5,-168.5"/>
<text text-anchor="middle" x="354" y="-175.5" font-family="Helvetica,sans-Serif" font-size="10.00">src/finiteVolume.c</text>
</a>
</g>
</g>
<!-- Node2 -->
<g id="node2" class="node">
<title>Node2</title>
<g id="a_node2"><a xlink:title=" ">
<polygon fill="white" stroke="#bfbfbf" points="0,-112.5 0,-131.5 46,-131.5 46,-112.5 0,-112.5"/>
<text text-anchor="middle" x="23" y="-119.5" font-family="Helvetica,sans-Serif" font-size="10.00">stdio.h</text>
</a>
</g>
</g>
<!-- Node1&#45;&gt;Node2 -->
<g id="edge1" class="edge">
<title>Node1&#45;&gt;Node2</title>
<path fill="none" stroke="midnightblue" d="M306.29,-171.68C249.02,-164.89 149.95,-151.83 56.26,-132.05"/>
<polygon fill="midnightblue" stroke="midnightblue" points="56.85,-128.6 46.33,-129.93 55.38,-135.44 56.85,-128.6"/>
</g>
<!-- Node3 -->
<g id="node3" class="node">
<title>Node3</title>
<g id="a_node3"><a xlink:title=" ">
<polygon fill="white" stroke="#bfbfbf" points="64,-112.5 64,-131.5 112,-131.5 112,-112.5 64,-112.5"/>
<text text-anchor="middle" x="88" y="-119.5" font-family="Helvetica,sans-Serif" font-size="10.00">stdlib.h</text>
</a>
</g>
</g>
<!-- Node1&#45;&gt;Node3 -->
<g id="edge2" class="edge">
<title>Node1&#45;&gt;Node3</title>
<path fill="none" stroke="midnightblue" d="M306.48,-168.91C261.35,-160.98 191.44,-148.07 121.9,-132.07"/>
<polygon fill="midnightblue" stroke="midnightblue" points="122.63,-128.65 112.1,-129.8 121.05,-135.47 122.63,-128.65"/>
</g>
<!-- Node4 -->
<g id="node4" class="node">
<title>Node4</title>
<g id="a_node4"><a xlink:title=" ">
<polygon fill="white" stroke="#bfbfbf" points="130.5,-112.5 130.5,-131.5 177.5,-131.5 177.5,-112.5 130.5,-112.5"/>
<text text-anchor="middle" x="154" y="-119.5" font-family="Helvetica,sans-Serif" font-size="10.00">math.h</text>
</a>
</g>
</g>
<!-- Node1&#45;&gt;Node4 -->
<g id="edge3" class="edge">
<title>Node1&#45;&gt;Node4</title>
<path fill="none" stroke="midnightblue" d="M322.31,-168.44C285.56,-158.52 225.24,-142.23 187.67,-132.09"/>
<polygon fill="midnightblue" stroke="midnightblue" points="188.28,-128.63 177.71,-129.4 186.46,-135.39 188.28,-128.63"/>
</g>
<!-- Node5 -->
<g id="node5" class="node">
<title>Node5</title>
<g id="a_node5"><a xlink:href="main_8h.html" target="_top" xlink:title="Contains the global constants and definitions.">
<polygon fill="white" stroke="black" points="229,-0.5 229,-19.5 275,-19.5 275,-0.5 229,-0.5"/>
<text text-anchor="middle" x="252" y="-7.5" font-family="Helvetica,sans-Serif" font-size="10.00">main.h</text>
</a>
</g>
</g>
<!-- Node1&#45;&gt;Node5 -->
<g id="edge4" class="edge">
<title>Node1&#45;&gt;Node5</title>
<path fill="none" stroke="midnightblue" d="M312.41,-168.43C290.65,-161.91 265.23,-150.74 249,-132 226.46,-105.98 227.49,-89.81 234,-56 235.79,-46.7 239.48,-36.89 243.06,-28.8"/>
<polygon fill="midnightblue" stroke="midnightblue" points="246.27,-30.2 247.38,-19.66 239.94,-27.21 246.27,-30.2"/>
</g>
<!-- Node6 -->
<g id="node6" class="node">
<title>Node6</title>
<g id="a_node6"><a xlink:href="finiteVolume_8h.html" target="_top" xlink:title=" ">
<polygon fill="white" stroke="black" points="523,-112.5 523,-131.5 601,-131.5 601,-112.5 523,-112.5"/>
<text text-anchor="middle" x="562" y="-119.5" font-family="Helvetica,sans-Serif" font-size="10.00">finiteVolume.h</text>
</a>
</g>
</g>
<!-- Node1&#45;&gt;Node6 -->
<g id="edge5" class="edge">
<title>Node1&#45;&gt;Node6</title>
<path fill="none" stroke="midnightblue" d="M386.96,-168.44C422.79,-159.14 480.16,-144.25 519.39,-134.06"/>
<polygon fill="midnightblue" stroke="midnightblue" points="520.4,-137.42 529.2,-131.52 518.64,-130.64 520.4,-137.42"/>
</g>
<!-- Node7 -->
<g id="node7" class="node">
<title>Node7</title>
<g id="a_node7"><a xlink:href="mesh_8h.html" target="_top" xlink:title="Contains the definitions of all structs for the mesh handling.">
<polygon fill="white" stroke="black" points="257.5,-112.5 257.5,-131.5 306.5,-131.5 306.5,-112.5 257.5,-112.5"/>
<text text-anchor="middle" x="282" y="-119.5" font-family="Helvetica,sans-Serif" font-size="10.00">mesh.h</text>
</a>
</g>
</g>
<!-- Node1&#45;&gt;Node7 -->
<g id="edge6" class="edge">
<title>Node1&#45;&gt;Node7</title>
<path fill="none" stroke="midnightblue" d="M342.43,-168.32C331.58,-160.18 315.12,-147.84 302.12,-138.09"/>
<polygon fill="midnightblue" stroke="midnightblue" points="303.88,-135.03 293.78,-131.83 299.68,-140.63 303.88,-135.03"/>
</g>
<!-- Node10 -->
<g id="node10" class="node">
<title>Node10</title>
<g id="a_node10"><a xlink:href="readInTools_8h.html" target="_top" xlink:title=" ">
<polygon fill="white" stroke="black" points="333,-56.5 333,-75.5 407,-75.5 407,-56.5 333,-56.5"/>
<text text-anchor="middle" x="370" y="-63.5" font-family="Helvetica,sans-Serif" font-size="10.00">readInTools.h</text>
</a>
</g>
</g>
<!-- Node1&#45;&gt;Node10 -->
<g id="edge12" class="edge">
<title>Node1&#45;&gt;Node10</title>
<path fill="none" stroke="midnightblue" d="M354.23,-168.12C354.65,-155.55 355.83,-131.89 359,-112 360.41,-103.15 362.68,-93.49 364.79,-85.39"/>
<polygon fill="midnightblue" stroke="midnightblue" points="368.22,-86.11 367.47,-75.54 361.46,-84.27 368.22,-86.11"/>
</g>
<!-- Node11 -->
<g id="node11" class="node">
<title>Node11</title>
<g id="a_node11"><a xlink:href="reconstruction_8h.html" target="_top" xlink:title=" ">
<polygon fill="white" stroke="black" points="619,-112.5 619,-131.5 705,-131.5 705,-112.5 619,-112.5"/>
<text text-anchor="middle" x="662" y="-119.5" font-family="Helvetica,sans-Serif" font-size="10.00">reconstruction.h</text>
</a>
</g>
</g>
<!-- Node1&#45;&gt;Node11 -->
<g id="edge15" class="edge">
<title>Node1&#45;&gt;Node11</title>
<path fill="none" stroke="midnightblue" d="M401.79,-168.62C457.74,-158.81 550.15,-142.61 608.47,-132.39"/>
<polygon fill="midnightblue" stroke="midnightblue" points="609.34,-135.79 618.58,-130.61 608.13,-128.89 609.34,-135.79"/>
</g>
<!-- Node12 -->
<g id="node12" class="node">
<title>Node12</title>
<g id="a_node12"><a xlink:href="timeDiscretization_8h.html" target="_top" xlink:title=" ">
<polygon fill="white" stroke="black" points="401,-112.5 401,-131.5 505,-131.5 505,-112.5 401,-112.5"/>
<text text-anchor="middle" x="453" y="-119.5" font-family="Helvetica,sans-Serif" font-size="10.00">timeDiscretization.h</text>
</a>
</g>
</g>
<!-- Node1&#45;&gt;Node12 -->
<g id="edge16" class="edge">
<title>Node1&#45;&gt;Node12</title>
<path fill="none" stroke="midnightblue" d="M369.91,-168.32C385.64,-159.74 409.94,-146.49 428.21,-136.52"/>
<polygon fill="midnightblue" stroke="midnightblue" points="430.03,-139.52 437.13,-131.65 426.68,-133.37 430.03,-139.52"/>
</g>
<!-- Node14 -->
<g id="node14" class="node">
<title>Node14</title>
<g id="a_node14"><a xlink:href="fluxCalculation_8h.html" target="_top" xlink:title=" ">
<polygon fill="white" stroke="black" points="723.5,-112.5 723.5,-131.5 812.5,-131.5 812.5,-112.5 723.5,-112.5"/>
<text text-anchor="middle" x="768" y="-119.5" font-family="Helvetica,sans-Serif" font-size="10.00">fluxCalculation.h</text>
</a>
</g>
</g>
<!-- Node1&#45;&gt;Node14 -->
<g id="edge19" class="edge">
<title>Node1&#45;&gt;Node14</title>
<path fill="none" stroke="midnightblue" d="M401.55,-171.68C468.63,-164.04 595.12,-149.13 713.29,-132.05"/>
<polygon fill="midnightblue" stroke="midnightblue" points="713.84,-135.51 723.23,-130.61 712.83,-128.58 713.84,-135.51"/>
</g>
<!-- Node15 -->
<g id="node15" class="node">
<title>Node15</title>
<g id="a_node15"><a xlink:href="equation_8h.html" target="_top" xlink:title=" ">
<polygon fill="white" stroke="black" points="425,-56.5 425,-75.5 487,-75.5 487,-56.5 425,-56.5"/>
<text text-anchor="middle" x="456" y="-63.5" font-family="Helvetica,sans-Serif" font-size="10.00">equation.h</text>
</a>
</g>
</g>
<!-- Node1&#45;&gt;Node15 -->
<g id="edge20" class="edge">
<title>Node1&#45;&gt;Node15</title>
<path fill="none" stroke="midnightblue" d="M357.65,-168.24C363.48,-154.98 375.9,-129.51 392,-112 403.32,-99.69 418.55,-88.81 431.32,-80.84"/>
<polygon fill="midnightblue" stroke="midnightblue" points="433.32,-83.72 440.09,-75.56 429.71,-77.72 433.32,-83.72"/>
</g>
<!-- Node16 -->
<g id="node16" class="node">
<title>Node16</title>
<g id="a_node16"><a xlink:href="source_8h.html" target="_top" xlink:title=" ">
<polygon fill="white" stroke="black" points="831,-112.5 831,-131.5 885,-131.5 885,-112.5 831,-112.5"/>
<text text-anchor="middle" x="858" y="-119.5" font-family="Helvetica,sans-Serif" font-size="10.00">source.h</text>
</a>
</g>
</g>
<!-- Node1&#45;&gt;Node16 -->
<g id="edge22" class="edge">
<title>Node1&#45;&gt;Node16</title>
<path fill="none" stroke="midnightblue" d="M401.81,-174.76C485.1,-170.35 662.3,-158.69 821.02,-131.92"/>
<polygon fill="midnightblue" stroke="midnightblue" points="821.7,-135.35 830.97,-130.22 820.52,-128.45 821.7,-135.35"/>
</g>
<!-- Node7&#45;&gt;Node5 -->
<g id="edge7" class="edge">
<title>Node7&#45;&gt;Node5</title>
<path fill="none" stroke="midnightblue" d="M270.46,-112.49C260.52,-104.38 246.88,-91.18 241,-76 235.13,-60.84 239.16,-42.49 243.91,-29.16"/>
<polygon fill="midnightblue" stroke="midnightblue" points="247.23,-30.29 247.7,-19.71 240.73,-27.69 247.23,-30.29"/>
</g>
<!-- Node8 -->
<g id="node8" class="node">
<title>Node8</title>
<g id="a_node8"><a xlink:href="boundary_8h.html" target="_top" xlink:title="Contains the structure definition of a boundary.">
<polygon fill="white" stroke="black" points="249.5,-56.5 249.5,-75.5 314.5,-75.5 314.5,-56.5 249.5,-56.5"/>
<text text-anchor="middle" x="282" y="-63.5" font-family="Helvetica,sans-Serif" font-size="10.00">boundary.h</text>
</a>
</g>
</g>
<!-- Node7&#45;&gt;Node8 -->
<g id="edge8" class="edge">
<title>Node7&#45;&gt;Node8</title>
<path fill="none" stroke="midnightblue" d="M276.83,-112.08C275.32,-104.93 274.89,-94.64 275.54,-85.69"/>
<polygon fill="midnightblue" stroke="midnightblue" points="279.02,-86.13 276.87,-75.75 272.08,-85.2 279.02,-86.13"/>
</g>
<!-- Node8&#45;&gt;Node5 -->
<g id="edge10" class="edge">
<title>Node8&#45;&gt;Node5</title>
<path fill="none" stroke="midnightblue" d="M277.05,-56.08C272.9,-48.61 266.85,-37.72 261.73,-28.52"/>
<polygon fill="midnightblue" stroke="midnightblue" points="264.78,-26.79 256.86,-19.75 258.66,-30.19 264.78,-26.79"/>
</g>
<!-- Node8&#45;&gt;Node7 -->
<g id="edge11" class="edge">
<title>Node8&#45;&gt;Node7</title>
<path fill="none" stroke="midnightblue" d="M287.13,-75.75C288.66,-82.86 289.1,-93.14 288.47,-102.1"/>
<polygon fill="midnightblue" stroke="midnightblue" points="284.99,-101.71 287.17,-112.08 291.93,-102.62 284.99,-101.71"/>
</g>
<!-- Node9 -->
<g id="node9" class="node">
<title>Node9</title>
<g id="a_node9"><a xlink:title=" ">
<polygon fill="white" stroke="#bfbfbf" points="385,-0.5 385,-19.5 441,-19.5 441,-0.5 385,-0.5"/>
<text text-anchor="middle" x="413" y="-7.5" font-family="Helvetica,sans-Serif" font-size="10.00">stdbool.h</text>
</a>
</g>
</g>
<!-- Node8&#45;&gt;Node9 -->
<g id="edge9" class="edge">
<title>Node8&#45;&gt;Node9</title>
<path fill="none" stroke="midnightblue" d="M302.76,-56.44C324.32,-47.56 358.26,-33.56 382.79,-23.45"/>
<polygon fill="midnightblue" stroke="midnightblue" points="384.43,-26.56 392.34,-19.52 381.76,-20.09 384.43,-26.56"/>
</g>
<!-- Node10&#45;&gt;Node5 -->
<g id="edge14" class="edge">
<title>Node10&#45;&gt;Node5</title>
<path fill="none" stroke="midnightblue" d="M351.3,-56.44C332.06,-47.64 301.85,-33.81 279.8,-23.72"/>
<polygon fill="midnightblue" stroke="midnightblue" points="281.16,-20.5 270.61,-19.52 278.25,-26.86 281.16,-20.5"/>
</g>
<!-- Node10&#45;&gt;Node9 -->
<g id="edge13" class="edge">
<title>Node10&#45;&gt;Node9</title>
<path fill="none" stroke="midnightblue" d="M377.1,-56.08C383.24,-48.38 392.27,-37.03 399.74,-27.65"/>
<polygon fill="midnightblue" stroke="midnightblue" points="402.54,-29.75 406.03,-19.75 397.06,-25.39 402.54,-29.75"/>
</g>
<!-- Node12&#45;&gt;Node9 -->
<g id="edge17" class="edge">
<title>Node12&#45;&gt;Node9</title>
<path fill="none" stroke="midnightblue" d="M465.97,-112.34C482.72,-100.04 508.32,-76.69 496,-56 486.12,-39.4 467.74,-28.55 450.79,-21.67"/>
<polygon fill="midnightblue" stroke="midnightblue" points="451.64,-18.25 441.04,-18.06 449.21,-24.81 451.64,-18.25"/>
</g>
<!-- Node13 -->
<g id="node13" class="node">
<title>Node13</title>
<g id="a_node13"><a xlink:title=" ">
<polygon fill="white" stroke="#bfbfbf" points="543,-56.5 543,-75.5 587,-75.5 587,-56.5 543,-56.5"/>
<text text-anchor="middle" x="565" y="-63.5" font-family="Helvetica,sans-Serif" font-size="10.00">time.h</text>
</a>
</g>
</g>
<!-- Node12&#45;&gt;Node13 -->
<g id="edge18" class="edge">
<title>Node12&#45;&gt;Node13</title>
<path fill="none" stroke="midnightblue" d="M470.99,-112.32C489.04,-103.62 517.05,-90.12 537.8,-80.11"/>
<polygon fill="midnightblue" stroke="midnightblue" points="539.56,-83.15 547.05,-75.65 536.52,-76.84 539.56,-83.15"/>
</g>
<!-- Node15&#45;&gt;Node9 -->
<g id="edge21" class="edge">
<title>Node15&#45;&gt;Node9</title>
<path fill="none" stroke="midnightblue" d="M448.9,-56.08C442.76,-48.38 433.73,-37.03 426.26,-27.65"/>
<polygon fill="midnightblue" stroke="midnightblue" points="428.94,-25.39 419.97,-19.75 423.46,-29.75 428.94,-25.39"/>
</g>
</g>
</svg>
