<?xml version="1.0" encoding="UTF-8" standalone="no"?>
<!DOCTYPE svg PUBLIC "-//W3C//DTD SVG 1.1//EN"
 "http://www.w3.org/Graphics/SVG/1.1/DTD/svg11.dtd">
<!-- Generated by graphviz version 2.42.3 (0)
 -->
<!-- Title: src/finiteVolume.h Pages: 1 -->
<svg width="554pt" height="84pt"
 viewBox="0.00 0.00 553.50 84.00" xmlns="http://www.w3.org/2000/svg" xmlns:xlink="http://www.w3.org/1999/xlink">
<g id="graph0" class="graph" transform="scale(1 1) rotate(0) translate(4 80)">
<title>src/finiteVolume.h</title>
<polygon fill="white" stroke="transparent" points="-4,4 -4,-80 549.5,-80 549.5,4 -4,4"/>
<!-- Node1 -->
<g id="node1" class="node">
<title>Node1</title>
<g id="a_node1"><a xlink:title=" ">
<polygon fill="#bfbfbf" stroke="black" points="207,-56.5 207,-75.5 302,-75.5 302,-56.5 207,-56.5"/>
<text text-anchor="middle" x="254.5" y="-63.5" font-family="Helvetica,sans-Serif" font-size="10.00">src/finiteVolume.h</text>
</a>
</g>
</g>
<!-- Node2 -->
<g id="node2" class="node">
<title>Node2</title>
<g id="a_node2"><a xlink:href="finiteVolume_8c.html" target="_top" xlink:title="Finite volume time derivative functions.">
<polygon fill="white" stroke="black" points="0,-0.5 0,-19.5 95,-19.5 95,-0.5 0,-0.5"/>
<text text-anchor="middle" x="47.5" y="-7.5" font-family="Helvetica,sans-Serif" font-size="10.00">src/finiteVolume.c</text>
</a>
</g>
</g>
<!-- Node1&#45;&gt;Node2 -->
<g id="edge1" class="edge">
<title>Node1&#45;&gt;Node2</title>
<path fill="none" stroke="midnightblue" d="M211.68,-53.83C172.59,-43.63 115.67,-28.78 80.15,-19.52"/>
<polygon fill="midnightblue" stroke="midnightblue" points="211.14,-57.31 221.7,-56.44 212.91,-50.53 211.14,-57.31"/>
</g>
<!-- Node3 -->
<g id="node3" class="node">
<title>Node3</title>
<g id="a_node3"><a xlink:href="linearSolver_8c.html" target="_top" xlink:title="Contains the functions for solving the linear system of equations during implicit calculations.">
<polygon fill="white" stroke="black" points="113.5,-0.5 113.5,-19.5 205.5,-19.5 205.5,-0.5 113.5,-0.5"/>
<text text-anchor="middle" x="159.5" y="-7.5" font-family="Helvetica,sans-Serif" font-size="10.00">src/linearSolver.c</text>
</a>
</g>
</g>
<!-- Node1&#45;&gt;Node3 -->
<g id="edge2" class="edge">
<title>Node1&#45;&gt;Node3</title>
<path fill="none" stroke="midnightblue" d="M230.18,-51.18C212.7,-41.24 189.67,-28.15 174.73,-19.65"/>
<polygon fill="midnightblue" stroke="midnightblue" points="228.81,-54.43 239.24,-56.32 232.27,-48.34 228.81,-54.43"/>
</g>
<!-- Node4 -->
<g id="node4" class="node">
<title>Node4</title>
<g id="a_node4"><a xlink:href="main_8c.html" target="_top" xlink:title="Contains the main function of ccfd">
<polygon fill="white" stroke="black" points="223.5,-0.5 223.5,-19.5 285.5,-19.5 285.5,-0.5 223.5,-0.5"/>
<text text-anchor="middle" x="254.5" y="-7.5" font-family="Helvetica,sans-Serif" font-size="10.00">src/main.c</text>
</a>
</g>
</g>
<!-- Node1&#45;&gt;Node4 -->
<g id="edge3" class="edge">
<title>Node1&#45;&gt;Node4</title>
<path fill="none" stroke="midnightblue" d="M254.5,-45.8C254.5,-36.91 254.5,-26.78 254.5,-19.75"/>
<polygon fill="midnightblue" stroke="midnightblue" points="251,-46.08 254.5,-56.08 258,-46.08 251,-46.08"/>
</g>
<!-- Node5 -->
<g id="node5" class="node">
<title>Node5</title>
<g id="a_node5"><a xlink:href="reconstruction_8c.html" target="_top" xlink:title="Contains the reconstruction and limiter functions.">
<polygon fill="white" stroke="black" points="304,-0.5 304,-19.5 407,-19.5 407,-0.5 304,-0.5"/>
<text text-anchor="middle" x="355.5" y="-7.5" font-family="Helvetica,sans-Serif" font-size="10.00">src/reconstruction.c</text>
</a>
</g>
</g>
<!-- Node1&#45;&gt;Node5 -->
<g id="edge4" class="edge">
<title>Node1&#45;&gt;Node5</title>
<path fill="none" stroke="midnightblue" d="M279.58,-51.59C298.26,-41.61 323.2,-28.27 339.31,-19.65"/>
<polygon fill="midnightblue" stroke="midnightblue" points="277.9,-48.52 270.73,-56.32 281.2,-54.7 277.9,-48.52"/>
</g>
<!-- Node6 -->
<g id="node6" class="node">
<title>Node6</title>
<g id="a_node6"><a xlink:href="timeDiscretization_8c.html" target="_top" xlink:title="Contains the functions for performing the time stepping process.">
<polygon fill="white" stroke="black" points="425.5,-0.5 425.5,-19.5 545.5,-19.5 545.5,-0.5 425.5,-0.5"/>
<text text-anchor="middle" x="485.5" y="-7.5" font-family="Helvetica,sans-Serif" font-size="10.00">src/timeDiscretization.c</text>
</a>
</g>
</g>
<!-- Node1&#45;&gt;Node6 -->
<g id="edge5" class="edge">
<title>Node1&#45;&gt;Node6</title>
<path fill="none" stroke="midnightblue" d="M300.9,-54.15C344.55,-43.95 409.01,-28.88 449.07,-19.52"/>
<polygon fill="midnightblue" stroke="midnightblue" points="300.04,-50.76 291.1,-56.44 301.64,-57.58 300.04,-50.76"/>
</g>
</g>
</svg>
