<?xml version="1.0" encoding="UTF-8" standalone="no"?>
<!DOCTYPE svg PUBLIC "-//W3C//DTD SVG 1.1//EN"
 "http://www.w3.org/Graphics/SVG/1.1/DTD/svg11.dtd">
<!-- Generated by graphviz version 2.42.3 (0)
 -->
<!-- Title: src/finiteVolume.c Pages: 1 -->
<svg width="964pt" height="140pt"
 viewBox="0.00 0.00 964.00 140.00" xmlns="http://www.w3.org/2000/svg" xmlns:xlink="http://www.w3.org/1999/xlink">
<g id="graph0" class="graph" transform="scale(1 1) rotate(0) translate(4 136)">
<title>src/finiteVolume.c</title>
<polygon fill="white" stroke="transparent" points="-4,4 -4,-136 960,-136 960,4 -4,4"/>
<!-- Node1 -->
<g id="node1" class="node">
<title>Node1</title>
<g id="a_node1"><a xlink:title="Finite volume time derivative functions.">
<polygon fill="#bfbfbf" stroke="black" points="353.5,-112.5 353.5,-131.5 448.5,-131.5 448.5,-112.5 353.5,-112.5"/>
<text text-anchor="middle" x="401" y="-119.5" font-family="Helvetica,sans-Serif" font-size="10.00">src/finiteVolume.c</text>
</a>
</g>
</g>
<!-- Node2 -->
<g id="node2" class="node">
<title>Node2</title>
<g id="a_node2"><a xlink:title=" ">
<polygon fill="white" stroke="#bfbfbf" points="0,-56.5 0,-75.5 46,-75.5 46,-56.5 0,-56.5"/>
<text text-anchor="middle" x="23" y="-63.5" font-family="Helvetica,sans-Serif" font-size="10.00">stdio.h</text>
</a>
</g>
</g>
<!-- Node1&#45;&gt;Node2 -->
<g id="edge1" class="edge">
<title>Node1&#45;&gt;Node2</title>
<path fill="none" stroke="midnightblue" d="M353.35,-117C288.26,-111.06 167.81,-98.35 56.39,-76.03"/>
<polygon fill="midnightblue" stroke="midnightblue" points="56.82,-72.55 46.32,-73.98 55.42,-79.4 56.82,-72.55"/>
</g>
<!-- Node3 -->
<g id="node3" class="node">
<title>Node3</title>
<g id="a_node3"><a xlink:title=" ">
<polygon fill="white" stroke="#bfbfbf" points="64,-56.5 64,-75.5 112,-75.5 112,-56.5 64,-56.5"/>
<text text-anchor="middle" x="88" y="-63.5" font-family="Helvetica,sans-Serif" font-size="10.00">stdlib.h</text>
</a>
</g>
</g>
<!-- Node1&#45;&gt;Node3 -->
<g id="edge2" class="edge">
<title>Node1&#45;&gt;Node3</title>
<path fill="none" stroke="midnightblue" d="M353.15,-114.9C299.25,-107.67 208.87,-94.49 122.09,-76.04"/>
<polygon fill="midnightblue" stroke="midnightblue" points="122.59,-72.57 112.08,-73.89 121.12,-79.41 122.59,-72.57"/>
</g>
<!-- Node4 -->
<g id="node4" class="node">
<title>Node4</title>
<g id="a_node4"><a xlink:title=" ">
<polygon fill="white" stroke="#bfbfbf" points="130.5,-56.5 130.5,-75.5 177.5,-75.5 177.5,-56.5 130.5,-56.5"/>
<text text-anchor="middle" x="154" y="-63.5" font-family="Helvetica,sans-Serif" font-size="10.00">math.h</text>
</a>
</g>
</g>
<!-- Node1&#45;&gt;Node4 -->
<g id="edge3" class="edge">
<title>Node1&#45;&gt;Node4</title>
<path fill="none" stroke="midnightblue" d="M355.91,-112.49C314.4,-104.44 250.91,-91.62 187.48,-76.25"/>
<polygon fill="midnightblue" stroke="midnightblue" points="188.26,-72.84 177.72,-73.86 186.6,-79.64 188.26,-72.84"/>
</g>
<!-- Node5 -->
<g id="node5" class="node">
<title>Node5</title>
<g id="a_node5"><a xlink:href="main_8h.html" target="_top" xlink:title="Contains the global constants and definitions.">
<polygon fill="white" stroke="black" points="346,-0.5 346,-19.5 392,-19.5 392,-0.5 346,-0.5"/>
<text text-anchor="middle" x="369" y="-7.5" font-family="Helvetica,sans-Serif" font-size="10.00">main.h</text>
</a>
</g>
</g>
<!-- Node1&#45;&gt;Node5 -->
<g id="edge4" class="edge">
<title>Node1&#45;&gt;Node5</title>
<path fill="none" stroke="midnightblue" d="M398.49,-112.37C393.3,-94.54 381.3,-53.3 374.32,-29.27"/>
<polygon fill="midnightblue" stroke="midnightblue" points="377.65,-28.22 371.5,-19.59 370.93,-30.17 377.65,-28.22"/>
</g>
<!-- Node6 -->
<g id="node6" class="node">
<title>Node6</title>
<g id="a_node6"><a xlink:href="finiteVolume_8h.html" target="_top" xlink:title=" ">
<polygon fill="white" stroke="black" points="263,-56.5 263,-75.5 341,-75.5 341,-56.5 263,-56.5"/>
<text text-anchor="middle" x="302" y="-63.5" font-family="Helvetica,sans-Serif" font-size="10.00">finiteVolume.h</text>
</a>
</g>
</g>
<!-- Node1&#45;&gt;Node6 -->
<g id="edge5" class="edge">
<title>Node1&#45;&gt;Node6</title>
<path fill="none" stroke="midnightblue" d="M385.09,-112.32C369.36,-103.74 345.06,-90.49 326.79,-80.52"/>
<polygon fill="midnightblue" stroke="midnightblue" points="328.32,-77.37 317.87,-75.65 324.97,-83.52 328.32,-77.37"/>
</g>
<!-- Node7 -->
<g id="node7" class="node">
<title>Node7</title>
<g id="a_node7"><a xlink:href="mesh_8h_source.html" target="_top" xlink:title=" ">
<polygon fill="white" stroke="black" points="195.5,-56.5 195.5,-75.5 244.5,-75.5 244.5,-56.5 195.5,-56.5"/>
<text text-anchor="middle" x="220" y="-63.5" font-family="Helvetica,sans-Serif" font-size="10.00">mesh.h</text>
</a>
</g>
</g>
<!-- Node1&#45;&gt;Node7 -->
<g id="edge6" class="edge">
<title>Node1&#45;&gt;Node7</title>
<path fill="none" stroke="midnightblue" d="M372.32,-112.44C340.43,-102.93 288.93,-87.56 254.77,-77.37"/>
<polygon fill="midnightblue" stroke="midnightblue" points="255.35,-73.89 244.76,-74.39 253.35,-80.6 255.35,-73.89"/>
</g>
<!-- Node9 -->
<g id="node9" class="node">
<title>Node9</title>
<g id="a_node9"><a xlink:href="readInTools_8h.html" target="_top" xlink:title=" ">
<polygon fill="white" stroke="black" points="397,-56.5 397,-75.5 471,-75.5 471,-56.5 397,-56.5"/>
<text text-anchor="middle" x="434" y="-63.5" font-family="Helvetica,sans-Serif" font-size="10.00">readInTools.h</text>
</a>
</g>
</g>
<!-- Node1&#45;&gt;Node9 -->
<g id="edge9" class="edge">
<title>Node1&#45;&gt;Node9</title>
<path fill="none" stroke="midnightblue" d="M406.45,-112.08C411.01,-104.61 417.67,-93.72 423.29,-84.52"/>
<polygon fill="midnightblue" stroke="midnightblue" points="426.42,-86.11 428.65,-75.75 420.45,-82.46 426.42,-86.11"/>
</g>
<!-- Node11 -->
<g id="node11" class="node">
<title>Node11</title>
<g id="a_node11"><a xlink:href="reconstruction_8h_source.html" target="_top" xlink:title=" ">
<polygon fill="white" stroke="black" points="489,-56.5 489,-75.5 575,-75.5 575,-56.5 489,-56.5"/>
<text text-anchor="middle" x="532" y="-63.5" font-family="Helvetica,sans-Serif" font-size="10.00">reconstruction.h</text>
</a>
</g>
</g>
<!-- Node1&#45;&gt;Node11 -->
<g id="edge12" class="edge">
<title>Node1&#45;&gt;Node11</title>
<path fill="none" stroke="midnightblue" d="M421.76,-112.44C443.32,-103.56 477.26,-89.56 501.79,-79.45"/>
<polygon fill="midnightblue" stroke="midnightblue" points="503.43,-82.56 511.34,-75.52 500.76,-76.09 503.43,-82.56"/>
</g>
<!-- Node12 -->
<g id="node12" class="node">
<title>Node12</title>
<g id="a_node12"><a xlink:href="timeDiscretization_8h_source.html" target="_top" xlink:title=" ">
<polygon fill="white" stroke="black" points="593,-56.5 593,-75.5 697,-75.5 697,-56.5 593,-56.5"/>
<text text-anchor="middle" x="645" y="-63.5" font-family="Helvetica,sans-Serif" font-size="10.00">timeDiscretization.h</text>
</a>
</g>
</g>
<!-- Node1&#45;&gt;Node12 -->
<g id="edge13" class="edge">
<title>Node1&#45;&gt;Node12</title>
<path fill="none" stroke="midnightblue" d="M439.66,-112.44C482.14,-103.04 550.43,-87.93 596.47,-77.74"/>
<polygon fill="midnightblue" stroke="midnightblue" points="597.51,-81.09 606.52,-75.52 596,-74.26 597.51,-81.09"/>
</g>
<!-- Node14 -->
<g id="node14" class="node">
<title>Node14</title>
<g id="a_node14"><a xlink:title=" ">
<polygon fill="white" stroke="#bfbfbf" points="715.5,-56.5 715.5,-75.5 804.5,-75.5 804.5,-56.5 715.5,-56.5"/>
<text text-anchor="middle" x="760" y="-63.5" font-family="Helvetica,sans-Serif" font-size="10.00">fluxCalculation.h</text>
</a>
</g>
</g>
<!-- Node1&#45;&gt;Node14 -->
<g id="edge16" class="edge">
<title>Node1&#45;&gt;Node14</title>
<path fill="none" stroke="midnightblue" d="M448.59,-114.26C506.64,-105.97 608.04,-91.3 705.22,-76.1"/>
<polygon fill="midnightblue" stroke="midnightblue" points="705.88,-79.54 715.22,-74.53 704.8,-72.62 705.88,-79.54"/>
</g>
<!-- Node15 -->
<g id="node15" class="node">
<title>Node15</title>
<g id="a_node15"><a xlink:title=" ">
<polygon fill="white" stroke="#bfbfbf" points="822,-56.5 822,-75.5 884,-75.5 884,-56.5 822,-56.5"/>
<text text-anchor="middle" x="853" y="-63.5" font-family="Helvetica,sans-Serif" font-size="10.00">equation.h</text>
</a>
</g>
</g>
<!-- Node1&#45;&gt;Node15 -->
<g id="edge17" class="edge">
<title>Node1&#45;&gt;Node15</title>
<path fill="none" stroke="midnightblue" d="M448.64,-117.65C523.88,-111.96 675.01,-98.9 811.75,-76.23"/>
<polygon fill="midnightblue" stroke="midnightblue" points="812.7,-79.61 821.99,-74.51 811.54,-72.71 812.7,-79.61"/>
</g>
<!-- Node16 -->
<g id="node16" class="node">
<title>Node16</title>
<g id="a_node16"><a xlink:title=" ">
<polygon fill="white" stroke="#bfbfbf" points="902,-56.5 902,-75.5 956,-75.5 956,-56.5 902,-56.5"/>
<text text-anchor="middle" x="929" y="-63.5" font-family="Helvetica,sans-Serif" font-size="10.00">source.h</text>
</a>
</g>
</g>
<!-- Node1&#45;&gt;Node16 -->
<g id="edge18" class="edge">
<title>Node1&#45;&gt;Node16</title>
<path fill="none" stroke="midnightblue" d="M448.81,-119.07C535.38,-115.05 723.93,-103.86 891.95,-75.92"/>
<polygon fill="midnightblue" stroke="midnightblue" points="892.69,-79.35 901.97,-74.23 891.52,-72.44 892.69,-79.35"/>
</g>
<!-- Node7&#45;&gt;Node5 -->
<g id="edge7" class="edge">
<title>Node7&#45;&gt;Node5</title>
<path fill="none" stroke="midnightblue" d="M243.61,-56.44C268.6,-47.39 308.24,-33.02 336.25,-22.87"/>
<polygon fill="midnightblue" stroke="midnightblue" points="337.78,-26.04 345.99,-19.34 335.4,-19.46 337.78,-26.04"/>
</g>
<!-- Node8 -->
<g id="node8" class="node">
<title>Node8</title>
<g id="a_node8"><a xlink:title=" ">
<polygon fill="white" stroke="#bfbfbf" points="187.5,-0.5 187.5,-19.5 252.5,-19.5 252.5,-0.5 187.5,-0.5"/>
<text text-anchor="middle" x="220" y="-7.5" font-family="Helvetica,sans-Serif" font-size="10.00">boundary.h</text>
</a>
</g>
</g>
<!-- Node7&#45;&gt;Node8 -->
<g id="edge8" class="edge">
<title>Node7&#45;&gt;Node8</title>
<path fill="none" stroke="midnightblue" d="M220,-56.08C220,-49.01 220,-38.86 220,-29.99"/>
<polygon fill="midnightblue" stroke="midnightblue" points="223.5,-29.75 220,-19.75 216.5,-29.75 223.5,-29.75"/>
</g>
<!-- Node9&#45;&gt;Node5 -->
<g id="edge11" class="edge">
<title>Node9&#45;&gt;Node5</title>
<path fill="none" stroke="midnightblue" d="M423.56,-56.32C413.85,-48.26 399.18,-36.08 387.5,-26.37"/>
<polygon fill="midnightblue" stroke="midnightblue" points="389.56,-23.53 379.63,-19.83 385.09,-28.92 389.56,-23.53"/>
</g>
<!-- Node10 -->
<g id="node10" class="node">
<title>Node10</title>
<g id="a_node10"><a xlink:title=" ">
<polygon fill="white" stroke="#bfbfbf" points="480,-0.5 480,-19.5 536,-19.5 536,-0.5 480,-0.5"/>
<text text-anchor="middle" x="508" y="-7.5" font-family="Helvetica,sans-Serif" font-size="10.00">stdbool.h</text>
</a>
</g>
</g>
<!-- Node9&#45;&gt;Node10 -->
<g id="edge10" class="edge">
<title>Node9&#45;&gt;Node10</title>
<path fill="none" stroke="midnightblue" d="M445.89,-56.32C457.15,-48.11 474.29,-35.6 487.71,-25.81"/>
<polygon fill="midnightblue" stroke="midnightblue" points="489.88,-28.56 495.89,-19.83 485.75,-22.9 489.88,-28.56"/>
</g>
<!-- Node12&#45;&gt;Node10 -->
<g id="edge14" class="edge">
<title>Node12&#45;&gt;Node10</title>
<path fill="none" stroke="midnightblue" d="M623.29,-56.44C600.65,-47.52 564.93,-33.44 539.25,-23.32"/>
<polygon fill="midnightblue" stroke="midnightblue" points="540.19,-19.93 529.61,-19.52 537.63,-26.44 540.19,-19.93"/>
</g>
<!-- Node13 -->
<g id="node13" class="node">
<title>Node13</title>
<g id="a_node13"><a xlink:title=" ">
<polygon fill="white" stroke="#bfbfbf" points="623,-0.5 623,-19.5 667,-19.5 667,-0.5 623,-0.5"/>
<text text-anchor="middle" x="645" y="-7.5" font-family="Helvetica,sans-Serif" font-size="10.00">time.h</text>
</a>
</g>
</g>
<!-- Node12&#45;&gt;Node13 -->
<g id="edge15" class="edge">
<title>Node12&#45;&gt;Node13</title>
<path fill="none" stroke="midnightblue" d="M645,-56.08C645,-49.01 645,-38.86 645,-29.99"/>
<polygon fill="midnightblue" stroke="midnightblue" points="648.5,-29.75 645,-19.75 641.5,-29.75 648.5,-29.75"/>
</g>
</g>
</svg>
