<?xml version="1.0" encoding="UTF-8" standalone="no"?>
<!DOCTYPE svg PUBLIC "-//W3C//DTD SVG 1.1//EN"
 "http://www.w3.org/Graphics/SVG/1.1/DTD/svg11.dtd">
<!-- Generated by graphviz version 2.42.3 (0)
 -->
<!-- Title: src/initialCondition.h Pages: 1 -->
<svg width="693pt" height="84pt"
 viewBox="0.00 0.00 692.50 84.00" xmlns="http://www.w3.org/2000/svg" xmlns:xlink="http://www.w3.org/1999/xlink">
<g id="graph0" class="graph" transform="scale(1 1) rotate(0) translate(4 80)">
<title>src/initialCondition.h</title>
<polygon fill="white" stroke="transparent" points="-4,4 -4,-80 688.5,-80 688.5,4 -4,4"/>
<!-- Node1 -->
<g id="node1" class="node">
<title>Node1</title>
<g id="a_node1"><a xlink:title=" ">
<polygon fill="#bfbfbf" stroke="black" points="287.5,-56.5 287.5,-75.5 392.5,-75.5 392.5,-56.5 287.5,-56.5"/>
<text text-anchor="middle" x="340" y="-63.5" font-family="Helvetica,sans-Serif" font-size="10.00">src/initialCondition.h</text>
</a>
</g>
</g>
<!-- Node2 -->
<g id="node2" class="node">
<title>Node2</title>
<g id="a_node2"><a xlink:href="analyze_8c.html" target="_top" xlink:title="Contains functions for analyzing flow results.">
<polygon fill="white" stroke="black" points="0,-0.5 0,-19.5 74,-19.5 74,-0.5 0,-0.5"/>
<text text-anchor="middle" x="37" y="-7.5" font-family="Helvetica,sans-Serif" font-size="10.00">src/analyze.c</text>
</a>
</g>
</g>
<!-- Node1&#45;&gt;Node2 -->
<g id="edge1" class="edge">
<title>Node1&#45;&gt;Node2</title>
<path fill="none" stroke="midnightblue" d="M279.64,-54.78C227.52,-45.87 150.22,-32.46 83,-20 80.12,-19.47 77.14,-18.9 74.14,-18.33"/>
<polygon fill="midnightblue" stroke="midnightblue" points="279.27,-58.27 289.72,-56.5 280.45,-51.37 279.27,-58.27"/>
</g>
<!-- Node3 -->
<g id="node3" class="node">
<title>Node3</title>
<g id="a_node3"><a xlink:href="euler_2exactFunction_8c.html" target="_top" xlink:title="Contains the exact function evaluation function.">
<polygon fill="white" stroke="black" points="92,-0.5 92,-19.5 218,-19.5 218,-0.5 92,-0.5"/>
<text text-anchor="middle" x="155" y="-7.5" font-family="Helvetica,sans-Serif" font-size="10.00">src/euler/exactFunction.c</text>
</a>
</g>
</g>
<!-- Node1&#45;&gt;Node3 -->
<g id="edge2" class="edge">
<title>Node1&#45;&gt;Node3</title>
<path fill="none" stroke="midnightblue" d="M300.83,-53.57C265.93,-43.38 215.65,-28.7 184.18,-19.52"/>
<polygon fill="midnightblue" stroke="midnightblue" points="300.11,-57 310.69,-56.44 302.07,-50.28 300.11,-57"/>
</g>
<!-- Node4 -->
<g id="node4" class="node">
<title>Node4</title>
<g id="a_node4"><a xlink:href="initialCondition_8c.html" target="_top" xlink:title="Functions involving the initialization and application of initial conditions.">
<polygon fill="white" stroke="black" points="236.5,-0.5 236.5,-19.5 341.5,-19.5 341.5,-0.5 236.5,-0.5"/>
<text text-anchor="middle" x="289" y="-7.5" font-family="Helvetica,sans-Serif" font-size="10.00">src/initialCondition.c</text>
</a>
</g>
</g>
<!-- Node1&#45;&gt;Node4 -->
<g id="edge3" class="edge">
<title>Node1&#45;&gt;Node4</title>
<path fill="none" stroke="midnightblue" d="M324.62,-48.72C315.63,-39.2 304.64,-27.56 297.26,-19.75"/>
<polygon fill="midnightblue" stroke="midnightblue" points="322.17,-51.22 331.58,-56.08 327.26,-46.41 322.17,-51.22"/>
</g>
<!-- Node5 -->
<g id="node5" class="node">
<title>Node5</title>
<g id="a_node5"><a xlink:href="main_8c.html" target="_top" xlink:title="Contains the main function of ccfd">
<polygon fill="white" stroke="black" points="360,-0.5 360,-19.5 422,-19.5 422,-0.5 360,-0.5"/>
<text text-anchor="middle" x="391" y="-7.5" font-family="Helvetica,sans-Serif" font-size="10.00">src/main.c</text>
</a>
</g>
</g>
<!-- Node1&#45;&gt;Node5 -->
<g id="edge4" class="edge">
<title>Node1&#45;&gt;Node5</title>
<path fill="none" stroke="midnightblue" d="M355.38,-48.72C364.37,-39.2 375.36,-27.56 382.74,-19.75"/>
<polygon fill="midnightblue" stroke="midnightblue" points="352.74,-46.41 348.42,-56.08 357.83,-51.22 352.74,-46.41"/>
</g>
<!-- Node6 -->
<g id="node6" class="node">
<title>Node6</title>
<g id="a_node6"><a xlink:href="mesh_8c.html" target="_top" xlink:title="Contains all the functions for reading and creating meshes.">
<polygon fill="white" stroke="black" points="440.5,-0.5 440.5,-19.5 505.5,-19.5 505.5,-0.5 440.5,-0.5"/>
<text text-anchor="middle" x="473" y="-7.5" font-family="Helvetica,sans-Serif" font-size="10.00">src/mesh.c</text>
</a>
</g>
</g>
<!-- Node1&#45;&gt;Node6 -->
<g id="edge5" class="edge">
<title>Node1&#45;&gt;Node6</title>
<path fill="none" stroke="midnightblue" d="M370.45,-52.64C395.41,-42.5 430.08,-28.43 452.02,-19.52"/>
<polygon fill="midnightblue" stroke="midnightblue" points="369.02,-49.44 361.07,-56.44 371.66,-55.92 369.02,-49.44"/>
</g>
<!-- Node7 -->
<g id="node7" class="node">
<title>Node7</title>
<g id="a_node7"><a xlink:href="navierstokes_2exactFunction_8c.html" target="_top" xlink:title="Contains the exact function evaluation function.">
<polygon fill="white" stroke="black" points="523.5,-0.5 523.5,-19.5 684.5,-19.5 684.5,-0.5 523.5,-0.5"/>
<text text-anchor="middle" x="604" y="-7.5" font-family="Helvetica,sans-Serif" font-size="10.00">src/navierstokes/exactFunction.c</text>
</a>
</g>
</g>
<!-- Node1&#45;&gt;Node7 -->
<g id="edge6" class="edge">
<title>Node1&#45;&gt;Node7</title>
<path fill="none" stroke="midnightblue" d="M391.78,-54.41C441.67,-44.2 516.2,-28.96 562.36,-19.52"/>
<polygon fill="midnightblue" stroke="midnightblue" points="390.93,-51.01 381.83,-56.44 392.33,-57.87 390.93,-51.01"/>
</g>
</g>
</svg>
