<?xml version="1.0" encoding="UTF-8" standalone="no"?>
<!DOCTYPE svg PUBLIC "-//W3C//DTD SVG 1.1//EN"
 "http://www.w3.org/Graphics/SVG/1.1/DTD/svg11.dtd">
<!-- Generated by graphviz version 2.42.3 (0)
 -->
<!-- Title: src/initialCondition.c Pages: 1 -->
<svg width="1103pt" height="140pt"
 viewBox="0.00 0.00 1102.50 140.00" xmlns="http://www.w3.org/2000/svg" xmlns:xlink="http://www.w3.org/1999/xlink">
<g id="graph0" class="graph" transform="scale(1 1) rotate(0) translate(4 136)">
<title>src/initialCondition.c</title>
<polygon fill="white" stroke="transparent" points="-4,4 -4,-136 1098.5,-136 1098.5,4 -4,4"/>
<!-- Node1 -->
<g id="node1" class="node">
<title>Node1</title>
<g id="a_node1"><a xlink:title="Functions involving the initialization and application of initial conditions.">
<polygon fill="#bfbfbf" stroke="black" points="405.5,-112.5 405.5,-131.5 510.5,-131.5 510.5,-112.5 405.5,-112.5"/>
<text text-anchor="middle" x="458" y="-119.5" font-family="Helvetica,sans-Serif" font-size="10.00">src/initialCondition.c</text>
</a>
</g>
</g>
<!-- Node2 -->
<g id="node2" class="node">
<title>Node2</title>
<g id="a_node2"><a xlink:title=" ">
<polygon fill="white" stroke="#bfbfbf" points="0,-56.5 0,-75.5 46,-75.5 46,-56.5 0,-56.5"/>
<text text-anchor="middle" x="23" y="-63.5" font-family="Helvetica,sans-Serif" font-size="10.00">stdio.h</text>
</a>
</g>
</g>
<!-- Node1&#45;&gt;Node2 -->
<g id="edge1" class="edge">
<title>Node1&#45;&gt;Node2</title>
<path fill="none" stroke="midnightblue" d="M405.42,-117.87C330.05,-112.79 186.88,-100.89 56.48,-76"/>
<polygon fill="midnightblue" stroke="midnightblue" points="56.8,-72.5 46.31,-74.03 55.46,-79.37 56.8,-72.5"/>
</g>
<!-- Node3 -->
<g id="node3" class="node">
<title>Node3</title>
<g id="a_node3"><a xlink:title=" ">
<polygon fill="white" stroke="#bfbfbf" points="64,-56.5 64,-75.5 112,-75.5 112,-56.5 64,-56.5"/>
<text text-anchor="middle" x="88" y="-63.5" font-family="Helvetica,sans-Serif" font-size="10.00">stdlib.h</text>
</a>
</g>
</g>
<!-- Node1&#45;&gt;Node3 -->
<g id="edge2" class="edge">
<title>Node1&#45;&gt;Node3</title>
<path fill="none" stroke="midnightblue" d="M405.39,-116.17C340.79,-109.76 227.76,-96.95 121.95,-75.95"/>
<polygon fill="midnightblue" stroke="midnightblue" points="122.56,-72.5 112.06,-73.96 121.17,-79.37 122.56,-72.5"/>
</g>
<!-- Node4 -->
<g id="node4" class="node">
<title>Node4</title>
<g id="a_node4"><a xlink:title=" ">
<polygon fill="white" stroke="#bfbfbf" points="130.5,-56.5 130.5,-75.5 177.5,-75.5 177.5,-56.5 130.5,-56.5"/>
<text text-anchor="middle" x="154" y="-63.5" font-family="Helvetica,sans-Serif" font-size="10.00">math.h</text>
</a>
</g>
</g>
<!-- Node1&#45;&gt;Node4 -->
<g id="edge3" class="edge">
<title>Node1&#45;&gt;Node4</title>
<path fill="none" stroke="midnightblue" d="M405.27,-114.03C352.38,-106.65 268.45,-93.87 187.54,-76.16"/>
<polygon fill="midnightblue" stroke="midnightblue" points="188.21,-72.73 177.69,-73.98 186.7,-79.56 188.21,-72.73"/>
</g>
<!-- Node5 -->
<g id="node5" class="node">
<title>Node5</title>
<g id="a_node5"><a xlink:title=" ">
<polygon fill="white" stroke="#bfbfbf" points="195.5,-56.5 195.5,-75.5 244.5,-75.5 244.5,-56.5 195.5,-56.5"/>
<text text-anchor="middle" x="220" y="-63.5" font-family="Helvetica,sans-Serif" font-size="10.00">string.h</text>
</a>
</g>
</g>
<!-- Node1&#45;&gt;Node5 -->
<g id="edge4" class="edge">
<title>Node1&#45;&gt;Node5</title>
<path fill="none" stroke="midnightblue" d="M416.24,-112.47C376.82,-104.28 315.85,-91.25 254.65,-76.33"/>
<polygon fill="midnightblue" stroke="midnightblue" points="255.38,-72.9 244.83,-73.92 253.71,-79.7 255.38,-72.9"/>
</g>
<!-- Node6 -->
<g id="node6" class="node">
<title>Node6</title>
<g id="a_node6"><a xlink:href="main_8h.html" target="_top" xlink:title="Contains the global constants and definitions.">
<polygon fill="white" stroke="black" points="328,-0.5 328,-19.5 374,-19.5 374,-0.5 328,-0.5"/>
<text text-anchor="middle" x="351" y="-7.5" font-family="Helvetica,sans-Serif" font-size="10.00">main.h</text>
</a>
</g>
</g>
<!-- Node1&#45;&gt;Node6 -->
<g id="edge5" class="edge">
<title>Node1&#45;&gt;Node6</title>
<path fill="none" stroke="midnightblue" d="M417.23,-112.5C396.52,-106.02 372.86,-94.87 359,-76 349.23,-62.69 347.97,-43.57 348.71,-29.51"/>
<polygon fill="midnightblue" stroke="midnightblue" points="352.2,-29.8 349.6,-19.53 345.22,-29.18 352.2,-29.8"/>
</g>
<!-- Node7 -->
<g id="node7" class="node">
<title>Node7</title>
<g id="a_node7"><a xlink:href="readInTools_8h.html" target="_top" xlink:title=" ">
<polygon fill="white" stroke="black" points="368,-56.5 368,-75.5 442,-75.5 442,-56.5 368,-56.5"/>
<text text-anchor="middle" x="405" y="-63.5" font-family="Helvetica,sans-Serif" font-size="10.00">readInTools.h</text>
</a>
</g>
</g>
<!-- Node1&#45;&gt;Node7 -->
<g id="edge6" class="edge">
<title>Node1&#45;&gt;Node7</title>
<path fill="none" stroke="midnightblue" d="M449.25,-112.08C441.53,-104.22 430.1,-92.57 420.78,-83.08"/>
<polygon fill="midnightblue" stroke="midnightblue" points="423.09,-80.44 413.59,-75.75 418.1,-85.34 423.09,-80.44"/>
</g>
<!-- Node9 -->
<g id="node9" class="node">
<title>Node9</title>
<g id="a_node9"><a xlink:href="initialCondition_8h.html" target="_top" xlink:title=" ">
<polygon fill="white" stroke="black" points="582.5,-56.5 582.5,-75.5 671.5,-75.5 671.5,-56.5 582.5,-56.5"/>
<text text-anchor="middle" x="627" y="-63.5" font-family="Helvetica,sans-Serif" font-size="10.00">initialCondition.h</text>
</a>
</g>
</g>
<!-- Node1&#45;&gt;Node9 -->
<g id="edge9" class="edge">
<title>Node1&#45;&gt;Node9</title>
<path fill="none" stroke="midnightblue" d="M484.78,-112.44C513.33,-103.32 558.73,-88.81 590.54,-78.65"/>
<polygon fill="midnightblue" stroke="midnightblue" points="591.89,-81.89 600.35,-75.52 589.76,-75.23 591.89,-81.89"/>
</g>
<!-- Node10 -->
<g id="node10" class="node">
<title>Node10</title>
<g id="a_node10"><a xlink:title=" ">
<polygon fill="white" stroke="#bfbfbf" points="689,-56.5 689,-75.5 751,-75.5 751,-56.5 689,-56.5"/>
<text text-anchor="middle" x="720" y="-63.5" font-family="Helvetica,sans-Serif" font-size="10.00">equation.h</text>
</a>
</g>
</g>
<!-- Node1&#45;&gt;Node10 -->
<g id="edge10" class="edge">
<title>Node1&#45;&gt;Node10</title>
<path fill="none" stroke="midnightblue" d="M501.45,-112.48C544.14,-104.04 611.41,-90.58 678.65,-76.26"/>
<polygon fill="midnightblue" stroke="midnightblue" points="679.52,-79.65 688.57,-74.14 678.06,-72.8 679.52,-79.65"/>
</g>
<!-- Node11 -->
<g id="node11" class="node">
<title>Node11</title>
<g id="a_node11"><a xlink:href="memTools_8h.html" target="_top" xlink:title=" ">
<polygon fill="white" stroke="black" points="807,-56.5 807,-75.5 877,-75.5 877,-56.5 807,-56.5"/>
<text text-anchor="middle" x="842" y="-63.5" font-family="Helvetica,sans-Serif" font-size="10.00">memTools.h</text>
</a>
</g>
</g>
<!-- Node1&#45;&gt;Node11 -->
<g id="edge11" class="edge">
<title>Node1&#45;&gt;Node11</title>
<path fill="none" stroke="midnightblue" d="M510.63,-114.73C576.7,-106.67 693.46,-91.82 793,-76 794.27,-75.8 795.56,-75.59 796.87,-75.37"/>
<polygon fill="midnightblue" stroke="midnightblue" points="797.7,-78.78 806.97,-73.65 796.52,-71.88 797.7,-78.78"/>
</g>
<!-- Node12 -->
<g id="node12" class="node">
<title>Node12</title>
<g id="a_node12"><a xlink:title=" ">
<polygon fill="white" stroke="#bfbfbf" points="782,-0.5 782,-19.5 838,-19.5 838,-0.5 782,-0.5"/>
<text text-anchor="middle" x="810" y="-7.5" font-family="Helvetica,sans-Serif" font-size="10.00">cgnslib.h</text>
</a>
</g>
</g>
<!-- Node1&#45;&gt;Node12 -->
<g id="edge21" class="edge">
<title>Node1&#45;&gt;Node12</title>
<path fill="none" stroke="midnightblue" d="M510.55,-117.89C585.54,-112.67 718.76,-100.25 760,-76 778.73,-64.99 792.89,-44.01 801.28,-28.86"/>
<polygon fill="midnightblue" stroke="midnightblue" points="804.43,-30.4 805.95,-19.91 798.22,-27.16 804.43,-30.4"/>
</g>
<!-- Node13 -->
<g id="node13" class="node">
<title>Node13</title>
<g id="a_node13"><a xlink:href="timeDiscretization_8h_source.html" target="_top" xlink:title=" ">
<polygon fill="white" stroke="black" points="460,-56.5 460,-75.5 564,-75.5 564,-56.5 460,-56.5"/>
<text text-anchor="middle" x="512" y="-63.5" font-family="Helvetica,sans-Serif" font-size="10.00">timeDiscretization.h</text>
</a>
</g>
</g>
<!-- Node1&#45;&gt;Node13 -->
<g id="edge13" class="edge">
<title>Node1&#45;&gt;Node13</title>
<path fill="none" stroke="midnightblue" d="M466.92,-112.08C474.78,-104.22 486.43,-92.57 495.92,-83.08"/>
<polygon fill="midnightblue" stroke="midnightblue" points="498.65,-85.3 503.25,-75.75 493.7,-80.35 498.65,-85.3"/>
</g>
<!-- Node15 -->
<g id="node15" class="node">
<title>Node15</title>
<g id="a_node15"><a xlink:href="mesh_8h_source.html" target="_top" xlink:title=" ">
<polygon fill="white" stroke="black" points="262.5,-56.5 262.5,-75.5 311.5,-75.5 311.5,-56.5 262.5,-56.5"/>
<text text-anchor="middle" x="287" y="-63.5" font-family="Helvetica,sans-Serif" font-size="10.00">mesh.h</text>
</a>
</g>
</g>
<!-- Node1&#45;&gt;Node15 -->
<g id="edge16" class="edge">
<title>Node1&#45;&gt;Node15</title>
<path fill="none" stroke="midnightblue" d="M430.9,-112.44C401.33,-103.1 353.9,-88.13 321.65,-77.94"/>
<polygon fill="midnightblue" stroke="midnightblue" points="322.34,-74.49 311.75,-74.82 320.23,-81.16 322.34,-74.49"/>
</g>
<!-- Node17 -->
<g id="node17" class="node">
<title>Node17</title>
<g id="a_node17"><a xlink:title=" ">
<polygon fill="white" stroke="#bfbfbf" points="895,-56.5 895,-75.5 981,-75.5 981,-56.5 895,-56.5"/>
<text text-anchor="middle" x="938" y="-63.5" font-family="Helvetica,sans-Serif" font-size="10.00">exactFunction.h</text>
</a>
</g>
</g>
<!-- Node1&#45;&gt;Node17 -->
<g id="edge19" class="edge">
<title>Node1&#45;&gt;Node17</title>
<path fill="none" stroke="midnightblue" d="M510.52,-116.61C589.48,-109.77 743.68,-95.43 884.77,-76.09"/>
<polygon fill="midnightblue" stroke="midnightblue" points="885.48,-79.52 894.9,-74.69 884.52,-72.59 885.48,-79.52"/>
</g>
<!-- Node18 -->
<g id="node18" class="node">
<title>Node18</title>
<g id="a_node18"><a xlink:title=" ">
<polygon fill="white" stroke="#bfbfbf" points="999.5,-56.5 999.5,-75.5 1094.5,-75.5 1094.5,-56.5 999.5,-56.5"/>
<text text-anchor="middle" x="1047" y="-63.5" font-family="Helvetica,sans-Serif" font-size="10.00">equationOfState.h</text>
</a>
</g>
</g>
<!-- Node1&#45;&gt;Node18 -->
<g id="edge20" class="edge">
<title>Node1&#45;&gt;Node18</title>
<path fill="none" stroke="midnightblue" d="M510.61,-117.81C604.53,-111.85 807.43,-97.72 989.43,-75.98"/>
<polygon fill="midnightblue" stroke="midnightblue" points="989.94,-79.44 999.45,-74.77 989.1,-72.49 989.94,-79.44"/>
</g>
<!-- Node7&#45;&gt;Node6 -->
<g id="edge8" class="edge">
<title>Node7&#45;&gt;Node6</title>
<path fill="none" stroke="midnightblue" d="M396.08,-56.08C388.22,-48.22 376.57,-36.57 367.08,-27.08"/>
<polygon fill="midnightblue" stroke="midnightblue" points="369.3,-24.35 359.75,-19.75 364.35,-29.3 369.3,-24.35"/>
</g>
<!-- Node8 -->
<g id="node8" class="node">
<title>Node8</title>
<g id="a_node8"><a xlink:title=" ">
<polygon fill="white" stroke="#bfbfbf" points="409,-0.5 409,-19.5 465,-19.5 465,-0.5 409,-0.5"/>
<text text-anchor="middle" x="437" y="-7.5" font-family="Helvetica,sans-Serif" font-size="10.00">stdbool.h</text>
</a>
</g>
</g>
<!-- Node7&#45;&gt;Node8 -->
<g id="edge7" class="edge">
<title>Node7&#45;&gt;Node8</title>
<path fill="none" stroke="midnightblue" d="M410.28,-56.08C414.71,-48.61 421.16,-37.72 426.62,-28.52"/>
<polygon fill="midnightblue" stroke="midnightblue" points="429.73,-30.14 431.81,-19.75 423.71,-26.57 429.73,-30.14"/>
</g>
<!-- Node11&#45;&gt;Node12 -->
<g id="edge12" class="edge">
<title>Node11&#45;&gt;Node12</title>
<path fill="none" stroke="midnightblue" d="M836.72,-56.08C832.29,-48.61 825.84,-37.72 820.38,-28.52"/>
<polygon fill="midnightblue" stroke="midnightblue" points="823.29,-26.57 815.19,-19.75 817.27,-30.14 823.29,-26.57"/>
</g>
<!-- Node13&#45;&gt;Node8 -->
<g id="edge14" class="edge">
<title>Node13&#45;&gt;Node8</title>
<path fill="none" stroke="midnightblue" d="M499.95,-56.32C488.54,-48.11 471.17,-35.6 457.57,-25.81"/>
<polygon fill="midnightblue" stroke="midnightblue" points="459.43,-22.84 449.27,-19.83 455.34,-28.52 459.43,-22.84"/>
</g>
<!-- Node14 -->
<g id="node14" class="node">
<title>Node14</title>
<g id="a_node14"><a xlink:title=" ">
<polygon fill="white" stroke="#bfbfbf" points="490,-0.5 490,-19.5 534,-19.5 534,-0.5 490,-0.5"/>
<text text-anchor="middle" x="512" y="-7.5" font-family="Helvetica,sans-Serif" font-size="10.00">time.h</text>
</a>
</g>
</g>
<!-- Node13&#45;&gt;Node14 -->
<g id="edge15" class="edge">
<title>Node13&#45;&gt;Node14</title>
<path fill="none" stroke="midnightblue" d="M512,-56.08C512,-49.01 512,-38.86 512,-29.99"/>
<polygon fill="midnightblue" stroke="midnightblue" points="515.5,-29.75 512,-19.75 508.5,-29.75 515.5,-29.75"/>
</g>
<!-- Node15&#45;&gt;Node6 -->
<g id="edge17" class="edge">
<title>Node15&#45;&gt;Node6</title>
<path fill="none" stroke="midnightblue" d="M297.28,-56.32C306.84,-48.26 321.28,-36.08 332.78,-26.37"/>
<polygon fill="midnightblue" stroke="midnightblue" points="335.14,-28.96 340.53,-19.83 330.63,-23.61 335.14,-28.96"/>
</g>
<!-- Node16 -->
<g id="node16" class="node">
<title>Node16</title>
<g id="a_node16"><a xlink:title=" ">
<polygon fill="white" stroke="#bfbfbf" points="244.5,-0.5 244.5,-19.5 309.5,-19.5 309.5,-0.5 244.5,-0.5"/>
<text text-anchor="middle" x="277" y="-7.5" font-family="Helvetica,sans-Serif" font-size="10.00">boundary.h</text>
</a>
</g>
</g>
<!-- Node15&#45;&gt;Node16 -->
<g id="edge18" class="edge">
<title>Node15&#45;&gt;Node16</title>
<path fill="none" stroke="midnightblue" d="M285.35,-56.08C284.02,-48.93 282.12,-38.64 280.46,-29.69"/>
<polygon fill="midnightblue" stroke="midnightblue" points="283.88,-28.95 278.62,-19.75 277,-30.22 283.88,-28.95"/>
</g>
</g>
</svg>
