<?xml version="1.0" encoding="UTF-8" standalone="no"?>
<!DOCTYPE svg PUBLIC "-//W3C//DTD SVG 1.1//EN"
 "http://www.w3.org/Graphics/SVG/1.1/DTD/svg11.dtd">
<!-- Generated by graphviz version 2.44.0 (0)
 -->
<!-- Title: src/initialCondition.h Pages: 1 -->
<svg width="490pt" height="84pt"
 viewBox="0.00 0.00 489.50 84.00" xmlns="http://www.w3.org/2000/svg" xmlns:xlink="http://www.w3.org/1999/xlink">
<g id="graph0" class="graph" transform="scale(1 1) rotate(0) translate(4 80)">
<title>src/initialCondition.h</title>
<polygon fill="white" stroke="transparent" points="-4,4 -4,-80 485.5,-80 485.5,4 -4,4"/>
<!-- Node1 -->
<g id="node1" class="node">
<title>Node1</title>
<g id="a_node1"><a xlink:title=" ">
<polygon fill="#bfbfbf" stroke="black" points="212.5,-56.5 212.5,-75.5 317.5,-75.5 317.5,-56.5 212.5,-56.5"/>
<text text-anchor="middle" x="265" y="-63.5" font-family="Helvetica,sans-Serif" font-size="10.00">src/initialCondition.h</text>
</a>
</g>
</g>
<!-- Node2 -->
<g id="node2" class="node">
<title>Node2</title>
<g id="a_node2"><a xlink:href="analyze_8c.html" target="_top" xlink:title="Contains functions for analyzing flow results.">
<polygon fill="white" stroke="black" points="0,-0.5 0,-19.5 74,-19.5 74,-0.5 0,-0.5"/>
<text text-anchor="middle" x="37" y="-7.5" font-family="Helvetica,sans-Serif" font-size="10.00">src/analyze.c</text>
</a>
</g>
</g>
<!-- Node1&#45;&gt;Node2 -->
<g id="edge1" class="edge">
<title>Node1&#45;&gt;Node2</title>
<path fill="none" stroke="midnightblue" d="M218.93,-54.09C175.85,-43.89 112.41,-28.86 72.96,-19.52"/>
<polygon fill="midnightblue" stroke="midnightblue" points="218.34,-57.54 228.87,-56.44 219.95,-50.73 218.34,-57.54"/>
</g>
<!-- Node3 -->
<g id="node3" class="node">
<title>Node3</title>
<g id="a_node3"><a xlink:href="exactFunction_8c.html" target="_top" xlink:title="Contains the exact function evaluation function.">
<polygon fill="white" stroke="black" points="92,-0.5 92,-19.5 194,-19.5 194,-0.5 92,-0.5"/>
<text text-anchor="middle" x="143" y="-7.5" font-family="Helvetica,sans-Serif" font-size="10.00">src/exactFunction.c</text>
</a>
</g>
</g>
<!-- Node1&#45;&gt;Node3 -->
<g id="edge2" class="edge">
<title>Node1&#45;&gt;Node3</title>
<path fill="none" stroke="midnightblue" d="M236.46,-52.37C213.61,-42.26 182.19,-28.35 162.24,-19.52"/>
<polygon fill="midnightblue" stroke="midnightblue" points="235.11,-55.6 245.67,-56.44 237.94,-49.2 235.11,-55.6"/>
</g>
<!-- Node4 -->
<g id="node4" class="node">
<title>Node4</title>
<g id="a_node4"><a xlink:href="initialCondition_8c.html" target="_top" xlink:title="Functions involving the initialization and application of initial conditions.">
<polygon fill="white" stroke="black" points="212.5,-0.5 212.5,-19.5 317.5,-19.5 317.5,-0.5 212.5,-0.5"/>
<text text-anchor="middle" x="265" y="-7.5" font-family="Helvetica,sans-Serif" font-size="10.00">src/initialCondition.c</text>
</a>
</g>
</g>
<!-- Node1&#45;&gt;Node4 -->
<g id="edge3" class="edge">
<title>Node1&#45;&gt;Node4</title>
<path fill="none" stroke="midnightblue" d="M265,-45.8C265,-36.91 265,-26.78 265,-19.75"/>
<polygon fill="midnightblue" stroke="midnightblue" points="261.5,-46.08 265,-56.08 268.5,-46.08 261.5,-46.08"/>
</g>
<!-- Node5 -->
<g id="node5" class="node">
<title>Node5</title>
<g id="a_node5"><a xlink:href="main_8c.html" target="_top" xlink:title="Contains the main function of ccfd">
<polygon fill="white" stroke="black" points="336,-0.5 336,-19.5 398,-19.5 398,-0.5 336,-0.5"/>
<text text-anchor="middle" x="367" y="-7.5" font-family="Helvetica,sans-Serif" font-size="10.00">src/main.c</text>
</a>
</g>
</g>
<!-- Node1&#45;&gt;Node5 -->
<g id="edge4" class="edge">
<title>Node1&#45;&gt;Node5</title>
<path fill="none" stroke="midnightblue" d="M290.33,-51.59C309.19,-41.61 334.38,-28.27 350.65,-19.65"/>
<polygon fill="midnightblue" stroke="midnightblue" points="288.59,-48.55 281.39,-56.32 291.86,-54.74 288.59,-48.55"/>
</g>
<!-- Node6 -->
<g id="node6" class="node">
<title>Node6</title>
<g id="a_node6"><a xlink:href="mesh_8c.html" target="_top" xlink:title="Contains all the functions for reading and creating meshes.">
<polygon fill="white" stroke="black" points="416.5,-0.5 416.5,-19.5 481.5,-19.5 481.5,-0.5 416.5,-0.5"/>
<text text-anchor="middle" x="449" y="-7.5" font-family="Helvetica,sans-Serif" font-size="10.00">src/mesh.c</text>
</a>
</g>
</g>
<!-- Node1&#45;&gt;Node6 -->
<g id="edge5" class="edge">
<title>Node1&#45;&gt;Node6</title>
<path fill="none" stroke="midnightblue" d="M303.95,-53.57C338.66,-43.38 388.68,-28.7 419.98,-19.52"/>
<polygon fill="midnightblue" stroke="midnightblue" points="302.77,-50.27 294.16,-56.44 304.74,-56.99 302.77,-50.27"/>
</g>
</g>
</svg>
