<?xml version="1.0" encoding="UTF-8" standalone="no"?>
<!DOCTYPE svg PUBLIC "-//W3C//DTD SVG 1.1//EN"
 "http://www.w3.org/Graphics/SVG/1.1/DTD/svg11.dtd">
<!-- Generated by graphviz version 2.42.3 (0)
 -->
<!-- Title: src/initialCondition.c Pages: 1 -->
<svg width="982pt" height="140pt"
 viewBox="0.00 0.00 981.50 140.00" xmlns="http://www.w3.org/2000/svg" xmlns:xlink="http://www.w3.org/1999/xlink">
<g id="graph0" class="graph" transform="scale(1 1) rotate(0) translate(4 136)">
<title>src/initialCondition.c</title>
<polygon fill="white" stroke="transparent" points="-4,4 -4,-136 977.5,-136 977.5,4 -4,4"/>
<!-- Node1 -->
<g id="node1" class="node">
<title>Node1</title>
<g id="a_node1"><a xlink:title="Functions involving the initialization and application of initial conditions.">
<polygon fill="#bfbfbf" stroke="black" points="385.5,-112.5 385.5,-131.5 490.5,-131.5 490.5,-112.5 385.5,-112.5"/>
<text text-anchor="middle" x="438" y="-119.5" font-family="Helvetica,sans-Serif" font-size="10.00">src/initialCondition.c</text>
</a>
</g>
</g>
<!-- Node2 -->
<g id="node2" class="node">
<title>Node2</title>
<g id="a_node2"><a xlink:title=" ">
<polygon fill="white" stroke="#bfbfbf" points="0,-56.5 0,-75.5 46,-75.5 46,-56.5 0,-56.5"/>
<text text-anchor="middle" x="23" y="-63.5" font-family="Helvetica,sans-Serif" font-size="10.00">stdio.h</text>
</a>
</g>
</g>
<!-- Node1&#45;&gt;Node2 -->
<g id="edge1" class="edge">
<title>Node1&#45;&gt;Node2</title>
<path fill="none" stroke="midnightblue" d="M385.24,-117.44C312.97,-111.98 179.04,-99.79 56.26,-75.98"/>
<polygon fill="midnightblue" stroke="midnightblue" points="56.8,-72.51 46.32,-74.01 55.45,-79.38 56.8,-72.51"/>
</g>
<!-- Node3 -->
<g id="node3" class="node">
<title>Node3</title>
<g id="a_node3"><a xlink:title=" ">
<polygon fill="white" stroke="#bfbfbf" points="64,-56.5 64,-75.5 112,-75.5 112,-56.5 64,-56.5"/>
<text text-anchor="middle" x="88" y="-63.5" font-family="Helvetica,sans-Serif" font-size="10.00">stdlib.h</text>
</a>
</g>
</g>
<!-- Node1&#45;&gt;Node3 -->
<g id="edge2" class="edge">
<title>Node1&#45;&gt;Node3</title>
<path fill="none" stroke="midnightblue" d="M385.49,-115.59C324.36,-108.83 220.25,-95.92 121.87,-75.96"/>
<polygon fill="midnightblue" stroke="midnightblue" points="122.57,-72.53 112.07,-73.94 121.16,-79.38 122.57,-72.53"/>
</g>
<!-- Node4 -->
<g id="node4" class="node">
<title>Node4</title>
<g id="a_node4"><a xlink:title=" ">
<polygon fill="white" stroke="#bfbfbf" points="130.5,-56.5 130.5,-75.5 177.5,-75.5 177.5,-56.5 130.5,-56.5"/>
<text text-anchor="middle" x="154" y="-63.5" font-family="Helvetica,sans-Serif" font-size="10.00">math.h</text>
</a>
</g>
</g>
<!-- Node1&#45;&gt;Node4 -->
<g id="edge3" class="edge">
<title>Node1&#45;&gt;Node4</title>
<path fill="none" stroke="midnightblue" d="M385.09,-113.09C336.09,-105.42 261.02,-92.79 187.58,-76.2"/>
<polygon fill="midnightblue" stroke="midnightblue" points="188.23,-72.76 177.7,-73.94 186.67,-79.58 188.23,-72.76"/>
</g>
<!-- Node5 -->
<g id="node5" class="node">
<title>Node5</title>
<g id="a_node5"><a xlink:title=" ">
<polygon fill="white" stroke="#bfbfbf" points="195.5,-56.5 195.5,-75.5 244.5,-75.5 244.5,-56.5 195.5,-56.5"/>
<text text-anchor="middle" x="220" y="-63.5" font-family="Helvetica,sans-Serif" font-size="10.00">string.h</text>
</a>
</g>
</g>
<!-- Node1&#45;&gt;Node5 -->
<g id="edge4" class="edge">
<title>Node1&#45;&gt;Node5</title>
<path fill="none" stroke="midnightblue" d="M402.33,-112.49C367.26,-104.07 311.94,-90.67 254.8,-76.17"/>
<polygon fill="midnightblue" stroke="midnightblue" points="255.42,-72.72 244.87,-73.64 253.7,-79.5 255.42,-72.72"/>
</g>
<!-- Node6 -->
<g id="node6" class="node">
<title>Node6</title>
<g id="a_node6"><a xlink:href="main_8h.html" target="_top" xlink:title="Contains the global constants and definitions.">
<polygon fill="white" stroke="black" points="344,-0.5 344,-19.5 390,-19.5 390,-0.5 344,-0.5"/>
<text text-anchor="middle" x="367" y="-7.5" font-family="Helvetica,sans-Serif" font-size="10.00">main.h</text>
</a>
</g>
</g>
<!-- Node1&#45;&gt;Node6 -->
<g id="edge5" class="edge">
<title>Node1&#45;&gt;Node6</title>
<path fill="none" stroke="midnightblue" d="M422.94,-112.19C410.67,-104.25 393.82,-91.45 384,-76 375.11,-62 370.85,-43.5 368.82,-29.82"/>
<polygon fill="midnightblue" stroke="midnightblue" points="372.27,-29.17 367.59,-19.66 365.32,-30.01 372.27,-29.17"/>
</g>
<!-- Node7 -->
<g id="node7" class="node">
<title>Node7</title>
<g id="a_node7"><a xlink:href="readInTools_8h.html" target="_top" xlink:title=" ">
<polygon fill="white" stroke="black" points="263,-56.5 263,-75.5 337,-75.5 337,-56.5 263,-56.5"/>
<text text-anchor="middle" x="300" y="-63.5" font-family="Helvetica,sans-Serif" font-size="10.00">readInTools.h</text>
</a>
</g>
</g>
<!-- Node1&#45;&gt;Node7 -->
<g id="edge6" class="edge">
<title>Node1&#45;&gt;Node7</title>
<path fill="none" stroke="midnightblue" d="M416.13,-112.44C393.22,-103.48 357.02,-89.31 331.13,-79.18"/>
<polygon fill="midnightblue" stroke="midnightblue" points="332.35,-75.9 321.76,-75.52 329.8,-82.42 332.35,-75.9"/>
</g>
<!-- Node9 -->
<g id="node9" class="node">
<title>Node9</title>
<g id="a_node9"><a xlink:href="initialCondition_8h.html" target="_top" xlink:title=" ">
<polygon fill="white" stroke="black" points="393.5,-56.5 393.5,-75.5 482.5,-75.5 482.5,-56.5 393.5,-56.5"/>
<text text-anchor="middle" x="438" y="-63.5" font-family="Helvetica,sans-Serif" font-size="10.00">initialCondition.h</text>
</a>
</g>
</g>
<!-- Node1&#45;&gt;Node9 -->
<g id="edge9" class="edge">
<title>Node1&#45;&gt;Node9</title>
<path fill="none" stroke="midnightblue" d="M438,-112.08C438,-105.01 438,-94.86 438,-85.99"/>
<polygon fill="midnightblue" stroke="midnightblue" points="441.5,-85.75 438,-75.75 434.5,-85.75 441.5,-85.75"/>
</g>
<!-- Node10 -->
<g id="node10" class="node">
<title>Node10</title>
<g id="a_node10"><a xlink:title=" ">
<polygon fill="white" stroke="#bfbfbf" points="500,-56.5 500,-75.5 562,-75.5 562,-56.5 500,-56.5"/>
<text text-anchor="middle" x="531" y="-63.5" font-family="Helvetica,sans-Serif" font-size="10.00">equation.h</text>
</a>
</g>
</g>
<!-- Node1&#45;&gt;Node10 -->
<g id="edge10" class="edge">
<title>Node1&#45;&gt;Node10</title>
<path fill="none" stroke="midnightblue" d="M452.94,-112.32C467.59,-103.82 490.13,-90.73 507.24,-80.8"/>
<polygon fill="midnightblue" stroke="midnightblue" points="509.2,-83.7 516.1,-75.65 505.69,-77.65 509.2,-83.7"/>
</g>
<!-- Node11 -->
<g id="node11" class="node">
<title>Node11</title>
<g id="a_node11"><a xlink:href="memTools_8h.html" target="_top" xlink:title=" ">
<polygon fill="white" stroke="black" points="686,-56.5 686,-75.5 756,-75.5 756,-56.5 686,-56.5"/>
<text text-anchor="middle" x="721" y="-63.5" font-family="Helvetica,sans-Serif" font-size="10.00">memTools.h</text>
</a>
</g>
</g>
<!-- Node1&#45;&gt;Node11 -->
<g id="edge11" class="edge">
<title>Node1&#45;&gt;Node11</title>
<path fill="none" stroke="midnightblue" d="M482.84,-112.44C535.59,-102.38 622.66,-85.76 675.64,-75.66"/>
<polygon fill="midnightblue" stroke="midnightblue" points="676.59,-79.04 685.76,-73.73 675.28,-72.16 676.59,-79.04"/>
</g>
<!-- Node12 -->
<g id="node12" class="node">
<title>Node12</title>
<g id="a_node12"><a xlink:title=" ">
<polygon fill="white" stroke="#bfbfbf" points="674,-0.5 674,-19.5 730,-19.5 730,-0.5 674,-0.5"/>
<text text-anchor="middle" x="702" y="-7.5" font-family="Helvetica,sans-Serif" font-size="10.00">cgnslib.h</text>
</a>
</g>
</g>
<!-- Node1&#45;&gt;Node12 -->
<g id="edge18" class="edge">
<title>Node1&#45;&gt;Node12</title>
<path fill="none" stroke="midnightblue" d="M490.6,-117.34C532.71,-112.55 592.11,-101.5 638,-76 659.32,-64.15 678.16,-43.03 689.78,-28.08"/>
<polygon fill="midnightblue" stroke="midnightblue" points="692.85,-29.82 696.04,-19.71 687.24,-25.62 692.85,-29.82"/>
</g>
<!-- Node13 -->
<g id="node13" class="node">
<title>Node13</title>
<g id="a_node13"><a xlink:href="mesh_8h.html" target="_top" xlink:title="Contains the definitions of all structs for the mesh handling.">
<polygon fill="white" stroke="black" points="580.5,-56.5 580.5,-75.5 629.5,-75.5 629.5,-56.5 580.5,-56.5"/>
<text text-anchor="middle" x="605" y="-63.5" font-family="Helvetica,sans-Serif" font-size="10.00">mesh.h</text>
</a>
</g>
</g>
<!-- Node1&#45;&gt;Node13 -->
<g id="edge13" class="edge">
<title>Node1&#45;&gt;Node13</title>
<path fill="none" stroke="midnightblue" d="M464.46,-112.44C493.18,-103.16 539.13,-88.3 570.62,-78.12"/>
<polygon fill="midnightblue" stroke="midnightblue" points="571.86,-81.4 580.3,-74.99 569.7,-74.73 571.86,-81.4"/>
</g>
<!-- Node15 -->
<g id="node15" class="node">
<title>Node15</title>
<g id="a_node15"><a xlink:title=" ">
<polygon fill="white" stroke="#bfbfbf" points="774,-56.5 774,-75.5 860,-75.5 860,-56.5 774,-56.5"/>
<text text-anchor="middle" x="817" y="-63.5" font-family="Helvetica,sans-Serif" font-size="10.00">exactFunction.h</text>
</a>
</g>
</g>
<!-- Node1&#45;&gt;Node15 -->
<g id="edge16" class="edge">
<title>Node1&#45;&gt;Node15</title>
<path fill="none" stroke="midnightblue" d="M490.75,-114.31C553.44,-106.24 661.44,-91.92 763.98,-76.11"/>
<polygon fill="midnightblue" stroke="midnightblue" points="764.54,-79.57 773.89,-74.58 763.47,-72.65 764.54,-79.57"/>
</g>
<!-- Node16 -->
<g id="node16" class="node">
<title>Node16</title>
<g id="a_node16"><a xlink:title=" ">
<polygon fill="white" stroke="#bfbfbf" points="878.5,-56.5 878.5,-75.5 973.5,-75.5 973.5,-56.5 878.5,-56.5"/>
<text text-anchor="middle" x="926" y="-63.5" font-family="Helvetica,sans-Serif" font-size="10.00">equationOfState.h</text>
</a>
</g>
</g>
<!-- Node1&#45;&gt;Node16 -->
<g id="edge17" class="edge">
<title>Node1&#45;&gt;Node16</title>
<path fill="none" stroke="midnightblue" d="M490.52,-116.41C569.88,-109.29 725.36,-94.55 868.18,-76.04"/>
<polygon fill="midnightblue" stroke="midnightblue" points="868.98,-79.47 878.44,-74.7 868.07,-72.52 868.98,-79.47"/>
</g>
<!-- Node7&#45;&gt;Node6 -->
<g id="edge8" class="edge">
<title>Node7&#45;&gt;Node6</title>
<path fill="none" stroke="midnightblue" d="M310.76,-56.32C320.77,-48.26 335.89,-36.08 347.93,-26.37"/>
<polygon fill="midnightblue" stroke="midnightblue" points="350.45,-28.83 356.04,-19.83 346.06,-23.38 350.45,-28.83"/>
</g>
<!-- Node8 -->
<g id="node8" class="node">
<title>Node8</title>
<g id="a_node8"><a xlink:title=" ">
<polygon fill="white" stroke="#bfbfbf" points="270,-0.5 270,-19.5 326,-19.5 326,-0.5 270,-0.5"/>
<text text-anchor="middle" x="298" y="-7.5" font-family="Helvetica,sans-Serif" font-size="10.00">stdbool.h</text>
</a>
</g>
</g>
<!-- Node7&#45;&gt;Node8 -->
<g id="edge7" class="edge">
<title>Node7&#45;&gt;Node8</title>
<path fill="none" stroke="midnightblue" d="M299.67,-56.08C299.41,-49.01 299.03,-38.86 298.7,-29.99"/>
<polygon fill="midnightblue" stroke="midnightblue" points="302.19,-29.61 298.32,-19.75 295.2,-29.87 302.19,-29.61"/>
</g>
<!-- Node11&#45;&gt;Node12 -->
<g id="edge12" class="edge">
<title>Node11&#45;&gt;Node12</title>
<path fill="none" stroke="midnightblue" d="M717.86,-56.08C715.32,-48.85 711.64,-38.41 708.47,-29.4"/>
<polygon fill="midnightblue" stroke="midnightblue" points="711.7,-28.02 705.08,-19.75 705.1,-30.35 711.7,-28.02"/>
</g>
<!-- Node13&#45;&gt;Node6 -->
<g id="edge14" class="edge">
<title>Node13&#45;&gt;Node6</title>
<path fill="none" stroke="midnightblue" d="M580.15,-58.29C577.07,-57.5 573.97,-56.72 571,-56 510.85,-41.41 440.25,-26.28 399.85,-17.81"/>
<polygon fill="midnightblue" stroke="midnightblue" points="400.52,-14.37 390.02,-15.75 399.09,-21.22 400.52,-14.37"/>
</g>
<!-- Node14 -->
<g id="node14" class="node">
<title>Node14</title>
<g id="a_node14"><a xlink:title=" ">
<polygon fill="white" stroke="#bfbfbf" points="572.5,-0.5 572.5,-19.5 637.5,-19.5 637.5,-0.5 572.5,-0.5"/>
<text text-anchor="middle" x="605" y="-7.5" font-family="Helvetica,sans-Serif" font-size="10.00">boundary.h</text>
</a>
</g>
</g>
<!-- Node13&#45;&gt;Node14 -->
<g id="edge15" class="edge">
<title>Node13&#45;&gt;Node14</title>
<path fill="none" stroke="midnightblue" d="M605,-56.08C605,-49.01 605,-38.86 605,-29.99"/>
<polygon fill="midnightblue" stroke="midnightblue" points="608.5,-29.75 605,-19.75 601.5,-29.75 608.5,-29.75"/>
</g>
</g>
</svg>
