<?xml version="1.0" encoding="UTF-8" standalone="no"?>
<!DOCTYPE svg PUBLIC "-//W3C//DTD SVG 1.1//EN"
 "http://www.w3.org/Graphics/SVG/1.1/DTD/svg11.dtd">
<!-- Generated by graphviz version 2.42.3 (0)
 -->
<!-- Title: src/linearSolver.h Pages: 1 -->
<svg width="154pt" height="196pt"
 viewBox="0.00 0.00 154.00 196.00" xmlns="http://www.w3.org/2000/svg" xmlns:xlink="http://www.w3.org/1999/xlink">
<g id="graph0" class="graph" transform="scale(1 1) rotate(0) translate(4 192)">
<title>src/linearSolver.h</title>
<polygon fill="white" stroke="transparent" points="-4,4 -4,-192 150,-192 150,4 -4,4"/>
<!-- Node1 -->
<g id="node1" class="node">
<title>Node1</title>
<g id="a_node1"><a xlink:title=" ">
<polygon fill="#bfbfbf" stroke="black" points="16,-168.5 16,-187.5 108,-187.5 108,-168.5 16,-168.5"/>
<text text-anchor="middle" x="62" y="-175.5" font-family="Helvetica,sans-Serif" font-size="10.00">src/linearSolver.h</text>
</a>
</g>
</g>
<!-- Node2 -->
<g id="node2" class="node">
<title>Node2</title>
<g id="a_node2"><a xlink:title=" ">
<polygon fill="white" stroke="#bfbfbf" points="0,-0.5 0,-19.5 56,-19.5 56,-0.5 0,-0.5"/>
<text text-anchor="middle" x="28" y="-7.5" font-family="Helvetica,sans-Serif" font-size="10.00">stdbool.h</text>
</a>
</g>
</g>
<!-- Node1&#45;&gt;Node2 -->
<g id="edge1" class="edge">
<title>Node1&#45;&gt;Node2</title>
<path fill="none" stroke="midnightblue" d="M53.18,-168.22C45.21,-159.73 33.87,-146.1 28,-132 13.92,-98.18 19.02,-54.29 23.71,-29.74"/>
<polygon fill="midnightblue" stroke="midnightblue" points="27.2,-30.16 25.82,-19.65 20.35,-28.72 27.2,-30.16"/>
</g>
<!-- Node3 -->
<g id="node3" class="node">
<title>Node3</title>
<g id="a_node3"><a xlink:href="main_8h.html" target="_top" xlink:title="Contains the global constants and definitions.">
<polygon fill="white" stroke="black" points="100,-0.5 100,-19.5 146,-19.5 146,-0.5 100,-0.5"/>
<text text-anchor="middle" x="123" y="-7.5" font-family="Helvetica,sans-Serif" font-size="10.00">main.h</text>
</a>
</g>
</g>
<!-- Node1&#45;&gt;Node3 -->
<g id="edge2" class="edge">
<title>Node1&#45;&gt;Node3</title>
<path fill="none" stroke="midnightblue" d="M69.74,-168.38C83.88,-151.9 113.26,-114.17 122,-76 125.51,-60.68 125.49,-42.8 124.75,-29.68"/>
<polygon fill="midnightblue" stroke="midnightblue" points="128.23,-29.26 123.99,-19.55 121.25,-29.78 128.23,-29.26"/>
</g>
<!-- Node4 -->
<g id="node4" class="node">
<title>Node4</title>
<g id="a_node4"><a xlink:href="mesh_8h.html" target="_top" xlink:title="Contains the definitions of all structs for the mesh handling.">
<polygon fill="white" stroke="black" points="37.5,-112.5 37.5,-131.5 86.5,-131.5 86.5,-112.5 37.5,-112.5"/>
<text text-anchor="middle" x="62" y="-119.5" font-family="Helvetica,sans-Serif" font-size="10.00">mesh.h</text>
</a>
</g>
</g>
<!-- Node1&#45;&gt;Node4 -->
<g id="edge3" class="edge">
<title>Node1&#45;&gt;Node4</title>
<path fill="none" stroke="midnightblue" d="M62,-168.08C62,-161.01 62,-150.86 62,-141.99"/>
<polygon fill="midnightblue" stroke="midnightblue" points="65.5,-141.75 62,-131.75 58.5,-141.75 65.5,-141.75"/>
</g>
<!-- Node4&#45;&gt;Node3 -->
<g id="edge4" class="edge">
<title>Node4&#45;&gt;Node3</title>
<path fill="none" stroke="midnightblue" d="M72.44,-112.4C81.96,-104.03 95.75,-90.49 104,-76 112.18,-61.63 117.11,-43.44 119.89,-29.95"/>
<polygon fill="midnightblue" stroke="midnightblue" points="123.36,-30.39 121.74,-19.92 116.48,-29.12 123.36,-30.39"/>
</g>
<!-- Node5 -->
<g id="node5" class="node">
<title>Node5</title>
<g id="a_node5"><a xlink:href="boundary_8h.html" target="_top" xlink:title="Contains the structure definition of a boundary.">
<polygon fill="white" stroke="black" points="29.5,-56.5 29.5,-75.5 94.5,-75.5 94.5,-56.5 29.5,-56.5"/>
<text text-anchor="middle" x="62" y="-63.5" font-family="Helvetica,sans-Serif" font-size="10.00">boundary.h</text>
</a>
</g>
</g>
<!-- Node4&#45;&gt;Node5 -->
<g id="edge5" class="edge">
<title>Node4&#45;&gt;Node5</title>
<path fill="none" stroke="midnightblue" d="M56.83,-112.08C55.32,-104.93 54.89,-94.64 55.54,-85.69"/>
<polygon fill="midnightblue" stroke="midnightblue" points="59.02,-86.13 56.87,-75.75 52.08,-85.2 59.02,-86.13"/>
</g>
<!-- Node5&#45;&gt;Node2 -->
<g id="edge6" class="edge">
<title>Node5&#45;&gt;Node2</title>
<path fill="none" stroke="midnightblue" d="M56.39,-56.08C51.63,-48.53 44.68,-37.49 38.85,-28.23"/>
<polygon fill="midnightblue" stroke="midnightblue" points="41.8,-26.35 33.51,-19.75 35.88,-30.08 41.8,-26.35"/>
</g>
<!-- Node5&#45;&gt;Node3 -->
<g id="edge7" class="edge">
<title>Node5&#45;&gt;Node3</title>
<path fill="none" stroke="midnightblue" d="M71.8,-56.32C80.82,-48.34 94.41,-36.31 105.32,-26.65"/>
<polygon fill="midnightblue" stroke="midnightblue" points="107.85,-29.08 113.02,-19.83 103.21,-23.84 107.85,-29.08"/>
</g>
<!-- Node5&#45;&gt;Node4 -->
<g id="edge8" class="edge">
<title>Node5&#45;&gt;Node4</title>
<path fill="none" stroke="midnightblue" d="M67.13,-75.75C68.66,-82.86 69.1,-93.14 68.47,-102.1"/>
<polygon fill="midnightblue" stroke="midnightblue" points="64.99,-101.71 67.17,-112.08 71.93,-102.62 64.99,-101.71"/>
</g>
</g>
</svg>
