<?xml version="1.0" encoding="UTF-8" standalone="no"?>
<!DOCTYPE svg PUBLIC "-//W3C//DTD SVG 1.1//EN"
 "http://www.w3.org/Graphics/SVG/1.1/DTD/svg11.dtd">
<!-- Generated by graphviz version 2.42.3 (0)
 -->
<!-- Title: src/linearSolver.c Pages: 1 -->
<svg width="1019pt" height="196pt"
 viewBox="0.00 0.00 1019.00 196.00" xmlns="http://www.w3.org/2000/svg" xmlns:xlink="http://www.w3.org/1999/xlink">
<g id="graph0" class="graph" transform="scale(1 1) rotate(0) translate(4 192)">
<title>src/linearSolver.c</title>
<polygon fill="white" stroke="transparent" points="-4,4 -4,-192 1015,-192 1015,4 -4,4"/>
<!-- Node1 -->
<g id="node1" class="node">
<title>Node1</title>
<g id="a_node1"><a xlink:title="Contains the functions for solving the linear system of equations during implicit calculations.">
<polygon fill="#bfbfbf" stroke="black" points="382,-168.5 382,-187.5 474,-187.5 474,-168.5 382,-168.5"/>
<text text-anchor="middle" x="428" y="-175.5" font-family="Helvetica,sans-Serif" font-size="10.00">src/linearSolver.c</text>
</a>
</g>
</g>
<!-- Node2 -->
<g id="node2" class="node">
<title>Node2</title>
<g id="a_node2"><a xlink:title=" ">
<polygon fill="white" stroke="#bfbfbf" points="0,-112.5 0,-131.5 46,-131.5 46,-112.5 0,-112.5"/>
<text text-anchor="middle" x="23" y="-119.5" font-family="Helvetica,sans-Serif" font-size="10.00">stdio.h</text>
</a>
</g>
</g>
<!-- Node1&#45;&gt;Node2 -->
<g id="edge1" class="edge">
<title>Node1&#45;&gt;Node2</title>
<path fill="none" stroke="midnightblue" d="M381.99,-173.74C313.08,-168.37 178.89,-155.96 56.25,-131.98"/>
<polygon fill="midnightblue" stroke="midnightblue" points="56.81,-128.52 46.32,-130.01 55.44,-135.39 56.81,-128.52"/>
</g>
<!-- Node3 -->
<g id="node3" class="node">
<title>Node3</title>
<g id="a_node3"><a xlink:title=" ">
<polygon fill="white" stroke="#bfbfbf" points="64,-112.5 64,-131.5 112,-131.5 112,-112.5 64,-112.5"/>
<text text-anchor="middle" x="88" y="-119.5" font-family="Helvetica,sans-Serif" font-size="10.00">stdlib.h</text>
</a>
</g>
</g>
<!-- Node1&#45;&gt;Node3 -->
<g id="edge2" class="edge">
<title>Node1&#45;&gt;Node3</title>
<path fill="none" stroke="midnightblue" d="M381.92,-172.01C323.61,-165.3 219.93,-152.08 122.12,-132.02"/>
<polygon fill="midnightblue" stroke="midnightblue" points="122.57,-128.53 112.07,-129.92 121.15,-135.39 122.57,-128.53"/>
</g>
<!-- Node4 -->
<g id="node4" class="node">
<title>Node4</title>
<g id="a_node4"><a xlink:title=" ">
<polygon fill="white" stroke="#bfbfbf" points="204,-56.5 204,-75.5 260,-75.5 260,-56.5 204,-56.5"/>
<text text-anchor="middle" x="232" y="-63.5" font-family="Helvetica,sans-Serif" font-size="10.00">stdbool.h</text>
</a>
</g>
</g>
<!-- Node1&#45;&gt;Node4 -->
<g id="edge3" class="edge">
<title>Node1&#45;&gt;Node4</title>
<path fill="none" stroke="midnightblue" d="M381.66,-177.35C341.94,-175.12 285.79,-165.58 251,-132 238.58,-120.02 234.16,-100.41 232.64,-85.86"/>
<polygon fill="midnightblue" stroke="midnightblue" points="236.11,-85.26 231.96,-75.52 229.13,-85.73 236.11,-85.26"/>
</g>
<!-- Node5 -->
<g id="node5" class="node">
<title>Node5</title>
<g id="a_node5"><a xlink:title=" ">
<polygon fill="white" stroke="#bfbfbf" points="430.5,-112.5 430.5,-131.5 477.5,-131.5 477.5,-112.5 430.5,-112.5"/>
<text text-anchor="middle" x="454" y="-119.5" font-family="Helvetica,sans-Serif" font-size="10.00">math.h</text>
</a>
</g>
</g>
<!-- Node1&#45;&gt;Node5 -->
<g id="edge4" class="edge">
<title>Node1&#45;&gt;Node5</title>
<path fill="none" stroke="midnightblue" d="M432.29,-168.08C435.85,-160.69 441.02,-149.95 445.42,-140.81"/>
<polygon fill="midnightblue" stroke="midnightblue" points="448.6,-142.28 449.79,-131.75 442.29,-139.24 448.6,-142.28"/>
</g>
<!-- Node6 -->
<g id="node6" class="node">
<title>Node6</title>
<g id="a_node6"><a xlink:title=" ">
<polygon fill="white" stroke="#bfbfbf" points="495.5,-112.5 495.5,-131.5 538.5,-131.5 538.5,-112.5 495.5,-112.5"/>
<text text-anchor="middle" x="517" y="-119.5" font-family="Helvetica,sans-Serif" font-size="10.00">float.h</text>
</a>
</g>
</g>
<!-- Node1&#45;&gt;Node6 -->
<g id="edge5" class="edge">
<title>Node1&#45;&gt;Node6</title>
<path fill="none" stroke="midnightblue" d="M442.3,-168.32C456.18,-159.9 477.49,-146.97 493.8,-137.07"/>
<polygon fill="midnightblue" stroke="midnightblue" points="496,-139.83 502.74,-131.65 492.37,-133.85 496,-139.83"/>
</g>
<!-- Node7 -->
<g id="node7" class="node">
<title>Node7</title>
<g id="a_node7"><a xlink:title=" ">
<polygon fill="white" stroke="#bfbfbf" points="556.5,-112.5 556.5,-131.5 605.5,-131.5 605.5,-112.5 556.5,-112.5"/>
<text text-anchor="middle" x="581" y="-119.5" font-family="Helvetica,sans-Serif" font-size="10.00">string.h</text>
</a>
</g>
</g>
<!-- Node1&#45;&gt;Node7 -->
<g id="edge6" class="edge">
<title>Node1&#45;&gt;Node7</title>
<path fill="none" stroke="midnightblue" d="M452.24,-168.44C477.87,-159.4 518.49,-145.06 547.24,-134.92"/>
<polygon fill="midnightblue" stroke="midnightblue" points="548.61,-138.15 556.87,-131.52 546.28,-131.54 548.61,-138.15"/>
</g>
<!-- Node8 -->
<g id="node8" class="node">
<title>Node8</title>
<g id="a_node8"><a xlink:href="main_8h.html" target="_top" xlink:title="Contains the global constants and definitions.">
<polygon fill="white" stroke="black" points="297,-0.5 297,-19.5 343,-19.5 343,-0.5 297,-0.5"/>
<text text-anchor="middle" x="320" y="-7.5" font-family="Helvetica,sans-Serif" font-size="10.00">main.h</text>
</a>
</g>
</g>
<!-- Node1&#45;&gt;Node8 -->
<g id="edge7" class="edge">
<title>Node1&#45;&gt;Node8</title>
<path fill="none" stroke="midnightblue" d="M422.19,-168.08C404.97,-141.61 353.97,-63.21 331.2,-28.21"/>
<polygon fill="midnightblue" stroke="midnightblue" points="333.96,-26.04 325.57,-19.57 328.09,-29.86 333.96,-26.04"/>
</g>
<!-- Node9 -->
<g id="node9" class="node">
<title>Node9</title>
<g id="a_node9"><a xlink:href="linearSolver_8h.html" target="_top" xlink:title=" ">
<polygon fill="white" stroke="black" points="260.5,-112.5 260.5,-131.5 335.5,-131.5 335.5,-112.5 260.5,-112.5"/>
<text text-anchor="middle" x="298" y="-119.5" font-family="Helvetica,sans-Serif" font-size="10.00">linearSolver.h</text>
</a>
</g>
</g>
<!-- Node1&#45;&gt;Node9 -->
<g id="edge8" class="edge">
<title>Node1&#45;&gt;Node9</title>
<path fill="none" stroke="midnightblue" d="M407.4,-168.44C386.01,-159.56 352.32,-145.56 327.98,-135.45"/>
<polygon fill="midnightblue" stroke="midnightblue" points="329.08,-132.12 318.5,-131.52 326.39,-138.58 329.08,-132.12"/>
</g>
<!-- Node10 -->
<g id="node10" class="node">
<title>Node10</title>
<g id="a_node10"><a xlink:href="mesh_8h.html" target="_top" xlink:title="Contains the definitions of all structs for the mesh handling.">
<polygon fill="white" stroke="black" points="384.5,-56.5 384.5,-75.5 433.5,-75.5 433.5,-56.5 384.5,-56.5"/>
<text text-anchor="middle" x="409" y="-63.5" font-family="Helvetica,sans-Serif" font-size="10.00">mesh.h</text>
</a>
</g>
</g>
<!-- Node1&#45;&gt;Node10 -->
<g id="edge17" class="edge">
<title>Node1&#45;&gt;Node10</title>
<path fill="none" stroke="midnightblue" d="M426.51,-168.37C423.44,-150.62 416.37,-109.67 412.21,-85.6"/>
<polygon fill="midnightblue" stroke="midnightblue" points="415.64,-84.85 410.48,-75.59 408.74,-86.04 415.64,-84.85"/>
</g>
<!-- Node12 -->
<g id="node12" class="node">
<title>Node12</title>
<g id="a_node12"><a xlink:href="readInTools_8h.html" target="_top" xlink:title=" ">
<polygon fill="white" stroke="black" points="130,-112.5 130,-131.5 204,-131.5 204,-112.5 130,-112.5"/>
<text text-anchor="middle" x="167" y="-119.5" font-family="Helvetica,sans-Serif" font-size="10.00">readInTools.h</text>
</a>
</g>
</g>
<!-- Node1&#45;&gt;Node12 -->
<g id="edge14" class="edge">
<title>Node1&#45;&gt;Node12</title>
<path fill="none" stroke="midnightblue" d="M386.64,-168.44C339.81,-158.75 263.63,-142.99 214.43,-132.81"/>
<polygon fill="midnightblue" stroke="midnightblue" points="214.86,-129.33 204.36,-130.73 213.44,-136.18 214.86,-129.33"/>
</g>
<!-- Node13 -->
<g id="node13" class="node">
<title>Node13</title>
<g id="a_node13"><a xlink:href="memTools_8h.html" target="_top" xlink:title=" ">
<polygon fill="white" stroke="black" points="624,-112.5 624,-131.5 694,-131.5 694,-112.5 624,-112.5"/>
<text text-anchor="middle" x="659" y="-119.5" font-family="Helvetica,sans-Serif" font-size="10.00">memTools.h</text>
</a>
</g>
</g>
<!-- Node1&#45;&gt;Node13 -->
<g id="edge18" class="edge">
<title>Node1&#45;&gt;Node13</title>
<path fill="none" stroke="midnightblue" d="M464.6,-168.44C505.09,-158.98 570.34,-143.73 613.93,-133.54"/>
<polygon fill="midnightblue" stroke="midnightblue" points="614.76,-136.94 623.7,-131.25 613.17,-130.12 614.76,-136.94"/>
</g>
<!-- Node15 -->
<g id="node15" class="node">
<title>Node15</title>
<g id="a_node15"><a xlink:title=" ">
<polygon fill="white" stroke="#bfbfbf" points="712.5,-112.5 712.5,-131.5 801.5,-131.5 801.5,-112.5 712.5,-112.5"/>
<text text-anchor="middle" x="757" y="-119.5" font-family="Helvetica,sans-Serif" font-size="10.00">fluxCalculation.h</text>
</a>
</g>
</g>
<!-- Node1&#45;&gt;Node15 -->
<g id="edge20" class="edge">
<title>Node1&#45;&gt;Node15</title>
<path fill="none" stroke="midnightblue" d="M474.23,-169.48C526.85,-160.91 615.67,-146.41 702.22,-132.13"/>
<polygon fill="midnightblue" stroke="midnightblue" points="702.92,-135.56 712.21,-130.48 701.78,-128.65 702.92,-135.56"/>
</g>
<!-- Node16 -->
<g id="node16" class="node">
<title>Node16</title>
<g id="a_node16"><a xlink:title=" ">
<polygon fill="white" stroke="#bfbfbf" points="819.5,-112.5 819.5,-131.5 914.5,-131.5 914.5,-112.5 819.5,-112.5"/>
<text text-anchor="middle" x="867" y="-119.5" font-family="Helvetica,sans-Serif" font-size="10.00">equationOfState.h</text>
</a>
</g>
</g>
<!-- Node1&#45;&gt;Node16 -->
<g id="edge21" class="edge">
<title>Node1&#45;&gt;Node16</title>
<path fill="none" stroke="midnightblue" d="M474.07,-172.23C544.25,-164.81 682.4,-149.67 809.46,-132.17"/>
<polygon fill="midnightblue" stroke="midnightblue" points="809.94,-135.64 819.36,-130.8 808.98,-128.7 809.94,-135.64"/>
</g>
<!-- Node17 -->
<g id="node17" class="node">
<title>Node17</title>
<g id="a_node17"><a xlink:href="finiteVolume_8h.html" target="_top" xlink:title=" ">
<polygon fill="white" stroke="black" points="933,-112.5 933,-131.5 1011,-131.5 1011,-112.5 933,-112.5"/>
<text text-anchor="middle" x="972" y="-119.5" font-family="Helvetica,sans-Serif" font-size="10.00">finiteVolume.h</text>
</a>
</g>
</g>
<!-- Node1&#45;&gt;Node17 -->
<g id="edge22" class="edge">
<title>Node1&#45;&gt;Node17</title>
<path fill="none" stroke="midnightblue" d="M474.32,-174.27C560.59,-168.86 751.88,-155.38 922.83,-132.04"/>
<polygon fill="midnightblue" stroke="midnightblue" points="923.33,-135.51 932.76,-130.67 922.37,-128.57 923.33,-135.51"/>
</g>
<!-- Node9&#45;&gt;Node4 -->
<g id="edge9" class="edge">
<title>Node9&#45;&gt;Node4</title>
<path fill="none" stroke="midnightblue" d="M287.4,-112.32C277.54,-104.26 262.65,-92.08 250.78,-82.37"/>
<polygon fill="midnightblue" stroke="midnightblue" points="252.75,-79.46 242.8,-75.83 248.32,-84.88 252.75,-79.46"/>
</g>
<!-- Node9&#45;&gt;Node8 -->
<g id="edge10" class="edge">
<title>Node9&#45;&gt;Node8</title>
<path fill="none" stroke="midnightblue" d="M299.73,-112.37C303.28,-94.62 311.47,-53.67 316.28,-29.6"/>
<polygon fill="midnightblue" stroke="midnightblue" points="319.75,-30.08 318.28,-19.59 312.89,-28.71 319.75,-30.08"/>
</g>
<!-- Node9&#45;&gt;Node10 -->
<g id="edge11" class="edge">
<title>Node9&#45;&gt;Node10</title>
<path fill="none" stroke="midnightblue" d="M315.83,-112.32C333.72,-103.62 361.48,-90.12 382.05,-80.11"/>
<polygon fill="midnightblue" stroke="midnightblue" points="383.75,-83.18 391.21,-75.65 380.69,-76.88 383.75,-83.18"/>
</g>
<!-- Node10&#45;&gt;Node8 -->
<g id="edge12" class="edge">
<title>Node10&#45;&gt;Node8</title>
<path fill="none" stroke="midnightblue" d="M394.7,-56.32C380.82,-47.9 359.51,-34.97 343.2,-25.07"/>
<polygon fill="midnightblue" stroke="midnightblue" points="344.63,-21.85 334.26,-19.65 341,-27.83 344.63,-21.85"/>
</g>
<!-- Node11 -->
<g id="node11" class="node">
<title>Node11</title>
<g id="a_node11"><a xlink:title=" ">
<polygon fill="white" stroke="#bfbfbf" points="376.5,-0.5 376.5,-19.5 441.5,-19.5 441.5,-0.5 376.5,-0.5"/>
<text text-anchor="middle" x="409" y="-7.5" font-family="Helvetica,sans-Serif" font-size="10.00">boundary.h</text>
</a>
</g>
</g>
<!-- Node10&#45;&gt;Node11 -->
<g id="edge13" class="edge">
<title>Node10&#45;&gt;Node11</title>
<path fill="none" stroke="midnightblue" d="M409,-56.08C409,-49.01 409,-38.86 409,-29.99"/>
<polygon fill="midnightblue" stroke="midnightblue" points="412.5,-29.75 409,-19.75 405.5,-29.75 412.5,-29.75"/>
</g>
<!-- Node12&#45;&gt;Node4 -->
<g id="edge15" class="edge">
<title>Node12&#45;&gt;Node4</title>
<path fill="none" stroke="midnightblue" d="M177.44,-112.32C187.15,-104.26 201.82,-92.08 213.5,-82.37"/>
<polygon fill="midnightblue" stroke="midnightblue" points="215.91,-84.92 221.37,-75.83 211.44,-79.53 215.91,-84.92"/>
</g>
<!-- Node12&#45;&gt;Node8 -->
<g id="edge16" class="edge">
<title>Node12&#45;&gt;Node8</title>
<path fill="none" stroke="midnightblue" d="M168.49,-112.14C171.27,-98.29 178.53,-71.49 195,-56 220.33,-32.18 259.17,-20.81 286.83,-15.49"/>
<polygon fill="midnightblue" stroke="midnightblue" points="287.58,-18.91 296.83,-13.73 286.37,-12.01 287.58,-18.91"/>
</g>
<!-- Node14 -->
<g id="node14" class="node">
<title>Node14</title>
<g id="a_node14"><a xlink:title=" ">
<polygon fill="white" stroke="#bfbfbf" points="631,-56.5 631,-75.5 687,-75.5 687,-56.5 631,-56.5"/>
<text text-anchor="middle" x="659" y="-63.5" font-family="Helvetica,sans-Serif" font-size="10.00">cgnslib.h</text>
</a>
</g>
</g>
<!-- Node13&#45;&gt;Node14 -->
<g id="edge19" class="edge">
<title>Node13&#45;&gt;Node14</title>
<path fill="none" stroke="midnightblue" d="M659,-112.08C659,-105.01 659,-94.86 659,-85.99"/>
<polygon fill="midnightblue" stroke="midnightblue" points="662.5,-85.75 659,-75.75 655.5,-85.75 662.5,-85.75"/>
</g>
</g>
</svg>
