<?xml version="1.0" encoding="UTF-8" standalone="no"?>
<!DOCTYPE svg PUBLIC "-//W3C//DTD SVG 1.1//EN"
 "http://www.w3.org/Graphics/SVG/1.1/DTD/svg11.dtd">
<!-- Generated by graphviz version 2.42.3 (0)
 -->
<!-- Title: src/main.c Pages: 1 -->
<!--zoomable 196 -->
<svg id="main" version="1.1" xmlns="http://www.w3.org/2000/svg" xmlns:xlink="http://www.w3.org/1999/xlink" xml:space="preserve" onload="init(evt)">
<style type="text/css"><![CDATA[
.edge:hover path { stroke: red; }
.edge:hover polygon { stroke: red; fill: red; }
]]></style>
<script type="text/javascript"><![CDATA[
var edges = document.getElementsByTagName('g');
if (edges && edges.length) {
  for (var i=0;i<edges.length;i++) {
    if (edges[i].id.substr(0,4)=='edge') {
      edges[i].setAttribute('class','edge');
    }
  }
}
]]></script>
        <defs>
                <circle id="rim" cx="0" cy="0" r="7"/>
                <circle id="rim2" cx="0" cy="0" r="3.5"/>
                <g id="zoomPlus">
                        <use xlink:href="#rim" fill="#404040">
                                <set attributeName="fill" to="#808080" begin="zoomplus.mouseover" end="zoomplus.mouseout"/>
                        </use>
                        <path d="M-4,0h8M0,-4v8" fill="none" stroke="white" stroke-width="1.5" pointer-events="none"/>
                </g>
                <g id="zoomMin">
                        <use xlink:href="#rim" fill="#404040">
                                <set attributeName="fill" to="#808080" begin="zoomminus.mouseover" end="zoomminus.mouseout"/>
                        </use>
                        <path d="M-4,0h8" fill="none" stroke="white" stroke-width="1.5" pointer-events="none"/>
                </g>
                <g id="dirArrow">
                        <path fill="none" stroke="white" stroke-width="1.5" d="M0,-3.0v7 M-2.5,-0.5L0,-3.0L2.5,-0.5"/>
                </g>
               <g id="resetDef">
                       <use xlink:href="#rim2" fill="#404040">
                               <set attributeName="fill" to="#808080" begin="reset.mouseover" end="reset.mouseout"/>
                       </use>
               </g>
        </defs>

<script type="text/javascript">
var viewWidth = 987;
var viewHeight = 196;
var sectionId = 'dynsection-0';
</script>
<script xlink:href="svgpan.js"/>
<svg id="graph" class="graph">
<g id="viewport">
<title>src/main.c</title>
<polygon fill="white" stroke="transparent" points="-4,4 -4,-192 983.45,-192 983.45,4 -4,4"/>
<!-- Node1 -->
<g id="node1" class="node">
<title>Node1</title>
<g id="a_node1"><a xlink:title="Contains the main function of ccfd">
<polygon fill="#bfbfbf" stroke="black" points="408,-168.5 408,-187.5 470,-187.5 470,-168.5 408,-168.5"/>
<text text-anchor="middle" x="439" y="-175.5" font-family="Helvetica,sans-Serif" font-size="10.00">src/main.c</text>
</a>
</g>
</g>
<!-- Node2 -->
<g id="node2" class="node">
<title>Node2</title>
<g id="a_node2"><a xlink:title=" ">
<polygon fill="white" stroke="#bfbfbf" points="0,-112.5 0,-131.5 46,-131.5 46,-112.5 0,-112.5"/>
<text text-anchor="middle" x="23" y="-119.5" font-family="Helvetica,sans-Serif" font-size="10.00">stdio.h</text>
</a>
</g>
</g>
<!-- Node1&#45;&gt;Node2 -->
<g id="edge1" class="edge">
<title>Node1&#45;&gt;Node2</title>
<path fill="none" stroke="midnightblue" d="M407.86,-174.58C342.86,-169.25 188.14,-155.1 60,-132 58.72,-131.77 57.42,-131.52 56.1,-131.26"/>
<polygon fill="midnightblue" stroke="midnightblue" points="56.52,-127.77 46,-129.05 55.02,-134.6 56.52,-127.77"/>
</g>
<!-- Node3 -->
<g id="node3" class="node">
<title>Node3</title>
<g id="a_node3"><a xlink:title=" ">
<polygon fill="white" stroke="#bfbfbf" points="210,-56.5 210,-75.5 258,-75.5 258,-56.5 210,-56.5"/>
<text text-anchor="middle" x="234" y="-63.5" font-family="Helvetica,sans-Serif" font-size="10.00">stdlib.h</text>
</a>
</g>
</g>
<!-- Node1&#45;&gt;Node3 -->
<g id="edge2" class="edge">
<title>Node1&#45;&gt;Node3</title>
<path fill="none" stroke="midnightblue" d="M407.75,-175.91C348.91,-173.12 225.19,-163.56 199,-132 186.43,-116.85 201.53,-96.49 215.63,-82.62"/>
<polygon fill="midnightblue" stroke="midnightblue" points="218.21,-85.01 223.18,-75.65 213.46,-79.86 218.21,-85.01"/>
</g>
<!-- Node4 -->
<g id="node4" class="node">
<title>Node4</title>
<g id="a_node4"><a xlink:title=" ">
<polygon fill="white" stroke="#bfbfbf" points="102.5,-112.5 102.5,-131.5 151.5,-131.5 151.5,-112.5 102.5,-112.5"/>
<text text-anchor="middle" x="127" y="-119.5" font-family="Helvetica,sans-Serif" font-size="10.00">string.h</text>
</a>
</g>
</g>
<!-- Node1&#45;&gt;Node4 -->
<g id="edge3" class="edge">
<title>Node1&#45;&gt;Node4</title>
<path fill="none" stroke="midnightblue" d="M407.77,-172.51C356.93,-165.06 253.18,-149.23 166,-132 164.55,-131.71 163.07,-131.41 161.58,-131.1"/>
<polygon fill="midnightblue" stroke="midnightblue" points="162.22,-127.66 151.71,-128.95 160.73,-134.5 162.22,-127.66"/>
</g>
<!-- Node5 -->
<g id="node5" class="node">
<title>Node5</title>
<g id="a_node5"><a xlink:title=" ">
<polygon fill="white" stroke="#bfbfbf" points="422,-56.5 422,-75.5 478,-75.5 478,-56.5 422,-56.5"/>
<text text-anchor="middle" x="450" y="-63.5" font-family="Helvetica,sans-Serif" font-size="10.00">stdbool.h</text>
</a>
</g>
</g>
<!-- Node1&#45;&gt;Node5 -->
<g id="edge4" class="edge">
<title>Node1&#45;&gt;Node5</title>
<path fill="none" stroke="midnightblue" d="M435.55,-168.1C431.15,-155.52 424.6,-131.84 429,-112 431.12,-102.43 435.51,-92.48 439.72,-84.37"/>
<polygon fill="midnightblue" stroke="midnightblue" points="442.82,-86 444.62,-75.56 436.7,-82.6 442.82,-86"/>
</g>
<!-- Node6 -->
<g id="node6" class="node">
<title>Node6</title>
<g id="a_node6"><a xlink:href="readInTools_8h.html" target="_top" xlink:title=" ">
<polygon fill="white" stroke="black" points="594,-112.5 594,-131.5 668,-131.5 668,-112.5 594,-112.5"/>
<text text-anchor="middle" x="631" y="-119.5" font-family="Helvetica,sans-Serif" font-size="10.00">readInTools.h</text>
</a>
</g>
</g>
<!-- Node1&#45;&gt;Node6 -->
<g id="edge5" class="edge">
<title>Node1&#45;&gt;Node6</title>
<path fill="none" stroke="midnightblue" d="M469.42,-168.44C502.28,-159.2 554.78,-144.44 590.97,-134.26"/>
<polygon fill="midnightblue" stroke="midnightblue" points="592.04,-137.59 600.72,-131.52 590.15,-130.85 592.04,-137.59"/>
</g>
<!-- Node8 -->
<g id="node8" class="node">
<title>Node8</title>
<g id="a_node8"><a xlink:href="timeDiscretization_8h.html" target="_top" xlink:title=" ">
<polygon fill="white" stroke="black" points="278,-112.5 278,-131.5 382,-131.5 382,-112.5 278,-112.5"/>
<text text-anchor="middle" x="330" y="-119.5" font-family="Helvetica,sans-Serif" font-size="10.00">timeDiscretization.h</text>
</a>
</g>
</g>
<!-- Node1&#45;&gt;Node8 -->
<g id="edge8" class="edge">
<title>Node1&#45;&gt;Node8</title>
<path fill="none" stroke="midnightblue" d="M421.49,-168.32C403.93,-159.62 376.67,-146.12 356.47,-136.11"/>
<polygon fill="midnightblue" stroke="midnightblue" points="357.98,-132.96 347.47,-131.65 354.88,-139.23 357.98,-132.96"/>
</g>
<!-- Node10 -->
<g id="node10" class="node">
<title>Node10</title>
<g id="a_node10"><a xlink:href="output_8h.html" target="_top" xlink:title="Contains outputTime_t struct definition.">
<polygon fill="white" stroke="black" points="208.5,-112.5 208.5,-131.5 259.5,-131.5 259.5,-112.5 208.5,-112.5"/>
<text text-anchor="middle" x="234" y="-119.5" font-family="Helvetica,sans-Serif" font-size="10.00">output.h</text>
</a>
</g>
</g>
<!-- Node1&#45;&gt;Node10 -->
<g id="edge11" class="edge">
<title>Node1&#45;&gt;Node10</title>
<path fill="none" stroke="midnightblue" d="M407.86,-168.8C370.64,-158.99 308.5,-142.62 269.46,-132.34"/>
<polygon fill="midnightblue" stroke="midnightblue" points="270.15,-128.9 259.58,-129.74 268.36,-135.67 270.15,-128.9"/>
</g>
<!-- Node11 -->
<g id="node11" class="node">
<title>Node11</title>
<g id="a_node11"><a xlink:title=" ">
<polygon fill="white" stroke="#bfbfbf" points="438,-112.5 438,-131.5 500,-131.5 500,-112.5 438,-112.5"/>
<text text-anchor="middle" x="469" y="-119.5" font-family="Helvetica,sans-Serif" font-size="10.00">equation.h</text>
</a>
</g>
</g>
<!-- Node1&#45;&gt;Node11 -->
<g id="edge14" class="edge">
<title>Node1&#45;&gt;Node11</title>
<path fill="none" stroke="midnightblue" d="M443.95,-168.08C448.1,-160.61 454.15,-149.72 459.27,-140.52"/>
<polygon fill="midnightblue" stroke="midnightblue" points="462.34,-142.19 464.14,-131.75 456.22,-138.79 462.34,-142.19"/>
</g>
<!-- Node12 -->
<g id="node12" class="node">
<title>Node12</title>
<g id="a_node12"><a xlink:title=" ">
<polygon fill="white" stroke="#bfbfbf" points="514.5,-0.5 514.5,-19.5 579.5,-19.5 579.5,-0.5 514.5,-0.5"/>
<text text-anchor="middle" x="547" y="-7.5" font-family="Helvetica,sans-Serif" font-size="10.00">boundary.h</text>
</a>
</g>
</g>
<!-- Node1&#45;&gt;Node12 -->
<g id="edge15" class="edge">
<title>Node1&#45;&gt;Node12</title>
<path fill="none" stroke="midnightblue" d="M407.8,-175.26C326.63,-170.4 113.66,-155.52 93,-132 87.13,-125.32 88.38,-119.6 93,-112 135.83,-41.54 399.28,-19.22 504.07,-13.08"/>
<polygon fill="midnightblue" stroke="midnightblue" points="504.51,-16.56 514.29,-12.5 504.11,-9.57 504.51,-16.56"/>
</g>
<!-- Node13 -->
<g id="node13" class="node">
<title>Node13</title>
<g id="a_node13"><a xlink:href="mesh_8h.html" target="_top" xlink:title="Contains the definitions of all structs for the mesh handling.">
<polygon fill="white" stroke="black" points="659.5,-56.5 659.5,-75.5 708.5,-75.5 708.5,-56.5 659.5,-56.5"/>
<text text-anchor="middle" x="684" y="-63.5" font-family="Helvetica,sans-Serif" font-size="10.00">mesh.h</text>
</a>
</g>
</g>
<!-- Node1&#45;&gt;Node13 -->
<g id="edge16" class="edge">
<title>Node1&#45;&gt;Node13</title>
<path fill="none" stroke="midnightblue" d="M470.14,-176.78C579.42,-175.7 940.71,-169.29 975,-132 981.02,-125.46 980.79,-118.75 975,-112 942.32,-73.88 788.48,-67.77 718.64,-66.98"/>
<polygon fill="midnightblue" stroke="midnightblue" points="718.61,-63.48 708.58,-66.9 718.55,-70.48 718.61,-63.48"/>
</g>
<!-- Node14 -->
<g id="node14" class="node">
<title>Node14</title>
<g id="a_node14"><a xlink:href="initialCondition_8h.html" target="_top" xlink:title=" ">
<polygon fill="white" stroke="black" points="686.5,-112.5 686.5,-131.5 775.5,-131.5 775.5,-112.5 686.5,-112.5"/>
<text text-anchor="middle" x="731" y="-119.5" font-family="Helvetica,sans-Serif" font-size="10.00">initialCondition.h</text>
</a>
</g>
</g>
<!-- Node1&#45;&gt;Node14 -->
<g id="edge19" class="edge">
<title>Node1&#45;&gt;Node14</title>
<path fill="none" stroke="midnightblue" d="M470.25,-171.22C519.41,-162.13 615.48,-144.36 676.28,-133.12"/>
<polygon fill="midnightblue" stroke="midnightblue" points="677.26,-136.5 686.46,-131.24 675.99,-129.61 677.26,-136.5"/>
</g>
<!-- Node15 -->
<g id="node15" class="node">
<title>Node15</title>
<g id="a_node15"><a xlink:href="finiteVolume_8h.html" target="_top" xlink:title=" ">
<polygon fill="white" stroke="black" points="794,-112.5 794,-131.5 872,-131.5 872,-112.5 794,-112.5"/>
<text text-anchor="middle" x="833" y="-119.5" font-family="Helvetica,sans-Serif" font-size="10.00">finiteVolume.h</text>
</a>
</g>
</g>
<!-- Node1&#45;&gt;Node15 -->
<g id="edge20" class="edge">
<title>Node1&#45;&gt;Node15</title>
<path fill="none" stroke="midnightblue" d="M470.1,-173.55C529.2,-166.86 661.99,-151.22 784.1,-132.07"/>
<polygon fill="midnightblue" stroke="midnightblue" points="784.67,-135.52 794,-130.5 783.58,-128.61 784.67,-135.52"/>
</g>
<!-- Node16 -->
<g id="node16" class="node">
<title>Node16</title>
<g id="a_node16"><a xlink:href="linearSolver_8h.html" target="_top" xlink:title=" ">
<polygon fill="white" stroke="black" points="890.5,-112.5 890.5,-131.5 965.5,-131.5 965.5,-112.5 890.5,-112.5"/>
<text text-anchor="middle" x="928" y="-119.5" font-family="Helvetica,sans-Serif" font-size="10.00">linearSolver.h</text>
</a>
</g>
</g>
<!-- Node1&#45;&gt;Node16 -->
<g id="edge21" class="edge">
<title>Node1&#45;&gt;Node16</title>
<path fill="none" stroke="midnightblue" d="M470.2,-174.77C541.12,-169.5 720.06,-155.06 880.3,-131.97"/>
<polygon fill="midnightblue" stroke="midnightblue" points="880.95,-135.42 890.34,-130.51 879.94,-128.49 880.95,-135.42"/>
</g>
<!-- Node17 -->
<g id="node17" class="node">
<title>Node17</title>
<g id="a_node17"><a xlink:href="analyze_8h.html" target="_top" xlink:title="Contains the structure definitions of wing_t and recordPoint_t">
<polygon fill="white" stroke="black" points="518,-112.5 518,-131.5 576,-131.5 576,-112.5 518,-112.5"/>
<text text-anchor="middle" x="547" y="-119.5" font-family="Helvetica,sans-Serif" font-size="10.00">analyze.h</text>
</a>
</g>
</g>
<!-- Node1&#45;&gt;Node17 -->
<g id="edge25" class="edge">
<title>Node1&#45;&gt;Node17</title>
<path fill="none" stroke="midnightblue" d="M456.35,-168.32C473.67,-159.66 500.52,-146.24 520.5,-136.25"/>
<polygon fill="midnightblue" stroke="midnightblue" points="522.31,-139.26 529.69,-131.65 519.18,-133 522.31,-139.26"/>
</g>
<!-- Node6&#45;&gt;Node5 -->
<g id="edge6" class="edge">
<title>Node6&#45;&gt;Node5</title>
<path fill="none" stroke="midnightblue" d="M602.32,-112.44C571.38,-103.21 521.98,-88.48 487.87,-78.3"/>
<polygon fill="midnightblue" stroke="midnightblue" points="488.83,-74.93 478.25,-75.43 486.83,-81.64 488.83,-74.93"/>
</g>
<!-- Node7 -->
<g id="node7" class="node">
<title>Node7</title>
<g id="a_node7"><a xlink:href="main_8h.html" target="_top" xlink:title="Contains the global constants and definitions.">
<polygon fill="white" stroke="black" points="634,-0.5 634,-19.5 680,-19.5 680,-0.5 634,-0.5"/>
<text text-anchor="middle" x="657" y="-7.5" font-family="Helvetica,sans-Serif" font-size="10.00">main.h</text>
</a>
</g>
</g>
<!-- Node6&#45;&gt;Node7 -->
<g id="edge7" class="edge">
<title>Node6&#45;&gt;Node7</title>
<path fill="none" stroke="midnightblue" d="M633.04,-112.37C637.24,-94.62 646.92,-53.67 652.6,-29.6"/>
<polygon fill="midnightblue" stroke="midnightblue" points="656.08,-30.13 654.97,-19.59 649.26,-28.52 656.08,-30.13"/>
</g>
<!-- Node8&#45;&gt;Node5 -->
<g id="edge9" class="edge">
<title>Node8&#45;&gt;Node5</title>
<path fill="none" stroke="midnightblue" d="M349.01,-112.44C368.59,-103.64 399.31,-89.81 421.73,-79.72"/>
<polygon fill="midnightblue" stroke="midnightblue" points="423.39,-82.81 431.07,-75.52 420.52,-76.43 423.39,-82.81"/>
</g>
<!-- Node9 -->
<g id="node9" class="node">
<title>Node9</title>
<g id="a_node9"><a xlink:title=" ">
<polygon fill="white" stroke="#bfbfbf" points="308,-56.5 308,-75.5 352,-75.5 352,-56.5 308,-56.5"/>
<text text-anchor="middle" x="330" y="-63.5" font-family="Helvetica,sans-Serif" font-size="10.00">time.h</text>
</a>
</g>
</g>
<!-- Node8&#45;&gt;Node9 -->
<g id="edge10" class="edge">
<title>Node8&#45;&gt;Node9</title>
<path fill="none" stroke="midnightblue" d="M330,-112.08C330,-105.01 330,-94.86 330,-85.99"/>
<polygon fill="midnightblue" stroke="midnightblue" points="333.5,-85.75 330,-75.75 326.5,-85.75 333.5,-85.75"/>
</g>
<!-- Node10&#45;&gt;Node3 -->
<g id="edge13" class="edge">
<title>Node10&#45;&gt;Node3</title>
<path fill="none" stroke="midnightblue" d="M234,-112.08C234,-105.01 234,-94.86 234,-85.99"/>
<polygon fill="midnightblue" stroke="midnightblue" points="237.5,-85.75 234,-75.75 230.5,-85.75 237.5,-85.75"/>
</g>
<!-- Node10&#45;&gt;Node5 -->
<g id="edge12" class="edge">
<title>Node10&#45;&gt;Node5</title>
<path fill="none" stroke="midnightblue" d="M259.61,-114.39C262.77,-113.58 265.96,-112.77 269,-112 318.35,-99.52 375.35,-85.4 411.99,-76.35"/>
<polygon fill="midnightblue" stroke="midnightblue" points="412.9,-79.74 421.77,-73.95 411.22,-72.94 412.9,-79.74"/>
</g>
<!-- Node13&#45;&gt;Node7 -->
<g id="edge17" class="edge">
<title>Node13&#45;&gt;Node7</title>
<path fill="none" stroke="midnightblue" d="M679.54,-56.08C675.85,-48.69 670.48,-37.95 665.91,-28.81"/>
<polygon fill="midnightblue" stroke="midnightblue" points="668.98,-27.13 661.38,-19.75 662.72,-30.26 668.98,-27.13"/>
</g>
<!-- Node13&#45;&gt;Node12 -->
<g id="edge18" class="edge">
<title>Node13&#45;&gt;Node12</title>
<path fill="none" stroke="midnightblue" d="M662.29,-56.44C639.65,-47.52 603.93,-33.44 578.25,-23.32"/>
<polygon fill="midnightblue" stroke="midnightblue" points="579.19,-19.93 568.61,-19.52 576.63,-26.44 579.19,-19.93"/>
</g>
<!-- Node16&#45;&gt;Node5 -->
<g id="edge22" class="edge">
<title>Node16&#45;&gt;Node5</title>
<path fill="none" stroke="midnightblue" d="M890.34,-113.5C887.18,-112.96 884.04,-112.45 881,-112 736.82,-90.71 564.04,-75.87 488.51,-69.91"/>
<polygon fill="midnightblue" stroke="midnightblue" points="488.33,-66.39 478.09,-69.1 487.79,-73.37 488.33,-66.39"/>
</g>
<!-- Node16&#45;&gt;Node7 -->
<g id="edge23" class="edge">
<title>Node16&#45;&gt;Node7</title>
<path fill="none" stroke="midnightblue" d="M906.74,-112.37C858.95,-92.97 742.91,-45.87 687.47,-23.37"/>
<polygon fill="midnightblue" stroke="midnightblue" points="688.75,-20.11 678.17,-19.59 686.12,-26.6 688.75,-20.11"/>
</g>
<!-- Node16&#45;&gt;Node13 -->
<g id="edge24" class="edge">
<title>Node16&#45;&gt;Node13</title>
<path fill="none" stroke="midnightblue" d="M890.41,-112.68C843.53,-102.31 764.04,-84.71 718.6,-74.66"/>
<polygon fill="midnightblue" stroke="midnightblue" points="719.15,-71.19 708.63,-72.45 717.64,-78.03 719.15,-71.19"/>
</g>
<!-- Node17&#45;&gt;Node3 -->
<g id="edge26" class="edge">
<title>Node17&#45;&gt;Node3</title>
<path fill="none" stroke="midnightblue" d="M518,-113.91C514.97,-113.23 511.93,-112.58 509,-112 422.68,-94.74 320.13,-79.28 268.04,-71.78"/>
<polygon fill="midnightblue" stroke="midnightblue" points="268.41,-68.3 258.01,-70.35 267.42,-75.23 268.41,-68.3"/>
</g>
<!-- Node17&#45;&gt;Node5 -->
<g id="edge27" class="edge">
<title>Node17&#45;&gt;Node5</title>
<path fill="none" stroke="midnightblue" d="M531.42,-112.32C516,-103.74 492.19,-90.49 474.29,-80.52"/>
<polygon fill="midnightblue" stroke="midnightblue" points="475.99,-77.46 465.55,-75.65 472.58,-83.58 475.99,-77.46"/>
</g>
<!-- Node17&#45;&gt;Node7 -->
<g id="edge28" class="edge">
<title>Node17&#45;&gt;Node7</title>
<path fill="none" stroke="midnightblue" d="M555.63,-112.37C574.11,-93.89 617.71,-50.29 641.26,-26.74"/>
<polygon fill="midnightblue" stroke="midnightblue" points="643.81,-29.14 648.41,-19.59 638.86,-24.19 643.81,-29.14"/>
</g>
<!-- Node17&#45;&gt;Node12 -->
<g id="edge29" class="edge">
<title>Node17&#45;&gt;Node12</title>
<path fill="none" stroke="midnightblue" d="M547,-112.37C547,-94.62 547,-53.67 547,-29.6"/>
<polygon fill="midnightblue" stroke="midnightblue" points="550.5,-29.59 547,-19.59 543.5,-29.59 550.5,-29.59"/>
</g>
<!-- Node17&#45;&gt;Node13 -->
<g id="edge30" class="edge">
<title>Node17&#45;&gt;Node13</title>
<path fill="none" stroke="midnightblue" d="M568.71,-112.44C591.35,-103.52 627.07,-89.44 652.75,-79.32"/>
<polygon fill="midnightblue" stroke="midnightblue" points="654.37,-82.44 662.39,-75.52 651.81,-75.93 654.37,-82.44"/>
</g>
</g>
</svg>
        <g id="navigator" transform="translate(0 0)" fill="#404254">
                <rect fill="#f2f5e9" fill-opacity="0.5" stroke="#606060" stroke-width=".5" x="0" y="0" width="60" height="60"/>
                <use id="zoomplus" xlink:href="#zoomPlus" x="17" y="9" onmousedown="handleZoom(evt,'in')"/>
                <use id="zoomminus" xlink:href="#zoomMin" x="42" y="9" onmousedown="handleZoom(evt,'out')"/>
                <use id="reset" xlink:href="#resetDef" x="30" y="36" onmousedown="handleReset()"/>
                <g id="arrowUp" xlink:href="#dirArrow" transform="translate(30 24)" onmousedown="handlePan(0,-1)">
                  <use xlink:href="#rim" fill="#404040">
                        <set attributeName="fill" to="#808080" begin="arrowUp.mouseover" end="arrowUp.mouseout"/>
                  </use>
                  <path fill="none" stroke="white" stroke-width="1.5" d="M0,-3.0v7 M-2.5,-0.5L0,-3.0L2.5,-0.5"/>
                </g>
                <g id="arrowRight" xlink:href="#dirArrow" transform="rotate(90) translate(36 -43)" onmousedown="handlePan(1,0)">
                  <use xlink:href="#rim" fill="#404040">
                        <set attributeName="fill" to="#808080" begin="arrowRight.mouseover" end="arrowRight.mouseout"/>
                  </use>
                  <path fill="none" stroke="white" stroke-width="1.5" d="M0,-3.0v7 M-2.5,-0.5L0,-3.0L2.5,-0.5"/>
                </g>
                <g id="arrowDown" xlink:href="#dirArrow" transform="rotate(180) translate(-30 -48)" onmousedown="handlePan(0,1)">
                  <use xlink:href="#rim" fill="#404040">
                        <set attributeName="fill" to="#808080" begin="arrowDown.mouseover" end="arrowDown.mouseout"/>
                  </use>
                  <path fill="none" stroke="white" stroke-width="1.5" d="M0,-3.0v7 M-2.5,-0.5L0,-3.0L2.5,-0.5"/>
                </g>
                <g id="arrowLeft" xlink:href="#dirArrow" transform="rotate(270) translate(-36 17)" onmousedown="handlePan(-1,0)">
                  <use xlink:href="#rim" fill="#404040">
                        <set attributeName="fill" to="#808080" begin="arrowLeft.mouseover" end="arrowLeft.mouseout"/>
                  </use>
                  <path fill="none" stroke="white" stroke-width="1.5" d="M0,-3.0v7 M-2.5,-0.5L0,-3.0L2.5,-0.5"/>
                </g>
        </g>
        <svg viewBox="0 0 15 15" width="100%" height="30px" preserveAspectRatio="xMaxYMin meet">
         <g id="arrow_out" transform="scale(0.3 0.3)">
          <a xlink:href="main_8c__incl_org.svg" target="_base">
           <rect id="button" ry="5" rx="5" y="6" x="6" height="38" width="38"
                fill="#f2f5e9" fill-opacity="0.5" stroke="#606060" stroke-width="1.0"/>
           <path id="arrow"
             d="M 11.500037,31.436501 C 11.940474,20.09759 22.043105,11.32322 32.158766,21.979434 L 37.068811,17.246167 C 37.068811,17.246167 37.088388,32 37.088388,32 L 22.160133,31.978069 C 22.160133,31.978069 26.997745,27.140456 26.997745,27.140456 C 18.528582,18.264221 13.291696,25.230495 11.500037,31.436501 z"
             style="fill:#404040;"/>
          </a>
         </g>
        </svg>
</svg>
