<?xml version="1.0" encoding="UTF-8" standalone="no"?>
<!DOCTYPE svg PUBLIC "-//W3C//DTD SVG 1.1//EN"
 "http://www.w3.org/Graphics/SVG/1.1/DTD/svg11.dtd">
<!-- Generated by graphviz version 2.42.3 (0)
 -->
<!-- Title: src/main.c Pages: 1 -->
<svg width="890pt" height="196pt"
 viewBox="0.00 0.00 890.00 196.00" xmlns="http://www.w3.org/2000/svg" xmlns:xlink="http://www.w3.org/1999/xlink">
<g id="graph0" class="graph" transform="scale(1 1) rotate(0) translate(4 192)">
<title>src/main.c</title>
<polygon fill="white" stroke="transparent" points="-4,4 -4,-192 886,-192 886,4 -4,4"/>
<!-- Node1 -->
<g id="node1" class="node">
<title>Node1</title>
<g id="a_node1"><a xlink:title="Contains the main function of ccfd">
<polygon fill="#bfbfbf" stroke="black" points="385,-168.5 385,-187.5 447,-187.5 447,-168.5 385,-168.5"/>
<text text-anchor="middle" x="416" y="-175.5" font-family="Helvetica,sans-Serif" font-size="10.00">src/main.c</text>
</a>
</g>
</g>
<!-- Node2 -->
<g id="node2" class="node">
<title>Node2</title>
<g id="a_node2"><a xlink:title=" ">
<polygon fill="white" stroke="#bfbfbf" points="0,-112.5 0,-131.5 46,-131.5 46,-112.5 0,-112.5"/>
<text text-anchor="middle" x="23" y="-119.5" font-family="Helvetica,sans-Serif" font-size="10.00">stdio.h</text>
</a>
</g>
</g>
<!-- Node1&#45;&gt;Node2 -->
<g id="edge1" class="edge">
<title>Node1&#45;&gt;Node2</title>
<path fill="none" stroke="midnightblue" d="M384.87,-174.26C322.75,-168.52 179.16,-153.95 60,-132 58.72,-131.76 57.42,-131.51 56.11,-131.25"/>
<polygon fill="midnightblue" stroke="midnightblue" points="56.52,-127.75 46.01,-129.02 55.02,-134.59 56.52,-127.75"/>
</g>
<!-- Node3 -->
<g id="node3" class="node">
<title>Node3</title>
<g id="a_node3"><a xlink:title=" ">
<polygon fill="white" stroke="#bfbfbf" points="104,-56.5 104,-75.5 152,-75.5 152,-56.5 104,-56.5"/>
<text text-anchor="middle" x="128" y="-63.5" font-family="Helvetica,sans-Serif" font-size="10.00">stdlib.h</text>
</a>
</g>
</g>
<!-- Node1&#45;&gt;Node3 -->
<g id="edge2" class="edge">
<title>Node1&#45;&gt;Node3</title>
<path fill="none" stroke="midnightblue" d="M384.78,-177.59C311.28,-178.24 130.68,-175.3 93,-132 80.01,-117.07 95.42,-96.51 109.7,-82.53"/>
<polygon fill="midnightblue" stroke="midnightblue" points="112.33,-84.87 117.33,-75.53 107.6,-79.71 112.33,-84.87"/>
</g>
<!-- Node4 -->
<g id="node4" class="node">
<title>Node4</title>
<g id="a_node4"><a xlink:title=" ">
<polygon fill="white" stroke="#bfbfbf" points="548.5,-112.5 548.5,-131.5 597.5,-131.5 597.5,-112.5 548.5,-112.5"/>
<text text-anchor="middle" x="573" y="-119.5" font-family="Helvetica,sans-Serif" font-size="10.00">string.h</text>
</a>
</g>
</g>
<!-- Node1&#45;&gt;Node4 -->
<g id="edge3" class="edge">
<title>Node1&#45;&gt;Node4</title>
<path fill="none" stroke="midnightblue" d="M440.88,-168.44C467.37,-159.33 509.46,-144.85 539,-134.69"/>
<polygon fill="midnightblue" stroke="midnightblue" points="540.18,-137.99 548.5,-131.43 537.9,-131.37 540.18,-137.99"/>
</g>
<!-- Node5 -->
<g id="node5" class="node">
<title>Node5</title>
<g id="a_node5"><a xlink:title=" ">
<polygon fill="white" stroke="#bfbfbf" points="246,-56.5 246,-75.5 302,-75.5 302,-56.5 246,-56.5"/>
<text text-anchor="middle" x="274" y="-63.5" font-family="Helvetica,sans-Serif" font-size="10.00">stdbool.h</text>
</a>
</g>
</g>
<!-- Node1&#45;&gt;Node5 -->
<g id="edge4" class="edge">
<title>Node1&#45;&gt;Node5</title>
<path fill="none" stroke="midnightblue" d="M384.92,-173.53C357.09,-168.8 317.08,-157.73 293,-132 281.34,-119.54 276.79,-100.3 275.04,-85.99"/>
<polygon fill="midnightblue" stroke="midnightblue" points="278.51,-85.44 274.16,-75.78 271.53,-86.05 278.51,-85.44"/>
</g>
<!-- Node6 -->
<g id="node6" class="node">
<title>Node6</title>
<g id="a_node6"><a xlink:href="readInTools_8h.html" target="_top" xlink:title=" ">
<polygon fill="white" stroke="black" points="172,-112.5 172,-131.5 246,-131.5 246,-112.5 172,-112.5"/>
<text text-anchor="middle" x="209" y="-119.5" font-family="Helvetica,sans-Serif" font-size="10.00">readInTools.h</text>
</a>
</g>
</g>
<!-- Node1&#45;&gt;Node6 -->
<g id="edge5" class="edge">
<title>Node1&#45;&gt;Node6</title>
<path fill="none" stroke="midnightblue" d="M384.56,-168.8C349.08,-159.54 291.18,-144.44 251.64,-134.12"/>
<polygon fill="midnightblue" stroke="midnightblue" points="252.32,-130.68 241.76,-131.55 250.55,-137.46 252.32,-130.68"/>
</g>
<!-- Node8 -->
<g id="node8" class="node">
<title>Node8</title>
<g id="a_node8"><a xlink:href="output_8h.html" target="_top" xlink:title="Contains outputTime_t struct definition.">
<polygon fill="white" stroke="black" points="102.5,-112.5 102.5,-131.5 153.5,-131.5 153.5,-112.5 102.5,-112.5"/>
<text text-anchor="middle" x="128" y="-119.5" font-family="Helvetica,sans-Serif" font-size="10.00">output.h</text>
</a>
</g>
</g>
<!-- Node1&#45;&gt;Node8 -->
<g id="edge8" class="edge">
<title>Node1&#45;&gt;Node8</title>
<path fill="none" stroke="midnightblue" d="M384.69,-172.21C338.53,-164.99 249.29,-150.37 163.47,-131.96"/>
<polygon fill="midnightblue" stroke="midnightblue" points="164.08,-128.51 153.56,-129.81 162.59,-135.35 164.08,-128.51"/>
</g>
<!-- Node9 -->
<g id="node9" class="node">
<title>Node9</title>
<g id="a_node9"><a xlink:title=" ">
<polygon fill="white" stroke="#bfbfbf" points="616,-112.5 616,-131.5 678,-131.5 678,-112.5 616,-112.5"/>
<text text-anchor="middle" x="647" y="-119.5" font-family="Helvetica,sans-Serif" font-size="10.00">equation.h</text>
</a>
</g>
</g>
<!-- Node1&#45;&gt;Node9 -->
<g id="edge11" class="edge">
<title>Node1&#45;&gt;Node9</title>
<path fill="none" stroke="midnightblue" d="M447.15,-169.72C488.26,-160.11 560.69,-143.18 606.15,-132.55"/>
<polygon fill="midnightblue" stroke="midnightblue" points="607.03,-135.94 615.97,-130.25 605.44,-129.12 607.03,-135.94"/>
</g>
<!-- Node10 -->
<g id="node10" class="node">
<title>Node10</title>
<g id="a_node10"><a xlink:title=" ">
<polygon fill="white" stroke="#bfbfbf" points="427.5,-0.5 427.5,-19.5 492.5,-19.5 492.5,-0.5 427.5,-0.5"/>
<text text-anchor="middle" x="460" y="-7.5" font-family="Helvetica,sans-Serif" font-size="10.00">boundary.h</text>
</a>
</g>
</g>
<!-- Node1&#45;&gt;Node10 -->
<g id="edge12" class="edge">
<title>Node1&#45;&gt;Node10</title>
<path fill="none" stroke="midnightblue" d="M434.49,-168.36C448.76,-160.75 467.88,-148.33 479,-132 498.33,-103.61 503.69,-88.64 493,-56 489.51,-45.34 482.43,-35.12 475.71,-27.12"/>
<polygon fill="midnightblue" stroke="midnightblue" points="478.3,-24.76 469.02,-19.66 473.1,-29.44 478.3,-24.76"/>
</g>
<!-- Node11 -->
<g id="node11" class="node">
<title>Node11</title>
<g id="a_node11"><a xlink:href="mesh_8h.html" target="_top" xlink:title="Contains the definitions of all structs for the mesh handling.">
<polygon fill="white" stroke="black" points="435.5,-56.5 435.5,-75.5 484.5,-75.5 484.5,-56.5 435.5,-56.5"/>
<text text-anchor="middle" x="460" y="-63.5" font-family="Helvetica,sans-Serif" font-size="10.00">mesh.h</text>
</a>
</g>
</g>
<!-- Node1&#45;&gt;Node11 -->
<g id="edge13" class="edge">
<title>Node1&#45;&gt;Node11</title>
<path fill="none" stroke="midnightblue" d="M429.79,-168.19C440.83,-160.24 455.5,-147.45 462,-132 468.16,-117.37 466.95,-99.2 464.6,-85.79"/>
<polygon fill="midnightblue" stroke="midnightblue" points="467.99,-84.9 462.51,-75.83 461.14,-86.34 467.99,-84.9"/>
</g>
<!-- Node12 -->
<g id="node12" class="node">
<title>Node12</title>
<g id="a_node12"><a xlink:href="initialCondition_8h.html" target="_top" xlink:title=" ">
<polygon fill="white" stroke="black" points="696.5,-112.5 696.5,-131.5 785.5,-131.5 785.5,-112.5 696.5,-112.5"/>
<text text-anchor="middle" x="741" y="-119.5" font-family="Helvetica,sans-Serif" font-size="10.00">initialCondition.h</text>
</a>
</g>
</g>
<!-- Node1&#45;&gt;Node12 -->
<g id="edge16" class="edge">
<title>Node1&#45;&gt;Node12</title>
<path fill="none" stroke="midnightblue" d="M447.3,-171.81C496.03,-163.73 593.26,-147.59 686.35,-132.11"/>
<polygon fill="midnightblue" stroke="midnightblue" points="686.92,-135.56 696.21,-130.47 685.77,-128.66 686.92,-135.56"/>
</g>
<!-- Node13 -->
<g id="node13" class="node">
<title>Node13</title>
<g id="a_node13"><a xlink:href="finiteVolume_8h.html" target="_top" xlink:title=" ">
<polygon fill="white" stroke="black" points="804,-112.5 804,-131.5 882,-131.5 882,-112.5 804,-112.5"/>
<text text-anchor="middle" x="843" y="-119.5" font-family="Helvetica,sans-Serif" font-size="10.00">finiteVolume.h</text>
</a>
</g>
</g>
<!-- Node1&#45;&gt;Node13 -->
<g id="edge17" class="edge">
<title>Node1&#45;&gt;Node13</title>
<path fill="none" stroke="midnightblue" d="M447.05,-174.03C510.29,-167.82 658.81,-152.46 793.65,-132.12"/>
<polygon fill="midnightblue" stroke="midnightblue" points="794.38,-135.55 803.74,-130.58 793.33,-128.63 794.38,-135.55"/>
</g>
<!-- Node14 -->
<g id="node14" class="node">
<title>Node14</title>
<g id="a_node14"><a xlink:href="linearSolver_8h.html" target="_top" xlink:title=" ">
<polygon fill="white" stroke="black" points="378.5,-112.5 378.5,-131.5 453.5,-131.5 453.5,-112.5 378.5,-112.5"/>
<text text-anchor="middle" x="416" y="-119.5" font-family="Helvetica,sans-Serif" font-size="10.00">linearSolver.h</text>
</a>
</g>
</g>
<!-- Node1&#45;&gt;Node14 -->
<g id="edge18" class="edge">
<title>Node1&#45;&gt;Node14</title>
<path fill="none" stroke="midnightblue" d="M416,-168.08C416,-161.01 416,-150.86 416,-141.99"/>
<polygon fill="midnightblue" stroke="midnightblue" points="419.5,-141.75 416,-131.75 412.5,-141.75 419.5,-141.75"/>
</g>
<!-- Node15 -->
<g id="node15" class="node">
<title>Node15</title>
<g id="a_node15"><a xlink:href="analyze_8h.html" target="_top" xlink:title="Contains the structure definitions of wing_t and recordPoint_t">
<polygon fill="white" stroke="black" points="302,-112.5 302,-131.5 360,-131.5 360,-112.5 302,-112.5"/>
<text text-anchor="middle" x="331" y="-119.5" font-family="Helvetica,sans-Serif" font-size="10.00">analyze.h</text>
</a>
</g>
</g>
<!-- Node1&#45;&gt;Node15 -->
<g id="edge22" class="edge">
<title>Node1&#45;&gt;Node15</title>
<path fill="none" stroke="midnightblue" d="M402.34,-168.32C389.08,-159.9 368.73,-146.97 353.15,-137.07"/>
<polygon fill="midnightblue" stroke="midnightblue" points="354.94,-134.06 344.62,-131.65 351.19,-139.97 354.94,-134.06"/>
</g>
<!-- Node6&#45;&gt;Node5 -->
<g id="edge6" class="edge">
<title>Node6&#45;&gt;Node5</title>
<path fill="none" stroke="midnightblue" d="M219.44,-112.32C229.15,-104.26 243.82,-92.08 255.5,-82.37"/>
<polygon fill="midnightblue" stroke="midnightblue" points="257.91,-84.92 263.37,-75.83 253.44,-79.53 257.91,-84.92"/>
</g>
<!-- Node7 -->
<g id="node7" class="node">
<title>Node7</title>
<g id="a_node7"><a xlink:href="main_8h.html" target="_top" xlink:title="Contains the global constants and definitions.">
<polygon fill="white" stroke="black" points="327,-0.5 327,-19.5 373,-19.5 373,-0.5 327,-0.5"/>
<text text-anchor="middle" x="350" y="-7.5" font-family="Helvetica,sans-Serif" font-size="10.00">main.h</text>
</a>
</g>
</g>
<!-- Node6&#45;&gt;Node7 -->
<g id="edge7" class="edge">
<title>Node6&#45;&gt;Node7</title>
<path fill="none" stroke="midnightblue" d="M210.55,-112.21C213.42,-98.45 220.79,-71.76 237,-56 258.85,-34.74 292,-23.15 316.75,-17.08"/>
<polygon fill="midnightblue" stroke="midnightblue" points="317.8,-20.43 326.78,-14.81 316.26,-13.6 317.8,-20.43"/>
</g>
<!-- Node8&#45;&gt;Node3 -->
<g id="edge10" class="edge">
<title>Node8&#45;&gt;Node3</title>
<path fill="none" stroke="midnightblue" d="M128,-112.08C128,-105.01 128,-94.86 128,-85.99"/>
<polygon fill="midnightblue" stroke="midnightblue" points="131.5,-85.75 128,-75.75 124.5,-85.75 131.5,-85.75"/>
</g>
<!-- Node8&#45;&gt;Node5 -->
<g id="edge9" class="edge">
<title>Node8&#45;&gt;Node5</title>
<path fill="none" stroke="midnightblue" d="M151.13,-112.44C175.48,-103.44 214.01,-89.19 241.42,-79.05"/>
<polygon fill="midnightblue" stroke="midnightblue" points="242.81,-82.27 250.97,-75.52 240.38,-75.7 242.81,-82.27"/>
</g>
<!-- Node11&#45;&gt;Node7 -->
<g id="edge14" class="edge">
<title>Node11&#45;&gt;Node7</title>
<path fill="none" stroke="midnightblue" d="M442.33,-56.32C424.61,-47.62 397.1,-34.12 376.71,-24.11"/>
<polygon fill="midnightblue" stroke="midnightblue" points="378.15,-20.92 367.63,-19.65 375.06,-27.2 378.15,-20.92"/>
</g>
<!-- Node11&#45;&gt;Node10 -->
<g id="edge15" class="edge">
<title>Node11&#45;&gt;Node10</title>
<path fill="none" stroke="midnightblue" d="M460,-56.08C460,-49.01 460,-38.86 460,-29.99"/>
<polygon fill="midnightblue" stroke="midnightblue" points="463.5,-29.75 460,-19.75 456.5,-29.75 463.5,-29.75"/>
</g>
<!-- Node14&#45;&gt;Node5 -->
<g id="edge19" class="edge">
<title>Node14&#45;&gt;Node5</title>
<path fill="none" stroke="midnightblue" d="M393.5,-112.44C369.92,-103.48 332.68,-89.31 306.04,-79.18"/>
<polygon fill="midnightblue" stroke="midnightblue" points="306.99,-75.8 296.4,-75.52 304.5,-82.34 306.99,-75.8"/>
</g>
<!-- Node14&#45;&gt;Node7 -->
<g id="edge20" class="edge">
<title>Node14&#45;&gt;Node7</title>
<path fill="none" stroke="midnightblue" d="M410.82,-112.37C399.98,-94.3 374.71,-52.18 360.38,-28.31"/>
<polygon fill="midnightblue" stroke="midnightblue" points="363.3,-26.37 355.15,-19.59 357.3,-29.97 363.3,-26.37"/>
</g>
<!-- Node14&#45;&gt;Node11 -->
<g id="edge21" class="edge">
<title>Node14&#45;&gt;Node11</title>
<path fill="none" stroke="midnightblue" d="M423.27,-112.08C429.54,-104.38 438.79,-93.03 446.43,-83.65"/>
<polygon fill="midnightblue" stroke="midnightblue" points="449.27,-85.71 452.87,-75.75 443.84,-81.29 449.27,-85.71"/>
</g>
<!-- Node15&#45;&gt;Node3 -->
<g id="edge23" class="edge">
<title>Node15&#45;&gt;Node3</title>
<path fill="none" stroke="midnightblue" d="M301.92,-113.26C264.98,-103.44 201.35,-86.51 162.15,-76.08"/>
<polygon fill="midnightblue" stroke="midnightblue" points="162.83,-72.64 152.26,-73.45 161.03,-79.41 162.83,-72.64"/>
</g>
<!-- Node15&#45;&gt;Node5 -->
<g id="edge24" class="edge">
<title>Node15&#45;&gt;Node5</title>
<path fill="none" stroke="midnightblue" d="M321.84,-112.32C313.5,-104.42 300.97,-92.55 290.82,-82.94"/>
<polygon fill="midnightblue" stroke="midnightblue" points="292.99,-80.17 283.32,-75.83 288.18,-85.25 292.99,-80.17"/>
</g>
<!-- Node15&#45;&gt;Node7 -->
<g id="edge25" class="edge">
<title>Node15&#45;&gt;Node7</title>
<path fill="none" stroke="midnightblue" d="M332.49,-112.37C335.56,-94.62 342.63,-53.67 346.79,-29.6"/>
<polygon fill="midnightblue" stroke="midnightblue" points="350.26,-30.04 348.52,-19.59 343.36,-28.85 350.26,-30.04"/>
</g>
<!-- Node15&#45;&gt;Node10 -->
<g id="edge26" class="edge">
<title>Node15&#45;&gt;Node10</title>
<path fill="none" stroke="midnightblue" d="M341.12,-112.37C362.98,-93.73 414.81,-49.53 442.25,-26.13"/>
<polygon fill="midnightblue" stroke="midnightblue" points="444.59,-28.74 449.92,-19.59 440.04,-23.42 444.59,-28.74"/>
</g>
<!-- Node15&#45;&gt;Node11 -->
<g id="edge27" class="edge">
<title>Node15&#45;&gt;Node11</title>
<path fill="none" stroke="midnightblue" d="M351.44,-112.44C372.67,-103.56 406.1,-89.56 430.25,-79.45"/>
<polygon fill="midnightblue" stroke="midnightblue" points="431.78,-82.61 439.66,-75.52 429.08,-76.15 431.78,-82.61"/>
</g>
</g>
</svg>
