<?xml version="1.0" encoding="UTF-8" standalone="no"?>
<!DOCTYPE svg PUBLIC "-//W3C//DTD SVG 1.1//EN"
 "http://www.w3.org/Graphics/SVG/1.1/DTD/svg11.dtd">
<!-- Generated by graphviz version 2.44.0 (0)
 -->
<!-- Title: src/main.c Pages: 1 -->
<svg width="816pt" height="252pt"
 viewBox="0.00 0.00 816.35 252.00" xmlns="http://www.w3.org/2000/svg" xmlns:xlink="http://www.w3.org/1999/xlink">
<g id="graph0" class="graph" transform="scale(1 1) rotate(0) translate(4 248)">
<title>src/main.c</title>
<polygon fill="white" stroke="transparent" points="-4,4 -4,-248 812.35,-248 812.35,4 -4,4"/>
<!-- Node1 -->
<g id="node1" class="node">
<title>Node1</title>
<g id="a_node1"><a xlink:title="Contains the main function of ccfd">
<polygon fill="#bfbfbf" stroke="black" points="398,-224.5 398,-243.5 460,-243.5 460,-224.5 398,-224.5"/>
<text text-anchor="middle" x="429" y="-231.5" font-family="Helvetica,sans-Serif" font-size="10.00">src/main.c</text>
</a>
</g>
</g>
<!-- Node2 -->
<g id="node2" class="node">
<title>Node2</title>
<g id="a_node2"><a xlink:title=" ">
<polygon fill="white" stroke="#bfbfbf" points="0,-168.5 0,-187.5 46,-187.5 46,-168.5 0,-168.5"/>
<text text-anchor="middle" x="23" y="-175.5" font-family="Helvetica,sans-Serif" font-size="10.00">stdio.h</text>
</a>
</g>
</g>
<!-- Node1&#45;&gt;Node2 -->
<g id="edge1" class="edge">
<title>Node1&#45;&gt;Node2</title>
<path fill="none" stroke="midnightblue" d="M397.71,-230.43C333.87,-224.92 184.13,-210.59 60,-188 58.72,-187.77 57.42,-187.52 56.1,-187.25"/>
<polygon fill="midnightblue" stroke="midnightblue" points="56.52,-183.76 46,-185.04 55.02,-190.6 56.52,-183.76"/>
</g>
<!-- Node3 -->
<g id="node3" class="node">
<title>Node3</title>
<g id="a_node3"><a xlink:title=" ">
<polygon fill="white" stroke="#bfbfbf" points="346,-112.5 346,-131.5 394,-131.5 394,-112.5 346,-112.5"/>
<text text-anchor="middle" x="370" y="-119.5" font-family="Helvetica,sans-Serif" font-size="10.00">stdlib.h</text>
</a>
</g>
</g>
<!-- Node1&#45;&gt;Node3 -->
<g id="edge2" class="edge">
<title>Node1&#45;&gt;Node3</title>
<path fill="none" stroke="midnightblue" d="M424.37,-224.37C414.72,-206.38 392.29,-164.55 379.45,-140.63"/>
<polygon fill="midnightblue" stroke="midnightblue" points="382.42,-138.75 374.61,-131.59 376.25,-142.06 382.42,-138.75"/>
</g>
<!-- Node4 -->
<g id="node4" class="node">
<title>Node4</title>
<g id="a_node4"><a xlink:title=" ">
<polygon fill="white" stroke="#bfbfbf" points="102.5,-168.5 102.5,-187.5 151.5,-187.5 151.5,-168.5 102.5,-168.5"/>
<text text-anchor="middle" x="127" y="-175.5" font-family="Helvetica,sans-Serif" font-size="10.00">string.h</text>
</a>
</g>
</g>
<!-- Node1&#45;&gt;Node4 -->
<g id="edge3" class="edge">
<title>Node1&#45;&gt;Node4</title>
<path fill="none" stroke="midnightblue" d="M397.72,-228.24C348.33,-220.6 249.34,-204.73 166,-188 164.55,-187.71 163.08,-187.4 161.59,-187.09"/>
<polygon fill="midnightblue" stroke="midnightblue" points="162.23,-183.65 151.71,-184.93 160.73,-190.49 162.23,-183.65"/>
</g>
<!-- Node5 -->
<g id="node5" class="node">
<title>Node5</title>
<g id="a_node5"><a xlink:title=" ">
<polygon fill="white" stroke="#bfbfbf" points="356,-56.5 356,-75.5 412,-75.5 412,-56.5 356,-56.5"/>
<text text-anchor="middle" x="384" y="-63.5" font-family="Helvetica,sans-Serif" font-size="10.00">stdbool.h</text>
</a>
</g>
</g>
<!-- Node1&#45;&gt;Node5 -->
<g id="edge4" class="edge">
<title>Node1&#45;&gt;Node5</title>
<path fill="none" stroke="midnightblue" d="M397.72,-231.62C340.79,-228.39 223.83,-218.15 199,-188 177.53,-161.92 178.13,-138.56 199,-112 216.89,-89.24 296.9,-76.56 345.65,-70.82"/>
<polygon fill="midnightblue" stroke="midnightblue" points="346.3,-74.27 355.84,-69.67 345.51,-67.31 346.3,-74.27"/>
</g>
<!-- Node6 -->
<g id="node6" class="node">
<title>Node6</title>
<g id="a_node6"><a xlink:href="readInTools_8h.html" target="_top" xlink:title=" ">
<polygon fill="white" stroke="black" points="412,-112.5 412,-131.5 486,-131.5 486,-112.5 412,-112.5"/>
<text text-anchor="middle" x="449" y="-119.5" font-family="Helvetica,sans-Serif" font-size="10.00">readInTools.h</text>
</a>
</g>
</g>
<!-- Node1&#45;&gt;Node6 -->
<g id="edge5" class="edge">
<title>Node1&#45;&gt;Node6</title>
<path fill="none" stroke="midnightblue" d="M430.57,-224.37C433.8,-206.62 441.24,-165.67 445.62,-141.6"/>
<polygon fill="midnightblue" stroke="midnightblue" points="449.09,-142.06 447.44,-131.59 442.21,-140.8 449.09,-142.06"/>
</g>
<!-- Node8 -->
<g id="node8" class="node">
<title>Node8</title>
<g id="a_node8"><a xlink:href="timeDiscretization_8h.html" target="_top" xlink:title=" ">
<polygon fill="white" stroke="black" points="208,-168.5 208,-187.5 312,-187.5 312,-168.5 208,-168.5"/>
<text text-anchor="middle" x="260" y="-175.5" font-family="Helvetica,sans-Serif" font-size="10.00">timeDiscretization.h</text>
</a>
</g>
</g>
<!-- Node1&#45;&gt;Node8 -->
<g id="edge8" class="edge">
<title>Node1&#45;&gt;Node8</title>
<path fill="none" stroke="midnightblue" d="M402.22,-224.44C373.67,-215.32 328.27,-200.81 296.46,-190.65"/>
<polygon fill="midnightblue" stroke="midnightblue" points="297.24,-187.23 286.65,-187.52 295.11,-193.89 297.24,-187.23"/>
</g>
<!-- Node10 -->
<g id="node10" class="node">
<title>Node10</title>
<g id="a_node10"><a xlink:href="output_8h.html" target="_top" xlink:title="Contains outputTime_t struct definition.">
<polygon fill="white" stroke="black" points="330.5,-168.5 330.5,-187.5 381.5,-187.5 381.5,-168.5 330.5,-168.5"/>
<text text-anchor="middle" x="356" y="-175.5" font-family="Helvetica,sans-Serif" font-size="10.00">output.h</text>
</a>
</g>
</g>
<!-- Node1&#45;&gt;Node10 -->
<g id="edge11" class="edge">
<title>Node1&#45;&gt;Node10</title>
<path fill="none" stroke="midnightblue" d="M417.27,-224.32C406.16,-216.11 389.26,-203.6 376.02,-193.81"/>
<polygon fill="midnightblue" stroke="midnightblue" points="378.06,-190.97 367.94,-187.83 373.9,-196.59 378.06,-190.97"/>
</g>
<!-- Node11 -->
<g id="node11" class="node">
<title>Node11</title>
<g id="a_node11"><a xlink:href="equation_8h.html" target="_top" xlink:title=" ">
<polygon fill="white" stroke="black" points="67,-112.5 67,-131.5 129,-131.5 129,-112.5 67,-112.5"/>
<text text-anchor="middle" x="98" y="-119.5" font-family="Helvetica,sans-Serif" font-size="10.00">equation.h</text>
</a>
</g>
</g>
<!-- Node1&#45;&gt;Node11 -->
<g id="edge14" class="edge">
<title>Node1&#45;&gt;Node11</title>
<path fill="none" stroke="midnightblue" d="M397.94,-233.78C322.42,-234.93 132.53,-233.18 93,-188 81.96,-175.39 85.37,-155.62 90.2,-141.2"/>
<polygon fill="midnightblue" stroke="midnightblue" points="93.48,-142.4 93.78,-131.81 86.94,-139.91 93.48,-142.4"/>
</g>
<!-- Node12 -->
<g id="node12" class="node">
<title>Node12</title>
<g id="a_node12"><a xlink:href="boundary_8h.html" target="_top" xlink:title="Contains the structure definition of a boundary.">
<polygon fill="white" stroke="black" points="580.5,-112.5 580.5,-131.5 645.5,-131.5 645.5,-112.5 580.5,-112.5"/>
<text text-anchor="middle" x="613" y="-119.5" font-family="Helvetica,sans-Serif" font-size="10.00">boundary.h</text>
</a>
</g>
</g>
<!-- Node1&#45;&gt;Node12 -->
<g id="edge16" class="edge">
<title>Node1&#45;&gt;Node12</title>
<path fill="none" stroke="midnightblue" d="M459.5,-224.39C483.33,-216.87 516.72,-204.56 543,-188 564.58,-174.4 585.5,-153.68 598.76,-139.3"/>
<polygon fill="midnightblue" stroke="midnightblue" points="601.54,-141.45 605.63,-131.67 596.34,-136.76 601.54,-141.45"/>
</g>
<!-- Node13 -->
<g id="node13" class="node">
<title>Node13</title>
<g id="a_node13"><a xlink:href="mesh_8h.html" target="_top" xlink:title="Contains the definitions of all structs for the mesh handling.">
<polygon fill="white" stroke="black" points="645.5,-56.5 645.5,-75.5 694.5,-75.5 694.5,-56.5 645.5,-56.5"/>
<text text-anchor="middle" x="670" y="-63.5" font-family="Helvetica,sans-Serif" font-size="10.00">mesh.h</text>
</a>
</g>
</g>
<!-- Node1&#45;&gt;Node13 -->
<g id="edge22" class="edge">
<title>Node1&#45;&gt;Node13</title>
<path fill="none" stroke="midnightblue" d="M460.04,-231.56C545.34,-227.3 778.48,-213.41 801,-188 815,-172.21 806.58,-134.13 787,-112 765.99,-88.26 731.01,-76.96 704.76,-71.64"/>
<polygon fill="midnightblue" stroke="midnightblue" points="705.29,-68.18 694.82,-69.82 704.03,-75.06 705.29,-68.18"/>
</g>
<!-- Node14 -->
<g id="node14" class="node">
<title>Node14</title>
<g id="a_node14"><a xlink:href="initialCondition_8h.html" target="_top" xlink:title=" ">
<polygon fill="white" stroke="black" points="590.5,-168.5 590.5,-187.5 679.5,-187.5 679.5,-168.5 590.5,-168.5"/>
<text text-anchor="middle" x="635" y="-175.5" font-family="Helvetica,sans-Serif" font-size="10.00">initialCondition.h</text>
</a>
</g>
</g>
<!-- Node1&#45;&gt;Node14 -->
<g id="edge23" class="edge">
<title>Node1&#45;&gt;Node14</title>
<path fill="none" stroke="midnightblue" d="M460.29,-224.8C495.59,-215.54 553.22,-200.44 592.56,-190.12"/>
<polygon fill="midnightblue" stroke="midnightblue" points="593.61,-193.47 602.4,-187.55 591.84,-186.7 593.61,-193.47"/>
</g>
<!-- Node15 -->
<g id="node15" class="node">
<title>Node15</title>
<g id="a_node15"><a xlink:href="finiteVolume_8h.html" target="_top" xlink:title=" ">
<polygon fill="white" stroke="black" points="698,-168.5 698,-187.5 776,-187.5 776,-168.5 698,-168.5"/>
<text text-anchor="middle" x="737" y="-175.5" font-family="Helvetica,sans-Serif" font-size="10.00">finiteVolume.h</text>
</a>
</g>
</g>
<!-- Node1&#45;&gt;Node15 -->
<g id="edge24" class="edge">
<title>Node1&#45;&gt;Node15</title>
<path fill="none" stroke="midnightblue" d="M460.24,-227.74C507.32,-219.78 599.52,-204.06 688.04,-188.15"/>
<polygon fill="midnightblue" stroke="midnightblue" points="688.75,-191.58 697.98,-186.36 687.51,-184.69 688.75,-191.58"/>
</g>
<!-- Node16 -->
<g id="node16" class="node">
<title>Node16</title>
<g id="a_node16"><a xlink:href="linearSolver_8h.html" target="_top" xlink:title=" ">
<polygon fill="white" stroke="black" points="702.5,-112.5 702.5,-131.5 777.5,-131.5 777.5,-112.5 702.5,-112.5"/>
<text text-anchor="middle" x="740" y="-119.5" font-family="Helvetica,sans-Serif" font-size="10.00">linearSolver.h</text>
</a>
</g>
</g>
<!-- Node1&#45;&gt;Node16 -->
<g id="edge25" class="edge">
<title>Node1&#45;&gt;Node16</title>
<path fill="none" stroke="midnightblue" d="M460.19,-231.38C543.02,-226.75 763.63,-212.24 785,-188 799.12,-171.99 779.47,-151.43 761.87,-137.77"/>
<polygon fill="midnightblue" stroke="midnightblue" points="763.69,-134.76 753.55,-131.67 759.55,-140.41 763.69,-134.76"/>
</g>
<!-- Node17 -->
<g id="node17" class="node">
<title>Node17</title>
<g id="a_node17"><a xlink:href="analyze_8h.html" target="_top" xlink:title="Contains the structure definitions of wing_t and recordPoint_t">
<polygon fill="white" stroke="black" points="476,-168.5 476,-187.5 534,-187.5 534,-168.5 476,-168.5"/>
<text text-anchor="middle" x="505" y="-175.5" font-family="Helvetica,sans-Serif" font-size="10.00">analyze.h</text>
</a>
</g>
</g>
<!-- Node1&#45;&gt;Node17 -->
<g id="edge29" class="edge">
<title>Node1&#45;&gt;Node17</title>
<path fill="none" stroke="midnightblue" d="M441.21,-224.32C452.78,-216.11 470.38,-203.6 484.16,-193.81"/>
<polygon fill="midnightblue" stroke="midnightblue" points="486.44,-196.48 492.57,-187.83 482.39,-190.77 486.44,-196.48"/>
</g>
<!-- Node6&#45;&gt;Node5 -->
<g id="edge6" class="edge">
<title>Node6&#45;&gt;Node5</title>
<path fill="none" stroke="midnightblue" d="M438.56,-112.32C428.85,-104.26 414.18,-92.08 402.5,-82.37"/>
<polygon fill="midnightblue" stroke="midnightblue" points="404.56,-79.53 394.63,-75.83 400.09,-84.92 404.56,-79.53"/>
</g>
<!-- Node7 -->
<g id="node7" class="node">
<title>Node7</title>
<g id="a_node7"><a xlink:href="main_8h.html" target="_top" xlink:title="Contains the global constants and definitions.">
<polygon fill="white" stroke="black" points="590,-0.5 590,-19.5 636,-19.5 636,-0.5 590,-0.5"/>
<text text-anchor="middle" x="613" y="-7.5" font-family="Helvetica,sans-Serif" font-size="10.00">main.h</text>
</a>
</g>
</g>
<!-- Node6&#45;&gt;Node7 -->
<g id="edge7" class="edge">
<title>Node6&#45;&gt;Node7</title>
<path fill="none" stroke="midnightblue" d="M460.01,-112.46C476.6,-99.71 509.14,-75.14 538,-56 554.61,-44.98 573.9,-33.44 588.76,-24.8"/>
<polygon fill="midnightblue" stroke="midnightblue" points="590.9,-27.6 597.81,-19.57 587.4,-21.54 590.9,-27.6"/>
</g>
<!-- Node8&#45;&gt;Node5 -->
<g id="edge9" class="edge">
<title>Node8&#45;&gt;Node5</title>
<path fill="none" stroke="midnightblue" d="M268.92,-168.43C282.09,-155.84 307.59,-131.72 330,-112 341.45,-101.92 354.6,-90.96 365.05,-82.38"/>
<polygon fill="midnightblue" stroke="midnightblue" points="367.57,-84.83 373.1,-75.8 363.14,-79.41 367.57,-84.83"/>
</g>
<!-- Node9 -->
<g id="node9" class="node">
<title>Node9</title>
<g id="a_node9"><a xlink:title=" ">
<polygon fill="white" stroke="#bfbfbf" points="208,-112.5 208,-131.5 252,-131.5 252,-112.5 208,-112.5"/>
<text text-anchor="middle" x="230" y="-119.5" font-family="Helvetica,sans-Serif" font-size="10.00">time.h</text>
</a>
</g>
</g>
<!-- Node8&#45;&gt;Node9 -->
<g id="edge10" class="edge">
<title>Node8&#45;&gt;Node9</title>
<path fill="none" stroke="midnightblue" d="M255.05,-168.08C250.9,-160.61 244.85,-149.72 239.73,-140.52"/>
<polygon fill="midnightblue" stroke="midnightblue" points="242.78,-138.79 234.86,-131.75 236.66,-142.19 242.78,-138.79"/>
</g>
<!-- Node10&#45;&gt;Node3 -->
<g id="edge13" class="edge">
<title>Node10&#45;&gt;Node3</title>
<path fill="none" stroke="midnightblue" d="M358.31,-168.08C360.17,-160.93 362.84,-150.64 365.15,-141.69"/>
<polygon fill="midnightblue" stroke="midnightblue" points="368.61,-142.31 367.73,-131.75 361.83,-140.55 368.61,-142.31"/>
</g>
<!-- Node10&#45;&gt;Node5 -->
<g id="edge12" class="edge">
<title>Node10&#45;&gt;Node5</title>
<path fill="none" stroke="midnightblue" d="M349.77,-168.36C341.46,-155.69 328.69,-131.46 337,-112 342.15,-99.95 352.28,-89.58 361.83,-81.84"/>
<polygon fill="midnightblue" stroke="midnightblue" points="364.04,-84.55 369.92,-75.74 359.83,-78.96 364.04,-84.55"/>
</g>
<!-- Node11&#45;&gt;Node5 -->
<g id="edge15" class="edge">
<title>Node11&#45;&gt;Node5</title>
<path fill="none" stroke="midnightblue" d="M129.15,-115.12C181.9,-105.16 288.62,-85.01 345.79,-74.21"/>
<polygon fill="midnightblue" stroke="midnightblue" points="346.69,-77.61 355.87,-72.31 345.39,-70.73 346.69,-77.61"/>
</g>
<!-- Node12&#45;&gt;Node5 -->
<g id="edge17" class="edge">
<title>Node12&#45;&gt;Node5</title>
<path fill="none" stroke="midnightblue" d="M580.19,-113.26C538.31,-103.39 466.01,-86.34 421.85,-75.92"/>
<polygon fill="midnightblue" stroke="midnightblue" points="422.6,-72.51 412.07,-73.62 421,-79.32 422.6,-72.51"/>
</g>
<!-- Node12&#45;&gt;Node7 -->
<g id="edge18" class="edge">
<title>Node12&#45;&gt;Node7</title>
<path fill="none" stroke="midnightblue" d="M613,-112.37C613,-94.62 613,-53.67 613,-29.6"/>
<polygon fill="midnightblue" stroke="midnightblue" points="616.5,-29.59 613,-19.59 609.5,-29.59 616.5,-29.59"/>
</g>
<!-- Node12&#45;&gt;Node13 -->
<g id="edge19" class="edge">
<title>Node12&#45;&gt;Node13</title>
<path fill="none" stroke="midnightblue" d="M617.25,-112.08C624.09,-103.98 636.55,-91.87 647.78,-82.23"/>
<polygon fill="midnightblue" stroke="midnightblue" points="650.15,-84.82 655.63,-75.75 645.69,-79.42 650.15,-84.82"/>
</g>
<!-- Node13&#45;&gt;Node7 -->
<g id="edge20" class="edge">
<title>Node13&#45;&gt;Node7</title>
<path fill="none" stroke="midnightblue" d="M660.84,-56.32C652.5,-48.42 639.97,-36.55 629.82,-26.94"/>
<polygon fill="midnightblue" stroke="midnightblue" points="631.99,-24.17 622.32,-19.83 627.18,-29.25 631.99,-24.17"/>
</g>
<!-- Node13&#45;&gt;Node12 -->
<g id="edge21" class="edge">
<title>Node13&#45;&gt;Node12</title>
<path fill="none" stroke="midnightblue" d="M665.82,-75.83C658.99,-83.95 646.44,-96.15 635.16,-105.82"/>
<polygon fill="midnightblue" stroke="midnightblue" points="632.76,-103.26 627.27,-112.32 637.22,-108.66 632.76,-103.26"/>
</g>
<!-- Node16&#45;&gt;Node5 -->
<g id="edge26" class="edge">
<title>Node16&#45;&gt;Node5</title>
<path fill="none" stroke="midnightblue" d="M702.24,-115.27C633.98,-104.92 490.81,-83.2 422.22,-72.8"/>
<polygon fill="midnightblue" stroke="midnightblue" points="422.68,-69.33 412.27,-71.29 421.63,-76.25 422.68,-69.33"/>
</g>
<!-- Node16&#45;&gt;Node7 -->
<g id="edge27" class="edge">
<title>Node16&#45;&gt;Node7</title>
<path fill="none" stroke="midnightblue" d="M737.13,-112.36C732.26,-98.8 721.17,-72.39 704,-56 687.5,-40.25 664.42,-28.92 645.63,-21.57"/>
<polygon fill="midnightblue" stroke="midnightblue" points="646.85,-18.29 636.26,-18.09 644.41,-24.85 646.85,-18.29"/>
</g>
<!-- Node16&#45;&gt;Node13 -->
<g id="edge28" class="edge">
<title>Node16&#45;&gt;Node13</title>
<path fill="none" stroke="midnightblue" d="M728.75,-112.32C718.2,-104.18 702.2,-91.84 689.56,-82.09"/>
<polygon fill="midnightblue" stroke="midnightblue" points="691.51,-79.17 681.45,-75.83 687.23,-84.71 691.51,-79.17"/>
</g>
<!-- Node17&#45;&gt;Node3 -->
<g id="edge30" class="edge">
<title>Node17&#45;&gt;Node3</title>
<path fill="none" stroke="midnightblue" d="M483.61,-168.44C461.29,-159.52 426.1,-145.44 400.79,-135.32"/>
<polygon fill="midnightblue" stroke="midnightblue" points="401.88,-131.98 391.29,-131.52 399.28,-138.48 401.88,-131.98"/>
</g>
<!-- Node17&#45;&gt;Node5 -->
<g id="edge31" class="edge">
<title>Node17&#45;&gt;Node5</title>
<path fill="none" stroke="midnightblue" d="M506.16,-168.38C507.5,-154.85 508.03,-128.48 495,-112 477.39,-89.74 447,-78.42 422.47,-72.71"/>
<polygon fill="midnightblue" stroke="midnightblue" points="422.87,-69.22 412.37,-70.59 421.44,-76.07 422.87,-69.22"/>
</g>
<!-- Node17&#45;&gt;Node7 -->
<g id="edge32" class="edge">
<title>Node17&#45;&gt;Node7</title>
<path fill="none" stroke="midnightblue" d="M510.81,-168.08C528.03,-141.61 579.03,-63.21 601.8,-28.21"/>
<polygon fill="midnightblue" stroke="midnightblue" points="604.91,-29.86 607.43,-19.57 599.04,-26.04 604.91,-29.86"/>
</g>
<!-- Node17&#45;&gt;Node12 -->
<g id="edge33" class="edge">
<title>Node17&#45;&gt;Node12</title>
<path fill="none" stroke="midnightblue" d="M522.35,-168.32C539.67,-159.66 566.52,-146.24 586.5,-136.25"/>
<polygon fill="midnightblue" stroke="midnightblue" points="588.31,-139.26 595.69,-131.65 585.18,-133 588.31,-139.26"/>
</g>
<!-- Node17&#45;&gt;Node13 -->
<g id="edge34" class="edge">
<title>Node17&#45;&gt;Node13</title>
<path fill="none" stroke="midnightblue" d="M534.01,-171.87C572.77,-164.43 638.5,-149.6 655,-132 666.5,-119.73 669.78,-100.47 670.47,-86.1"/>
<polygon fill="midnightblue" stroke="midnightblue" points="673.97,-85.88 670.57,-75.84 666.97,-85.81 673.97,-85.88"/>
</g>
</g>
</svg>
