<?xml version="1.0" encoding="UTF-8" standalone="no"?>
<!DOCTYPE svg PUBLIC "-//W3C//DTD SVG 1.1//EN"
 "http://www.w3.org/Graphics/SVG/1.1/DTD/svg11.dtd">
<!-- Generated by graphviz version 2.42.3 (0)
 -->
<!-- Title: src/main.h Pages: 1 -->
<svg width="1277pt" height="263pt"
 viewBox="0.00 0.00 1276.62 263.00" xmlns="http://www.w3.org/2000/svg" xmlns:xlink="http://www.w3.org/1999/xlink">
<g id="graph0" class="graph" transform="scale(1 1) rotate(0) translate(4 259)">
<title>src/main.h</title>
<polygon fill="white" stroke="transparent" points="-4,4 -4,-259 1272.62,-259 1272.62,4 -4,4"/>
<!-- Node1 -->
<g id="node1" class="node">
<title>Node1</title>
<g id="a_node1"><a xlink:title="Contains the global constants and definitions.">
<polygon fill="#bfbfbf" stroke="black" points="612.12,-235.5 612.12,-254.5 674.12,-254.5 674.12,-235.5 612.12,-235.5"/>
<text text-anchor="middle" x="643.12" y="-242.5" font-family="Helvetica,sans-Serif" font-size="10.00">src/main.h</text>
</a>
</g>
</g>
<!-- Node2 -->
<g id="node2" class="node">
<title>Node2</title>
<g id="a_node2"><a xlink:href="analyze_8h.html" target="_top" xlink:title="Contains the structure definitions of wing_t and recordPoint_t">
<polygon fill="white" stroke="black" points="241.12,-56.5 241.12,-75.5 315.12,-75.5 315.12,-56.5 241.12,-56.5"/>
<text text-anchor="middle" x="278.12" y="-63.5" font-family="Helvetica,sans-Serif" font-size="10.00">src/analyze.h</text>
</a>
</g>
</g>
<!-- Node1&#45;&gt;Node2 -->
<g id="edge1" class="edge">
<title>Node1&#45;&gt;Node2</title>
<path fill="none" stroke="midnightblue" d="M601.71,-243.99C470.96,-242.94 71.58,-231.52 4.12,-132 -0.86,-124.64 -1.63,-118.78 4.12,-112 34.08,-76.72 173.23,-69.05 240.93,-67.42"/>
<polygon fill="midnightblue" stroke="midnightblue" points="602.07,-247.5 612.09,-244.06 602.11,-240.5 602.07,-247.5"/>
</g>
<!-- Node5 -->
<g id="node5" class="node">
<title>Node5</title>
<g id="a_node5"><a xlink:href="output_8c.html" target="_top" xlink:title="Contains all functions used for writing flow solutions.">
<polygon fill="white" stroke="black" points="761.12,-0.5 761.12,-19.5 829.12,-19.5 829.12,-0.5 761.12,-0.5"/>
<text text-anchor="middle" x="795.12" y="-7.5" font-family="Helvetica,sans-Serif" font-size="10.00">src/output.c</text>
</a>
</g>
</g>
<!-- Node1&#45;&gt;Node5 -->
<g id="edge36" class="edge">
<title>Node1&#45;&gt;Node5</title>
<path fill="none" stroke="midnightblue" d="M684.58,-244.46C761.64,-244.34 922.33,-239.14 957.12,-199 964.76,-190.2 963.19,-127.51 954.12,-112 924.82,-61.89 859.71,-32.71 822.54,-19.53"/>
<polygon fill="midnightblue" stroke="midnightblue" points="684.28,-240.96 674.28,-244.45 684.28,-247.96 684.28,-240.96"/>
</g>
<!-- Node6 -->
<g id="node6" class="node">
<title>Node6</title>
<g id="a_node6"><a xlink:href="mesh_8h.html" target="_top" xlink:title="Contains the definitions of all structs for the mesh handling.">
<polygon fill="white" stroke="black" points="350.62,-174 350.62,-193 415.62,-193 415.62,-174 350.62,-174"/>
<text text-anchor="middle" x="383.12" y="-181" font-family="Helvetica,sans-Serif" font-size="10.00">src/mesh.h</text>
</a>
</g>
</g>
<!-- Node1&#45;&gt;Node6 -->
<g id="edge5" class="edge">
<title>Node1&#45;&gt;Node6</title>
<path fill="none" stroke="midnightblue" d="M601.96,-235.72C560.08,-227.14 493.37,-213.04 436.12,-199 428.71,-197.18 420.76,-195.08 413.32,-193.06"/>
<polygon fill="midnightblue" stroke="midnightblue" points="601.3,-239.16 611.79,-237.73 602.7,-232.3 601.3,-239.16"/>
</g>
<!-- Node7 -->
<g id="node7" class="node">
<title>Node7</title>
<g id="a_node7"><a xlink:href="euler_2boundary_8h_source.html" target="_top" xlink:title=" ">
<polygon fill="white" stroke="black" points="13.62,-112.5 13.62,-131.5 118.62,-131.5 118.62,-112.5 13.62,-112.5"/>
<text text-anchor="middle" x="66.12" y="-119.5" font-family="Helvetica,sans-Serif" font-size="10.00">src/euler/boundary.h</text>
</a>
</g>
</g>
<!-- Node1&#45;&gt;Node7 -->
<g id="edge26" class="edge">
<title>Node1&#45;&gt;Node7</title>
<path fill="none" stroke="midnightblue" d="M601.98,-242.1C533.09,-238.22 390.4,-227.26 273.12,-199 201.48,-181.74 120.54,-147.46 84.79,-131.52"/>
<polygon fill="midnightblue" stroke="midnightblue" points="601.82,-245.59 612,-242.64 602.2,-238.6 601.82,-245.59"/>
</g>
<!-- Node8 -->
<g id="node8" class="node">
<title>Node8</title>
<g id="a_node8"><a xlink:href="finiteVolume_8c.html" target="_top" xlink:title="Finite volume time derivative functions.">
<polygon fill="white" stroke="black" points="519.62,-112.5 519.62,-131.5 614.62,-131.5 614.62,-112.5 519.62,-112.5"/>
<text text-anchor="middle" x="567.12" y="-119.5" font-family="Helvetica,sans-Serif" font-size="10.00">src/finiteVolume.c</text>
</a>
</g>
</g>
<!-- Node1&#45;&gt;Node8 -->
<g id="edge28" class="edge">
<title>Node1&#45;&gt;Node8</title>
<path fill="none" stroke="midnightblue" d="M632.29,-226.75C615.79,-200.48 584.98,-151.43 572.54,-131.62"/>
<polygon fill="midnightblue" stroke="midnightblue" points="629.38,-228.69 637.66,-235.3 635.3,-224.97 629.38,-228.69"/>
</g>
<!-- Node9 -->
<g id="node9" class="node">
<title>Node9</title>
<g id="a_node9"><a xlink:href="initialCondition_8c.html" target="_top" xlink:title="Functions involving the initialization and application of initial conditions.">
<polygon fill="white" stroke="black" points="823.62,-112.5 823.62,-131.5 928.62,-131.5 928.62,-112.5 823.62,-112.5"/>
<text text-anchor="middle" x="876.12" y="-119.5" font-family="Helvetica,sans-Serif" font-size="10.00">src/initialCondition.c</text>
</a>
</g>
</g>
<!-- Node1&#45;&gt;Node9 -->
<g id="edge29" class="edge">
<title>Node1&#45;&gt;Node9</title>
<path fill="none" stroke="midnightblue" d="M684.27,-233.49C710.38,-225.91 744.34,-214.31 772.12,-199 791.52,-188.31 793.34,-181.2 811.12,-168 828.76,-154.91 849.74,-140.6 863,-131.72"/>
<polygon fill="midnightblue" stroke="midnightblue" points="683,-230.21 674.33,-236.3 684.9,-236.95 683,-230.21"/>
</g>
<!-- Node10 -->
<g id="node10" class="node">
<title>Node10</title>
<g id="a_node10"><a xlink:href="linearSolver_8h.html" target="_top" xlink:title=" ">
<polygon fill="white" stroke="black" points="371.12,-112.5 371.12,-131.5 463.12,-131.5 463.12,-112.5 371.12,-112.5"/>
<text text-anchor="middle" x="417.12" y="-119.5" font-family="Helvetica,sans-Serif" font-size="10.00">src/linearSolver.h</text>
</a>
</g>
</g>
<!-- Node1&#45;&gt;Node10 -->
<g id="edge31" class="edge">
<title>Node1&#45;&gt;Node10</title>
<path fill="none" stroke="midnightblue" d="M618.4,-230.76C571.84,-205.83 472.32,-152.55 433.3,-131.66"/>
<polygon fill="midnightblue" stroke="midnightblue" points="616.76,-233.86 627.23,-235.49 620.07,-227.69 616.76,-233.86"/>
</g>
<!-- Node11 -->
<g id="node11" class="node">
<title>Node11</title>
<g id="a_node11"><a xlink:href="linearSolver_8c.html" target="_top" xlink:title="Contains the functions for solving the linear system of equations during implicit calculations.">
<polygon fill="white" stroke="black" points="597.12,-56.5 597.12,-75.5 689.12,-75.5 689.12,-56.5 597.12,-56.5"/>
<text text-anchor="middle" x="643.12" y="-63.5" font-family="Helvetica,sans-Serif" font-size="10.00">src/linearSolver.c</text>
</a>
</g>
</g>
<!-- Node1&#45;&gt;Node11 -->
<g id="edge30" class="edge">
<title>Node1&#45;&gt;Node11</title>
<path fill="none" stroke="midnightblue" d="M643.12,-225.35C643.12,-187.6 643.12,-103.36 643.12,-75.87"/>
<polygon fill="midnightblue" stroke="midnightblue" points="639.62,-225.46 643.12,-235.46 646.62,-225.46 639.62,-225.46"/>
</g>
<!-- Node12 -->
<g id="node12" class="node">
<title>Node12</title>
<g id="a_node12"><a xlink:href="navierstokes_2boundary_8h_source.html" target="_top" xlink:title=" ">
<polygon fill="white" stroke="black" points="137.12,-112.5 137.12,-131.5 277.12,-131.5 277.12,-112.5 137.12,-112.5"/>
<text text-anchor="middle" x="207.12" y="-119.5" font-family="Helvetica,sans-Serif" font-size="10.00">src/navierstokes/boundary.h</text>
</a>
</g>
</g>
<!-- Node1&#45;&gt;Node12 -->
<g id="edge32" class="edge">
<title>Node1&#45;&gt;Node12</title>
<path fill="none" stroke="midnightblue" d="M601.71,-242.62C542.45,-239.58 430.71,-229.88 341.12,-199 292.58,-182.27 241.47,-147.88 218.96,-131.74"/>
<polygon fill="midnightblue" stroke="midnightblue" points="601.65,-246.12 611.8,-243.09 601.98,-239.12 601.65,-246.12"/>
</g>
<!-- Node13 -->
<g id="node13" class="node">
<title>Node13</title>
<g id="a_node13"><a xlink:href="readInTools_8h.html" target="_top" xlink:title=" ">
<polygon fill="white" stroke="black" points="672.62,-174 672.62,-193 763.62,-193 763.62,-174 672.62,-174"/>
<text text-anchor="middle" x="718.12" y="-181" font-family="Helvetica,sans-Serif" font-size="10.00">src/readInTools.h</text>
</a>
</g>
</g>
<!-- Node1&#45;&gt;Node13 -->
<g id="edge19" class="edge">
<title>Node1&#45;&gt;Node13</title>
<path fill="none" stroke="midnightblue" d="M662.07,-228.97C676.41,-217.59 695.6,-202.37 707.4,-193.01"/>
<polygon fill="midnightblue" stroke="midnightblue" points="659.53,-226.52 653.87,-235.48 663.88,-232 659.53,-226.52"/>
</g>
<!-- Node14 -->
<g id="node14" class="node">
<title>Node14</title>
<g id="a_node14"><a xlink:href="euler_2equationOfState_8h_source.html" target="_top" xlink:title=" ">
<polygon fill="white" stroke="black" points="1023.12,-174 1023.12,-193 1159.12,-193 1159.12,-174 1023.12,-174"/>
<text text-anchor="middle" x="1091.12" y="-181" font-family="Helvetica,sans-Serif" font-size="10.00">src/euler/equationOfState.h</text>
</a>
</g>
</g>
<!-- Node1&#45;&gt;Node14 -->
<g id="edge27" class="edge">
<title>Node1&#45;&gt;Node14</title>
<path fill="none" stroke="midnightblue" d="M684.83,-239.6C752.87,-232.25 891.93,-216.55 1009.12,-199 1020.85,-197.24 1033.47,-195.13 1045.22,-193.06"/>
<polygon fill="midnightblue" stroke="midnightblue" points="684.1,-236.15 674.53,-240.7 684.85,-243.11 684.1,-236.15"/>
</g>
<!-- Node15 -->
<g id="node15" class="node">
<title>Node15</title>
<g id="a_node15"><a xlink:href="navierstokes_2equationOfState_8h_source.html" target="_top" xlink:title=" ">
<polygon fill="white" stroke="black" points="820.12,-168.5 820.12,-198.5 948.12,-198.5 948.12,-168.5 820.12,-168.5"/>
<text text-anchor="start" x="828.12" y="-186.5" font-family="Helvetica,sans-Serif" font-size="10.00">src/navierstokes/equation</text>
<text text-anchor="middle" x="884.12" y="-175.5" font-family="Helvetica,sans-Serif" font-size="10.00">OfState.h</text>
</a>
</g>
</g>
<!-- Node1&#45;&gt;Node15 -->
<g id="edge33" class="edge">
<title>Node1&#45;&gt;Node15</title>
<path fill="none" stroke="midnightblue" d="M683.9,-233.93C723.18,-224.23 782.96,-209.48 826.98,-198.61"/>
<polygon fill="midnightblue" stroke="midnightblue" points="683.01,-230.55 674.14,-236.34 684.68,-237.34 683.01,-230.55"/>
</g>
<!-- Node16 -->
<g id="node16" class="node">
<title>Node16</title>
<g id="a_node16"><a xlink:href="readInTools_8c.html" target="_top" xlink:title="Provides functions for reading data from the .ini parameter file.">
<polygon fill="white" stroke="black" points="1177.62,-174 1177.62,-193 1268.62,-193 1268.62,-174 1177.62,-174"/>
<text text-anchor="middle" x="1223.12" y="-181" font-family="Helvetica,sans-Serif" font-size="10.00">src/readInTools.c</text>
</a>
</g>
</g>
<!-- Node1&#45;&gt;Node16 -->
<g id="edge37" class="edge">
<title>Node1&#45;&gt;Node16</title>
<path fill="none" stroke="midnightblue" d="M684.34,-242.88C773.3,-239.93 989.7,-229.93 1168.12,-199 1176.78,-197.5 1186.07,-195.29 1194.5,-193.04"/>
<polygon fill="midnightblue" stroke="midnightblue" points="684.02,-239.39 674.13,-243.2 684.24,-246.38 684.02,-239.39"/>
</g>
<!-- Node3 -->
<g id="node3" class="node">
<title>Node3</title>
<g id="a_node3"><a xlink:href="analyze_8c.html" target="_top" xlink:title="Contains functions for analyzing flow results.">
<polygon fill="white" stroke="black" points="531.12,-0.5 531.12,-19.5 605.12,-19.5 605.12,-0.5 531.12,-0.5"/>
<text text-anchor="middle" x="568.12" y="-7.5" font-family="Helvetica,sans-Serif" font-size="10.00">src/analyze.c</text>
</a>
</g>
</g>
<!-- Node2&#45;&gt;Node3 -->
<g id="edge2" class="edge">
<title>Node2&#45;&gt;Node3</title>
<path fill="none" stroke="midnightblue" d="M325.04,-56.26C382.4,-45.58 478.3,-27.73 530.86,-17.94"/>
<polygon fill="midnightblue" stroke="midnightblue" points="324.34,-52.83 315.15,-58.11 325.62,-59.72 324.34,-52.83"/>
</g>
<!-- Node4 -->
<g id="node4" class="node">
<title>Node4</title>
<g id="a_node4"><a xlink:href="main_8c.html" target="_top" xlink:title="Contains the main function of ccfd">
<polygon fill="white" stroke="black" points="312.12,-0.5 312.12,-19.5 374.12,-19.5 374.12,-0.5 312.12,-0.5"/>
<text text-anchor="middle" x="343.12" y="-7.5" font-family="Helvetica,sans-Serif" font-size="10.00">src/main.c</text>
</a>
</g>
</g>
<!-- Node2&#45;&gt;Node4 -->
<g id="edge3" class="edge">
<title>Node2&#45;&gt;Node4</title>
<path fill="none" stroke="midnightblue" d="M296.4,-49.82C308.04,-40.15 322.72,-27.95 332.49,-19.83"/>
<polygon fill="midnightblue" stroke="midnightblue" points="294.02,-47.24 288.57,-56.32 298.5,-52.63 294.02,-47.24"/>
</g>
<!-- Node2&#45;&gt;Node5 -->
<g id="edge4" class="edge">
<title>Node2&#45;&gt;Node5</title>
<path fill="none" stroke="midnightblue" d="M325.42,-60.06C428.48,-49.3 671.26,-23.94 761,-14.56"/>
<polygon fill="midnightblue" stroke="midnightblue" points="324.89,-56.6 315.3,-61.12 325.61,-63.56 324.89,-56.6"/>
</g>
<!-- Node6&#45;&gt;Node2 -->
<g id="edge6" class="edge">
<title>Node6&#45;&gt;Node2</title>
<path fill="none" stroke="midnightblue" d="M365.52,-167.29C354.63,-157.58 340.6,-144.51 329.12,-132 311.67,-112.97 293.55,-88.57 284.33,-75.75"/>
<polygon fill="midnightblue" stroke="midnightblue" points="363.31,-170.01 373.13,-173.99 367.94,-164.75 363.31,-170.01"/>
</g>
<!-- Node6&#45;&gt;Node4 -->
<g id="edge14" class="edge">
<title>Node6&#45;&gt;Node4</title>
<path fill="none" stroke="midnightblue" d="M374.46,-164.62C370.18,-155.12 365.27,-143.14 362.12,-132 350.52,-90.86 345.42,-39.73 343.77,-19.66"/>
<polygon fill="midnightblue" stroke="midnightblue" points="371.34,-166.21 378.75,-173.79 377.68,-163.25 371.34,-166.21"/>
</g>
<!-- Node6&#45;&gt;Node7 -->
<g id="edge7" class="edge">
<title>Node6&#45;&gt;Node7</title>
<path fill="none" stroke="midnightblue" d="M340.54,-174.51C280.87,-163.31 172.83,-143.03 111.62,-131.54"/>
<polygon fill="midnightblue" stroke="midnightblue" points="339.92,-177.95 350.39,-176.36 341.21,-171.07 339.92,-177.95"/>
</g>
<!-- Node6&#45;&gt;Node8 -->
<g id="edge8" class="edge">
<title>Node6&#45;&gt;Node8</title>
<path fill="none" stroke="midnightblue" d="M419.06,-170.88C454.82,-159.32 508.86,-141.84 540.81,-131.51"/>
<polygon fill="midnightblue" stroke="midnightblue" points="417.92,-167.57 409.49,-173.98 420.08,-174.23 417.92,-167.57"/>
</g>
<!-- Node6&#45;&gt;Node9 -->
<g id="edge9" class="edge">
<title>Node6&#45;&gt;Node9</title>
<path fill="none" stroke="midnightblue" d="M425.99,-177.33C516.12,-166.45 725.05,-141.23 823.29,-129.38"/>
<polygon fill="midnightblue" stroke="midnightblue" points="425.36,-173.88 415.85,-178.55 426.2,-180.83 425.36,-173.88"/>
</g>
<!-- Node6&#45;&gt;Node10 -->
<g id="edge10" class="edge">
<title>Node6&#45;&gt;Node10</title>
<path fill="none" stroke="midnightblue" d="M393.03,-165.17C399.35,-154.11 407.27,-140.25 412.26,-131.51"/>
<polygon fill="midnightblue" stroke="midnightblue" points="389.92,-163.56 387.99,-173.98 396,-167.03 389.92,-163.56"/>
</g>
<!-- Node6&#45;&gt;Node11 -->
<g id="edge13" class="edge">
<title>Node6&#45;&gt;Node11</title>
<path fill="none" stroke="midnightblue" d="M407.27,-168.79C441.13,-149.61 499.74,-116.59 510.12,-112 544.45,-96.81 585.61,-83.61 612.96,-75.51"/>
<polygon fill="midnightblue" stroke="midnightblue" points="405.41,-165.82 398.44,-173.79 408.87,-171.91 405.41,-165.82"/>
</g>
<!-- Node6&#45;&gt;Node12 -->
<g id="edge15" class="edge">
<title>Node6&#45;&gt;Node12</title>
<path fill="none" stroke="midnightblue" d="M343.27,-170.88C307.19,-159.32 255.7,-141.84 227.4,-131.51"/>
<polygon fill="midnightblue" stroke="midnightblue" points="342.42,-174.28 353.01,-173.98 344.54,-167.61 342.42,-174.28"/>
</g>
<!-- Node10&#45;&gt;Node4 -->
<g id="edge12" class="edge">
<title>Node10&#45;&gt;Node4</title>
<path fill="none" stroke="midnightblue" d="M405.66,-103.96C389.62,-80.12 361.09,-37.71 348.9,-19.59"/>
<polygon fill="midnightblue" stroke="midnightblue" points="402.83,-106.02 411.32,-112.37 408.64,-102.12 402.83,-106.02"/>
</g>
<!-- Node10&#45;&gt;Node11 -->
<g id="edge11" class="edge">
<title>Node10&#45;&gt;Node11</title>
<path fill="none" stroke="midnightblue" d="M462.79,-110.09C505.49,-99.89 568.37,-84.86 607.48,-75.52"/>
<polygon fill="midnightblue" stroke="midnightblue" points="461.85,-106.72 452.93,-112.44 463.47,-113.52 461.85,-106.72"/>
</g>
<!-- Node12&#45;&gt;Node2 -->
<g id="edge16" class="edge">
<title>Node12&#45;&gt;Node2</title>
<path fill="none" stroke="midnightblue" d="M226.71,-106.1C239.49,-96.38 255.74,-84.03 266.51,-75.83"/>
<polygon fill="midnightblue" stroke="midnightblue" points="224.37,-103.48 218.53,-112.32 228.61,-109.06 224.37,-103.48"/>
</g>
<!-- Node12&#45;&gt;Node4 -->
<g id="edge18" class="edge">
<title>Node12&#45;&gt;Node4</title>
<path fill="none" stroke="midnightblue" d="M210.21,-102.05C213.43,-87.75 219.82,-68.52 232.12,-56 253.69,-34.04 287.42,-22.43 312.04,-16.55"/>
<polygon fill="midnightblue" stroke="midnightblue" points="206.7,-101.75 208.24,-112.23 213.57,-103.08 206.7,-101.75"/>
</g>
<!-- Node12&#45;&gt;Node6 -->
<g id="edge17" class="edge">
<title>Node12&#45;&gt;Node6</title>
<path fill="none" stroke="midnightblue" d="M246.92,-134.6C282.98,-146.16 334.48,-163.64 362.81,-173.98"/>
<polygon fill="midnightblue" stroke="midnightblue" points="247.78,-131.2 237.19,-131.51 245.66,-137.87 247.78,-131.2"/>
</g>
<!-- Node13&#45;&gt;Node3 -->
<g id="edge20" class="edge">
<title>Node13&#45;&gt;Node3</title>
<path fill="none" stroke="midnightblue" d="M727.49,-164.47C739.87,-137.86 757.42,-87.81 733.12,-56 717.67,-35.77 648.87,-22.45 605.14,-15.86"/>
<polygon fill="midnightblue" stroke="midnightblue" points="724.21,-163.21 722.95,-173.73 730.5,-166.29 724.21,-163.21"/>
</g>
<!-- Node13&#45;&gt;Node4 -->
<g id="edge24" class="edge">
<title>Node13&#45;&gt;Node4</title>
<path fill="none" stroke="midnightblue" d="M721.36,-163.93C725.03,-136.19 727.16,-84.16 698.12,-56 675.02,-33.59 456.65,-17.97 374.33,-12.84"/>
<polygon fill="midnightblue" stroke="midnightblue" points="717.89,-163.48 719.84,-173.89 724.81,-164.54 717.89,-163.48"/>
</g>
<!-- Node13&#45;&gt;Node5 -->
<g id="edge25" class="edge">
<title>Node13&#45;&gt;Node5</title>
<path fill="none" stroke="midnightblue" d="M739.3,-167.49C750.47,-158.47 763.41,-146.02 771.12,-132 792.07,-93.9 794.89,-40.14 795.16,-19.51"/>
<polygon fill="midnightblue" stroke="midnightblue" points="737.02,-164.83 731.22,-173.7 741.29,-170.38 737.02,-164.83"/>
</g>
<!-- Node13&#45;&gt;Node8 -->
<g id="edge21" class="edge">
<title>Node13&#45;&gt;Node8</title>
<path fill="none" stroke="midnightblue" d="M687.12,-170.28C657.77,-158.72 614.49,-141.66 588.72,-131.51"/>
<polygon fill="midnightblue" stroke="midnightblue" points="685.9,-173.57 696.49,-173.98 688.47,-167.05 685.9,-173.57"/>
</g>
<!-- Node13&#45;&gt;Node9 -->
<g id="edge22" class="edge">
<title>Node13&#45;&gt;Node9</title>
<path fill="none" stroke="midnightblue" d="M750.17,-170.43C780.88,-158.87 826.44,-141.71 853.53,-131.51"/>
<polygon fill="midnightblue" stroke="midnightblue" points="748.89,-167.18 740.76,-173.98 751.35,-173.73 748.89,-167.18"/>
</g>
<!-- Node13&#45;&gt;Node11 -->
<g id="edge23" class="edge">
<title>Node13&#45;&gt;Node11</title>
<path fill="none" stroke="midnightblue" d="M706.98,-165.34C690.76,-140.36 661.21,-94.86 648.83,-75.78"/>
<polygon fill="midnightblue" stroke="midnightblue" points="704.1,-167.34 712.49,-173.82 709.98,-163.53 704.1,-167.34"/>
</g>
<!-- Node15&#45;&gt;Node9 -->
<g id="edge34" class="edge">
<title>Node15&#45;&gt;Node9</title>
<path fill="none" stroke="midnightblue" d="M880.87,-158.29C879.6,-148.86 878.23,-138.65 877.29,-131.66"/>
<polygon fill="midnightblue" stroke="midnightblue" points="877.43,-158.95 882.23,-168.4 884.36,-158.02 877.43,-158.95"/>
</g>
<!-- Node15&#45;&gt;Node11 -->
<g id="edge35" class="edge">
<title>Node15&#45;&gt;Node11</title>
<path fill="none" stroke="midnightblue" d="M915.66,-162.09C934.02,-147.72 951.05,-128.22 937.12,-112 905.72,-75.42 763.68,-68.26 689.13,-67.07"/>
<polygon fill="midnightblue" stroke="midnightblue" points="913.21,-159.55 907.24,-168.31 917.36,-165.19 913.21,-159.55"/>
</g>
</g>
</svg>
