<?xml version="1.0" encoding="UTF-8" standalone="no"?>
<!DOCTYPE svg PUBLIC "-//W3C//DTD SVG 1.1//EN"
 "http://www.w3.org/Graphics/SVG/1.1/DTD/svg11.dtd">
<!-- Generated by graphviz version 2.42.3 (0)
 -->
<!-- Title: src/main.h Pages: 1 -->
<svg width="1851pt" height="196pt"
 viewBox="0.00 0.00 1850.79 196.00" xmlns="http://www.w3.org/2000/svg" xmlns:xlink="http://www.w3.org/1999/xlink">
<g id="graph0" class="graph" transform="scale(1 1) rotate(0) translate(4 192)">
<title>src/main.h</title>
<polygon fill="white" stroke="transparent" points="-4,4 -4,-192 1846.79,-192 1846.79,4 -4,4"/>
<!-- Node1 -->
<g id="node1" class="node">
<title>Node1</title>
<g id="a_node1"><a xlink:title="Contains the global constants and definitions.">
<polygon fill="#bfbfbf" stroke="black" points="757.29,-168.5 757.29,-187.5 819.29,-187.5 819.29,-168.5 757.29,-168.5"/>
<text text-anchor="middle" x="788.29" y="-175.5" font-family="Helvetica,sans-Serif" font-size="10.00">src/main.h</text>
</a>
</g>
</g>
<!-- Node2 -->
<g id="node2" class="node">
<title>Node2</title>
<g id="a_node2"><a xlink:href="analyze_8h.html" target="_top" xlink:title="Contains the structure definitions of wing_t and recordPoint_t">
<polygon fill="white" stroke="black" points="541.29,-56.5 541.29,-75.5 615.29,-75.5 615.29,-56.5 541.29,-56.5"/>
<text text-anchor="middle" x="578.29" y="-63.5" font-family="Helvetica,sans-Serif" font-size="10.00">src/analyze.h</text>
</a>
</g>
</g>
<!-- Node1&#45;&gt;Node2 -->
<g id="edge1" class="edge">
<title>Node1&#45;&gt;Node2</title>
<path fill="none" stroke="midnightblue" d="M762.69,-163.59C718.98,-140.69 631.12,-94.67 594.7,-75.59"/>
<polygon fill="midnightblue" stroke="midnightblue" points="761.33,-166.83 771.81,-168.37 764.58,-160.63 761.33,-166.83"/>
</g>
<!-- Node5 -->
<g id="node5" class="node">
<title>Node5</title>
<g id="a_node5"><a xlink:href="output_8c.html" target="_top" xlink:title="Contains all functions used for writing flow solutions.">
<polygon fill="white" stroke="black" points="1310.29,-0.5 1310.29,-19.5 1378.29,-19.5 1378.29,-0.5 1310.29,-0.5"/>
<text text-anchor="middle" x="1344.29" y="-7.5" font-family="Helvetica,sans-Serif" font-size="10.00">src/output.c</text>
</a>
</g>
</g>
<!-- Node1&#45;&gt;Node5 -->
<g id="edge50" class="edge">
<title>Node1&#45;&gt;Node5</title>
<path fill="none" stroke="midnightblue" d="M829.43,-176.12C984.4,-172.59 1525.38,-158.42 1550.29,-132 1568.54,-112.64 1550.6,-75.5 1528.29,-56 1486.19,-19.21 1418.87,-11.44 1378.38,-10.37"/>
<polygon fill="midnightblue" stroke="midnightblue" points="829.29,-172.62 819.37,-176.34 829.45,-179.62 829.29,-172.62"/>
</g>
<!-- Node6 -->
<g id="node6" class="node">
<title>Node6</title>
<g id="a_node6"><a xlink:href="timeDiscretization_8c.html" target="_top" xlink:title="Contains the functions for performing the time stepping process.">
<polygon fill="white" stroke="black" points="409.29,-0.5 409.29,-19.5 529.29,-19.5 529.29,-0.5 409.29,-0.5"/>
<text text-anchor="middle" x="469.29" y="-7.5" font-family="Helvetica,sans-Serif" font-size="10.00">src/timeDiscretization.c</text>
</a>
</g>
</g>
<!-- Node1&#45;&gt;Node6 -->
<g id="edge53" class="edge">
<title>Node1&#45;&gt;Node6</title>
<path fill="none" stroke="midnightblue" d="M746.85,-174.82C594.17,-166.37 69.64,-133.31 24.29,-76 -26.35,-11.99 306.11,-28.48 387.29,-20 394.42,-19.26 401.88,-18.46 409.29,-17.66"/>
<polygon fill="midnightblue" stroke="midnightblue" points="747.01,-178.34 757.18,-175.39 747.39,-171.35 747.01,-178.34"/>
</g>
<!-- Node7 -->
<g id="node7" class="node">
<title>Node7</title>
<g id="a_node7"><a xlink:href="mesh_8h.html" target="_top" xlink:title="Contains the definitions of all structs for the mesh handling.">
<polygon fill="white" stroke="black" points="509.79,-112.5 509.79,-131.5 574.79,-131.5 574.79,-112.5 509.79,-112.5"/>
<text text-anchor="middle" x="542.29" y="-119.5" font-family="Helvetica,sans-Serif" font-size="10.00">src/mesh.h</text>
</a>
</g>
</g>
<!-- Node1&#45;&gt;Node7 -->
<g id="edge6" class="edge">
<title>Node1&#45;&gt;Node7</title>
<path fill="none" stroke="midnightblue" d="M747.32,-168.01C699,-157.4 619.64,-139.98 575.15,-130.21"/>
<polygon fill="midnightblue" stroke="midnightblue" points="746.62,-171.44 757.14,-170.16 748.12,-164.6 746.62,-171.44"/>
</g>
<!-- Node8 -->
<g id="node8" class="node">
<title>Node8</title>
<g id="a_node8"><a xlink:href="euler_2boundary_8h.html" target="_top" xlink:title="Contains the structure definition of a boundary.">
<polygon fill="white" stroke="black" points="303.79,-56.5 303.79,-75.5 408.79,-75.5 408.79,-56.5 303.79,-56.5"/>
<text text-anchor="middle" x="356.29" y="-63.5" font-family="Helvetica,sans-Serif" font-size="10.00">src/euler/boundary.h</text>
</a>
</g>
</g>
<!-- Node1&#45;&gt;Node8 -->
<g id="edge38" class="edge">
<title>Node1&#45;&gt;Node8</title>
<path fill="none" stroke="midnightblue" d="M747,-174.05C690.38,-169.23 585.9,-157.5 500.29,-132 451.4,-117.44 397.54,-89.72 371.74,-75.66"/>
<polygon fill="midnightblue" stroke="midnightblue" points="746.75,-177.55 757,-174.88 747.32,-170.57 746.75,-177.55"/>
</g>
<!-- Node9 -->
<g id="node9" class="node">
<title>Node9</title>
<g id="a_node9"><a xlink:href="euler_2boundary_8c.html" target="_top" xlink:title="Contains the functions for initializing and applying boundary conditions.">
<polygon fill="white" stroke="black" points="1186.79,-0.5 1186.79,-19.5 1291.79,-19.5 1291.79,-0.5 1186.79,-0.5"/>
<text text-anchor="middle" x="1239.29" y="-7.5" font-family="Helvetica,sans-Serif" font-size="10.00">src/euler/boundary.c</text>
</a>
</g>
</g>
<!-- Node1&#45;&gt;Node9 -->
<g id="edge37" class="edge">
<title>Node1&#45;&gt;Node9</title>
<path fill="none" stroke="midnightblue" d="M829.43,-175.14C936.46,-169.32 1218.94,-147.36 1271.29,-76 1284.84,-57.54 1262.95,-32.48 1249.16,-19.53"/>
<polygon fill="midnightblue" stroke="midnightblue" points="829.14,-171.65 819.34,-175.67 829.51,-178.64 829.14,-171.65"/>
</g>
<!-- Node10 -->
<g id="node10" class="node">
<title>Node10</title>
<g id="a_node10"><a xlink:href="euler_2fluxCalculation_8c.html" target="_top" xlink:title="Contains the flux calculation functions.">
<polygon fill="white" stroke="black" points="113.79,-0.5 113.79,-19.5 242.79,-19.5 242.79,-0.5 113.79,-0.5"/>
<text text-anchor="middle" x="178.29" y="-7.5" font-family="Helvetica,sans-Serif" font-size="10.00">src/euler/fluxCalculation.c</text>
</a>
</g>
</g>
<!-- Node1&#45;&gt;Node10 -->
<g id="edge44" class="edge">
<title>Node1&#45;&gt;Node10</title>
<path fill="none" stroke="midnightblue" d="M746.89,-176.55C600.02,-174.66 109.47,-165.87 48.29,-132 14.9,-113.51 -14.99,-86.25 8.29,-56 21.56,-38.76 72.73,-26.77 115.5,-19.53"/>
<polygon fill="midnightblue" stroke="midnightblue" points="747.22,-180.05 757.26,-176.68 747.3,-173.05 747.22,-180.05"/>
</g>
<!-- Node11 -->
<g id="node11" class="node">
<title>Node11</title>
<g id="a_node11"><a xlink:href="euler_2exactFunction_8c.html" target="_top" xlink:title="Contains the exact function evaluation function.">
<polygon fill="white" stroke="black" points="1377.29,-56.5 1377.29,-75.5 1503.29,-75.5 1503.29,-56.5 1377.29,-56.5"/>
<text text-anchor="middle" x="1440.29" y="-63.5" font-family="Helvetica,sans-Serif" font-size="10.00">src/euler/exactFunction.c</text>
</a>
</g>
</g>
<!-- Node1&#45;&gt;Node11 -->
<g id="edge43" class="edge">
<title>Node1&#45;&gt;Node11</title>
<path fill="none" stroke="midnightblue" d="M829.53,-176.67C942.92,-175.28 1257.31,-168.19 1353.29,-132 1386.46,-119.49 1417.83,-90.3 1432.16,-75.68"/>
<polygon fill="midnightblue" stroke="midnightblue" points="829.47,-173.17 819.51,-176.78 829.55,-180.16 829.47,-173.17"/>
</g>
<!-- Node12 -->
<g id="node12" class="node">
<title>Node12</title>
<g id="a_node12"><a xlink:href="finiteVolume_8c.html" target="_top" xlink:title="Finite volume time derivative functions.">
<polygon fill="white" stroke="black" points="877.79,-56.5 877.79,-75.5 972.79,-75.5 972.79,-56.5 877.79,-56.5"/>
<text text-anchor="middle" x="925.29" y="-63.5" font-family="Helvetica,sans-Serif" font-size="10.00">src/finiteVolume.c</text>
</a>
</g>
</g>
<!-- Node1&#45;&gt;Node12 -->
<g id="edge45" class="edge">
<title>Node1&#45;&gt;Node12</title>
<path fill="none" stroke="midnightblue" d="M807.2,-161.82C836.38,-138.39 891.43,-94.19 914.59,-75.59"/>
<polygon fill="midnightblue" stroke="midnightblue" points="804.65,-159.38 799.04,-168.37 809.03,-164.84 804.65,-159.38"/>
</g>
<!-- Node13 -->
<g id="node13" class="node">
<title>Node13</title>
<g id="a_node13"><a xlink:href="initialCondition_8c.html" target="_top" xlink:title="Functions involving the initialization and application of initial conditions.">
<polygon fill="white" stroke="black" points="671.79,-56.5 671.79,-75.5 776.79,-75.5 776.79,-56.5 671.79,-56.5"/>
<text text-anchor="middle" x="724.29" y="-63.5" font-family="Helvetica,sans-Serif" font-size="10.00">src/initialCondition.c</text>
</a>
</g>
</g>
<!-- Node1&#45;&gt;Node13 -->
<g id="edge46" class="edge">
<title>Node1&#45;&gt;Node13</title>
<path fill="none" stroke="midnightblue" d="M778.19,-159.64C764.29,-135.74 739.79,-93.63 729.29,-75.59"/>
<polygon fill="midnightblue" stroke="midnightblue" points="775.22,-161.49 783.27,-168.37 781.27,-157.96 775.22,-161.49"/>
</g>
<!-- Node14 -->
<g id="node14" class="node">
<title>Node14</title>
<g id="a_node14"><a xlink:href="linearSolver_8h.html" target="_top" xlink:title=" ">
<polygon fill="white" stroke="black" points="193.29,-56.5 193.29,-75.5 285.29,-75.5 285.29,-56.5 193.29,-56.5"/>
<text text-anchor="middle" x="239.29" y="-63.5" font-family="Helvetica,sans-Serif" font-size="10.00">src/linearSolver.h</text>
</a>
</g>
</g>
<!-- Node1&#45;&gt;Node14 -->
<g id="edge48" class="edge">
<title>Node1&#45;&gt;Node14</title>
<path fill="none" stroke="midnightblue" d="M746.89,-173.97C681.86,-168.67 552.07,-155.94 444.29,-132 376.5,-116.94 299,-89.45 261.69,-75.54"/>
<polygon fill="midnightblue" stroke="midnightblue" points="746.89,-177.48 757.14,-174.78 747.45,-170.5 746.89,-177.48"/>
</g>
<!-- Node15 -->
<g id="node15" class="node">
<title>Node15</title>
<g id="a_node15"><a xlink:href="linearSolver_8c.html" target="_top" xlink:title="Contains the functions for solving the linear system of equations during implicit calculations.">
<polygon fill="white" stroke="black" points="286.29,-0.5 286.29,-19.5 378.29,-19.5 378.29,-0.5 286.29,-0.5"/>
<text text-anchor="middle" x="332.29" y="-7.5" font-family="Helvetica,sans-Serif" font-size="10.00">src/linearSolver.c</text>
</a>
</g>
</g>
<!-- Node1&#45;&gt;Node15 -->
<g id="edge47" class="edge">
<title>Node1&#45;&gt;Node15</title>
<path fill="none" stroke="midnightblue" d="M746.88,-176.48C620.13,-174.53 238.91,-165.93 120.29,-132 69.44,-117.45 42.5,-121.35 15.29,-76 10.72,-68.38 9.47,-62.71 15.29,-56 19.71,-50.92 199.02,-27.75 285.96,-16.79"/>
<polygon fill="midnightblue" stroke="midnightblue" points="746.91,-179.98 756.96,-176.63 747.01,-172.98 746.91,-179.98"/>
</g>
<!-- Node16 -->
<g id="node16" class="node">
<title>Node16</title>
<g id="a_node16"><a xlink:href="mesh_8c.html" target="_top" xlink:title="Contains all the functions for reading and creating meshes.">
<polygon fill="white" stroke="black" points="794.79,-56.5 794.79,-75.5 859.79,-75.5 859.79,-56.5 794.79,-56.5"/>
<text text-anchor="middle" x="827.29" y="-63.5" font-family="Helvetica,sans-Serif" font-size="10.00">src/mesh.c</text>
</a>
</g>
</g>
<!-- Node1&#45;&gt;Node16 -->
<g id="edge49" class="edge">
<title>Node1&#45;&gt;Node16</title>
<path fill="none" stroke="midnightblue" d="M794.79,-158.67C803.32,-134.62 817.94,-93.39 824.25,-75.59"/>
<polygon fill="midnightblue" stroke="midnightblue" points="791.4,-157.77 791.35,-168.37 797.99,-160.11 791.4,-157.77"/>
</g>
<!-- Node17 -->
<g id="node17" class="node">
<title>Node17</title>
<g id="a_node17"><a xlink:href="reconstruction_8c.html" target="_top" xlink:title="Contains the reconstruction and limiter functions.">
<polygon fill="white" stroke="black" points="33.79,-56.5 33.79,-75.5 136.79,-75.5 136.79,-56.5 33.79,-56.5"/>
<text text-anchor="middle" x="85.29" y="-63.5" font-family="Helvetica,sans-Serif" font-size="10.00">src/reconstruction.c</text>
</a>
</g>
</g>
<!-- Node1&#45;&gt;Node17 -->
<g id="edge52" class="edge">
<title>Node1&#45;&gt;Node17</title>
<path fill="none" stroke="midnightblue" d="M747.07,-174.27C671.28,-168.88 504.91,-155.33 366.29,-132 274.7,-116.58 168.3,-89.38 116.65,-75.57"/>
<polygon fill="midnightblue" stroke="midnightblue" points="746.93,-177.77 757.15,-174.98 747.41,-170.79 746.93,-177.77"/>
</g>
<!-- Node18 -->
<g id="node18" class="node">
<title>Node18</title>
<g id="a_node18"><a xlink:href="readInTools_8h.html" target="_top" xlink:title=" ">
<polygon fill="white" stroke="black" points="993.79,-112.5 993.79,-131.5 1084.79,-131.5 1084.79,-112.5 993.79,-112.5"/>
<text text-anchor="middle" x="1039.29" y="-119.5" font-family="Helvetica,sans-Serif" font-size="10.00">src/readInTools.h</text>
</a>
</g>
</g>
<!-- Node1&#45;&gt;Node18 -->
<g id="edge26" class="edge">
<title>Node1&#45;&gt;Node18</title>
<path fill="none" stroke="midnightblue" d="M829.18,-168.2C876.27,-158.07 953.11,-141.54 999.66,-131.53"/>
<polygon fill="midnightblue" stroke="midnightblue" points="828.36,-164.8 819.32,-170.32 829.83,-171.64 828.36,-164.8"/>
</g>
<!-- Node20 -->
<g id="node20" class="node">
<title>Node20</title>
<g id="a_node20"><a xlink:href="euler_2equationOfState_8h.html" target="_top" xlink:title=" ">
<polygon fill="white" stroke="black" points="1405.29,-112.5 1405.29,-131.5 1541.29,-131.5 1541.29,-112.5 1405.29,-112.5"/>
<text text-anchor="middle" x="1473.29" y="-119.5" font-family="Helvetica,sans-Serif" font-size="10.00">src/euler/equationOfState.h</text>
</a>
</g>
</g>
<!-- Node1&#45;&gt;Node20 -->
<g id="edge39" class="edge">
<title>Node1&#45;&gt;Node20</title>
<path fill="none" stroke="midnightblue" d="M829.43,-174.43C927.04,-168.21 1180.24,-151.45 1391.29,-132 1395.71,-131.59 1400.27,-131.15 1404.85,-130.69"/>
<polygon fill="midnightblue" stroke="midnightblue" points="829.15,-170.94 819.39,-175.06 829.59,-177.92 829.15,-170.94"/>
</g>
<!-- Node21 -->
<g id="node21" class="node">
<title>Node21</title>
<g id="a_node21"><a xlink:href="euler_2equationOfState_8c.html" target="_top" xlink:title="Contains conversion functions between the different variable types.">
<polygon fill="white" stroke="black" points="1597.29,-112.5 1597.29,-131.5 1733.29,-131.5 1733.29,-112.5 1597.29,-112.5"/>
<text text-anchor="middle" x="1665.29" y="-119.5" font-family="Helvetica,sans-Serif" font-size="10.00">src/euler/equationOfState.c</text>
</a>
</g>
</g>
<!-- Node1&#45;&gt;Node21 -->
<g id="edge42" class="edge">
<title>Node1&#45;&gt;Node21</title>
<path fill="none" stroke="midnightblue" d="M829.41,-175.44C947.06,-170.81 1295.1,-155.95 1583.29,-132 1587.72,-131.63 1592.27,-131.22 1596.86,-130.78"/>
<polygon fill="midnightblue" stroke="midnightblue" points="829.25,-171.94 819.4,-175.83 829.53,-178.94 829.25,-171.94"/>
</g>
<!-- Node22 -->
<g id="node22" class="node">
<title>Node22</title>
<g id="a_node22"><a xlink:href="readInTools_8c.html" target="_top" xlink:title="Provides functions for reading data from the .ini parameter file.">
<polygon fill="white" stroke="black" points="1751.79,-112.5 1751.79,-131.5 1842.79,-131.5 1842.79,-112.5 1751.79,-112.5"/>
<text text-anchor="middle" x="1797.29" y="-119.5" font-family="Helvetica,sans-Serif" font-size="10.00">src/readInTools.c</text>
</a>
</g>
</g>
<!-- Node1&#45;&gt;Node22 -->
<g id="edge51" class="edge">
<title>Node1&#45;&gt;Node22</title>
<path fill="none" stroke="midnightblue" d="M829.85,-176.74C962.96,-175.56 1390.68,-168.94 1742.29,-132 1745.37,-131.68 1748.54,-131.29 1751.73,-130.87"/>
<polygon fill="midnightblue" stroke="midnightblue" points="829.66,-173.25 819.69,-176.83 829.72,-180.25 829.66,-173.25"/>
</g>
<!-- Node3 -->
<g id="node3" class="node">
<title>Node3</title>
<g id="a_node3"><a xlink:href="analyze_8c.html" target="_top" xlink:title="Contains functions for analyzing flow results.">
<polygon fill="white" stroke="black" points="877.29,-0.5 877.29,-19.5 951.29,-19.5 951.29,-0.5 877.29,-0.5"/>
<text text-anchor="middle" x="914.29" y="-7.5" font-family="Helvetica,sans-Serif" font-size="10.00">src/analyze.c</text>
</a>
</g>
</g>
<!-- Node2&#45;&gt;Node3 -->
<g id="edge2" class="edge">
<title>Node2&#45;&gt;Node3</title>
<path fill="none" stroke="midnightblue" d="M625.43,-56.65C626.73,-56.43 628.02,-56.21 629.29,-56 717.98,-41.17 822.41,-25.02 876.91,-16.68"/>
<polygon fill="midnightblue" stroke="midnightblue" points="624.59,-53.24 615.33,-58.38 625.77,-60.14 624.59,-53.24"/>
</g>
<!-- Node4 -->
<g id="node4" class="node">
<title>Node4</title>
<g id="a_node4"><a xlink:href="main_8c.html" target="_top" xlink:title="Contains the main function of ccfd">
<polygon fill="white" stroke="black" points="547.29,-0.5 547.29,-19.5 609.29,-19.5 609.29,-0.5 547.29,-0.5"/>
<text text-anchor="middle" x="578.29" y="-7.5" font-family="Helvetica,sans-Serif" font-size="10.00">src/main.c</text>
</a>
</g>
</g>
<!-- Node2&#45;&gt;Node4 -->
<g id="edge3" class="edge">
<title>Node2&#45;&gt;Node4</title>
<path fill="none" stroke="midnightblue" d="M578.29,-45.8C578.29,-36.91 578.29,-26.78 578.29,-19.75"/>
<polygon fill="midnightblue" stroke="midnightblue" points="574.79,-46.08 578.29,-56.08 581.79,-46.08 574.79,-46.08"/>
</g>
<!-- Node2&#45;&gt;Node5 -->
<g id="edge4" class="edge">
<title>Node2&#45;&gt;Node5</title>
<path fill="none" stroke="midnightblue" d="M625.69,-59.5C637.63,-58.23 650.42,-56.97 662.29,-56 945.36,-32.86 1018.65,-56.55 1300.29,-20 1303.54,-19.58 1306.91,-19.05 1310.27,-18.47"/>
<polygon fill="midnightblue" stroke="midnightblue" points="625.03,-56.05 615.47,-60.61 625.79,-63.01 625.03,-56.05"/>
</g>
<!-- Node2&#45;&gt;Node6 -->
<g id="edge5" class="edge">
<title>Node2&#45;&gt;Node6</title>
<path fill="none" stroke="midnightblue" d="M551.77,-51.86C531.56,-41.85 504.31,-28.35 486.76,-19.65"/>
<polygon fill="midnightblue" stroke="midnightblue" points="550.27,-55.02 560.78,-56.32 553.37,-48.75 550.27,-55.02"/>
</g>
<!-- Node7&#45;&gt;Node2 -->
<g id="edge7" class="edge">
<title>Node7&#45;&gt;Node2</title>
<path fill="none" stroke="midnightblue" d="M553.92,-103.57C560.11,-94.27 567.46,-83.25 572.46,-75.75"/>
<polygon fill="midnightblue" stroke="midnightblue" points="550.87,-101.82 548.24,-112.08 556.7,-105.7 550.87,-101.82"/>
</g>
<!-- Node7&#45;&gt;Node4 -->
<g id="edge22" class="edge">
<title>Node7&#45;&gt;Node4</title>
<path fill="none" stroke="midnightblue" d="M534.37,-102.71C529.77,-89.32 526.01,-70.95 532.29,-56 538.79,-40.55 553.47,-27.76 564.51,-19.81"/>
<polygon fill="midnightblue" stroke="midnightblue" points="531.18,-104.17 538.07,-112.22 537.71,-101.64 531.18,-104.17"/>
</g>
<!-- Node7&#45;&gt;Node6 -->
<g id="edge25" class="edge">
<title>Node7&#45;&gt;Node6</title>
<path fill="none" stroke="midnightblue" d="M530.98,-103.96C515.16,-80.12 487.02,-37.71 474.99,-19.59"/>
<polygon fill="midnightblue" stroke="midnightblue" points="528.12,-105.97 536.57,-112.37 533.95,-102.1 528.12,-105.97"/>
</g>
<!-- Node7&#45;&gt;Node8 -->
<g id="edge8" class="edge">
<title>Node7&#45;&gt;Node8</title>
<path fill="none" stroke="midnightblue" d="M502.92,-109.57C467.83,-99.38 417.27,-84.7 385.63,-75.52"/>
<polygon fill="midnightblue" stroke="midnightblue" points="502.24,-113.02 512.82,-112.44 504.19,-106.29 502.24,-113.02"/>
</g>
<!-- Node7&#45;&gt;Node9 -->
<g id="edge11" class="edge">
<title>Node7&#45;&gt;Node9</title>
<path fill="none" stroke="midnightblue" d="M567.03,-107.44C601.4,-88.61 659.74,-56.76 662.29,-56 759.74,-27.22 1063.36,-15.83 1186.55,-12.31"/>
<polygon fill="midnightblue" stroke="midnightblue" points="565.12,-104.49 558.03,-112.37 568.48,-110.63 565.12,-104.49"/>
</g>
<!-- Node7&#45;&gt;Node10 -->
<g id="edge13" class="edge">
<title>Node7&#45;&gt;Node10</title>
<path fill="none" stroke="midnightblue" d="M499.35,-118.58C409.03,-113.08 205.9,-98.33 184.29,-76 169.64,-60.85 173.11,-33.4 176.11,-19.52"/>
<polygon fill="midnightblue" stroke="midnightblue" points="499.34,-122.09 509.53,-119.19 499.76,-115.1 499.34,-122.09"/>
</g>
<!-- Node7&#45;&gt;Node11 -->
<g id="edge12" class="edge">
<title>Node7&#45;&gt;Node11</title>
<path fill="none" stroke="midnightblue" d="M585.35,-118.41C730.9,-109.66 1205.06,-81.15 1377.16,-70.8"/>
<polygon fill="midnightblue" stroke="midnightblue" points="584.82,-114.94 575.05,-119.03 585.24,-121.92 584.82,-114.94"/>
</g>
<!-- Node7&#45;&gt;Node12 -->
<g id="edge14" class="edge">
<title>Node7&#45;&gt;Node12</title>
<path fill="none" stroke="midnightblue" d="M585.43,-115.32C647.87,-107.03 767.05,-90.98 868.29,-76 871.37,-75.55 874.53,-75.07 877.72,-74.58"/>
<polygon fill="midnightblue" stroke="midnightblue" points="584.63,-111.89 575.18,-116.68 585.55,-118.83 584.63,-111.89"/>
</g>
<!-- Node7&#45;&gt;Node13 -->
<g id="edge15" class="edge">
<title>Node7&#45;&gt;Node13</title>
<path fill="none" stroke="midnightblue" d="M580.82,-109.57C615.16,-99.38 664.63,-84.7 695.59,-75.52"/>
<polygon fill="midnightblue" stroke="midnightblue" points="579.72,-106.24 571.13,-112.44 581.71,-112.95 579.72,-106.24"/>
</g>
<!-- Node7&#45;&gt;Node14 -->
<g id="edge16" class="edge">
<title>Node7&#45;&gt;Node14</title>
<path fill="none" stroke="midnightblue" d="M499.53,-113.38C442.96,-103.3 343.62,-85.59 285.41,-75.22"/>
<polygon fill="midnightblue" stroke="midnightblue" points="499.12,-116.86 509.58,-115.17 500.35,-109.97 499.12,-116.86"/>
</g>
<!-- Node7&#45;&gt;Node15 -->
<g id="edge21" class="edge">
<title>Node7&#45;&gt;Node15</title>
<path fill="none" stroke="midnightblue" d="M516.69,-107.59C472.98,-84.69 385.12,-38.67 348.7,-19.59"/>
<polygon fill="midnightblue" stroke="midnightblue" points="515.33,-110.83 525.81,-112.37 518.58,-104.63 515.33,-110.83"/>
</g>
<!-- Node7&#45;&gt;Node16 -->
<g id="edge23" class="edge">
<title>Node7&#45;&gt;Node16</title>
<path fill="none" stroke="midnightblue" d="M585.12,-113.44C633.72,-104.78 715.32,-89.97 785.29,-76 788.36,-75.39 791.56,-74.73 794.75,-74.07"/>
<polygon fill="midnightblue" stroke="midnightblue" points="584.2,-110.05 574.97,-115.25 585.43,-116.94 584.2,-110.05"/>
</g>
<!-- Node7&#45;&gt;Node17 -->
<g id="edge24" class="edge">
<title>Node7&#45;&gt;Node17</title>
<path fill="none" stroke="midnightblue" d="M499.53,-116.37C427.58,-108.53 277.78,-91.9 151.29,-76 146.59,-75.41 141.7,-74.78 136.8,-74.13"/>
<polygon fill="midnightblue" stroke="midnightblue" points="499.25,-119.86 509.57,-117.47 500.01,-112.91 499.25,-119.86"/>
</g>
<!-- Node8&#45;&gt;Node9 -->
<g id="edge9" class="edge">
<title>Node8&#45;&gt;Node9</title>
<path fill="none" stroke="midnightblue" d="M418.92,-61.17C584.74,-51.03 1032.96,-23.62 1186.7,-14.22"/>
<polygon fill="midnightblue" stroke="midnightblue" points="418.65,-57.68 408.88,-61.78 419.08,-64.67 418.65,-57.68"/>
</g>
<!-- Node8&#45;&gt;Node10 -->
<g id="edge10" class="edge">
<title>Node8&#45;&gt;Node10</title>
<path fill="none" stroke="midnightblue" d="M318.18,-53.44C284.62,-43.26 236.52,-28.66 206.37,-19.52"/>
<polygon fill="midnightblue" stroke="midnightblue" points="317.5,-56.89 328.09,-56.44 319.54,-50.19 317.5,-56.89"/>
</g>
<!-- Node14&#45;&gt;Node4 -->
<g id="edge19" class="edge">
<title>Node14&#45;&gt;Node4</title>
<path fill="none" stroke="midnightblue" d="M295.57,-55.83C404.31,-39.18 433.68,-39.46 538.29,-20 541.09,-19.48 543.99,-18.9 546.9,-18.3"/>
<polygon fill="midnightblue" stroke="midnightblue" points="294.85,-52.4 285.5,-57.39 295.92,-59.32 294.85,-52.4"/>
</g>
<!-- Node14&#45;&gt;Node6 -->
<g id="edge20" class="edge">
<title>Node14&#45;&gt;Node6</title>
<path fill="none" stroke="midnightblue" d="M285.49,-54.15C328.95,-43.95 393.13,-28.88 433.02,-19.52"/>
<polygon fill="midnightblue" stroke="midnightblue" points="284.67,-50.75 275.74,-56.44 286.27,-57.57 284.67,-50.75"/>
</g>
<!-- Node14&#45;&gt;Node10 -->
<g id="edge17" class="edge">
<title>Node14&#45;&gt;Node10</title>
<path fill="none" stroke="midnightblue" d="M221.83,-49.54C210.95,-39.91 197.35,-27.87 188.27,-19.83"/>
<polygon fill="midnightblue" stroke="midnightblue" points="219.68,-52.32 229.49,-56.32 224.32,-47.07 219.68,-52.32"/>
</g>
<!-- Node14&#45;&gt;Node15 -->
<g id="edge18" class="edge">
<title>Node14&#45;&gt;Node15</title>
<path fill="none" stroke="midnightblue" d="M263.1,-51.18C280.21,-41.24 302.76,-28.15 317.39,-19.65"/>
<polygon fill="midnightblue" stroke="midnightblue" points="261.13,-48.28 254.24,-56.32 264.64,-54.33 261.13,-48.28"/>
</g>
<!-- Node18&#45;&gt;Node3 -->
<g id="edge27" class="edge">
<title>Node18&#45;&gt;Node3</title>
<path fill="none" stroke="midnightblue" d="M1063.52,-106.95C1083.02,-93.84 1105.06,-73.71 1091.29,-56 1074.31,-34.16 998.24,-21.19 951.53,-15.14"/>
<polygon fill="midnightblue" stroke="midnightblue" points="1061.45,-104.12 1054.89,-112.44 1065.2,-110.03 1061.45,-104.12"/>
</g>
<!-- Node18&#45;&gt;Node4 -->
<g id="edge33" class="edge">
<title>Node18&#45;&gt;Node4</title>
<path fill="none" stroke="midnightblue" d="M1050.58,-103.24C1058.18,-88.79 1064.91,-68.77 1053.29,-56 1023.4,-23.14 710.12,-13.75 609.34,-11.57"/>
<polygon fill="midnightblue" stroke="midnightblue" points="1047.37,-101.79 1045.38,-112.2 1053.43,-105.3 1047.37,-101.79"/>
</g>
<!-- Node18&#45;&gt;Node5 -->
<g id="edge35" class="edge">
<title>Node18&#45;&gt;Node5</title>
<path fill="none" stroke="midnightblue" d="M1095.21,-118.46C1143.93,-114.36 1215.34,-103.69 1271.29,-76 1299.58,-62 1325.3,-34.03 1337.25,-19.78"/>
<polygon fill="midnightblue" stroke="midnightblue" points="1094.87,-114.98 1085.17,-119.24 1095.41,-121.96 1094.87,-114.98"/>
</g>
<!-- Node18&#45;&gt;Node6 -->
<g id="edge36" class="edge">
<title>Node18&#45;&gt;Node6</title>
<path fill="none" stroke="midnightblue" d="M1037.68,-101.85C1035.32,-86.83 1029.53,-66.74 1015.29,-56 972.86,-23.99 591.16,-25.44 538.29,-20 535.41,-19.7 532.46,-19.38 529.48,-19.05"/>
<polygon fill="midnightblue" stroke="midnightblue" points="1034.25,-102.58 1038.9,-112.1 1041.2,-101.76 1034.25,-102.58"/>
</g>
<!-- Node18&#45;&gt;Node9 -->
<g id="edge28" class="edge">
<title>Node18&#45;&gt;Node9</title>
<path fill="none" stroke="midnightblue" d="M1095.2,-117.13C1152.08,-111.89 1234.6,-100.24 1254.29,-76 1267.73,-59.46 1254.1,-33.12 1245.37,-19.61"/>
<polygon fill="midnightblue" stroke="midnightblue" points="1094.55,-113.67 1084.9,-118.03 1095.17,-120.64 1094.55,-113.67"/>
</g>
<!-- Node18&#45;&gt;Node12 -->
<g id="edge30" class="edge">
<title>Node18&#45;&gt;Node12</title>
<path fill="none" stroke="midnightblue" d="M1012.05,-108.1C990.75,-98.01 961.75,-84.27 943.27,-75.52"/>
<polygon fill="midnightblue" stroke="midnightblue" points="1010.69,-111.33 1021.23,-112.44 1013.69,-105 1010.69,-111.33"/>
</g>
<!-- Node18&#45;&gt;Node13 -->
<g id="edge31" class="edge">
<title>Node18&#45;&gt;Node13</title>
<path fill="none" stroke="midnightblue" d="M983.54,-111.44C924.15,-101.26 831.04,-85.3 774.05,-75.53"/>
<polygon fill="midnightblue" stroke="midnightblue" points="983.04,-114.91 993.49,-113.15 984.22,-108.01 983.04,-114.91"/>
</g>
<!-- Node18&#45;&gt;Node15 -->
<g id="edge32" class="edge">
<title>Node18&#45;&gt;Node15</title>
<path fill="none" stroke="midnightblue" d="M1029.31,-103.62C1019.34,-88.1 1002.47,-66.29 981.29,-56 864.93,0.51 529.05,-32.49 400.29,-20 393.18,-19.31 385.67,-18.45 378.33,-17.54"/>
<polygon fill="midnightblue" stroke="midnightblue" points="1026.41,-105.59 1034.6,-112.31 1032.39,-101.95 1026.41,-105.59"/>
</g>
<!-- Node18&#45;&gt;Node16 -->
<g id="edge34" class="edge">
<title>Node18&#45;&gt;Node16</title>
<path fill="none" stroke="midnightblue" d="M995.89,-109.94C955.59,-99.68 896.49,-84.63 860.03,-75.34"/>
<polygon fill="midnightblue" stroke="midnightblue" points="995.15,-113.37 1005.7,-112.44 996.87,-106.58 995.15,-113.37"/>
</g>
<!-- Node19 -->
<g id="node19" class="node">
<title>Node19</title>
<g id="a_node19"><a xlink:href="euler_2equation_8c.html" target="_top" xlink:title="Contains the function for initializing the physical constants.">
<polygon fill="white" stroke="black" points="1143.29,-56.5 1143.29,-75.5 1245.29,-75.5 1245.29,-56.5 1143.29,-56.5"/>
<text text-anchor="middle" x="1194.29" y="-63.5" font-family="Helvetica,sans-Serif" font-size="10.00">src/euler/equation.c</text>
</a>
</g>
</g>
<!-- Node18&#45;&gt;Node19 -->
<g id="edge29" class="edge">
<title>Node18&#45;&gt;Node19</title>
<path fill="none" stroke="midnightblue" d="M1073.63,-109.04C1102.79,-98.88 1143.93,-84.55 1169.85,-75.52"/>
<polygon fill="midnightblue" stroke="midnightblue" points="1072.15,-105.85 1063.85,-112.44 1074.45,-112.46 1072.15,-105.85"/>
</g>
<!-- Node20&#45;&gt;Node9 -->
<g id="edge40" class="edge">
<title>Node20&#45;&gt;Node9</title>
<path fill="none" stroke="midnightblue" d="M1492.88,-105.89C1508.41,-92.1 1525.49,-71.55 1512.29,-56 1508.73,-51.81 1370.39,-30.56 1292.04,-18.82"/>
<polygon fill="midnightblue" stroke="midnightblue" points="1490.5,-103.32 1485.07,-112.42 1494.99,-108.69 1490.5,-103.32"/>
</g>
<!-- Node20&#45;&gt;Node11 -->
<g id="edge41" class="edge">
<title>Node20&#45;&gt;Node11</title>
<path fill="none" stroke="midnightblue" d="M1462.46,-103.27C1456.82,-94.05 1450.18,-83.17 1445.64,-75.75"/>
<polygon fill="midnightblue" stroke="midnightblue" points="1459.64,-105.38 1467.84,-112.08 1465.62,-101.73 1459.64,-105.38"/>
</g>
</g>
</svg>
