<?xml version="1.0" encoding="UTF-8" standalone="no"?>
<!DOCTYPE svg PUBLIC "-//W3C//DTD SVG 1.1//EN"
 "http://www.w3.org/Graphics/SVG/1.1/DTD/svg11.dtd">
<!-- Generated by graphviz version 2.42.3 (0)
 -->
<!-- Title: src/main.h Pages: 1 -->
<svg width="1875pt" height="252pt"
 viewBox="0.00 0.00 1874.62 252.00" xmlns="http://www.w3.org/2000/svg" xmlns:xlink="http://www.w3.org/1999/xlink">
<g id="graph0" class="graph" transform="scale(1 1) rotate(0) translate(4 248)">
<title>src/main.h</title>
<polygon fill="white" stroke="transparent" points="-4,4 -4,-248 1870.62,-248 1870.62,4 -4,4"/>
<!-- Node1 -->
<g id="node1" class="node">
<title>Node1</title>
<g id="a_node1"><a xlink:title="Contains the global constants and definitions.">
<polygon fill="#bfbfbf" stroke="black" points="789.12,-224.5 789.12,-243.5 851.12,-243.5 851.12,-224.5 789.12,-224.5"/>
<text text-anchor="middle" x="820.12" y="-231.5" font-family="Helvetica,sans-Serif" font-size="10.00">src/main.h</text>
</a>
</g>
</g>
<!-- Node2 -->
<g id="node2" class="node">
<title>Node2</title>
<g id="a_node2"><a xlink:href="analyze_8h.html" target="_top" xlink:title="Contains the structure definitions of wing_t and recordPoint_t">
<polygon fill="white" stroke="black" points="695.12,-56.5 695.12,-75.5 769.12,-75.5 769.12,-56.5 695.12,-56.5"/>
<text text-anchor="middle" x="732.12" y="-63.5" font-family="Helvetica,sans-Serif" font-size="10.00">src/analyze.h</text>
</a>
</g>
</g>
<!-- Node1&#45;&gt;Node2 -->
<g id="edge1" class="edge">
<title>Node1&#45;&gt;Node2</title>
<path fill="none" stroke="midnightblue" d="M810.5,-214.86C791.62,-179.25 750.38,-101.45 736.66,-75.57"/>
<polygon fill="midnightblue" stroke="midnightblue" points="807.61,-216.88 815.39,-224.08 813.79,-213.6 807.61,-216.88"/>
</g>
<!-- Node5 -->
<g id="node5" class="node">
<title>Node5</title>
<g id="a_node5"><a xlink:href="output_8c.html" target="_top" xlink:title="Contains all functions used for writing flow solutions.">
<polygon fill="white" stroke="black" points="1507.12,-0.5 1507.12,-19.5 1575.12,-19.5 1575.12,-0.5 1507.12,-0.5"/>
<text text-anchor="middle" x="1541.12" y="-7.5" font-family="Helvetica,sans-Serif" font-size="10.00">src/output.c</text>
</a>
</g>
</g>
<!-- Node1&#45;&gt;Node5 -->
<g id="edge57" class="edge">
<title>Node1&#45;&gt;Node5</title>
<path fill="none" stroke="midnightblue" d="M861.63,-231.55C992.14,-226.27 1391.59,-204.42 1495.12,-132 1520.83,-114.01 1527.34,-105.47 1538.12,-76 1545.1,-56.9 1543.75,-32.53 1542.33,-19.74"/>
<polygon fill="midnightblue" stroke="midnightblue" points="861.13,-228.07 851.27,-231.96 861.4,-235.06 861.13,-228.07"/>
</g>
<!-- Node6 -->
<g id="node6" class="node">
<title>Node6</title>
<g id="a_node6"><a xlink:href="timeDiscretization_8c.html" target="_top" xlink:title="Contains the functions for performing the time stepping process.">
<polygon fill="white" stroke="black" points="578.12,-0.5 578.12,-19.5 698.12,-19.5 698.12,-0.5 578.12,-0.5"/>
<text text-anchor="middle" x="638.12" y="-7.5" font-family="Helvetica,sans-Serif" font-size="10.00">src/timeDiscretization.c</text>
</a>
</g>
</g>
<!-- Node1&#45;&gt;Node6 -->
<g id="edge61" class="edge">
<title>Node1&#45;&gt;Node6</title>
<path fill="none" stroke="midnightblue" d="M778.43,-231.84C626.89,-226.63 109.31,-199.9 16.12,-76 10.77,-68.9 10.06,-62.51 16.12,-56 25.62,-45.78 423.55,-22.82 577.85,-14.28"/>
<polygon fill="midnightblue" stroke="midnightblue" points="778.58,-235.35 788.69,-232.18 778.81,-228.35 778.58,-235.35"/>
</g>
<!-- Node7 -->
<g id="node7" class="node">
<title>Node7</title>
<g id="a_node7"><a xlink:href="boundary_8h.html" target="_top" xlink:title="Contains the structure definition of a boundary.">
<polygon fill="white" stroke="black" points="612.62,-168.5 612.62,-187.5 693.62,-187.5 693.62,-168.5 612.62,-168.5"/>
<text text-anchor="middle" x="653.12" y="-175.5" font-family="Helvetica,sans-Serif" font-size="10.00">src/boundary.h</text>
</a>
</g>
</g>
<!-- Node1&#45;&gt;Node7 -->
<g id="edge6" class="edge">
<title>Node1&#45;&gt;Node7</title>
<path fill="none" stroke="midnightblue" d="M783.95,-221.3C752.48,-211.13 707.62,-196.62 679.45,-187.52"/>
<polygon fill="midnightblue" stroke="midnightblue" points="783.06,-224.7 793.66,-224.44 785.22,-218.04 783.06,-224.7"/>
</g>
<!-- Node8 -->
<g id="node8" class="node">
<title>Node8</title>
<g id="a_node8"><a xlink:href="mesh_8h.html" target="_top" xlink:title="Contains the definitions of all structs for the mesh handling.">
<polygon fill="white" stroke="black" points="612.62,-112.5 612.62,-131.5 677.62,-131.5 677.62,-112.5 612.62,-112.5"/>
<text text-anchor="middle" x="645.12" y="-119.5" font-family="Helvetica,sans-Serif" font-size="10.00">src/mesh.h</text>
</a>
</g>
</g>
<!-- Node1&#45;&gt;Node8 -->
<g id="edge30" class="edge">
<title>Node1&#45;&gt;Node8</title>
<path fill="none" stroke="midnightblue" d="M797.86,-219.01C761.12,-195.92 688.88,-150.51 658.78,-131.59"/>
<polygon fill="midnightblue" stroke="midnightblue" points="796.06,-222.01 806.38,-224.37 799.78,-216.08 796.06,-222.01"/>
</g>
<!-- Node9 -->
<g id="node9" class="node">
<title>Node9</title>
<g id="a_node9"><a xlink:href="boundary_8c.html" target="_top" xlink:title="Contains the functions for initializing and applying boundary conditions.">
<polygon fill="white" stroke="black" points="787.62,-56.5 787.62,-75.5 868.62,-75.5 868.62,-56.5 787.62,-56.5"/>
<text text-anchor="middle" x="828.12" y="-63.5" font-family="Helvetica,sans-Serif" font-size="10.00">src/boundary.c</text>
</a>
</g>
</g>
<!-- Node1&#45;&gt;Node9 -->
<g id="edge42" class="edge">
<title>Node1&#45;&gt;Node9</title>
<path fill="none" stroke="midnightblue" d="M821.04,-213.93C822.77,-177.92 826.47,-101.23 827.7,-75.57"/>
<polygon fill="midnightblue" stroke="midnightblue" points="817.53,-213.92 820.55,-224.08 824.52,-214.26 817.53,-213.92"/>
</g>
<!-- Node10 -->
<g id="node10" class="node">
<title>Node10</title>
<g id="a_node10"><a xlink:href="exactFunction_8c.html" target="_top" xlink:title="Contains the exact function evaluation function.">
<polygon fill="white" stroke="black" points="575.12,-56.5 575.12,-75.5 677.12,-75.5 677.12,-56.5 575.12,-56.5"/>
<text text-anchor="middle" x="626.12" y="-63.5" font-family="Helvetica,sans-Serif" font-size="10.00">src/exactFunction.c</text>
</a>
</g>
</g>
<!-- Node1&#45;&gt;Node10 -->
<g id="edge50" class="edge">
<title>Node1&#45;&gt;Node10</title>
<path fill="none" stroke="midnightblue" d="M778.8,-230.47C722.14,-226.05 624.84,-214.69 603.12,-188 575.58,-154.17 606.54,-97.42 620.25,-75.76"/>
<polygon fill="midnightblue" stroke="midnightblue" points="778.65,-233.97 788.88,-231.22 779.17,-226.99 778.65,-233.97"/>
</g>
<!-- Node11 -->
<g id="node11" class="node">
<title>Node11</title>
<g id="a_node11"><a xlink:href="finiteVolume_8c.html" target="_top" xlink:title="Finite volume time derivative functions.">
<polygon fill="white" stroke="black" points="1086.62,-56.5 1086.62,-75.5 1181.62,-75.5 1181.62,-56.5 1086.62,-56.5"/>
<text text-anchor="middle" x="1134.12" y="-63.5" font-family="Helvetica,sans-Serif" font-size="10.00">src/finiteVolume.c</text>
</a>
</g>
</g>
<!-- Node1&#45;&gt;Node11 -->
<g id="edge51" class="edge">
<title>Node1&#45;&gt;Node11</title>
<path fill="none" stroke="midnightblue" d="M851.94,-220.71C873.24,-212.18 901.73,-200.21 926.12,-188 1001.95,-150.03 1088.31,-96.19 1120.81,-75.53"/>
<polygon fill="midnightblue" stroke="midnightblue" points="850.42,-217.55 842.41,-224.48 852.99,-224.05 850.42,-217.55"/>
</g>
<!-- Node12 -->
<g id="node12" class="node">
<title>Node12</title>
<g id="a_node12"><a xlink:href="fluxCalculation_8c.html" target="_top" xlink:title="Contains the flux calculation functions.">
<polygon fill="white" stroke="black" points="187.62,-0.5 187.62,-19.5 292.62,-19.5 292.62,-0.5 187.62,-0.5"/>
<text text-anchor="middle" x="240.12" y="-7.5" font-family="Helvetica,sans-Serif" font-size="10.00">src/fluxCalculation.c</text>
</a>
</g>
</g>
<!-- Node1&#45;&gt;Node12 -->
<g id="edge52" class="edge">
<title>Node1&#45;&gt;Node12</title>
<path fill="none" stroke="midnightblue" d="M778.65,-231.46C659.99,-226.81 320.64,-211.77 212.12,-188 142.6,-172.78 121.62,-171.02 62.12,-132 27.47,-109.28 -18.25,-87.97 8.12,-56 30.4,-28.98 126.17,-17.98 187.48,-13.66"/>
<polygon fill="midnightblue" stroke="midnightblue" points="778.65,-234.96 788.78,-231.85 778.92,-227.97 778.65,-234.96"/>
</g>
<!-- Node13 -->
<g id="node13" class="node">
<title>Node13</title>
<g id="a_node13"><a xlink:href="linearSolver_8h.html" target="_top" xlink:title=" ">
<polygon fill="white" stroke="black" points="389.12,-56.5 389.12,-75.5 481.12,-75.5 481.12,-56.5 389.12,-56.5"/>
<text text-anchor="middle" x="435.12" y="-63.5" font-family="Helvetica,sans-Serif" font-size="10.00">src/linearSolver.h</text>
</a>
</g>
</g>
<!-- Node1&#45;&gt;Node13 -->
<g id="edge53" class="edge">
<title>Node1&#45;&gt;Node13</title>
<path fill="none" stroke="midnightblue" d="M778.76,-230.72C731.3,-226.8 652.06,-216.26 590.12,-188 526.14,-158.81 464.76,-98.25 443.22,-75.7"/>
<polygon fill="midnightblue" stroke="midnightblue" points="778.72,-234.22 788.96,-231.49 779.25,-227.24 778.72,-234.22"/>
</g>
<!-- Node14 -->
<g id="node14" class="node">
<title>Node14</title>
<g id="a_node14"><a xlink:href="linearSolver_8c.html" target="_top" xlink:title="Contains the functions for solving the linear system of equations during implicit calculations.">
<polygon fill="white" stroke="black" points="889.12,-0.5 889.12,-19.5 981.12,-19.5 981.12,-0.5 889.12,-0.5"/>
<text text-anchor="middle" x="935.12" y="-7.5" font-family="Helvetica,sans-Serif" font-size="10.00">src/linearSolver.c</text>
</a>
</g>
</g>
<!-- Node1&#45;&gt;Node14 -->
<g id="edge55" class="edge">
<title>Node1&#45;&gt;Node14</title>
<path fill="none" stroke="midnightblue" d="M861.38,-232.3C937.53,-230.2 1104.83,-221.77 1241.12,-188 1371.61,-155.67 1446.68,-187.28 1522.12,-76 1527.1,-68.64 1528.16,-62.52 1522.12,-56 1503.8,-36.22 1116.91,-18.48 981.46,-12.85"/>
<polygon fill="midnightblue" stroke="midnightblue" points="861.16,-228.81 851.25,-232.56 861.34,-235.8 861.16,-228.81"/>
</g>
<!-- Node15 -->
<g id="node15" class="node">
<title>Node15</title>
<g id="a_node15"><a xlink:href="initialCondition_8c.html" target="_top" xlink:title="Functions involving the initialization and application of initial conditions.">
<polygon fill="white" stroke="black" points="963.62,-56.5 963.62,-75.5 1068.62,-75.5 1068.62,-56.5 963.62,-56.5"/>
<text text-anchor="middle" x="1016.12" y="-63.5" font-family="Helvetica,sans-Serif" font-size="10.00">src/initialCondition.c</text>
</a>
</g>
</g>
<!-- Node1&#45;&gt;Node15 -->
<g id="edge54" class="edge">
<title>Node1&#45;&gt;Node15</title>
<path fill="none" stroke="midnightblue" d="M845.65,-219.38C876.99,-201.88 930.7,-169.27 969.12,-132 987.31,-114.35 1003.39,-88.94 1011.17,-75.73"/>
<polygon fill="midnightblue" stroke="midnightblue" points="843.75,-216.43 836.68,-224.32 847.13,-222.56 843.75,-216.43"/>
</g>
<!-- Node16 -->
<g id="node16" class="node">
<title>Node16</title>
<g id="a_node16"><a xlink:href="mesh_8c.html" target="_top" xlink:title="Contains all the functions for reading and creating meshes.">
<polygon fill="white" stroke="black" points="1199.62,-56.5 1199.62,-75.5 1264.62,-75.5 1264.62,-56.5 1199.62,-56.5"/>
<text text-anchor="middle" x="1232.12" y="-63.5" font-family="Helvetica,sans-Serif" font-size="10.00">src/mesh.c</text>
</a>
</g>
</g>
<!-- Node1&#45;&gt;Node16 -->
<g id="edge56" class="edge">
<title>Node1&#45;&gt;Node16</title>
<path fill="none" stroke="midnightblue" d="M859.28,-221.52C887.34,-213 925.88,-200.71 959.12,-188 1057.42,-150.42 1171.48,-96.35 1214.5,-75.58"/>
<polygon fill="midnightblue" stroke="midnightblue" points="858.01,-218.24 849.44,-224.48 860.03,-224.94 858.01,-218.24"/>
</g>
<!-- Node17 -->
<g id="node17" class="node">
<title>Node17</title>
<g id="a_node17"><a xlink:href="reconstruction_8c.html" target="_top" xlink:title="Contains the reconstruction and limiter functions.">
<polygon fill="white" stroke="black" points="25.62,-56.5 25.62,-75.5 128.62,-75.5 128.62,-56.5 25.62,-56.5"/>
<text text-anchor="middle" x="77.12" y="-63.5" font-family="Helvetica,sans-Serif" font-size="10.00">src/reconstruction.c</text>
</a>
</g>
</g>
<!-- Node1&#45;&gt;Node17 -->
<g id="edge59" class="edge">
<title>Node1&#45;&gt;Node17</title>
<path fill="none" stroke="midnightblue" d="M778.62,-229.35C715.73,-223.37 592.75,-209.9 490.12,-188 339.96,-155.95 164.74,-97.39 101.46,-75.53"/>
<polygon fill="midnightblue" stroke="midnightblue" points="778.63,-232.87 788.91,-230.31 779.28,-225.9 778.63,-232.87"/>
</g>
<!-- Node18 -->
<g id="node18" class="node">
<title>Node18</title>
<g id="a_node18"><a xlink:href="source_8c.html" target="_top" xlink:title="Contains the functions for initializing and evaluating the source term.">
<polygon fill="white" stroke="black" points="223.62,-56.5 223.62,-75.5 294.62,-75.5 294.62,-56.5 223.62,-56.5"/>
<text text-anchor="middle" x="259.12" y="-63.5" font-family="Helvetica,sans-Serif" font-size="10.00">src/source.c</text>
</a>
</g>
</g>
<!-- Node1&#45;&gt;Node18 -->
<g id="edge60" class="edge">
<title>Node1&#45;&gt;Node18</title>
<path fill="none" stroke="midnightblue" d="M778.74,-228.93C725.71,-223.05 631.29,-210.37 553.12,-188 444.07,-156.8 320.64,-97.72 276.19,-75.63"/>
<polygon fill="midnightblue" stroke="midnightblue" points="778.46,-232.42 788.78,-230.01 779.22,-225.46 778.46,-232.42"/>
</g>
<!-- Node19 -->
<g id="node19" class="node">
<title>Node19</title>
<g id="a_node19"><a xlink:href="readInTools_8h.html" target="_top" xlink:title=" ">
<polygon fill="white" stroke="black" points="1247.62,-112.5 1247.62,-131.5 1338.62,-131.5 1338.62,-112.5 1247.62,-112.5"/>
<text text-anchor="middle" x="1293.12" y="-119.5" font-family="Helvetica,sans-Serif" font-size="10.00">src/readInTools.h</text>
</a>
</g>
</g>
<!-- Node1&#45;&gt;Node19 -->
<g id="edge31" class="edge">
<title>Node1&#45;&gt;Node19</title>
<path fill="none" stroke="midnightblue" d="M861.24,-231.08C948.14,-226.56 1147.64,-213.66 1210.12,-188 1241.95,-174.93 1271.79,-146 1285.4,-131.56"/>
<polygon fill="midnightblue" stroke="midnightblue" points="861.02,-227.58 851.21,-231.59 861.38,-234.57 861.02,-227.58"/>
</g>
<!-- Node21 -->
<g id="node21" class="node">
<title>Node21</title>
<g id="a_node21"><a xlink:href="equationOfState_8h.html" target="_top" xlink:title=" ">
<polygon fill="white" stroke="black" points="848.12,-112.5 848.12,-131.5 960.12,-131.5 960.12,-112.5 848.12,-112.5"/>
<text text-anchor="middle" x="904.12" y="-119.5" font-family="Helvetica,sans-Serif" font-size="10.00">src/equationOfState.h</text>
</a>
</g>
</g>
<!-- Node1&#45;&gt;Node21 -->
<g id="edge43" class="edge">
<title>Node1&#45;&gt;Node21</title>
<path fill="none" stroke="midnightblue" d="M832.89,-216.27C851.05,-192.49 883.66,-149.79 897.56,-131.59"/>
<polygon fill="midnightblue" stroke="midnightblue" points="830,-214.3 826.71,-224.37 835.56,-218.54 830,-214.3"/>
</g>
<!-- Node22 -->
<g id="node22" class="node">
<title>Node22</title>
<g id="a_node22"><a xlink:href="equationOfState_8c.html" target="_top" xlink:title="Contains conversion functions between the different variable types.">
<polygon fill="white" stroke="black" points="1645.12,-168.5 1645.12,-187.5 1757.12,-187.5 1757.12,-168.5 1645.12,-168.5"/>
<text text-anchor="middle" x="1701.12" y="-175.5" font-family="Helvetica,sans-Serif" font-size="10.00">src/equationOfState.c</text>
</a>
</g>
</g>
<!-- Node1&#45;&gt;Node22 -->
<g id="edge49" class="edge">
<title>Node1&#45;&gt;Node22</title>
<path fill="none" stroke="midnightblue" d="M861.67,-231.76C981.35,-227.95 1337.03,-215.03 1631.12,-188 1635.63,-187.59 1640.3,-187.1 1644.99,-186.58"/>
<polygon fill="midnightblue" stroke="midnightblue" points="861.37,-228.27 851.49,-232.08 861.59,-235.26 861.37,-228.27"/>
</g>
<!-- Node23 -->
<g id="node23" class="node">
<title>Node23</title>
<g id="a_node23"><a xlink:href="readInTools_8c.html" target="_top" xlink:title="Provides functions for reading data from the .ini parameter file.">
<polygon fill="white" stroke="black" points="1775.62,-168.5 1775.62,-187.5 1866.62,-187.5 1866.62,-168.5 1775.62,-168.5"/>
<text text-anchor="middle" x="1821.12" y="-175.5" font-family="Helvetica,sans-Serif" font-size="10.00">src/readInTools.c</text>
</a>
</g>
</g>
<!-- Node1&#45;&gt;Node23 -->
<g id="edge58" class="edge">
<title>Node1&#45;&gt;Node23</title>
<path fill="none" stroke="midnightblue" d="M861.32,-232.72C993.32,-231.48 1417.45,-224.7 1766.12,-188 1769.2,-187.68 1772.36,-187.29 1775.55,-186.87"/>
<polygon fill="midnightblue" stroke="midnightblue" points="861.22,-229.23 851.25,-232.81 861.28,-236.22 861.22,-229.23"/>
</g>
<!-- Node3 -->
<g id="node3" class="node">
<title>Node3</title>
<g id="a_node3"><a xlink:href="analyze_8c.html" target="_top" xlink:title="Contains functions for analyzing flow results.">
<polygon fill="white" stroke="black" points="1185.12,-0.5 1185.12,-19.5 1259.12,-19.5 1259.12,-0.5 1185.12,-0.5"/>
<text text-anchor="middle" x="1222.12" y="-7.5" font-family="Helvetica,sans-Serif" font-size="10.00">src/analyze.c</text>
</a>
</g>
</g>
<!-- Node2&#45;&gt;Node3 -->
<g id="edge2" class="edge">
<title>Node2&#45;&gt;Node3</title>
<path fill="none" stroke="midnightblue" d="M779.49,-55.92C935.84,-33.15 1109.98,-19.1 1184.84,-13.61"/>
<polygon fill="midnightblue" stroke="midnightblue" points="778.61,-52.52 769.22,-57.44 779.63,-59.44 778.61,-52.52"/>
</g>
<!-- Node4 -->
<g id="node4" class="node">
<title>Node4</title>
<g id="a_node4"><a xlink:href="main_8c.html" target="_top" xlink:title="Contains the main function of ccfd">
<polygon fill="white" stroke="black" points="404.12,-0.5 404.12,-19.5 466.12,-19.5 466.12,-0.5 404.12,-0.5"/>
<text text-anchor="middle" x="435.12" y="-7.5" font-family="Helvetica,sans-Serif" font-size="10.00">src/main.c</text>
</a>
</g>
</g>
<!-- Node2&#45;&gt;Node4 -->
<g id="edge3" class="edge">
<title>Node2&#45;&gt;Node4</title>
<path fill="none" stroke="midnightblue" d="M684.91,-55.8C600.11,-39.96 512.17,-24.45 466.45,-16.45"/>
<polygon fill="midnightblue" stroke="midnightblue" points="684.5,-59.28 694.97,-57.68 685.78,-52.4 684.5,-59.28"/>
</g>
<!-- Node2&#45;&gt;Node5 -->
<g id="edge4" class="edge">
<title>Node2&#45;&gt;Node5</title>
<path fill="none" stroke="midnightblue" d="M779.48,-56.04C941.7,-36.88 1380.94,-17.67 1506.94,-12.4"/>
<polygon fill="midnightblue" stroke="midnightblue" points="778.7,-52.61 769.2,-57.3 779.56,-59.56 778.7,-52.61"/>
</g>
<!-- Node2&#45;&gt;Node6 -->
<g id="edge5" class="edge">
<title>Node2&#45;&gt;Node6</title>
<path fill="none" stroke="midnightblue" d="M708.06,-51.18C690.76,-41.24 667.97,-28.15 653.18,-19.65"/>
<polygon fill="midnightblue" stroke="midnightblue" points="706.6,-54.38 717.01,-56.32 710.09,-48.31 706.6,-54.38"/>
</g>
<!-- Node7&#45;&gt;Node2 -->
<g id="edge7" class="edge">
<title>Node7&#45;&gt;Node2</title>
<path fill="none" stroke="midnightblue" d="M665.57,-160.16C671.78,-151.73 679.38,-141.35 686.12,-132 700.5,-112.03 717.12,-88.41 725.91,-75.86"/>
<polygon fill="midnightblue" stroke="midnightblue" points="662.61,-158.28 659.49,-168.4 668.24,-162.44 662.61,-158.28"/>
</g>
<!-- Node7&#45;&gt;Node4 -->
<g id="edge29" class="edge">
<title>Node7&#45;&gt;Node4</title>
<path fill="none" stroke="midnightblue" d="M602.24,-173.04C497.21,-163.71 262.2,-136.4 214.12,-76 208.58,-69.05 208.49,-62.88 214.12,-56 237.71,-27.12 348.57,-16.3 403.75,-12.66"/>
<polygon fill="midnightblue" stroke="midnightblue" points="602.02,-176.54 612.29,-173.92 602.63,-169.56 602.02,-176.54"/>
</g>
<!-- Node7&#45;&gt;Node8 -->
<g id="edge8" class="edge">
<title>Node7&#45;&gt;Node8</title>
<path fill="none" stroke="midnightblue" d="M643.91,-158.4C641.91,-149.36 640.8,-138.94 641.28,-131.75"/>
<polygon fill="midnightblue" stroke="midnightblue" points="640.56,-159.4 646.63,-168.08 647.3,-157.51 640.56,-159.4"/>
</g>
<!-- Node7&#45;&gt;Node9 -->
<g id="edge27" class="edge">
<title>Node7&#45;&gt;Node9</title>
<path fill="none" stroke="midnightblue" d="M675.38,-163.01C712.11,-139.92 784.35,-94.51 814.45,-75.59"/>
<polygon fill="midnightblue" stroke="midnightblue" points="673.45,-160.08 666.85,-168.37 677.18,-166.01 673.45,-160.08"/>
</g>
<!-- Node7&#45;&gt;Node12 -->
<g id="edge28" class="edge">
<title>Node7&#45;&gt;Node12</title>
<path fill="none" stroke="midnightblue" d="M602.23,-174.57C512.74,-169.7 331.14,-157.01 273.12,-132 237.48,-116.64 222.55,-111.16 206.12,-76 196.52,-55.46 216.7,-32.06 229.9,-19.71"/>
<polygon fill="midnightblue" stroke="midnightblue" points="602.24,-178.07 612.42,-175.11 602.62,-171.08 602.24,-178.07"/>
</g>
<!-- Node8&#45;&gt;Node2 -->
<g id="edge10" class="edge">
<title>Node8&#45;&gt;Node2</title>
<path fill="none" stroke="midnightblue" d="M667.83,-106.9C683.79,-97 704.61,-84.07 718.17,-75.65"/>
<polygon fill="midnightblue" stroke="midnightblue" points="665.75,-104.08 659.09,-112.32 669.44,-110.02 665.75,-104.08"/>
</g>
<!-- Node8&#45;&gt;Node4 -->
<g id="edge22" class="edge">
<title>Node8&#45;&gt;Node4</title>
<path fill="none" stroke="midnightblue" d="M601.81,-120.15C534.09,-117.8 407.98,-109 380.12,-76 363.04,-55.78 396.74,-32.06 418.55,-19.62"/>
<polygon fill="midnightblue" stroke="midnightblue" points="602.04,-123.66 612.15,-120.47 602.26,-116.66 602.04,-123.66"/>
</g>
<!-- Node8&#45;&gt;Node6 -->
<g id="edge26" class="edge">
<title>Node8&#45;&gt;Node6</title>
<path fill="none" stroke="midnightblue" d="M602.55,-115.66C577.83,-110.14 548.59,-98.89 533.12,-76 513.91,-47.58 559.73,-29.29 596.79,-19.58"/>
<polygon fill="midnightblue" stroke="midnightblue" points="601.97,-119.12 612.47,-117.64 603.34,-112.25 601.97,-119.12"/>
</g>
<!-- Node8&#45;&gt;Node7 -->
<g id="edge9" class="edge">
<title>Node8&#45;&gt;Node7</title>
<path fill="none" stroke="midnightblue" d="M654.28,-141.4C656.29,-150.41 657.42,-160.85 656.96,-168.08"/>
<polygon fill="midnightblue" stroke="midnightblue" points="657.64,-140.42 651.54,-131.75 650.9,-142.33 657.64,-140.42"/>
</g>
<!-- Node8&#45;&gt;Node9 -->
<g id="edge11" class="edge">
<title>Node8&#45;&gt;Node9</title>
<path fill="none" stroke="midnightblue" d="M683.86,-109.57C718.38,-99.38 768.12,-84.7 799.26,-75.52"/>
<polygon fill="midnightblue" stroke="midnightblue" points="682.71,-106.26 674.11,-112.44 684.7,-112.97 682.71,-106.26"/>
</g>
<!-- Node8&#45;&gt;Node10 -->
<g id="edge12" class="edge">
<title>Node8&#45;&gt;Node10</title>
<path fill="none" stroke="midnightblue" d="M638.57,-102.4C635.39,-93.36 631.72,-82.94 629.2,-75.75"/>
<polygon fill="midnightblue" stroke="midnightblue" points="635.36,-103.81 641.98,-112.08 641.96,-101.49 635.36,-103.81"/>
</g>
<!-- Node8&#45;&gt;Node11 -->
<g id="edge13" class="edge">
<title>Node8&#45;&gt;Node11</title>
<path fill="none" stroke="midnightblue" d="M688.05,-117.28C765.8,-110.39 935.01,-94.61 1077.12,-76 1080.2,-75.6 1083.37,-75.16 1086.56,-74.7"/>
<polygon fill="midnightblue" stroke="midnightblue" points="687.35,-113.83 677.7,-118.2 687.97,-120.81 687.35,-113.83"/>
</g>
<!-- Node8&#45;&gt;Node12 -->
<g id="edge14" class="edge">
<title>Node8&#45;&gt;Node12</title>
<path fill="none" stroke="midnightblue" d="M602.45,-117.87C547.94,-112.99 451.18,-101.37 372.12,-76 326.88,-61.48 277.69,-33.75 254.18,-19.67"/>
<polygon fill="midnightblue" stroke="midnightblue" points="602.19,-121.36 612.45,-118.73 602.79,-114.39 602.19,-121.36"/>
</g>
<!-- Node8&#45;&gt;Node13 -->
<g id="edge15" class="edge">
<title>Node8&#45;&gt;Node13</title>
<path fill="none" stroke="midnightblue" d="M602.41,-110.02C562.8,-99.83 504.66,-84.88 468.39,-75.56"/>
<polygon fill="midnightblue" stroke="midnightblue" points="601.75,-113.46 612.3,-112.56 603.49,-106.68 601.75,-113.46"/>
</g>
<!-- Node8&#45;&gt;Node14 -->
<g id="edge21" class="edge">
<title>Node8&#45;&gt;Node14</title>
<path fill="none" stroke="midnightblue" d="M610.39,-108.67C581.44,-96.54 547.66,-76.85 566.12,-56 587.21,-32.17 794.87,-18.35 889.07,-13.26"/>
<polygon fill="midnightblue" stroke="midnightblue" points="609.36,-112.03 619.95,-112.49 611.96,-105.53 609.36,-112.03"/>
</g>
<!-- Node8&#45;&gt;Node15 -->
<g id="edge20" class="edge">
<title>Node8&#45;&gt;Node15</title>
<path fill="none" stroke="midnightblue" d="M687.68,-114.8C755.85,-104.88 889.37,-85.45 963.45,-74.67"/>
<polygon fill="midnightblue" stroke="midnightblue" points="687.11,-111.35 677.72,-116.26 688.12,-118.28 687.11,-111.35"/>
</g>
<!-- Node8&#45;&gt;Node16 -->
<g id="edge23" class="edge">
<title>Node8&#45;&gt;Node16</title>
<path fill="none" stroke="midnightblue" d="M687.91,-119.34C780.12,-115.36 1004.27,-103.47 1190.12,-76 1193.07,-75.56 1196.12,-75.04 1199.17,-74.48"/>
<polygon fill="midnightblue" stroke="midnightblue" points="687.68,-115.85 677.84,-119.77 687.98,-122.84 687.68,-115.85"/>
</g>
<!-- Node8&#45;&gt;Node17 -->
<g id="edge24" class="edge">
<title>Node8&#45;&gt;Node17</title>
<path fill="none" stroke="midnightblue" d="M602.55,-116.95C500.09,-107.21 239.99,-82.48 128.8,-71.91"/>
<polygon fill="midnightblue" stroke="midnightblue" points="602.25,-120.44 612.54,-117.9 602.91,-113.47 602.25,-120.44"/>
</g>
<!-- Node8&#45;&gt;Node18 -->
<g id="edge25" class="edge">
<title>Node8&#45;&gt;Node18</title>
<path fill="none" stroke="midnightblue" d="M602.52,-115.92C538.64,-108.16 414.31,-92.5 309.12,-76 304.5,-75.28 299.65,-74.47 294.86,-73.64"/>
<polygon fill="midnightblue" stroke="midnightblue" points="602.26,-119.41 612.61,-117.14 603.1,-112.46 602.26,-119.41"/>
</g>
<!-- Node13&#45;&gt;Node4 -->
<g id="edge18" class="edge">
<title>Node13&#45;&gt;Node4</title>
<path fill="none" stroke="midnightblue" d="M435.12,-45.8C435.12,-36.91 435.12,-26.78 435.12,-19.75"/>
<polygon fill="midnightblue" stroke="midnightblue" points="431.62,-46.08 435.12,-56.08 438.62,-46.08 431.62,-46.08"/>
</g>
<!-- Node13&#45;&gt;Node6 -->
<g id="edge19" class="edge">
<title>Node13&#45;&gt;Node6</title>
<path fill="none" stroke="midnightblue" d="M477.11,-53.83C515.44,-43.63 571.27,-28.78 606.1,-19.52"/>
<polygon fill="midnightblue" stroke="midnightblue" points="476.05,-50.49 467.28,-56.44 477.85,-57.26 476.05,-50.49"/>
</g>
<!-- Node13&#45;&gt;Node12 -->
<g id="edge16" class="edge">
<title>Node13&#45;&gt;Node12</title>
<path fill="none" stroke="midnightblue" d="M394.31,-53.7C357.5,-43.51 304.19,-28.74 270.87,-19.52"/>
<polygon fill="midnightblue" stroke="midnightblue" points="393.65,-57.15 404.22,-56.44 395.52,-50.4 393.65,-57.15"/>
</g>
<!-- Node13&#45;&gt;Node14 -->
<g id="edge17" class="edge">
<title>Node13&#45;&gt;Node14</title>
<path fill="none" stroke="midnightblue" d="M491.44,-58.92C591.23,-48.14 797.18,-25.9 889.09,-15.97"/>
<polygon fill="midnightblue" stroke="midnightblue" points="490.83,-55.46 481.26,-60.02 491.58,-62.42 490.83,-55.46"/>
</g>
<!-- Node19&#45;&gt;Node3 -->
<g id="edge32" class="edge">
<title>Node19&#45;&gt;Node3</title>
<path fill="none" stroke="midnightblue" d="M1333.94,-109.24C1365.45,-98.05 1400.91,-79.45 1383.12,-56 1368.2,-36.35 1302.1,-22.95 1259.37,-16.17"/>
<polygon fill="midnightblue" stroke="midnightblue" points="1332.71,-105.97 1324.35,-112.48 1334.95,-112.6 1332.71,-105.97"/>
</g>
<!-- Node19&#45;&gt;Node4 -->
<g id="edge38" class="edge">
<title>Node19&#45;&gt;Node4</title>
<path fill="none" stroke="midnightblue" d="M1292.81,-101.85C1291.45,-86.84 1286.92,-66.75 1273.12,-56 1211.32,-7.87 647.3,-24.62 569.12,-20 533.85,-17.91 493.4,-15.15 466.25,-13.23"/>
<polygon fill="midnightblue" stroke="midnightblue" points="1289.33,-102.3 1293.33,-112.1 1296.32,-101.94 1289.33,-102.3"/>
</g>
<!-- Node19&#45;&gt;Node5 -->
<g id="edge40" class="edge">
<title>Node19&#45;&gt;Node5</title>
<path fill="none" stroke="midnightblue" d="M1348.77,-116.65C1408.22,-110.89 1497.27,-98.7 1522.12,-76 1538.26,-61.25 1540.98,-33.62 1541.25,-19.61"/>
<polygon fill="midnightblue" stroke="midnightblue" points="1348.4,-113.17 1338.77,-117.59 1349.05,-120.14 1348.4,-113.17"/>
</g>
<!-- Node19&#45;&gt;Node6 -->
<g id="edge41" class="edge">
<title>Node19&#45;&gt;Node6</title>
<path fill="none" stroke="midnightblue" d="M1304.49,-103.16C1312.15,-88.66 1318.9,-68.61 1307.12,-56 1296.77,-44.93 860.55,-22.09 698.18,-13.96"/>
<polygon fill="midnightblue" stroke="midnightblue" points="1301.26,-101.75 1299.26,-112.15 1307.31,-105.26 1301.26,-101.75"/>
</g>
<!-- Node19&#45;&gt;Node9 -->
<g id="edge33" class="edge">
<title>Node19&#45;&gt;Node9</title>
<path fill="none" stroke="midnightblue" d="M1237.29,-114.52C1142.53,-103.51 952.37,-81.43 868.94,-71.74"/>
<polygon fill="midnightblue" stroke="midnightblue" points="1236.92,-118 1247.26,-115.67 1237.73,-111.04 1236.92,-118"/>
</g>
<!-- Node19&#45;&gt;Node11 -->
<g id="edge35" class="edge">
<title>Node19&#45;&gt;Node11</title>
<path fill="none" stroke="midnightblue" d="M1258.29,-109.17C1228.35,-99 1185.9,-84.59 1159.19,-75.52"/>
<polygon fill="midnightblue" stroke="midnightblue" points="1257.33,-112.54 1267.92,-112.44 1259.58,-105.91 1257.33,-112.54"/>
</g>
<!-- Node19&#45;&gt;Node14 -->
<g id="edge37" class="edge">
<title>Node19&#45;&gt;Node14</title>
<path fill="none" stroke="midnightblue" d="M1317.3,-106.88C1337.33,-93.46 1360.24,-72.87 1345.12,-56 1321.16,-29.27 1083.23,-16.81 981.19,-12.66"/>
<polygon fill="midnightblue" stroke="midnightblue" points="1315.29,-104.02 1308.74,-112.34 1319.05,-109.92 1315.29,-104.02"/>
</g>
<!-- Node19&#45;&gt;Node15 -->
<g id="edge36" class="edge">
<title>Node19&#45;&gt;Node15</title>
<path fill="none" stroke="midnightblue" d="M1239.12,-110.47C1186.77,-100.27 1108.34,-84.98 1059.8,-75.52"/>
<polygon fill="midnightblue" stroke="midnightblue" points="1238.74,-113.97 1249.23,-112.44 1240.08,-107.09 1238.74,-113.97"/>
</g>
<!-- Node19&#45;&gt;Node16 -->
<g id="edge39" class="edge">
<title>Node19&#45;&gt;Node16</title>
<path fill="none" stroke="midnightblue" d="M1275.65,-105.54C1264.77,-95.91 1251.17,-83.87 1242.1,-75.83"/>
<polygon fill="midnightblue" stroke="midnightblue" points="1273.51,-108.32 1283.32,-112.32 1278.15,-103.07 1273.51,-108.32"/>
</g>
<!-- Node20 -->
<g id="node20" class="node">
<title>Node20</title>
<g id="a_node20"><a xlink:href="equation_8c.html" target="_top" xlink:title="Contains the function for initializing the physical constants.">
<polygon fill="white" stroke="black" points="1435.12,-56.5 1435.12,-75.5 1513.12,-75.5 1513.12,-56.5 1435.12,-56.5"/>
<text text-anchor="middle" x="1474.12" y="-63.5" font-family="Helvetica,sans-Serif" font-size="10.00">src/equation.c</text>
</a>
</g>
</g>
<!-- Node19&#45;&gt;Node20 -->
<g id="edge34" class="edge">
<title>Node19&#45;&gt;Node20</title>
<path fill="none" stroke="midnightblue" d="M1331.44,-109.57C1365.58,-99.38 1414.78,-84.7 1445.57,-75.52"/>
<polygon fill="midnightblue" stroke="midnightblue" points="1330.38,-106.23 1321.8,-112.44 1332.38,-112.94 1330.38,-106.23"/>
</g>
<!-- Node21&#45;&gt;Node6 -->
<g id="edge48" class="edge">
<title>Node21&#45;&gt;Node6</title>
<path fill="none" stroke="midnightblue" d="M901.27,-102.2C898.01,-87.4 891.18,-67.41 877.12,-56 850.27,-34.22 759.98,-21.89 698.4,-15.83"/>
<polygon fill="midnightblue" stroke="midnightblue" points="897.87,-103.09 903.12,-112.29 904.76,-101.82 897.87,-103.09"/>
</g>
<!-- Node21&#45;&gt;Node9 -->
<g id="edge44" class="edge">
<title>Node21&#45;&gt;Node9</title>
<path fill="none" stroke="midnightblue" d="M883.54,-106.38C869.8,-96.62 852.19,-84.11 840.55,-75.83"/>
<polygon fill="midnightblue" stroke="midnightblue" points="881.73,-109.38 891.91,-112.32 885.78,-103.68 881.73,-109.38"/>
</g>
<!-- Node21&#45;&gt;Node10 -->
<g id="edge45" class="edge">
<title>Node21&#45;&gt;Node10</title>
<path fill="none" stroke="midnightblue" d="M849.92,-110.47C797.38,-100.27 718.68,-84.98 669.96,-75.52"/>
<polygon fill="midnightblue" stroke="midnightblue" points="849.58,-113.97 860.07,-112.44 850.92,-107.1 849.58,-113.97"/>
</g>
<!-- Node21&#45;&gt;Node14 -->
<g id="edge47" class="edge">
<title>Node21&#45;&gt;Node14</title>
<path fill="none" stroke="midnightblue" d="M909.28,-102.67C916.06,-78.62 927.68,-37.39 932.7,-19.59"/>
<polygon fill="midnightblue" stroke="midnightblue" points="905.89,-101.79 906.55,-112.37 912.63,-103.69 905.89,-101.79"/>
</g>
<!-- Node21&#45;&gt;Node15 -->
<g id="edge46" class="edge">
<title>Node21&#45;&gt;Node15</title>
<path fill="none" stroke="midnightblue" d="M931.37,-107.86C952.13,-97.85 980.14,-84.35 998.17,-75.65"/>
<polygon fill="midnightblue" stroke="midnightblue" points="929.6,-104.83 922.11,-112.32 932.64,-111.13 929.6,-104.83"/>
</g>
</g>
</svg>
