<?xml version="1.0" encoding="UTF-8" standalone="no"?>
<!DOCTYPE svg PUBLIC "-//W3C//DTD SVG 1.1//EN"
 "http://www.w3.org/Graphics/SVG/1.1/DTD/svg11.dtd">
<!-- Generated by graphviz version 2.42.3 (0)
 -->
<!-- Title: src/main.h Pages: 1 -->
<svg width="1169pt" height="263pt"
 viewBox="0.00 0.00 1168.50 263.00" xmlns="http://www.w3.org/2000/svg" xmlns:xlink="http://www.w3.org/1999/xlink">
<g id="graph0" class="graph" transform="scale(1 1) rotate(0) translate(4 259)">
<title>src/main.h</title>
<polygon fill="white" stroke="transparent" points="-4,4 -4,-259 1164.5,-259 1164.5,4 -4,4"/>
<!-- Node1 -->
<g id="node1" class="node">
<title>Node1</title>
<g id="a_node1"><a xlink:title="Contains the global constants and definitions.">
<polygon fill="#bfbfbf" stroke="black" points="561,-235.5 561,-254.5 623,-254.5 623,-235.5 561,-235.5"/>
<text text-anchor="middle" x="592" y="-242.5" font-family="Helvetica,sans-Serif" font-size="10.00">src/main.h</text>
</a>
</g>
</g>
<!-- Node2 -->
<g id="node2" class="node">
<title>Node2</title>
<g id="a_node2"><a xlink:href="analyze_8h.html" target="_top" xlink:title="Contains the structure definitions of wing_t and recordPoint_t">
<polygon fill="white" stroke="black" points="427,-56.5 427,-75.5 501,-75.5 501,-56.5 427,-56.5"/>
<text text-anchor="middle" x="464" y="-63.5" font-family="Helvetica,sans-Serif" font-size="10.00">src/analyze.h</text>
</a>
</g>
</g>
<!-- Node1&#45;&gt;Node2 -->
<g id="edge1" class="edge">
<title>Node1&#45;&gt;Node2</title>
<path fill="none" stroke="midnightblue" d="M583.21,-226.16C579.66,-218.08 575.95,-208.26 574,-199 572.01,-189.54 576.49,-119.96 571,-112 555.22,-89.1 525.36,-77.82 501.18,-72.27"/>
<polygon fill="midnightblue" stroke="midnightblue" points="580.08,-227.73 587.47,-235.32 586.43,-224.78 580.08,-227.73"/>
</g>
<!-- Node5 -->
<g id="node5" class="node">
<title>Node5</title>
<g id="a_node5"><a xlink:href="output_8c.html" target="_top" xlink:title="Contains all functions used for writing flow solutions.">
<polygon fill="white" stroke="black" points="671,-0.5 671,-19.5 739,-19.5 739,-0.5 671,-0.5"/>
<text text-anchor="middle" x="705" y="-7.5" font-family="Helvetica,sans-Serif" font-size="10.00">src/output.c</text>
</a>
</g>
</g>
<!-- Node1&#45;&gt;Node5 -->
<g id="edge31" class="edge">
<title>Node1&#45;&gt;Node5</title>
<path fill="none" stroke="midnightblue" d="M633.45,-243.53C702.97,-241.77 838.39,-233.83 868,-199 927.32,-129.23 776.61,-46.09 723.05,-19.57"/>
<polygon fill="midnightblue" stroke="midnightblue" points="633.21,-240.04 623.29,-243.76 633.36,-247.03 633.21,-240.04"/>
</g>
<!-- Node6 -->
<g id="node6" class="node">
<title>Node6</title>
<g id="a_node6"><a xlink:href="mesh_8h_source.html" target="_top" xlink:title=" ">
<polygon fill="white" stroke="black" points="283.5,-174 283.5,-193 348.5,-193 348.5,-174 283.5,-174"/>
<text text-anchor="middle" x="316" y="-181" font-family="Helvetica,sans-Serif" font-size="10.00">src/mesh.h</text>
</a>
</g>
</g>
<!-- Node1&#45;&gt;Node6 -->
<g id="edge5" class="edge">
<title>Node1&#45;&gt;Node6</title>
<path fill="none" stroke="midnightblue" d="M550.76,-235.11C495.65,-223.23 399.11,-202.42 348.72,-191.55"/>
<polygon fill="midnightblue" stroke="midnightblue" points="550.36,-238.6 560.88,-237.29 551.84,-231.76 550.36,-238.6"/>
</g>
<!-- Node7 -->
<g id="node7" class="node">
<title>Node7</title>
<g id="a_node7"><a xlink:href="euler_2boundary_8h_source.html" target="_top" xlink:title=" ">
<polygon fill="white" stroke="black" points="344.5,-112.5 344.5,-131.5 449.5,-131.5 449.5,-112.5 344.5,-112.5"/>
<text text-anchor="middle" x="397" y="-119.5" font-family="Helvetica,sans-Serif" font-size="10.00">src/euler/boundary.h</text>
</a>
</g>
</g>
<!-- Node1&#45;&gt;Node7 -->
<g id="edge23" class="edge">
<title>Node1&#45;&gt;Node7</title>
<path fill="none" stroke="midnightblue" d="M569.65,-230.13C529.06,-204.95 444.35,-152.38 410.96,-131.66"/>
<polygon fill="midnightblue" stroke="midnightblue" points="567.95,-233.19 578.29,-235.49 571.64,-227.24 567.95,-233.19"/>
</g>
<!-- Node8 -->
<g id="node8" class="node">
<title>Node8</title>
<g id="a_node8"><a xlink:href="finiteVolume_8c.html" target="_top" xlink:title="Finite volume time derivative functions.">
<polygon fill="white" stroke="black" points="467.5,-112.5 467.5,-131.5 562.5,-131.5 562.5,-112.5 467.5,-112.5"/>
<text text-anchor="middle" x="515" y="-119.5" font-family="Helvetica,sans-Serif" font-size="10.00">src/finiteVolume.c</text>
</a>
</g>
</g>
<!-- Node1&#45;&gt;Node8 -->
<g id="edge25" class="edge">
<title>Node1&#45;&gt;Node8</title>
<path fill="none" stroke="midnightblue" d="M570.85,-229.43C560.63,-221.46 548.89,-210.81 541,-199 526.44,-177.2 519.24,-146.43 516.45,-131.62"/>
<polygon fill="midnightblue" stroke="midnightblue" points="568.86,-232.31 578.97,-235.46 573.03,-226.69 568.86,-232.31"/>
</g>
<!-- Node9 -->
<g id="node9" class="node">
<title>Node9</title>
<g id="a_node9"><a xlink:href="initialCondition_8c.html" target="_top" xlink:title="Functions involving the initialization and application of initial conditions.">
<polygon fill="white" stroke="black" points="733.5,-112.5 733.5,-131.5 838.5,-131.5 838.5,-112.5 733.5,-112.5"/>
<text text-anchor="middle" x="786" y="-119.5" font-family="Helvetica,sans-Serif" font-size="10.00">src/initialCondition.c</text>
</a>
</g>
</g>
<!-- Node1&#45;&gt;Node9 -->
<g id="edge26" class="edge">
<title>Node1&#45;&gt;Node9</title>
<path fill="none" stroke="midnightblue" d="M622.19,-231.35C640.61,-223.12 664.33,-211.6 684,-199 702.35,-187.25 704.63,-181.17 722,-168 739.32,-154.87 759.99,-140.58 773.06,-131.7"/>
<polygon fill="midnightblue" stroke="midnightblue" points="620.58,-228.23 612.82,-235.45 623.39,-234.65 620.58,-228.23"/>
</g>
<!-- Node10 -->
<g id="node10" class="node">
<title>Node10</title>
<g id="a_node10"><a xlink:href="linearSolver_8h_source.html" target="_top" xlink:title=" ">
<polygon fill="white" stroke="black" points="0,-112.5 0,-131.5 92,-131.5 92,-112.5 0,-112.5"/>
<text text-anchor="middle" x="46" y="-119.5" font-family="Helvetica,sans-Serif" font-size="10.00">src/linearSolver.h</text>
</a>
</g>
</g>
<!-- Node1&#45;&gt;Node10 -->
<g id="edge27" class="edge">
<title>Node1&#45;&gt;Node10</title>
<path fill="none" stroke="midnightblue" d="M550.79,-242.78C481.83,-239.9 339.16,-230.33 223,-199 161.01,-182.28 92.44,-147.89 62.03,-131.74"/>
<polygon fill="midnightblue" stroke="midnightblue" points="550.69,-246.28 560.82,-243.17 550.96,-239.28 550.69,-246.28"/>
</g>
<!-- Node11 -->
<g id="node11" class="node">
<title>Node11</title>
<g id="a_node11"><a xlink:href="navierstokes_2boundary_8h_source.html" target="_top" xlink:title=" ">
<polygon fill="white" stroke="black" points="110,-112.5 110,-131.5 250,-131.5 250,-112.5 110,-112.5"/>
<text text-anchor="middle" x="180" y="-119.5" font-family="Helvetica,sans-Serif" font-size="10.00">src/navierstokes/boundary.h</text>
</a>
</g>
</g>
<!-- Node1&#45;&gt;Node11 -->
<g id="edge28" class="edge">
<title>Node1&#45;&gt;Node11</title>
<path fill="none" stroke="midnightblue" d="M550.47,-240.89C475.98,-234.85 322.86,-220.25 274,-199 237.05,-182.93 202.65,-148.21 187.76,-131.86"/>
<polygon fill="midnightblue" stroke="midnightblue" points="550.62,-244.41 560.87,-241.72 551.18,-237.43 550.62,-244.41"/>
</g>
<!-- Node12 -->
<g id="node12" class="node">
<title>Node12</title>
<g id="a_node12"><a xlink:href="readInTools_8h.html" target="_top" xlink:title=" ">
<polygon fill="white" stroke="black" points="583.5,-174 583.5,-193 674.5,-193 674.5,-174 583.5,-174"/>
<text text-anchor="middle" x="629" y="-181" font-family="Helvetica,sans-Serif" font-size="10.00">src/readInTools.h</text>
</a>
</g>
</g>
<!-- Node1&#45;&gt;Node12 -->
<g id="edge17" class="edge">
<title>Node1&#45;&gt;Node12</title>
<path fill="none" stroke="midnightblue" d="M602.78,-226.67C609.66,-215.61 618.27,-201.75 623.71,-193.01"/>
<polygon fill="midnightblue" stroke="midnightblue" points="599.61,-225.13 597.3,-235.48 605.55,-228.83 599.61,-225.13"/>
</g>
<!-- Node13 -->
<g id="node13" class="node">
<title>Node13</title>
<g id="a_node13"><a xlink:href="euler_2equationOfState_8h_source.html" target="_top" xlink:title=" ">
<polygon fill="white" stroke="black" points="915,-174 915,-193 1051,-193 1051,-174 915,-174"/>
<text text-anchor="middle" x="983" y="-181" font-family="Helvetica,sans-Serif" font-size="10.00">src/euler/equationOfState.h</text>
</a>
</g>
</g>
<!-- Node1&#45;&gt;Node13 -->
<g id="edge24" class="edge">
<title>Node1&#45;&gt;Node13</title>
<path fill="none" stroke="midnightblue" d="M633.28,-238.4C692.59,-230.25 805.32,-214.42 901,-199 912.42,-197.16 924.71,-195.05 936.21,-193.03"/>
<polygon fill="midnightblue" stroke="midnightblue" points="632.62,-234.95 623.19,-239.78 633.57,-241.89 632.62,-234.95"/>
</g>
<!-- Node14 -->
<g id="node14" class="node">
<title>Node14</title>
<g id="a_node14"><a xlink:href="navierstokes_2equationOfState_8h_source.html" target="_top" xlink:title=" ">
<polygon fill="white" stroke="black" points="731,-168.5 731,-198.5 859,-198.5 859,-168.5 731,-168.5"/>
<text text-anchor="start" x="739" y="-186.5" font-family="Helvetica,sans-Serif" font-size="10.00">src/navierstokes/equation</text>
<text text-anchor="middle" x="795" y="-175.5" font-family="Helvetica,sans-Serif" font-size="10.00">OfState.h</text>
</a>
</g>
</g>
<!-- Node1&#45;&gt;Node14 -->
<g id="edge29" class="edge">
<title>Node1&#45;&gt;Node14</title>
<path fill="none" stroke="midnightblue" d="M630.86,-232.61C663.98,-222.9 711.7,-208.92 747.16,-198.52"/>
<polygon fill="midnightblue" stroke="midnightblue" points="629.7,-229.3 621.08,-235.48 631.67,-236.02 629.7,-229.3"/>
</g>
<!-- Node15 -->
<g id="node15" class="node">
<title>Node15</title>
<g id="a_node15"><a xlink:href="readInTools_8c.html" target="_top" xlink:title="Provides functions for reading data from the .ini parameter file.">
<polygon fill="white" stroke="black" points="1069.5,-174 1069.5,-193 1160.5,-193 1160.5,-174 1069.5,-174"/>
<text text-anchor="middle" x="1115" y="-181" font-family="Helvetica,sans-Serif" font-size="10.00">src/readInTools.c</text>
</a>
</g>
</g>
<!-- Node1&#45;&gt;Node15 -->
<g id="edge32" class="edge">
<title>Node1&#45;&gt;Node15</title>
<path fill="none" stroke="midnightblue" d="M633.33,-242.28C715.27,-238.36 903.93,-226.89 1060,-199 1068.55,-197.47 1077.73,-195.28 1086.08,-193.06"/>
<polygon fill="midnightblue" stroke="midnightblue" points="633,-238.79 623.18,-242.75 633.33,-245.78 633,-238.79"/>
</g>
<!-- Node3 -->
<g id="node3" class="node">
<title>Node3</title>
<g id="a_node3"><a xlink:href="analyze_8c.html" target="_top" xlink:title="Contains functions for analyzing flow results.">
<polygon fill="white" stroke="black" points="503,-0.5 503,-19.5 577,-19.5 577,-0.5 503,-0.5"/>
<text text-anchor="middle" x="540" y="-7.5" font-family="Helvetica,sans-Serif" font-size="10.00">src/analyze.c</text>
</a>
</g>
</g>
<!-- Node2&#45;&gt;Node3 -->
<g id="edge2" class="edge">
<title>Node2&#45;&gt;Node3</title>
<path fill="none" stroke="midnightblue" d="M484.58,-50.38C498.31,-40.62 515.93,-28.11 527.57,-19.83"/>
<polygon fill="midnightblue" stroke="midnightblue" points="482.34,-47.68 476.21,-56.32 486.39,-53.38 482.34,-47.68"/>
</g>
<!-- Node4 -->
<g id="node4" class="node">
<title>Node4</title>
<g id="a_node4"><a xlink:href="main_8c.html" target="_top" xlink:title="Contains the main function of ccfd">
<polygon fill="white" stroke="black" points="247,-0.5 247,-19.5 309,-19.5 309,-0.5 247,-0.5"/>
<text text-anchor="middle" x="278" y="-7.5" font-family="Helvetica,sans-Serif" font-size="10.00">src/main.c</text>
</a>
</g>
</g>
<!-- Node2&#45;&gt;Node4 -->
<g id="edge3" class="edge">
<title>Node2&#45;&gt;Node4</title>
<path fill="none" stroke="midnightblue" d="M424.62,-53.57C389.53,-43.38 338.98,-28.7 307.33,-19.52"/>
<polygon fill="midnightblue" stroke="midnightblue" points="423.95,-57.02 434.53,-56.44 425.9,-50.29 423.95,-57.02"/>
</g>
<!-- Node2&#45;&gt;Node5 -->
<g id="edge4" class="edge">
<title>Node2&#45;&gt;Node5</title>
<path fill="none" stroke="midnightblue" d="M511.06,-54.45C558.06,-43.92 629.16,-27.99 670.95,-18.63"/>
<polygon fill="midnightblue" stroke="midnightblue" points="510.12,-51.08 501.13,-56.68 511.65,-57.91 510.12,-51.08"/>
</g>
<!-- Node6&#45;&gt;Node2 -->
<g id="edge6" class="edge">
<title>Node6&#45;&gt;Node2</title>
<path fill="none" stroke="midnightblue" d="M316.38,-163.81C317.68,-148.11 321.94,-126.04 335,-112 358.83,-86.38 398.02,-75.35 426.97,-70.59"/>
<polygon fill="midnightblue" stroke="midnightblue" points="312.88,-163.75 315.87,-173.91 319.87,-164.1 312.88,-163.75"/>
</g>
<!-- Node6&#45;&gt;Node4 -->
<g id="edge12" class="edge">
<title>Node6&#45;&gt;Node4</title>
<path fill="none" stroke="midnightblue" d="M311.86,-163.83C303.69,-126.93 285.74,-45.94 279.89,-19.52"/>
<polygon fill="midnightblue" stroke="midnightblue" points="308.48,-164.75 314.06,-173.76 315.32,-163.24 308.48,-164.75"/>
</g>
<!-- Node6&#45;&gt;Node7 -->
<g id="edge7" class="edge">
<title>Node6&#45;&gt;Node7</title>
<path fill="none" stroke="midnightblue" d="M336.02,-167.79C351.56,-156.38 372.55,-140.96 385.42,-131.51"/>
<polygon fill="midnightblue" stroke="midnightblue" points="333.59,-165.23 327.61,-173.98 337.74,-170.88 333.59,-165.23"/>
</g>
<!-- Node6&#45;&gt;Node8 -->
<g id="edge8" class="edge">
<title>Node6&#45;&gt;Node8</title>
<path fill="none" stroke="midnightblue" d="M354.37,-171.03C393.04,-159.46 451.84,-141.88 486.54,-131.51"/>
<polygon fill="midnightblue" stroke="midnightblue" points="353.09,-167.76 344.51,-173.98 355.1,-174.46 353.09,-167.76"/>
</g>
<!-- Node6&#45;&gt;Node9 -->
<g id="edge9" class="edge">
<title>Node6&#45;&gt;Node9</title>
<path fill="none" stroke="midnightblue" d="M358.63,-177.1C444.82,-166.19 639.53,-141.54 733.42,-129.66"/>
<polygon fill="midnightblue" stroke="midnightblue" points="358.16,-173.64 348.68,-178.36 359.04,-180.58 358.16,-173.64"/>
</g>
<!-- Node6&#45;&gt;Node10 -->
<g id="edge10" class="edge">
<title>Node6&#45;&gt;Node10</title>
<path fill="none" stroke="midnightblue" d="M273.56,-173.15C221.75,-161.73 134.88,-142.59 84.79,-131.55"/>
<polygon fill="midnightblue" stroke="midnightblue" points="272.91,-176.59 283.43,-175.32 274.42,-169.75 272.91,-176.59"/>
</g>
<!-- Node6&#45;&gt;Node11 -->
<g id="edge13" class="edge">
<title>Node6&#45;&gt;Node11</title>
<path fill="none" stroke="midnightblue" d="M282.13,-170.13C253.97,-158.57 215.45,-141.62 194.55,-131.51"/>
<polygon fill="midnightblue" stroke="midnightblue" points="281.03,-173.46 291.61,-173.98 283.66,-166.98 281.03,-173.46"/>
</g>
<!-- Node10&#45;&gt;Node4 -->
<g id="edge11" class="edge">
<title>Node10&#45;&gt;Node4</title>
<path fill="none" stroke="midnightblue" d="M73.37,-108.02C121.35,-85.27 219.39,-38.79 259.88,-19.59"/>
<polygon fill="midnightblue" stroke="midnightblue" points="71.74,-104.92 64.2,-112.37 74.74,-111.25 71.74,-104.92"/>
</g>
<!-- Node11&#45;&gt;Node2 -->
<g id="edge14" class="edge">
<title>Node11&#45;&gt;Node2</title>
<path fill="none" stroke="midnightblue" d="M234.84,-110.57C291.37,-99.82 377.94,-83.36 426.9,-74.05"/>
<polygon fill="midnightblue" stroke="midnightblue" points="234.17,-107.14 225,-112.44 235.48,-114.01 234.17,-107.14"/>
</g>
<!-- Node11&#45;&gt;Node4 -->
<g id="edge16" class="edge">
<title>Node11&#45;&gt;Node4</title>
<path fill="none" stroke="midnightblue" d="M194.35,-104.9C215.41,-81.25 253.99,-37.95 270.35,-19.59"/>
<polygon fill="midnightblue" stroke="midnightblue" points="191.73,-102.57 187.69,-112.37 196.96,-107.23 191.73,-102.57"/>
</g>
<!-- Node11&#45;&gt;Node6 -->
<g id="edge15" class="edge">
<title>Node11&#45;&gt;Node6</title>
<path fill="none" stroke="midnightblue" d="M213.83,-135.35C241.98,-146.9 280.5,-163.86 301.42,-173.98"/>
<polygon fill="midnightblue" stroke="midnightblue" points="214.93,-132.02 204.35,-131.51 212.3,-138.51 214.93,-132.02"/>
</g>
<!-- Node12&#45;&gt;Node3 -->
<g id="edge18" class="edge">
<title>Node12&#45;&gt;Node3</title>
<path fill="none" stroke="midnightblue" d="M637.69,-164.55C648.98,-138.4 664.8,-89.31 643,-56 628.47,-33.79 600.31,-22.48 577.1,-16.75"/>
<polygon fill="midnightblue" stroke="midnightblue" points="634.37,-163.4 633.4,-173.95 640.74,-166.31 634.37,-163.4"/>
</g>
<!-- Node12&#45;&gt;Node4 -->
<g id="edge21" class="edge">
<title>Node12&#45;&gt;Node4</title>
<path fill="none" stroke="midnightblue" d="M620.94,-164.71C613.53,-149.6 601.51,-127.9 587,-112 558.48,-80.74 548.81,-72.87 510,-56 442.28,-26.55 355.09,-16.27 309.29,-12.76"/>
<polygon fill="midnightblue" stroke="midnightblue" points="617.87,-166.41 625.3,-173.96 624.2,-163.42 617.87,-166.41"/>
</g>
<!-- Node12&#45;&gt;Node5 -->
<g id="edge22" class="edge">
<title>Node12&#45;&gt;Node5</title>
<path fill="none" stroke="midnightblue" d="M649.36,-167.76C660.41,-158.68 673.34,-146.1 681,-132 701.66,-93.99 704.66,-40.63 705,-19.81"/>
<polygon fill="midnightblue" stroke="midnightblue" points="647.12,-165.07 641.4,-173.98 651.43,-170.58 647.12,-165.07"/>
</g>
<!-- Node12&#45;&gt;Node8 -->
<g id="edge19" class="edge">
<title>Node12&#45;&gt;Node8</title>
<path fill="none" stroke="midnightblue" d="M603.54,-169.21C581.46,-157.69 550.17,-141.36 531.3,-131.51"/>
<polygon fill="midnightblue" stroke="midnightblue" points="602.18,-172.45 612.67,-173.98 605.42,-166.25 602.18,-172.45"/>
</g>
<!-- Node12&#45;&gt;Node9 -->
<g id="edge20" class="edge">
<title>Node12&#45;&gt;Node9</title>
<path fill="none" stroke="midnightblue" d="M661.24,-170.28C691.75,-158.72 736.75,-141.66 763.55,-131.51"/>
<polygon fill="midnightblue" stroke="midnightblue" points="659.6,-167.16 651.49,-173.98 662.09,-173.7 659.6,-167.16"/>
</g>
<!-- Node14&#45;&gt;Node9 -->
<g id="edge30" class="edge">
<title>Node14&#45;&gt;Node9</title>
<path fill="none" stroke="midnightblue" d="M791.34,-158.29C789.91,-148.86 788.37,-138.65 787.31,-131.66"/>
<polygon fill="midnightblue" stroke="midnightblue" points="787.91,-159.04 792.87,-168.4 794.83,-157.99 787.91,-159.04"/>
</g>
</g>
</svg>
