<?xml version="1.0" encoding="UTF-8" standalone="no"?>
<!DOCTYPE svg PUBLIC "-//W3C//DTD SVG 1.1//EN"
 "http://www.w3.org/Graphics/SVG/1.1/DTD/svg11.dtd">
<!-- Generated by graphviz version 2.42.3 (0)
 -->
<!-- Title: src/main.h Pages: 1 -->
<svg width="843pt" height="196pt"
 viewBox="0.00 0.00 842.50 196.00" xmlns="http://www.w3.org/2000/svg" xmlns:xlink="http://www.w3.org/1999/xlink">
<g id="graph0" class="graph" transform="scale(1 1) rotate(0) translate(4 192)">
<title>src/main.h</title>
<polygon fill="white" stroke="transparent" points="-4,4 -4,-192 838.5,-192 838.5,4 -4,4"/>
<!-- Node1 -->
<g id="node1" class="node">
<title>Node1</title>
<g id="a_node1"><a xlink:title="Contains the global constants and definitions.">
<polygon fill="#bfbfbf" stroke="black" points="413,-168.5 413,-187.5 475,-187.5 475,-168.5 413,-168.5"/>
<text text-anchor="middle" x="444" y="-175.5" font-family="Helvetica,sans-Serif" font-size="10.00">src/main.h</text>
</a>
</g>
</g>
<!-- Node2 -->
<g id="node2" class="node">
<title>Node2</title>
<g id="a_node2"><a xlink:href="analyze_8h.html" target="_top" xlink:title="Contains the structure definitions of wing_t and recordPoint_t">
<polygon fill="white" stroke="black" points="148,-56.5 148,-75.5 222,-75.5 222,-56.5 148,-56.5"/>
<text text-anchor="middle" x="185" y="-63.5" font-family="Helvetica,sans-Serif" font-size="10.00">src/analyze.h</text>
</a>
</g>
</g>
<!-- Node1&#45;&gt;Node2 -->
<g id="edge1" class="edge">
<title>Node1&#45;&gt;Node2</title>
<path fill="none" stroke="midnightblue" d="M402.6,-174.02C342.9,-168.92 236.66,-156.61 208,-132 191.11,-117.49 186.62,-89.75 185.43,-75.67"/>
<polygon fill="midnightblue" stroke="midnightblue" points="402.57,-177.53 412.82,-174.86 403.14,-170.55 402.57,-177.53"/>
</g>
<!-- Node5 -->
<g id="node5" class="node">
<title>Node5</title>
<g id="a_node5"><a xlink:href="output_8c.html" target="_top" xlink:title="Contains all functions used for writing flow solutions.">
<polygon fill="white" stroke="black" points="605,-0.5 605,-19.5 673,-19.5 673,-0.5 605,-0.5"/>
<text text-anchor="middle" x="639" y="-7.5" font-family="Helvetica,sans-Serif" font-size="10.00">src/output.c</text>
</a>
</g>
</g>
<!-- Node1&#45;&gt;Node5 -->
<g id="edge25" class="edge">
<title>Node1&#45;&gt;Node5</title>
<path fill="none" stroke="midnightblue" d="M485.54,-175.31C520.15,-171.73 568.56,-161.34 599,-132 631.66,-100.52 637.66,-41.87 638.76,-19.75"/>
<polygon fill="midnightblue" stroke="midnightblue" points="484.93,-171.85 475.27,-176.22 485.54,-178.82 484.93,-171.85"/>
</g>
<!-- Node6 -->
<g id="node6" class="node">
<title>Node6</title>
<g id="a_node6"><a xlink:href="mesh_8h.html" target="_top" xlink:title="Contains the definitions of all structs for the mesh handling.">
<polygon fill="white" stroke="black" points="217.5,-112.5 217.5,-131.5 282.5,-131.5 282.5,-112.5 217.5,-112.5"/>
<text text-anchor="middle" x="250" y="-119.5" font-family="Helvetica,sans-Serif" font-size="10.00">src/mesh.h</text>
</a>
</g>
</g>
<!-- Node1&#45;&gt;Node6 -->
<g id="edge5" class="edge">
<title>Node1&#45;&gt;Node6</title>
<path fill="none" stroke="midnightblue" d="M403.4,-165.7C366.78,-155.51 313.74,-140.74 280.6,-131.52"/>
<polygon fill="midnightblue" stroke="midnightblue" points="402.69,-169.13 413.26,-168.44 404.56,-162.39 402.69,-169.13"/>
</g>
<!-- Node7 -->
<g id="node7" class="node">
<title>Node7</title>
<g id="a_node7"><a xlink:href="finiteVolume_8c.html" target="_top" xlink:title="Finite volume time derivative functions.">
<polygon fill="white" stroke="black" points="278.5,-56.5 278.5,-75.5 373.5,-75.5 373.5,-56.5 278.5,-56.5"/>
<text text-anchor="middle" x="326" y="-63.5" font-family="Helvetica,sans-Serif" font-size="10.00">src/finiteVolume.c</text>
</a>
</g>
</g>
<!-- Node1&#45;&gt;Node7 -->
<g id="edge21" class="edge">
<title>Node1&#45;&gt;Node7</title>
<path fill="none" stroke="midnightblue" d="M427.39,-161.51C402.17,-138.01 355.08,-94.11 335.22,-75.59"/>
<polygon fill="midnightblue" stroke="midnightblue" points="425.04,-164.11 434.74,-168.37 429.81,-158.99 425.04,-164.11"/>
</g>
<!-- Node8 -->
<g id="node8" class="node">
<title>Node8</title>
<g id="a_node8"><a xlink:href="initialCondition_8c.html" target="_top" xlink:title="Functions involving the initialization and application of initial conditions.">
<polygon fill="white" stroke="black" points="391.5,-56.5 391.5,-75.5 496.5,-75.5 496.5,-56.5 391.5,-56.5"/>
<text text-anchor="middle" x="444" y="-63.5" font-family="Helvetica,sans-Serif" font-size="10.00">src/initialCondition.c</text>
</a>
</g>
</g>
<!-- Node1&#45;&gt;Node8 -->
<g id="edge22" class="edge">
<title>Node1&#45;&gt;Node8</title>
<path fill="none" stroke="midnightblue" d="M444,-158.35C444,-134.25 444,-93.31 444,-75.59"/>
<polygon fill="midnightblue" stroke="midnightblue" points="440.5,-158.37 444,-168.37 447.5,-158.37 440.5,-158.37"/>
</g>
<!-- Node9 -->
<g id="node9" class="node">
<title>Node9</title>
<g id="a_node9"><a xlink:href="linearSolver_8h.html" target="_top" xlink:title=" ">
<polygon fill="white" stroke="black" points="0,-56.5 0,-75.5 92,-75.5 92,-56.5 0,-56.5"/>
<text text-anchor="middle" x="46" y="-63.5" font-family="Helvetica,sans-Serif" font-size="10.00">src/linearSolver.h</text>
</a>
</g>
</g>
<!-- Node1&#45;&gt;Node9 -->
<g id="edge24" class="edge">
<title>Node1&#45;&gt;Node9</title>
<path fill="none" stroke="midnightblue" d="M402.41,-172.77C351.66,-166.9 263.65,-154.37 191,-132 141.96,-116.9 87.64,-89.43 61.6,-75.53"/>
<polygon fill="midnightblue" stroke="midnightblue" points="402.32,-176.29 412.65,-173.93 403.11,-169.33 402.32,-176.29"/>
</g>
<!-- Node10 -->
<g id="node10" class="node">
<title>Node10</title>
<g id="a_node10"><a xlink:href="linearSolver_8c.html" target="_top" xlink:title="Contains the functions for solving the linear system of equations during implicit calculations.">
<polygon fill="white" stroke="black" points="445,-0.5 445,-19.5 537,-19.5 537,-0.5 445,-0.5"/>
<text text-anchor="middle" x="491" y="-7.5" font-family="Helvetica,sans-Serif" font-size="10.00">src/linearSolver.c</text>
</a>
</g>
</g>
<!-- Node1&#45;&gt;Node10 -->
<g id="edge23" class="edge">
<title>Node1&#45;&gt;Node10</title>
<path fill="none" stroke="midnightblue" d="M485.3,-173.64C515.37,-169.01 554.9,-158.03 579,-132 596.43,-113.18 589.87,-101.46 593,-76 594.09,-67.18 597.85,-63.45 593,-56 580.53,-36.87 557.88,-25.81 537.09,-19.45"/>
<polygon fill="midnightblue" stroke="midnightblue" points="484.53,-170.22 475.1,-175.03 485.48,-177.15 484.53,-170.22"/>
</g>
<!-- Node11 -->
<g id="node11" class="node">
<title>Node11</title>
<g id="a_node11"><a xlink:href="readInTools_8h.html" target="_top" xlink:title=" ">
<polygon fill="white" stroke="black" points="479.5,-112.5 479.5,-131.5 570.5,-131.5 570.5,-112.5 479.5,-112.5"/>
<text text-anchor="middle" x="525" y="-119.5" font-family="Helvetica,sans-Serif" font-size="10.00">src/readInTools.h</text>
</a>
</g>
</g>
<!-- Node1&#45;&gt;Node11 -->
<g id="edge14" class="edge">
<title>Node1&#45;&gt;Node11</title>
<path fill="none" stroke="midnightblue" d="M465.57,-162.62C480.36,-152.76 499.51,-139.99 512.02,-131.65"/>
<polygon fill="midnightblue" stroke="midnightblue" points="463.39,-159.86 457.01,-168.32 467.28,-165.69 463.39,-159.86"/>
</g>
<!-- Node12 -->
<g id="node12" class="node">
<title>Node12</title>
<g id="a_node12"><a xlink:href="readInTools_8c.html" target="_top" xlink:title="Provides functions for reading data from the .ini parameter file.">
<polygon fill="white" stroke="black" points="743.5,-112.5 743.5,-131.5 834.5,-131.5 834.5,-112.5 743.5,-112.5"/>
<text text-anchor="middle" x="789" y="-119.5" font-family="Helvetica,sans-Serif" font-size="10.00">src/readInTools.c</text>
</a>
</g>
</g>
<!-- Node1&#45;&gt;Node12 -->
<g id="edge26" class="edge">
<title>Node1&#45;&gt;Node12</title>
<path fill="none" stroke="midnightblue" d="M485.5,-170.5C550.48,-160.33 675.78,-140.72 743.28,-130.16"/>
<polygon fill="midnightblue" stroke="midnightblue" points="484.56,-167.11 475.22,-172.11 485.65,-174.02 484.56,-167.11"/>
</g>
<!-- Node3 -->
<g id="node3" class="node">
<title>Node3</title>
<g id="a_node3"><a xlink:href="analyze_8c.html" target="_top" xlink:title="Contains functions for analyzing flow results.">
<polygon fill="white" stroke="black" points="253,-0.5 253,-19.5 327,-19.5 327,-0.5 253,-0.5"/>
<text text-anchor="middle" x="290" y="-7.5" font-family="Helvetica,sans-Serif" font-size="10.00">src/analyze.c</text>
</a>
</g>
</g>
<!-- Node2&#45;&gt;Node3 -->
<g id="edge2" class="edge">
<title>Node2&#45;&gt;Node3</title>
<path fill="none" stroke="midnightblue" d="M210.81,-51.73C230.25,-41.73 256.35,-28.31 273.17,-19.65"/>
<polygon fill="midnightblue" stroke="midnightblue" points="209.16,-48.64 201.87,-56.32 212.36,-54.86 209.16,-48.64"/>
</g>
<!-- Node4 -->
<g id="node4" class="node">
<title>Node4</title>
<g id="a_node4"><a xlink:href="main_8c.html" target="_top" xlink:title="Contains the main function of ccfd">
<polygon fill="white" stroke="black" points="122,-0.5 122,-19.5 184,-19.5 184,-0.5 122,-0.5"/>
<text text-anchor="middle" x="153" y="-7.5" font-family="Helvetica,sans-Serif" font-size="10.00">src/main.c</text>
</a>
</g>
</g>
<!-- Node2&#45;&gt;Node4 -->
<g id="edge3" class="edge">
<title>Node2&#45;&gt;Node4</title>
<path fill="none" stroke="midnightblue" d="M174.5,-47.27C169.03,-38.05 162.58,-27.17 158.19,-19.75"/>
<polygon fill="midnightblue" stroke="midnightblue" points="171.61,-49.26 179.72,-56.08 177.63,-45.7 171.61,-49.26"/>
</g>
<!-- Node2&#45;&gt;Node5 -->
<g id="edge4" class="edge">
<title>Node2&#45;&gt;Node5</title>
<path fill="none" stroke="midnightblue" d="M232.27,-59.38C324.08,-48.46 524.53,-24.62 604.78,-15.07"/>
<polygon fill="midnightblue" stroke="midnightblue" points="231.67,-55.92 222.15,-60.58 232.5,-62.88 231.67,-55.92"/>
</g>
<!-- Node6&#45;&gt;Node2 -->
<g id="edge6" class="edge">
<title>Node6&#45;&gt;Node2</title>
<path fill="none" stroke="midnightblue" d="M231.73,-105.82C220.08,-96.15 205.4,-83.95 195.63,-75.83"/>
<polygon fill="midnightblue" stroke="midnightblue" points="229.63,-108.63 239.56,-112.32 234.1,-103.24 229.63,-108.63"/>
</g>
<!-- Node6&#45;&gt;Node4 -->
<g id="edge13" class="edge">
<title>Node6&#45;&gt;Node4</title>
<path fill="none" stroke="midnightblue" d="M207.56,-115.5C183.1,-109.91 154.27,-98.66 139,-76 127.26,-58.58 139.29,-33.07 147.22,-19.79"/>
<polygon fill="midnightblue" stroke="midnightblue" points="206.87,-118.93 217.37,-117.5 208.27,-112.07 206.87,-118.93"/>
</g>
<!-- Node6&#45;&gt;Node7 -->
<g id="edge7" class="edge">
<title>Node6&#45;&gt;Node7</title>
<path fill="none" stroke="midnightblue" d="M270.58,-106.38C284.31,-96.62 301.93,-84.11 313.57,-75.83"/>
<polygon fill="midnightblue" stroke="midnightblue" points="268.34,-103.68 262.21,-112.32 272.39,-109.38 268.34,-103.68"/>
</g>
<!-- Node6&#45;&gt;Node8 -->
<g id="edge8" class="edge">
<title>Node6&#45;&gt;Node8</title>
<path fill="none" stroke="midnightblue" d="M290.6,-109.7C327.22,-99.51 380.26,-84.74 413.4,-75.52"/>
<polygon fill="midnightblue" stroke="midnightblue" points="289.44,-106.39 280.74,-112.44 291.31,-113.13 289.44,-106.39"/>
</g>
<!-- Node6&#45;&gt;Node9 -->
<g id="edge9" class="edge">
<title>Node6&#45;&gt;Node9</title>
<path fill="none" stroke="midnightblue" d="M207.8,-109.83C169.28,-99.63 113.18,-84.78 78.17,-75.52"/>
<polygon fill="midnightblue" stroke="midnightblue" points="207.11,-113.27 217.68,-112.44 208.9,-106.5 207.11,-113.27"/>
</g>
<!-- Node6&#45;&gt;Node10 -->
<g id="edge12" class="edge">
<title>Node6&#45;&gt;Node10</title>
<path fill="none" stroke="midnightblue" d="M250.44,-102.41C251.83,-87.72 256.17,-67.79 269,-56 294.12,-32.92 387.16,-20.45 444.52,-14.82"/>
<polygon fill="midnightblue" stroke="midnightblue" points="246.95,-102.21 249.87,-112.4 253.94,-102.61 246.95,-102.21"/>
</g>
<!-- Node9&#45;&gt;Node4 -->
<g id="edge11" class="edge">
<title>Node9&#45;&gt;Node4</title>
<path fill="none" stroke="midnightblue" d="M72.3,-51.73C92.11,-41.73 118.71,-28.31 135.85,-19.65"/>
<polygon fill="midnightblue" stroke="midnightblue" points="70.54,-48.69 63.19,-56.32 73.7,-54.94 70.54,-48.69"/>
</g>
<!-- Node9&#45;&gt;Node10 -->
<g id="edge10" class="edge">
<title>Node9&#45;&gt;Node10</title>
<path fill="none" stroke="midnightblue" d="M102.54,-58.14C191.53,-47.34 362.59,-26.58 444.74,-16.61"/>
<polygon fill="midnightblue" stroke="midnightblue" points="101.87,-54.69 92.36,-59.37 102.71,-61.64 101.87,-54.69"/>
</g>
<!-- Node11&#45;&gt;Node3 -->
<g id="edge15" class="edge">
<title>Node11&#45;&gt;Node3</title>
<path fill="none" stroke="midnightblue" d="M536,-103.49C543.43,-89.19 550.06,-69.24 539,-56 512.45,-24.23 390,-14.85 327.27,-12.11"/>
<polygon fill="midnightblue" stroke="midnightblue" points="532.86,-101.92 530.93,-112.34 538.94,-105.4 532.86,-101.92"/>
</g>
<!-- Node11&#45;&gt;Node4 -->
<g id="edge19" class="edge">
<title>Node11&#45;&gt;Node4</title>
<path fill="none" stroke="midnightblue" d="M524.47,-102.13C522.98,-87.28 518.39,-67.27 505,-56 492.75,-45.68 268.03,-22.42 184.19,-14.06"/>
<polygon fill="midnightblue" stroke="midnightblue" points="520.98,-102.49 525.1,-112.25 527.97,-102.05 520.98,-102.49"/>
</g>
<!-- Node11&#45;&gt;Node5 -->
<g id="edge20" class="edge">
<title>Node11&#45;&gt;Node5</title>
<path fill="none" stroke="midnightblue" d="M550.17,-107.41C563.75,-99.36 580.28,-88.33 593,-76 611.07,-58.49 626.7,-33.02 634.22,-19.76"/>
<polygon fill="midnightblue" stroke="midnightblue" points="548.26,-104.47 541.33,-112.49 551.74,-110.54 548.26,-104.47"/>
</g>
<!-- Node11&#45;&gt;Node7 -->
<g id="edge16" class="edge">
<title>Node11&#45;&gt;Node7</title>
<path fill="none" stroke="midnightblue" d="M483.35,-109.7C445.79,-99.51 391.39,-84.74 357.38,-75.52"/>
<polygon fill="midnightblue" stroke="midnightblue" points="482.9,-113.2 493.47,-112.44 484.73,-106.45 482.9,-113.2"/>
</g>
<!-- Node11&#45;&gt;Node8 -->
<g id="edge17" class="edge">
<title>Node11&#45;&gt;Node8</title>
<path fill="none" stroke="midnightblue" d="M503.43,-106.62C488.64,-96.76 469.49,-83.99 456.98,-75.65"/>
<polygon fill="midnightblue" stroke="midnightblue" points="501.72,-109.69 511.99,-112.32 505.61,-103.86 501.72,-109.69"/>
</g>
<!-- Node11&#45;&gt;Node10 -->
<g id="edge18" class="edge">
<title>Node11&#45;&gt;Node10</title>
<path fill="none" stroke="midnightblue" d="M549.43,-106.82C567.93,-94.17 588.37,-74.78 577,-56 565.74,-37.4 543.99,-26.12 525.18,-19.51"/>
<polygon fill="midnightblue" stroke="midnightblue" points="547.43,-103.94 540.92,-112.3 551.22,-109.83 547.43,-103.94"/>
</g>
</g>
</svg>
