<?xml version="1.0" encoding="UTF-8" standalone="no"?>
<!DOCTYPE svg PUBLIC "-//W3C//DTD SVG 1.1//EN"
 "http://www.w3.org/Graphics/SVG/1.1/DTD/svg11.dtd">
<!-- Generated by graphviz version 2.42.3 (0)
 -->
<!-- Title: src/main.h Pages: 1 -->
<svg width="982pt" height="263pt"
 viewBox="0.00 0.00 981.50 263.00" xmlns="http://www.w3.org/2000/svg" xmlns:xlink="http://www.w3.org/1999/xlink">
<g id="graph0" class="graph" transform="scale(1 1) rotate(0) translate(4 259)">
<title>src/main.h</title>
<polygon fill="white" stroke="transparent" points="-4,4 -4,-259 977.5,-259 977.5,4 -4,4"/>
<!-- Node1 -->
<g id="node1" class="node">
<title>Node1</title>
<g id="a_node1"><a xlink:title="Contains the global constants and definitions.">
<polygon fill="#bfbfbf" stroke="black" points="466,-235.5 466,-254.5 528,-254.5 528,-235.5 466,-235.5"/>
<text text-anchor="middle" x="497" y="-242.5" font-family="Helvetica,sans-Serif" font-size="10.00">src/main.h</text>
</a>
</g>
</g>
<!-- Node2 -->
<g id="node2" class="node">
<title>Node2</title>
<g id="a_node2"><a xlink:href="analyze_8h.html" target="_top" xlink:title="Contains the structure definitions of wing_t and recordPoint_t">
<polygon fill="white" stroke="black" points="342,-56.5 342,-75.5 416,-75.5 416,-56.5 342,-56.5"/>
<text text-anchor="middle" x="379" y="-63.5" font-family="Helvetica,sans-Serif" font-size="10.00">src/analyze.h</text>
</a>
</g>
</g>
<!-- Node1&#45;&gt;Node2 -->
<g id="edge1" class="edge">
<title>Node1&#45;&gt;Node2</title>
<path fill="none" stroke="midnightblue" d="M495.99,-225.02C493.62,-197.39 485.67,-145.71 459,-112 445.16,-94.5 422.53,-82.69 404.86,-75.57"/>
<polygon fill="midnightblue" stroke="midnightblue" points="492.52,-225.54 496.71,-235.27 499.5,-225.05 492.52,-225.54"/>
</g>
<!-- Node5 -->
<g id="node5" class="node">
<title>Node5</title>
<g id="a_node5"><a xlink:href="output_8c.html" target="_top" xlink:title="Contains all functions used for writing flow solutions.">
<polygon fill="white" stroke="black" points="448,-0.5 448,-19.5 516,-19.5 516,-0.5 448,-0.5"/>
<text text-anchor="middle" x="482" y="-7.5" font-family="Helvetica,sans-Serif" font-size="10.00">src/output.c</text>
</a>
</g>
</g>
<!-- Node1&#45;&gt;Node5 -->
<g id="edge24" class="edge">
<title>Node1&#45;&gt;Node5</title>
<path fill="none" stroke="midnightblue" d="M507.42,-226.5C526.37,-192.25 562.11,-114.59 535,-56 527.5,-39.79 510.96,-27.28 498.33,-19.61"/>
<polygon fill="midnightblue" stroke="midnightblue" points="504.31,-224.9 502.38,-235.32 510.38,-228.38 504.31,-224.9"/>
</g>
<!-- Node6 -->
<g id="node6" class="node">
<title>Node6</title>
<g id="a_node6"><a xlink:href="mesh_8h_source.html" target="_top" xlink:title=" ">
<polygon fill="white" stroke="black" points="249.5,-174 249.5,-193 314.5,-193 314.5,-174 249.5,-174"/>
<text text-anchor="middle" x="282" y="-181" font-family="Helvetica,sans-Serif" font-size="10.00">src/mesh.h</text>
</a>
</g>
</g>
<!-- Node1&#45;&gt;Node6 -->
<g id="edge5" class="edge">
<title>Node1&#45;&gt;Node6</title>
<path fill="none" stroke="midnightblue" d="M456.35,-232.75C414.58,-221.19 350.48,-203.45 312.75,-193.01"/>
<polygon fill="midnightblue" stroke="midnightblue" points="455.62,-236.18 466.2,-235.48 457.49,-229.43 455.62,-236.18"/>
</g>
<!-- Node7 -->
<g id="node7" class="node">
<title>Node7</title>
<g id="a_node7"><a xlink:href="euler_2boundary_8h_source.html" target="_top" xlink:title=" ">
<polygon fill="white" stroke="black" points="110.5,-112.5 110.5,-131.5 215.5,-131.5 215.5,-112.5 110.5,-112.5"/>
<text text-anchor="middle" x="163" y="-119.5" font-family="Helvetica,sans-Serif" font-size="10.00">src/euler/boundary.h</text>
</a>
</g>
</g>
<!-- Node1&#45;&gt;Node7 -->
<g id="edge19" class="edge">
<title>Node1&#45;&gt;Node7</title>
<path fill="none" stroke="midnightblue" d="M455.84,-244.21C403,-242.88 309.82,-235.01 240,-199 207.95,-182.47 180.66,-147.99 169.02,-131.78"/>
<polygon fill="midnightblue" stroke="midnightblue" points="455.78,-247.71 465.85,-244.4 455.91,-240.71 455.78,-247.71"/>
</g>
<!-- Node8 -->
<g id="node8" class="node">
<title>Node8</title>
<g id="a_node8"><a xlink:href="linearSolver_8h_source.html" target="_top" xlink:title=" ">
<polygon fill="white" stroke="black" points="0,-112.5 0,-131.5 92,-131.5 92,-112.5 0,-112.5"/>
<text text-anchor="middle" x="46" y="-119.5" font-family="Helvetica,sans-Serif" font-size="10.00">src/linearSolver.h</text>
</a>
</g>
</g>
<!-- Node1&#45;&gt;Node8 -->
<g id="edge21" class="edge">
<title>Node1&#45;&gt;Node8</title>
<path fill="none" stroke="midnightblue" d="M455.6,-241.94C396.85,-238.09 286.49,-227.43 197,-199 143.3,-181.94 85.21,-147.72 59.52,-131.68"/>
<polygon fill="midnightblue" stroke="midnightblue" points="455.41,-245.43 465.6,-242.56 455.84,-238.45 455.41,-245.43"/>
</g>
<!-- Node9 -->
<g id="node9" class="node">
<title>Node9</title>
<g id="a_node9"><a xlink:href="navierstokes_2boundary_8h_source.html" target="_top" xlink:title=" ">
<polygon fill="white" stroke="black" points="310,-112.5 310,-131.5 450,-131.5 450,-112.5 310,-112.5"/>
<text text-anchor="middle" x="380" y="-119.5" font-family="Helvetica,sans-Serif" font-size="10.00">src/navierstokes/boundary.h</text>
</a>
</g>
</g>
<!-- Node1&#45;&gt;Node9 -->
<g id="edge22" class="edge">
<title>Node1&#45;&gt;Node9</title>
<path fill="none" stroke="midnightblue" d="M481.31,-227.77C456.17,-201.78 407.74,-151.69 388.34,-131.62"/>
<polygon fill="midnightblue" stroke="midnightblue" points="479.12,-230.54 488.59,-235.3 484.15,-225.68 479.12,-230.54"/>
</g>
<!-- Node10 -->
<g id="node10" class="node">
<title>Node10</title>
<g id="a_node10"><a xlink:href="readInTools_8h.html" target="_top" xlink:title=" ">
<polygon fill="white" stroke="black" points="434.5,-56.5 434.5,-75.5 525.5,-75.5 525.5,-56.5 434.5,-56.5"/>
<text text-anchor="middle" x="480" y="-63.5" font-family="Helvetica,sans-Serif" font-size="10.00">src/readInTools.h</text>
</a>
</g>
</g>
<!-- Node1&#45;&gt;Node10 -->
<g id="edge15" class="edge">
<title>Node1&#45;&gt;Node10</title>
<path fill="none" stroke="midnightblue" d="M497.6,-225.1C498.11,-199.36 498,-151.92 492,-112 490.05,-99.05 485.76,-84.47 482.88,-75.51"/>
<polygon fill="midnightblue" stroke="midnightblue" points="494.09,-225.2 497.34,-235.29 501.09,-225.38 494.09,-225.2"/>
</g>
<!-- Node11 -->
<g id="node11" class="node">
<title>Node11</title>
<g id="a_node11"><a xlink:href="euler_2equationOfState_8h_source.html" target="_top" xlink:title=" ">
<polygon fill="white" stroke="black" points="582,-174 582,-193 718,-193 718,-174 582,-174"/>
<text text-anchor="middle" x="650" y="-181" font-family="Helvetica,sans-Serif" font-size="10.00">src/euler/equationOfState.h</text>
</a>
</g>
</g>
<!-- Node1&#45;&gt;Node11 -->
<g id="edge20" class="edge">
<title>Node1&#45;&gt;Node11</title>
<path fill="none" stroke="midnightblue" d="M528.42,-231.78C558.15,-220.22 602.01,-203.16 628.12,-193.01"/>
<polygon fill="midnightblue" stroke="midnightblue" points="526.97,-228.59 518.92,-235.48 529.51,-235.11 526.97,-228.59"/>
</g>
<!-- Node12 -->
<g id="node12" class="node">
<title>Node12</title>
<g id="a_node12"><a xlink:href="navierstokes_2equationOfState_8h_source.html" target="_top" xlink:title=" ">
<polygon fill="white" stroke="black" points="736,-168.5 736,-198.5 864,-198.5 864,-168.5 736,-168.5"/>
<text text-anchor="start" x="744" y="-186.5" font-family="Helvetica,sans-Serif" font-size="10.00">src/navierstokes/equation</text>
<text text-anchor="middle" x="800" y="-175.5" font-family="Helvetica,sans-Serif" font-size="10.00">OfState.h</text>
</a>
</g>
</g>
<!-- Node1&#45;&gt;Node12 -->
<g id="edge23" class="edge">
<title>Node1&#45;&gt;Node12</title>
<path fill="none" stroke="midnightblue" d="M538.15,-235.99C584.18,-227.01 660.94,-212.02 727,-199 729.92,-198.43 732.9,-197.84 735.91,-197.24"/>
<polygon fill="midnightblue" stroke="midnightblue" points="537.4,-232.57 528.26,-237.91 538.74,-239.44 537.4,-232.57"/>
</g>
<!-- Node13 -->
<g id="node13" class="node">
<title>Node13</title>
<g id="a_node13"><a xlink:href="readInTools_8c.html" target="_top" xlink:title="Provides functions for reading data from the .ini parameter file.">
<polygon fill="white" stroke="black" points="882.5,-174 882.5,-193 973.5,-193 973.5,-174 882.5,-174"/>
<text text-anchor="middle" x="928" y="-181" font-family="Helvetica,sans-Serif" font-size="10.00">src/readInTools.c</text>
</a>
</g>
</g>
<!-- Node1&#45;&gt;Node13 -->
<g id="edge25" class="edge">
<title>Node1&#45;&gt;Node13</title>
<path fill="none" stroke="midnightblue" d="M538.54,-240.92C608.16,-235.34 752.6,-221.96 873,-199 881.44,-197.39 890.49,-195.2 898.77,-193.01"/>
<polygon fill="midnightblue" stroke="midnightblue" points="538.12,-237.45 528.42,-241.72 538.67,-244.42 538.12,-237.45"/>
</g>
<!-- Node3 -->
<g id="node3" class="node">
<title>Node3</title>
<g id="a_node3"><a xlink:href="analyze_8c.html" target="_top" xlink:title="Contains functions for analyzing flow results.">
<polygon fill="white" stroke="black" points="356,-0.5 356,-19.5 430,-19.5 430,-0.5 356,-0.5"/>
<text text-anchor="middle" x="393" y="-7.5" font-family="Helvetica,sans-Serif" font-size="10.00">src/analyze.c</text>
</a>
</g>
</g>
<!-- Node2&#45;&gt;Node3 -->
<g id="edge2" class="edge">
<title>Node2&#45;&gt;Node3</title>
<path fill="none" stroke="midnightblue" d="M383.82,-46.4C386.17,-37.36 388.87,-26.94 390.73,-19.75"/>
<polygon fill="midnightblue" stroke="midnightblue" points="380.43,-45.52 381.31,-56.08 387.21,-47.28 380.43,-45.52"/>
</g>
<!-- Node4 -->
<g id="node4" class="node">
<title>Node4</title>
<g id="a_node4"><a xlink:href="main_8c.html" target="_top" xlink:title="Contains the main function of ccfd">
<polygon fill="white" stroke="black" points="276,-0.5 276,-19.5 338,-19.5 338,-0.5 276,-0.5"/>
<text text-anchor="middle" x="307" y="-7.5" font-family="Helvetica,sans-Serif" font-size="10.00">src/main.c</text>
</a>
</g>
</g>
<!-- Node2&#45;&gt;Node4 -->
<g id="edge3" class="edge">
<title>Node2&#45;&gt;Node4</title>
<path fill="none" stroke="midnightblue" d="M359.13,-50.1C346.18,-40.38 329.7,-28.03 318.78,-19.83"/>
<polygon fill="midnightblue" stroke="midnightblue" points="357.33,-53.12 367.43,-56.32 361.53,-47.52 357.33,-53.12"/>
</g>
<!-- Node2&#45;&gt;Node5 -->
<g id="edge4" class="edge">
<title>Node2&#45;&gt;Node5</title>
<path fill="none" stroke="midnightblue" d="M404.58,-51.59C423.62,-41.61 449.06,-28.27 465.49,-19.65"/>
<polygon fill="midnightblue" stroke="midnightblue" points="402.78,-48.58 395.55,-56.32 406.03,-54.78 402.78,-48.58"/>
</g>
<!-- Node6&#45;&gt;Node2 -->
<g id="edge6" class="edge">
<title>Node6&#45;&gt;Node2</title>
<path fill="none" stroke="midnightblue" d="M283.18,-163.45C284.99,-148.18 289.55,-126.9 301,-112 314.43,-94.52 336.73,-82.65 354.05,-75.5"/>
<polygon fill="midnightblue" stroke="midnightblue" points="279.66,-163.49 282.26,-173.76 286.63,-164.11 279.66,-163.49"/>
</g>
<!-- Node6&#45;&gt;Node4 -->
<g id="edge10" class="edge">
<title>Node6&#45;&gt;Node4</title>
<path fill="none" stroke="midnightblue" d="M282.69,-163.77C283.37,-149.52 284.66,-129.47 287,-112 291.63,-77.45 300.81,-36.93 304.92,-19.59"/>
<polygon fill="midnightblue" stroke="midnightblue" points="279.19,-163.64 282.27,-173.78 286.19,-163.94 279.19,-163.64"/>
</g>
<!-- Node6&#45;&gt;Node7 -->
<g id="edge7" class="edge">
<title>Node6&#45;&gt;Node7</title>
<path fill="none" stroke="midnightblue" d="M255.73,-169.37C232.67,-157.83 199.8,-141.4 180.02,-131.51"/>
<polygon fill="midnightblue" stroke="midnightblue" points="254.44,-172.63 264.95,-173.98 257.57,-166.37 254.44,-172.63"/>
</g>
<!-- Node6&#45;&gt;Node8 -->
<g id="edge8" class="edge">
<title>Node6&#45;&gt;Node8</title>
<path fill="none" stroke="midnightblue" d="M239.29,-171.73C193.62,-160.22 122.11,-142.19 80.06,-131.59"/>
<polygon fill="midnightblue" stroke="midnightblue" points="238.63,-175.18 249.19,-174.23 240.34,-168.39 238.63,-175.18"/>
</g>
<!-- Node6&#45;&gt;Node9 -->
<g id="edge11" class="edge">
<title>Node6&#45;&gt;Node9</title>
<path fill="none" stroke="midnightblue" d="M299.82,-168.11C317.24,-156.67 343.3,-141.05 361.09,-131.51"/>
<polygon fill="midnightblue" stroke="midnightblue" points="297.47,-165.48 291.14,-173.98 301.39,-171.28 297.47,-165.48"/>
</g>
<!-- Node8&#45;&gt;Node4 -->
<g id="edge9" class="edge">
<title>Node8&#45;&gt;Node4</title>
<path fill="none" stroke="midnightblue" d="M75.79,-108.45C129.39,-85.86 240.77,-38.91 286.61,-19.59"/>
<polygon fill="midnightblue" stroke="midnightblue" points="74.34,-105.26 66.48,-112.37 77.05,-111.71 74.34,-105.26"/>
</g>
<!-- Node9&#45;&gt;Node2 -->
<g id="edge12" class="edge">
<title>Node9&#45;&gt;Node2</title>
<path fill="none" stroke="midnightblue" d="M379.64,-101.8C379.48,-92.91 379.29,-82.78 379.16,-75.75"/>
<polygon fill="midnightblue" stroke="midnightblue" points="376.15,-102.15 379.83,-112.08 383.15,-102.02 376.15,-102.15"/>
</g>
<!-- Node9&#45;&gt;Node4 -->
<g id="edge14" class="edge">
<title>Node9&#45;&gt;Node4</title>
<path fill="none" stroke="midnightblue" d="M360.87,-106.04C351.5,-97.94 340.63,-87.3 333,-76 320.62,-57.67 312.7,-32.55 309.16,-19.56"/>
<polygon fill="midnightblue" stroke="midnightblue" points="358.67,-108.76 368.6,-112.45 363.14,-103.37 358.67,-108.76"/>
</g>
<!-- Node9&#45;&gt;Node6 -->
<g id="edge13" class="edge">
<title>Node9&#45;&gt;Node6</title>
<path fill="none" stroke="midnightblue" d="M362.21,-137.37C344.8,-148.81 318.74,-164.43 300.94,-173.98"/>
<polygon fill="midnightblue" stroke="midnightblue" points="364.55,-140.01 370.88,-131.51 360.64,-134.21 364.55,-140.01"/>
</g>
<!-- Node10&#45;&gt;Node3 -->
<g id="edge16" class="edge">
<title>Node10&#45;&gt;Node3</title>
<path fill="none" stroke="midnightblue" d="M457.28,-50.9C441.33,-41 420.5,-28.07 406.94,-19.65"/>
<polygon fill="midnightblue" stroke="midnightblue" points="455.68,-54.02 466.02,-56.32 459.37,-48.08 455.68,-54.02"/>
</g>
<!-- Node10&#45;&gt;Node4 -->
<g id="edge17" class="edge">
<title>Node10&#45;&gt;Node4</title>
<path fill="none" stroke="midnightblue" d="M442.95,-53.44C410.34,-43.26 363.59,-28.66 334.28,-19.52"/>
<polygon fill="midnightblue" stroke="midnightblue" points="442,-56.8 452.59,-56.44 444.08,-50.12 442,-56.8"/>
</g>
<!-- Node10&#45;&gt;Node5 -->
<g id="edge18" class="edge">
<title>Node10&#45;&gt;Node5</title>
<path fill="none" stroke="midnightblue" d="M480.71,-45.8C481.04,-36.91 481.42,-26.78 481.68,-19.75"/>
<polygon fill="midnightblue" stroke="midnightblue" points="477.2,-45.96 480.33,-56.08 484.2,-46.22 477.2,-45.96"/>
</g>
</g>
</svg>
