<?xml version="1.0" encoding="UTF-8" standalone="no"?>
<!DOCTYPE svg PUBLIC "-//W3C//DTD SVG 1.1//EN"
 "http://www.w3.org/Graphics/SVG/1.1/DTD/svg11.dtd">
<!-- Generated by graphviz version 2.42.3 (0)
 -->
<!-- Title: src/main.h Pages: 1 -->
<svg width="913pt" height="196pt"
 viewBox="0.00 0.00 912.50 196.00" xmlns="http://www.w3.org/2000/svg" xmlns:xlink="http://www.w3.org/1999/xlink">
<g id="graph0" class="graph" transform="scale(1 1) rotate(0) translate(4 192)">
<title>src/main.h</title>
<polygon fill="white" stroke="transparent" points="-4,4 -4,-192 908.5,-192 908.5,4 -4,4"/>
<!-- Node1 -->
<g id="node1" class="node">
<title>Node1</title>
<g id="a_node1"><a xlink:title="Contains the global constants and definitions.">
<polygon fill="#bfbfbf" stroke="black" points="448,-168.5 448,-187.5 510,-187.5 510,-168.5 448,-168.5"/>
<text text-anchor="middle" x="479" y="-175.5" font-family="Helvetica,sans-Serif" font-size="10.00">src/main.h</text>
</a>
</g>
</g>
<!-- Node2 -->
<g id="node2" class="node">
<title>Node2</title>
<g id="a_node2"><a xlink:href="analyze_8h.html" target="_top" xlink:title="Contains the structure definitions of wing_t and recordPoint_t">
<polygon fill="white" stroke="black" points="62,-56.5 62,-75.5 136,-75.5 136,-56.5 62,-56.5"/>
<text text-anchor="middle" x="99" y="-63.5" font-family="Helvetica,sans-Serif" font-size="10.00">src/analyze.h</text>
</a>
</g>
</g>
<!-- Node1&#45;&gt;Node2 -->
<g id="edge1" class="edge">
<title>Node1&#45;&gt;Node2</title>
<path fill="none" stroke="midnightblue" d="M437.84,-173.7C386.43,-168.7 296.33,-156.99 223,-132 180.21,-117.42 134.14,-89.71 112.14,-75.65"/>
<polygon fill="midnightblue" stroke="midnightblue" points="437.61,-177.2 447.89,-174.64 438.26,-170.23 437.61,-177.2"/>
</g>
<!-- Node5 -->
<g id="node5" class="node">
<title>Node5</title>
<g id="a_node5"><a xlink:href="output_8c.html" target="_top" xlink:title="Contains all functions used for writing flow solutions.">
<polygon fill="white" stroke="black" points="0,-0.5 0,-19.5 68,-19.5 68,-0.5 0,-0.5"/>
<text text-anchor="middle" x="34" y="-7.5" font-family="Helvetica,sans-Serif" font-size="10.00">src/output.c</text>
</a>
</g>
</g>
<!-- Node1&#45;&gt;Node5 -->
<g id="edge28" class="edge">
<title>Node1&#45;&gt;Node5</title>
<path fill="none" stroke="midnightblue" d="M437.67,-174.08C378.41,-169.19 266.29,-157.27 174,-132 110.56,-114.63 74.92,-129.75 37,-76 25.02,-59.02 28.71,-32.87 31.73,-19.5"/>
<polygon fill="midnightblue" stroke="midnightblue" points="437.51,-177.58 447.75,-174.89 438.06,-170.6 437.51,-177.58"/>
</g>
<!-- Node6 -->
<g id="node6" class="node">
<title>Node6</title>
<g id="a_node6"><a xlink:href="mesh_8h.html" target="_top" xlink:title="Contains the definitions of all structs for the mesh handling.">
<polygon fill="white" stroke="black" points="472.5,-112.5 472.5,-131.5 537.5,-131.5 537.5,-112.5 472.5,-112.5"/>
<text text-anchor="middle" x="505" y="-119.5" font-family="Helvetica,sans-Serif" font-size="10.00">src/mesh.h</text>
</a>
</g>
</g>
<!-- Node1&#45;&gt;Node6 -->
<g id="edge5" class="edge">
<title>Node1&#45;&gt;Node6</title>
<path fill="none" stroke="midnightblue" d="M487.67,-158.98C492.09,-149.82 497.25,-139.09 500.79,-131.75"/>
<polygon fill="midnightblue" stroke="midnightblue" points="484.48,-157.55 483.29,-168.08 490.79,-160.59 484.48,-157.55"/>
</g>
<!-- Node7 -->
<g id="node7" class="node">
<title>Node7</title>
<g id="a_node7"><a xlink:href="finiteVolume_8c.html" target="_top" xlink:title="Finite volume time derivative functions.">
<polygon fill="white" stroke="black" points="268.5,-56.5 268.5,-75.5 363.5,-75.5 363.5,-56.5 268.5,-56.5"/>
<text text-anchor="middle" x="316" y="-63.5" font-family="Helvetica,sans-Serif" font-size="10.00">src/finiteVolume.c</text>
</a>
</g>
</g>
<!-- Node1&#45;&gt;Node7 -->
<g id="edge23" class="edge">
<title>Node1&#45;&gt;Node7</title>
<path fill="none" stroke="midnightblue" d="M457.83,-162.71C423.48,-139.53 356.65,-94.43 328.73,-75.59"/>
<polygon fill="midnightblue" stroke="midnightblue" points="455.96,-165.68 466.21,-168.37 459.88,-159.87 455.96,-165.68"/>
</g>
<!-- Node8 -->
<g id="node8" class="node">
<title>Node8</title>
<g id="a_node8"><a xlink:href="initialCondition_8c.html" target="_top" xlink:title="Functions involving the initialization and application of initial conditions.">
<polygon fill="white" stroke="black" points="381.5,-56.5 381.5,-75.5 486.5,-75.5 486.5,-56.5 381.5,-56.5"/>
<text text-anchor="middle" x="434" y="-63.5" font-family="Helvetica,sans-Serif" font-size="10.00">src/initialCondition.c</text>
</a>
</g>
</g>
<!-- Node1&#45;&gt;Node8 -->
<g id="edge24" class="edge">
<title>Node1&#45;&gt;Node8</title>
<path fill="none" stroke="midnightblue" d="M471.64,-159C461.82,-135 444.83,-93.47 437.51,-75.59"/>
<polygon fill="midnightblue" stroke="midnightblue" points="468.44,-160.44 475.47,-168.37 474.92,-157.79 468.44,-160.44"/>
</g>
<!-- Node9 -->
<g id="node9" class="node">
<title>Node9</title>
<g id="a_node9"><a xlink:href="linearSolver_8h.html" target="_top" xlink:title=" ">
<polygon fill="white" stroke="black" points="665,-56.5 665,-75.5 757,-75.5 757,-56.5 665,-56.5"/>
<text text-anchor="middle" x="711" y="-63.5" font-family="Helvetica,sans-Serif" font-size="10.00">src/linearSolver.h</text>
</a>
</g>
</g>
<!-- Node1&#45;&gt;Node9 -->
<g id="edge26" class="edge">
<title>Node1&#45;&gt;Node9</title>
<path fill="none" stroke="midnightblue" d="M506.37,-164.02C554.35,-141.27 652.39,-94.79 692.88,-75.59"/>
<polygon fill="midnightblue" stroke="midnightblue" points="504.74,-160.92 497.2,-168.37 507.74,-167.25 504.74,-160.92"/>
</g>
<!-- Node10 -->
<g id="node10" class="node">
<title>Node10</title>
<g id="a_node10"><a xlink:href="linearSolver_8c.html" target="_top" xlink:title="Contains the functions for solving the linear system of equations during implicit calculations.">
<polygon fill="white" stroke="black" points="586,-0.5 586,-19.5 678,-19.5 678,-0.5 586,-0.5"/>
<text text-anchor="middle" x="632" y="-7.5" font-family="Helvetica,sans-Serif" font-size="10.00">src/linearSolver.c</text>
</a>
</g>
</g>
<!-- Node1&#45;&gt;Node10 -->
<g id="edge25" class="edge">
<title>Node1&#45;&gt;Node10</title>
<path fill="none" stroke="midnightblue" d="M520.29,-176.42C585.27,-172.99 709.78,-155.74 766,-76 790.88,-40.71 726.28,-23.8 678.35,-16.31"/>
<polygon fill="midnightblue" stroke="midnightblue" points="519.85,-172.93 510.01,-176.87 520.15,-179.93 519.85,-172.93"/>
</g>
<!-- Node11 -->
<g id="node11" class="node">
<title>Node11</title>
<g id="a_node11"><a xlink:href="mesh_8c.html" target="_top" xlink:title="Contains all the functions for reading and creating meshes.">
<polygon fill="white" stroke="black" points="581.5,-56.5 581.5,-75.5 646.5,-75.5 646.5,-56.5 581.5,-56.5"/>
<text text-anchor="middle" x="614" y="-63.5" font-family="Helvetica,sans-Serif" font-size="10.00">src/mesh.c</text>
</a>
</g>
</g>
<!-- Node1&#45;&gt;Node11 -->
<g id="edge27" class="edge">
<title>Node1&#45;&gt;Node11</title>
<path fill="none" stroke="midnightblue" d="M502.29,-163.09C515.78,-154.67 532.84,-143.39 547,-132 569.98,-113.51 594.15,-88.46 606.2,-75.52"/>
<polygon fill="midnightblue" stroke="midnightblue" points="500.29,-160.21 493.6,-168.43 503.96,-166.18 500.29,-160.21"/>
</g>
<!-- Node12 -->
<g id="node12" class="node">
<title>Node12</title>
<g id="a_node12"><a xlink:href="readInTools_8h.html" target="_top" xlink:title=" ">
<polygon fill="white" stroke="black" points="232.5,-112.5 232.5,-131.5 323.5,-131.5 323.5,-112.5 232.5,-112.5"/>
<text text-anchor="middle" x="278" y="-119.5" font-family="Helvetica,sans-Serif" font-size="10.00">src/readInTools.h</text>
</a>
</g>
</g>
<!-- Node1&#45;&gt;Node12 -->
<g id="edge15" class="edge">
<title>Node1&#45;&gt;Node12</title>
<path fill="none" stroke="midnightblue" d="M437.88,-165.95C399.97,-155.77 344.49,-140.86 309.85,-131.56"/>
<polygon fill="midnightblue" stroke="midnightblue" points="437.03,-169.35 447.59,-168.56 438.84,-162.59 437.03,-169.35"/>
</g>
<!-- Node13 -->
<g id="node13" class="node">
<title>Node13</title>
<g id="a_node13"><a xlink:href="readInTools_8c.html" target="_top" xlink:title="Provides functions for reading data from the .ini parameter file.">
<polygon fill="white" stroke="black" points="813.5,-112.5 813.5,-131.5 904.5,-131.5 904.5,-112.5 813.5,-112.5"/>
<text text-anchor="middle" x="859" y="-119.5" font-family="Helvetica,sans-Serif" font-size="10.00">src/readInTools.c</text>
</a>
</g>
</g>
<!-- Node1&#45;&gt;Node13 -->
<g id="edge29" class="edge">
<title>Node1&#45;&gt;Node13</title>
<path fill="none" stroke="midnightblue" d="M520.36,-171.31C581.35,-162.88 699.02,-146.53 799,-132 803.69,-131.32 808.59,-130.6 813.47,-129.87"/>
<polygon fill="midnightblue" stroke="midnightblue" points="519.78,-167.85 510.35,-172.69 520.74,-174.79 519.78,-167.85"/>
</g>
<!-- Node3 -->
<g id="node3" class="node">
<title>Node3</title>
<g id="a_node3"><a xlink:href="analyze_8c.html" target="_top" xlink:title="Contains functions for analyzing flow results.">
<polygon fill="white" stroke="black" points="107,-0.5 107,-19.5 181,-19.5 181,-0.5 107,-0.5"/>
<text text-anchor="middle" x="144" y="-7.5" font-family="Helvetica,sans-Serif" font-size="10.00">src/analyze.c</text>
</a>
</g>
</g>
<!-- Node2&#45;&gt;Node3 -->
<g id="edge2" class="edge">
<title>Node2&#45;&gt;Node3</title>
<path fill="none" stroke="midnightblue" d="M113.05,-48.14C120.89,-38.74 130.33,-27.4 136.71,-19.75"/>
<polygon fill="midnightblue" stroke="midnightblue" points="110.14,-46.16 106.43,-56.08 115.52,-50.64 110.14,-46.16"/>
</g>
<!-- Node4 -->
<g id="node4" class="node">
<title>Node4</title>
<g id="a_node4"><a xlink:href="main_8c.html" target="_top" xlink:title="Contains the main function of ccfd">
<polygon fill="white" stroke="black" points="392,-0.5 392,-19.5 454,-19.5 454,-0.5 392,-0.5"/>
<text text-anchor="middle" x="423" y="-7.5" font-family="Helvetica,sans-Serif" font-size="10.00">src/main.c</text>
</a>
</g>
</g>
<!-- Node2&#45;&gt;Node4 -->
<g id="edge3" class="edge">
<title>Node2&#45;&gt;Node4</title>
<path fill="none" stroke="midnightblue" d="M146.05,-57.16C213.11,-45.98 334.39,-25.77 391.56,-16.24"/>
<polygon fill="midnightblue" stroke="midnightblue" points="145.46,-53.71 136.17,-58.81 146.61,-60.61 145.46,-53.71"/>
</g>
<!-- Node2&#45;&gt;Node5 -->
<g id="edge4" class="edge">
<title>Node2&#45;&gt;Node5</title>
<path fill="none" stroke="midnightblue" d="M80.73,-49.82C69.08,-40.15 54.4,-27.95 44.63,-19.83"/>
<polygon fill="midnightblue" stroke="midnightblue" points="78.63,-52.63 88.56,-56.32 83.1,-47.24 78.63,-52.63"/>
</g>
<!-- Node6&#45;&gt;Node2 -->
<g id="edge6" class="edge">
<title>Node6&#45;&gt;Node2</title>
<path fill="none" stroke="midnightblue" d="M462.26,-115.32C382.32,-104.68 211.44,-81.96 136.05,-71.93"/>
<polygon fill="midnightblue" stroke="midnightblue" points="462.09,-118.82 472.46,-116.67 463.01,-111.88 462.09,-118.82"/>
</g>
<!-- Node6&#45;&gt;Node4 -->
<g id="edge13" class="edge">
<title>Node6&#45;&gt;Node4</title>
<path fill="none" stroke="midnightblue" d="M506.49,-101.93C506.65,-88.12 504.85,-69.57 496,-56 484.61,-38.54 463.85,-26.72 447.37,-19.59"/>
<polygon fill="midnightblue" stroke="midnightblue" points="502.98,-102.05 506.02,-112.2 509.98,-102.37 502.98,-102.05"/>
</g>
<!-- Node6&#45;&gt;Node7 -->
<g id="edge7" class="edge">
<title>Node6&#45;&gt;Node7</title>
<path fill="none" stroke="midnightblue" d="M464.99,-109.57C429.33,-99.38 377.96,-84.7 345.81,-75.52"/>
<polygon fill="midnightblue" stroke="midnightblue" points="464.48,-113.06 475.05,-112.44 466.4,-106.33 464.48,-113.06"/>
</g>
<!-- Node6&#45;&gt;Node8 -->
<g id="edge8" class="edge">
<title>Node6&#45;&gt;Node8</title>
<path fill="none" stroke="midnightblue" d="M485.41,-106.1C472.63,-96.38 456.39,-84.03 445.61,-75.83"/>
<polygon fill="midnightblue" stroke="midnightblue" points="483.51,-109.06 493.59,-112.32 487.75,-103.48 483.51,-109.06"/>
</g>
<!-- Node6&#45;&gt;Node9 -->
<g id="edge9" class="edge">
<title>Node6&#45;&gt;Node9</title>
<path fill="none" stroke="midnightblue" d="M547.62,-109.83C586.51,-99.63 643.16,-84.78 678.51,-75.52"/>
<polygon fill="midnightblue" stroke="midnightblue" points="546.43,-106.52 537.64,-112.44 548.2,-113.29 546.43,-106.52"/>
</g>
<!-- Node6&#45;&gt;Node10 -->
<g id="edge12" class="edge">
<title>Node6&#45;&gt;Node10</title>
<path fill="none" stroke="midnightblue" d="M520.62,-105.11C534.11,-91.62 554.32,-71.97 573,-56 588.67,-42.61 607.8,-28.38 619.94,-19.59"/>
<polygon fill="midnightblue" stroke="midnightblue" points="518.07,-102.7 513.51,-112.27 523.04,-107.63 518.07,-102.7"/>
</g>
<!-- Node6&#45;&gt;Node11 -->
<g id="edge14" class="edge">
<title>Node6&#45;&gt;Node11</title>
<path fill="none" stroke="midnightblue" d="M531.52,-107.86C551.73,-97.85 578.99,-84.35 596.53,-75.65"/>
<polygon fill="midnightblue" stroke="midnightblue" points="529.92,-104.75 522.51,-112.32 533.03,-111.02 529.92,-104.75"/>
</g>
<!-- Node9&#45;&gt;Node4 -->
<g id="edge11" class="edge">
<title>Node9&#45;&gt;Node4</title>
<path fill="none" stroke="midnightblue" d="M655.32,-54.56C595.44,-43.33 502.37,-25.88 454.22,-16.85"/>
<polygon fill="midnightblue" stroke="midnightblue" points="654.89,-58.04 665.37,-56.44 656.18,-51.16 654.89,-58.04"/>
</g>
<!-- Node9&#45;&gt;Node10 -->
<g id="edge10" class="edge">
<title>Node9&#45;&gt;Node10</title>
<path fill="none" stroke="midnightblue" d="M689.97,-50.62C675.53,-40.76 656.86,-27.99 644.66,-19.65"/>
<polygon fill="midnightblue" stroke="midnightblue" points="688.08,-53.57 698.31,-56.32 692.03,-47.79 688.08,-53.57"/>
</g>
<!-- Node12&#45;&gt;Node3 -->
<g id="edge16" class="edge">
<title>Node12&#45;&gt;Node3</title>
<path fill="none" stroke="midnightblue" d="M243.16,-108.53C225.34,-100.99 204.07,-90.09 188,-76 169.14,-59.47 154.66,-33.12 148.01,-19.61"/>
<polygon fill="midnightblue" stroke="midnightblue" points="242.07,-111.86 252.66,-112.37 244.7,-105.38 242.07,-111.86"/>
</g>
<!-- Node12&#45;&gt;Node4 -->
<g id="edge20" class="edge">
<title>Node12&#45;&gt;Node4</title>
<path fill="none" stroke="midnightblue" d="M253.67,-106.87C234.11,-93.71 212.02,-73.54 226,-56 246.39,-30.42 341.63,-18.23 391.83,-13.49"/>
<polygon fill="midnightblue" stroke="midnightblue" points="252.02,-109.97 262.34,-112.39 255.78,-104.06 252.02,-109.97"/>
</g>
<!-- Node12&#45;&gt;Node5 -->
<g id="edge22" class="edge">
<title>Node12&#45;&gt;Node5</title>
<path fill="none" stroke="midnightblue" d="M222.2,-116.41C163.79,-110.49 77.24,-98.22 53,-76 36.88,-61.22 34.15,-33.61 33.87,-19.61"/>
<polygon fill="midnightblue" stroke="midnightblue" points="222.1,-119.92 232.4,-117.41 222.78,-112.95 222.1,-119.92"/>
</g>
<!-- Node12&#45;&gt;Node7 -->
<g id="edge17" class="edge">
<title>Node12&#45;&gt;Node7</title>
<path fill="none" stroke="midnightblue" d="M290.06,-103.86C296.64,-94.5 304.51,-83.33 309.84,-75.75"/>
<polygon fill="midnightblue" stroke="midnightblue" points="287.17,-101.89 284.27,-112.08 292.89,-105.92 287.17,-101.89"/>
</g>
<!-- Node12&#45;&gt;Node8 -->
<g id="edge18" class="edge">
<title>Node12&#45;&gt;Node8</title>
<path fill="none" stroke="midnightblue" d="M312.17,-109.17C341.54,-99 383.2,-84.59 409.4,-75.52"/>
<polygon fill="midnightblue" stroke="midnightblue" points="311.02,-105.86 302.72,-112.44 313.31,-112.48 311.02,-105.86"/>
</g>
<!-- Node12&#45;&gt;Node10 -->
<g id="edge19" class="edge">
<title>Node12&#45;&gt;Node10</title>
<path fill="none" stroke="midnightblue" d="M265.08,-103.85C255.94,-89.49 247.23,-69.28 259,-56 280.37,-31.9 490.77,-18.2 585.82,-13.2"/>
<polygon fill="midnightblue" stroke="midnightblue" points="262.36,-106.08 270.93,-112.31 268.12,-102.09 262.36,-106.08"/>
</g>
<!-- Node12&#45;&gt;Node11 -->
<g id="edge21" class="edge">
<title>Node12&#45;&gt;Node11</title>
<path fill="none" stroke="midnightblue" d="M333.71,-112.05C404.27,-100.71 523.59,-81.53 581.08,-72.29"/>
<polygon fill="midnightblue" stroke="midnightblue" points="332.98,-108.62 323.66,-113.66 334.09,-115.53 332.98,-108.62"/>
</g>
</g>
</svg>
