<?xml version="1.0" encoding="UTF-8" standalone="no"?>
<!DOCTYPE svg PUBLIC "-//W3C//DTD SVG 1.1//EN"
 "http://www.w3.org/Graphics/SVG/1.1/DTD/svg11.dtd">
<!-- Generated by graphviz version 2.42.3 (0)
 -->
<!-- Title: src/mesh.h Pages: 1 -->
<!--zoomable 196 -->
<svg id="main" version="1.1" xmlns="http://www.w3.org/2000/svg" xmlns:xlink="http://www.w3.org/1999/xlink" xml:space="preserve" onload="init(evt)">
<style type="text/css"><![CDATA[
.edge:hover path { stroke: red; }
.edge:hover polygon { stroke: red; fill: red; }
]]></style>
<script type="text/javascript"><![CDATA[
var edges = document.getElementsByTagName('g');
if (edges && edges.length) {
  for (var i=0;i<edges.length;i++) {
    if (edges[i].id.substr(0,4)=='edge') {
      edges[i].setAttribute('class','edge');
    }
  }
}
]]></script>
        <defs>
                <circle id="rim" cx="0" cy="0" r="7"/>
                <circle id="rim2" cx="0" cy="0" r="3.5"/>
                <g id="zoomPlus">
                        <use xlink:href="#rim" fill="#404040">
                                <set attributeName="fill" to="#808080" begin="zoomplus.mouseover" end="zoomplus.mouseout"/>
                        </use>
                        <path d="M-4,0h8M0,-4v8" fill="none" stroke="white" stroke-width="1.5" pointer-events="none"/>
                </g>
                <g id="zoomMin">
                        <use xlink:href="#rim" fill="#404040">
                                <set attributeName="fill" to="#808080" begin="zoomminus.mouseover" end="zoomminus.mouseout"/>
                        </use>
                        <path d="M-4,0h8" fill="none" stroke="white" stroke-width="1.5" pointer-events="none"/>
                </g>
                <g id="dirArrow">
                        <path fill="none" stroke="white" stroke-width="1.5" d="M0,-3.0v7 M-2.5,-0.5L0,-3.0L2.5,-0.5"/>
                </g>
               <g id="resetDef">
                       <use xlink:href="#rim2" fill="#404040">
                               <set attributeName="fill" to="#808080" begin="reset.mouseover" end="reset.mouseout"/>
                       </use>
               </g>
        </defs>

<script type="text/javascript">
var viewWidth = 1985;
var viewHeight = 196;
var sectionId = 'dynsection-1';
</script>
<script xlink:href="svgpan.js"/>
<svg id="graph" class="graph">
<g id="viewport">
<title>src/mesh.h</title>
<polygon fill="white" stroke="transparent" points="-4,4 -4,-192 1980.5,-192 1980.5,4 -4,4"/>
<!-- Node1 -->
<g id="node1" class="node">
<title>Node1</title>
<g id="a_node1"><a xlink:title="Contains the definitions of all structs for the mesh handling.">
<polygon fill="#bfbfbf" stroke="black" points="788.5,-168.5 788.5,-187.5 853.5,-187.5 853.5,-168.5 788.5,-168.5"/>
<text text-anchor="middle" x="821" y="-175.5" font-family="Helvetica,sans-Serif" font-size="10.00">src/mesh.h</text>
</a>
</g>
</g>
<!-- Node2 -->
<g id="node2" class="node">
<title>Node2</title>
<g id="a_node2"><a xlink:href="analyze_8h.html" target="_top" xlink:title="Contains the structure definitions of wing_t and recordPoint_t">
<polygon fill="white" stroke="black" points="41,-56.5 41,-75.5 115,-75.5 115,-56.5 41,-56.5"/>
<text text-anchor="middle" x="78" y="-63.5" font-family="Helvetica,sans-Serif" font-size="10.00">src/analyze.h</text>
</a>
</g>
</g>
<!-- Node1&#45;&gt;Node2 -->
<g id="edge1" class="edge">
<title>Node1&#45;&gt;Node2</title>
<path fill="none" stroke="midnightblue" d="M778.36,-176.09C657.3,-173.15 313.24,-162.3 205,-132 160.16,-119.45 112.69,-90.28 90.63,-75.66"/>
<polygon fill="midnightblue" stroke="midnightblue" points="778.29,-179.59 788.37,-176.33 778.45,-172.59 778.29,-179.59"/>
</g>
<!-- Node4 -->
<g id="node4" class="node">
<title>Node4</title>
<g id="a_node4"><a xlink:href="main_8c.html" target="_top" xlink:title="Contains the main function of ccfd">
<polygon fill="white" stroke="black" points="289,-0.5 289,-19.5 351,-19.5 351,-0.5 289,-0.5"/>
<text text-anchor="middle" x="320" y="-7.5" font-family="Helvetica,sans-Serif" font-size="10.00">src/main.c</text>
</a>
</g>
</g>
<!-- Node1&#45;&gt;Node4 -->
<g id="edge22" class="edge">
<title>Node1&#45;&gt;Node4</title>
<path fill="none" stroke="midnightblue" d="M778.21,-172.47C676.44,-160.94 423.59,-127.73 358,-76 338.91,-60.94 327.5,-33.45 322.69,-19.54"/>
<polygon fill="midnightblue" stroke="midnightblue" points="778.1,-175.98 788.43,-173.61 778.88,-169.02 778.1,-175.98"/>
</g>
<!-- Node6 -->
<g id="node6" class="node">
<title>Node6</title>
<g id="a_node6"><a xlink:href="timeDiscretization_8c.html" target="_top" xlink:title="Contains the functions for performing the time stepping process.">
<polygon fill="white" stroke="black" points="647,-0.5 647,-19.5 767,-19.5 767,-0.5 647,-0.5"/>
<text text-anchor="middle" x="707" y="-7.5" font-family="Helvetica,sans-Serif" font-size="10.00">src/timeDiscretization.c</text>
</a>
</g>
</g>
<!-- Node1&#45;&gt;Node6 -->
<g id="edge35" class="edge">
<title>Node1&#45;&gt;Node6</title>
<path fill="none" stroke="midnightblue" d="M809.16,-159.76C785.01,-124.59 730.81,-45.68 712.88,-19.57"/>
<polygon fill="midnightblue" stroke="midnightblue" points="806.32,-161.81 814.87,-168.08 812.09,-157.85 806.32,-161.81"/>
</g>
<!-- Node7 -->
<g id="node7" class="node">
<title>Node7</title>
<g id="a_node7"><a xlink:href="euler_2boundary_8h.html" target="_top" xlink:title="Contains the structure definition of a boundary.">
<polygon fill="white" stroke="black" points="809.5,-112.5 809.5,-131.5 914.5,-131.5 914.5,-112.5 809.5,-112.5"/>
<text text-anchor="middle" x="862" y="-119.5" font-family="Helvetica,sans-Serif" font-size="10.00">src/euler/boundary.h</text>
</a>
</g>
</g>
<!-- Node1&#45;&gt;Node7 -->
<g id="edge6" class="edge">
<title>Node1&#45;&gt;Node7</title>
<path fill="none" stroke="midnightblue" d="M834.02,-159.86C841.12,-150.5 849.6,-139.33 855.36,-131.75"/>
<polygon fill="midnightblue" stroke="midnightblue" points="831.03,-158 827.77,-168.08 836.61,-162.24 831.03,-158"/>
</g>
<!-- Node8 -->
<g id="node8" class="node">
<title>Node8</title>
<g id="a_node8"><a xlink:href="euler_2boundary_8c.html" target="_top" xlink:title="Contains the functions for initializing and applying boundary conditions.">
<polygon fill="white" stroke="black" points="920.5,-56.5 920.5,-75.5 1025.5,-75.5 1025.5,-56.5 920.5,-56.5"/>
<text text-anchor="middle" x="973" y="-63.5" font-family="Helvetica,sans-Serif" font-size="10.00">src/euler/boundary.c</text>
</a>
</g>
</g>
<!-- Node1&#45;&gt;Node8 -->
<g id="edge9" class="edge">
<title>Node1&#45;&gt;Node8</title>
<path fill="none" stroke="midnightblue" d="M860.74,-165.05C881.03,-157.67 905.31,-146.76 924,-132 944.41,-115.89 960.79,-89.36 968.4,-75.71"/>
<polygon fill="midnightblue" stroke="midnightblue" points="859.44,-161.8 851.15,-168.39 861.74,-168.41 859.44,-161.8"/>
</g>
<!-- Node9 -->
<g id="node9" class="node">
<title>Node9</title>
<g id="a_node9"><a xlink:href="euler_2fluxCalculation_8c.html" target="_top" xlink:title="Contains the flux calculation functions.">
<polygon fill="white" stroke="black" points="773.5,-56.5 773.5,-75.5 902.5,-75.5 902.5,-56.5 773.5,-56.5"/>
<text text-anchor="middle" x="838" y="-63.5" font-family="Helvetica,sans-Serif" font-size="10.00">src/euler/fluxCalculation.c</text>
</a>
</g>
</g>
<!-- Node1&#45;&gt;Node9 -->
<g id="edge11" class="edge">
<title>Node1&#45;&gt;Node9</title>
<path fill="none" stroke="midnightblue" d="M809.25,-159.16C802.1,-146.02 795.35,-127.77 801,-112 806.25,-97.34 818.58,-84.03 827.56,-75.76"/>
<polygon fill="midnightblue" stroke="midnightblue" points="806.45,-161.3 814.59,-168.08 812.46,-157.71 806.45,-161.3"/>
</g>
<!-- Node10 -->
<g id="node10" class="node">
<title>Node10</title>
<g id="a_node10"><a xlink:href="euler_2exactFunction_8c.html" target="_top" xlink:title="Contains the exact function evaluation function.">
<polygon fill="white" stroke="black" points="971,-112.5 971,-131.5 1097,-131.5 1097,-112.5 971,-112.5"/>
<text text-anchor="middle" x="1034" y="-119.5" font-family="Helvetica,sans-Serif" font-size="10.00">src/euler/exactFunction.c</text>
</a>
</g>
</g>
<!-- Node1&#45;&gt;Node10 -->
<g id="edge10" class="edge">
<title>Node1&#45;&gt;Node10</title>
<path fill="none" stroke="midnightblue" d="M863.61,-166.2C903.87,-155.99 963.46,-140.88 1000.45,-131.51"/>
<polygon fill="midnightblue" stroke="midnightblue" points="862.65,-162.83 853.81,-168.68 864.37,-169.62 862.65,-162.83"/>
</g>
<!-- Node11 -->
<g id="node11" class="node">
<title>Node11</title>
<g id="a_node11"><a xlink:href="euler_2source_8c.html" target="_top" xlink:title="Contains the functions for initializing and evaluating the source term.">
<polygon fill="white" stroke="black" points="1115.5,-112.5 1115.5,-131.5 1210.5,-131.5 1210.5,-112.5 1115.5,-112.5"/>
<text text-anchor="middle" x="1163" y="-119.5" font-family="Helvetica,sans-Serif" font-size="10.00">src/euler/source.c</text>
</a>
</g>
</g>
<!-- Node1&#45;&gt;Node11 -->
<g id="edge12" class="edge">
<title>Node1&#45;&gt;Node11</title>
<path fill="none" stroke="midnightblue" d="M863.97,-170.22C928.14,-160.08 1048.62,-141.06 1115.39,-130.52"/>
<polygon fill="midnightblue" stroke="midnightblue" points="863.12,-166.81 853.79,-171.82 864.22,-173.72 863.12,-166.81"/>
</g>
<!-- Node12 -->
<g id="node12" class="node">
<title>Node12</title>
<g id="a_node12"><a xlink:href="finiteVolume_8c.html" target="_top" xlink:title="Finite volume time derivative functions.">
<polygon fill="white" stroke="black" points="1228.5,-112.5 1228.5,-131.5 1323.5,-131.5 1323.5,-112.5 1228.5,-112.5"/>
<text text-anchor="middle" x="1276" y="-119.5" font-family="Helvetica,sans-Serif" font-size="10.00">src/finiteVolume.c</text>
</a>
</g>
</g>
<!-- Node1&#45;&gt;Node12 -->
<g id="edge13" class="edge">
<title>Node1&#45;&gt;Node12</title>
<path fill="none" stroke="midnightblue" d="M863.85,-172.84C937,-165.58 1090.64,-149.68 1220,-132 1222.73,-131.63 1225.54,-131.23 1228.36,-130.81"/>
<polygon fill="midnightblue" stroke="midnightblue" points="863.26,-169.38 853.65,-173.84 863.94,-176.34 863.26,-169.38"/>
</g>
<!-- Node13 -->
<g id="node13" class="node">
<title>Node13</title>
<g id="a_node13"><a xlink:href="initialCondition_8c.html" target="_top" xlink:title="Functions involving the initialization and application of initial conditions.">
<polygon fill="white" stroke="black" points="1341.5,-112.5 1341.5,-131.5 1446.5,-131.5 1446.5,-112.5 1341.5,-112.5"/>
<text text-anchor="middle" x="1394" y="-119.5" font-family="Helvetica,sans-Serif" font-size="10.00">src/initialCondition.c</text>
</a>
</g>
</g>
<!-- Node1&#45;&gt;Node13 -->
<g id="edge14" class="edge">
<title>Node1&#45;&gt;Node13</title>
<path fill="none" stroke="midnightblue" d="M863.85,-174.09C951.9,-167.92 1159.49,-152.41 1333,-132 1335.76,-131.67 1338.6,-131.32 1341.45,-130.95"/>
<polygon fill="midnightblue" stroke="midnightblue" points="863.45,-170.61 853.71,-174.8 863.93,-177.59 863.45,-170.61"/>
</g>
<!-- Node14 -->
<g id="node14" class="node">
<title>Node14</title>
<g id="a_node14"><a xlink:href="linearSolver_8h.html" target="_top" xlink:title=" ">
<polygon fill="white" stroke="black" points="623,-112.5 623,-131.5 715,-131.5 715,-112.5 623,-112.5"/>
<text text-anchor="middle" x="669" y="-119.5" font-family="Helvetica,sans-Serif" font-size="10.00">src/linearSolver.h</text>
</a>
</g>
</g>
<!-- Node1&#45;&gt;Node14 -->
<g id="edge15" class="edge">
<title>Node1&#45;&gt;Node14</title>
<path fill="none" stroke="midnightblue" d="M787.33,-165.04C758.73,-154.88 718.39,-140.55 692.97,-131.52"/>
<polygon fill="midnightblue" stroke="midnightblue" points="786.32,-168.39 796.92,-168.44 788.66,-161.8 786.32,-168.39"/>
</g>
<!-- Node15 -->
<g id="node15" class="node">
<title>Node15</title>
<g id="a_node15"><a xlink:href="linearSolver_8c.html" target="_top" xlink:title="Contains the functions for solving the linear system of equations during implicit calculations.">
<polygon fill="white" stroke="black" points="549,-56.5 549,-75.5 641,-75.5 641,-56.5 549,-56.5"/>
<text text-anchor="middle" x="595" y="-63.5" font-family="Helvetica,sans-Serif" font-size="10.00">src/linearSolver.c</text>
</a>
</g>
</g>
<!-- Node1&#45;&gt;Node15 -->
<g id="edge21" class="edge">
<title>Node1&#45;&gt;Node15</title>
<path fill="none" stroke="midnightblue" d="M778.01,-172.81C724.53,-166.75 637.39,-153.8 614,-132 598,-117.09 595.22,-89.53 594.9,-75.58"/>
<polygon fill="midnightblue" stroke="midnightblue" points="777.91,-176.32 788.23,-173.93 778.67,-169.36 777.91,-176.32"/>
</g>
<!-- Node16 -->
<g id="node16" class="node">
<title>Node16</title>
<g id="a_node16"><a xlink:href="navierstokes_2fluxCalculation_8c.html" target="_top" xlink:title="Contains the flux calculation functions.">
<polygon fill="white" stroke="black" points="367,-56.5 367,-75.5 531,-75.5 531,-56.5 367,-56.5"/>
<text text-anchor="middle" x="449" y="-63.5" font-family="Helvetica,sans-Serif" font-size="10.00">src/navierstokes/fluxCalculation.c</text>
</a>
</g>
</g>
<!-- Node1&#45;&gt;Node16 -->
<g id="edge32" class="edge">
<title>Node1&#45;&gt;Node16</title>
<path fill="none" stroke="midnightblue" d="M778.05,-171.19C732.44,-164.37 658.58,-151.46 597,-132 547.5,-116.36 492.25,-89.38 465.41,-75.62"/>
<polygon fill="midnightblue" stroke="midnightblue" points="777.77,-174.68 788.17,-172.67 778.79,-167.76 777.77,-174.68"/>
</g>
<!-- Node17 -->
<g id="node17" class="node">
<title>Node17</title>
<g id="a_node17"><a xlink:href="mesh_8c.html" target="_top" xlink:title="Contains all the functions for reading and creating meshes.">
<polygon fill="white" stroke="black" points="1464.5,-112.5 1464.5,-131.5 1529.5,-131.5 1529.5,-112.5 1464.5,-112.5"/>
<text text-anchor="middle" x="1497" y="-119.5" font-family="Helvetica,sans-Serif" font-size="10.00">src/mesh.c</text>
</a>
</g>
</g>
<!-- Node1&#45;&gt;Node17 -->
<g id="edge23" class="edge">
<title>Node1&#45;&gt;Node17</title>
<path fill="none" stroke="midnightblue" d="M863.83,-176.11C966.52,-173.51 1234.67,-163.96 1456,-132 1458.74,-131.6 1461.57,-131.13 1464.4,-130.6"/>
<polygon fill="midnightblue" stroke="midnightblue" points="863.47,-172.62 853.56,-176.36 863.64,-179.62 863.47,-172.62"/>
</g>
<!-- Node18 -->
<g id="node18" class="node">
<title>Node18</title>
<g id="a_node18"><a xlink:href="navierstokes_2boundary_8h.html" target="_top" xlink:title="Contains the structure definition of a boundary.">
<polygon fill="white" stroke="black" points="231,-112.5 231,-131.5 371,-131.5 371,-112.5 231,-112.5"/>
<text text-anchor="middle" x="301" y="-119.5" font-family="Helvetica,sans-Serif" font-size="10.00">src/navierstokes/boundary.h</text>
</a>
</g>
</g>
<!-- Node1&#45;&gt;Node18 -->
<g id="edge24" class="edge">
<title>Node1&#45;&gt;Node18</title>
<path fill="none" stroke="midnightblue" d="M778.35,-173.17C698.86,-165.46 523.39,-147.5 376,-132 374.4,-131.83 372.77,-131.66 371.14,-131.49"/>
<polygon fill="midnightblue" stroke="midnightblue" points="778.17,-176.67 788.46,-174.14 778.84,-169.7 778.17,-176.67"/>
</g>
<!-- Node19 -->
<g id="node19" class="node">
<title>Node19</title>
<g id="a_node19"><a xlink:href="navierstokes_2boundary_8c.html" target="_top" xlink:title="Contains the functions for initializing and applying boundary conditions.">
<polygon fill="white" stroke="black" points="133,-56.5 133,-75.5 273,-75.5 273,-56.5 133,-56.5"/>
<text text-anchor="middle" x="203" y="-63.5" font-family="Helvetica,sans-Serif" font-size="10.00">src/navierstokes/boundary.c</text>
</a>
</g>
</g>
<!-- Node1&#45;&gt;Node19 -->
<g id="edge30" class="edge">
<title>Node1&#45;&gt;Node19</title>
<path fill="none" stroke="midnightblue" d="M777.88,-176.55C647.7,-174.82 264.96,-166.79 222,-132 205.01,-118.24 202.68,-90.16 202.67,-75.84"/>
<polygon fill="midnightblue" stroke="midnightblue" points="778.2,-180.06 788.24,-176.68 778.29,-173.06 778.2,-180.06"/>
</g>
<!-- Node20 -->
<g id="node20" class="node">
<title>Node20</title>
<g id="a_node20"><a xlink:href="navierstokes_2exactFunction_8c.html" target="_top" xlink:title="Contains the exact function evaluation function.">
<polygon fill="white" stroke="black" points="1547.5,-112.5 1547.5,-131.5 1708.5,-131.5 1708.5,-112.5 1547.5,-112.5"/>
<text text-anchor="middle" x="1628" y="-119.5" font-family="Helvetica,sans-Serif" font-size="10.00">src/navierstokes/exactFunction.c</text>
</a>
</g>
</g>
<!-- Node1&#45;&gt;Node20 -->
<g id="edge31" class="edge">
<title>Node1&#45;&gt;Node20</title>
<path fill="none" stroke="midnightblue" d="M863.74,-174.89C975.06,-169.28 1283.05,-152.95 1539,-132 1541.79,-131.77 1544.62,-131.53 1547.48,-131.28"/>
<polygon fill="midnightblue" stroke="midnightblue" points="863.4,-171.4 853.59,-175.4 863.76,-178.4 863.4,-171.4"/>
</g>
<!-- Node21 -->
<g id="node21" class="node">
<title>Node21</title>
<g id="a_node21"><a xlink:href="navierstokes_2source_8c.html" target="_top" xlink:title="Contains the functions for initializing and evaluating the source term.">
<polygon fill="white" stroke="black" points="1726.5,-112.5 1726.5,-131.5 1855.5,-131.5 1855.5,-112.5 1726.5,-112.5"/>
<text text-anchor="middle" x="1791" y="-119.5" font-family="Helvetica,sans-Serif" font-size="10.00">src/navierstokes/source.c</text>
</a>
</g>
</g>
<!-- Node1&#45;&gt;Node21 -->
<g id="edge33" class="edge">
<title>Node1&#45;&gt;Node21</title>
<path fill="none" stroke="midnightblue" d="M863.9,-175.95C993.15,-172.56 1390.12,-160.4 1718,-132 1720.67,-131.77 1723.4,-131.51 1726.15,-131.24"/>
<polygon fill="midnightblue" stroke="midnightblue" points="863.55,-172.46 853.64,-176.22 863.73,-179.46 863.55,-172.46"/>
</g>
<!-- Node22 -->
<g id="node22" class="node">
<title>Node22</title>
<g id="a_node22"><a xlink:href="reconstruction_8c.html" target="_top" xlink:title="Contains the reconstruction and limiter functions.">
<polygon fill="white" stroke="black" points="1873.5,-112.5 1873.5,-131.5 1976.5,-131.5 1976.5,-112.5 1873.5,-112.5"/>
<text text-anchor="middle" x="1925" y="-119.5" font-family="Helvetica,sans-Serif" font-size="10.00">src/reconstruction.c</text>
</a>
</g>
</g>
<!-- Node1&#45;&gt;Node22 -->
<g id="edge34" class="edge">
<title>Node1&#45;&gt;Node22</title>
<path fill="none" stroke="midnightblue" d="M863.62,-176.78C1005.9,-175.69 1477.42,-169.32 1865,-132 1867.73,-131.74 1870.52,-131.44 1873.33,-131.1"/>
<polygon fill="midnightblue" stroke="midnightblue" points="863.54,-173.28 853.56,-176.85 863.59,-180.28 863.54,-173.28"/>
</g>
<!-- Node3 -->
<g id="node3" class="node">
<title>Node3</title>
<g id="a_node3"><a xlink:href="analyze_8c.html" target="_top" xlink:title="Contains functions for analyzing flow results.">
<polygon fill="white" stroke="black" points="86,-0.5 86,-19.5 160,-19.5 160,-0.5 86,-0.5"/>
<text text-anchor="middle" x="123" y="-7.5" font-family="Helvetica,sans-Serif" font-size="10.00">src/analyze.c</text>
</a>
</g>
</g>
<!-- Node2&#45;&gt;Node3 -->
<g id="edge2" class="edge">
<title>Node2&#45;&gt;Node3</title>
<path fill="none" stroke="midnightblue" d="M92.05,-48.14C99.89,-38.74 109.33,-27.4 115.71,-19.75"/>
<polygon fill="midnightblue" stroke="midnightblue" points="89.14,-46.16 85.43,-56.08 94.52,-50.64 89.14,-46.16"/>
</g>
<!-- Node2&#45;&gt;Node4 -->
<g id="edge3" class="edge">
<title>Node2&#45;&gt;Node4</title>
<path fill="none" stroke="midnightblue" d="M124.92,-54.53C173.23,-43.75 247.16,-27.25 288.76,-17.97"/>
<polygon fill="midnightblue" stroke="midnightblue" points="124.02,-51.15 115.02,-56.74 125.54,-57.98 124.02,-51.15"/>
</g>
<!-- Node5 -->
<g id="node5" class="node">
<title>Node5</title>
<g id="a_node5"><a xlink:href="output_8c.html" target="_top" xlink:title="Contains all functions used for writing flow solutions.">
<polygon fill="white" stroke="black" points="0,-0.5 0,-19.5 68,-19.5 68,-0.5 0,-0.5"/>
<text text-anchor="middle" x="34" y="-7.5" font-family="Helvetica,sans-Serif" font-size="10.00">src/output.c</text>
</a>
</g>
</g>
<!-- Node2&#45;&gt;Node5 -->
<g id="edge4" class="edge">
<title>Node2&#45;&gt;Node5</title>
<path fill="none" stroke="midnightblue" d="M64.27,-48.14C56.6,-38.74 47.37,-27.4 41.13,-19.75"/>
<polygon fill="midnightblue" stroke="midnightblue" points="61.7,-50.54 70.73,-56.08 67.13,-46.12 61.7,-50.54"/>
</g>
<!-- Node2&#45;&gt;Node6 -->
<g id="edge5" class="edge">
<title>Node2&#45;&gt;Node6</title>
<path fill="none" stroke="midnightblue" d="M125.02,-56.02C321.36,-29.78 542.44,-17.9 646.75,-13.34"/>
<polygon fill="midnightblue" stroke="midnightblue" points="124.54,-52.55 115.1,-57.36 125.47,-59.49 124.54,-52.55"/>
</g>
<!-- Node7&#45;&gt;Node8 -->
<g id="edge7" class="edge">
<title>Node7&#45;&gt;Node8</title>
<path fill="none" stroke="midnightblue" d="M889.01,-107.86C909.59,-97.85 937.34,-84.35 955.21,-75.65"/>
<polygon fill="midnightblue" stroke="midnightblue" points="887.3,-104.8 879.83,-112.32 890.36,-111.1 887.3,-104.8"/>
</g>
<!-- Node7&#45;&gt;Node9 -->
<g id="edge8" class="edge">
<title>Node7&#45;&gt;Node9</title>
<path fill="none" stroke="midnightblue" d="M853.86,-102.69C849.82,-93.59 845.12,-83.01 841.89,-75.75"/>
<polygon fill="midnightblue" stroke="midnightblue" points="850.78,-104.37 858.04,-112.08 857.17,-101.52 850.78,-104.37"/>
</g>
<!-- Node14&#45;&gt;Node4 -->
<g id="edge18" class="edge">
<title>Node14&#45;&gt;Node4</title>
<path fill="none" stroke="midnightblue" d="M668.75,-102.18C667.49,-87.36 663.2,-67.37 650,-56 605.58,-17.75 424.53,-11.86 351.13,-11.07"/>
<polygon fill="midnightblue" stroke="midnightblue" points="665.26,-102.46 669.23,-112.28 672.25,-102.12 665.26,-102.46"/>
</g>
<!-- Node14&#45;&gt;Node6 -->
<g id="edge20" class="edge">
<title>Node14&#45;&gt;Node6</title>
<path fill="none" stroke="midnightblue" d="M675.33,-102.67C683.64,-78.62 697.88,-37.39 704.03,-19.59"/>
<polygon fill="midnightblue" stroke="midnightblue" points="671.94,-101.77 671.98,-112.37 678.56,-104.06 671.94,-101.77"/>
</g>
<!-- Node14&#45;&gt;Node9 -->
<g id="edge16" class="edge">
<title>Node14&#45;&gt;Node9</title>
<path fill="none" stroke="midnightblue" d="M705.6,-109.3C737.45,-99.13 782.84,-84.62 811.35,-75.52"/>
<polygon fill="midnightblue" stroke="midnightblue" points="704.24,-106.07 695.78,-112.44 706.37,-112.73 704.24,-106.07"/>
</g>
<!-- Node14&#45;&gt;Node15 -->
<g id="edge17" class="edge">
<title>Node14&#45;&gt;Node15</title>
<path fill="none" stroke="midnightblue" d="M648.97,-106.38C635.59,-96.62 618.44,-84.11 607.11,-75.83"/>
<polygon fill="midnightblue" stroke="midnightblue" points="646.97,-109.26 657.11,-112.32 651.1,-103.6 646.97,-109.26"/>
</g>
<!-- Node14&#45;&gt;Node16 -->
<g id="edge19" class="edge">
<title>Node14&#45;&gt;Node16</title>
<path fill="none" stroke="midnightblue" d="M624.28,-110.02C582.72,-99.82 521.69,-84.84 483.7,-75.52"/>
<polygon fill="midnightblue" stroke="midnightblue" points="623.59,-113.46 634.14,-112.44 625.26,-106.66 623.59,-113.46"/>
</g>
<!-- Node18&#45;&gt;Node1 -->
<g id="edge26" class="edge">
<title>Node18&#45;&gt;Node1</title>
<path fill="none" stroke="midnightblue" d="M381.42,-130.67C385.68,-131.12 389.9,-131.57 394,-132 541.39,-147.5 716.85,-165.46 788.42,-173.17"/>
<polygon fill="midnightblue" stroke="midnightblue" points="381.72,-127.18 371.4,-129.61 380.98,-134.15 381.72,-127.18"/>
</g>
<!-- Node18&#45;&gt;Node2 -->
<g id="edge25" class="edge">
<title>Node18&#45;&gt;Node2</title>
<path fill="none" stroke="midnightblue" d="M255.94,-110.09C213.81,-99.89 151.76,-84.86 113.17,-75.52"/>
<polygon fill="midnightblue" stroke="midnightblue" points="255.12,-113.49 265.66,-112.44 256.77,-106.69 255.12,-113.49"/>
</g>
<!-- Node18&#45;&gt;Node4 -->
<g id="edge27" class="edge">
<title>Node18&#45;&gt;Node4</title>
<path fill="none" stroke="midnightblue" d="M304.22,-102.35C308.38,-78.25 315.46,-37.31 318.52,-19.59"/>
<polygon fill="midnightblue" stroke="midnightblue" points="300.74,-101.92 302.49,-112.37 307.64,-103.11 300.74,-101.92"/>
</g>
<!-- Node18&#45;&gt;Node16 -->
<g id="edge29" class="edge">
<title>Node18&#45;&gt;Node16</title>
<path fill="none" stroke="midnightblue" d="M334.15,-108.91C361.97,-98.75 401.02,-84.51 425.66,-75.52"/>
<polygon fill="midnightblue" stroke="midnightblue" points="332.65,-105.73 324.45,-112.44 335.04,-112.3 332.65,-105.73"/>
</g>
<!-- Node18&#45;&gt;Node19 -->
<g id="edge28" class="edge">
<title>Node18&#45;&gt;Node19</title>
<path fill="none" stroke="midnightblue" d="M276.41,-107.45C258.32,-97.48 234.27,-84.23 218.71,-75.65"/>
<polygon fill="midnightblue" stroke="midnightblue" points="274.81,-110.56 285.25,-112.32 278.19,-104.43 274.81,-110.56"/>
</g>
</g>
</svg>
        <g id="navigator" transform="translate(0 0)" fill="#404254">
                <rect fill="#f2f5e9" fill-opacity="0.5" stroke="#606060" stroke-width=".5" x="0" y="0" width="60" height="60"/>
                <use id="zoomplus" xlink:href="#zoomPlus" x="17" y="9" onmousedown="handleZoom(evt,'in')"/>
                <use id="zoomminus" xlink:href="#zoomMin" x="42" y="9" onmousedown="handleZoom(evt,'out')"/>
                <use id="reset" xlink:href="#resetDef" x="30" y="36" onmousedown="handleReset()"/>
                <g id="arrowUp" xlink:href="#dirArrow" transform="translate(30 24)" onmousedown="handlePan(0,-1)">
                  <use xlink:href="#rim" fill="#404040">
                        <set attributeName="fill" to="#808080" begin="arrowUp.mouseover" end="arrowUp.mouseout"/>
                  </use>
                  <path fill="none" stroke="white" stroke-width="1.5" d="M0,-3.0v7 M-2.5,-0.5L0,-3.0L2.5,-0.5"/>
                </g>
                <g id="arrowRight" xlink:href="#dirArrow" transform="rotate(90) translate(36 -43)" onmousedown="handlePan(1,0)">
                  <use xlink:href="#rim" fill="#404040">
                        <set attributeName="fill" to="#808080" begin="arrowRight.mouseover" end="arrowRight.mouseout"/>
                  </use>
                  <path fill="none" stroke="white" stroke-width="1.5" d="M0,-3.0v7 M-2.5,-0.5L0,-3.0L2.5,-0.5"/>
                </g>
                <g id="arrowDown" xlink:href="#dirArrow" transform="rotate(180) translate(-30 -48)" onmousedown="handlePan(0,1)">
                  <use xlink:href="#rim" fill="#404040">
                        <set attributeName="fill" to="#808080" begin="arrowDown.mouseover" end="arrowDown.mouseout"/>
                  </use>
                  <path fill="none" stroke="white" stroke-width="1.5" d="M0,-3.0v7 M-2.5,-0.5L0,-3.0L2.5,-0.5"/>
                </g>
                <g id="arrowLeft" xlink:href="#dirArrow" transform="rotate(270) translate(-36 17)" onmousedown="handlePan(-1,0)">
                  <use xlink:href="#rim" fill="#404040">
                        <set attributeName="fill" to="#808080" begin="arrowLeft.mouseover" end="arrowLeft.mouseout"/>
                  </use>
                  <path fill="none" stroke="white" stroke-width="1.5" d="M0,-3.0v7 M-2.5,-0.5L0,-3.0L2.5,-0.5"/>
                </g>
        </g>
        <svg viewBox="0 0 15 15" width="100%" height="30px" preserveAspectRatio="xMaxYMin meet">
         <g id="arrow_out" transform="scale(0.3 0.3)">
          <a xlink:href="mesh_8h__dep__incl_org.svg" target="_base">
           <rect id="button" ry="5" rx="5" y="6" x="6" height="38" width="38"
                fill="#f2f5e9" fill-opacity="0.5" stroke="#606060" stroke-width="1.0"/>
           <path id="arrow"
             d="M 11.500037,31.436501 C 11.940474,20.09759 22.043105,11.32322 32.158766,21.979434 L 37.068811,17.246167 C 37.068811,17.246167 37.088388,32 37.088388,32 L 22.160133,31.978069 C 22.160133,31.978069 26.997745,27.140456 26.997745,27.140456 C 18.528582,18.264221 13.291696,25.230495 11.500037,31.436501 z"
             style="fill:#404040;"/>
          </a>
         </g>
        </svg>
</svg>
