<?xml version="1.0" encoding="UTF-8" standalone="no"?>
<!DOCTYPE svg PUBLIC "-//W3C//DTD SVG 1.1//EN"
 "http://www.w3.org/Graphics/SVG/1.1/DTD/svg11.dtd">
<!-- Generated by graphviz version 2.42.3 (0)
 -->
<!-- Title: src/mesh.h Pages: 1 -->
<svg width="593pt" height="140pt"
 viewBox="0.00 0.00 593.00 140.00" xmlns="http://www.w3.org/2000/svg" xmlns:xlink="http://www.w3.org/1999/xlink">
<g id="graph0" class="graph" transform="scale(1 1) rotate(0) translate(4 136)">
<title>src/mesh.h</title>
<polygon fill="white" stroke="transparent" points="-4,4 -4,-136 589,-136 589,4 -4,4"/>
<!-- Node1 -->
<g id="node1" class="node">
<title>Node1</title>
<g id="a_node1"><a xlink:title="Contains the definitions of all structs for the mesh handling.">
<polygon fill="#bfbfbf" stroke="black" points="293.5,-112.5 293.5,-131.5 358.5,-131.5 358.5,-112.5 293.5,-112.5"/>
<text text-anchor="middle" x="326" y="-119.5" font-family="Helvetica,sans-Serif" font-size="10.00">src/mesh.h</text>
</a>
</g>
</g>
<!-- Node2 -->
<g id="node2" class="node">
<title>Node2</title>
<g id="a_node2"><a xlink:href="analyze_8h.html" target="_top" xlink:title="Contains the structure definitions of wing_t and recordPoint_t">
<polygon fill="white" stroke="black" points="89,-56.5 89,-75.5 163,-75.5 163,-56.5 89,-56.5"/>
<text text-anchor="middle" x="126" y="-63.5" font-family="Helvetica,sans-Serif" font-size="10.00">src/analyze.h</text>
</a>
</g>
</g>
<!-- Node1&#45;&gt;Node2 -->
<g id="edge1" class="edge">
<title>Node1&#45;&gt;Node2</title>
<path fill="none" stroke="midnightblue" d="M284.63,-109.83C246.86,-99.63 191.86,-84.78 157.54,-75.52"/>
<polygon fill="midnightblue" stroke="midnightblue" points="283.74,-113.22 294.31,-112.44 285.57,-106.46 283.74,-113.22"/>
</g>
<!-- Node4 -->
<g id="node4" class="node">
<title>Node4</title>
<g id="a_node4"><a xlink:href="main_8c.html" target="_top" xlink:title="Contains the main function of ccfd">
<polygon fill="white" stroke="black" points="178,-0.5 178,-19.5 240,-19.5 240,-0.5 178,-0.5"/>
<text text-anchor="middle" x="209" y="-7.5" font-family="Helvetica,sans-Serif" font-size="10.00">src/main.c</text>
</a>
</g>
</g>
<!-- Node1&#45;&gt;Node4 -->
<g id="edge11" class="edge">
<title>Node1&#45;&gt;Node4</title>
<path fill="none" stroke="midnightblue" d="M283.45,-116.29C257.63,-111 226.56,-99.79 210,-76 198.27,-59.14 202.71,-33.4 206.26,-19.93"/>
<polygon fill="midnightblue" stroke="midnightblue" points="282.94,-119.76 293.41,-118.1 284.19,-112.87 282.94,-119.76"/>
</g>
<!-- Node6 -->
<g id="node6" class="node">
<title>Node6</title>
<g id="a_node6"><a xlink:href="finiteVolume_8c.html" target="_top" xlink:title="Finite volume time derivative functions.">
<polygon fill="white" stroke="black" points="219.5,-56.5 219.5,-75.5 314.5,-75.5 314.5,-56.5 219.5,-56.5"/>
<text text-anchor="middle" x="267" y="-63.5" font-family="Helvetica,sans-Serif" font-size="10.00">src/finiteVolume.c</text>
</a>
</g>
</g>
<!-- Node1&#45;&gt;Node6 -->
<g id="edge5" class="edge">
<title>Node1&#45;&gt;Node6</title>
<path fill="none" stroke="midnightblue" d="M309.11,-105.54C298.59,-95.91 285.43,-83.87 276.65,-75.83"/>
<polygon fill="midnightblue" stroke="midnightblue" points="306.78,-108.15 316.52,-112.32 311.51,-102.99 306.78,-108.15"/>
</g>
<!-- Node7 -->
<g id="node7" class="node">
<title>Node7</title>
<g id="a_node7"><a xlink:href="initialCondition_8c.html" target="_top" xlink:title="Functions involving the initialization and application of initial conditions.">
<polygon fill="white" stroke="black" points="332.5,-56.5 332.5,-75.5 437.5,-75.5 437.5,-56.5 332.5,-56.5"/>
<text text-anchor="middle" x="385" y="-63.5" font-family="Helvetica,sans-Serif" font-size="10.00">src/initialCondition.c</text>
</a>
</g>
</g>
<!-- Node1&#45;&gt;Node7 -->
<g id="edge6" class="edge">
<title>Node1&#45;&gt;Node7</title>
<path fill="none" stroke="midnightblue" d="M342.89,-105.54C353.41,-95.91 366.57,-83.87 375.35,-75.83"/>
<polygon fill="midnightblue" stroke="midnightblue" points="340.49,-102.99 335.48,-112.32 345.22,-108.15 340.49,-102.99"/>
</g>
<!-- Node8 -->
<g id="node8" class="node">
<title>Node8</title>
<g id="a_node8"><a xlink:href="linearSolver_8h.html" target="_top" xlink:title=" ">
<polygon fill="white" stroke="black" points="456,-56.5 456,-75.5 548,-75.5 548,-56.5 456,-56.5"/>
<text text-anchor="middle" x="502" y="-63.5" font-family="Helvetica,sans-Serif" font-size="10.00">src/linearSolver.h</text>
</a>
</g>
</g>
<!-- Node1&#45;&gt;Node8 -->
<g id="edge7" class="edge">
<title>Node1&#45;&gt;Node8</title>
<path fill="none" stroke="midnightblue" d="M363.69,-109.44C396.87,-99.26 444.43,-84.66 474.24,-75.52"/>
<polygon fill="midnightblue" stroke="midnightblue" points="362.42,-106.16 353.89,-112.44 364.47,-112.86 362.42,-106.16"/>
</g>
<!-- Node9 -->
<g id="node9" class="node">
<title>Node9</title>
<g id="a_node9"><a xlink:href="linearSolver_8c.html" target="_top" xlink:title="Contains the functions for solving the linear system of equations during implicit calculations.">
<polygon fill="white" stroke="black" points="493,-0.5 493,-19.5 585,-19.5 585,-0.5 493,-0.5"/>
<text text-anchor="middle" x="539" y="-7.5" font-family="Helvetica,sans-Serif" font-size="10.00">src/linearSolver.c</text>
</a>
</g>
</g>
<!-- Node1&#45;&gt;Node9 -->
<g id="edge10" class="edge">
<title>Node1&#45;&gt;Node9</title>
<path fill="none" stroke="midnightblue" d="M369.1,-118.94C429.25,-115.06 533.65,-104.33 557,-76 570.7,-59.37 555.41,-33.07 545.72,-19.59"/>
<polygon fill="midnightblue" stroke="midnightblue" points="368.54,-115.47 358.77,-119.57 368.96,-122.46 368.54,-115.47"/>
</g>
<!-- Node3 -->
<g id="node3" class="node">
<title>Node3</title>
<g id="a_node3"><a xlink:href="analyze_8c.html" target="_top" xlink:title="Contains functions for analyzing flow results.">
<polygon fill="white" stroke="black" points="0,-0.5 0,-19.5 74,-19.5 74,-0.5 0,-0.5"/>
<text text-anchor="middle" x="37" y="-7.5" font-family="Helvetica,sans-Serif" font-size="10.00">src/analyze.c</text>
</a>
</g>
</g>
<!-- Node2&#45;&gt;Node3 -->
<g id="edge2" class="edge">
<title>Node2&#45;&gt;Node3</title>
<path fill="none" stroke="midnightblue" d="M102.76,-50.9C86.44,-41 65.13,-28.07 51.26,-19.65"/>
<polygon fill="midnightblue" stroke="midnightblue" points="101.34,-54.13 111.7,-56.32 104.97,-48.14 101.34,-54.13"/>
</g>
<!-- Node2&#45;&gt;Node4 -->
<g id="edge3" class="edge">
<title>Node2&#45;&gt;Node4</title>
<path fill="none" stroke="midnightblue" d="M148.1,-50.62C163.26,-40.76 182.88,-27.99 195.7,-19.65"/>
<polygon fill="midnightblue" stroke="midnightblue" points="145.81,-47.94 139.34,-56.32 149.63,-53.8 145.81,-47.94"/>
</g>
<!-- Node5 -->
<g id="node5" class="node">
<title>Node5</title>
<g id="a_node5"><a xlink:href="output_8c.html" target="_top" xlink:title="Contains all functions used for writing flow solutions.">
<polygon fill="white" stroke="black" points="92,-0.5 92,-19.5 160,-19.5 160,-0.5 92,-0.5"/>
<text text-anchor="middle" x="126" y="-7.5" font-family="Helvetica,sans-Serif" font-size="10.00">src/output.c</text>
</a>
</g>
</g>
<!-- Node2&#45;&gt;Node5 -->
<g id="edge4" class="edge">
<title>Node2&#45;&gt;Node5</title>
<path fill="none" stroke="midnightblue" d="M126,-45.8C126,-36.91 126,-26.78 126,-19.75"/>
<polygon fill="midnightblue" stroke="midnightblue" points="122.5,-46.08 126,-56.08 129.5,-46.08 122.5,-46.08"/>
</g>
<!-- Node8&#45;&gt;Node4 -->
<g id="edge9" class="edge">
<title>Node8&#45;&gt;Node4</title>
<path fill="none" stroke="midnightblue" d="M446.01,-54.68C384.8,-43.4 288.94,-25.73 240,-16.71"/>
<polygon fill="midnightblue" stroke="midnightblue" points="445.43,-58.13 455.9,-56.5 446.7,-51.25 445.43,-58.13"/>
</g>
<!-- Node8&#45;&gt;Node9 -->
<g id="edge8" class="edge">
<title>Node8&#45;&gt;Node9</title>
<path fill="none" stroke="midnightblue" d="M513.95,-47.57C520.31,-38.27 527.87,-27.25 533,-19.75"/>
<polygon fill="midnightblue" stroke="midnightblue" points="510.87,-45.86 508.11,-56.08 516.65,-49.81 510.87,-45.86"/>
</g>
</g>
</svg>
