<?xml version="1.0" encoding="UTF-8" standalone="no"?>
<!DOCTYPE svg PUBLIC "-//W3C//DTD SVG 1.1//EN"
 "http://www.w3.org/Graphics/SVG/1.1/DTD/svg11.dtd">
<!-- Generated by graphviz version 2.44.0 (0)
 -->
<!-- Title: src/mesh.c Pages: 1 -->
<!--zoomable 196 -->
<svg id="main" version="1.1" xmlns="http://www.w3.org/2000/svg" xmlns:xlink="http://www.w3.org/1999/xlink" xml:space="preserve" onload="init(evt)">
<style type="text/css"><![CDATA[
.edge:hover path { stroke: red; }
.edge:hover polygon { stroke: red; fill: red; }
]]></style>
<script type="text/javascript"><![CDATA[
var edges = document.getElementsByTagName('g');
if (edges && edges.length) {
  for (var i=0;i<edges.length;i++) {
    if (edges[i].id.substr(0,4)=='edge') {
      edges[i].setAttribute('class','edge');
    }
  }
}
]]></script>
        <defs>
                <circle id="rim" cx="0" cy="0" r="7"/>
                <circle id="rim2" cx="0" cy="0" r="3.5"/>
                <g id="zoomPlus">
                        <use xlink:href="#rim" fill="#404040">
                                <set attributeName="fill" to="#808080" begin="zoomplus.mouseover" end="zoomplus.mouseout"/>
                        </use>
                        <path d="M-4,0h8M0,-4v8" fill="none" stroke="white" stroke-width="1.5" pointer-events="none"/>
                </g>
                <g id="zoomMin">
                        <use xlink:href="#rim" fill="#404040">
                                <set attributeName="fill" to="#808080" begin="zoomminus.mouseover" end="zoomminus.mouseout"/>
                        </use>
                        <path d="M-4,0h8" fill="none" stroke="white" stroke-width="1.5" pointer-events="none"/>
                </g>
                <g id="dirArrow">
                        <path fill="none" stroke="white" stroke-width="1.5" d="M0,-3.0v7 M-2.5,-0.5L0,-3.0L2.5,-0.5"/>
                </g>
               <g id="resetDef">
                       <use xlink:href="#rim2" fill="#404040">
                               <set attributeName="fill" to="#808080" begin="reset.mouseover" end="reset.mouseout"/>
                       </use>
               </g>
        </defs>

<script type="text/javascript">
var viewWidth = 924;
var viewHeight = 196;
var sectionId = 'dynsection-0';
</script>
<script xlink:href="svgpan.js"/>
<svg id="graph" class="graph">
<g id="viewport">
<title>src/mesh.c</title>
<polygon fill="white" stroke="transparent" points="-4,4 -4,-192 919.5,-192 919.5,4 -4,4"/>
<!-- Node1 -->
<g id="node1" class="node">
<title>Node1</title>
<g id="a_node1"><a xlink:title="Contains all the functions for reading and creating meshes.">
<polygon fill="#bfbfbf" stroke="black" points="418.5,-168.5 418.5,-187.5 483.5,-187.5 483.5,-168.5 418.5,-168.5"/>
<text text-anchor="middle" x="451" y="-175.5" font-family="Helvetica,sans-Serif" font-size="10.00">src/mesh.c</text>
</a>
</g>
</g>
<!-- Node2 -->
<g id="node2" class="node">
<title>Node2</title>
<g id="a_node2"><a xlink:title=" ">
<polygon fill="white" stroke="#bfbfbf" points="0,-112.5 0,-131.5 46,-131.5 46,-112.5 0,-112.5"/>
<text text-anchor="middle" x="23" y="-119.5" font-family="Helvetica,sans-Serif" font-size="10.00">stdio.h</text>
</a>
</g>
</g>
<!-- Node1&#45;&gt;Node2 -->
<g id="edge1" class="edge">
<title>Node1&#45;&gt;Node2</title>
<path fill="none" stroke="midnightblue" d="M418.36,-174.62C351,-169.41 191.84,-155.53 60,-132 58.76,-131.78 57.49,-131.54 56.21,-131.29"/>
<polygon fill="midnightblue" stroke="midnightblue" points="56.91,-127.86 46.39,-129.15 55.42,-134.7 56.91,-127.86"/>
</g>
<!-- Node3 -->
<g id="node3" class="node">
<title>Node3</title>
<g id="a_node3"><a xlink:title=" ">
<polygon fill="white" stroke="#bfbfbf" points="53,-56.5 53,-75.5 101,-75.5 101,-56.5 53,-56.5"/>
<text text-anchor="middle" x="77" y="-63.5" font-family="Helvetica,sans-Serif" font-size="10.00">stdlib.h</text>
</a>
</g>
</g>
<!-- Node1&#45;&gt;Node3 -->
<g id="edge2" class="edge">
<title>Node1&#45;&gt;Node3</title>
<path fill="none" stroke="midnightblue" d="M418.31,-177.44C339.24,-177.82 140.67,-174.43 93,-132 80.13,-120.55 76.8,-100.57 76.28,-85.77"/>
<polygon fill="midnightblue" stroke="midnightblue" points="79.78,-85.71 76.31,-75.7 72.78,-85.69 79.78,-85.71"/>
</g>
<!-- Node4 -->
<g id="node4" class="node">
<title>Node4</title>
<g id="a_node4"><a xlink:title=" ">
<polygon fill="white" stroke="#bfbfbf" points="506.5,-112.5 506.5,-131.5 555.5,-131.5 555.5,-112.5 506.5,-112.5"/>
<text text-anchor="middle" x="531" y="-119.5" font-family="Helvetica,sans-Serif" font-size="10.00">string.h</text>
</a>
</g>
</g>
<!-- Node1&#45;&gt;Node4 -->
<g id="edge3" class="edge">
<title>Node1&#45;&gt;Node4</title>
<path fill="none" stroke="midnightblue" d="M463.85,-168.32C476.22,-159.98 495.13,-147.21 509.74,-137.35"/>
<polygon fill="midnightblue" stroke="midnightblue" points="511.85,-140.15 518.18,-131.65 507.93,-134.35 511.85,-140.15"/>
</g>
<!-- Node5 -->
<g id="node5" class="node">
<title>Node5</title>
<g id="a_node5"><a xlink:title=" ">
<polygon fill="white" stroke="#bfbfbf" points="573.5,-112.5 573.5,-131.5 620.5,-131.5 620.5,-112.5 573.5,-112.5"/>
<text text-anchor="middle" x="597" y="-119.5" font-family="Helvetica,sans-Serif" font-size="10.00">math.h</text>
</a>
</g>
</g>
<!-- Node1&#45;&gt;Node5 -->
<g id="edge4" class="edge">
<title>Node1&#45;&gt;Node5</title>
<path fill="none" stroke="midnightblue" d="M474.13,-168.44C498.48,-159.44 537.01,-145.19 564.42,-135.05"/>
<polygon fill="midnightblue" stroke="midnightblue" points="565.81,-138.27 573.97,-131.52 563.38,-131.7 565.81,-138.27"/>
</g>
<!-- Node6 -->
<g id="node6" class="node">
<title>Node6</title>
<g id="a_node6"><a xlink:title=" ">
<polygon fill="white" stroke="#bfbfbf" points="182,-0.5 182,-19.5 238,-19.5 238,-0.5 182,-0.5"/>
<text text-anchor="middle" x="210" y="-7.5" font-family="Helvetica,sans-Serif" font-size="10.00">stdbool.h</text>
</a>
</g>
</g>
<!-- Node1&#45;&gt;Node6 -->
<g id="edge5" class="edge">
<title>Node1&#45;&gt;Node6</title>
<path fill="none" stroke="midnightblue" d="M418.47,-176.12C357.19,-173.69 228.37,-164.73 201,-132 176.66,-102.88 191.04,-54.81 201.69,-28.89"/>
<polygon fill="midnightblue" stroke="midnightblue" points="204.98,-30.11 205.77,-19.55 198.56,-27.31 204.98,-30.11"/>
</g>
<!-- Node7 -->
<g id="node7" class="node">
<title>Node7</title>
<g id="a_node7"><a xlink:title=" ">
<polygon fill="white" stroke="#bfbfbf" points="638.5,-112.5 638.5,-131.5 681.5,-131.5 681.5,-112.5 638.5,-112.5"/>
<text text-anchor="middle" x="660" y="-119.5" font-family="Helvetica,sans-Serif" font-size="10.00">float.h</text>
</a>
</g>
</g>
<!-- Node1&#45;&gt;Node7 -->
<g id="edge6" class="edge">
<title>Node1&#45;&gt;Node7</title>
<path fill="none" stroke="midnightblue" d="M483.57,-169.13C517.37,-160.88 572.01,-147.32 628.52,-132.06"/>
<polygon fill="midnightblue" stroke="midnightblue" points="629.61,-135.39 638.35,-129.39 627.78,-128.63 629.61,-135.39"/>
</g>
<!-- Node8 -->
<g id="node8" class="node">
<title>Node8</title>
<g id="a_node8"><a xlink:href="main_8h.html" target="_top" xlink:title="Contains the global constants and definitions.">
<polygon fill="white" stroke="black" points="432,-0.5 432,-19.5 478,-19.5 478,-0.5 432,-0.5"/>
<text text-anchor="middle" x="455" y="-7.5" font-family="Helvetica,sans-Serif" font-size="10.00">main.h</text>
</a>
</g>
</g>
<!-- Node1&#45;&gt;Node8 -->
<g id="edge7" class="edge">
<title>Node1&#45;&gt;Node8</title>
<path fill="none" stroke="midnightblue" d="M456.29,-168.46C467.89,-148.64 493.64,-98.01 482,-56 479.21,-45.92 473.49,-35.83 468.03,-27.77"/>
<polygon fill="midnightblue" stroke="midnightblue" points="470.85,-25.69 462.15,-19.64 465.18,-29.79 470.85,-25.69"/>
</g>
<!-- Node9 -->
<g id="node9" class="node">
<title>Node9</title>
<g id="a_node9"><a xlink:href="mesh_8h.html" target="_top" xlink:title="Contains the definitions of all structs for the mesh handling.">
<polygon fill="white" stroke="black" points="400.5,-112.5 400.5,-131.5 449.5,-131.5 449.5,-112.5 400.5,-112.5"/>
<text text-anchor="middle" x="425" y="-119.5" font-family="Helvetica,sans-Serif" font-size="10.00">mesh.h</text>
</a>
</g>
</g>
<!-- Node1&#45;&gt;Node9 -->
<g id="edge8" class="edge">
<title>Node1&#45;&gt;Node9</title>
<path fill="none" stroke="midnightblue" d="M446.71,-168.08C443.15,-160.69 437.98,-149.95 433.58,-140.81"/>
<polygon fill="midnightblue" stroke="midnightblue" points="436.71,-139.24 429.21,-131.75 430.4,-142.28 436.71,-139.24"/>
</g>
<!-- Node11 -->
<g id="node11" class="node">
<title>Node11</title>
<g id="a_node11"><a xlink:href="readInTools_8h.html" target="_top" xlink:title=" ">
<polygon fill="white" stroke="black" points="300,-56.5 300,-75.5 374,-75.5 374,-56.5 300,-56.5"/>
<text text-anchor="middle" x="337" y="-63.5" font-family="Helvetica,sans-Serif" font-size="10.00">readInTools.h</text>
</a>
</g>
</g>
<!-- Node1&#45;&gt;Node11 -->
<g id="edge14" class="edge">
<title>Node1&#45;&gt;Node11</title>
<path fill="none" stroke="midnightblue" d="M437.91,-168.5C425.27,-160 405.9,-146.18 391,-132 375.13,-116.9 359.41,-97.31 349.05,-83.59"/>
<polygon fill="midnightblue" stroke="midnightblue" points="351.85,-81.49 343.08,-75.54 346.23,-85.66 351.85,-81.49"/>
</g>
<!-- Node12 -->
<g id="node12" class="node">
<title>Node12</title>
<g id="a_node12"><a xlink:href="output_8h.html" target="_top" xlink:title="Contains outputTime_t struct definition.">
<polygon fill="white" stroke="black" points="102.5,-112.5 102.5,-131.5 153.5,-131.5 153.5,-112.5 102.5,-112.5"/>
<text text-anchor="middle" x="128" y="-119.5" font-family="Helvetica,sans-Serif" font-size="10.00">output.h</text>
</a>
</g>
</g>
<!-- Node1&#45;&gt;Node12 -->
<g id="edge17" class="edge">
<title>Node1&#45;&gt;Node12</title>
<path fill="none" stroke="midnightblue" d="M418.2,-172.48C365.35,-165.03 258.14,-149.29 168,-132 166.56,-131.72 165.09,-131.43 163.61,-131.13"/>
<polygon fill="midnightblue" stroke="midnightblue" points="164.28,-127.7 153.77,-129.05 162.83,-134.55 164.28,-127.7"/>
</g>
<!-- Node13 -->
<g id="node13" class="node">
<title>Node13</title>
<g id="a_node13"><a xlink:href="timeDiscretization_8h.html" target="_top" xlink:title=" ">
<polygon fill="white" stroke="black" points="210,-112.5 210,-131.5 314,-131.5 314,-112.5 210,-112.5"/>
<text text-anchor="middle" x="262" y="-119.5" font-family="Helvetica,sans-Serif" font-size="10.00">timeDiscretization.h</text>
</a>
</g>
</g>
<!-- Node1&#45;&gt;Node13 -->
<g id="edge20" class="edge">
<title>Node1&#45;&gt;Node13</title>
<path fill="none" stroke="midnightblue" d="M421.05,-168.44C388.84,-159.24 337.47,-144.56 301.86,-134.39"/>
<polygon fill="midnightblue" stroke="midnightblue" points="302.38,-130.9 291.81,-131.52 300.46,-137.63 302.38,-130.9"/>
</g>
<!-- Node15 -->
<g id="node15" class="node">
<title>Node15</title>
<g id="a_node15"><a xlink:href="memTools_8h.html" target="_top" xlink:title=" ">
<polygon fill="white" stroke="black" points="738,-112.5 738,-131.5 808,-131.5 808,-112.5 738,-112.5"/>
<text text-anchor="middle" x="773" y="-119.5" font-family="Helvetica,sans-Serif" font-size="10.00">memTools.h</text>
</a>
</g>
</g>
<!-- Node1&#45;&gt;Node15 -->
<g id="edge23" class="edge">
<title>Node1&#45;&gt;Node15</title>
<path fill="none" stroke="midnightblue" d="M483.81,-171.79C535.11,-163.6 637.4,-147.09 724,-132 725.27,-131.78 726.56,-131.55 727.86,-131.32"/>
<polygon fill="midnightblue" stroke="midnightblue" points="728.72,-134.72 737.95,-129.52 727.49,-127.83 728.72,-134.72"/>
</g>
<!-- Node16 -->
<g id="node16" class="node">
<title>Node16</title>
<g id="a_node16"><a xlink:title=" ">
<polygon fill="white" stroke="#bfbfbf" points="713,-56.5 713,-75.5 769,-75.5 769,-56.5 713,-56.5"/>
<text text-anchor="middle" x="741" y="-63.5" font-family="Helvetica,sans-Serif" font-size="10.00">cgnslib.h</text>
</a>
</g>
</g>
<!-- Node1&#45;&gt;Node16 -->
<g id="edge26" class="edge">
<title>Node1&#45;&gt;Node16</title>
<path fill="none" stroke="midnightblue" d="M483.7,-177.89C532.25,-177.74 624.68,-171.67 690,-132 708.71,-120.64 723.23,-99.73 731.91,-84.69"/>
<polygon fill="midnightblue" stroke="midnightblue" points="735.04,-86.27 736.76,-75.82 728.9,-82.91 735.04,-86.27"/>
</g>
<!-- Node17 -->
<g id="node17" class="node">
<title>Node17</title>
<g id="a_node17"><a xlink:href="initialCondition_8h.html" target="_top" xlink:title=" ">
<polygon fill="white" stroke="black" points="826.5,-112.5 826.5,-131.5 915.5,-131.5 915.5,-112.5 826.5,-112.5"/>
<text text-anchor="middle" x="871" y="-119.5" font-family="Helvetica,sans-Serif" font-size="10.00">initialCondition.h</text>
</a>
</g>
</g>
<!-- Node1&#45;&gt;Node17 -->
<g id="edge25" class="edge">
<title>Node1&#45;&gt;Node17</title>
<path fill="none" stroke="midnightblue" d="M483.87,-173.44C546.4,-166.55 687.02,-150.58 816.17,-132.07"/>
<polygon fill="midnightblue" stroke="midnightblue" points="816.84,-135.5 826.23,-130.61 815.84,-128.58 816.84,-135.5"/>
</g>
<!-- Node9&#45;&gt;Node8 -->
<g id="edge9" class="edge">
<title>Node9&#45;&gt;Node8</title>
<path fill="none" stroke="midnightblue" d="M436.54,-112.49C446.48,-104.38 460.12,-91.18 466,-76 471.87,-60.84 467.84,-42.49 463.09,-29.16"/>
<polygon fill="midnightblue" stroke="midnightblue" points="466.27,-27.69 459.3,-19.71 459.77,-30.29 466.27,-27.69"/>
</g>
<!-- Node10 -->
<g id="node10" class="node">
<title>Node10</title>
<g id="a_node10"><a xlink:href="boundary_8h.html" target="_top" xlink:title="Contains the structure definition of a boundary.">
<polygon fill="white" stroke="black" points="392.5,-56.5 392.5,-75.5 457.5,-75.5 457.5,-56.5 392.5,-56.5"/>
<text text-anchor="middle" x="425" y="-63.5" font-family="Helvetica,sans-Serif" font-size="10.00">boundary.h</text>
</a>
</g>
</g>
<!-- Node9&#45;&gt;Node10 -->
<g id="edge10" class="edge">
<title>Node9&#45;&gt;Node10</title>
<path fill="none" stroke="midnightblue" d="M419.83,-112.08C418.32,-104.93 417.89,-94.64 418.54,-85.69"/>
<polygon fill="midnightblue" stroke="midnightblue" points="422.02,-86.13 419.87,-75.75 415.08,-85.2 422.02,-86.13"/>
</g>
<!-- Node10&#45;&gt;Node6 -->
<g id="edge11" class="edge">
<title>Node10&#45;&gt;Node6</title>
<path fill="none" stroke="midnightblue" d="M392.35,-56.8C353.58,-47.06 289.02,-30.85 248.04,-20.55"/>
<polygon fill="midnightblue" stroke="midnightblue" points="248.7,-17.11 238.15,-18.07 247,-23.9 248.7,-17.11"/>
</g>
<!-- Node10&#45;&gt;Node8 -->
<g id="edge12" class="edge">
<title>Node10&#45;&gt;Node8</title>
<path fill="none" stroke="midnightblue" d="M429.95,-56.08C434.1,-48.61 440.15,-37.72 445.27,-28.52"/>
<polygon fill="midnightblue" stroke="midnightblue" points="448.34,-30.19 450.14,-19.75 442.22,-26.79 448.34,-30.19"/>
</g>
<!-- Node10&#45;&gt;Node9 -->
<g id="edge13" class="edge">
<title>Node10&#45;&gt;Node9</title>
<path fill="none" stroke="midnightblue" d="M430.13,-75.75C431.66,-82.86 432.1,-93.14 431.47,-102.1"/>
<polygon fill="midnightblue" stroke="midnightblue" points="427.99,-101.71 430.17,-112.08 434.93,-102.62 427.99,-101.71"/>
</g>
<!-- Node11&#45;&gt;Node6 -->
<g id="edge15" class="edge">
<title>Node11&#45;&gt;Node6</title>
<path fill="none" stroke="midnightblue" d="M316.88,-56.44C295.98,-47.56 263.07,-33.56 239.28,-23.45"/>
<polygon fill="midnightblue" stroke="midnightblue" points="240.6,-20.21 230.03,-19.52 237.86,-26.65 240.6,-20.21"/>
</g>
<!-- Node11&#45;&gt;Node8 -->
<g id="edge16" class="edge">
<title>Node11&#45;&gt;Node8</title>
<path fill="none" stroke="midnightblue" d="M355.7,-56.44C374.94,-47.64 405.15,-33.81 427.2,-23.72"/>
<polygon fill="midnightblue" stroke="midnightblue" points="428.75,-26.86 436.39,-19.52 425.84,-20.5 428.75,-26.86"/>
</g>
<!-- Node12&#45;&gt;Node3 -->
<g id="edge19" class="edge">
<title>Node12&#45;&gt;Node3</title>
<path fill="none" stroke="midnightblue" d="M119.58,-112.08C112.15,-104.22 101.15,-92.57 92.19,-83.08"/>
<polygon fill="midnightblue" stroke="midnightblue" points="94.68,-80.62 85.26,-75.75 89.59,-85.42 94.68,-80.62"/>
</g>
<!-- Node12&#45;&gt;Node6 -->
<g id="edge18" class="edge">
<title>Node12&#45;&gt;Node6</title>
<path fill="none" stroke="midnightblue" d="M130.66,-112.38C134.98,-99.3 144.4,-74.08 158,-56 166.63,-44.52 178.64,-33.89 188.94,-25.85"/>
<polygon fill="midnightblue" stroke="midnightblue" points="191.18,-28.54 197.08,-19.74 186.98,-22.95 191.18,-28.54"/>
</g>
<!-- Node13&#45;&gt;Node6 -->
<g id="edge21" class="edge">
<title>Node13&#45;&gt;Node6</title>
<path fill="none" stroke="midnightblue" d="M254.17,-112.3C246.76,-103.65 235.78,-89.73 229,-76 221.68,-61.17 216.67,-43.02 213.64,-29.67"/>
<polygon fill="midnightblue" stroke="midnightblue" points="217.04,-28.83 211.55,-19.77 210.19,-30.27 217.04,-28.83"/>
</g>
<!-- Node14 -->
<g id="node14" class="node">
<title>Node14</title>
<g id="a_node14"><a xlink:title=" ">
<polygon fill="white" stroke="#bfbfbf" points="238,-56.5 238,-75.5 282,-75.5 282,-56.5 238,-56.5"/>
<text text-anchor="middle" x="260" y="-63.5" font-family="Helvetica,sans-Serif" font-size="10.00">time.h</text>
</a>
</g>
</g>
<!-- Node13&#45;&gt;Node14 -->
<g id="edge22" class="edge">
<title>Node13&#45;&gt;Node14</title>
<path fill="none" stroke="midnightblue" d="M261.67,-112.08C261.41,-105.01 261.03,-94.86 260.7,-85.99"/>
<polygon fill="midnightblue" stroke="midnightblue" points="264.19,-85.61 260.32,-75.75 257.2,-85.87 264.19,-85.61"/>
</g>
<!-- Node15&#45;&gt;Node16 -->
<g id="edge24" class="edge">
<title>Node15&#45;&gt;Node16</title>
<path fill="none" stroke="midnightblue" d="M767.72,-112.08C763.29,-104.61 756.84,-93.72 751.38,-84.52"/>
<polygon fill="midnightblue" stroke="midnightblue" points="754.29,-82.57 746.19,-75.75 748.27,-86.14 754.29,-82.57"/>
</g>
</g>
</svg>
        <g id="navigator" transform="translate(0 0)" fill="#404254">
                <rect fill="#f2f5e9" fill-opacity="0.5" stroke="#606060" stroke-width=".5" x="0" y="0" width="60" height="60"/>
                <use id="zoomplus" xlink:href="#zoomPlus" x="17" y="9" onmousedown="handleZoom(evt,'in')"/>
                <use id="zoomminus" xlink:href="#zoomMin" x="42" y="9" onmousedown="handleZoom(evt,'out')"/>
                <use id="reset" xlink:href="#resetDef" x="30" y="36" onmousedown="handleReset()"/>
                <g id="arrowUp" xlink:href="#dirArrow" transform="translate(30 24)" onmousedown="handlePan(0,-1)">
                  <use xlink:href="#rim" fill="#404040">
                        <set attributeName="fill" to="#808080" begin="arrowUp.mouseover" end="arrowUp.mouseout"/>
                  </use>
                  <path fill="none" stroke="white" stroke-width="1.5" d="M0,-3.0v7 M-2.5,-0.5L0,-3.0L2.5,-0.5"/>
                </g>
                <g id="arrowRight" xlink:href="#dirArrow" transform="rotate(90) translate(36 -43)" onmousedown="handlePan(1,0)">
                  <use xlink:href="#rim" fill="#404040">
                        <set attributeName="fill" to="#808080" begin="arrowRight.mouseover" end="arrowRight.mouseout"/>
                  </use>
                  <path fill="none" stroke="white" stroke-width="1.5" d="M0,-3.0v7 M-2.5,-0.5L0,-3.0L2.5,-0.5"/>
                </g>
                <g id="arrowDown" xlink:href="#dirArrow" transform="rotate(180) translate(-30 -48)" onmousedown="handlePan(0,1)">
                  <use xlink:href="#rim" fill="#404040">
                        <set attributeName="fill" to="#808080" begin="arrowDown.mouseover" end="arrowDown.mouseout"/>
                  </use>
                  <path fill="none" stroke="white" stroke-width="1.5" d="M0,-3.0v7 M-2.5,-0.5L0,-3.0L2.5,-0.5"/>
                </g>
                <g id="arrowLeft" xlink:href="#dirArrow" transform="rotate(270) translate(-36 17)" onmousedown="handlePan(-1,0)">
                  <use xlink:href="#rim" fill="#404040">
                        <set attributeName="fill" to="#808080" begin="arrowLeft.mouseover" end="arrowLeft.mouseout"/>
                  </use>
                  <path fill="none" stroke="white" stroke-width="1.5" d="M0,-3.0v7 M-2.5,-0.5L0,-3.0L2.5,-0.5"/>
                </g>
        </g>
        <svg viewBox="0 0 15 15" width="100%" height="30px" preserveAspectRatio="xMaxYMin meet">
         <g id="arrow_out" transform="scale(0.3 0.3)">
          <a xlink:href="mesh_8c__incl_org.svg" target="_base">
           <rect id="button" ry="5" rx="5" y="6" x="6" height="38" width="38"
                fill="#f2f5e9" fill-opacity="0.5" stroke="#606060" stroke-width="1.0"/>
           <path id="arrow"
             d="M 11.500037,31.436501 C 11.940474,20.09759 22.043105,11.32322 32.158766,21.979434 L 37.068811,17.246167 C 37.068811,17.246167 37.088388,32 37.088388,32 L 22.160133,31.978069 C 22.160133,31.978069 26.997745,27.140456 26.997745,27.140456 C 18.528582,18.264221 13.291696,25.230495 11.500037,31.436501 z"
             style="fill:#404040;"/>
          </a>
         </g>
        </svg>
</svg>
