<?xml version="1.0" encoding="UTF-8" standalone="no"?>
<!DOCTYPE svg PUBLIC "-//W3C//DTD SVG 1.1//EN"
 "http://www.w3.org/Graphics/SVG/1.1/DTD/svg11.dtd">
<!-- Generated by graphviz version 2.42.3 (0)
 -->
<!-- Title: src/mesh.h Pages: 1 -->
<svg width="678pt" height="140pt"
 viewBox="0.00 0.00 677.50 140.00" xmlns="http://www.w3.org/2000/svg" xmlns:xlink="http://www.w3.org/1999/xlink">
<g id="graph0" class="graph" transform="scale(1 1) rotate(0) translate(4 136)">
<title>src/mesh.h</title>
<polygon fill="white" stroke="transparent" points="-4,4 -4,-136 673.5,-136 673.5,4 -4,4"/>
<!-- Node1 -->
<g id="node1" class="node">
<title>Node1</title>
<g id="a_node1"><a xlink:title="Contains the definitions of all structs for the mesh handling.">
<polygon fill="#bfbfbf" stroke="black" points="352.5,-112.5 352.5,-131.5 417.5,-131.5 417.5,-112.5 352.5,-112.5"/>
<text text-anchor="middle" x="385" y="-119.5" font-family="Helvetica,sans-Serif" font-size="10.00">src/mesh.h</text>
</a>
</g>
</g>
<!-- Node2 -->
<g id="node2" class="node">
<title>Node2</title>
<g id="a_node2"><a xlink:href="analyze_8h.html" target="_top" xlink:title="Contains the structure definitions of wing_t and recordPoint_t">
<polygon fill="white" stroke="black" points="89,-56.5 89,-75.5 163,-75.5 163,-56.5 89,-56.5"/>
<text text-anchor="middle" x="126" y="-63.5" font-family="Helvetica,sans-Serif" font-size="10.00">src/analyze.h</text>
</a>
</g>
</g>
<!-- Node1&#45;&gt;Node2 -->
<g id="edge1" class="edge">
<title>Node1&#45;&gt;Node2</title>
<path fill="none" stroke="midnightblue" d="M342.63,-112.17C292.76,-101.77 210.74,-84.67 163.22,-74.76"/>
<polygon fill="midnightblue" stroke="midnightblue" points="341.96,-115.6 352.46,-114.22 343.38,-108.75 341.96,-115.6"/>
</g>
<!-- Node4 -->
<g id="node4" class="node">
<title>Node4</title>
<g id="a_node4"><a xlink:href="main_8c.html" target="_top" xlink:title="Contains the main function of ccfd">
<polygon fill="white" stroke="black" points="178,-0.5 178,-19.5 240,-19.5 240,-0.5 178,-0.5"/>
<text text-anchor="middle" x="209" y="-7.5" font-family="Helvetica,sans-Serif" font-size="10.00">src/main.c</text>
</a>
</g>
</g>
<!-- Node1&#45;&gt;Node4 -->
<g id="edge11" class="edge">
<title>Node1&#45;&gt;Node4</title>
<path fill="none" stroke="midnightblue" d="M342.03,-115.91C295.64,-109.44 226.2,-96.56 210,-76 197.15,-59.69 202.25,-33.25 206.14,-19.66"/>
<polygon fill="midnightblue" stroke="midnightblue" points="341.75,-119.41 352.13,-117.27 342.68,-112.47 341.75,-119.41"/>
</g>
<!-- Node6 -->
<g id="node6" class="node">
<title>Node6</title>
<g id="a_node6"><a xlink:href="finiteVolume_8c.html" target="_top" xlink:title="Finite volume time derivative functions.">
<polygon fill="white" stroke="black" points="219.5,-56.5 219.5,-75.5 314.5,-75.5 314.5,-56.5 219.5,-56.5"/>
<text text-anchor="middle" x="267" y="-63.5" font-family="Helvetica,sans-Serif" font-size="10.00">src/finiteVolume.c</text>
</a>
</g>
</g>
<!-- Node1&#45;&gt;Node6 -->
<g id="edge5" class="edge">
<title>Node1&#45;&gt;Node6</title>
<path fill="none" stroke="midnightblue" d="M357.1,-108.23C335.03,-98.13 304.82,-84.31 285.61,-75.52"/>
<polygon fill="midnightblue" stroke="midnightblue" points="355.75,-111.46 366.3,-112.44 358.67,-105.1 355.75,-111.46"/>
</g>
<!-- Node7 -->
<g id="node7" class="node">
<title>Node7</title>
<g id="a_node7"><a xlink:href="initialCondition_8c.html" target="_top" xlink:title="Functions involving the initialization and application of initial conditions.">
<polygon fill="white" stroke="black" points="332.5,-56.5 332.5,-75.5 437.5,-75.5 437.5,-56.5 332.5,-56.5"/>
<text text-anchor="middle" x="385" y="-63.5" font-family="Helvetica,sans-Serif" font-size="10.00">src/initialCondition.c</text>
</a>
</g>
</g>
<!-- Node1&#45;&gt;Node7 -->
<g id="edge6" class="edge">
<title>Node1&#45;&gt;Node7</title>
<path fill="none" stroke="midnightblue" d="M385,-101.8C385,-92.91 385,-82.78 385,-75.75"/>
<polygon fill="midnightblue" stroke="midnightblue" points="381.5,-102.08 385,-112.08 388.5,-102.08 381.5,-102.08"/>
</g>
<!-- Node8 -->
<g id="node8" class="node">
<title>Node8</title>
<g id="a_node8"><a xlink:href="linearSolver_8h.html" target="_top" xlink:title=" ">
<polygon fill="white" stroke="black" points="456,-56.5 456,-75.5 548,-75.5 548,-56.5 456,-56.5"/>
<text text-anchor="middle" x="502" y="-63.5" font-family="Helvetica,sans-Serif" font-size="10.00">src/linearSolver.h</text>
</a>
</g>
</g>
<!-- Node1&#45;&gt;Node8 -->
<g id="edge7" class="edge">
<title>Node1&#45;&gt;Node8</title>
<path fill="none" stroke="midnightblue" d="M412.66,-108.23C434.55,-98.13 464.5,-84.31 483.55,-75.52"/>
<polygon fill="midnightblue" stroke="midnightblue" points="411.15,-105.08 403.54,-112.44 414.09,-111.43 411.15,-105.08"/>
</g>
<!-- Node9 -->
<g id="node9" class="node">
<title>Node9</title>
<g id="a_node9"><a xlink:href="linearSolver_8c.html" target="_top" xlink:title="Contains the functions for solving the linear system of equations during implicit calculations.">
<polygon fill="white" stroke="black" points="493,-0.5 493,-19.5 585,-19.5 585,-0.5 493,-0.5"/>
<text text-anchor="middle" x="539" y="-7.5" font-family="Helvetica,sans-Serif" font-size="10.00">src/linearSolver.c</text>
</a>
</g>
</g>
<!-- Node1&#45;&gt;Node9 -->
<g id="edge10" class="edge">
<title>Node1&#45;&gt;Node9</title>
<path fill="none" stroke="midnightblue" d="M427.68,-115.79C473.33,-109.24 541.31,-96.33 557,-76 570.02,-59.13 555.43,-33.39 545.91,-19.93"/>
<polygon fill="midnightblue" stroke="midnightblue" points="427.16,-112.33 417.74,-117.17 428.13,-119.27 427.16,-112.33"/>
</g>
<!-- Node10 -->
<g id="node10" class="node">
<title>Node10</title>
<g id="a_node10"><a xlink:href="mesh_8c.html" target="_top" xlink:title="Contains all the functions for reading and creating meshes.">
<polygon fill="white" stroke="black" points="604.5,-56.5 604.5,-75.5 669.5,-75.5 669.5,-56.5 604.5,-56.5"/>
<text text-anchor="middle" x="637" y="-63.5" font-family="Helvetica,sans-Serif" font-size="10.00">src/mesh.c</text>
</a>
</g>
</g>
<!-- Node1&#45;&gt;Node10 -->
<g id="edge12" class="edge">
<title>Node1&#45;&gt;Node10</title>
<path fill="none" stroke="midnightblue" d="M427.53,-111.89C477.46,-101.19 559.18,-83.68 604.37,-73.99"/>
<polygon fill="midnightblue" stroke="midnightblue" points="426.73,-108.48 417.69,-114 428.2,-115.32 426.73,-108.48"/>
</g>
<!-- Node3 -->
<g id="node3" class="node">
<title>Node3</title>
<g id="a_node3"><a xlink:href="analyze_8c.html" target="_top" xlink:title="Contains functions for analyzing flow results.">
<polygon fill="white" stroke="black" points="0,-0.5 0,-19.5 74,-19.5 74,-0.5 0,-0.5"/>
<text text-anchor="middle" x="37" y="-7.5" font-family="Helvetica,sans-Serif" font-size="10.00">src/analyze.c</text>
</a>
</g>
</g>
<!-- Node2&#45;&gt;Node3 -->
<g id="edge2" class="edge">
<title>Node2&#45;&gt;Node3</title>
<path fill="none" stroke="midnightblue" d="M102.76,-50.9C86.44,-41 65.13,-28.07 51.26,-19.65"/>
<polygon fill="midnightblue" stroke="midnightblue" points="101.34,-54.13 111.7,-56.32 104.97,-48.14 101.34,-54.13"/>
</g>
<!-- Node2&#45;&gt;Node4 -->
<g id="edge3" class="edge">
<title>Node2&#45;&gt;Node4</title>
<path fill="none" stroke="midnightblue" d="M148.1,-50.62C163.26,-40.76 182.88,-27.99 195.7,-19.65"/>
<polygon fill="midnightblue" stroke="midnightblue" points="145.81,-47.94 139.34,-56.32 149.63,-53.8 145.81,-47.94"/>
</g>
<!-- Node5 -->
<g id="node5" class="node">
<title>Node5</title>
<g id="a_node5"><a xlink:href="output_8c.html" target="_top" xlink:title="Contains all functions used for writing flow solutions.">
<polygon fill="white" stroke="black" points="92,-0.5 92,-19.5 160,-19.5 160,-0.5 92,-0.5"/>
<text text-anchor="middle" x="126" y="-7.5" font-family="Helvetica,sans-Serif" font-size="10.00">src/output.c</text>
</a>
</g>
</g>
<!-- Node2&#45;&gt;Node5 -->
<g id="edge4" class="edge">
<title>Node2&#45;&gt;Node5</title>
<path fill="none" stroke="midnightblue" d="M126,-45.8C126,-36.91 126,-26.78 126,-19.75"/>
<polygon fill="midnightblue" stroke="midnightblue" points="122.5,-46.08 126,-56.08 129.5,-46.08 122.5,-46.08"/>
</g>
<!-- Node8&#45;&gt;Node4 -->
<g id="edge9" class="edge">
<title>Node8&#45;&gt;Node4</title>
<path fill="none" stroke="midnightblue" d="M446.01,-54.68C384.8,-43.4 288.94,-25.73 240,-16.71"/>
<polygon fill="midnightblue" stroke="midnightblue" points="445.43,-58.13 455.9,-56.5 446.7,-51.25 445.43,-58.13"/>
</g>
<!-- Node8&#45;&gt;Node9 -->
<g id="edge8" class="edge">
<title>Node8&#45;&gt;Node9</title>
<path fill="none" stroke="midnightblue" d="M513.95,-47.57C520.31,-38.27 527.87,-27.25 533,-19.75"/>
<polygon fill="midnightblue" stroke="midnightblue" points="510.87,-45.86 508.11,-56.08 516.65,-49.81 510.87,-45.86"/>
</g>
</g>
</svg>
