<?xml version="1.0" encoding="UTF-8" standalone="no"?>
<!DOCTYPE svg PUBLIC "-//W3C//DTD SVG 1.1//EN"
 "http://www.w3.org/Graphics/SVG/1.1/DTD/svg11.dtd">
<!-- Generated by graphviz version 2.42.3 (0)
 -->
<!-- Title: src/mesh.h Pages: 1 -->
<svg width="708pt" height="196pt"
 viewBox="0.00 0.00 708.47 196.00" xmlns="http://www.w3.org/2000/svg" xmlns:xlink="http://www.w3.org/1999/xlink">
<g id="graph0" class="graph" transform="scale(1 1) rotate(0) translate(4 192)">
<title>src/mesh.h</title>
<polygon fill="white" stroke="transparent" points="-4,4 -4,-192 704.47,-192 704.47,4 -4,4"/>
<!-- Node1 -->
<g id="node1" class="node">
<title>Node1</title>
<g id="a_node1"><a xlink:title="Contains the definitions of all structs for the mesh handling.">
<polygon fill="#bfbfbf" stroke="black" points="310.97,-168.5 310.97,-187.5 375.97,-187.5 375.97,-168.5 310.97,-168.5"/>
<text text-anchor="middle" x="343.47" y="-175.5" font-family="Helvetica,sans-Serif" font-size="10.00">src/mesh.h</text>
</a>
</g>
</g>
<!-- Node2 -->
<g id="node2" class="node">
<title>Node2</title>
<g id="a_node2"><a xlink:href="analyze_8h.html" target="_top" xlink:title="Contains the structure definitions of wing_t and recordPoint_t">
<polygon fill="white" stroke="black" points="47.47,-56.5 47.47,-75.5 121.47,-75.5 121.47,-56.5 47.47,-56.5"/>
<text text-anchor="middle" x="84.47" y="-63.5" font-family="Helvetica,sans-Serif" font-size="10.00">src/analyze.h</text>
</a>
</g>
</g>
<!-- Node1&#45;&gt;Node2 -->
<g id="edge1" class="edge">
<title>Node1&#45;&gt;Node2</title>
<path fill="none" stroke="midnightblue" d="M300.94,-174.43C214.46,-168.76 24.68,-153.93 5.47,-132 -14.89,-108.75 28.92,-87.08 59.08,-75.58"/>
<polygon fill="midnightblue" stroke="midnightblue" points="300.75,-177.92 310.95,-175.07 301.2,-170.94 300.75,-177.92"/>
</g>
<!-- Node4 -->
<g id="node4" class="node">
<title>Node4</title>
<g id="a_node4"><a xlink:href="main_8c.html" target="_top" xlink:title="Contains the main function of ccfd">
<polygon fill="white" stroke="black" points="403.47,-0.5 403.47,-19.5 465.47,-19.5 465.47,-0.5 403.47,-0.5"/>
<text text-anchor="middle" x="434.47" y="-7.5" font-family="Helvetica,sans-Serif" font-size="10.00">src/main.c</text>
</a>
</g>
</g>
<!-- Node1&#45;&gt;Node4 -->
<g id="edge12" class="edge">
<title>Node1&#45;&gt;Node4</title>
<path fill="none" stroke="midnightblue" d="M386.22,-172.33C433.96,-166.14 506.76,-153.41 523.47,-132 555.73,-90.69 482.47,-39.65 449.5,-19.63"/>
<polygon fill="midnightblue" stroke="midnightblue" points="385.64,-168.88 376.15,-173.59 386.5,-175.82 385.64,-168.88"/>
</g>
<!-- Node6 -->
<g id="node6" class="node">
<title>Node6</title>
<g id="a_node6"><a xlink:href="euler_2boundary_8h_source.html" target="_top" xlink:title=" ">
<polygon fill="white" stroke="black" points="172.97,-112.5 172.97,-131.5 277.97,-131.5 277.97,-112.5 172.97,-112.5"/>
<text text-anchor="middle" x="225.47" y="-119.5" font-family="Helvetica,sans-Serif" font-size="10.00">src/euler/boundary.h</text>
</a>
</g>
</g>
<!-- Node1&#45;&gt;Node6 -->
<g id="edge5" class="edge">
<title>Node1&#45;&gt;Node6</title>
<path fill="none" stroke="midnightblue" d="M315.57,-164.23C293.5,-154.13 263.29,-140.31 244.08,-131.52"/>
<polygon fill="midnightblue" stroke="midnightblue" points="314.22,-167.46 324.77,-168.44 317.14,-161.1 314.22,-167.46"/>
</g>
<!-- Node7 -->
<g id="node7" class="node">
<title>Node7</title>
<g id="a_node7"><a xlink:href="finiteVolume_8c.html" target="_top" xlink:title="Finite volume time derivative functions.">
<polygon fill="white" stroke="black" points="295.97,-112.5 295.97,-131.5 390.97,-131.5 390.97,-112.5 295.97,-112.5"/>
<text text-anchor="middle" x="343.47" y="-119.5" font-family="Helvetica,sans-Serif" font-size="10.00">src/finiteVolume.c</text>
</a>
</g>
</g>
<!-- Node1&#45;&gt;Node7 -->
<g id="edge6" class="edge">
<title>Node1&#45;&gt;Node7</title>
<path fill="none" stroke="midnightblue" d="M343.47,-157.8C343.47,-148.91 343.47,-138.78 343.47,-131.75"/>
<polygon fill="midnightblue" stroke="midnightblue" points="339.97,-158.08 343.47,-168.08 346.97,-158.08 339.97,-158.08"/>
</g>
<!-- Node8 -->
<g id="node8" class="node">
<title>Node8</title>
<g id="a_node8"><a xlink:href="initialCondition_8c.html" target="_top" xlink:title="Functions involving the initialization and application of initial conditions.">
<polygon fill="white" stroke="black" points="408.97,-112.5 408.97,-131.5 513.97,-131.5 513.97,-112.5 408.97,-112.5"/>
<text text-anchor="middle" x="461.47" y="-119.5" font-family="Helvetica,sans-Serif" font-size="10.00">src/initialCondition.c</text>
</a>
</g>
</g>
<!-- Node1&#45;&gt;Node8 -->
<g id="edge7" class="edge">
<title>Node1&#45;&gt;Node8</title>
<path fill="none" stroke="midnightblue" d="M371.37,-164.23C393.44,-154.13 423.65,-140.31 442.86,-131.52"/>
<polygon fill="midnightblue" stroke="midnightblue" points="369.8,-161.1 362.17,-168.44 372.72,-167.46 369.8,-161.1"/>
</g>
<!-- Node9 -->
<g id="node9" class="node">
<title>Node9</title>
<g id="a_node9"><a xlink:href="linearSolver_8h.html" target="_top" xlink:title=" ">
<polygon fill="white" stroke="black" points="608.47,-112.5 608.47,-131.5 700.47,-131.5 700.47,-112.5 608.47,-112.5"/>
<text text-anchor="middle" x="654.47" y="-119.5" font-family="Helvetica,sans-Serif" font-size="10.00">src/linearSolver.h</text>
</a>
</g>
</g>
<!-- Node1&#45;&gt;Node9 -->
<g id="edge8" class="edge">
<title>Node1&#45;&gt;Node9</title>
<path fill="none" stroke="midnightblue" d="M386.15,-169.59C444.42,-159.47 548.46,-141.41 608.44,-130.99"/>
<polygon fill="midnightblue" stroke="midnightblue" points="385.42,-166.16 376.16,-171.32 386.62,-173.06 385.42,-166.16"/>
</g>
<!-- Node10 -->
<g id="node10" class="node">
<title>Node10</title>
<g id="a_node10"><a xlink:href="linearSolver_8c.html" target="_top" xlink:title="Contains the functions for solving the linear system of equations during implicit calculations.">
<polygon fill="white" stroke="black" points="570.47,-56.5 570.47,-75.5 662.47,-75.5 662.47,-56.5 570.47,-56.5"/>
<text text-anchor="middle" x="616.47" y="-63.5" font-family="Helvetica,sans-Serif" font-size="10.00">src/linearSolver.c</text>
</a>
</g>
</g>
<!-- Node1&#45;&gt;Node10 -->
<g id="edge11" class="edge">
<title>Node1&#45;&gt;Node10</title>
<path fill="none" stroke="midnightblue" d="M386.32,-175.54C431.36,-172.34 502.97,-162.41 556.47,-132 581.3,-117.89 601.73,-89.97 611.04,-75.76"/>
<polygon fill="midnightblue" stroke="midnightblue" points="386.06,-172.05 376.3,-176.17 386.5,-179.03 386.06,-172.05"/>
</g>
<!-- Node11 -->
<g id="node11" class="node">
<title>Node11</title>
<g id="a_node11"><a xlink:href="navierstokes_2boundary_8h_source.html" target="_top" xlink:title=" ">
<polygon fill="white" stroke="black" points="14.47,-112.5 14.47,-131.5 154.47,-131.5 154.47,-112.5 14.47,-112.5"/>
<text text-anchor="middle" x="84.47" y="-119.5" font-family="Helvetica,sans-Serif" font-size="10.00">src/navierstokes/boundary.h</text>
</a>
</g>
</g>
<!-- Node1&#45;&gt;Node11 -->
<g id="edge13" class="edge">
<title>Node1&#45;&gt;Node11</title>
<path fill="none" stroke="midnightblue" d="M300.92,-169.16C250.5,-159.14 167.6,-141.87 120.3,-131.53"/>
<polygon fill="midnightblue" stroke="midnightblue" points="300.37,-172.61 310.86,-171.12 301.73,-165.75 300.37,-172.61"/>
</g>
<!-- Node3 -->
<g id="node3" class="node">
<title>Node3</title>
<g id="a_node3"><a xlink:href="analyze_8c.html" target="_top" xlink:title="Contains functions for analyzing flow results.">
<polygon fill="white" stroke="black" points="92.47,-0.5 92.47,-19.5 166.47,-19.5 166.47,-0.5 92.47,-0.5"/>
<text text-anchor="middle" x="129.47" y="-7.5" font-family="Helvetica,sans-Serif" font-size="10.00">src/analyze.c</text>
</a>
</g>
</g>
<!-- Node2&#45;&gt;Node3 -->
<g id="edge2" class="edge">
<title>Node2&#45;&gt;Node3</title>
<path fill="none" stroke="midnightblue" d="M98.52,-48.14C106.36,-38.74 115.8,-27.4 122.18,-19.75"/>
<polygon fill="midnightblue" stroke="midnightblue" points="95.61,-46.16 91.9,-56.08 100.99,-50.64 95.61,-46.16"/>
</g>
<!-- Node2&#45;&gt;Node4 -->
<g id="edge3" class="edge">
<title>Node2&#45;&gt;Node4</title>
<path fill="none" stroke="midnightblue" d="M131.84,-57.69C204.6,-46.47 341.85,-25.29 403.32,-15.81"/>
<polygon fill="midnightblue" stroke="midnightblue" points="130.94,-54.29 121.6,-59.27 132.01,-61.21 130.94,-54.29"/>
</g>
<!-- Node5 -->
<g id="node5" class="node">
<title>Node5</title>
<g id="a_node5"><a xlink:href="output_8c.html" target="_top" xlink:title="Contains all functions used for writing flow solutions.">
<polygon fill="white" stroke="black" points="6.47,-0.5 6.47,-19.5 74.47,-19.5 74.47,-0.5 6.47,-0.5"/>
<text text-anchor="middle" x="40.47" y="-7.5" font-family="Helvetica,sans-Serif" font-size="10.00">src/output.c</text>
</a>
</g>
</g>
<!-- Node2&#45;&gt;Node5 -->
<g id="edge4" class="edge">
<title>Node2&#45;&gt;Node5</title>
<path fill="none" stroke="midnightblue" d="M70.74,-48.14C63.07,-38.74 53.84,-27.4 47.6,-19.75"/>
<polygon fill="midnightblue" stroke="midnightblue" points="68.17,-50.54 77.2,-56.08 73.6,-46.12 68.17,-50.54"/>
</g>
<!-- Node9&#45;&gt;Node4 -->
<g id="edge10" class="edge">
<title>Node9&#45;&gt;Node4</title>
<path fill="none" stroke="midnightblue" d="M666.62,-103.59C674.93,-89.34 682.59,-69.43 671.47,-56 645.7,-24.87 524.08,-15.1 465.78,-12.18"/>
<polygon fill="midnightblue" stroke="midnightblue" points="663.43,-102.08 661,-112.39 669.33,-105.85 663.43,-102.08"/>
</g>
<!-- Node9&#45;&gt;Node10 -->
<g id="edge9" class="edge">
<title>Node9&#45;&gt;Node10</title>
<path fill="none" stroke="midnightblue" d="M642.41,-103.86C635.83,-94.5 627.96,-83.33 622.63,-75.75"/>
<polygon fill="midnightblue" stroke="midnightblue" points="639.58,-105.92 648.2,-112.08 645.3,-101.89 639.58,-105.92"/>
</g>
<!-- Node11&#45;&gt;Node1 -->
<g id="edge15" class="edge">
<title>Node11&#45;&gt;Node1</title>
<path fill="none" stroke="midnightblue" d="M140.76,-133.59C192.72,-144.04 267.98,-159.77 310.74,-169.15"/>
<polygon fill="midnightblue" stroke="midnightblue" points="141.19,-130.11 130.69,-131.58 139.81,-136.97 141.19,-130.11"/>
</g>
<!-- Node11&#45;&gt;Node2 -->
<g id="edge14" class="edge">
<title>Node11&#45;&gt;Node2</title>
<path fill="none" stroke="midnightblue" d="M84.47,-101.8C84.47,-92.91 84.47,-82.78 84.47,-75.75"/>
<polygon fill="midnightblue" stroke="midnightblue" points="80.97,-102.08 84.47,-112.08 87.97,-102.08 80.97,-102.08"/>
</g>
<!-- Node11&#45;&gt;Node4 -->
<g id="edge16" class="edge">
<title>Node11&#45;&gt;Node4</title>
<path fill="none" stroke="midnightblue" d="M121.45,-109.38C192.08,-87.18 344.7,-39.21 407.07,-19.61"/>
<polygon fill="midnightblue" stroke="midnightblue" points="120.13,-106.12 111.64,-112.46 122.23,-112.8 120.13,-106.12"/>
</g>
</g>
</svg>
