<?xml version="1.0" encoding="UTF-8" standalone="no"?>
<!DOCTYPE svg PUBLIC "-//W3C//DTD SVG 1.1//EN"
 "http://www.w3.org/Graphics/SVG/1.1/DTD/svg11.dtd">
<!-- Generated by graphviz version 2.44.0 (0)
 -->
<!-- Title: src/mesh.h Pages: 1 -->
<svg width="1177pt" height="196pt"
 viewBox="0.00 0.00 1176.50 196.00" xmlns="http://www.w3.org/2000/svg" xmlns:xlink="http://www.w3.org/1999/xlink">
<g id="graph0" class="graph" transform="scale(1 1) rotate(0) translate(4 192)">
<title>src/mesh.h</title>
<polygon fill="white" stroke="transparent" points="-4,4 -4,-192 1172.5,-192 1172.5,4 -4,4"/>
<!-- Node1 -->
<g id="node1" class="node">
<title>Node1</title>
<g id="a_node1"><a xlink:title="Contains the definitions of all structs for the mesh handling.">
<polygon fill="#bfbfbf" stroke="black" points="478.5,-168.5 478.5,-187.5 543.5,-187.5 543.5,-168.5 478.5,-168.5"/>
<text text-anchor="middle" x="511" y="-175.5" font-family="Helvetica,sans-Serif" font-size="10.00">src/mesh.h</text>
</a>
</g>
</g>
<!-- Node2 -->
<g id="node2" class="node">
<title>Node2</title>
<g id="a_node2"><a xlink:href="boundary_8h.html" target="_top" xlink:title="Contains the structure definition of a boundary.">
<polygon fill="white" stroke="black" points="174.5,-112.5 174.5,-131.5 255.5,-131.5 255.5,-112.5 174.5,-112.5"/>
<text text-anchor="middle" x="215" y="-119.5" font-family="Helvetica,sans-Serif" font-size="10.00">src/boundary.h</text>
</a>
</g>
</g>
<!-- Node1&#45;&gt;Node2 -->
<g id="edge1" class="edge">
<title>Node1&#45;&gt;Node2</title>
<path fill="none" stroke="midnightblue" d="M468.32,-170.07C411.35,-160.15 311.4,-141.94 255.53,-131.31"/>
<polygon fill="midnightblue" stroke="midnightblue" points="467.99,-173.57 478.44,-171.82 469.18,-166.67 467.99,-173.57"/>
</g>
<!-- Node3 -->
<g id="node3" class="node">
<title>Node3</title>
<g id="a_node3"><a xlink:href="analyze_8h.html" target="_top" xlink:title="Contains the structure definitions of wing_t and recordPoint_t">
<polygon fill="white" stroke="black" points="44,-56.5 44,-75.5 118,-75.5 118,-56.5 44,-56.5"/>
<text text-anchor="middle" x="81" y="-63.5" font-family="Helvetica,sans-Serif" font-size="10.00">src/analyze.h</text>
</a>
</g>
</g>
<!-- Node1&#45;&gt;Node3 -->
<g id="edge11" class="edge">
<title>Node1&#45;&gt;Node3</title>
<path fill="none" stroke="midnightblue" d="M468.16,-174.73C386.12,-169.86 210.1,-156.82 155,-132 125.69,-118.8 99.52,-89.93 87.69,-75.53"/>
<polygon fill="midnightblue" stroke="midnightblue" points="468.2,-178.24 478.39,-175.32 468.61,-171.25 468.2,-178.24"/>
</g>
<!-- Node5 -->
<g id="node5" class="node">
<title>Node5</title>
<g id="a_node5"><a xlink:href="main_8c.html" target="_top" xlink:title="Contains the main function of ccfd">
<polygon fill="white" stroke="black" points="234,-0.5 234,-19.5 296,-19.5 296,-0.5 234,-0.5"/>
<text text-anchor="middle" x="265" y="-7.5" font-family="Helvetica,sans-Serif" font-size="10.00">src/main.c</text>
</a>
</g>
</g>
<!-- Node1&#45;&gt;Node5 -->
<g id="edge23" class="edge">
<title>Node1&#45;&gt;Node5</title>
<path fill="none" stroke="midnightblue" d="M468.23,-175.69C429.12,-172.47 371.52,-162.4 332,-132 292.79,-101.84 273.3,-41.87 267.18,-19.59"/>
<polygon fill="midnightblue" stroke="midnightblue" points="468.02,-179.19 478.25,-176.4 468.52,-172.2 468.02,-179.19"/>
</g>
<!-- Node7 -->
<g id="node7" class="node">
<title>Node7</title>
<g id="a_node7"><a xlink:href="timeDiscretization_8c.html" target="_top" xlink:title="Contains the functions for performing the time stepping process.">
<polygon fill="white" stroke="black" points="424,-0.5 424,-19.5 544,-19.5 544,-0.5 424,-0.5"/>
<text text-anchor="middle" x="484" y="-7.5" font-family="Helvetica,sans-Serif" font-size="10.00">src/timeDiscretization.c</text>
</a>
</g>
</g>
<!-- Node1&#45;&gt;Node7 -->
<g id="edge27" class="edge">
<title>Node1&#45;&gt;Node7</title>
<path fill="none" stroke="midnightblue" d="M553.8,-172.95C604.1,-167.2 683,-154.76 701,-132 706.51,-125.03 703.34,-120.58 701,-112 693.4,-84.13 691.19,-73.23 668,-56 632.23,-29.42 582.78,-18.37 544.15,-13.86"/>
<polygon fill="midnightblue" stroke="midnightblue" points="553.4,-169.47 543.84,-174.04 554.17,-176.43 553.4,-169.47"/>
</g>
<!-- Node8 -->
<g id="node8" class="node">
<title>Node8</title>
<g id="a_node8"><a xlink:href="boundary_8c.html" target="_top" xlink:title="Contains the functions for initializing and applying boundary conditions.">
<polygon fill="white" stroke="black" points="136.5,-56.5 136.5,-75.5 217.5,-75.5 217.5,-56.5 136.5,-56.5"/>
<text text-anchor="middle" x="177" y="-63.5" font-family="Helvetica,sans-Serif" font-size="10.00">src/boundary.c</text>
</a>
</g>
</g>
<!-- Node1&#45;&gt;Node8 -->
<g id="edge12" class="edge">
<title>Node1&#45;&gt;Node8</title>
<path fill="none" stroke="midnightblue" d="M468.23,-174.53C380.28,-169.02 185.68,-154.41 166,-132 152.11,-116.18 163.87,-89.52 171.58,-75.78"/>
<polygon fill="midnightblue" stroke="midnightblue" points="468.21,-178.04 478.41,-175.16 468.65,-171.05 468.21,-178.04"/>
</g>
<!-- Node9 -->
<g id="node9" class="node">
<title>Node9</title>
<g id="a_node9"><a xlink:href="fluxCalculation_8c.html" target="_top" xlink:title="Contains the flux calculation functions.">
<polygon fill="white" stroke="black" points="312.5,-56.5 312.5,-75.5 417.5,-75.5 417.5,-56.5 312.5,-56.5"/>
<text text-anchor="middle" x="365" y="-63.5" font-family="Helvetica,sans-Serif" font-size="10.00">src/fluxCalculation.c</text>
</a>
</g>
</g>
<!-- Node1&#45;&gt;Node9 -->
<g id="edge15" class="edge">
<title>Node1&#45;&gt;Node9</title>
<path fill="none" stroke="midnightblue" d="M468.14,-171.62C423.03,-164.98 356.42,-152.03 341,-132 327.65,-114.65 345.41,-89.12 356.8,-75.8"/>
<polygon fill="midnightblue" stroke="midnightblue" points="467.87,-175.12 478.26,-173.06 468.85,-168.19 467.87,-175.12"/>
</g>
<!-- Node10 -->
<g id="node10" class="node">
<title>Node10</title>
<g id="a_node10"><a xlink:href="exactFunction_8c.html" target="_top" xlink:title="Contains the exact function evaluation function.">
<polygon fill="white" stroke="black" points="460,-112.5 460,-131.5 562,-131.5 562,-112.5 460,-112.5"/>
<text text-anchor="middle" x="511" y="-119.5" font-family="Helvetica,sans-Serif" font-size="10.00">src/exactFunction.c</text>
</a>
</g>
</g>
<!-- Node1&#45;&gt;Node10 -->
<g id="edge13" class="edge">
<title>Node1&#45;&gt;Node10</title>
<path fill="none" stroke="midnightblue" d="M511,-157.8C511,-148.91 511,-138.78 511,-131.75"/>
<polygon fill="midnightblue" stroke="midnightblue" points="507.5,-158.08 511,-168.08 514.5,-158.08 507.5,-158.08"/>
</g>
<!-- Node11 -->
<g id="node11" class="node">
<title>Node11</title>
<g id="a_node11"><a xlink:href="finiteVolume_8c.html" target="_top" xlink:title="Finite volume time derivative functions.">
<polygon fill="white" stroke="black" points="580.5,-112.5 580.5,-131.5 675.5,-131.5 675.5,-112.5 580.5,-112.5"/>
<text text-anchor="middle" x="628" y="-119.5" font-family="Helvetica,sans-Serif" font-size="10.00">src/finiteVolume.c</text>
</a>
</g>
</g>
<!-- Node1&#45;&gt;Node11 -->
<g id="edge14" class="edge">
<title>Node1&#45;&gt;Node11</title>
<path fill="none" stroke="midnightblue" d="M538.66,-164.23C560.55,-154.13 590.5,-140.31 609.55,-131.52"/>
<polygon fill="midnightblue" stroke="midnightblue" points="537.15,-161.08 529.54,-168.44 540.09,-167.43 537.15,-161.08"/>
</g>
<!-- Node12 -->
<g id="node12" class="node">
<title>Node12</title>
<g id="a_node12"><a xlink:href="linearSolver_8h.html" target="_top" xlink:title=" ">
<polygon fill="white" stroke="black" points="350,-112.5 350,-131.5 442,-131.5 442,-112.5 350,-112.5"/>
<text text-anchor="middle" x="396" y="-119.5" font-family="Helvetica,sans-Serif" font-size="10.00">src/linearSolver.h</text>
</a>
</g>
</g>
<!-- Node1&#45;&gt;Node12 -->
<g id="edge16" class="edge">
<title>Node1&#45;&gt;Node12</title>
<path fill="none" stroke="midnightblue" d="M483.52,-164.1C462.03,-154.01 432.78,-140.27 414.14,-131.52"/>
<polygon fill="midnightblue" stroke="midnightblue" points="482.24,-167.36 492.78,-168.44 485.21,-161.02 482.24,-167.36"/>
</g>
<!-- Node13 -->
<g id="node13" class="node">
<title>Node13</title>
<g id="a_node13"><a xlink:href="linearSolver_8c.html" target="_top" xlink:title="Contains the functions for solving the linear system of equations during implicit calculations.">
<polygon fill="white" stroke="black" points="567,-56.5 567,-75.5 659,-75.5 659,-56.5 567,-56.5"/>
<text text-anchor="middle" x="613" y="-63.5" font-family="Helvetica,sans-Serif" font-size="10.00">src/linearSolver.c</text>
</a>
</g>
</g>
<!-- Node1&#45;&gt;Node13 -->
<g id="edge22" class="edge">
<title>Node1&#45;&gt;Node13</title>
<path fill="none" stroke="midnightblue" d="M553.79,-171.92C599.96,-165.45 669.06,-152.59 685,-132 702.94,-108.83 663.23,-87.13 635.95,-75.6"/>
<polygon fill="midnightblue" stroke="midnightblue" points="553.18,-168.47 543.73,-173.28 554.11,-175.41 553.18,-168.47"/>
</g>
<!-- Node14 -->
<g id="node14" class="node">
<title>Node14</title>
<g id="a_node14"><a xlink:href="initialCondition_8c.html" target="_top" xlink:title="Functions involving the initialization and application of initial conditions.">
<polygon fill="white" stroke="black" points="770.5,-112.5 770.5,-131.5 875.5,-131.5 875.5,-112.5 770.5,-112.5"/>
<text text-anchor="middle" x="823" y="-119.5" font-family="Helvetica,sans-Serif" font-size="10.00">src/initialCondition.c</text>
</a>
</g>
</g>
<!-- Node1&#45;&gt;Node14 -->
<g id="edge21" class="edge">
<title>Node1&#45;&gt;Node14</title>
<path fill="none" stroke="midnightblue" d="M553.69,-169.61C611.14,-159.67 713.09,-142.02 773.72,-131.53"/>
<polygon fill="midnightblue" stroke="midnightblue" points="552.76,-166.22 543.51,-171.37 553.96,-173.12 552.76,-166.22"/>
</g>
<!-- Node15 -->
<g id="node15" class="node">
<title>Node15</title>
<g id="a_node15"><a xlink:href="mesh_8c.html" target="_top" xlink:title="Contains all the functions for reading and creating meshes.">
<polygon fill="white" stroke="black" points="893.5,-112.5 893.5,-131.5 958.5,-131.5 958.5,-112.5 893.5,-112.5"/>
<text text-anchor="middle" x="926" y="-119.5" font-family="Helvetica,sans-Serif" font-size="10.00">src/mesh.c</text>
</a>
</g>
</g>
<!-- Node1&#45;&gt;Node15 -->
<g id="edge24" class="edge">
<title>Node1&#45;&gt;Node15</title>
<path fill="none" stroke="midnightblue" d="M553.82,-173.2C623.51,-166.72 765.71,-152.22 885,-132 887.73,-131.54 890.55,-131.01 893.38,-130.46"/>
<polygon fill="midnightblue" stroke="midnightblue" points="553.31,-169.73 543.67,-174.14 553.95,-176.7 553.31,-169.73"/>
</g>
<!-- Node16 -->
<g id="node16" class="node">
<title>Node16</title>
<g id="a_node16"><a xlink:href="reconstruction_8c.html" target="_top" xlink:title="Contains the reconstruction and limiter functions.">
<polygon fill="white" stroke="black" points="976.5,-112.5 976.5,-131.5 1079.5,-131.5 1079.5,-112.5 976.5,-112.5"/>
<text text-anchor="middle" x="1028" y="-119.5" font-family="Helvetica,sans-Serif" font-size="10.00">src/reconstruction.c</text>
</a>
</g>
</g>
<!-- Node1&#45;&gt;Node16 -->
<g id="edge25" class="edge">
<title>Node1&#45;&gt;Node16</title>
<path fill="none" stroke="midnightblue" d="M554.07,-173.49C635.2,-166.72 816.19,-150.85 968,-132 970.72,-131.66 973.5,-131.3 976.31,-130.92"/>
<polygon fill="midnightblue" stroke="midnightblue" points="553.43,-170.03 543.76,-174.35 554.01,-177.01 553.43,-170.03"/>
</g>
<!-- Node17 -->
<g id="node17" class="node">
<title>Node17</title>
<g id="a_node17"><a xlink:href="source_8c.html" target="_top" xlink:title="Contains the functions for initializing and evaluating the source term.">
<polygon fill="white" stroke="black" points="1097.5,-112.5 1097.5,-131.5 1168.5,-131.5 1168.5,-112.5 1097.5,-112.5"/>
<text text-anchor="middle" x="1133" y="-119.5" font-family="Helvetica,sans-Serif" font-size="10.00">src/source.c</text>
</a>
</g>
</g>
<!-- Node1&#45;&gt;Node17 -->
<g id="edge26" class="edge">
<title>Node1&#45;&gt;Node17</title>
<path fill="none" stroke="midnightblue" d="M553.95,-175.48C650.16,-171.68 890.14,-159.97 1089,-132 1091.63,-131.63 1094.33,-131.2 1097.04,-130.73"/>
<polygon fill="midnightblue" stroke="midnightblue" points="553.6,-171.99 543.74,-175.87 553.87,-178.99 553.6,-171.99"/>
</g>
<!-- Node2&#45;&gt;Node1 -->
<g id="edge7" class="edge">
<title>Node2&#45;&gt;Node1</title>
<path fill="none" stroke="midnightblue" d="M266.14,-131.41C327.14,-142.1 427.1,-160.36 478.47,-170.22"/>
<polygon fill="midnightblue" stroke="midnightblue" points="266.41,-127.9 255.96,-129.63 265.21,-134.8 266.41,-127.9"/>
</g>
<!-- Node2&#45;&gt;Node3 -->
<g id="edge2" class="edge">
<title>Node2&#45;&gt;Node3</title>
<path fill="none" stroke="midnightblue" d="M184.32,-108.64C159.18,-98.5 124.25,-84.43 102.13,-75.52"/>
<polygon fill="midnightblue" stroke="midnightblue" points="183.18,-111.95 193.77,-112.44 185.8,-105.46 183.18,-111.95"/>
</g>
<!-- Node2&#45;&gt;Node5 -->
<g id="edge10" class="edge">
<title>Node2&#45;&gt;Node5</title>
<path fill="none" stroke="midnightblue" d="M223.18,-103C234.09,-79 252.97,-37.47 261.09,-19.59"/>
<polygon fill="midnightblue" stroke="midnightblue" points="219.88,-101.82 218.92,-112.37 226.25,-104.71 219.88,-101.82"/>
</g>
<!-- Node2&#45;&gt;Node8 -->
<g id="edge8" class="edge">
<title>Node2&#45;&gt;Node8</title>
<path fill="none" stroke="midnightblue" d="M202.94,-103.86C196.36,-94.5 188.49,-83.33 183.16,-75.75"/>
<polygon fill="midnightblue" stroke="midnightblue" points="200.11,-105.92 208.73,-112.08 205.83,-101.89 200.11,-105.92"/>
</g>
<!-- Node2&#45;&gt;Node9 -->
<g id="edge9" class="edge">
<title>Node2&#45;&gt;Node9</title>
<path fill="none" stroke="midnightblue" d="M248.22,-109.04C276.45,-98.88 316.26,-84.55 341.34,-75.52"/>
<polygon fill="midnightblue" stroke="midnightblue" points="246.99,-105.76 238.77,-112.44 249.36,-112.35 246.99,-105.76"/>
</g>
<!-- Node4 -->
<g id="node4" class="node">
<title>Node4</title>
<g id="a_node4"><a xlink:href="analyze_8c.html" target="_top" xlink:title="Contains functions for analyzing flow results.">
<polygon fill="white" stroke="black" points="0,-0.5 0,-19.5 74,-19.5 74,-0.5 0,-0.5"/>
<text text-anchor="middle" x="37" y="-7.5" font-family="Helvetica,sans-Serif" font-size="10.00">src/analyze.c</text>
</a>
</g>
</g>
<!-- Node3&#45;&gt;Node4 -->
<g id="edge3" class="edge">
<title>Node3&#45;&gt;Node4</title>
<path fill="none" stroke="midnightblue" d="M67.27,-48.14C59.6,-38.74 50.37,-27.4 44.13,-19.75"/>
<polygon fill="midnightblue" stroke="midnightblue" points="64.7,-50.54 73.73,-56.08 70.13,-46.12 64.7,-50.54"/>
</g>
<!-- Node3&#45;&gt;Node5 -->
<g id="edge4" class="edge">
<title>Node3&#45;&gt;Node5</title>
<path fill="none" stroke="midnightblue" d="M119.95,-53.57C154.66,-43.38 204.68,-28.7 235.98,-19.52"/>
<polygon fill="midnightblue" stroke="midnightblue" points="118.77,-50.27 110.16,-56.44 120.74,-56.99 118.77,-50.27"/>
</g>
<!-- Node6 -->
<g id="node6" class="node">
<title>Node6</title>
<g id="a_node6"><a xlink:href="output_8c.html" target="_top" xlink:title="Contains all functions used for writing flow solutions.">
<polygon fill="white" stroke="black" points="92,-0.5 92,-19.5 160,-19.5 160,-0.5 92,-0.5"/>
<text text-anchor="middle" x="126" y="-7.5" font-family="Helvetica,sans-Serif" font-size="10.00">src/output.c</text>
</a>
</g>
</g>
<!-- Node3&#45;&gt;Node6 -->
<g id="edge5" class="edge">
<title>Node3&#45;&gt;Node6</title>
<path fill="none" stroke="midnightblue" d="M95.05,-48.14C102.89,-38.74 112.33,-27.4 118.71,-19.75"/>
<polygon fill="midnightblue" stroke="midnightblue" points="92.14,-46.16 88.43,-56.08 97.52,-50.64 92.14,-46.16"/>
</g>
<!-- Node3&#45;&gt;Node7 -->
<g id="edge6" class="edge">
<title>Node3&#45;&gt;Node7</title>
<path fill="none" stroke="midnightblue" d="M128.16,-56.08C238.74,-38.71 355.18,-25.02 424,-17.41"/>
<polygon fill="midnightblue" stroke="midnightblue" points="127.49,-52.64 118.16,-57.66 128.59,-59.55 127.49,-52.64"/>
</g>
<!-- Node12&#45;&gt;Node5 -->
<g id="edge19" class="edge">
<title>Node12&#45;&gt;Node5</title>
<path fill="none" stroke="midnightblue" d="M412.85,-105.06C425.39,-91.24 438.51,-71.14 427,-56 411.24,-35.26 338.69,-21.56 296.22,-15.17"/>
<polygon fill="midnightblue" stroke="midnightblue" points="410.19,-102.78 405.72,-112.39 415.21,-107.66 410.19,-102.78"/>
</g>
<!-- Node12&#45;&gt;Node7 -->
<g id="edge20" class="edge">
<title>Node12&#45;&gt;Node7</title>
<path fill="none" stroke="midnightblue" d="M422.61,-107.31C435.4,-99.59 450.07,-88.91 460,-76 473.35,-58.65 479.85,-33.12 482.49,-19.8"/>
<polygon fill="midnightblue" stroke="midnightblue" points="420.67,-104.39 413.73,-112.39 424.15,-110.47 420.67,-104.39"/>
</g>
<!-- Node12&#45;&gt;Node9 -->
<g id="edge17" class="edge">
<title>Node12&#45;&gt;Node9</title>
<path fill="none" stroke="midnightblue" d="M385.82,-103.27C380.53,-94.05 374.28,-83.17 370.02,-75.75"/>
<polygon fill="midnightblue" stroke="midnightblue" points="382.87,-105.15 390.88,-112.08 388.94,-101.67 382.87,-105.15"/>
</g>
<!-- Node12&#45;&gt;Node13 -->
<g id="edge18" class="edge">
<title>Node12&#45;&gt;Node13</title>
<path fill="none" stroke="midnightblue" d="M440.11,-110.02C481.1,-99.82 541.3,-84.84 578.78,-75.52"/>
<polygon fill="midnightblue" stroke="midnightblue" points="439.24,-106.63 430.38,-112.44 440.93,-113.43 439.24,-106.63"/>
</g>
</g>
</svg>
