<?xml version="1.0" encoding="UTF-8" standalone="no"?>
<!DOCTYPE svg PUBLIC "-//W3C//DTD SVG 1.1//EN"
 "http://www.w3.org/Graphics/SVG/1.1/DTD/svg11.dtd">
<!-- Generated by graphviz version 2.42.3 (0)
 -->
<!-- Title: src/mesh.c Pages: 1 -->
<svg width="825pt" height="140pt"
 viewBox="0.00 0.00 824.50 140.00" xmlns="http://www.w3.org/2000/svg" xmlns:xlink="http://www.w3.org/1999/xlink">
<g id="graph0" class="graph" transform="scale(1 1) rotate(0) translate(4 136)">
<title>src/mesh.c</title>
<polygon fill="white" stroke="transparent" points="-4,4 -4,-136 820.5,-136 820.5,4 -4,4"/>
<!-- Node1 -->
<g id="node1" class="node">
<title>Node1</title>
<g id="a_node1"><a xlink:title="Contains all the functions for reading and creating meshes.">
<polygon fill="#bfbfbf" stroke="black" points="342.5,-112.5 342.5,-131.5 407.5,-131.5 407.5,-112.5 342.5,-112.5"/>
<text text-anchor="middle" x="375" y="-119.5" font-family="Helvetica,sans-Serif" font-size="10.00">src/mesh.c</text>
</a>
</g>
</g>
<!-- Node2 -->
<g id="node2" class="node">
<title>Node2</title>
<g id="a_node2"><a xlink:title=" ">
<polygon fill="white" stroke="#bfbfbf" points="0,-56.5 0,-75.5 46,-75.5 46,-56.5 0,-56.5"/>
<text text-anchor="middle" x="23" y="-63.5" font-family="Helvetica,sans-Serif" font-size="10.00">stdio.h</text>
</a>
</g>
</g>
<!-- Node1&#45;&gt;Node2 -->
<g id="edge1" class="edge">
<title>Node1&#45;&gt;Node2</title>
<path fill="none" stroke="midnightblue" d="M342.18,-117.37C284.71,-110.78 162.25,-95.69 60,-76 58.72,-75.75 57.42,-75.49 56.11,-75.22"/>
<polygon fill="midnightblue" stroke="midnightblue" points="56.54,-71.73 46.02,-72.96 55.01,-78.56 56.54,-71.73"/>
</g>
<!-- Node3 -->
<g id="node3" class="node">
<title>Node3</title>
<g id="a_node3"><a xlink:title=" ">
<polygon fill="white" stroke="#bfbfbf" points="143,-0.5 143,-19.5 191,-19.5 191,-0.5 143,-0.5"/>
<text text-anchor="middle" x="167" y="-7.5" font-family="Helvetica,sans-Serif" font-size="10.00">stdlib.h</text>
</a>
</g>
</g>
<!-- Node1&#45;&gt;Node3 -->
<g id="edge2" class="edge">
<title>Node1&#45;&gt;Node3</title>
<path fill="none" stroke="midnightblue" d="M342.27,-120.86C274.98,-119.79 124.73,-113.2 93,-76 75.63,-55.64 107.17,-35.87 134.3,-23.59"/>
<polygon fill="midnightblue" stroke="midnightblue" points="135.83,-26.74 143.63,-19.57 133.06,-20.31 135.83,-26.74"/>
</g>
<!-- Node4 -->
<g id="node4" class="node">
<title>Node4</title>
<g id="a_node4"><a xlink:title=" ">
<polygon fill="white" stroke="#bfbfbf" points="102.5,-56.5 102.5,-75.5 151.5,-75.5 151.5,-56.5 102.5,-56.5"/>
<text text-anchor="middle" x="127" y="-63.5" font-family="Helvetica,sans-Serif" font-size="10.00">string.h</text>
</a>
</g>
</g>
<!-- Node1&#45;&gt;Node4 -->
<g id="edge3" class="edge">
<title>Node1&#45;&gt;Node4</title>
<path fill="none" stroke="midnightblue" d="M342.45,-114.82C302.11,-107.02 231.08,-92.84 161.61,-76.29"/>
<polygon fill="midnightblue" stroke="midnightblue" points="162.37,-72.87 151.83,-73.94 160.73,-79.68 162.37,-72.87"/>
</g>
<!-- Node5 -->
<g id="node5" class="node">
<title>Node5</title>
<g id="a_node5"><a xlink:title=" ">
<polygon fill="white" stroke="#bfbfbf" points="169.5,-56.5 169.5,-75.5 216.5,-75.5 216.5,-56.5 169.5,-56.5"/>
<text text-anchor="middle" x="193" y="-63.5" font-family="Helvetica,sans-Serif" font-size="10.00">math.h</text>
</a>
</g>
</g>
<!-- Node1&#45;&gt;Node5 -->
<g id="edge4" class="edge">
<title>Node1&#45;&gt;Node5</title>
<path fill="none" stroke="midnightblue" d="M346.16,-112.44C313.73,-102.82 261.13,-87.21 226.8,-77.03"/>
<polygon fill="midnightblue" stroke="midnightblue" points="227.36,-73.54 216.77,-74.05 225.36,-80.25 227.36,-73.54"/>
</g>
<!-- Node6 -->
<g id="node6" class="node">
<title>Node6</title>
<g id="a_node6"><a xlink:title=" ">
<polygon fill="white" stroke="#bfbfbf" points="347,-0.5 347,-19.5 403,-19.5 403,-0.5 347,-0.5"/>
<text text-anchor="middle" x="375" y="-7.5" font-family="Helvetica,sans-Serif" font-size="10.00">stdbool.h</text>
</a>
</g>
</g>
<!-- Node1&#45;&gt;Node6 -->
<g id="edge5" class="edge">
<title>Node1&#45;&gt;Node6</title>
<path fill="none" stroke="midnightblue" d="M375,-112.37C375,-94.62 375,-53.67 375,-29.6"/>
<polygon fill="midnightblue" stroke="midnightblue" points="378.5,-29.59 375,-19.59 371.5,-29.59 378.5,-29.59"/>
</g>
<!-- Node7 -->
<g id="node7" class="node">
<title>Node7</title>
<g id="a_node7"><a xlink:title=" ">
<polygon fill="white" stroke="#bfbfbf" points="303.5,-56.5 303.5,-75.5 346.5,-75.5 346.5,-56.5 303.5,-56.5"/>
<text text-anchor="middle" x="325" y="-63.5" font-family="Helvetica,sans-Serif" font-size="10.00">float.h</text>
</a>
</g>
</g>
<!-- Node1&#45;&gt;Node7 -->
<g id="edge6" class="edge">
<title>Node1&#45;&gt;Node7</title>
<path fill="none" stroke="midnightblue" d="M366.74,-112.08C359.54,-104.3 348.89,-92.8 340.15,-83.37"/>
<polygon fill="midnightblue" stroke="midnightblue" points="342.47,-80.71 333.1,-75.75 337.33,-85.47 342.47,-80.71"/>
</g>
<!-- Node8 -->
<g id="node8" class="node">
<title>Node8</title>
<g id="a_node8"><a xlink:href="main_8h.html" target="_top" xlink:title="Contains the global constants and definitions.">
<polygon fill="white" stroke="black" points="470,-0.5 470,-19.5 516,-19.5 516,-0.5 470,-0.5"/>
<text text-anchor="middle" x="493" y="-7.5" font-family="Helvetica,sans-Serif" font-size="10.00">main.h</text>
</a>
</g>
</g>
<!-- Node1&#45;&gt;Node8 -->
<g id="edge7" class="edge">
<title>Node1&#45;&gt;Node8</title>
<path fill="none" stroke="midnightblue" d="M407.7,-116.85C433.26,-111.77 467.46,-100.57 486,-76 495.93,-62.85 496.84,-43.71 495.78,-29.6"/>
<polygon fill="midnightblue" stroke="midnightblue" points="499.25,-29.11 494.64,-19.58 492.29,-29.91 499.25,-29.11"/>
</g>
<!-- Node9 -->
<g id="node9" class="node">
<title>Node9</title>
<g id="a_node9"><a xlink:href="mesh_8h.html" target="_top" xlink:title="Contains the definitions of all structs for the mesh handling.">
<polygon fill="white" stroke="black" points="533.5,-56.5 533.5,-75.5 582.5,-75.5 582.5,-56.5 533.5,-56.5"/>
<text text-anchor="middle" x="558" y="-63.5" font-family="Helvetica,sans-Serif" font-size="10.00">mesh.h</text>
</a>
</g>
</g>
<!-- Node1&#45;&gt;Node9 -->
<g id="edge8" class="edge">
<title>Node1&#45;&gt;Node9</title>
<path fill="none" stroke="midnightblue" d="M404,-112.44C436.47,-102.86 489.06,-87.34 523.59,-77.15"/>
<polygon fill="midnightblue" stroke="midnightblue" points="524.65,-80.49 533.25,-74.3 522.67,-73.78 524.65,-80.49"/>
</g>
<!-- Node11 -->
<g id="node11" class="node">
<title>Node11</title>
<g id="a_node11"><a xlink:href="readInTools_8h.html" target="_top" xlink:title=" ">
<polygon fill="white" stroke="black" points="403,-56.5 403,-75.5 477,-75.5 477,-56.5 403,-56.5"/>
<text text-anchor="middle" x="440" y="-63.5" font-family="Helvetica,sans-Serif" font-size="10.00">readInTools.h</text>
</a>
</g>
</g>
<!-- Node1&#45;&gt;Node11 -->
<g id="edge11" class="edge">
<title>Node1&#45;&gt;Node11</title>
<path fill="none" stroke="midnightblue" d="M385.44,-112.32C395.15,-104.26 409.82,-92.08 421.5,-82.37"/>
<polygon fill="midnightblue" stroke="midnightblue" points="423.91,-84.92 429.37,-75.83 419.44,-79.53 423.91,-84.92"/>
</g>
<!-- Node12 -->
<g id="node12" class="node">
<title>Node12</title>
<g id="a_node12"><a xlink:href="output_8h.html" target="_top" xlink:title="Contains outputTime_t struct definition.">
<polygon fill="white" stroke="black" points="234.5,-56.5 234.5,-75.5 285.5,-75.5 285.5,-56.5 234.5,-56.5"/>
<text text-anchor="middle" x="260" y="-63.5" font-family="Helvetica,sans-Serif" font-size="10.00">output.h</text>
</a>
</g>
</g>
<!-- Node1&#45;&gt;Node12 -->
<g id="edge14" class="edge">
<title>Node1&#45;&gt;Node12</title>
<path fill="none" stroke="midnightblue" d="M356.78,-112.44C338.1,-103.68 308.84,-89.94 287.38,-79.86"/>
<polygon fill="midnightblue" stroke="midnightblue" points="288.68,-76.6 278.14,-75.52 285.7,-82.93 288.68,-76.6"/>
</g>
<!-- Node13 -->
<g id="node13" class="node">
<title>Node13</title>
<g id="a_node13"><a xlink:href="memTools_8h.html" target="_top" xlink:title=" ">
<polygon fill="white" stroke="black" points="639,-56.5 639,-75.5 709,-75.5 709,-56.5 639,-56.5"/>
<text text-anchor="middle" x="674" y="-63.5" font-family="Helvetica,sans-Serif" font-size="10.00">memTools.h</text>
</a>
</g>
</g>
<!-- Node1&#45;&gt;Node13 -->
<g id="edge17" class="edge">
<title>Node1&#45;&gt;Node13</title>
<path fill="none" stroke="midnightblue" d="M407.77,-115.14C455.54,-106.59 547.12,-90.16 625,-76 626.27,-75.77 627.56,-75.54 628.85,-75.3"/>
<polygon fill="midnightblue" stroke="midnightblue" points="629.73,-78.7 638.94,-73.46 628.47,-71.81 629.73,-78.7"/>
</g>
<!-- Node14 -->
<g id="node14" class="node">
<title>Node14</title>
<g id="a_node14"><a xlink:title=" ">
<polygon fill="white" stroke="#bfbfbf" points="636,-0.5 636,-19.5 692,-19.5 692,-0.5 636,-0.5"/>
<text text-anchor="middle" x="664" y="-7.5" font-family="Helvetica,sans-Serif" font-size="10.00">cgnslib.h</text>
</a>
</g>
</g>
<!-- Node1&#45;&gt;Node14 -->
<g id="edge20" class="edge">
<title>Node1&#45;&gt;Node14</title>
<path fill="none" stroke="midnightblue" d="M407.83,-119.42C451.72,-116.16 530.96,-106.23 591,-76 614.79,-64.02 636.84,-42.3 650.35,-27.29"/>
<polygon fill="midnightblue" stroke="midnightblue" points="653,-29.58 656.93,-19.74 647.72,-24.97 653,-29.58"/>
</g>
<!-- Node15 -->
<g id="node15" class="node">
<title>Node15</title>
<g id="a_node15"><a xlink:href="initialCondition_8h.html" target="_top" xlink:title=" ">
<polygon fill="white" stroke="black" points="727.5,-56.5 727.5,-75.5 816.5,-75.5 816.5,-56.5 727.5,-56.5"/>
<text text-anchor="middle" x="772" y="-63.5" font-family="Helvetica,sans-Serif" font-size="10.00">initialCondition.h</text>
</a>
</g>
</g>
<!-- Node1&#45;&gt;Node15 -->
<g id="edge19" class="edge">
<title>Node1&#45;&gt;Node15</title>
<path fill="none" stroke="midnightblue" d="M407.68,-117.1C467.07,-109.92 596.89,-93.85 717.11,-76.09"/>
<polygon fill="midnightblue" stroke="midnightblue" points="717.85,-79.52 727.23,-74.58 716.82,-72.59 717.85,-79.52"/>
</g>
<!-- Node9&#45;&gt;Node8 -->
<g id="edge9" class="edge">
<title>Node9&#45;&gt;Node8</title>
<path fill="none" stroke="midnightblue" d="M547.56,-56.32C537.85,-48.26 523.18,-36.08 511.5,-26.37"/>
<polygon fill="midnightblue" stroke="midnightblue" points="513.56,-23.53 503.63,-19.83 509.09,-28.92 513.56,-23.53"/>
</g>
<!-- Node10 -->
<g id="node10" class="node">
<title>Node10</title>
<g id="a_node10"><a xlink:title=" ">
<polygon fill="white" stroke="#bfbfbf" points="534.5,-0.5 534.5,-19.5 599.5,-19.5 599.5,-0.5 534.5,-0.5"/>
<text text-anchor="middle" x="567" y="-7.5" font-family="Helvetica,sans-Serif" font-size="10.00">boundary.h</text>
</a>
</g>
</g>
<!-- Node9&#45;&gt;Node10 -->
<g id="edge10" class="edge">
<title>Node9&#45;&gt;Node10</title>
<path fill="none" stroke="midnightblue" d="M559.49,-56.08C560.68,-48.93 562.39,-38.64 563.88,-29.69"/>
<polygon fill="midnightblue" stroke="midnightblue" points="567.35,-30.19 565.54,-19.75 560.45,-29.04 567.35,-30.19"/>
</g>
<!-- Node11&#45;&gt;Node6 -->
<g id="edge12" class="edge">
<title>Node11&#45;&gt;Node6</title>
<path fill="none" stroke="midnightblue" d="M429.56,-56.32C419.85,-48.26 405.18,-36.08 393.5,-26.37"/>
<polygon fill="midnightblue" stroke="midnightblue" points="395.56,-23.53 385.63,-19.83 391.09,-28.92 395.56,-23.53"/>
</g>
<!-- Node11&#45;&gt;Node8 -->
<g id="edge13" class="edge">
<title>Node11&#45;&gt;Node8</title>
<path fill="none" stroke="midnightblue" d="M448.75,-56.08C456.47,-48.22 467.9,-36.57 477.22,-27.08"/>
<polygon fill="midnightblue" stroke="midnightblue" points="479.9,-29.34 484.41,-19.75 474.91,-24.44 479.9,-29.34"/>
</g>
<!-- Node12&#45;&gt;Node3 -->
<g id="edge16" class="edge">
<title>Node12&#45;&gt;Node3</title>
<path fill="none" stroke="midnightblue" d="M245.06,-56.32C230.41,-47.82 207.87,-34.73 190.76,-24.8"/>
<polygon fill="midnightblue" stroke="midnightblue" points="192.31,-21.65 181.9,-19.65 188.8,-27.7 192.31,-21.65"/>
</g>
<!-- Node12&#45;&gt;Node6 -->
<g id="edge15" class="edge">
<title>Node12&#45;&gt;Node6</title>
<path fill="none" stroke="midnightblue" d="M278.22,-56.44C296.9,-47.68 326.16,-33.94 347.62,-23.86"/>
<polygon fill="midnightblue" stroke="midnightblue" points="349.3,-26.93 356.86,-19.52 346.32,-20.6 349.3,-26.93"/>
</g>
<!-- Node13&#45;&gt;Node14 -->
<g id="edge18" class="edge">
<title>Node13&#45;&gt;Node14</title>
<path fill="none" stroke="midnightblue" d="M672.35,-56.08C671.02,-48.93 669.12,-38.64 667.46,-29.69"/>
<polygon fill="midnightblue" stroke="midnightblue" points="670.88,-28.95 665.62,-19.75 664,-30.22 670.88,-28.95"/>
</g>
</g>
</svg>
