<?xml version="1.0" encoding="UTF-8" standalone="no"?>
<!DOCTYPE svg PUBLIC "-//W3C//DTD SVG 1.1//EN"
 "http://www.w3.org/Graphics/SVG/1.1/DTD/svg11.dtd">
<!-- Generated by graphviz version 2.42.3 (0)
 -->
<!-- Title: src/navierstokes/equationOfState.c Pages: 1 -->
<svg width="261pt" height="151pt"
 viewBox="0.00 0.00 260.50 151.00" xmlns="http://www.w3.org/2000/svg" xmlns:xlink="http://www.w3.org/1999/xlink">
<g id="graph0" class="graph" transform="scale(1 1) rotate(0) translate(4 147)">
<title>src/navierstokes/equationOfState.c</title>
<polygon fill="white" stroke="transparent" points="-4,4 -4,-147 256.5,-147 256.5,4 -4,4"/>
<!-- Node1 -->
<g id="node1" class="node">
<title>Node1</title>
<g id="a_node1"><a xlink:title="Contains conversion functions between the different variable types.">
<polygon fill="#bfbfbf" stroke="black" points="53.5,-112.5 53.5,-142.5 181.5,-142.5 181.5,-112.5 53.5,-112.5"/>
<text text-anchor="start" x="61.5" y="-130.5" font-family="Helvetica,sans-Serif" font-size="10.00">src/navierstokes/equation</text>
<text text-anchor="middle" x="117.5" y="-119.5" font-family="Helvetica,sans-Serif" font-size="10.00">OfState.c</text>
</a>
</g>
</g>
<!-- Node2 -->
<g id="node2" class="node">
<title>Node2</title>
<g id="a_node2"><a xlink:title=" ">
<polygon fill="white" stroke="#bfbfbf" points="0,-56.5 0,-75.5 47,-75.5 47,-56.5 0,-56.5"/>
<text text-anchor="middle" x="23.5" y="-63.5" font-family="Helvetica,sans-Serif" font-size="10.00">math.h</text>
</a>
</g>
</g>
<!-- Node1&#45;&gt;Node2 -->
<g id="edge1" class="edge">
<title>Node1&#45;&gt;Node2</title>
<path fill="none" stroke="midnightblue" d="M95.22,-112.4C80.3,-102.95 60.72,-90.56 45.79,-81.11"/>
<polygon fill="midnightblue" stroke="midnightblue" points="47.5,-78.05 37.18,-75.66 43.76,-83.96 47.5,-78.05"/>
</g>
<!-- Node3 -->
<g id="node3" class="node">
<title>Node3</title>
<g id="a_node3"><a xlink:title=" ">
<polygon fill="white" stroke="#bfbfbf" points="65,-56.5 65,-75.5 108,-75.5 108,-56.5 65,-56.5"/>
<text text-anchor="middle" x="86.5" y="-63.5" font-family="Helvetica,sans-Serif" font-size="10.00">float.h</text>
</a>
</g>
</g>
<!-- Node1&#45;&gt;Node3 -->
<g id="edge2" class="edge">
<title>Node1&#45;&gt;Node3</title>
<path fill="none" stroke="midnightblue" d="M110.15,-112.4C105.83,-104.11 100.33,-93.55 95.73,-84.71"/>
<polygon fill="midnightblue" stroke="midnightblue" points="98.74,-82.91 91.01,-75.66 92.53,-86.14 98.74,-82.91"/>
</g>
<!-- Node4 -->
<g id="node4" class="node">
<title>Node4</title>
<g id="a_node4"><a xlink:href="main_8h.html" target="_top" xlink:title="Contains the global constants and definitions.">
<polygon fill="white" stroke="black" points="126.5,-56.5 126.5,-75.5 172.5,-75.5 172.5,-56.5 126.5,-56.5"/>
<text text-anchor="middle" x="149.5" y="-63.5" font-family="Helvetica,sans-Serif" font-size="10.00">main.h</text>
</a>
</g>
</g>
<!-- Node1&#45;&gt;Node4 -->
<g id="edge3" class="edge">
<title>Node1&#45;&gt;Node4</title>
<path fill="none" stroke="midnightblue" d="M125.08,-112.4C129.54,-104.11 135.22,-93.55 139.98,-84.71"/>
<polygon fill="midnightblue" stroke="midnightblue" points="143.19,-86.12 144.84,-75.66 137.02,-82.81 143.19,-86.12"/>
</g>
<!-- Node5 -->
<g id="node5" class="node">
<title>Node5</title>
<g id="a_node5"><a xlink:href="navierstokes_2equation_8h.html" target="_top" xlink:title=" ">
<polygon fill="white" stroke="black" points="190.5,-56.5 190.5,-75.5 252.5,-75.5 252.5,-56.5 190.5,-56.5"/>
<text text-anchor="middle" x="221.5" y="-63.5" font-family="Helvetica,sans-Serif" font-size="10.00">equation.h</text>
</a>
</g>
</g>
<!-- Node1&#45;&gt;Node5 -->
<g id="edge4" class="edge">
<title>Node1&#45;&gt;Node5</title>
<path fill="none" stroke="midnightblue" d="M142.15,-112.4C158.82,-102.86 180.73,-90.32 197.31,-80.84"/>
<polygon fill="midnightblue" stroke="midnightblue" points="199.43,-83.66 206.37,-75.66 195.95,-77.59 199.43,-83.66"/>
</g>
<!-- Node6 -->
<g id="node6" class="node">
<title>Node6</title>
<g id="a_node6"><a xlink:title=" ">
<polygon fill="white" stroke="#bfbfbf" points="193.5,-0.5 193.5,-19.5 249.5,-19.5 249.5,-0.5 193.5,-0.5"/>
<text text-anchor="middle" x="221.5" y="-7.5" font-family="Helvetica,sans-Serif" font-size="10.00">stdbool.h</text>
</a>
</g>
</g>
<!-- Node5&#45;&gt;Node6 -->
<g id="edge5" class="edge">
<title>Node5&#45;&gt;Node6</title>
<path fill="none" stroke="midnightblue" d="M221.5,-56.08C221.5,-49.01 221.5,-38.86 221.5,-29.99"/>
<polygon fill="midnightblue" stroke="midnightblue" points="225,-29.75 221.5,-19.75 218,-29.75 225,-29.75"/>
</g>
</g>
</svg>
