<?xml version="1.0" encoding="UTF-8" standalone="no"?>
<!DOCTYPE svg PUBLIC "-//W3C//DTD SVG 1.1//EN"
 "http://www.w3.org/Graphics/SVG/1.1/DTD/svg11.dtd">
<!-- Generated by graphviz version 2.42.3 (0)
 -->
<!-- Title: src/navierstokes/exactRiemann.h Pages: 1 -->
<svg width="352pt" height="84pt"
 viewBox="0.00 0.00 351.50 84.00" xmlns="http://www.w3.org/2000/svg" xmlns:xlink="http://www.w3.org/1999/xlink">
<g id="graph0" class="graph" transform="scale(1 1) rotate(0) translate(4 80)">
<title>src/navierstokes/exactRiemann.h</title>
<polygon fill="white" stroke="transparent" points="-4,4 -4,-80 347.5,-80 347.5,4 -4,4"/>
<!-- Node1 -->
<g id="node1" class="node">
<title>Node1</title>
<g id="a_node1"><a xlink:title=" ">
<polygon fill="#bfbfbf" stroke="black" points="89.5,-56.5 89.5,-75.5 251.5,-75.5 251.5,-56.5 89.5,-56.5"/>
<text text-anchor="middle" x="170.5" y="-63.5" font-family="Helvetica,sans-Serif" font-size="10.00">src/navierstokes/exactRiemann.h</text>
</a>
</g>
</g>
<!-- Node2 -->
<g id="node2" class="node">
<title>Node2</title>
<g id="a_node2"><a xlink:href="navierstokes_2exactFunction_8c.html" target="_top" xlink:title="Contains the exact function evaluation function.">
<polygon fill="white" stroke="black" points="0,-0.5 0,-19.5 161,-19.5 161,-0.5 0,-0.5"/>
<text text-anchor="middle" x="80.5" y="-7.5" font-family="Helvetica,sans-Serif" font-size="10.00">src/navierstokes/exactFunction.c</text>
</a>
</g>
</g>
<!-- Node1&#45;&gt;Node2 -->
<g id="edge1" class="edge">
<title>Node1&#45;&gt;Node2</title>
<path fill="none" stroke="midnightblue" d="M147.46,-51.18C130.9,-41.24 109.08,-28.15 94.92,-19.65"/>
<polygon fill="midnightblue" stroke="midnightblue" points="145.66,-54.18 156.04,-56.32 149.27,-48.18 145.66,-54.18"/>
</g>
<!-- Node3 -->
<g id="node3" class="node">
<title>Node3</title>
<g id="a_node3"><a xlink:href="navierstokes_2fluxCalculation_8c.html" target="_top" xlink:title="Contains the flux calculation functions.">
<polygon fill="white" stroke="black" points="179.5,-0.5 179.5,-19.5 343.5,-19.5 343.5,-0.5 179.5,-0.5"/>
<text text-anchor="middle" x="261.5" y="-7.5" font-family="Helvetica,sans-Serif" font-size="10.00">src/navierstokes/fluxCalculation.c</text>
</a>
</g>
</g>
<!-- Node1&#45;&gt;Node3 -->
<g id="edge2" class="edge">
<title>Node1&#45;&gt;Node3</title>
<path fill="none" stroke="midnightblue" d="M193.79,-51.18C210.54,-41.24 232.6,-28.15 246.92,-19.65"/>
<polygon fill="midnightblue" stroke="midnightblue" points="191.93,-48.21 185.12,-56.32 195.51,-54.23 191.93,-48.21"/>
</g>
</g>
</svg>
