<?xml version="1.0" encoding="UTF-8" standalone="no"?>
<!DOCTYPE svg PUBLIC "-//W3C//DTD SVG 1.1//EN"
 "http://www.w3.org/Graphics/SVG/1.1/DTD/svg11.dtd">
<!-- Generated by graphviz version 2.42.3 (0)
 -->
<!-- Title: src/navierstokes/equationOfState.h Pages: 1 -->
<svg width="700pt" height="95pt"
 viewBox="0.00 0.00 699.50 95.00" xmlns="http://www.w3.org/2000/svg" xmlns:xlink="http://www.w3.org/1999/xlink">
<g id="graph0" class="graph" transform="scale(1 1) rotate(0) translate(4 91)">
<title>src/navierstokes/equationOfState.h</title>
<polygon fill="white" stroke="transparent" points="-4,4 -4,-91 695.5,-91 695.5,4 -4,4"/>
<!-- Node1 -->
<g id="node1" class="node">
<title>Node1</title>
<g id="a_node1"><a xlink:title=" ">
<polygon fill="#bfbfbf" stroke="black" points="239.5,-56.5 239.5,-86.5 367.5,-86.5 367.5,-56.5 239.5,-56.5"/>
<text text-anchor="start" x="247.5" y="-74.5" font-family="Helvetica,sans-Serif" font-size="10.00">src/navierstokes/equation</text>
<text text-anchor="middle" x="303.5" y="-63.5" font-family="Helvetica,sans-Serif" font-size="10.00">OfState.h</text>
</a>
</g>
</g>
<!-- Node2 -->
<g id="node2" class="node">
<title>Node2</title>
<g id="a_node2"><a xlink:href="initialCondition_8c.html" target="_top" xlink:title="Functions involving the initialization and application of initial conditions.">
<polygon fill="white" stroke="black" points="0,-0.5 0,-19.5 105,-19.5 105,-0.5 0,-0.5"/>
<text text-anchor="middle" x="52.5" y="-7.5" font-family="Helvetica,sans-Serif" font-size="10.00">src/initialCondition.c</text>
</a>
</g>
</g>
<!-- Node1&#45;&gt;Node2 -->
<g id="edge1" class="edge">
<title>Node1&#45;&gt;Node2</title>
<path fill="none" stroke="midnightblue" d="M234.46,-54.13C187.16,-42.92 126.34,-28.5 88.38,-19.51"/>
<polygon fill="midnightblue" stroke="midnightblue" points="233.8,-57.57 244.33,-56.47 235.41,-50.76 233.8,-57.57"/>
</g>
<!-- Node3 -->
<g id="node3" class="node">
<title>Node3</title>
<g id="a_node3"><a xlink:href="linearSolver_8c.html" target="_top" xlink:title="Contains the functions for solving the linear system of equations during implicit calculations.">
<polygon fill="white" stroke="black" points="123.5,-0.5 123.5,-19.5 215.5,-19.5 215.5,-0.5 123.5,-0.5"/>
<text text-anchor="middle" x="169.5" y="-7.5" font-family="Helvetica,sans-Serif" font-size="10.00">src/linearSolver.c</text>
</a>
</g>
</g>
<!-- Node1&#45;&gt;Node3 -->
<g id="edge2" class="edge">
<title>Node1&#45;&gt;Node3</title>
<path fill="none" stroke="midnightblue" d="M262.35,-52.23C237.95,-41.39 208.15,-28.16 189,-19.66"/>
<polygon fill="midnightblue" stroke="midnightblue" points="261.18,-55.54 271.74,-56.4 264.02,-49.14 261.18,-55.54"/>
</g>
<!-- Node4 -->
<g id="node4" class="node">
<title>Node4</title>
<g id="a_node4"><a xlink:href="navierstokes_2boundary_8c.html" target="_top" xlink:title="Contains the functions for initializing and applying boundary conditions.">
<polygon fill="white" stroke="black" points="233.5,-0.5 233.5,-19.5 373.5,-19.5 373.5,-0.5 233.5,-0.5"/>
<text text-anchor="middle" x="303.5" y="-7.5" font-family="Helvetica,sans-Serif" font-size="10.00">src/navierstokes/boundary.c</text>
</a>
</g>
</g>
<!-- Node1&#45;&gt;Node4 -->
<g id="edge3" class="edge">
<title>Node1&#45;&gt;Node4</title>
<path fill="none" stroke="midnightblue" d="M303.5,-46.29C303.5,-36.86 303.5,-26.65 303.5,-19.66"/>
<polygon fill="midnightblue" stroke="midnightblue" points="300,-46.4 303.5,-56.4 307,-46.4 300,-46.4"/>
</g>
<!-- Node5 -->
<g id="node5" class="node">
<title>Node5</title>
<g id="a_node5"><a xlink:href="navierstokes_2exactFunction_8c.html" target="_top" xlink:title="Contains the exact function evaluation function.">
<polygon fill="white" stroke="black" points="392,-0.5 392,-19.5 553,-19.5 553,-0.5 392,-0.5"/>
<text text-anchor="middle" x="472.5" y="-7.5" font-family="Helvetica,sans-Serif" font-size="10.00">src/navierstokes/exactFunction.c</text>
</a>
</g>
</g>
<!-- Node1&#45;&gt;Node5 -->
<g id="edge4" class="edge">
<title>Node1&#45;&gt;Node5</title>
<path fill="none" stroke="midnightblue" d="M353.37,-52.94C384.5,-41.98 423.23,-28.35 447.91,-19.66"/>
<polygon fill="midnightblue" stroke="midnightblue" points="351.82,-49.78 343.55,-56.4 354.15,-56.38 351.82,-49.78"/>
</g>
<!-- Node6 -->
<g id="node6" class="node">
<title>Node6</title>
<g id="a_node6"><a xlink:href="timeDiscretization_8c.html" target="_top" xlink:title="Contains the functions for performing the time stepping process.">
<polygon fill="white" stroke="black" points="571.5,-0.5 571.5,-19.5 691.5,-19.5 691.5,-0.5 571.5,-0.5"/>
<text text-anchor="middle" x="631.5" y="-7.5" font-family="Helvetica,sans-Serif" font-size="10.00">src/timeDiscretization.c</text>
</a>
</g>
</g>
<!-- Node1&#45;&gt;Node6 -->
<g id="edge5" class="edge">
<title>Node1&#45;&gt;Node6</title>
<path fill="none" stroke="midnightblue" d="M377.48,-57.08C440.97,-45.56 530.54,-29.31 584.61,-19.51"/>
<polygon fill="midnightblue" stroke="midnightblue" points="376.74,-53.66 367.52,-58.89 377.98,-60.55 376.74,-53.66"/>
</g>
</g>
</svg>
