<?xml version="1.0" encoding="UTF-8" standalone="no"?>
<!DOCTYPE svg PUBLIC "-//W3C//DTD SVG 1.1//EN"
 "http://www.w3.org/Graphics/SVG/1.1/DTD/svg11.dtd">
<!-- Generated by graphviz version 2.42.3 (0)
 -->
<!-- Title: src/navierstokes/source.c Pages: 1 -->
<svg width="275pt" height="140pt"
 viewBox="0.00 0.00 275.00 140.00" xmlns="http://www.w3.org/2000/svg" xmlns:xlink="http://www.w3.org/1999/xlink">
<g id="graph0" class="graph" transform="scale(1 1) rotate(0) translate(4 136)">
<title>src/navierstokes/source.c</title>
<polygon fill="white" stroke="transparent" points="-4,4 -4,-136 271,-136 271,4 -4,4"/>
<!-- Node1 -->
<g id="node1" class="node">
<title>Node1</title>
<g id="a_node1"><a xlink:title="Contains the functions for initializing and evaluating the source term.">
<polygon fill="#bfbfbf" stroke="black" points="61,-112.5 61,-131.5 190,-131.5 190,-112.5 61,-112.5"/>
<text text-anchor="middle" x="125.5" y="-119.5" font-family="Helvetica,sans-Serif" font-size="10.00">src/navierstokes/source.c</text>
</a>
</g>
</g>
<!-- Node2 -->
<g id="node2" class="node">
<title>Node2</title>
<g id="a_node2"><a xlink:title=" ">
<polygon fill="white" stroke="#bfbfbf" points="0,-56.5 0,-75.5 47,-75.5 47,-56.5 0,-56.5"/>
<text text-anchor="middle" x="23.5" y="-63.5" font-family="Helvetica,sans-Serif" font-size="10.00">math.h</text>
</a>
</g>
</g>
<!-- Node1&#45;&gt;Node2 -->
<g id="edge1" class="edge">
<title>Node1&#45;&gt;Node2</title>
<path fill="none" stroke="midnightblue" d="M109.11,-112.32C92.83,-103.7 67.63,-90.36 48.78,-80.39"/>
<polygon fill="midnightblue" stroke="midnightblue" points="50.32,-77.24 39.85,-75.65 47.05,-83.43 50.32,-77.24"/>
</g>
<!-- Node3 -->
<g id="node3" class="node">
<title>Node3</title>
<g id="a_node3"><a xlink:href="main_8h.html" target="_top" xlink:title="Contains the global constants and definitions.">
<polygon fill="white" stroke="black" points="137.5,-0.5 137.5,-19.5 183.5,-19.5 183.5,-0.5 137.5,-0.5"/>
<text text-anchor="middle" x="160.5" y="-7.5" font-family="Helvetica,sans-Serif" font-size="10.00">main.h</text>
</a>
</g>
</g>
<!-- Node1&#45;&gt;Node3 -->
<g id="edge2" class="edge">
<title>Node1&#45;&gt;Node3</title>
<path fill="none" stroke="midnightblue" d="M128.25,-112.37C133.92,-94.54 147.04,-53.3 154.69,-29.27"/>
<polygon fill="midnightblue" stroke="midnightblue" points="158.07,-30.18 157.77,-19.59 151.4,-28.06 158.07,-30.18"/>
</g>
<!-- Node4 -->
<g id="node4" class="node">
<title>Node4</title>
<g id="a_node4"><a xlink:href="navierstokes_2equation_8h.html" target="_top" xlink:title=" ">
<polygon fill="white" stroke="black" points="65.5,-56.5 65.5,-75.5 127.5,-75.5 127.5,-56.5 65.5,-56.5"/>
<text text-anchor="middle" x="96.5" y="-63.5" font-family="Helvetica,sans-Serif" font-size="10.00">equation.h</text>
</a>
</g>
</g>
<!-- Node1&#45;&gt;Node4 -->
<g id="edge3" class="edge">
<title>Node1&#45;&gt;Node4</title>
<path fill="none" stroke="midnightblue" d="M120.71,-112.08C116.74,-104.69 110.97,-93.95 106.07,-84.81"/>
<polygon fill="midnightblue" stroke="midnightblue" points="109.01,-82.91 101.2,-75.75 102.85,-86.22 109.01,-82.91"/>
</g>
<!-- Node6 -->
<g id="node6" class="node">
<title>Node6</title>
<g id="a_node6"><a xlink:href="mesh_8h.html" target="_top" xlink:title="Contains the definitions of all structs for the mesh handling.">
<polygon fill="white" stroke="black" points="184,-56.5 184,-75.5 233,-75.5 233,-56.5 184,-56.5"/>
<text text-anchor="middle" x="208.5" y="-63.5" font-family="Helvetica,sans-Serif" font-size="10.00">mesh.h</text>
</a>
</g>
</g>
<!-- Node1&#45;&gt;Node6 -->
<g id="edge5" class="edge">
<title>Node1&#45;&gt;Node6</title>
<path fill="none" stroke="midnightblue" d="M138.84,-112.32C151.66,-103.98 171.28,-91.21 186.44,-81.35"/>
<polygon fill="midnightblue" stroke="midnightblue" points="188.72,-84.04 195.2,-75.65 184.91,-78.17 188.72,-84.04"/>
</g>
<!-- Node5 -->
<g id="node5" class="node">
<title>Node5</title>
<g id="a_node5"><a xlink:title=" ">
<polygon fill="white" stroke="#bfbfbf" points="63.5,-0.5 63.5,-19.5 119.5,-19.5 119.5,-0.5 63.5,-0.5"/>
<text text-anchor="middle" x="91.5" y="-7.5" font-family="Helvetica,sans-Serif" font-size="10.00">stdbool.h</text>
</a>
</g>
</g>
<!-- Node4&#45;&gt;Node5 -->
<g id="edge4" class="edge">
<title>Node4&#45;&gt;Node5</title>
<path fill="none" stroke="midnightblue" d="M95.67,-56.08C95.02,-49.01 94.08,-38.86 93.26,-29.99"/>
<polygon fill="midnightblue" stroke="midnightblue" points="96.72,-29.39 92.31,-19.75 89.75,-30.03 96.72,-29.39"/>
</g>
<!-- Node6&#45;&gt;Node3 -->
<g id="edge6" class="edge">
<title>Node6&#45;&gt;Node3</title>
<path fill="none" stroke="midnightblue" d="M200.57,-56.08C193.65,-48.3 183.43,-36.8 175.05,-27.37"/>
<polygon fill="midnightblue" stroke="midnightblue" points="177.54,-24.9 168.28,-19.75 172.31,-29.55 177.54,-24.9"/>
</g>
<!-- Node7 -->
<g id="node7" class="node">
<title>Node7</title>
<g id="a_node7"><a xlink:title=" ">
<polygon fill="white" stroke="#bfbfbf" points="202,-0.5 202,-19.5 267,-19.5 267,-0.5 202,-0.5"/>
<text text-anchor="middle" x="234.5" y="-7.5" font-family="Helvetica,sans-Serif" font-size="10.00">boundary.h</text>
</a>
</g>
</g>
<!-- Node6&#45;&gt;Node7 -->
<g id="edge7" class="edge">
<title>Node6&#45;&gt;Node7</title>
<path fill="none" stroke="midnightblue" d="M212.79,-56.08C216.35,-48.69 221.52,-37.95 225.92,-28.81"/>
<polygon fill="midnightblue" stroke="midnightblue" points="229.1,-30.28 230.29,-19.75 222.79,-27.24 229.1,-30.28"/>
</g>
</g>
</svg>
