<?xml version="1.0" encoding="UTF-8" standalone="no"?>
<!DOCTYPE svg PUBLIC "-//W3C//DTD SVG 1.1//EN"
 "http://www.w3.org/Graphics/SVG/1.1/DTD/svg11.dtd">
<!-- Generated by graphviz version 2.42.3 (0)
 -->
<!-- Title: src/navierstokes/equation.h Pages: 1 -->
<!--zoomable 95 -->
<svg id="main" version="1.1" xmlns="http://www.w3.org/2000/svg" xmlns:xlink="http://www.w3.org/1999/xlink" xml:space="preserve" onload="init(evt)">
<style type="text/css"><![CDATA[
.edge:hover path { stroke: red; }
.edge:hover polygon { stroke: red; fill: red; }
]]></style>
<script type="text/javascript"><![CDATA[
var edges = document.getElementsByTagName('g');
if (edges && edges.length) {
  for (var i=0;i<edges.length;i++) {
    if (edges[i].id.substr(0,4)=='edge') {
      edges[i].setAttribute('class','edge');
    }
  }
}
]]></script>
        <defs>
                <circle id="rim" cx="0" cy="0" r="7"/>
                <circle id="rim2" cx="0" cy="0" r="3.5"/>
                <g id="zoomPlus">
                        <use xlink:href="#rim" fill="#404040">
                                <set attributeName="fill" to="#808080" begin="zoomplus.mouseover" end="zoomplus.mouseout"/>
                        </use>
                        <path d="M-4,0h8M0,-4v8" fill="none" stroke="white" stroke-width="1.5" pointer-events="none"/>
                </g>
                <g id="zoomMin">
                        <use xlink:href="#rim" fill="#404040">
                                <set attributeName="fill" to="#808080" begin="zoomminus.mouseover" end="zoomminus.mouseout"/>
                        </use>
                        <path d="M-4,0h8" fill="none" stroke="white" stroke-width="1.5" pointer-events="none"/>
                </g>
                <g id="dirArrow">
                        <path fill="none" stroke="white" stroke-width="1.5" d="M0,-3.0v7 M-2.5,-0.5L0,-3.0L2.5,-0.5"/>
                </g>
               <g id="resetDef">
                       <use xlink:href="#rim2" fill="#404040">
                               <set attributeName="fill" to="#808080" begin="reset.mouseover" end="reset.mouseout"/>
                       </use>
               </g>
        </defs>

<script type="text/javascript">
var viewWidth = 1773;
var viewHeight = 95;
var sectionId = 'dynsection-1';
</script>
<script xlink:href="svgpan.js"/>
<svg id="graph" class="graph">
<g id="viewport">
<title>src/navierstokes/equation.h</title>
<polygon fill="white" stroke="transparent" points="-4,4 -4,-91 1769,-91 1769,4 -4,4"/>
<!-- Node1 -->
<g id="node1" class="node">
<title>Node1</title>
<g id="a_node1"><a xlink:title=" ">
<polygon fill="#bfbfbf" stroke="black" points="718.5,-67.5 718.5,-86.5 855.5,-86.5 855.5,-67.5 718.5,-67.5"/>
<text text-anchor="middle" x="787" y="-74.5" font-family="Helvetica,sans-Serif" font-size="10.00">src/navierstokes/equation.h</text>
</a>
</g>
</g>
<!-- Node2 -->
<g id="node2" class="node">
<title>Node2</title>
<g id="a_node2"><a xlink:href="analyze_8c.html" target="_top" xlink:title="Contains functions for analyzing flow results.">
<polygon fill="white" stroke="black" points="0,-6 0,-25 74,-25 74,-6 0,-6"/>
<text text-anchor="middle" x="37" y="-13" font-family="Helvetica,sans-Serif" font-size="10.00">src/analyze.c</text>
</a>
</g>
</g>
<!-- Node1&#45;&gt;Node2 -->
<g id="edge1" class="edge">
<title>Node1&#45;&gt;Node2</title>
<path fill="none" stroke="midnightblue" d="M708.13,-73.36C550.35,-67.68 200.88,-53.01 83,-31 75.59,-29.62 67.71,-27.41 60.6,-25.14"/>
<polygon fill="midnightblue" stroke="midnightblue" points="708.13,-76.86 718.24,-73.72 708.38,-69.86 708.13,-76.86"/>
</g>
<!-- Node3 -->
<g id="node3" class="node">
<title>Node3</title>
<g id="a_node3"><a xlink:href="finiteVolume_8c.html" target="_top" xlink:title="Finite volume time derivative functions.">
<polygon fill="white" stroke="black" points="92.5,-6 92.5,-25 187.5,-25 187.5,-6 92.5,-6"/>
<text text-anchor="middle" x="140" y="-13" font-family="Helvetica,sans-Serif" font-size="10.00">src/finiteVolume.c</text>
</a>
</g>
</g>
<!-- Node1&#45;&gt;Node3 -->
<g id="edge2" class="edge">
<title>Node1&#45;&gt;Node3</title>
<path fill="none" stroke="midnightblue" d="M708.26,-74.44C594.48,-71.18 377.8,-61.21 196,-31 187.08,-29.52 177.52,-27.29 168.86,-25.01"/>
<polygon fill="midnightblue" stroke="midnightblue" points="708.18,-77.94 718.27,-74.71 708.38,-70.94 708.18,-77.94"/>
</g>
<!-- Node4 -->
<g id="node4" class="node">
<title>Node4</title>
<g id="a_node4"><a xlink:href="initialCondition_8c.html" target="_top" xlink:title="Functions involving the initialization and application of initial conditions.">
<polygon fill="white" stroke="black" points="205.5,-6 205.5,-25 310.5,-25 310.5,-6 205.5,-6"/>
<text text-anchor="middle" x="258" y="-13" font-family="Helvetica,sans-Serif" font-size="10.00">src/initialCondition.c</text>
</a>
</g>
</g>
<!-- Node1&#45;&gt;Node4 -->
<g id="edge3" class="edge">
<title>Node1&#45;&gt;Node4</title>
<path fill="none" stroke="midnightblue" d="M707.98,-71.62C614.78,-65.7 455.38,-53.25 320,-31 310.51,-29.44 300.31,-27.27 290.98,-25.08"/>
<polygon fill="midnightblue" stroke="midnightblue" points="707.98,-75.12 718.18,-72.25 708.42,-68.14 707.98,-75.12"/>
</g>
<!-- Node5 -->
<g id="node5" class="node">
<title>Node5</title>
<g id="a_node5"><a xlink:href="main_8c.html" target="_top" xlink:title="Contains the main function of ccfd">
<polygon fill="white" stroke="black" points="329,-6 329,-25 391,-25 391,-6 329,-6"/>
<text text-anchor="middle" x="360" y="-13" font-family="Helvetica,sans-Serif" font-size="10.00">src/main.c</text>
</a>
</g>
</g>
<!-- Node1&#45;&gt;Node5 -->
<g id="edge4" class="edge">
<title>Node1&#45;&gt;Node5</title>
<path fill="none" stroke="midnightblue" d="M708.02,-72.19C629.15,-67.13 504.9,-55.76 400,-31 393.67,-29.51 386.97,-27.33 380.9,-25.11"/>
<polygon fill="midnightblue" stroke="midnightblue" points="708.16,-75.7 718.36,-72.83 708.6,-68.72 708.16,-75.7"/>
</g>
<!-- Node6 -->
<g id="node6" class="node">
<title>Node6</title>
<g id="a_node6"><a xlink:href="navierstokes_2boundary_8c.html" target="_top" xlink:title="Contains the functions for initializing and applying boundary conditions.">
<polygon fill="white" stroke="black" points="409,-6 409,-25 549,-25 549,-6 409,-6"/>
<text text-anchor="middle" x="479" y="-13" font-family="Helvetica,sans-Serif" font-size="10.00">src/navierstokes/boundary.c</text>
</a>
</g>
</g>
<!-- Node1&#45;&gt;Node6 -->
<g id="edge5" class="edge">
<title>Node1&#45;&gt;Node6</title>
<path fill="none" stroke="midnightblue" d="M732.88,-65.55C673.21,-54.02 578.36,-35.69 523.05,-25.01"/>
<polygon fill="midnightblue" stroke="midnightblue" points="732.39,-69.01 742.87,-67.48 733.72,-62.14 732.39,-69.01"/>
</g>
<!-- Node7 -->
<g id="node7" class="node">
<title>Node7</title>
<g id="a_node7"><a xlink:href="navierstokes_2equation_8c.html" target="_top" xlink:title="Contains the function for initializing the physical constants.">
<polygon fill="white" stroke="black" points="567.5,-6 567.5,-25 704.5,-25 704.5,-6 567.5,-6"/>
<text text-anchor="middle" x="636" y="-13" font-family="Helvetica,sans-Serif" font-size="10.00">src/navierstokes/equation.c</text>
</a>
</g>
</g>
<!-- Node1&#45;&gt;Node7 -->
<g id="edge6" class="edge">
<title>Node1&#45;&gt;Node7</title>
<path fill="none" stroke="midnightblue" d="M755.99,-63.78C726.65,-52.22 683.37,-35.16 657.59,-25.01"/>
<polygon fill="midnightblue" stroke="midnightblue" points="754.78,-67.07 765.37,-67.48 757.34,-60.55 754.78,-67.07"/>
</g>
<!-- Node8 -->
<g id="node8" class="node">
<title>Node8</title>
<g id="a_node8"><a xlink:href="navierstokes_2equationOfState_8c.html" target="_top" xlink:title="Contains conversion functions between the different variable types.">
<polygon fill="white" stroke="black" points="723,-0.5 723,-30.5 851,-30.5 851,-0.5 723,-0.5"/>
<text text-anchor="start" x="731" y="-18.5" font-family="Helvetica,sans-Serif" font-size="10.00">src/navierstokes/equation</text>
<text text-anchor="middle" x="787" y="-7.5" font-family="Helvetica,sans-Serif" font-size="10.00">OfState.c</text>
</a>
</g>
</g>
<!-- Node1&#45;&gt;Node8 -->
<g id="edge7" class="edge">
<title>Node1&#45;&gt;Node8</title>
<path fill="none" stroke="midnightblue" d="M787,-57.23C787,-48.59 787,-38.5 787,-30.52"/>
<polygon fill="midnightblue" stroke="midnightblue" points="783.5,-57.48 787,-67.48 790.5,-57.48 783.5,-57.48"/>
</g>
<!-- Node9 -->
<g id="node9" class="node">
<title>Node9</title>
<g id="a_node9"><a xlink:href="navierstokes_2exactFunction_8c.html" target="_top" xlink:title="Contains the exact function evaluation function.">
<polygon fill="white" stroke="black" points="869.5,-6 869.5,-25 1030.5,-25 1030.5,-6 869.5,-6"/>
<text text-anchor="middle" x="950" y="-13" font-family="Helvetica,sans-Serif" font-size="10.00">src/navierstokes/exactFunction.c</text>
</a>
</g>
</g>
<!-- Node1&#45;&gt;Node9 -->
<g id="edge8" class="edge">
<title>Node1&#45;&gt;Node9</title>
<path fill="none" stroke="midnightblue" d="M820.06,-63.93C851.74,-52.37 898.75,-35.21 926.69,-25.01"/>
<polygon fill="midnightblue" stroke="midnightblue" points="818.55,-60.76 810.35,-67.48 820.95,-67.33 818.55,-60.76"/>
</g>
<!-- Node10 -->
<g id="node10" class="node">
<title>Node10</title>
<g id="a_node10"><a xlink:href="navierstokes_2exactRiemann_8c.html" target="_top" xlink:title="Contains the function to calculate the exact Riemann flux.">
<polygon fill="white" stroke="black" points="1049,-6 1049,-25 1211,-25 1211,-6 1049,-6"/>
<text text-anchor="middle" x="1130" y="-13" font-family="Helvetica,sans-Serif" font-size="10.00">src/navierstokes/exactRiemann.c</text>
</a>
</g>
</g>
<!-- Node1&#45;&gt;Node10 -->
<g id="edge9" class="edge">
<title>Node1&#45;&gt;Node10</title>
<path fill="none" stroke="midnightblue" d="M846.04,-65.76C912.41,-54.25 1018.97,-35.76 1080.95,-25.01"/>
<polygon fill="midnightblue" stroke="midnightblue" points="845.4,-62.32 836.14,-67.48 846.59,-69.21 845.4,-62.32"/>
</g>
<!-- Node11 -->
<g id="node11" class="node">
<title>Node11</title>
<g id="a_node11"><a xlink:href="navierstokes_2fluxCalculation_8c.html" target="_top" xlink:title="Contains the flux calculation functions.">
<polygon fill="white" stroke="black" points="1229,-6 1229,-25 1393,-25 1393,-6 1229,-6"/>
<text text-anchor="middle" x="1311" y="-13" font-family="Helvetica,sans-Serif" font-size="10.00">src/navierstokes/fluxCalculation.c</text>
</a>
</g>
</g>
<!-- Node1&#45;&gt;Node11 -->
<g id="edge10" class="edge">
<title>Node1&#45;&gt;Node11</title>
<path fill="none" stroke="midnightblue" d="M865.8,-69.11C952.7,-61.21 1096.56,-47.24 1220,-31 1233.16,-29.27 1247.36,-27.14 1260.53,-25.04"/>
<polygon fill="midnightblue" stroke="midnightblue" points="865.4,-65.63 855.75,-70.02 866.03,-72.6 865.4,-65.63"/>
</g>
<!-- Node12 -->
<g id="node12" class="node">
<title>Node12</title>
<g id="a_node12"><a xlink:href="navierstokes_2source_8c.html" target="_top" xlink:title="Contains the functions for initializing and evaluating the source term.">
<polygon fill="white" stroke="black" points="1411.5,-6 1411.5,-25 1540.5,-25 1540.5,-6 1411.5,-6"/>
<text text-anchor="middle" x="1476" y="-13" font-family="Helvetica,sans-Serif" font-size="10.00">src/navierstokes/source.c</text>
</a>
</g>
</g>
<!-- Node1&#45;&gt;Node12 -->
<g id="edge11" class="edge">
<title>Node1&#45;&gt;Node12</title>
<path fill="none" stroke="midnightblue" d="M865.85,-73.27C983.17,-68.52 1210.42,-56.68 1402,-31 1413.42,-29.47 1425.73,-27.28 1436.97,-25.06"/>
<polygon fill="midnightblue" stroke="midnightblue" points="865.38,-69.79 855.53,-73.68 865.66,-76.78 865.38,-69.79"/>
</g>
<!-- Node13 -->
<g id="node13" class="node">
<title>Node13</title>
<g id="a_node13"><a xlink:href="output_8c.html" target="_top" xlink:title="Contains all functions used for writing flow solutions.">
<polygon fill="white" stroke="black" points="1559,-6 1559,-25 1627,-25 1627,-6 1559,-6"/>
<text text-anchor="middle" x="1593" y="-13" font-family="Helvetica,sans-Serif" font-size="10.00">src/output.c</text>
</a>
</g>
</g>
<!-- Node1&#45;&gt;Node13 -->
<g id="edge12" class="edge">
<title>Node1&#45;&gt;Node13</title>
<path fill="none" stroke="midnightblue" d="M866.01,-74C1033.78,-69.33 1420.82,-56.12 1550,-31 1557.11,-29.62 1564.67,-27.35 1571.43,-25.02"/>
<polygon fill="midnightblue" stroke="midnightblue" points="865.66,-70.51 855.76,-74.29 865.86,-77.51 865.66,-70.51"/>
</g>
<!-- Node14 -->
<g id="node14" class="node">
<title>Node14</title>
<g id="a_node14"><a xlink:href="timeDiscretization_8c.html" target="_top" xlink:title="Contains the functions for performing the time stepping process.">
<polygon fill="white" stroke="black" points="1645,-6 1645,-25 1765,-25 1765,-6 1645,-6"/>
<text text-anchor="middle" x="1705" y="-13" font-family="Helvetica,sans-Serif" font-size="10.00">src/timeDiscretization.c</text>
</a>
</g>
</g>
<!-- Node1&#45;&gt;Node14 -->
<g id="edge13" class="edge">
<title>Node1&#45;&gt;Node14</title>
<path fill="none" stroke="midnightblue" d="M865.62,-75.87C1015.92,-74.73 1354.15,-67.86 1636,-31 1647.05,-29.56 1658.96,-27.31 1669.72,-25.01"/>
<polygon fill="midnightblue" stroke="midnightblue" points="865.53,-72.37 855.56,-75.94 865.58,-79.37 865.53,-72.37"/>
</g>
</g>
</svg>
        <g id="navigator" transform="translate(0 0)" fill="#404254">
                <rect fill="#f2f5e9" fill-opacity="0.5" stroke="#606060" stroke-width=".5" x="0" y="0" width="60" height="60"/>
                <use id="zoomplus" xlink:href="#zoomPlus" x="17" y="9" onmousedown="handleZoom(evt,'in')"/>
                <use id="zoomminus" xlink:href="#zoomMin" x="42" y="9" onmousedown="handleZoom(evt,'out')"/>
                <use id="reset" xlink:href="#resetDef" x="30" y="36" onmousedown="handleReset()"/>
                <g id="arrowUp" xlink:href="#dirArrow" transform="translate(30 24)" onmousedown="handlePan(0,-1)">
                  <use xlink:href="#rim" fill="#404040">
                        <set attributeName="fill" to="#808080" begin="arrowUp.mouseover" end="arrowUp.mouseout"/>
                  </use>
                  <path fill="none" stroke="white" stroke-width="1.5" d="M0,-3.0v7 M-2.5,-0.5L0,-3.0L2.5,-0.5"/>
                </g>
                <g id="arrowRight" xlink:href="#dirArrow" transform="rotate(90) translate(36 -43)" onmousedown="handlePan(1,0)">
                  <use xlink:href="#rim" fill="#404040">
                        <set attributeName="fill" to="#808080" begin="arrowRight.mouseover" end="arrowRight.mouseout"/>
                  </use>
                  <path fill="none" stroke="white" stroke-width="1.5" d="M0,-3.0v7 M-2.5,-0.5L0,-3.0L2.5,-0.5"/>
                </g>
                <g id="arrowDown" xlink:href="#dirArrow" transform="rotate(180) translate(-30 -48)" onmousedown="handlePan(0,1)">
                  <use xlink:href="#rim" fill="#404040">
                        <set attributeName="fill" to="#808080" begin="arrowDown.mouseover" end="arrowDown.mouseout"/>
                  </use>
                  <path fill="none" stroke="white" stroke-width="1.5" d="M0,-3.0v7 M-2.5,-0.5L0,-3.0L2.5,-0.5"/>
                </g>
                <g id="arrowLeft" xlink:href="#dirArrow" transform="rotate(270) translate(-36 17)" onmousedown="handlePan(-1,0)">
                  <use xlink:href="#rim" fill="#404040">
                        <set attributeName="fill" to="#808080" begin="arrowLeft.mouseover" end="arrowLeft.mouseout"/>
                  </use>
                  <path fill="none" stroke="white" stroke-width="1.5" d="M0,-3.0v7 M-2.5,-0.5L0,-3.0L2.5,-0.5"/>
                </g>
        </g>
        <svg viewBox="0 0 15 15" width="100%" height="30px" preserveAspectRatio="xMaxYMin meet">
         <g id="arrow_out" transform="scale(0.3 0.3)">
          <a xlink:href="navierstokes_2equation_8h__dep__incl_org.svg" target="_base">
           <rect id="button" ry="5" rx="5" y="6" x="6" height="38" width="38"
                fill="#f2f5e9" fill-opacity="0.5" stroke="#606060" stroke-width="1.0"/>
           <path id="arrow"
             d="M 11.500037,31.436501 C 11.940474,20.09759 22.043105,11.32322 32.158766,21.979434 L 37.068811,17.246167 C 37.068811,17.246167 37.088388,32 37.088388,32 L 22.160133,31.978069 C 22.160133,31.978069 26.997745,27.140456 26.997745,27.140456 C 18.528582,18.264221 13.291696,25.230495 11.500037,31.436501 z"
             style="fill:#404040;"/>
          </a>
         </g>
        </svg>
</svg>
