<?xml version="1.0" encoding="UTF-8" standalone="no"?>
<!DOCTYPE svg PUBLIC "-//W3C//DTD SVG 1.1//EN"
 "http://www.w3.org/Graphics/SVG/1.1/DTD/svg11.dtd">
<!-- Generated by graphviz version 2.42.3 (0)
 -->
<!-- Title: src/navierstokes/equation.c Pages: 1 -->
<svg width="358pt" height="140pt"
 viewBox="0.00 0.00 358.00 140.00" xmlns="http://www.w3.org/2000/svg" xmlns:xlink="http://www.w3.org/1999/xlink">
<g id="graph0" class="graph" transform="scale(1 1) rotate(0) translate(4 136)">
<title>src/navierstokes/equation.c</title>
<polygon fill="white" stroke="transparent" points="-4,4 -4,-136 354,-136 354,4 -4,4"/>
<!-- Node1 -->
<g id="node1" class="node">
<title>Node1</title>
<g id="a_node1"><a xlink:title="Contains the function for initializing the physical constants.">
<polygon fill="#bfbfbf" stroke="black" points="85.5,-112.5 85.5,-131.5 222.5,-131.5 222.5,-112.5 85.5,-112.5"/>
<text text-anchor="middle" x="154" y="-119.5" font-family="Helvetica,sans-Serif" font-size="10.00">src/navierstokes/equation.c</text>
</a>
</g>
</g>
<!-- Node2 -->
<g id="node2" class="node">
<title>Node2</title>
<g id="a_node2"><a xlink:title=" ">
<polygon fill="white" stroke="#bfbfbf" points="0,-56.5 0,-75.5 46,-75.5 46,-56.5 0,-56.5"/>
<text text-anchor="middle" x="23" y="-63.5" font-family="Helvetica,sans-Serif" font-size="10.00">stdio.h</text>
</a>
</g>
</g>
<!-- Node1&#45;&gt;Node2 -->
<g id="edge1" class="edge">
<title>Node1&#45;&gt;Node2</title>
<path fill="none" stroke="midnightblue" d="M133.24,-112.44C111.68,-103.56 77.74,-89.56 53.21,-79.45"/>
<polygon fill="midnightblue" stroke="midnightblue" points="54.24,-76.09 43.66,-75.52 51.57,-82.56 54.24,-76.09"/>
</g>
<!-- Node3 -->
<g id="node3" class="node">
<title>Node3</title>
<g id="a_node3"><a xlink:title=" ">
<polygon fill="white" stroke="#bfbfbf" points="64,-56.5 64,-75.5 112,-75.5 112,-56.5 64,-56.5"/>
<text text-anchor="middle" x="88" y="-63.5" font-family="Helvetica,sans-Serif" font-size="10.00">stdlib.h</text>
</a>
</g>
</g>
<!-- Node1&#45;&gt;Node3 -->
<g id="edge2" class="edge">
<title>Node1&#45;&gt;Node3</title>
<path fill="none" stroke="midnightblue" d="M143.4,-112.32C133.54,-104.26 118.65,-92.08 106.78,-82.37"/>
<polygon fill="midnightblue" stroke="midnightblue" points="108.75,-79.46 98.8,-75.83 104.32,-84.88 108.75,-79.46"/>
</g>
<!-- Node4 -->
<g id="node4" class="node">
<title>Node4</title>
<g id="a_node4"><a xlink:title=" ">
<polygon fill="white" stroke="#bfbfbf" points="130.5,-56.5 130.5,-75.5 177.5,-75.5 177.5,-56.5 130.5,-56.5"/>
<text text-anchor="middle" x="154" y="-63.5" font-family="Helvetica,sans-Serif" font-size="10.00">math.h</text>
</a>
</g>
</g>
<!-- Node1&#45;&gt;Node4 -->
<g id="edge3" class="edge">
<title>Node1&#45;&gt;Node4</title>
<path fill="none" stroke="midnightblue" d="M154,-112.08C154,-105.01 154,-94.86 154,-85.99"/>
<polygon fill="midnightblue" stroke="midnightblue" points="157.5,-85.75 154,-75.75 150.5,-85.75 157.5,-85.75"/>
</g>
<!-- Node5 -->
<g id="node5" class="node">
<title>Node5</title>
<g id="a_node5"><a xlink:href="navierstokes_2equation_8h.html" target="_top" xlink:title=" ">
<polygon fill="white" stroke="black" points="196,-56.5 196,-75.5 258,-75.5 258,-56.5 196,-56.5"/>
<text text-anchor="middle" x="227" y="-63.5" font-family="Helvetica,sans-Serif" font-size="10.00">equation.h</text>
</a>
</g>
</g>
<!-- Node1&#45;&gt;Node5 -->
<g id="edge4" class="edge">
<title>Node1&#45;&gt;Node5</title>
<path fill="none" stroke="midnightblue" d="M165.73,-112.32C176.84,-104.11 193.74,-91.6 206.98,-81.81"/>
<polygon fill="midnightblue" stroke="midnightblue" points="209.1,-84.59 215.06,-75.83 204.94,-78.97 209.1,-84.59"/>
</g>
<!-- Node7 -->
<g id="node7" class="node">
<title>Node7</title>
<g id="a_node7"><a xlink:href="readInTools_8h.html" target="_top" xlink:title=" ">
<polygon fill="white" stroke="black" points="276,-56.5 276,-75.5 350,-75.5 350,-56.5 276,-56.5"/>
<text text-anchor="middle" x="313" y="-63.5" font-family="Helvetica,sans-Serif" font-size="10.00">readInTools.h</text>
</a>
</g>
</g>
<!-- Node1&#45;&gt;Node7 -->
<g id="edge6" class="edge">
<title>Node1&#45;&gt;Node7</title>
<path fill="none" stroke="midnightblue" d="M179.19,-112.44C205.94,-103.36 248.4,-88.94 278.31,-78.78"/>
<polygon fill="midnightblue" stroke="midnightblue" points="279.58,-82.05 287.92,-75.52 277.33,-75.42 279.58,-82.05"/>
</g>
<!-- Node6 -->
<g id="node6" class="node">
<title>Node6</title>
<g id="a_node6"><a xlink:title=" ">
<polygon fill="white" stroke="#bfbfbf" points="208,-0.5 208,-19.5 264,-19.5 264,-0.5 208,-0.5"/>
<text text-anchor="middle" x="236" y="-7.5" font-family="Helvetica,sans-Serif" font-size="10.00">stdbool.h</text>
</a>
</g>
</g>
<!-- Node5&#45;&gt;Node6 -->
<g id="edge5" class="edge">
<title>Node5&#45;&gt;Node6</title>
<path fill="none" stroke="midnightblue" d="M228.49,-56.08C229.68,-48.93 231.39,-38.64 232.88,-29.69"/>
<polygon fill="midnightblue" stroke="midnightblue" points="236.35,-30.19 234.54,-19.75 229.45,-29.04 236.35,-30.19"/>
</g>
<!-- Node7&#45;&gt;Node6 -->
<g id="edge7" class="edge">
<title>Node7&#45;&gt;Node6</title>
<path fill="none" stroke="midnightblue" d="M300.63,-56.32C288.84,-48.06 270.87,-35.45 256.86,-25.63"/>
<polygon fill="midnightblue" stroke="midnightblue" points="258.54,-22.53 248.34,-19.65 254.52,-28.26 258.54,-22.53"/>
</g>
<!-- Node8 -->
<g id="node8" class="node">
<title>Node8</title>
<g id="a_node8"><a xlink:href="main_8h.html" target="_top" xlink:title="Contains the global constants and definitions.">
<polygon fill="white" stroke="black" points="290,-0.5 290,-19.5 336,-19.5 336,-0.5 290,-0.5"/>
<text text-anchor="middle" x="313" y="-7.5" font-family="Helvetica,sans-Serif" font-size="10.00">main.h</text>
</a>
</g>
</g>
<!-- Node7&#45;&gt;Node8 -->
<g id="edge8" class="edge">
<title>Node7&#45;&gt;Node8</title>
<path fill="none" stroke="midnightblue" d="M313,-56.08C313,-49.01 313,-38.86 313,-29.99"/>
<polygon fill="midnightblue" stroke="midnightblue" points="316.5,-29.75 313,-19.75 309.5,-29.75 316.5,-29.75"/>
</g>
</g>
</svg>
