<?xml version="1.0" encoding="UTF-8" standalone="no"?>
<!DOCTYPE svg PUBLIC "-//W3C//DTD SVG 1.1//EN"
 "http://www.w3.org/Graphics/SVG/1.1/DTD/svg11.dtd">
<!-- Generated by graphviz version 2.42.3 (0)
 -->
<!-- Title: src/navierstokes/boundary.h Pages: 1 -->
<svg width="199pt" height="140pt"
 viewBox="0.00 0.00 198.50 140.00" xmlns="http://www.w3.org/2000/svg" xmlns:xlink="http://www.w3.org/1999/xlink">
<g id="graph0" class="graph" transform="scale(1 1) rotate(0) translate(4 136)">
<title>src/navierstokes/boundary.h</title>
<polygon fill="white" stroke="transparent" points="-4,4 -4,-136 194.5,-136 194.5,4 -4,4"/>
<!-- Node1 -->
<g id="node1" class="node">
<title>Node1</title>
<g id="a_node1"><a xlink:title="Contains the structure definition of a boundary.">
<polygon fill="#bfbfbf" stroke="black" points="14,-112.5 14,-131.5 154,-131.5 154,-112.5 14,-112.5"/>
<text text-anchor="middle" x="84" y="-119.5" font-family="Helvetica,sans-Serif" font-size="10.00">src/navierstokes/boundary.h</text>
</a>
</g>
</g>
<!-- Node2 -->
<g id="node2" class="node">
<title>Node2</title>
<g id="a_node2"><a xlink:title=" ">
<polygon fill="white" stroke="#bfbfbf" points="0,-56.5 0,-75.5 56,-75.5 56,-56.5 0,-56.5"/>
<text text-anchor="middle" x="28" y="-63.5" font-family="Helvetica,sans-Serif" font-size="10.00">stdbool.h</text>
</a>
</g>
</g>
<!-- Node1&#45;&gt;Node2 -->
<g id="edge1" class="edge">
<title>Node1&#45;&gt;Node2</title>
<path fill="none" stroke="midnightblue" d="M75,-112.32C66.81,-104.42 54.49,-92.55 44.53,-82.94"/>
<polygon fill="midnightblue" stroke="midnightblue" points="46.79,-80.26 37.16,-75.83 41.93,-85.29 46.79,-80.26"/>
</g>
<!-- Node3 -->
<g id="node3" class="node">
<title>Node3</title>
<g id="a_node3"><a xlink:href="main_8h.html" target="_top" xlink:title="Contains the global constants and definitions.">
<polygon fill="white" stroke="black" points="61,-0.5 61,-19.5 107,-19.5 107,-0.5 61,-0.5"/>
<text text-anchor="middle" x="84" y="-7.5" font-family="Helvetica,sans-Serif" font-size="10.00">main.h</text>
</a>
</g>
</g>
<!-- Node1&#45;&gt;Node3 -->
<g id="edge2" class="edge">
<title>Node1&#45;&gt;Node3</title>
<path fill="none" stroke="midnightblue" d="M84,-112.37C84,-94.62 84,-53.67 84,-29.6"/>
<polygon fill="midnightblue" stroke="midnightblue" points="87.5,-29.59 84,-19.59 80.5,-29.59 87.5,-29.59"/>
</g>
<!-- Node4 -->
<g id="node4" class="node">
<title>Node4</title>
<g id="a_node4"><a xlink:href="mesh_8h.html" target="_top" xlink:title="Contains the definitions of all structs for the mesh handling.">
<polygon fill="white" stroke="black" points="112.5,-56.5 112.5,-75.5 161.5,-75.5 161.5,-56.5 112.5,-56.5"/>
<text text-anchor="middle" x="137" y="-63.5" font-family="Helvetica,sans-Serif" font-size="10.00">mesh.h</text>
</a>
</g>
</g>
<!-- Node1&#45;&gt;Node4 -->
<g id="edge3" class="edge">
<title>Node1&#45;&gt;Node4</title>
<path fill="none" stroke="midnightblue" d="M92.75,-112.08C100.47,-104.22 111.9,-92.57 121.22,-83.08"/>
<polygon fill="midnightblue" stroke="midnightblue" points="123.9,-85.34 128.41,-75.75 118.91,-80.44 123.9,-85.34"/>
</g>
<!-- Node4&#45;&gt;Node3 -->
<g id="edge4" class="edge">
<title>Node4&#45;&gt;Node3</title>
<path fill="none" stroke="midnightblue" d="M128.25,-56.08C120.53,-48.22 109.1,-36.57 99.78,-27.08"/>
<polygon fill="midnightblue" stroke="midnightblue" points="102.09,-24.44 92.59,-19.75 97.1,-29.34 102.09,-24.44"/>
</g>
<!-- Node5 -->
<g id="node5" class="node">
<title>Node5</title>
<g id="a_node5"><a xlink:title=" ">
<polygon fill="white" stroke="#bfbfbf" points="125.5,-0.5 125.5,-19.5 190.5,-19.5 190.5,-0.5 125.5,-0.5"/>
<text text-anchor="middle" x="158" y="-7.5" font-family="Helvetica,sans-Serif" font-size="10.00">boundary.h</text>
</a>
</g>
</g>
<!-- Node4&#45;&gt;Node5 -->
<g id="edge5" class="edge">
<title>Node4&#45;&gt;Node5</title>
<path fill="none" stroke="midnightblue" d="M140.47,-56.08C143.31,-48.77 147.43,-38.18 150.96,-29.1"/>
<polygon fill="midnightblue" stroke="midnightblue" points="154.23,-30.34 154.6,-19.75 147.71,-27.8 154.23,-30.34"/>
</g>
</g>
</svg>
