<?xml version="1.0" encoding="UTF-8" standalone="no"?>
<!DOCTYPE svg PUBLIC "-//W3C//DTD SVG 1.1//EN"
 "http://www.w3.org/Graphics/SVG/1.1/DTD/svg11.dtd">
<!-- Generated by graphviz version 2.42.3 (0)
 -->
<!-- Title: src/navierstokes/boundary.h Pages: 1 -->
<svg width="1868pt" height="196pt"
 viewBox="0.00 0.00 1868.47 196.00" xmlns="http://www.w3.org/2000/svg" xmlns:xlink="http://www.w3.org/1999/xlink">
<g id="graph0" class="graph" transform="scale(1 1) rotate(0) translate(4 192)">
<title>src/navierstokes/boundary.h</title>
<polygon fill="white" stroke="transparent" points="-4,4 -4,-192 1864.47,-192 1864.47,4 -4,4"/>
<!-- Node1 -->
<g id="node1" class="node">
<title>Node1</title>
<g id="a_node1"><a xlink:title="Contains the structure definition of a boundary.">
<polygon fill="#bfbfbf" stroke="black" points="906,-168.5 906,-187.5 1046,-187.5 1046,-168.5 906,-168.5"/>
<text text-anchor="middle" x="976" y="-175.5" font-family="Helvetica,sans-Serif" font-size="10.00">src/navierstokes/boundary.h</text>
</a>
</g>
</g>
<!-- Node2 -->
<g id="node2" class="node">
<title>Node2</title>
<g id="a_node2"><a xlink:href="analyze_8h.html" target="_top" xlink:title="Contains the structure definitions of wing_t and recordPoint_t">
<polygon fill="white" stroke="black" points="89,-56.5 89,-75.5 163,-75.5 163,-56.5 89,-56.5"/>
<text text-anchor="middle" x="126" y="-63.5" font-family="Helvetica,sans-Serif" font-size="10.00">src/analyze.h</text>
</a>
</g>
</g>
<!-- Node1&#45;&gt;Node2 -->
<g id="edge1" class="edge">
<title>Node1&#45;&gt;Node2</title>
<path fill="none" stroke="midnightblue" d="M895.52,-176.21C705.36,-173.8 239.52,-164.62 177,-132 153.09,-119.53 136.79,-90.32 129.82,-75.68"/>
<polygon fill="midnightblue" stroke="midnightblue" points="895.69,-179.71 905.73,-176.33 895.78,-172.71 895.69,-179.71"/>
</g>
<!-- Node4 -->
<g id="node4" class="node">
<title>Node4</title>
<g id="a_node4"><a xlink:href="main_8c.html" target="_top" xlink:title="Contains the main function of ccfd">
<polygon fill="white" stroke="black" points="178,-0.5 178,-19.5 240,-19.5 240,-0.5 178,-0.5"/>
<text text-anchor="middle" x="209" y="-7.5" font-family="Helvetica,sans-Serif" font-size="10.00">src/main.c</text>
</a>
</g>
</g>
<!-- Node1&#45;&gt;Node4 -->
<g id="edge33" class="edge">
<title>Node1&#45;&gt;Node4</title>
<path fill="none" stroke="midnightblue" d="M895.68,-175.52C726.75,-170.91 341.8,-152.11 239,-76 220.42,-62.24 213,-34.16 210.33,-19.84"/>
<polygon fill="midnightblue" stroke="midnightblue" points="895.66,-179.02 905.75,-175.78 895.85,-172.02 895.66,-179.02"/>
</g>
<!-- Node7 -->
<g id="node7" class="node">
<title>Node7</title>
<g id="a_node7"><a xlink:href="mesh_8h.html" target="_top" xlink:title="Contains the definitions of all structs for the mesh handling.">
<polygon fill="white" stroke="black" points="943.5,-112.5 943.5,-131.5 1008.5,-131.5 1008.5,-112.5 943.5,-112.5"/>
<text text-anchor="middle" x="976" y="-119.5" font-family="Helvetica,sans-Serif" font-size="10.00">src/mesh.h</text>
</a>
</g>
</g>
<!-- Node1&#45;&gt;Node7 -->
<g id="edge6" class="edge">
<title>Node1&#45;&gt;Node7</title>
<path fill="none" stroke="midnightblue" d="M969.53,-158.1C968.9,-149.14 969.34,-138.86 970.87,-131.75"/>
<polygon fill="midnightblue" stroke="midnightblue" points="966.07,-158.62 970.83,-168.08 973.01,-157.71 966.07,-158.62"/>
</g>
<!-- Node17 -->
<g id="node17" class="node">
<title>Node17</title>
<g id="a_node17"><a xlink:href="navierstokes_2fluxCalculation_8c.html" target="_top" xlink:title="Contains the flux calculation functions.">
<polygon fill="white" stroke="black" points="1283,-0.5 1283,-19.5 1447,-19.5 1447,-0.5 1283,-0.5"/>
<text text-anchor="middle" x="1365" y="-7.5" font-family="Helvetica,sans-Serif" font-size="10.00">src/navierstokes/fluxCalculation.c</text>
</a>
</g>
</g>
<!-- Node1&#45;&gt;Node17 -->
<g id="edge35" class="edge">
<title>Node1&#45;&gt;Node17</title>
<path fill="none" stroke="midnightblue" d="M1056.4,-173.78C1263.61,-164.66 1803.35,-135.37 1856,-76 1861.9,-69.35 1861.99,-62.57 1856,-56 1829.04,-26.46 1579.8,-16.07 1447.17,-12.61"/>
<polygon fill="midnightblue" stroke="midnightblue" points="1056.03,-170.29 1046.19,-174.22 1056.34,-177.29 1056.03,-170.29"/>
</g>
<!-- Node19 -->
<g id="node19" class="node">
<title>Node19</title>
<g id="a_node19"><a xlink:href="navierstokes_2boundary_8c.html" target="_top" xlink:title="Contains the functions for initializing and applying boundary conditions.">
<polygon fill="white" stroke="black" points="1707,-56.5 1707,-75.5 1847,-75.5 1847,-56.5 1707,-56.5"/>
<text text-anchor="middle" x="1777" y="-63.5" font-family="Helvetica,sans-Serif" font-size="10.00">src/navierstokes/boundary.c</text>
</a>
</g>
</g>
<!-- Node1&#45;&gt;Node19 -->
<g id="edge34" class="edge">
<title>Node1&#45;&gt;Node19</title>
<path fill="none" stroke="midnightblue" d="M1048.13,-167.09C1203.74,-145.73 1568.68,-95.61 1714.85,-75.53"/>
<polygon fill="midnightblue" stroke="midnightblue" points="1047.62,-163.63 1038.19,-168.46 1048.57,-170.57 1047.62,-163.63"/>
</g>
<!-- Node3 -->
<g id="node3" class="node">
<title>Node3</title>
<g id="a_node3"><a xlink:href="analyze_8c.html" target="_top" xlink:title="Contains functions for analyzing flow results.">
<polygon fill="white" stroke="black" points="0,-0.5 0,-19.5 74,-19.5 74,-0.5 0,-0.5"/>
<text text-anchor="middle" x="37" y="-7.5" font-family="Helvetica,sans-Serif" font-size="10.00">src/analyze.c</text>
</a>
</g>
</g>
<!-- Node2&#45;&gt;Node3 -->
<g id="edge2" class="edge">
<title>Node2&#45;&gt;Node3</title>
<path fill="none" stroke="midnightblue" d="M102.76,-50.9C86.44,-41 65.13,-28.07 51.26,-19.65"/>
<polygon fill="midnightblue" stroke="midnightblue" points="101.34,-54.13 111.7,-56.32 104.97,-48.14 101.34,-54.13"/>
</g>
<!-- Node2&#45;&gt;Node4 -->
<g id="edge3" class="edge">
<title>Node2&#45;&gt;Node4</title>
<path fill="none" stroke="midnightblue" d="M148.1,-50.62C163.26,-40.76 182.88,-27.99 195.7,-19.65"/>
<polygon fill="midnightblue" stroke="midnightblue" points="145.81,-47.94 139.34,-56.32 149.63,-53.8 145.81,-47.94"/>
</g>
<!-- Node5 -->
<g id="node5" class="node">
<title>Node5</title>
<g id="a_node5"><a xlink:href="output_8c.html" target="_top" xlink:title="Contains all functions used for writing flow solutions.">
<polygon fill="white" stroke="black" points="92,-0.5 92,-19.5 160,-19.5 160,-0.5 92,-0.5"/>
<text text-anchor="middle" x="126" y="-7.5" font-family="Helvetica,sans-Serif" font-size="10.00">src/output.c</text>
</a>
</g>
</g>
<!-- Node2&#45;&gt;Node5 -->
<g id="edge4" class="edge">
<title>Node2&#45;&gt;Node5</title>
<path fill="none" stroke="midnightblue" d="M126,-45.8C126,-36.91 126,-26.78 126,-19.75"/>
<polygon fill="midnightblue" stroke="midnightblue" points="122.5,-46.08 126,-56.08 129.5,-46.08 122.5,-46.08"/>
</g>
<!-- Node6 -->
<g id="node6" class="node">
<title>Node6</title>
<g id="a_node6"><a xlink:href="timeDiscretization_8c.html" target="_top" xlink:title="Contains the functions for performing the time stepping process.">
<polygon fill="white" stroke="black" points="258,-0.5 258,-19.5 378,-19.5 378,-0.5 258,-0.5"/>
<text text-anchor="middle" x="318" y="-7.5" font-family="Helvetica,sans-Serif" font-size="10.00">src/timeDiscretization.c</text>
</a>
</g>
</g>
<!-- Node2&#45;&gt;Node6 -->
<g id="edge5" class="edge">
<title>Node2&#45;&gt;Node6</title>
<path fill="none" stroke="midnightblue" d="M166.18,-53.7C202.42,-43.51 254.91,-28.74 287.72,-19.52"/>
<polygon fill="midnightblue" stroke="midnightblue" points="165.1,-50.37 156.42,-56.44 167,-57.11 165.1,-50.37"/>
</g>
<!-- Node7&#45;&gt;Node1 -->
<g id="edge26" class="edge">
<title>Node7&#45;&gt;Node1</title>
<path fill="none" stroke="midnightblue" d="M982.46,-141.69C983.11,-150.64 982.68,-160.93 981.17,-168.08"/>
<polygon fill="midnightblue" stroke="midnightblue" points="985.92,-141.2 981.13,-131.75 978.98,-142.13 985.92,-141.2"/>
</g>
<!-- Node7&#45;&gt;Node2 -->
<g id="edge7" class="edge">
<title>Node7&#45;&gt;Node2</title>
<path fill="none" stroke="midnightblue" d="M933.11,-119.09C817.22,-113.8 488.14,-97.88 215,-76 197.97,-74.64 179.14,-72.78 163.21,-71.11"/>
<polygon fill="midnightblue" stroke="midnightblue" points="933.18,-122.6 943.33,-119.56 933.5,-115.61 933.18,-122.6"/>
</g>
<!-- Node7&#45;&gt;Node4 -->
<g id="edge24" class="edge">
<title>Node7&#45;&gt;Node4</title>
<path fill="none" stroke="midnightblue" d="M933.14,-120.28C841.76,-118.11 621.29,-109.54 440,-76 408.6,-70.19 401.72,-64.72 371,-56 325.51,-43.09 272.72,-28.5 240.09,-19.52"/>
<polygon fill="midnightblue" stroke="midnightblue" points="933.3,-123.78 943.38,-120.51 933.46,-116.78 933.3,-123.78"/>
</g>
<!-- Node7&#45;&gt;Node6 -->
<g id="edge32" class="edge">
<title>Node7&#45;&gt;Node6</title>
<path fill="none" stroke="midnightblue" d="M932.7,-119.94C779.58,-116 271.56,-101.06 248,-76 227.89,-54.61 269.05,-31.73 296.37,-19.64"/>
<polygon fill="midnightblue" stroke="midnightblue" points="933.02,-123.45 943.1,-120.21 933.2,-116.45 933.02,-123.45"/>
</g>
<!-- Node8 -->
<g id="node8" class="node">
<title>Node8</title>
<g id="a_node8"><a xlink:href="euler_2boundary_8h.html" target="_top" xlink:title="Contains the structure definition of a boundary.">
<polygon fill="white" stroke="black" points="1098.5,-56.5 1098.5,-75.5 1203.5,-75.5 1203.5,-56.5 1098.5,-56.5"/>
<text text-anchor="middle" x="1151" y="-63.5" font-family="Helvetica,sans-Serif" font-size="10.00">src/euler/boundary.h</text>
</a>
</g>
</g>
<!-- Node7&#45;&gt;Node8 -->
<g id="edge8" class="edge">
<title>Node7&#45;&gt;Node8</title>
<path fill="none" stroke="midnightblue" d="M1013.47,-109.44C1046.47,-99.26 1093.76,-84.66 1123.4,-75.52"/>
<polygon fill="midnightblue" stroke="midnightblue" points="1012.25,-106.15 1003.73,-112.44 1014.32,-112.84 1012.25,-106.15"/>
</g>
<!-- Node9 -->
<g id="node9" class="node">
<title>Node9</title>
<g id="a_node9"><a xlink:href="euler_2boundary_8c.html" target="_top" xlink:title="Contains the functions for initializing and applying boundary conditions.">
<polygon fill="white" stroke="black" points="1159.5,-0.5 1159.5,-19.5 1264.5,-19.5 1264.5,-0.5 1159.5,-0.5"/>
<text text-anchor="middle" x="1212" y="-7.5" font-family="Helvetica,sans-Serif" font-size="10.00">src/euler/boundary.c</text>
</a>
</g>
</g>
<!-- Node7&#45;&gt;Node9 -->
<g id="edge11" class="edge">
<title>Node7&#45;&gt;Node9</title>
<path fill="none" stroke="midnightblue" d="M1019.27,-119.76C1084.38,-116.87 1202.74,-107.34 1229,-76 1242.78,-59.55 1227.97,-33.17 1218.55,-19.63"/>
<polygon fill="midnightblue" stroke="midnightblue" points="1018.77,-116.27 1008.92,-120.18 1019.05,-123.27 1018.77,-116.27"/>
</g>
<!-- Node10 -->
<g id="node10" class="node">
<title>Node10</title>
<g id="a_node10"><a xlink:href="euler_2fluxCalculation_8c.html" target="_top" xlink:title="Contains the flux calculation functions.">
<polygon fill="white" stroke="black" points="901.5,-0.5 901.5,-19.5 1030.5,-19.5 1030.5,-0.5 901.5,-0.5"/>
<text text-anchor="middle" x="966" y="-7.5" font-family="Helvetica,sans-Serif" font-size="10.00">src/euler/fluxCalculation.c</text>
</a>
</g>
</g>
<!-- Node7&#45;&gt;Node10 -->
<g id="edge13" class="edge">
<title>Node7&#45;&gt;Node10</title>
<path fill="none" stroke="midnightblue" d="M933.17,-120.6C813.22,-119.02 480.58,-111.48 448,-76 441.99,-69.45 441.99,-62.55 448,-56 478.08,-23.19 769.34,-14.23 901.43,-11.84"/>
<polygon fill="midnightblue" stroke="midnightblue" points="933.39,-124.1 943.44,-120.72 933.48,-117.1 933.39,-124.1"/>
</g>
<!-- Node11 -->
<g id="node11" class="node">
<title>Node11</title>
<g id="a_node11"><a xlink:href="euler_2exactFunction_8c.html" target="_top" xlink:title="Contains the exact function evaluation function.">
<polygon fill="white" stroke="black" points="1336,-56.5 1336,-75.5 1462,-75.5 1462,-56.5 1336,-56.5"/>
<text text-anchor="middle" x="1399" y="-63.5" font-family="Helvetica,sans-Serif" font-size="10.00">src/euler/exactFunction.c</text>
</a>
</g>
</g>
<!-- Node7&#45;&gt;Node11 -->
<g id="edge12" class="edge">
<title>Node7&#45;&gt;Node11</title>
<path fill="none" stroke="midnightblue" d="M1018.86,-115.53C1093.74,-105.97 1248.69,-86.19 1335.87,-75.06"/>
<polygon fill="midnightblue" stroke="midnightblue" points="1018.32,-112.07 1008.84,-116.81 1019.2,-119.01 1018.32,-112.07"/>
</g>
<!-- Node12 -->
<g id="node12" class="node">
<title>Node12</title>
<g id="a_node12"><a xlink:href="euler_2source_8c.html" target="_top" xlink:title="Contains the functions for initializing and evaluating the source term.">
<polygon fill="white" stroke="black" points="1480.5,-56.5 1480.5,-75.5 1575.5,-75.5 1575.5,-56.5 1480.5,-56.5"/>
<text text-anchor="middle" x="1528" y="-63.5" font-family="Helvetica,sans-Serif" font-size="10.00">src/euler/source.c</text>
</a>
</g>
</g>
<!-- Node7&#45;&gt;Node12 -->
<g id="edge14" class="edge">
<title>Node7&#45;&gt;Node12</title>
<path fill="none" stroke="midnightblue" d="M1018.65,-118.08C1104.48,-111.98 1304.12,-96.74 1471,-76 1474.08,-75.62 1477.25,-75.19 1480.45,-74.75"/>
<polygon fill="midnightblue" stroke="midnightblue" points="1018.24,-114.59 1008.51,-118.79 1018.73,-121.58 1018.24,-114.59"/>
</g>
<!-- Node13 -->
<g id="node13" class="node">
<title>Node13</title>
<g id="a_node13"><a xlink:href="finiteVolume_8c.html" target="_top" xlink:title="Finite volume time derivative functions.">
<polygon fill="white" stroke="black" points="1593.5,-56.5 1593.5,-75.5 1688.5,-75.5 1688.5,-56.5 1593.5,-56.5"/>
<text text-anchor="middle" x="1641" y="-63.5" font-family="Helvetica,sans-Serif" font-size="10.00">src/finiteVolume.c</text>
</a>
</g>
</g>
<!-- Node7&#45;&gt;Node13 -->
<g id="edge15" class="edge">
<title>Node7&#45;&gt;Node13</title>
<path fill="none" stroke="midnightblue" d="M1018.97,-119.04C1118.56,-114.24 1372.74,-100.45 1584,-76 1587.09,-75.64 1590.26,-75.24 1593.45,-74.81"/>
<polygon fill="midnightblue" stroke="midnightblue" points="1018.54,-115.56 1008.71,-119.53 1018.87,-122.55 1018.54,-115.56"/>
</g>
<!-- Node14 -->
<g id="node14" class="node">
<title>Node14</title>
<g id="a_node14"><a xlink:href="initialCondition_8c.html" target="_top" xlink:title="Functions involving the initialization and application of initial conditions.">
<polygon fill="white" stroke="black" points="257.5,-56.5 257.5,-75.5 362.5,-75.5 362.5,-56.5 257.5,-56.5"/>
<text text-anchor="middle" x="310" y="-63.5" font-family="Helvetica,sans-Serif" font-size="10.00">src/initialCondition.c</text>
</a>
</g>
</g>
<!-- Node7&#45;&gt;Node14 -->
<g id="edge16" class="edge">
<title>Node7&#45;&gt;Node14</title>
<path fill="none" stroke="midnightblue" d="M933.35,-118.66C835.07,-113.07 585.15,-97.78 377,-76 372.33,-75.51 367.49,-74.96 362.63,-74.37"/>
<polygon fill="midnightblue" stroke="midnightblue" points="933.29,-122.16 943.47,-119.23 933.69,-115.17 933.29,-122.16"/>
</g>
<!-- Node15 -->
<g id="node15" class="node">
<title>Node15</title>
<g id="a_node15"><a xlink:href="linearSolver_8h.html" target="_top" xlink:title=" ">
<polygon fill="white" stroke="black" points="988,-56.5 988,-75.5 1080,-75.5 1080,-56.5 988,-56.5"/>
<text text-anchor="middle" x="1034" y="-63.5" font-family="Helvetica,sans-Serif" font-size="10.00">src/linearSolver.h</text>
</a>
</g>
</g>
<!-- Node7&#45;&gt;Node15 -->
<g id="edge17" class="edge">
<title>Node7&#45;&gt;Node15</title>
<path fill="none" stroke="midnightblue" d="M992.91,-105.25C1003.2,-95.67 1015.97,-83.79 1024.51,-75.83"/>
<polygon fill="midnightblue" stroke="midnightblue" points="990.25,-102.95 985.32,-112.32 995.02,-108.07 990.25,-102.95"/>
</g>
<!-- Node16 -->
<g id="node16" class="node">
<title>Node16</title>
<g id="a_node16"><a xlink:href="linearSolver_8c.html" target="_top" xlink:title="Contains the functions for solving the linear system of equations during implicit calculations.">
<polygon fill="white" stroke="black" points="1049,-0.5 1049,-19.5 1141,-19.5 1141,-0.5 1049,-0.5"/>
<text text-anchor="middle" x="1095" y="-7.5" font-family="Helvetica,sans-Serif" font-size="10.00">src/linearSolver.c</text>
</a>
</g>
</g>
<!-- Node7&#45;&gt;Node16 -->
<g id="edge23" class="edge">
<title>Node7&#45;&gt;Node16</title>
<path fill="none" stroke="midnightblue" d="M1018.68,-119.17C1079.89,-115.54 1187.93,-105.09 1212,-76 1235.85,-47.18 1183.42,-28.9 1141.23,-19.3"/>
<polygon fill="midnightblue" stroke="midnightblue" points="1018.34,-115.68 1008.55,-119.73 1018.73,-122.67 1018.34,-115.68"/>
</g>
<!-- Node7&#45;&gt;Node17 -->
<g id="edge29" class="edge">
<title>Node7&#45;&gt;Node17</title>
<path fill="none" stroke="midnightblue" d="M1019.15,-118.27C1073.38,-113.83 1168.73,-102.69 1246,-76 1287.39,-61.71 1331.45,-33.87 1352.46,-19.72"/>
<polygon fill="midnightblue" stroke="midnightblue" points="1018.57,-114.8 1008.87,-119.07 1019.11,-121.78 1018.57,-114.8"/>
</g>
<!-- Node18 -->
<g id="node18" class="node">
<title>Node18</title>
<g id="a_node18"><a xlink:href="mesh_8c.html" target="_top" xlink:title="Contains all the functions for reading and creating meshes.">
<polygon fill="white" stroke="black" points="457.5,-56.5 457.5,-75.5 522.5,-75.5 522.5,-56.5 457.5,-56.5"/>
<text text-anchor="middle" x="490" y="-63.5" font-family="Helvetica,sans-Serif" font-size="10.00">src/mesh.c</text>
</a>
</g>
</g>
<!-- Node7&#45;&gt;Node18 -->
<g id="edge25" class="edge">
<title>Node7&#45;&gt;Node18</title>
<path fill="none" stroke="midnightblue" d="M933.34,-118.33C853.83,-112.99 677.77,-99.45 531,-76 528.27,-75.56 525.44,-75.06 522.61,-74.51"/>
<polygon fill="midnightblue" stroke="midnightblue" points="933.24,-121.83 943.45,-119 933.7,-114.85 933.24,-121.83"/>
</g>
<!-- Node7&#45;&gt;Node19 -->
<g id="edge27" class="edge">
<title>Node7&#45;&gt;Node19</title>
<path fill="none" stroke="midnightblue" d="M1018.94,-119.07C1130.75,-113.87 1440.1,-98.45 1697,-76 1700.2,-75.72 1703.48,-75.42 1706.78,-75.1"/>
<polygon fill="midnightblue" stroke="midnightblue" points="1018.57,-115.58 1008.74,-119.54 1018.89,-122.57 1018.57,-115.58"/>
</g>
<!-- Node20 -->
<g id="node20" class="node">
<title>Node20</title>
<g id="a_node20"><a xlink:href="navierstokes_2exactFunction_8c.html" target="_top" xlink:title="Contains the exact function evaluation function.">
<polygon fill="white" stroke="black" points="540.5,-56.5 540.5,-75.5 701.5,-75.5 701.5,-56.5 540.5,-56.5"/>
<text text-anchor="middle" x="621" y="-63.5" font-family="Helvetica,sans-Serif" font-size="10.00">src/navierstokes/exactFunction.c</text>
</a>
</g>
</g>
<!-- Node7&#45;&gt;Node20 -->
<g id="edge28" class="edge">
<title>Node7&#45;&gt;Node20</title>
<path fill="none" stroke="midnightblue" d="M933.08,-114.47C868.95,-104.72 748.11,-86.33 677.08,-75.53"/>
<polygon fill="midnightblue" stroke="midnightblue" points="932.83,-117.97 943.24,-116.02 933.88,-111.05 932.83,-117.97"/>
</g>
<!-- Node21 -->
<g id="node21" class="node">
<title>Node21</title>
<g id="a_node21"><a xlink:href="navierstokes_2source_8c.html" target="_top" xlink:title="Contains the functions for initializing and evaluating the source term.">
<polygon fill="white" stroke="black" points="719.5,-56.5 719.5,-75.5 848.5,-75.5 848.5,-56.5 719.5,-56.5"/>
<text text-anchor="middle" x="784" y="-63.5" font-family="Helvetica,sans-Serif" font-size="10.00">src/navierstokes/source.c</text>
</a>
</g>
</g>
<!-- Node7&#45;&gt;Node21 -->
<g id="edge30" class="edge">
<title>Node7&#45;&gt;Node21</title>
<path fill="none" stroke="midnightblue" d="M935.82,-109.7C899.58,-99.51 847.09,-84.74 814.28,-75.52"/>
<polygon fill="midnightblue" stroke="midnightblue" points="935,-113.11 945.58,-112.44 936.9,-106.37 935,-113.11"/>
</g>
<!-- Node22 -->
<g id="node22" class="node">
<title>Node22</title>
<g id="a_node22"><a xlink:href="reconstruction_8c.html" target="_top" xlink:title="Contains the reconstruction and limiter functions.">
<polygon fill="white" stroke="black" points="866.5,-56.5 866.5,-75.5 969.5,-75.5 969.5,-56.5 866.5,-56.5"/>
<text text-anchor="middle" x="918" y="-63.5" font-family="Helvetica,sans-Serif" font-size="10.00">src/reconstruction.c</text>
</a>
</g>
</g>
<!-- Node7&#45;&gt;Node22 -->
<g id="edge31" class="edge">
<title>Node7&#45;&gt;Node22</title>
<path fill="none" stroke="midnightblue" d="M959.09,-105.25C948.8,-95.67 936.03,-83.79 927.49,-75.83"/>
<polygon fill="midnightblue" stroke="midnightblue" points="956.98,-108.07 966.68,-112.32 961.75,-102.95 956.98,-108.07"/>
</g>
<!-- Node8&#45;&gt;Node9 -->
<g id="edge9" class="edge">
<title>Node8&#45;&gt;Node9</title>
<path fill="none" stroke="midnightblue" d="M1168.47,-49.54C1179.34,-39.91 1192.94,-27.87 1202.02,-19.83"/>
<polygon fill="midnightblue" stroke="midnightblue" points="1165.97,-47.07 1160.8,-56.32 1170.61,-52.32 1165.97,-47.07"/>
</g>
<!-- Node8&#45;&gt;Node10 -->
<g id="edge10" class="edge">
<title>Node8&#45;&gt;Node10</title>
<path fill="none" stroke="midnightblue" d="M1111.83,-53.57C1076.93,-43.38 1026.65,-28.7 995.18,-19.52"/>
<polygon fill="midnightblue" stroke="midnightblue" points="1111.11,-57 1121.69,-56.44 1113.07,-50.28 1111.11,-57"/>
</g>
<!-- Node15&#45;&gt;Node4 -->
<g id="edge20" class="edge">
<title>Node15&#45;&gt;Node4</title>
<path fill="none" stroke="midnightblue" d="M977.76,-56.13C653.6,-23.05 567.13,-63.32 249,-20 246.18,-19.62 243.26,-19.13 240.35,-18.59"/>
<polygon fill="midnightblue" stroke="midnightblue" points="977.6,-59.63 987.91,-57.18 978.32,-52.67 977.6,-59.63"/>
</g>
<!-- Node15&#45;&gt;Node6 -->
<g id="edge22" class="edge">
<title>Node15&#45;&gt;Node6</title>
<path fill="none" stroke="midnightblue" d="M977.77,-56.1C750.09,-30.48 492.78,-17.97 378.23,-13.26"/>
<polygon fill="midnightblue" stroke="midnightblue" points="977.57,-59.6 987.9,-57.25 978.36,-52.64 977.57,-59.6"/>
</g>
<!-- Node15&#45;&gt;Node10 -->
<g id="edge18" class="edge">
<title>Node15&#45;&gt;Node10</title>
<path fill="none" stroke="midnightblue" d="M1015.24,-50.1C1003,-40.38 987.44,-28.03 977.12,-19.83"/>
<polygon fill="midnightblue" stroke="midnightblue" points="1013.07,-52.85 1023.07,-56.32 1017.42,-47.36 1013.07,-52.85"/>
</g>
<!-- Node15&#45;&gt;Node16 -->
<g id="edge19" class="edge">
<title>Node15&#45;&gt;Node16</title>
<path fill="none" stroke="midnightblue" d="M1051.47,-49.54C1062.34,-39.91 1075.94,-27.87 1085.02,-19.83"/>
<polygon fill="midnightblue" stroke="midnightblue" points="1048.97,-47.07 1043.8,-56.32 1053.61,-52.32 1048.97,-47.07"/>
</g>
<!-- Node15&#45;&gt;Node17 -->
<g id="edge21" class="edge">
<title>Node15&#45;&gt;Node17</title>
<path fill="none" stroke="midnightblue" d="M1090.13,-55.82C1173.68,-42.17 1259.2,-28.23 1312.6,-19.53"/>
<polygon fill="midnightblue" stroke="midnightblue" points="1089.52,-52.37 1080.21,-57.44 1090.65,-59.28 1089.52,-52.37"/>
</g>
</g>
</svg>
