<?xml version="1.0" encoding="UTF-8" standalone="no"?>
<!DOCTYPE svg PUBLIC "-//W3C//DTD SVG 1.1//EN"
 "http://www.w3.org/Graphics/SVG/1.1/DTD/svg11.dtd">
<!-- Generated by graphviz version 2.42.3 (0)
 -->
<!-- Title: src/output.c Pages: 1 -->
<svg width="944pt" height="196pt"
 viewBox="0.00 0.00 944.00 196.00" xmlns="http://www.w3.org/2000/svg" xmlns:xlink="http://www.w3.org/1999/xlink">
<g id="graph0" class="graph" transform="scale(1 1) rotate(0) translate(4 192)">
<title>src/output.c</title>
<polygon fill="white" stroke="transparent" points="-4,4 -4,-192 940,-192 940,4 -4,4"/>
<!-- Node1 -->
<g id="node1" class="node">
<title>Node1</title>
<g id="a_node1"><a xlink:title="Contains all functions used for writing flow solutions.">
<polygon fill="#bfbfbf" stroke="black" points="408,-168.5 408,-187.5 476,-187.5 476,-168.5 408,-168.5"/>
<text text-anchor="middle" x="442" y="-175.5" font-family="Helvetica,sans-Serif" font-size="10.00">src/output.c</text>
</a>
</g>
</g>
<!-- Node2 -->
<g id="node2" class="node">
<title>Node2</title>
<g id="a_node2"><a xlink:title=" ">
<polygon fill="white" stroke="#bfbfbf" points="0,-112.5 0,-131.5 46,-131.5 46,-112.5 0,-112.5"/>
<text text-anchor="middle" x="23" y="-119.5" font-family="Helvetica,sans-Serif" font-size="10.00">stdio.h</text>
</a>
</g>
</g>
<!-- Node1&#45;&gt;Node2 -->
<g id="edge1" class="edge">
<title>Node1&#45;&gt;Node2</title>
<path fill="none" stroke="midnightblue" d="M407.81,-174.85C341.66,-170.3 191.47,-158.07 56.42,-132"/>
<polygon fill="midnightblue" stroke="midnightblue" points="56.8,-128.51 46.32,-130.02 55.45,-135.38 56.8,-128.51"/>
</g>
<!-- Node3 -->
<g id="node3" class="node">
<title>Node3</title>
<g id="a_node3"><a xlink:title=" ">
<polygon fill="white" stroke="#bfbfbf" points="64.5,-112.5 64.5,-131.5 113.5,-131.5 113.5,-112.5 64.5,-112.5"/>
<text text-anchor="middle" x="89" y="-119.5" font-family="Helvetica,sans-Serif" font-size="10.00">string.h</text>
</a>
</g>
</g>
<!-- Node1&#45;&gt;Node3 -->
<g id="edge2" class="edge">
<title>Node1&#45;&gt;Node3</title>
<path fill="none" stroke="midnightblue" d="M407.78,-173.52C350.85,-167.44 232.96,-153.62 123.67,-131.92"/>
<polygon fill="midnightblue" stroke="midnightblue" points="124.3,-128.47 113.8,-129.93 122.92,-135.33 124.3,-128.47"/>
</g>
<!-- Node4 -->
<g id="node4" class="node">
<title>Node4</title>
<g id="a_node4"><a xlink:title=" ">
<polygon fill="white" stroke="#bfbfbf" points="132,-112.5 132,-131.5 176,-131.5 176,-112.5 132,-112.5"/>
<text text-anchor="middle" x="154" y="-119.5" font-family="Helvetica,sans-Serif" font-size="10.00">omp.h</text>
</a>
</g>
</g>
<!-- Node1&#45;&gt;Node4 -->
<g id="edge3" class="edge">
<title>Node1&#45;&gt;Node4</title>
<path fill="none" stroke="midnightblue" d="M407.67,-172.21C360,-165.29 270.91,-151.4 186.06,-132.04"/>
<polygon fill="midnightblue" stroke="midnightblue" points="186.81,-128.62 176.27,-129.78 185.23,-135.44 186.81,-128.62"/>
</g>
<!-- Node5 -->
<g id="node5" class="node">
<title>Node5</title>
<g id="a_node5"><a xlink:title=" ">
<polygon fill="white" stroke="#bfbfbf" points="194.5,-112.5 194.5,-131.5 241.5,-131.5 241.5,-112.5 194.5,-112.5"/>
<text text-anchor="middle" x="218" y="-119.5" font-family="Helvetica,sans-Serif" font-size="10.00">math.h</text>
</a>
</g>
</g>
<!-- Node1&#45;&gt;Node5 -->
<g id="edge4" class="edge">
<title>Node1&#45;&gt;Node5</title>
<path fill="none" stroke="midnightblue" d="M407.98,-168.8C365.58,-158.58 293.58,-141.22 251.45,-131.06"/>
<polygon fill="midnightblue" stroke="midnightblue" points="252.21,-127.65 241.67,-128.71 250.57,-134.45 252.21,-127.65"/>
</g>
<!-- Node6 -->
<g id="node6" class="node">
<title>Node6</title>
<g id="a_node6"><a xlink:href="main_8h.html" target="_top" xlink:title="Contains the global constants and definitions.">
<polygon fill="white" stroke="black" points="455,-0.5 455,-19.5 501,-19.5 501,-0.5 455,-0.5"/>
<text text-anchor="middle" x="478" y="-7.5" font-family="Helvetica,sans-Serif" font-size="10.00">main.h</text>
</a>
</g>
</g>
<!-- Node1&#45;&gt;Node6 -->
<g id="edge5" class="edge">
<title>Node1&#45;&gt;Node6</title>
<path fill="none" stroke="midnightblue" d="M407.94,-176.07C356.73,-173.09 267.98,-160.92 289,-112 315.42,-50.51 398.04,-25.56 444.82,-16.17"/>
<polygon fill="midnightblue" stroke="midnightblue" points="445.61,-19.58 454.79,-14.29 444.31,-12.7 445.61,-19.58"/>
</g>
<!-- Node7 -->
<g id="node7" class="node">
<title>Node7</title>
<g id="a_node7"><a xlink:href="output_8h.html" target="_top" xlink:title="Contains outputTime_t struct definition.">
<polygon fill="white" stroke="black" points="512.5,-112.5 512.5,-131.5 563.5,-131.5 563.5,-112.5 512.5,-112.5"/>
<text text-anchor="middle" x="538" y="-119.5" font-family="Helvetica,sans-Serif" font-size="10.00">output.h</text>
</a>
</g>
</g>
<!-- Node1&#45;&gt;Node7 -->
<g id="edge6" class="edge">
<title>Node1&#45;&gt;Node7</title>
<path fill="none" stroke="midnightblue" d="M457.42,-168.32C472.54,-159.82 495.82,-146.73 513.47,-136.8"/>
<polygon fill="midnightblue" stroke="midnightblue" points="515.61,-139.61 522.61,-131.65 512.18,-133.51 515.61,-139.61"/>
</g>
<!-- Node10 -->
<g id="node10" class="node">
<title>Node10</title>
<g id="a_node10"><a xlink:href="readInTools_8h.html" target="_top" xlink:title=" ">
<polygon fill="white" stroke="black" points="298,-112.5 298,-131.5 372,-131.5 372,-112.5 298,-112.5"/>
<text text-anchor="middle" x="335" y="-119.5" font-family="Helvetica,sans-Serif" font-size="10.00">readInTools.h</text>
</a>
</g>
</g>
<!-- Node1&#45;&gt;Node10 -->
<g id="edge9" class="edge">
<title>Node1&#45;&gt;Node10</title>
<path fill="none" stroke="midnightblue" d="M424.81,-168.32C407.65,-159.66 381.05,-146.24 361.25,-136.25"/>
<polygon fill="midnightblue" stroke="midnightblue" points="362.65,-133.04 352.15,-131.65 359.5,-139.28 362.65,-133.04"/>
</g>
<!-- Node11 -->
<g id="node11" class="node">
<title>Node11</title>
<g id="a_node11"><a xlink:href="timeDiscretization_8h_source.html" target="_top" xlink:title=" ">
<polygon fill="white" stroke="black" points="390,-112.5 390,-131.5 494,-131.5 494,-112.5 390,-112.5"/>
<text text-anchor="middle" x="442" y="-119.5" font-family="Helvetica,sans-Serif" font-size="10.00">timeDiscretization.h</text>
</a>
</g>
</g>
<!-- Node1&#45;&gt;Node11 -->
<g id="edge12" class="edge">
<title>Node1&#45;&gt;Node11</title>
<path fill="none" stroke="midnightblue" d="M442,-168.08C442,-161.01 442,-150.86 442,-141.99"/>
<polygon fill="midnightblue" stroke="midnightblue" points="445.5,-141.75 442,-131.75 438.5,-141.75 445.5,-141.75"/>
</g>
<!-- Node13 -->
<g id="node13" class="node">
<title>Node13</title>
<g id="a_node13"><a xlink:href="analyze_8h.html" target="_top" xlink:title="Contains the structure definitions of wing_t and recordPoint_t">
<polygon fill="white" stroke="black" points="582,-112.5 582,-131.5 640,-131.5 640,-112.5 582,-112.5"/>
<text text-anchor="middle" x="611" y="-119.5" font-family="Helvetica,sans-Serif" font-size="10.00">analyze.h</text>
</a>
</g>
</g>
<!-- Node1&#45;&gt;Node13 -->
<g id="edge15" class="edge">
<title>Node1&#45;&gt;Node13</title>
<path fill="none" stroke="midnightblue" d="M468.78,-168.44C497.33,-159.32 542.73,-144.81 574.54,-134.65"/>
<polygon fill="midnightblue" stroke="midnightblue" points="575.89,-137.89 584.35,-131.52 573.76,-131.23 575.89,-137.89"/>
</g>
<!-- Node16 -->
<g id="node16" class="node">
<title>Node16</title>
<g id="a_node16"><a xlink:title=" ">
<polygon fill="white" stroke="#bfbfbf" points="658,-112.5 658,-131.5 720,-131.5 720,-112.5 658,-112.5"/>
<text text-anchor="middle" x="689" y="-119.5" font-family="Helvetica,sans-Serif" font-size="10.00">equation.h</text>
</a>
</g>
</g>
<!-- Node1&#45;&gt;Node16 -->
<g id="edge23" class="edge">
<title>Node1&#45;&gt;Node16</title>
<path fill="none" stroke="midnightblue" d="M476.08,-169.67C515.2,-161.24 581.54,-146.89 648.17,-132.17"/>
<polygon fill="midnightblue" stroke="midnightblue" points="648.99,-135.58 658,-130 647.48,-128.74 648.99,-135.58"/>
</g>
<!-- Node17 -->
<g id="node17" class="node">
<title>Node17</title>
<g id="a_node17"><a xlink:title=" ">
<polygon fill="white" stroke="#bfbfbf" points="738,-112.5 738,-131.5 824,-131.5 824,-112.5 738,-112.5"/>
<text text-anchor="middle" x="781" y="-119.5" font-family="Helvetica,sans-Serif" font-size="10.00">exactFunction.h</text>
</a>
</g>
</g>
<!-- Node1&#45;&gt;Node17 -->
<g id="edge24" class="edge">
<title>Node1&#45;&gt;Node17</title>
<path fill="none" stroke="midnightblue" d="M476.05,-171.84C528.03,-163.92 630.58,-148.15 727.88,-132.17"/>
<polygon fill="midnightblue" stroke="midnightblue" points="728.58,-135.6 737.88,-130.52 727.44,-128.69 728.58,-135.6"/>
</g>
<!-- Node18 -->
<g id="node18" class="node">
<title>Node18</title>
<g id="a_node18"><a xlink:title=" ">
<polygon fill="white" stroke="#bfbfbf" points="880,-56.5 880,-75.5 936,-75.5 936,-56.5 880,-56.5"/>
<text text-anchor="middle" x="908" y="-63.5" font-family="Helvetica,sans-Serif" font-size="10.00">cgnslib.h</text>
</a>
</g>
</g>
<!-- Node1&#45;&gt;Node18 -->
<g id="edge25" class="edge">
<title>Node1&#45;&gt;Node18</title>
<path fill="none" stroke="midnightblue" d="M476.2,-176.39C580.8,-174.16 891.13,-164.81 921,-132 932.58,-119.28 926.2,-99.25 918.89,-84.78"/>
<polygon fill="midnightblue" stroke="midnightblue" points="921.82,-82.84 913.89,-75.82 915.7,-86.26 921.82,-82.84"/>
</g>
<!-- Node19 -->
<g id="node19" class="node">
<title>Node19</title>
<g id="a_node19"><a xlink:href="memTools_8h.html" target="_top" xlink:title=" ">
<polygon fill="white" stroke="black" points="842,-112.5 842,-131.5 912,-131.5 912,-112.5 842,-112.5"/>
<text text-anchor="middle" x="877" y="-119.5" font-family="Helvetica,sans-Serif" font-size="10.00">memTools.h</text>
</a>
</g>
</g>
<!-- Node1&#45;&gt;Node19 -->
<g id="edge26" class="edge">
<title>Node1&#45;&gt;Node19</title>
<path fill="none" stroke="midnightblue" d="M476.13,-174.08C542.64,-168.18 694.42,-153.64 832.1,-132.02"/>
<polygon fill="midnightblue" stroke="midnightblue" points="832.66,-135.47 841.99,-130.45 831.56,-128.56 832.66,-135.47"/>
</g>
<!-- Node8 -->
<g id="node8" class="node">
<title>Node8</title>
<g id="a_node8"><a xlink:title=" ">
<polygon fill="white" stroke="#bfbfbf" points="436,-56.5 436,-75.5 492,-75.5 492,-56.5 436,-56.5"/>
<text text-anchor="middle" x="464" y="-63.5" font-family="Helvetica,sans-Serif" font-size="10.00">stdbool.h</text>
</a>
</g>
</g>
<!-- Node7&#45;&gt;Node8 -->
<g id="edge7" class="edge">
<title>Node7&#45;&gt;Node8</title>
<path fill="none" stroke="midnightblue" d="M526.11,-112.32C514.85,-104.11 497.71,-91.6 484.29,-81.81"/>
<polygon fill="midnightblue" stroke="midnightblue" points="486.25,-78.9 476.11,-75.83 482.12,-84.56 486.25,-78.9"/>
</g>
<!-- Node9 -->
<g id="node9" class="node">
<title>Node9</title>
<g id="a_node9"><a xlink:title=" ">
<polygon fill="white" stroke="#bfbfbf" points="510,-56.5 510,-75.5 558,-75.5 558,-56.5 510,-56.5"/>
<text text-anchor="middle" x="534" y="-63.5" font-family="Helvetica,sans-Serif" font-size="10.00">stdlib.h</text>
</a>
</g>
</g>
<!-- Node7&#45;&gt;Node9 -->
<g id="edge8" class="edge">
<title>Node7&#45;&gt;Node9</title>
<path fill="none" stroke="midnightblue" d="M537.34,-112.08C536.82,-105.01 536.06,-94.86 535.41,-85.99"/>
<polygon fill="midnightblue" stroke="midnightblue" points="538.88,-85.47 534.65,-75.75 531.9,-85.98 538.88,-85.47"/>
</g>
<!-- Node10&#45;&gt;Node6 -->
<g id="edge11" class="edge">
<title>Node10&#45;&gt;Node6</title>
<path fill="none" stroke="midnightblue" d="M336.85,-112.2C340.17,-98.43 348.4,-71.73 365,-56 387.13,-35.03 420.24,-23.4 444.9,-17.24"/>
<polygon fill="midnightblue" stroke="midnightblue" points="445.95,-20.59 454.9,-14.93 444.37,-13.77 445.95,-20.59"/>
</g>
<!-- Node10&#45;&gt;Node8 -->
<g id="edge10" class="edge">
<title>Node10&#45;&gt;Node8</title>
<path fill="none" stroke="midnightblue" d="M355.44,-112.44C376.67,-103.56 410.1,-89.56 434.25,-79.45"/>
<polygon fill="midnightblue" stroke="midnightblue" points="435.78,-82.61 443.66,-75.52 433.08,-76.15 435.78,-82.61"/>
</g>
<!-- Node11&#45;&gt;Node8 -->
<g id="edge13" class="edge">
<title>Node11&#45;&gt;Node8</title>
<path fill="none" stroke="midnightblue" d="M445.63,-112.08C448.61,-104.77 452.93,-94.18 456.62,-85.1"/>
<polygon fill="midnightblue" stroke="midnightblue" points="459.9,-86.33 460.43,-75.75 453.42,-83.69 459.9,-86.33"/>
</g>
<!-- Node12 -->
<g id="node12" class="node">
<title>Node12</title>
<g id="a_node12"><a xlink:title=" ">
<polygon fill="white" stroke="#bfbfbf" points="374,-56.5 374,-75.5 418,-75.5 418,-56.5 374,-56.5"/>
<text text-anchor="middle" x="396" y="-63.5" font-family="Helvetica,sans-Serif" font-size="10.00">time.h</text>
</a>
</g>
</g>
<!-- Node11&#45;&gt;Node12 -->
<g id="edge14" class="edge">
<title>Node11&#45;&gt;Node12</title>
<path fill="none" stroke="midnightblue" d="M434.4,-112.08C427.77,-104.3 417.98,-92.8 409.94,-83.37"/>
<polygon fill="midnightblue" stroke="midnightblue" points="412.6,-81.09 403.45,-75.75 407.27,-85.63 412.6,-81.09"/>
</g>
<!-- Node13&#45;&gt;Node6 -->
<g id="edge18" class="edge">
<title>Node13&#45;&gt;Node6</title>
<path fill="none" stroke="midnightblue" d="M606.98,-112.4C600.32,-98.9 585.82,-72.57 567,-56 550.55,-41.52 528.62,-30.36 510.64,-22.77"/>
<polygon fill="midnightblue" stroke="midnightblue" points="511.7,-19.43 501.11,-18.93 509.08,-25.92 511.7,-19.43"/>
</g>
<!-- Node13&#45;&gt;Node8 -->
<g id="edge17" class="edge">
<title>Node13&#45;&gt;Node8</title>
<path fill="none" stroke="midnightblue" d="M587.71,-112.44C563.19,-103.44 524.4,-89.19 496.8,-79.05"/>
<polygon fill="midnightblue" stroke="midnightblue" points="497.78,-75.68 487.18,-75.52 495.36,-82.25 497.78,-75.68"/>
</g>
<!-- Node13&#45;&gt;Node9 -->
<g id="edge16" class="edge">
<title>Node13&#45;&gt;Node9</title>
<path fill="none" stroke="midnightblue" d="M598.63,-112.32C586.84,-104.06 568.87,-91.45 554.86,-81.63"/>
<polygon fill="midnightblue" stroke="midnightblue" points="556.54,-78.53 546.34,-75.65 552.52,-84.26 556.54,-78.53"/>
</g>
<!-- Node14 -->
<g id="node14" class="node">
<title>Node14</title>
<g id="a_node14"><a xlink:title=" ">
<polygon fill="white" stroke="#bfbfbf" points="632.5,-0.5 632.5,-19.5 697.5,-19.5 697.5,-0.5 632.5,-0.5"/>
<text text-anchor="middle" x="665" y="-7.5" font-family="Helvetica,sans-Serif" font-size="10.00">boundary.h</text>
</a>
</g>
</g>
<!-- Node13&#45;&gt;Node14 -->
<g id="edge19" class="edge">
<title>Node13&#45;&gt;Node14</title>
<path fill="none" stroke="midnightblue" d="M630.91,-112.41C645.22,-105.04 663.46,-92.92 672,-76 679.35,-61.45 676.25,-42.77 672.11,-29.17"/>
<polygon fill="midnightblue" stroke="midnightblue" points="675.35,-27.82 668.75,-19.53 668.74,-30.13 675.35,-27.82"/>
</g>
<!-- Node15 -->
<g id="node15" class="node">
<title>Node15</title>
<g id="a_node15"><a xlink:href="mesh_8h_source.html" target="_top" xlink:title=" ">
<polygon fill="white" stroke="black" points="614.5,-56.5 614.5,-75.5 663.5,-75.5 663.5,-56.5 614.5,-56.5"/>
<text text-anchor="middle" x="639" y="-63.5" font-family="Helvetica,sans-Serif" font-size="10.00">mesh.h</text>
</a>
</g>
</g>
<!-- Node13&#45;&gt;Node15 -->
<g id="edge20" class="edge">
<title>Node13&#45;&gt;Node15</title>
<path fill="none" stroke="midnightblue" d="M615.62,-112.08C619.46,-104.69 625.02,-93.95 629.76,-84.81"/>
<polygon fill="midnightblue" stroke="midnightblue" points="632.97,-86.24 634.46,-75.75 626.75,-83.02 632.97,-86.24"/>
</g>
<!-- Node15&#45;&gt;Node6 -->
<g id="edge21" class="edge">
<title>Node15&#45;&gt;Node6</title>
<path fill="none" stroke="midnightblue" d="M614.2,-56.68C586.46,-47.38 541.42,-32.27 510.79,-22"/>
<polygon fill="midnightblue" stroke="midnightblue" points="511.6,-18.58 501,-18.72 509.37,-25.21 511.6,-18.58"/>
</g>
<!-- Node15&#45;&gt;Node14 -->
<g id="edge22" class="edge">
<title>Node15&#45;&gt;Node14</title>
<path fill="none" stroke="midnightblue" d="M643.29,-56.08C646.85,-48.69 652.02,-37.95 656.42,-28.81"/>
<polygon fill="midnightblue" stroke="midnightblue" points="659.6,-30.28 660.79,-19.75 653.29,-27.24 659.6,-30.28"/>
</g>
<!-- Node19&#45;&gt;Node18 -->
<g id="edge27" class="edge">
<title>Node19&#45;&gt;Node18</title>
<path fill="none" stroke="midnightblue" d="M882.12,-112.08C886.41,-104.61 892.66,-93.72 897.94,-84.52"/>
<polygon fill="midnightblue" stroke="midnightblue" points="901.03,-86.17 902.98,-75.75 894.96,-82.68 901.03,-86.17"/>
</g>
</g>
</svg>
