<?xml version="1.0" encoding="UTF-8" standalone="no"?>
<!DOCTYPE svg PUBLIC "-//W3C//DTD SVG 1.1//EN"
 "http://www.w3.org/Graphics/SVG/1.1/DTD/svg11.dtd">
<!-- Generated by graphviz version 2.42.3 (0)
 -->
<!-- Title: src/output.c Pages: 1 -->
<!--zoomable 252 -->
<svg id="main" version="1.1" xmlns="http://www.w3.org/2000/svg" xmlns:xlink="http://www.w3.org/1999/xlink" xml:space="preserve" onload="init(evt)">
<style type="text/css"><![CDATA[
.edge:hover path { stroke: red; }
.edge:hover polygon { stroke: red; fill: red; }
]]></style>
<script type="text/javascript"><![CDATA[
var edges = document.getElementsByTagName('g');
if (edges && edges.length) {
  for (var i=0;i<edges.length;i++) {
    if (edges[i].id.substr(0,4)=='edge') {
      edges[i].setAttribute('class','edge');
    }
  }
}
]]></script>
        <defs>
                <circle id="rim" cx="0" cy="0" r="7"/>
                <circle id="rim2" cx="0" cy="0" r="3.5"/>
                <g id="zoomPlus">
                        <use xlink:href="#rim" fill="#404040">
                                <set attributeName="fill" to="#808080" begin="zoomplus.mouseover" end="zoomplus.mouseout"/>
                        </use>
                        <path d="M-4,0h8M0,-4v8" fill="none" stroke="white" stroke-width="1.5" pointer-events="none"/>
                </g>
                <g id="zoomMin">
                        <use xlink:href="#rim" fill="#404040">
                                <set attributeName="fill" to="#808080" begin="zoomminus.mouseover" end="zoomminus.mouseout"/>
                        </use>
                        <path d="M-4,0h8" fill="none" stroke="white" stroke-width="1.5" pointer-events="none"/>
                </g>
                <g id="dirArrow">
                        <path fill="none" stroke="white" stroke-width="1.5" d="M0,-3.0v7 M-2.5,-0.5L0,-3.0L2.5,-0.5"/>
                </g>
               <g id="resetDef">
                       <use xlink:href="#rim2" fill="#404040">
                               <set attributeName="fill" to="#808080" begin="reset.mouseover" end="reset.mouseout"/>
                       </use>
               </g>
        </defs>

<script type="text/javascript">
var viewWidth = 856;
var viewHeight = 252;
var sectionId = 'dynsection-0';
</script>
<script xlink:href="svgpan.js"/>
<svg id="graph" class="graph">
<g id="viewport">
<title>src/output.c</title>
<polygon fill="white" stroke="transparent" points="-4,4 -4,-248 852.05,-248 852.05,4 -4,4"/>
<!-- Node1 -->
<g id="node1" class="node">
<title>Node1</title>
<g id="a_node1"><a xlink:title="Contains all functions used for writing flow solutions.">
<polygon fill="#bfbfbf" stroke="black" points="396,-224.5 396,-243.5 464,-243.5 464,-224.5 396,-224.5"/>
<text text-anchor="middle" x="430" y="-231.5" font-family="Helvetica,sans-Serif" font-size="10.00">src/output.c</text>
</a>
</g>
</g>
<!-- Node2 -->
<g id="node2" class="node">
<title>Node2</title>
<g id="a_node2"><a xlink:title=" ">
<polygon fill="white" stroke="#bfbfbf" points="0,-168.5 0,-187.5 46,-187.5 46,-168.5 0,-168.5"/>
<text text-anchor="middle" x="23" y="-175.5" font-family="Helvetica,sans-Serif" font-size="10.00">stdio.h</text>
</a>
</g>
</g>
<!-- Node1&#45;&gt;Node2 -->
<g id="edge1" class="edge">
<title>Node1&#45;&gt;Node2</title>
<path fill="none" stroke="midnightblue" d="M395.85,-230.68C331.3,-225.91 186.85,-213.43 56.48,-188.02"/>
<polygon fill="midnightblue" stroke="midnightblue" points="56.81,-184.52 46.32,-186.01 55.45,-191.38 56.81,-184.52"/>
</g>
<!-- Node3 -->
<g id="node3" class="node">
<title>Node3</title>
<g id="a_node3"><a xlink:title=" ">
<polygon fill="white" stroke="#bfbfbf" points="64.5,-168.5 64.5,-187.5 113.5,-187.5 113.5,-168.5 64.5,-168.5"/>
<text text-anchor="middle" x="89" y="-175.5" font-family="Helvetica,sans-Serif" font-size="10.00">string.h</text>
</a>
</g>
</g>
<!-- Node1&#45;&gt;Node3 -->
<g id="edge2" class="edge">
<title>Node1&#45;&gt;Node3</title>
<path fill="none" stroke="midnightblue" d="M395.71,-229.26C340.52,-222.96 228.44,-209.02 123.9,-187.97"/>
<polygon fill="midnightblue" stroke="midnightblue" points="124.3,-184.48 113.81,-185.91 122.9,-191.34 124.3,-184.48"/>
</g>
<!-- Node4 -->
<g id="node4" class="node">
<title>Node4</title>
<g id="a_node4"><a xlink:title=" ">
<polygon fill="white" stroke="#bfbfbf" points="132,-168.5 132,-187.5 176,-187.5 176,-168.5 132,-168.5"/>
<text text-anchor="middle" x="154" y="-175.5" font-family="Helvetica,sans-Serif" font-size="10.00">omp.h</text>
</a>
</g>
</g>
<!-- Node1&#45;&gt;Node4 -->
<g id="edge3" class="edge">
<title>Node1&#45;&gt;Node4</title>
<path fill="none" stroke="midnightblue" d="M395.69,-227.82C349.96,-220.67 266.35,-206.75 186.05,-188.06"/>
<polygon fill="midnightblue" stroke="midnightblue" points="186.82,-184.65 176.28,-185.76 185.21,-191.46 186.82,-184.65"/>
</g>
<!-- Node5 -->
<g id="node5" class="node">
<title>Node5</title>
<g id="a_node5"><a xlink:title=" ">
<polygon fill="white" stroke="#bfbfbf" points="194.5,-168.5 194.5,-187.5 241.5,-187.5 241.5,-168.5 194.5,-168.5"/>
<text text-anchor="middle" x="218" y="-175.5" font-family="Helvetica,sans-Serif" font-size="10.00">math.h</text>
</a>
</g>
</g>
<!-- Node1&#45;&gt;Node5 -->
<g id="edge4" class="edge">
<title>Node1&#45;&gt;Node5</title>
<path fill="none" stroke="midnightblue" d="M396.41,-224.44C356.67,-214.32 290.92,-197.57 251.31,-187.48"/>
<polygon fill="midnightblue" stroke="midnightblue" points="252.14,-184.09 241.59,-185.01 250.42,-190.87 252.14,-184.09"/>
</g>
<!-- Node6 -->
<g id="node6" class="node">
<title>Node6</title>
<g id="a_node6"><a xlink:href="main_8h.html" target="_top" xlink:title="Contains the global constants and definitions.">
<polygon fill="white" stroke="black" points="620,-0.5 620,-19.5 666,-19.5 666,-0.5 620,-0.5"/>
<text text-anchor="middle" x="643" y="-7.5" font-family="Helvetica,sans-Serif" font-size="10.00">main.h</text>
</a>
</g>
</g>
<!-- Node1&#45;&gt;Node6 -->
<g id="edge5" class="edge">
<title>Node1&#45;&gt;Node6</title>
<path fill="none" stroke="midnightblue" d="M464.06,-230.51C519.72,-224.41 628.91,-203.47 678,-132 697.49,-103.62 707.01,-87.45 693,-56 687.43,-43.5 676.48,-33.01 666.25,-25.32"/>
<polygon fill="midnightblue" stroke="midnightblue" points="668.16,-22.38 657.95,-19.53 664.15,-28.12 668.16,-22.38"/>
</g>
<!-- Node7 -->
<g id="node7" class="node">
<title>Node7</title>
<g id="a_node7"><a xlink:href="output_8h.html" target="_top" xlink:title="Contains outputTime_t struct definition.">
<polygon fill="white" stroke="black" points="458.5,-168.5 458.5,-187.5 509.5,-187.5 509.5,-168.5 458.5,-168.5"/>
<text text-anchor="middle" x="484" y="-175.5" font-family="Helvetica,sans-Serif" font-size="10.00">output.h</text>
</a>
</g>
</g>
<!-- Node1&#45;&gt;Node7 -->
<g id="edge6" class="edge">
<title>Node1&#45;&gt;Node7</title>
<path fill="none" stroke="midnightblue" d="M438.92,-224.08C446.78,-216.22 458.43,-204.57 467.92,-195.08"/>
<polygon fill="midnightblue" stroke="midnightblue" points="470.65,-197.3 475.25,-187.75 465.7,-192.35 470.65,-197.3"/>
</g>
<!-- Node10 -->
<g id="node10" class="node">
<title>Node10</title>
<g id="a_node10"><a xlink:href="readInTools_8h.html" target="_top" xlink:title=" ">
<polygon fill="white" stroke="black" points="150,-112.5 150,-131.5 224,-131.5 224,-112.5 150,-112.5"/>
<text text-anchor="middle" x="187" y="-119.5" font-family="Helvetica,sans-Serif" font-size="10.00">readInTools.h</text>
</a>
</g>
</g>
<!-- Node1&#45;&gt;Node10 -->
<g id="edge9" class="edge">
<title>Node1&#45;&gt;Node10</title>
<path fill="none" stroke="midnightblue" d="M395.74,-224.73C366.6,-217.08 324.02,-204.41 289,-188 258.66,-173.78 226.51,-152.04 206.6,-137.67"/>
<polygon fill="midnightblue" stroke="midnightblue" points="208.5,-134.72 198.36,-131.64 204.37,-140.37 208.5,-134.72"/>
</g>
<!-- Node11 -->
<g id="node11" class="node">
<title>Node11</title>
<g id="a_node11"><a xlink:href="timeDiscretization_8h.html" target="_top" xlink:title=" ">
<polygon fill="white" stroke="black" points="298,-168.5 298,-187.5 402,-187.5 402,-168.5 298,-168.5"/>
<text text-anchor="middle" x="350" y="-175.5" font-family="Helvetica,sans-Serif" font-size="10.00">timeDiscretization.h</text>
</a>
</g>
</g>
<!-- Node1&#45;&gt;Node11 -->
<g id="edge12" class="edge">
<title>Node1&#45;&gt;Node11</title>
<path fill="none" stroke="midnightblue" d="M417.15,-224.32C404.78,-215.98 385.87,-203.21 371.26,-193.35"/>
<polygon fill="midnightblue" stroke="midnightblue" points="373.07,-190.35 362.82,-187.65 369.15,-196.15 373.07,-190.35"/>
</g>
<!-- Node13 -->
<g id="node13" class="node">
<title>Node13</title>
<g id="a_node13"><a xlink:href="analyze_8h.html" target="_top" xlink:title="Contains the structure definitions of wing_t and recordPoint_t">
<polygon fill="white" stroke="black" points="534,-168.5 534,-187.5 592,-187.5 592,-168.5 534,-168.5"/>
<text text-anchor="middle" x="563" y="-175.5" font-family="Helvetica,sans-Serif" font-size="10.00">analyze.h</text>
</a>
</g>
</g>
<!-- Node1&#45;&gt;Node13 -->
<g id="edge15" class="edge">
<title>Node1&#45;&gt;Node13</title>
<path fill="none" stroke="midnightblue" d="M451.07,-224.44C473.06,-215.52 507.73,-201.44 532.66,-191.32"/>
<polygon fill="midnightblue" stroke="midnightblue" points="534.08,-194.52 542.02,-187.52 531.44,-188.04 534.08,-194.52"/>
</g>
<!-- Node16 -->
<g id="node16" class="node">
<title>Node16</title>
<g id="a_node16"><a xlink:href="equation_8h.html" target="_top" xlink:title=" ">
<polygon fill="white" stroke="black" points="342,-112.5 342,-131.5 404,-131.5 404,-112.5 342,-112.5"/>
<text text-anchor="middle" x="373" y="-119.5" font-family="Helvetica,sans-Serif" font-size="10.00">equation.h</text>
</a>
</g>
</g>
<!-- Node1&#45;&gt;Node16 -->
<g id="edge26" class="edge">
<title>Node1&#45;&gt;Node16</title>
<path fill="none" stroke="midnightblue" d="M428.62,-224.14C426.34,-211.2 421.01,-186.64 411,-168 405.34,-157.46 396.92,-147.15 389.44,-139.07"/>
<polygon fill="midnightblue" stroke="midnightblue" points="391.88,-136.56 382.41,-131.8 386.84,-141.42 391.88,-136.56"/>
</g>
<!-- Node17 -->
<g id="node17" class="node">
<title>Node17</title>
<g id="a_node17"><a xlink:href="exactFunction_8h.html" target="_top" xlink:title=" ">
<polygon fill="white" stroke="black" points="660,-168.5 660,-187.5 746,-187.5 746,-168.5 660,-168.5"/>
<text text-anchor="middle" x="703" y="-175.5" font-family="Helvetica,sans-Serif" font-size="10.00">exactFunction.h</text>
</a>
</g>
</g>
<!-- Node1&#45;&gt;Node17 -->
<g id="edge28" class="edge">
<title>Node1&#45;&gt;Node17</title>
<path fill="none" stroke="midnightblue" d="M464.02,-226.27C510.72,-217.03 595.11,-200.34 650.09,-189.47"/>
<polygon fill="midnightblue" stroke="midnightblue" points="650.86,-192.88 659.99,-187.51 649.5,-186.01 650.86,-192.88"/>
</g>
<!-- Node18 -->
<g id="node18" class="node">
<title>Node18</title>
<g id="a_node18"><a xlink:title=" ">
<polygon fill="white" stroke="#bfbfbf" points="777,-112.5 777,-131.5 833,-131.5 833,-112.5 777,-112.5"/>
<text text-anchor="middle" x="805" y="-119.5" font-family="Helvetica,sans-Serif" font-size="10.00">cgnslib.h</text>
</a>
</g>
</g>
<!-- Node1&#45;&gt;Node18 -->
<g id="edge29" class="edge">
<title>Node1&#45;&gt;Node18</title>
<path fill="none" stroke="midnightblue" d="M464.11,-231.84C558.49,-228.29 817.84,-216.05 843,-188 856.53,-172.92 839.75,-152.27 824.4,-138.33"/>
<polygon fill="midnightblue" stroke="midnightblue" points="826.54,-135.56 816.67,-131.71 821.99,-140.88 826.54,-135.56"/>
</g>
<!-- Node19 -->
<g id="node19" class="node">
<title>Node19</title>
<g id="a_node19"><a xlink:href="memTools_8h.html" target="_top" xlink:title=" ">
<polygon fill="white" stroke="black" points="764,-168.5 764,-187.5 834,-187.5 834,-168.5 764,-168.5"/>
<text text-anchor="middle" x="799" y="-175.5" font-family="Helvetica,sans-Serif" font-size="10.00">memTools.h</text>
</a>
</g>
</g>
<!-- Node1&#45;&gt;Node19 -->
<g id="edge30" class="edge">
<title>Node1&#45;&gt;Node19</title>
<path fill="none" stroke="midnightblue" d="M464.27,-228.99C521.91,-222.08 642.14,-207 753.88,-188.1"/>
<polygon fill="midnightblue" stroke="midnightblue" points="754.7,-191.51 763.97,-186.38 753.53,-184.61 754.7,-191.51"/>
</g>
<!-- Node8 -->
<g id="node8" class="node">
<title>Node8</title>
<g id="a_node8"><a xlink:title=" ">
<polygon fill="white" stroke="#bfbfbf" points="375,-56.5 375,-75.5 431,-75.5 431,-56.5 375,-56.5"/>
<text text-anchor="middle" x="403" y="-63.5" font-family="Helvetica,sans-Serif" font-size="10.00">stdbool.h</text>
</a>
</g>
</g>
<!-- Node7&#45;&gt;Node8 -->
<g id="edge7" class="edge">
<title>Node7&#45;&gt;Node8</title>
<path fill="none" stroke="midnightblue" d="M477.64,-168.37C464.22,-150.14 432.77,-107.43 415.28,-83.68"/>
<polygon fill="midnightblue" stroke="midnightblue" points="418.07,-81.57 409.33,-75.59 412.44,-85.72 418.07,-81.57"/>
</g>
<!-- Node9 -->
<g id="node9" class="node">
<title>Node9</title>
<g id="a_node9"><a xlink:title=" ">
<polygon fill="white" stroke="#bfbfbf" points="460,-112.5 460,-131.5 508,-131.5 508,-112.5 460,-112.5"/>
<text text-anchor="middle" x="484" y="-119.5" font-family="Helvetica,sans-Serif" font-size="10.00">stdlib.h</text>
</a>
</g>
</g>
<!-- Node7&#45;&gt;Node9 -->
<g id="edge8" class="edge">
<title>Node7&#45;&gt;Node9</title>
<path fill="none" stroke="midnightblue" d="M484,-168.08C484,-161.01 484,-150.86 484,-141.99"/>
<polygon fill="midnightblue" stroke="midnightblue" points="487.5,-141.75 484,-131.75 480.5,-141.75 487.5,-141.75"/>
</g>
<!-- Node10&#45;&gt;Node6 -->
<g id="edge11" class="edge">
<title>Node10&#45;&gt;Node6</title>
<path fill="none" stroke="midnightblue" d="M206.75,-112.44C239.32,-98.64 306.65,-71.45 366,-56 452.46,-33.49 557.17,-20.14 609.64,-14.38"/>
<polygon fill="midnightblue" stroke="midnightblue" points="610.15,-17.84 619.71,-13.29 609.4,-10.88 610.15,-17.84"/>
</g>
<!-- Node10&#45;&gt;Node8 -->
<g id="edge10" class="edge">
<title>Node10&#45;&gt;Node8</title>
<path fill="none" stroke="midnightblue" d="M221.23,-112.44C260.38,-102.66 324.3,-86.67 364.97,-76.51"/>
<polygon fill="midnightblue" stroke="midnightblue" points="365.93,-79.87 374.79,-74.05 364.23,-73.08 365.93,-79.87"/>
</g>
<!-- Node11&#45;&gt;Node8 -->
<g id="edge13" class="edge">
<title>Node11&#45;&gt;Node8</title>
<path fill="none" stroke="midnightblue" d="M343.73,-168.09C335.43,-155.08 322.94,-130.43 333,-112 340.82,-97.68 355.36,-87.24 369.18,-80.04"/>
<polygon fill="midnightblue" stroke="midnightblue" points="371.02,-83.03 378.53,-75.56 368,-76.72 371.02,-83.03"/>
</g>
<!-- Node12 -->
<g id="node12" class="node">
<title>Node12</title>
<g id="a_node12"><a xlink:title=" ">
<polygon fill="white" stroke="#bfbfbf" points="242,-112.5 242,-131.5 286,-131.5 286,-112.5 242,-112.5"/>
<text text-anchor="middle" x="264" y="-119.5" font-family="Helvetica,sans-Serif" font-size="10.00">time.h</text>
</a>
</g>
</g>
<!-- Node11&#45;&gt;Node12 -->
<g id="edge14" class="edge">
<title>Node11&#45;&gt;Node12</title>
<path fill="none" stroke="midnightblue" d="M336.18,-168.32C322.77,-159.9 302.18,-146.97 286.41,-137.07"/>
<polygon fill="midnightblue" stroke="midnightblue" points="288.11,-134.01 277.78,-131.65 284.39,-139.94 288.11,-134.01"/>
</g>
<!-- Node13&#45;&gt;Node6 -->
<g id="edge18" class="edge">
<title>Node13&#45;&gt;Node6</title>
<path fill="none" stroke="midnightblue" d="M592.21,-169.31C612.61,-162.56 639.1,-150.82 656,-132 679.33,-106.01 686.87,-89.19 676,-56 672.51,-45.34 665.43,-35.12 658.71,-27.12"/>
<polygon fill="midnightblue" stroke="midnightblue" points="661.3,-24.76 652.02,-19.66 656.1,-29.44 661.3,-24.76"/>
</g>
<!-- Node13&#45;&gt;Node8 -->
<g id="edge17" class="edge">
<title>Node13&#45;&gt;Node8</title>
<path fill="none" stroke="midnightblue" d="M558.88,-168.19C552.02,-154.41 537.01,-127.71 517,-112 494.59,-94.41 464.44,-82.91 440.78,-75.94"/>
<polygon fill="midnightblue" stroke="midnightblue" points="441.65,-72.55 431.08,-73.23 439.76,-79.29 441.65,-72.55"/>
</g>
<!-- Node13&#45;&gt;Node9 -->
<g id="edge16" class="edge">
<title>Node13&#45;&gt;Node9</title>
<path fill="none" stroke="midnightblue" d="M550.31,-168.32C538.1,-159.98 519.42,-147.21 505,-137.35"/>
<polygon fill="midnightblue" stroke="midnightblue" points="506.89,-134.41 496.66,-131.65 502.94,-140.19 506.89,-134.41"/>
</g>
<!-- Node14 -->
<g id="node14" class="node">
<title>Node14</title>
<g id="a_node14"><a xlink:href="boundary_8h.html" target="_top" xlink:title="Contains the structure definition of a boundary.">
<polygon fill="white" stroke="black" points="564.5,-112.5 564.5,-131.5 629.5,-131.5 629.5,-112.5 564.5,-112.5"/>
<text text-anchor="middle" x="597" y="-119.5" font-family="Helvetica,sans-Serif" font-size="10.00">boundary.h</text>
</a>
</g>
</g>
<!-- Node13&#45;&gt;Node14 -->
<g id="edge19" class="edge">
<title>Node13&#45;&gt;Node14</title>
<path fill="none" stroke="midnightblue" d="M568.61,-168.08C573.37,-160.53 580.32,-149.49 586.15,-140.23"/>
<polygon fill="midnightblue" stroke="midnightblue" points="589.12,-142.08 591.49,-131.75 583.2,-138.35 589.12,-142.08"/>
</g>
<!-- Node15 -->
<g id="node15" class="node">
<title>Node15</title>
<g id="a_node15"><a xlink:href="mesh_8h.html" target="_top" xlink:title="Contains the definitions of all structs for the mesh handling.">
<polygon fill="white" stroke="black" points="618.5,-56.5 618.5,-75.5 667.5,-75.5 667.5,-56.5 618.5,-56.5"/>
<text text-anchor="middle" x="643" y="-63.5" font-family="Helvetica,sans-Serif" font-size="10.00">mesh.h</text>
</a>
</g>
</g>
<!-- Node13&#45;&gt;Node15 -->
<g id="edge25" class="edge">
<title>Node13&#45;&gt;Node15</title>
<path fill="none" stroke="midnightblue" d="M589.09,-168.49C606.05,-161.51 626.98,-149.83 638,-132 646.46,-118.31 647.07,-99.78 645.93,-86"/>
<polygon fill="midnightblue" stroke="midnightblue" points="649.37,-85.27 644.7,-75.76 642.42,-86.11 649.37,-85.27"/>
</g>
<!-- Node14&#45;&gt;Node6 -->
<g id="edge21" class="edge">
<title>Node14&#45;&gt;Node6</title>
<path fill="none" stroke="midnightblue" d="M597.34,-112.21C598.12,-99.36 600.68,-74.9 609,-56 613.63,-45.49 621.15,-35.17 627.94,-27.06"/>
<polygon fill="midnightblue" stroke="midnightblue" points="630.62,-29.32 634.61,-19.51 625.37,-24.69 630.62,-29.32"/>
</g>
<!-- Node14&#45;&gt;Node8 -->
<g id="edge20" class="edge">
<title>Node14&#45;&gt;Node8</title>
<path fill="none" stroke="midnightblue" d="M566.26,-112.44C532.27,-102.98 477.5,-87.74 440.89,-77.55"/>
<polygon fill="midnightblue" stroke="midnightblue" points="441.65,-74.12 431.08,-74.82 439.77,-80.87 441.65,-74.12"/>
</g>
<!-- Node14&#45;&gt;Node15 -->
<g id="edge22" class="edge">
<title>Node14&#45;&gt;Node15</title>
<path fill="none" stroke="midnightblue" d="M599.43,-112.08C604.47,-104.22 614.04,-92.57 623.07,-83.08"/>
<polygon fill="midnightblue" stroke="midnightblue" points="625.81,-85.29 630.41,-75.75 620.86,-80.34 625.81,-85.29"/>
</g>
<!-- Node15&#45;&gt;Node6 -->
<g id="edge23" class="edge">
<title>Node15&#45;&gt;Node6</title>
<path fill="none" stroke="midnightblue" d="M643,-56.08C643,-49.01 643,-38.86 643,-29.99"/>
<polygon fill="midnightblue" stroke="midnightblue" points="646.5,-29.75 643,-19.75 639.5,-29.75 646.5,-29.75"/>
</g>
<!-- Node15&#45;&gt;Node14 -->
<g id="edge24" class="edge">
<title>Node15&#45;&gt;Node14</title>
<path fill="none" stroke="midnightblue" d="M640.62,-75.83C635.54,-83.79 625.77,-95.67 616.61,-105.25"/>
<polygon fill="midnightblue" stroke="midnightblue" points="614.13,-102.79 609.51,-112.32 619.06,-107.75 614.13,-102.79"/>
</g>
<!-- Node16&#45;&gt;Node8 -->
<g id="edge27" class="edge">
<title>Node16&#45;&gt;Node8</title>
<path fill="none" stroke="midnightblue" d="M377.95,-112.08C382.1,-104.61 388.15,-93.72 393.27,-84.52"/>
<polygon fill="midnightblue" stroke="midnightblue" points="396.34,-86.19 398.14,-75.75 390.22,-82.79 396.34,-86.19"/>
</g>
<!-- Node19&#45;&gt;Node18 -->
<g id="edge31" class="edge">
<title>Node19&#45;&gt;Node18</title>
<path fill="none" stroke="midnightblue" d="M799.99,-168.08C800.79,-160.93 801.93,-150.64 802.92,-141.69"/>
<polygon fill="midnightblue" stroke="midnightblue" points="806.4,-142.08 804.03,-131.75 799.44,-141.3 806.4,-142.08"/>
</g>
</g>
</svg>
        <g id="navigator" transform="translate(0 0)" fill="#404254">
                <rect fill="#f2f5e9" fill-opacity="0.5" stroke="#606060" stroke-width=".5" x="0" y="0" width="60" height="60"/>
                <use id="zoomplus" xlink:href="#zoomPlus" x="17" y="9" onmousedown="handleZoom(evt,'in')"/>
                <use id="zoomminus" xlink:href="#zoomMin" x="42" y="9" onmousedown="handleZoom(evt,'out')"/>
                <use id="reset" xlink:href="#resetDef" x="30" y="36" onmousedown="handleReset()"/>
                <g id="arrowUp" xlink:href="#dirArrow" transform="translate(30 24)" onmousedown="handlePan(0,-1)">
                  <use xlink:href="#rim" fill="#404040">
                        <set attributeName="fill" to="#808080" begin="arrowUp.mouseover" end="arrowUp.mouseout"/>
                  </use>
                  <path fill="none" stroke="white" stroke-width="1.5" d="M0,-3.0v7 M-2.5,-0.5L0,-3.0L2.5,-0.5"/>
                </g>
                <g id="arrowRight" xlink:href="#dirArrow" transform="rotate(90) translate(36 -43)" onmousedown="handlePan(1,0)">
                  <use xlink:href="#rim" fill="#404040">
                        <set attributeName="fill" to="#808080" begin="arrowRight.mouseover" end="arrowRight.mouseout"/>
                  </use>
                  <path fill="none" stroke="white" stroke-width="1.5" d="M0,-3.0v7 M-2.5,-0.5L0,-3.0L2.5,-0.5"/>
                </g>
                <g id="arrowDown" xlink:href="#dirArrow" transform="rotate(180) translate(-30 -48)" onmousedown="handlePan(0,1)">
                  <use xlink:href="#rim" fill="#404040">
                        <set attributeName="fill" to="#808080" begin="arrowDown.mouseover" end="arrowDown.mouseout"/>
                  </use>
                  <path fill="none" stroke="white" stroke-width="1.5" d="M0,-3.0v7 M-2.5,-0.5L0,-3.0L2.5,-0.5"/>
                </g>
                <g id="arrowLeft" xlink:href="#dirArrow" transform="rotate(270) translate(-36 17)" onmousedown="handlePan(-1,0)">
                  <use xlink:href="#rim" fill="#404040">
                        <set attributeName="fill" to="#808080" begin="arrowLeft.mouseover" end="arrowLeft.mouseout"/>
                  </use>
                  <path fill="none" stroke="white" stroke-width="1.5" d="M0,-3.0v7 M-2.5,-0.5L0,-3.0L2.5,-0.5"/>
                </g>
        </g>
        <svg viewBox="0 0 15 15" width="100%" height="30px" preserveAspectRatio="xMaxYMin meet">
         <g id="arrow_out" transform="scale(0.3 0.3)">
          <a xlink:href="output_8c__incl_org.svg" target="_base">
           <rect id="button" ry="5" rx="5" y="6" x="6" height="38" width="38"
                fill="#f2f5e9" fill-opacity="0.5" stroke="#606060" stroke-width="1.0"/>
           <path id="arrow"
             d="M 11.500037,31.436501 C 11.940474,20.09759 22.043105,11.32322 32.158766,21.979434 L 37.068811,17.246167 C 37.068811,17.246167 37.088388,32 37.088388,32 L 22.160133,31.978069 C 22.160133,31.978069 26.997745,27.140456 26.997745,27.140456 C 18.528582,18.264221 13.291696,25.230495 11.500037,31.436501 z"
             style="fill:#404040;"/>
          </a>
         </g>
        </svg>
</svg>
