<?xml version="1.0" encoding="UTF-8" standalone="no"?>
<!DOCTYPE svg PUBLIC "-//W3C//DTD SVG 1.1//EN"
 "http://www.w3.org/Graphics/SVG/1.1/DTD/svg11.dtd">
<!-- Generated by graphviz version 2.42.3 (0)
 -->
<!-- Title: src/readInTools.h Pages: 1 -->
<svg width="1061pt" height="84pt"
 viewBox="0.00 0.00 1061.00 84.00" xmlns="http://www.w3.org/2000/svg" xmlns:xlink="http://www.w3.org/1999/xlink">
<g id="graph0" class="graph" transform="scale(1 1) rotate(0) translate(4 80)">
<title>src/readInTools.h</title>
<polygon fill="white" stroke="transparent" points="-4,4 -4,-80 1057,-80 1057,4 -4,4"/>
<!-- Node1 -->
<g id="node1" class="node">
<title>Node1</title>
<g id="a_node1"><a xlink:title=" ">
<polygon fill="#bfbfbf" stroke="black" points="514.5,-56.5 514.5,-75.5 605.5,-75.5 605.5,-56.5 514.5,-56.5"/>
<text text-anchor="middle" x="560" y="-63.5" font-family="Helvetica,sans-Serif" font-size="10.00">src/readInTools.h</text>
</a>
</g>
</g>
<!-- Node2 -->
<g id="node2" class="node">
<title>Node2</title>
<g id="a_node2"><a xlink:href="analyze_8c.html" target="_top" xlink:title="Contains functions for analyzing flow results.">
<polygon fill="white" stroke="black" points="0,-0.5 0,-19.5 74,-19.5 74,-0.5 0,-0.5"/>
<text text-anchor="middle" x="37" y="-7.5" font-family="Helvetica,sans-Serif" font-size="10.00">src/analyze.c</text>
</a>
</g>
</g>
<!-- Node1&#45;&gt;Node2 -->
<g id="edge1" class="edge">
<title>Node1&#45;&gt;Node2</title>
<path fill="none" stroke="midnightblue" d="M504.28,-61.54C415.03,-55.6 234.65,-41.93 83,-20 80.1,-19.58 77.11,-19.1 74.1,-18.59"/>
<polygon fill="midnightblue" stroke="midnightblue" points="504.23,-65.05 514.44,-62.21 504.69,-58.06 504.23,-65.05"/>
</g>
<!-- Node3 -->
<g id="node3" class="node">
<title>Node3</title>
<g id="a_node3"><a xlink:href="euler_2boundary_8c.html" target="_top" xlink:title="Contains the functions for initializing and applying boundary conditions.">
<polygon fill="white" stroke="black" points="92.5,-0.5 92.5,-19.5 197.5,-19.5 197.5,-0.5 92.5,-0.5"/>
<text text-anchor="middle" x="145" y="-7.5" font-family="Helvetica,sans-Serif" font-size="10.00">src/euler/boundary.c</text>
</a>
</g>
</g>
<!-- Node1&#45;&gt;Node3 -->
<g id="edge2" class="edge">
<title>Node1&#45;&gt;Node3</title>
<path fill="none" stroke="midnightblue" d="M503.97,-58.16C434.32,-49.59 311.81,-34.29 207,-20 203.98,-19.59 200.88,-19.16 197.76,-18.72"/>
<polygon fill="midnightblue" stroke="midnightblue" points="503.92,-61.68 514.27,-59.43 504.77,-54.73 503.92,-61.68"/>
</g>
<!-- Node4 -->
<g id="node4" class="node">
<title>Node4</title>
<g id="a_node4"><a xlink:href="euler_2equation_8c.html" target="_top" xlink:title="Contains the function for initializing the physical constants.">
<polygon fill="white" stroke="black" points="216,-0.5 216,-19.5 318,-19.5 318,-0.5 216,-0.5"/>
<text text-anchor="middle" x="267" y="-7.5" font-family="Helvetica,sans-Serif" font-size="10.00">src/euler/equation.c</text>
</a>
</g>
</g>
<!-- Node1&#45;&gt;Node4 -->
<g id="edge3" class="edge">
<title>Node1&#45;&gt;Node4</title>
<path fill="none" stroke="midnightblue" d="M504.24,-54.72C448.95,-44.53 365.21,-29.1 313.43,-19.56"/>
<polygon fill="midnightblue" stroke="midnightblue" points="503.75,-58.19 514.22,-56.56 505.02,-51.31 503.75,-58.19"/>
</g>
<!-- Node5 -->
<g id="node5" class="node">
<title>Node5</title>
<g id="a_node5"><a xlink:href="finiteVolume_8c.html" target="_top" xlink:title="Finite volume time derivative functions.">
<polygon fill="white" stroke="black" points="336.5,-0.5 336.5,-19.5 431.5,-19.5 431.5,-0.5 336.5,-0.5"/>
<text text-anchor="middle" x="384" y="-7.5" font-family="Helvetica,sans-Serif" font-size="10.00">src/finiteVolume.c</text>
</a>
</g>
</g>
<!-- Node1&#45;&gt;Node5 -->
<g id="edge4" class="edge">
<title>Node1&#45;&gt;Node5</title>
<path fill="none" stroke="midnightblue" d="M522.31,-53.44C489.13,-43.26 441.57,-28.66 411.76,-19.52"/>
<polygon fill="midnightblue" stroke="midnightblue" points="521.53,-56.86 532.11,-56.44 523.58,-50.16 521.53,-56.86"/>
</g>
<!-- Node6 -->
<g id="node6" class="node">
<title>Node6</title>
<g id="a_node6"><a xlink:href="initialCondition_8c.html" target="_top" xlink:title="Functions involving the initialization and application of initial conditions.">
<polygon fill="white" stroke="black" points="449.5,-0.5 449.5,-19.5 554.5,-19.5 554.5,-0.5 449.5,-0.5"/>
<text text-anchor="middle" x="502" y="-7.5" font-family="Helvetica,sans-Serif" font-size="10.00">src/initialCondition.c</text>
</a>
</g>
</g>
<!-- Node1&#45;&gt;Node6 -->
<g id="edge5" class="edge">
<title>Node1&#45;&gt;Node6</title>
<path fill="none" stroke="midnightblue" d="M543.09,-49.25C532.8,-39.67 520.03,-27.79 511.49,-19.83"/>
<polygon fill="midnightblue" stroke="midnightblue" points="540.98,-52.07 550.68,-56.32 545.75,-46.95 540.98,-52.07"/>
</g>
<!-- Node7 -->
<g id="node7" class="node">
<title>Node7</title>
<g id="a_node7"><a xlink:href="linearSolver_8c.html" target="_top" xlink:title="Contains the functions for solving the linear system of equations during implicit calculations.">
<polygon fill="white" stroke="black" points="573,-0.5 573,-19.5 665,-19.5 665,-0.5 573,-0.5"/>
<text text-anchor="middle" x="619" y="-7.5" font-family="Helvetica,sans-Serif" font-size="10.00">src/linearSolver.c</text>
</a>
</g>
</g>
<!-- Node1&#45;&gt;Node7 -->
<g id="edge6" class="edge">
<title>Node1&#45;&gt;Node7</title>
<path fill="none" stroke="midnightblue" d="M576.89,-49.54C587.41,-39.91 600.57,-27.87 609.35,-19.83"/>
<polygon fill="midnightblue" stroke="midnightblue" points="574.49,-46.99 569.48,-56.32 579.22,-52.15 574.49,-46.99"/>
</g>
<!-- Node8 -->
<g id="node8" class="node">
<title>Node8</title>
<g id="a_node8"><a xlink:href="main_8c.html" target="_top" xlink:title="Contains the main function of ccfd">
<polygon fill="white" stroke="black" points="683,-0.5 683,-19.5 745,-19.5 745,-0.5 683,-0.5"/>
<text text-anchor="middle" x="714" y="-7.5" font-family="Helvetica,sans-Serif" font-size="10.00">src/main.c</text>
</a>
</g>
</g>
<!-- Node1&#45;&gt;Node8 -->
<g id="edge7" class="edge">
<title>Node1&#45;&gt;Node8</title>
<path fill="none" stroke="midnightblue" d="M594.11,-53.04C623.09,-42.88 663.96,-28.55 689.71,-19.52"/>
<polygon fill="midnightblue" stroke="midnightblue" points="592.68,-49.83 584.4,-56.44 595,-56.44 592.68,-49.83"/>
</g>
<!-- Node9 -->
<g id="node9" class="node">
<title>Node9</title>
<g id="a_node9"><a xlink:href="mesh_8c.html" target="_top" xlink:title="Contains all the functions for reading and creating meshes.">
<polygon fill="white" stroke="black" points="763.5,-0.5 763.5,-19.5 828.5,-19.5 828.5,-0.5 763.5,-0.5"/>
<text text-anchor="middle" x="796" y="-7.5" font-family="Helvetica,sans-Serif" font-size="10.00">src/mesh.c</text>
</a>
</g>
</g>
<!-- Node1&#45;&gt;Node9 -->
<g id="edge8" class="edge">
<title>Node1&#45;&gt;Node9</title>
<path fill="none" stroke="midnightblue" d="M607.19,-54.2C653.48,-43.61 722.83,-27.74 763.34,-18.47"/>
<polygon fill="midnightblue" stroke="midnightblue" points="606.36,-50.8 597.39,-56.44 607.92,-57.62 606.36,-50.8"/>
</g>
<!-- Node10 -->
<g id="node10" class="node">
<title>Node10</title>
<g id="a_node10"><a xlink:href="output_8c.html" target="_top" xlink:title="Contains all functions used for writing flow solutions.">
<polygon fill="white" stroke="black" points="847,-0.5 847,-19.5 915,-19.5 915,-0.5 847,-0.5"/>
<text text-anchor="middle" x="881" y="-7.5" font-family="Helvetica,sans-Serif" font-size="10.00">src/output.c</text>
</a>
</g>
</g>
<!-- Node1&#45;&gt;Node10 -->
<g id="edge9" class="edge">
<title>Node1&#45;&gt;Node10</title>
<path fill="none" stroke="midnightblue" d="M615.97,-56.71C672.2,-48.2 761.29,-34.23 838,-20 840.85,-19.47 843.8,-18.9 846.76,-18.31"/>
<polygon fill="midnightblue" stroke="midnightblue" points="615.23,-53.28 605.86,-58.24 616.27,-60.21 615.23,-53.28"/>
</g>
<!-- Node11 -->
<g id="node11" class="node">
<title>Node11</title>
<g id="a_node11"><a xlink:href="timeDiscretization_8c.html" target="_top" xlink:title="Contains the functions for performing the time stepping process.">
<polygon fill="white" stroke="black" points="933,-0.5 933,-19.5 1053,-19.5 1053,-0.5 933,-0.5"/>
<text text-anchor="middle" x="993" y="-7.5" font-family="Helvetica,sans-Serif" font-size="10.00">src/timeDiscretization.c</text>
</a>
</g>
</g>
<!-- Node1&#45;&gt;Node11 -->
<g id="edge10" class="edge">
<title>Node1&#45;&gt;Node11</title>
<path fill="none" stroke="midnightblue" d="M615.82,-58.22C687.27,-49.51 814.87,-33.86 924,-20 926.88,-19.63 929.82,-19.26 932.79,-18.88"/>
<polygon fill="midnightblue" stroke="midnightblue" points="615.2,-54.77 605.7,-59.45 616.05,-61.72 615.2,-54.77"/>
</g>
</g>
</svg>
