<?xml version="1.0" encoding="UTF-8" standalone="no"?>
<!DOCTYPE svg PUBLIC "-//W3C//DTD SVG 1.1//EN"
 "http://www.w3.org/Graphics/SVG/1.1/DTD/svg11.dtd">
<!-- Generated by graphviz version 2.42.3 (0)
 -->
<!-- Title: src/readInTools.h Pages: 1 -->
<svg width="485pt" height="84pt"
 viewBox="0.00 0.00 485.00 84.00" xmlns="http://www.w3.org/2000/svg" xmlns:xlink="http://www.w3.org/1999/xlink">
<g id="graph0" class="graph" transform="scale(1 1) rotate(0) translate(4 80)">
<title>src/readInTools.h</title>
<polygon fill="white" stroke="transparent" points="-4,4 -4,-80 481,-80 481,4 -4,4"/>
<!-- Node1 -->
<g id="node1" class="node">
<title>Node1</title>
<g id="a_node1"><a xlink:title=" ">
<polygon fill="#bfbfbf" stroke="black" points="212.5,-56.5 212.5,-75.5 303.5,-75.5 303.5,-56.5 212.5,-56.5"/>
<text text-anchor="middle" x="258" y="-63.5" font-family="Helvetica,sans-Serif" font-size="10.00">src/readInTools.h</text>
</a>
</g>
</g>
<!-- Node2 -->
<g id="node2" class="node">
<title>Node2</title>
<g id="a_node2"><a xlink:href="analyze_8c.html" target="_top" xlink:title="Contains functions for analyzing flow results.">
<polygon fill="white" stroke="black" points="0,-0.5 0,-19.5 74,-19.5 74,-0.5 0,-0.5"/>
<text text-anchor="middle" x="37" y="-7.5" font-family="Helvetica,sans-Serif" font-size="10.00">src/analyze.c</text>
</a>
</g>
</g>
<!-- Node1&#45;&gt;Node2 -->
<g id="edge1" class="edge">
<title>Node1&#45;&gt;Node2</title>
<path fill="none" stroke="midnightblue" d="M213.08,-54.02C171.33,-43.82 110.02,-28.84 71.85,-19.52"/>
<polygon fill="midnightblue" stroke="midnightblue" points="212.44,-57.47 222.98,-56.44 214.1,-50.67 212.44,-57.47"/>
</g>
<!-- Node3 -->
<g id="node3" class="node">
<title>Node3</title>
<g id="a_node3"><a xlink:href="finiteVolume_8c.html" target="_top" xlink:title="Finite volume time derivative functions.">
<polygon fill="white" stroke="black" points="92.5,-0.5 92.5,-19.5 187.5,-19.5 187.5,-0.5 92.5,-0.5"/>
<text text-anchor="middle" x="140" y="-7.5" font-family="Helvetica,sans-Serif" font-size="10.00">src/finiteVolume.c</text>
</a>
</g>
</g>
<!-- Node1&#45;&gt;Node3 -->
<g id="edge2" class="edge">
<title>Node1&#45;&gt;Node3</title>
<path fill="none" stroke="midnightblue" d="M230.1,-52.23C208.03,-42.13 177.82,-28.31 158.61,-19.52"/>
<polygon fill="midnightblue" stroke="midnightblue" points="228.75,-55.46 239.3,-56.44 231.67,-49.1 228.75,-55.46"/>
</g>
<!-- Node4 -->
<g id="node4" class="node">
<title>Node4</title>
<g id="a_node4"><a xlink:href="initialCondition_8c.html" target="_top" xlink:title="Functions involving the initialization and application of initial conditions.">
<polygon fill="white" stroke="black" points="205.5,-0.5 205.5,-19.5 310.5,-19.5 310.5,-0.5 205.5,-0.5"/>
<text text-anchor="middle" x="258" y="-7.5" font-family="Helvetica,sans-Serif" font-size="10.00">src/initialCondition.c</text>
</a>
</g>
</g>
<!-- Node1&#45;&gt;Node4 -->
<g id="edge3" class="edge">
<title>Node1&#45;&gt;Node4</title>
<path fill="none" stroke="midnightblue" d="M258,-45.8C258,-36.91 258,-26.78 258,-19.75"/>
<polygon fill="midnightblue" stroke="midnightblue" points="254.5,-46.08 258,-56.08 261.5,-46.08 254.5,-46.08"/>
</g>
<!-- Node5 -->
<g id="node5" class="node">
<title>Node5</title>
<g id="a_node5"><a xlink:href="main_8c.html" target="_top" xlink:title="Contains the main function of ccfd">
<polygon fill="white" stroke="black" points="329,-0.5 329,-19.5 391,-19.5 391,-0.5 329,-0.5"/>
<text text-anchor="middle" x="360" y="-7.5" font-family="Helvetica,sans-Serif" font-size="10.00">src/main.c</text>
</a>
</g>
</g>
<!-- Node1&#45;&gt;Node5 -->
<g id="edge4" class="edge">
<title>Node1&#45;&gt;Node5</title>
<path fill="none" stroke="midnightblue" d="M283.33,-51.59C302.19,-41.61 327.38,-28.27 343.65,-19.65"/>
<polygon fill="midnightblue" stroke="midnightblue" points="281.59,-48.55 274.39,-56.32 284.86,-54.74 281.59,-48.55"/>
</g>
<!-- Node6 -->
<g id="node6" class="node">
<title>Node6</title>
<g id="a_node6"><a xlink:href="output_8c.html" target="_top" xlink:title="Contains all functions used for writing flow solutions.">
<polygon fill="white" stroke="black" points="409,-0.5 409,-19.5 477,-19.5 477,-0.5 409,-0.5"/>
<text text-anchor="middle" x="443" y="-7.5" font-family="Helvetica,sans-Serif" font-size="10.00">src/output.c</text>
</a>
</g>
</g>
<!-- Node1&#45;&gt;Node6 -->
<g id="edge5" class="edge">
<title>Node1&#45;&gt;Node6</title>
<path fill="none" stroke="midnightblue" d="M297.17,-53.57C332.07,-43.38 382.35,-28.7 413.82,-19.52"/>
<polygon fill="midnightblue" stroke="midnightblue" points="295.93,-50.28 287.31,-56.44 297.89,-57 295.93,-50.28"/>
</g>
</g>
</svg>
