<?xml version="1.0" encoding="UTF-8" standalone="no"?>
<!DOCTYPE svg PUBLIC "-//W3C//DTD SVG 1.1//EN"
 "http://www.w3.org/Graphics/SVG/1.1/DTD/svg11.dtd">
<!-- Generated by graphviz version 2.42.3 (0)
 -->
<!-- Title: src/readInTools.h Pages: 1 -->
<svg width="679pt" height="84pt"
 viewBox="0.00 0.00 679.00 84.00" xmlns="http://www.w3.org/2000/svg" xmlns:xlink="http://www.w3.org/1999/xlink">
<g id="graph0" class="graph" transform="scale(1 1) rotate(0) translate(4 80)">
<title>src/readInTools.h</title>
<polygon fill="white" stroke="transparent" points="-4,4 -4,-80 675,-80 675,4 -4,4"/>
<!-- Node1 -->
<g id="node1" class="node">
<title>Node1</title>
<g id="a_node1"><a xlink:title=" ">
<polygon fill="#bfbfbf" stroke="black" points="329.5,-56.5 329.5,-75.5 420.5,-75.5 420.5,-56.5 329.5,-56.5"/>
<text text-anchor="middle" x="375" y="-63.5" font-family="Helvetica,sans-Serif" font-size="10.00">src/readInTools.h</text>
</a>
</g>
</g>
<!-- Node2 -->
<g id="node2" class="node">
<title>Node2</title>
<g id="a_node2"><a xlink:href="analyze_8c.html" target="_top" xlink:title="Contains functions for analyzing flow results.">
<polygon fill="white" stroke="black" points="0,-0.5 0,-19.5 74,-19.5 74,-0.5 0,-0.5"/>
<text text-anchor="middle" x="37" y="-7.5" font-family="Helvetica,sans-Serif" font-size="10.00">src/analyze.c</text>
</a>
</g>
</g>
<!-- Node1&#45;&gt;Node2 -->
<g id="edge1" class="edge">
<title>Node1&#45;&gt;Node2</title>
<path fill="none" stroke="midnightblue" d="M319.19,-57.08C260.35,-48.57 164.98,-34.33 83,-20 80.11,-19.5 77.13,-18.95 74.13,-18.4"/>
<polygon fill="midnightblue" stroke="midnightblue" points="318.99,-60.59 329.39,-58.55 319.99,-53.66 318.99,-60.59"/>
</g>
<!-- Node3 -->
<g id="node3" class="node">
<title>Node3</title>
<g id="a_node3"><a xlink:href="finiteVolume_8c.html" target="_top" xlink:title="Finite volume time derivative functions.">
<polygon fill="white" stroke="black" points="92.5,-0.5 92.5,-19.5 187.5,-19.5 187.5,-0.5 92.5,-0.5"/>
<text text-anchor="middle" x="140" y="-7.5" font-family="Helvetica,sans-Serif" font-size="10.00">src/finiteVolume.c</text>
</a>
</g>
</g>
<!-- Node1&#45;&gt;Node3 -->
<g id="edge2" class="edge">
<title>Node1&#45;&gt;Node3</title>
<path fill="none" stroke="midnightblue" d="M327.79,-54.15C283.39,-43.95 217.81,-28.88 177.06,-19.52"/>
<polygon fill="midnightblue" stroke="midnightblue" points="327.23,-57.62 337.76,-56.44 328.8,-50.79 327.23,-57.62"/>
</g>
<!-- Node4 -->
<g id="node4" class="node">
<title>Node4</title>
<g id="a_node4"><a xlink:href="initialCondition_8c.html" target="_top" xlink:title="Functions involving the initialization and application of initial conditions.">
<polygon fill="white" stroke="black" points="205.5,-0.5 205.5,-19.5 310.5,-19.5 310.5,-0.5 205.5,-0.5"/>
<text text-anchor="middle" x="258" y="-7.5" font-family="Helvetica,sans-Serif" font-size="10.00">src/initialCondition.c</text>
</a>
</g>
</g>
<!-- Node1&#45;&gt;Node4 -->
<g id="edge3" class="edge">
<title>Node1&#45;&gt;Node4</title>
<path fill="none" stroke="midnightblue" d="M347.34,-52.23C325.45,-42.13 295.5,-28.31 276.45,-19.52"/>
<polygon fill="midnightblue" stroke="midnightblue" points="345.91,-55.43 356.46,-56.44 348.85,-49.08 345.91,-55.43"/>
</g>
<!-- Node5 -->
<g id="node5" class="node">
<title>Node5</title>
<g id="a_node5"><a xlink:href="linearSolver_8c.html" target="_top" xlink:title="Contains the functions for solving the linear system of equations during implicit calculations.">
<polygon fill="white" stroke="black" points="329,-0.5 329,-19.5 421,-19.5 421,-0.5 329,-0.5"/>
<text text-anchor="middle" x="375" y="-7.5" font-family="Helvetica,sans-Serif" font-size="10.00">src/linearSolver.c</text>
</a>
</g>
</g>
<!-- Node1&#45;&gt;Node5 -->
<g id="edge4" class="edge">
<title>Node1&#45;&gt;Node5</title>
<path fill="none" stroke="midnightblue" d="M375,-45.8C375,-36.91 375,-26.78 375,-19.75"/>
<polygon fill="midnightblue" stroke="midnightblue" points="371.5,-46.08 375,-56.08 378.5,-46.08 371.5,-46.08"/>
</g>
<!-- Node6 -->
<g id="node6" class="node">
<title>Node6</title>
<g id="a_node6"><a xlink:href="main_8c.html" target="_top" xlink:title="Contains the main function of ccfd">
<polygon fill="white" stroke="black" points="439,-0.5 439,-19.5 501,-19.5 501,-0.5 439,-0.5"/>
<text text-anchor="middle" x="470" y="-7.5" font-family="Helvetica,sans-Serif" font-size="10.00">src/main.c</text>
</a>
</g>
</g>
<!-- Node1&#45;&gt;Node6 -->
<g id="edge5" class="edge">
<title>Node1&#45;&gt;Node6</title>
<path fill="none" stroke="midnightblue" d="M399.32,-51.18C416.8,-41.24 439.83,-28.15 454.77,-19.65"/>
<polygon fill="midnightblue" stroke="midnightblue" points="397.23,-48.34 390.26,-56.32 400.69,-54.43 397.23,-48.34"/>
</g>
<!-- Node7 -->
<g id="node7" class="node">
<title>Node7</title>
<g id="a_node7"><a xlink:href="mesh_8c.html" target="_top" xlink:title="Contains all the functions for reading and creating meshes.">
<polygon fill="white" stroke="black" points="519.5,-0.5 519.5,-19.5 584.5,-19.5 584.5,-0.5 519.5,-0.5"/>
<text text-anchor="middle" x="552" y="-7.5" font-family="Helvetica,sans-Serif" font-size="10.00">src/mesh.c</text>
</a>
</g>
</g>
<!-- Node1&#45;&gt;Node7 -->
<g id="edge6" class="edge">
<title>Node1&#45;&gt;Node7</title>
<path fill="none" stroke="midnightblue" d="M412.9,-53.44C446.28,-43.26 494.1,-28.66 524.09,-19.52"/>
<polygon fill="midnightblue" stroke="midnightblue" points="411.59,-50.18 403.05,-56.44 413.63,-56.87 411.59,-50.18"/>
</g>
<!-- Node8 -->
<g id="node8" class="node">
<title>Node8</title>
<g id="a_node8"><a xlink:href="output_8c.html" target="_top" xlink:title="Contains all functions used for writing flow solutions.">
<polygon fill="white" stroke="black" points="603,-0.5 603,-19.5 671,-19.5 671,-0.5 603,-0.5"/>
<text text-anchor="middle" x="637" y="-7.5" font-family="Helvetica,sans-Serif" font-size="10.00">src/output.c</text>
</a>
</g>
</g>
<!-- Node1&#45;&gt;Node8 -->
<g id="edge7" class="edge">
<title>Node1&#45;&gt;Node8</title>
<path fill="none" stroke="midnightblue" d="M426.97,-54.38C471.35,-45.29 536.88,-31.85 594,-20 596.84,-19.41 599.78,-18.8 602.73,-18.18"/>
<polygon fill="midnightblue" stroke="midnightblue" points="426.09,-50.98 416.99,-56.42 427.49,-57.84 426.09,-50.98"/>
</g>
</g>
</svg>
