<?xml version="1.0" encoding="UTF-8" standalone="no"?>
<!DOCTYPE svg PUBLIC "-//W3C//DTD SVG 1.1//EN"
 "http://www.w3.org/Graphics/SVG/1.1/DTD/svg11.dtd">
<!-- Generated by graphviz version 2.44.0 (0)
 -->
<!-- Title: src/readInTools.h Pages: 1 -->
<svg width="1013pt" height="84pt"
 viewBox="0.00 0.00 1013.00 84.00" xmlns="http://www.w3.org/2000/svg" xmlns:xlink="http://www.w3.org/1999/xlink">
<g id="graph0" class="graph" transform="scale(1 1) rotate(0) translate(4 80)">
<title>src/readInTools.h</title>
<polygon fill="white" stroke="transparent" points="-4,4 -4,-80 1009,-80 1009,4 -4,4"/>
<!-- Node1 -->
<g id="node1" class="node">
<title>Node1</title>
<g id="a_node1"><a xlink:title=" ">
<polygon fill="#bfbfbf" stroke="black" points="466.5,-56.5 466.5,-75.5 557.5,-75.5 557.5,-56.5 466.5,-56.5"/>
<text text-anchor="middle" x="512" y="-63.5" font-family="Helvetica,sans-Serif" font-size="10.00">src/readInTools.h</text>
</a>
</g>
</g>
<!-- Node2 -->
<g id="node2" class="node">
<title>Node2</title>
<g id="a_node2"><a xlink:href="analyze_8c.html" target="_top" xlink:title="Contains functions for analyzing flow results.">
<polygon fill="white" stroke="black" points="0,-0.5 0,-19.5 74,-19.5 74,-0.5 0,-0.5"/>
<text text-anchor="middle" x="37" y="-7.5" font-family="Helvetica,sans-Serif" font-size="10.00">src/analyze.c</text>
</a>
</g>
</g>
<!-- Node1&#45;&gt;Node2 -->
<g id="edge1" class="edge">
<title>Node1&#45;&gt;Node2</title>
<path fill="none" stroke="midnightblue" d="M456.33,-60.75C374.33,-54.13 216.34,-40 83,-20 80.1,-19.57 77.11,-19.08 74.11,-18.55"/>
<polygon fill="midnightblue" stroke="midnightblue" points="456.18,-64.25 466.43,-61.56 456.74,-57.27 456.18,-64.25"/>
</g>
<!-- Node3 -->
<g id="node3" class="node">
<title>Node3</title>
<g id="a_node3"><a xlink:href="boundary_8c.html" target="_top" xlink:title="Contains the functions for initializing and applying boundary conditions.">
<polygon fill="white" stroke="black" points="92.5,-0.5 92.5,-19.5 173.5,-19.5 173.5,-0.5 92.5,-0.5"/>
<text text-anchor="middle" x="133" y="-7.5" font-family="Helvetica,sans-Serif" font-size="10.00">src/boundary.c</text>
</a>
</g>
</g>
<!-- Node1&#45;&gt;Node3 -->
<g id="edge2" class="edge">
<title>Node1&#45;&gt;Node3</title>
<path fill="none" stroke="midnightblue" d="M456.3,-58.11C390.79,-49.84 278.8,-35.17 183,-20 179.95,-19.52 176.8,-19 173.63,-18.46"/>
<polygon fill="midnightblue" stroke="midnightblue" points="456.05,-61.6 466.41,-59.38 456.92,-54.66 456.05,-61.6"/>
</g>
<!-- Node4 -->
<g id="node4" class="node">
<title>Node4</title>
<g id="a_node4"><a xlink:href="equation_8c.html" target="_top" xlink:title="Contains the function for initializing the physical constants.">
<polygon fill="white" stroke="black" points="192,-0.5 192,-19.5 270,-19.5 270,-0.5 192,-0.5"/>
<text text-anchor="middle" x="231" y="-7.5" font-family="Helvetica,sans-Serif" font-size="10.00">src/equation.c</text>
</a>
</g>
</g>
<!-- Node1&#45;&gt;Node4 -->
<g id="edge3" class="edge">
<title>Node1&#45;&gt;Node4</title>
<path fill="none" stroke="midnightblue" d="M457.56,-54.54C402.63,-43.98 319.14,-27.94 270.33,-18.56"/>
<polygon fill="midnightblue" stroke="midnightblue" points="456.99,-57.99 467.47,-56.44 458.31,-51.12 456.99,-57.99"/>
</g>
<!-- Node5 -->
<g id="node5" class="node">
<title>Node5</title>
<g id="a_node5"><a xlink:href="finiteVolume_8c.html" target="_top" xlink:title="Finite volume time derivative functions.">
<polygon fill="white" stroke="black" points="288.5,-0.5 288.5,-19.5 383.5,-19.5 383.5,-0.5 288.5,-0.5"/>
<text text-anchor="middle" x="336" y="-7.5" font-family="Helvetica,sans-Serif" font-size="10.00">src/finiteVolume.c</text>
</a>
</g>
</g>
<!-- Node1&#45;&gt;Node5 -->
<g id="edge4" class="edge">
<title>Node1&#45;&gt;Node5</title>
<path fill="none" stroke="midnightblue" d="M474.31,-53.44C441.13,-43.26 393.57,-28.66 363.76,-19.52"/>
<polygon fill="midnightblue" stroke="midnightblue" points="473.53,-56.86 484.11,-56.44 475.58,-50.16 473.53,-56.86"/>
</g>
<!-- Node6 -->
<g id="node6" class="node">
<title>Node6</title>
<g id="a_node6"><a xlink:href="initialCondition_8c.html" target="_top" xlink:title="Functions involving the initialization and application of initial conditions.">
<polygon fill="white" stroke="black" points="401.5,-0.5 401.5,-19.5 506.5,-19.5 506.5,-0.5 401.5,-0.5"/>
<text text-anchor="middle" x="454" y="-7.5" font-family="Helvetica,sans-Serif" font-size="10.00">src/initialCondition.c</text>
</a>
</g>
</g>
<!-- Node1&#45;&gt;Node6 -->
<g id="edge5" class="edge">
<title>Node1&#45;&gt;Node6</title>
<path fill="none" stroke="midnightblue" d="M495.09,-49.25C484.8,-39.67 472.03,-27.79 463.49,-19.83"/>
<polygon fill="midnightblue" stroke="midnightblue" points="492.98,-52.07 502.68,-56.32 497.75,-46.95 492.98,-52.07"/>
</g>
<!-- Node7 -->
<g id="node7" class="node">
<title>Node7</title>
<g id="a_node7"><a xlink:href="linearSolver_8c.html" target="_top" xlink:title="Contains the functions for solving the linear system of equations during implicit calculations.">
<polygon fill="white" stroke="black" points="525,-0.5 525,-19.5 617,-19.5 617,-0.5 525,-0.5"/>
<text text-anchor="middle" x="571" y="-7.5" font-family="Helvetica,sans-Serif" font-size="10.00">src/linearSolver.c</text>
</a>
</g>
</g>
<!-- Node1&#45;&gt;Node7 -->
<g id="edge6" class="edge">
<title>Node1&#45;&gt;Node7</title>
<path fill="none" stroke="midnightblue" d="M528.89,-49.54C539.41,-39.91 552.57,-27.87 561.35,-19.83"/>
<polygon fill="midnightblue" stroke="midnightblue" points="526.49,-46.99 521.48,-56.32 531.22,-52.15 526.49,-46.99"/>
</g>
<!-- Node8 -->
<g id="node8" class="node">
<title>Node8</title>
<g id="a_node8"><a xlink:href="main_8c.html" target="_top" xlink:title="Contains the main function of ccfd">
<polygon fill="white" stroke="black" points="635,-0.5 635,-19.5 697,-19.5 697,-0.5 635,-0.5"/>
<text text-anchor="middle" x="666" y="-7.5" font-family="Helvetica,sans-Serif" font-size="10.00">src/main.c</text>
</a>
</g>
</g>
<!-- Node1&#45;&gt;Node8 -->
<g id="edge7" class="edge">
<title>Node1&#45;&gt;Node8</title>
<path fill="none" stroke="midnightblue" d="M546.11,-53.04C575.09,-42.88 615.96,-28.55 641.71,-19.52"/>
<polygon fill="midnightblue" stroke="midnightblue" points="544.68,-49.83 536.4,-56.44 547,-56.44 544.68,-49.83"/>
</g>
<!-- Node9 -->
<g id="node9" class="node">
<title>Node9</title>
<g id="a_node9"><a xlink:href="mesh_8c.html" target="_top" xlink:title="Contains all the functions for reading and creating meshes.">
<polygon fill="white" stroke="black" points="715.5,-0.5 715.5,-19.5 780.5,-19.5 780.5,-0.5 715.5,-0.5"/>
<text text-anchor="middle" x="748" y="-7.5" font-family="Helvetica,sans-Serif" font-size="10.00">src/mesh.c</text>
</a>
</g>
</g>
<!-- Node1&#45;&gt;Node9 -->
<g id="edge8" class="edge">
<title>Node1&#45;&gt;Node9</title>
<path fill="none" stroke="midnightblue" d="M559.19,-54.2C605.48,-43.61 674.83,-27.74 715.34,-18.47"/>
<polygon fill="midnightblue" stroke="midnightblue" points="558.36,-50.8 549.39,-56.44 559.92,-57.62 558.36,-50.8"/>
</g>
<!-- Node10 -->
<g id="node10" class="node">
<title>Node10</title>
<g id="a_node10"><a xlink:href="output_8c.html" target="_top" xlink:title="Contains all functions used for writing flow solutions.">
<polygon fill="white" stroke="black" points="799,-0.5 799,-19.5 867,-19.5 867,-0.5 799,-0.5"/>
<text text-anchor="middle" x="833" y="-7.5" font-family="Helvetica,sans-Serif" font-size="10.00">src/output.c</text>
</a>
</g>
</g>
<!-- Node1&#45;&gt;Node10 -->
<g id="edge9" class="edge">
<title>Node1&#45;&gt;Node10</title>
<path fill="none" stroke="midnightblue" d="M567.97,-56.71C624.2,-48.2 713.29,-34.23 790,-20 792.85,-19.47 795.8,-18.9 798.76,-18.31"/>
<polygon fill="midnightblue" stroke="midnightblue" points="567.23,-53.28 557.86,-58.24 568.27,-60.21 567.23,-53.28"/>
</g>
<!-- Node11 -->
<g id="node11" class="node">
<title>Node11</title>
<g id="a_node11"><a xlink:href="timeDiscretization_8c.html" target="_top" xlink:title="Contains the functions for performing the time stepping process.">
<polygon fill="white" stroke="black" points="885,-0.5 885,-19.5 1005,-19.5 1005,-0.5 885,-0.5"/>
<text text-anchor="middle" x="945" y="-7.5" font-family="Helvetica,sans-Serif" font-size="10.00">src/timeDiscretization.c</text>
</a>
</g>
</g>
<!-- Node1&#45;&gt;Node11 -->
<g id="edge10" class="edge">
<title>Node1&#45;&gt;Node11</title>
<path fill="none" stroke="midnightblue" d="M567.82,-58.22C639.27,-49.51 766.87,-33.86 876,-20 878.88,-19.63 881.82,-19.26 884.79,-18.88"/>
<polygon fill="midnightblue" stroke="midnightblue" points="567.2,-54.77 557.7,-59.45 568.05,-61.72 567.2,-54.77"/>
</g>
</g>
</svg>
