<?xml version="1.0" encoding="UTF-8" standalone="no"?>
<!DOCTYPE svg PUBLIC "-//W3C//DTD SVG 1.1//EN"
 "http://www.w3.org/Graphics/SVG/1.1/DTD/svg11.dtd">
<!-- Generated by graphviz version 2.42.3 (0)
 -->
<!-- Title: src/readInTools.h Pages: 1 -->
<svg width="1375pt" height="84pt"
 viewBox="0.00 0.00 1375.00 84.00" xmlns="http://www.w3.org/2000/svg" xmlns:xlink="http://www.w3.org/1999/xlink">
<g id="graph0" class="graph" transform="scale(1 1) rotate(0) translate(4 80)">
<title>src/readInTools.h</title>
<polygon fill="white" stroke="transparent" points="-4,4 -4,-80 1371,-80 1371,4 -4,4"/>
<!-- Node1 -->
<g id="node1" class="node">
<title>Node1</title>
<g id="a_node1"><a xlink:title=" ">
<polygon fill="#bfbfbf" stroke="black" points="620.5,-56.5 620.5,-75.5 711.5,-75.5 711.5,-56.5 620.5,-56.5"/>
<text text-anchor="middle" x="666" y="-63.5" font-family="Helvetica,sans-Serif" font-size="10.00">src/readInTools.h</text>
</a>
</g>
</g>
<!-- Node2 -->
<g id="node2" class="node">
<title>Node2</title>
<g id="a_node2"><a xlink:href="analyze_8c.html" target="_top" xlink:title="Contains functions for analyzing flow results.">
<polygon fill="white" stroke="black" points="0,-0.5 0,-19.5 74,-19.5 74,-0.5 0,-0.5"/>
<text text-anchor="middle" x="37" y="-7.5" font-family="Helvetica,sans-Serif" font-size="10.00">src/analyze.c</text>
</a>
</g>
</g>
<!-- Node1&#45;&gt;Node2 -->
<g id="edge1" class="edge">
<title>Node1&#45;&gt;Node2</title>
<path fill="none" stroke="midnightblue" d="M610.19,-62.85C506.12,-58.37 275.56,-46.18 83,-20 80.1,-19.61 77.1,-19.14 74.1,-18.64"/>
<polygon fill="midnightblue" stroke="midnightblue" points="610.31,-66.36 620.45,-63.29 610.61,-59.37 610.31,-66.36"/>
</g>
<!-- Node3 -->
<g id="node3" class="node">
<title>Node3</title>
<g id="a_node3"><a xlink:href="euler_2boundary_8c.html" target="_top" xlink:title="Contains the functions for initializing and applying boundary conditions.">
<polygon fill="white" stroke="black" points="92.5,-0.5 92.5,-19.5 197.5,-19.5 197.5,-0.5 92.5,-0.5"/>
<text text-anchor="middle" x="145" y="-7.5" font-family="Helvetica,sans-Serif" font-size="10.00">src/euler/boundary.c</text>
</a>
</g>
</g>
<!-- Node1&#45;&gt;Node3 -->
<g id="edge2" class="edge">
<title>Node1&#45;&gt;Node3</title>
<path fill="none" stroke="midnightblue" d="M610.2,-60.37C523.71,-53.01 352.12,-37.64 207,-20 203.98,-19.63 200.87,-19.24 197.74,-18.83"/>
<polygon fill="midnightblue" stroke="midnightblue" points="610.06,-63.87 620.32,-61.23 610.65,-56.9 610.06,-63.87"/>
</g>
<!-- Node4 -->
<g id="node4" class="node">
<title>Node4</title>
<g id="a_node4"><a xlink:href="euler_2equation_8c.html" target="_top" xlink:title="Contains the function for initializing the physical constants.">
<polygon fill="white" stroke="black" points="216,-0.5 216,-19.5 318,-19.5 318,-0.5 216,-0.5"/>
<text text-anchor="middle" x="267" y="-7.5" font-family="Helvetica,sans-Serif" font-size="10.00">src/euler/equation.c</text>
</a>
</g>
</g>
<!-- Node1&#45;&gt;Node4 -->
<g id="edge3" class="edge">
<title>Node1&#45;&gt;Node4</title>
<path fill="none" stroke="midnightblue" d="M610.51,-57.93C543.34,-49.3 426.81,-34.11 327,-20 324.08,-19.59 321.08,-19.16 318.05,-18.72"/>
<polygon fill="midnightblue" stroke="midnightblue" points="610.09,-61.4 620.46,-59.2 610.98,-54.46 610.09,-61.4"/>
</g>
<!-- Node5 -->
<g id="node5" class="node">
<title>Node5</title>
<g id="a_node5"><a xlink:href="finiteVolume_8c.html" target="_top" xlink:title="Finite volume time derivative functions.">
<polygon fill="white" stroke="black" points="336.5,-0.5 336.5,-19.5 431.5,-19.5 431.5,-0.5 336.5,-0.5"/>
<text text-anchor="middle" x="384" y="-7.5" font-family="Helvetica,sans-Serif" font-size="10.00">src/finiteVolume.c</text>
</a>
</g>
</g>
<!-- Node1&#45;&gt;Node5 -->
<g id="edge4" class="edge">
<title>Node1&#45;&gt;Node5</title>
<path fill="none" stroke="midnightblue" d="M611.36,-54.54C558.06,-44.33 478,-29 428.47,-19.52"/>
<polygon fill="midnightblue" stroke="midnightblue" points="610.84,-58 621.32,-56.44 612.15,-51.13 610.84,-58"/>
</g>
<!-- Node6 -->
<g id="node6" class="node">
<title>Node6</title>
<g id="a_node6"><a xlink:href="initialCondition_8c.html" target="_top" xlink:title="Functions involving the initialization and application of initial conditions.">
<polygon fill="white" stroke="black" points="449.5,-0.5 449.5,-19.5 554.5,-19.5 554.5,-0.5 449.5,-0.5"/>
<text text-anchor="middle" x="502" y="-7.5" font-family="Helvetica,sans-Serif" font-size="10.00">src/initialCondition.c</text>
</a>
</g>
</g>
<!-- Node1&#45;&gt;Node6 -->
<g id="edge5" class="edge">
<title>Node1&#45;&gt;Node6</title>
<path fill="none" stroke="midnightblue" d="M630.48,-53.3C599.58,-43.13 555.53,-28.62 527.86,-19.52"/>
<polygon fill="midnightblue" stroke="midnightblue" points="629.42,-56.64 640.01,-56.44 631.61,-49.99 629.42,-56.64"/>
</g>
<!-- Node7 -->
<g id="node7" class="node">
<title>Node7</title>
<g id="a_node7"><a xlink:href="linearSolver_8c.html" target="_top" xlink:title="Contains the functions for solving the linear system of equations during implicit calculations.">
<polygon fill="white" stroke="black" points="573,-0.5 573,-19.5 665,-19.5 665,-0.5 573,-0.5"/>
<text text-anchor="middle" x="619" y="-7.5" font-family="Helvetica,sans-Serif" font-size="10.00">src/linearSolver.c</text>
</a>
</g>
</g>
<!-- Node1&#45;&gt;Node7 -->
<g id="edge6" class="edge">
<title>Node1&#45;&gt;Node7</title>
<path fill="none" stroke="midnightblue" d="M651.58,-48.43C643.34,-38.97 633.35,-27.48 626.62,-19.75"/>
<polygon fill="midnightblue" stroke="midnightblue" points="649.03,-50.84 658.24,-56.08 654.31,-46.24 649.03,-50.84"/>
</g>
<!-- Node8 -->
<g id="node8" class="node">
<title>Node8</title>
<g id="a_node8"><a xlink:href="main_8c.html" target="_top" xlink:title="Contains the main function of ccfd">
<polygon fill="white" stroke="black" points="683,-0.5 683,-19.5 745,-19.5 745,-0.5 683,-0.5"/>
<text text-anchor="middle" x="714" y="-7.5" font-family="Helvetica,sans-Serif" font-size="10.00">src/main.c</text>
</a>
</g>
</g>
<!-- Node1&#45;&gt;Node8 -->
<g id="edge7" class="edge">
<title>Node1&#45;&gt;Node8</title>
<path fill="none" stroke="midnightblue" d="M680.73,-48.43C689.14,-38.97 699.35,-27.48 706.22,-19.75"/>
<polygon fill="midnightblue" stroke="midnightblue" points="677.95,-46.28 673.93,-56.08 683.19,-50.93 677.95,-46.28"/>
</g>
<!-- Node9 -->
<g id="node9" class="node">
<title>Node9</title>
<g id="a_node9"><a xlink:href="mesh_8c.html" target="_top" xlink:title="Contains all the functions for reading and creating meshes.">
<polygon fill="white" stroke="black" points="763.5,-0.5 763.5,-19.5 828.5,-19.5 828.5,-0.5 763.5,-0.5"/>
<text text-anchor="middle" x="796" y="-7.5" font-family="Helvetica,sans-Serif" font-size="10.00">src/mesh.c</text>
</a>
</g>
</g>
<!-- Node1&#45;&gt;Node9 -->
<g id="edge8" class="edge">
<title>Node1&#45;&gt;Node9</title>
<path fill="none" stroke="midnightblue" d="M696.09,-52.5C720.46,-42.38 754.14,-28.39 775.5,-19.52"/>
<polygon fill="midnightblue" stroke="midnightblue" points="694.49,-49.38 686.6,-56.44 697.18,-55.84 694.49,-49.38"/>
</g>
<!-- Node10 -->
<g id="node10" class="node">
<title>Node10</title>
<g id="a_node10"><a xlink:href="navierstokes_2boundary_8c.html" target="_top" xlink:title="Contains the functions for initializing and applying boundary conditions.">
<polygon fill="white" stroke="black" points="847,-0.5 847,-19.5 987,-19.5 987,-0.5 847,-0.5"/>
<text text-anchor="middle" x="917" y="-7.5" font-family="Helvetica,sans-Serif" font-size="10.00">src/navierstokes/boundary.c</text>
</a>
</g>
</g>
<!-- Node1&#45;&gt;Node10 -->
<g id="edge9" class="edge">
<title>Node1&#45;&gt;Node10</title>
<path fill="none" stroke="midnightblue" d="M715.82,-54.28C763.25,-44.08 833.7,-28.92 877.41,-19.52"/>
<polygon fill="midnightblue" stroke="midnightblue" points="714.81,-50.92 705.77,-56.44 716.28,-57.76 714.81,-50.92"/>
</g>
<!-- Node11 -->
<g id="node11" class="node">
<title>Node11</title>
<g id="a_node11"><a xlink:href="navierstokes_2equation_8c.html" target="_top" xlink:title="Contains the function for initializing the physical constants.">
<polygon fill="white" stroke="black" points="1005.5,-0.5 1005.5,-19.5 1142.5,-19.5 1142.5,-0.5 1005.5,-0.5"/>
<text text-anchor="middle" x="1074" y="-7.5" font-family="Helvetica,sans-Serif" font-size="10.00">src/navierstokes/equation.c</text>
</a>
</g>
</g>
<!-- Node1&#45;&gt;Node11 -->
<g id="edge10" class="edge">
<title>Node1&#45;&gt;Node11</title>
<path fill="none" stroke="midnightblue" d="M721.82,-57.61C796.96,-47.67 930.34,-30.01 1009.62,-19.52"/>
<polygon fill="midnightblue" stroke="midnightblue" points="721.07,-54.18 711.62,-58.96 721.99,-61.12 721.07,-54.18"/>
</g>
<!-- Node12 -->
<g id="node12" class="node">
<title>Node12</title>
<g id="a_node12"><a xlink:href="output_8c.html" target="_top" xlink:title="Contains all functions used for writing flow solutions.">
<polygon fill="white" stroke="black" points="1161,-0.5 1161,-19.5 1229,-19.5 1229,-0.5 1161,-0.5"/>
<text text-anchor="middle" x="1195" y="-7.5" font-family="Helvetica,sans-Serif" font-size="10.00">src/output.c</text>
</a>
</g>
</g>
<!-- Node1&#45;&gt;Node12 -->
<g id="edge11" class="edge">
<title>Node1&#45;&gt;Node12</title>
<path fill="none" stroke="midnightblue" d="M721.83,-61.91C812.46,-56.42 997.09,-43.31 1152,-20 1154.87,-19.57 1157.83,-19.07 1160.8,-18.53"/>
<polygon fill="midnightblue" stroke="midnightblue" points="721.55,-58.42 711.77,-62.51 721.96,-65.4 721.55,-58.42"/>
</g>
<!-- Node13 -->
<g id="node13" class="node">
<title>Node13</title>
<g id="a_node13"><a xlink:href="timeDiscretization_8c.html" target="_top" xlink:title="Contains the functions for performing the time stepping process.">
<polygon fill="white" stroke="black" points="1247,-0.5 1247,-19.5 1367,-19.5 1367,-0.5 1247,-0.5"/>
<text text-anchor="middle" x="1307" y="-7.5" font-family="Helvetica,sans-Serif" font-size="10.00">src/timeDiscretization.c</text>
</a>
</g>
</g>
<!-- Node1&#45;&gt;Node13 -->
<g id="edge12" class="edge">
<title>Node1&#45;&gt;Node13</title>
<path fill="none" stroke="midnightblue" d="M721.79,-61.56C824.21,-55.04 1049.07,-39.74 1238,-20 1240.88,-19.7 1243.83,-19.37 1246.81,-19.04"/>
<polygon fill="midnightblue" stroke="midnightblue" points="721.43,-58.08 711.67,-62.2 721.87,-65.06 721.43,-58.08"/>
</g>
</g>
</svg>
