<?xml version="1.0" encoding="UTF-8" standalone="no"?>
<!DOCTYPE svg PUBLIC "-//W3C//DTD SVG 1.1//EN"
 "http://www.w3.org/Graphics/SVG/1.1/DTD/svg11.dtd">
<!-- Generated by graphviz version 2.42.3 (0)
 -->
<!-- Title: src/reconstruction.c Pages: 1 -->
<svg width="369pt" height="140pt"
 viewBox="0.00 0.00 369.00 140.00" xmlns="http://www.w3.org/2000/svg" xmlns:xlink="http://www.w3.org/1999/xlink">
<g id="graph0" class="graph" transform="scale(1 1) rotate(0) translate(4 136)">
<title>src/reconstruction.c</title>
<polygon fill="white" stroke="transparent" points="-4,4 -4,-136 365,-136 365,4 -4,4"/>
<!-- Node1 -->
<g id="node1" class="node">
<title>Node1</title>
<g id="a_node1"><a xlink:title="Contains the reconstruction and limiter functions.">
<polygon fill="#bfbfbf" stroke="black" points="95,-112.5 95,-131.5 198,-131.5 198,-112.5 95,-112.5"/>
<text text-anchor="middle" x="146.5" y="-119.5" font-family="Helvetica,sans-Serif" font-size="10.00">src/reconstruction.c</text>
</a>
</g>
</g>
<!-- Node2 -->
<g id="node2" class="node">
<title>Node2</title>
<g id="a_node2"><a xlink:title=" ">
<polygon fill="white" stroke="#bfbfbf" points="0,-56.5 0,-75.5 47,-75.5 47,-56.5 0,-56.5"/>
<text text-anchor="middle" x="23.5" y="-63.5" font-family="Helvetica,sans-Serif" font-size="10.00">math.h</text>
</a>
</g>
</g>
<!-- Node1&#45;&gt;Node2 -->
<g id="edge1" class="edge">
<title>Node1&#45;&gt;Node2</title>
<path fill="none" stroke="midnightblue" d="M127.01,-112.44C106.86,-103.6 75.18,-89.69 52.17,-79.59"/>
<polygon fill="midnightblue" stroke="midnightblue" points="53.46,-76.33 42.9,-75.52 50.65,-82.74 53.46,-76.33"/>
</g>
<!-- Node3 -->
<g id="node3" class="node">
<title>Node3</title>
<g id="a_node3"><a xlink:href="main_8h.html" target="_top" xlink:title="Contains the global constants and definitions.">
<polygon fill="white" stroke="black" points="142.5,-0.5 142.5,-19.5 188.5,-19.5 188.5,-0.5 142.5,-0.5"/>
<text text-anchor="middle" x="165.5" y="-7.5" font-family="Helvetica,sans-Serif" font-size="10.00">main.h</text>
</a>
</g>
</g>
<!-- Node1&#45;&gt;Node3 -->
<g id="edge2" class="edge">
<title>Node1&#45;&gt;Node3</title>
<path fill="none" stroke="midnightblue" d="M130.85,-112.45C111.42,-100.65 82.24,-78.28 94.5,-56 102.81,-40.9 118.57,-30.15 133.13,-22.96"/>
<polygon fill="midnightblue" stroke="midnightblue" points="134.78,-26.05 142.44,-18.73 131.89,-19.68 134.78,-26.05"/>
</g>
<!-- Node4 -->
<g id="node4" class="node">
<title>Node4</title>
<g id="a_node4"><a xlink:href="reconstruction_8h.html" target="_top" xlink:title=" ">
<polygon fill="white" stroke="black" points="103.5,-56.5 103.5,-75.5 189.5,-75.5 189.5,-56.5 103.5,-56.5"/>
<text text-anchor="middle" x="146.5" y="-63.5" font-family="Helvetica,sans-Serif" font-size="10.00">reconstruction.h</text>
</a>
</g>
</g>
<!-- Node1&#45;&gt;Node4 -->
<g id="edge3" class="edge">
<title>Node1&#45;&gt;Node4</title>
<path fill="none" stroke="midnightblue" d="M146.5,-112.08C146.5,-105.01 146.5,-94.86 146.5,-85.99"/>
<polygon fill="midnightblue" stroke="midnightblue" points="150,-85.75 146.5,-75.75 143,-85.75 150,-85.75"/>
</g>
<!-- Node5 -->
<g id="node5" class="node">
<title>Node5</title>
<g id="a_node5"><a xlink:href="finiteVolume_8h.html" target="_top" xlink:title=" ">
<polygon fill="white" stroke="black" points="207.5,-56.5 207.5,-75.5 285.5,-75.5 285.5,-56.5 207.5,-56.5"/>
<text text-anchor="middle" x="246.5" y="-63.5" font-family="Helvetica,sans-Serif" font-size="10.00">finiteVolume.h</text>
</a>
</g>
</g>
<!-- Node1&#45;&gt;Node5 -->
<g id="edge4" class="edge">
<title>Node1&#45;&gt;Node5</title>
<path fill="none" stroke="midnightblue" d="M162.57,-112.32C178.46,-103.74 203.01,-90.49 221.46,-80.52"/>
<polygon fill="midnightblue" stroke="midnightblue" points="223.34,-83.49 230.47,-75.65 220.01,-77.33 223.34,-83.49"/>
</g>
<!-- Node6 -->
<g id="node6" class="node">
<title>Node6</title>
<g id="a_node6"><a xlink:href="mesh_8h.html" target="_top" xlink:title="Contains the definitions of all structs for the mesh handling.">
<polygon fill="white" stroke="black" points="304,-56.5 304,-75.5 353,-75.5 353,-56.5 304,-56.5"/>
<text text-anchor="middle" x="328.5" y="-63.5" font-family="Helvetica,sans-Serif" font-size="10.00">mesh.h</text>
</a>
</g>
</g>
<!-- Node1&#45;&gt;Node6 -->
<g id="edge5" class="edge">
<title>Node1&#45;&gt;Node6</title>
<path fill="none" stroke="midnightblue" d="M175.34,-112.44C207.63,-102.86 259.93,-87.34 294.27,-77.15"/>
<polygon fill="midnightblue" stroke="midnightblue" points="295.29,-80.5 303.88,-74.3 293.3,-73.79 295.29,-80.5"/>
</g>
<!-- Node6&#45;&gt;Node3 -->
<g id="edge6" class="edge">
<title>Node6&#45;&gt;Node3</title>
<path fill="none" stroke="midnightblue" d="M303.74,-56.8C275.54,-47.45 229.33,-32.14 198.18,-21.83"/>
<polygon fill="midnightblue" stroke="midnightblue" points="199.23,-18.49 188.64,-18.67 197.03,-25.13 199.23,-18.49"/>
</g>
<!-- Node7 -->
<g id="node7" class="node">
<title>Node7</title>
<g id="a_node7"><a xlink:title=" ">
<polygon fill="white" stroke="#bfbfbf" points="296,-0.5 296,-19.5 361,-19.5 361,-0.5 296,-0.5"/>
<text text-anchor="middle" x="328.5" y="-7.5" font-family="Helvetica,sans-Serif" font-size="10.00">boundary.h</text>
</a>
</g>
</g>
<!-- Node6&#45;&gt;Node7 -->
<g id="edge7" class="edge">
<title>Node6&#45;&gt;Node7</title>
<path fill="none" stroke="midnightblue" d="M328.5,-56.08C328.5,-49.01 328.5,-38.86 328.5,-29.99"/>
<polygon fill="midnightblue" stroke="midnightblue" points="332,-29.75 328.5,-19.75 325,-29.75 332,-29.75"/>
</g>
</g>
</svg>
