<?xml version="1.0" encoding="UTF-8" standalone="no"?>
<!DOCTYPE svg PUBLIC "-//W3C//DTD SVG 1.1//EN"
 "http://www.w3.org/Graphics/SVG/1.1/DTD/svg11.dtd">
<!-- Generated by graphviz version 2.42.3 (0)
 -->
<!-- Title: src/reconstruction.c Pages: 1 -->
<svg width="369pt" height="196pt"
 viewBox="0.00 0.00 369.00 196.00" xmlns="http://www.w3.org/2000/svg" xmlns:xlink="http://www.w3.org/1999/xlink">
<g id="graph0" class="graph" transform="scale(1 1) rotate(0) translate(4 192)">
<title>src/reconstruction.c</title>
<polygon fill="white" stroke="transparent" points="-4,4 -4,-192 365,-192 365,4 -4,4"/>
<!-- Node1 -->
<g id="node1" class="node">
<title>Node1</title>
<g id="a_node1"><a xlink:title="Contains the reconstruction and limiter functions.">
<polygon fill="#bfbfbf" stroke="black" points="95,-168.5 95,-187.5 198,-187.5 198,-168.5 95,-168.5"/>
<text text-anchor="middle" x="146.5" y="-175.5" font-family="Helvetica,sans-Serif" font-size="10.00">src/reconstruction.c</text>
</a>
</g>
</g>
<!-- Node2 -->
<g id="node2" class="node">
<title>Node2</title>
<g id="a_node2"><a xlink:title=" ">
<polygon fill="white" stroke="#bfbfbf" points="0,-112.5 0,-131.5 47,-131.5 47,-112.5 0,-112.5"/>
<text text-anchor="middle" x="23.5" y="-119.5" font-family="Helvetica,sans-Serif" font-size="10.00">math.h</text>
</a>
</g>
</g>
<!-- Node1&#45;&gt;Node2 -->
<g id="edge1" class="edge">
<title>Node1&#45;&gt;Node2</title>
<path fill="none" stroke="midnightblue" d="M127.01,-168.44C106.86,-159.6 75.18,-145.69 52.17,-135.59"/>
<polygon fill="midnightblue" stroke="midnightblue" points="53.46,-132.33 42.9,-131.52 50.65,-138.74 53.46,-132.33"/>
</g>
<!-- Node3 -->
<g id="node3" class="node">
<title>Node3</title>
<g id="a_node3"><a xlink:href="main_8h.html" target="_top" xlink:title="Contains the global constants and definitions.">
<polygon fill="white" stroke="black" points="238.5,-0.5 238.5,-19.5 284.5,-19.5 284.5,-0.5 238.5,-0.5"/>
<text text-anchor="middle" x="261.5" y="-7.5" font-family="Helvetica,sans-Serif" font-size="10.00">main.h</text>
</a>
</g>
</g>
<!-- Node1&#45;&gt;Node3 -->
<g id="edge2" class="edge">
<title>Node1&#45;&gt;Node3</title>
<path fill="none" stroke="midnightblue" d="M130.78,-168.42C111.27,-156.57 82.01,-134.16 94.5,-112 123.19,-61.12 188.97,-32.96 228.88,-20"/>
<polygon fill="midnightblue" stroke="midnightblue" points="229.92,-23.34 238.43,-17.03 227.84,-16.66 229.92,-23.34"/>
</g>
<!-- Node4 -->
<g id="node4" class="node">
<title>Node4</title>
<g id="a_node4"><a xlink:href="reconstruction_8h.html" target="_top" xlink:title=" ">
<polygon fill="white" stroke="black" points="103.5,-112.5 103.5,-131.5 189.5,-131.5 189.5,-112.5 103.5,-112.5"/>
<text text-anchor="middle" x="146.5" y="-119.5" font-family="Helvetica,sans-Serif" font-size="10.00">reconstruction.h</text>
</a>
</g>
</g>
<!-- Node1&#45;&gt;Node4 -->
<g id="edge3" class="edge">
<title>Node1&#45;&gt;Node4</title>
<path fill="none" stroke="midnightblue" d="M146.5,-168.08C146.5,-161.01 146.5,-150.86 146.5,-141.99"/>
<polygon fill="midnightblue" stroke="midnightblue" points="150,-141.75 146.5,-131.75 143,-141.75 150,-141.75"/>
</g>
<!-- Node5 -->
<g id="node5" class="node">
<title>Node5</title>
<g id="a_node5"><a xlink:href="finiteVolume_8h.html" target="_top" xlink:title=" ">
<polygon fill="white" stroke="black" points="207.5,-112.5 207.5,-131.5 285.5,-131.5 285.5,-112.5 207.5,-112.5"/>
<text text-anchor="middle" x="246.5" y="-119.5" font-family="Helvetica,sans-Serif" font-size="10.00">finiteVolume.h</text>
</a>
</g>
</g>
<!-- Node1&#45;&gt;Node5 -->
<g id="edge4" class="edge">
<title>Node1&#45;&gt;Node5</title>
<path fill="none" stroke="midnightblue" d="M162.57,-168.32C178.46,-159.74 203.01,-146.49 221.46,-136.52"/>
<polygon fill="midnightblue" stroke="midnightblue" points="223.34,-139.49 230.47,-131.65 220.01,-133.33 223.34,-139.49"/>
</g>
<!-- Node6 -->
<g id="node6" class="node">
<title>Node6</title>
<g id="a_node6"><a xlink:href="mesh_8h.html" target="_top" xlink:title="Contains the definitions of all structs for the mesh handling.">
<polygon fill="white" stroke="black" points="304,-112.5 304,-131.5 353,-131.5 353,-112.5 304,-112.5"/>
<text text-anchor="middle" x="328.5" y="-119.5" font-family="Helvetica,sans-Serif" font-size="10.00">mesh.h</text>
</a>
</g>
</g>
<!-- Node1&#45;&gt;Node6 -->
<g id="edge5" class="edge">
<title>Node1&#45;&gt;Node6</title>
<path fill="none" stroke="midnightblue" d="M175.34,-168.44C207.63,-158.86 259.93,-143.34 294.27,-133.15"/>
<polygon fill="midnightblue" stroke="midnightblue" points="295.29,-136.5 303.88,-130.3 293.3,-129.79 295.29,-136.5"/>
</g>
<!-- Node6&#45;&gt;Node3 -->
<g id="edge6" class="edge">
<title>Node6&#45;&gt;Node3</title>
<path fill="none" stroke="midnightblue" d="M318.97,-112.49C309.91,-103.98 296.37,-90.15 287.5,-76 278.33,-61.37 271.34,-42.97 266.92,-29.48"/>
<polygon fill="midnightblue" stroke="midnightblue" points="270.25,-28.4 263.94,-19.88 263.56,-30.47 270.25,-28.4"/>
</g>
<!-- Node7 -->
<g id="node7" class="node">
<title>Node7</title>
<g id="a_node7"><a xlink:href="boundary_8h.html" target="_top" xlink:title="Contains the structure definition of a boundary.">
<polygon fill="white" stroke="black" points="296,-56.5 296,-75.5 361,-75.5 361,-56.5 296,-56.5"/>
<text text-anchor="middle" x="328.5" y="-63.5" font-family="Helvetica,sans-Serif" font-size="10.00">boundary.h</text>
</a>
</g>
</g>
<!-- Node6&#45;&gt;Node7 -->
<g id="edge7" class="edge">
<title>Node6&#45;&gt;Node7</title>
<path fill="none" stroke="midnightblue" d="M323.33,-112.08C321.82,-104.93 321.39,-94.64 322.04,-85.69"/>
<polygon fill="midnightblue" stroke="midnightblue" points="325.52,-86.13 323.37,-75.75 318.58,-85.2 325.52,-86.13"/>
</g>
<!-- Node7&#45;&gt;Node3 -->
<g id="edge9" class="edge">
<title>Node7&#45;&gt;Node3</title>
<path fill="none" stroke="midnightblue" d="M317.74,-56.32C307.73,-48.26 292.61,-36.08 280.57,-26.37"/>
<polygon fill="midnightblue" stroke="midnightblue" points="282.44,-23.38 272.46,-19.83 278.05,-28.83 282.44,-23.38"/>
</g>
<!-- Node7&#45;&gt;Node6 -->
<g id="edge10" class="edge">
<title>Node7&#45;&gt;Node6</title>
<path fill="none" stroke="midnightblue" d="M333.63,-75.75C335.16,-82.86 335.6,-93.14 334.97,-102.1"/>
<polygon fill="midnightblue" stroke="midnightblue" points="331.49,-101.71 333.67,-112.08 338.43,-102.62 331.49,-101.71"/>
</g>
<!-- Node8 -->
<g id="node8" class="node">
<title>Node8</title>
<g id="a_node8"><a xlink:title=" ">
<polygon fill="white" stroke="#bfbfbf" points="302.5,-0.5 302.5,-19.5 358.5,-19.5 358.5,-0.5 302.5,-0.5"/>
<text text-anchor="middle" x="330.5" y="-7.5" font-family="Helvetica,sans-Serif" font-size="10.00">stdbool.h</text>
</a>
</g>
</g>
<!-- Node7&#45;&gt;Node8 -->
<g id="edge8" class="edge">
<title>Node7&#45;&gt;Node8</title>
<path fill="none" stroke="midnightblue" d="M328.83,-56.08C329.09,-49.01 329.47,-38.86 329.8,-29.99"/>
<polygon fill="midnightblue" stroke="midnightblue" points="333.3,-29.87 330.18,-19.75 326.31,-29.61 333.3,-29.87"/>
</g>
</g>
</svg>
