<?xml version="1.0" encoding="UTF-8" standalone="no"?>
<!DOCTYPE svg PUBLIC "-//W3C//DTD SVG 1.1//EN"
 "http://www.w3.org/Graphics/SVG/1.1/DTD/svg11.dtd">
<!-- Generated by graphviz version 2.42.3 (0)
 -->
<!-- Title: src/source.c Pages: 1 -->
<svg width="296pt" height="196pt"
 viewBox="0.00 0.00 295.50 196.00" xmlns="http://www.w3.org/2000/svg" xmlns:xlink="http://www.w3.org/1999/xlink">
<g id="graph0" class="graph" transform="scale(1 1) rotate(0) translate(4 192)">
<title>src/source.c</title>
<polygon fill="white" stroke="transparent" points="-4,4 -4,-192 291.5,-192 291.5,4 -4,4"/>
<!-- Node1 -->
<g id="node1" class="node">
<title>Node1</title>
<g id="a_node1"><a xlink:title="Contains the functions for initializing and evaluating the source term.">
<polygon fill="#bfbfbf" stroke="black" points="89,-168.5 89,-187.5 160,-187.5 160,-168.5 89,-168.5"/>
<text text-anchor="middle" x="124.5" y="-175.5" font-family="Helvetica,sans-Serif" font-size="10.00">src/source.c</text>
</a>
</g>
</g>
<!-- Node2 -->
<g id="node2" class="node">
<title>Node2</title>
<g id="a_node2"><a xlink:title=" ">
<polygon fill="white" stroke="#bfbfbf" points="0,-112.5 0,-131.5 47,-131.5 47,-112.5 0,-112.5"/>
<text text-anchor="middle" x="23.5" y="-119.5" font-family="Helvetica,sans-Serif" font-size="10.00">math.h</text>
</a>
</g>
</g>
<!-- Node1&#45;&gt;Node2 -->
<g id="edge1" class="edge">
<title>Node1&#45;&gt;Node2</title>
<path fill="none" stroke="midnightblue" d="M108.27,-168.32C92.15,-159.7 67.2,-146.36 48.54,-136.39"/>
<polygon fill="midnightblue" stroke="midnightblue" points="50.16,-133.28 39.69,-131.65 46.86,-139.46 50.16,-133.28"/>
</g>
<!-- Node3 -->
<g id="node3" class="node">
<title>Node3</title>
<g id="a_node3"><a xlink:href="main_8h.html" target="_top" xlink:title="Contains the global constants and definitions.">
<polygon fill="white" stroke="black" points="90.5,-0.5 90.5,-19.5 136.5,-19.5 136.5,-0.5 90.5,-0.5"/>
<text text-anchor="middle" x="113.5" y="-7.5" font-family="Helvetica,sans-Serif" font-size="10.00">main.h</text>
</a>
</g>
</g>
<!-- Node1&#45;&gt;Node3 -->
<g id="edge2" class="edge">
<title>Node1&#45;&gt;Node3</title>
<path fill="none" stroke="midnightblue" d="M123.12,-168.4C121.72,-159.36 119.61,-144.72 118.5,-132 115.35,-95.82 114.17,-53.38 113.74,-29.59"/>
<polygon fill="midnightblue" stroke="midnightblue" points="117.24,-29.47 113.59,-19.53 110.24,-29.58 117.24,-29.47"/>
</g>
<!-- Node4 -->
<g id="node4" class="node">
<title>Node4</title>
<g id="a_node4"><a xlink:href="equation_8h.html" target="_top" xlink:title=" ">
<polygon fill="white" stroke="black" points="225.5,-56.5 225.5,-75.5 287.5,-75.5 287.5,-56.5 225.5,-56.5"/>
<text text-anchor="middle" x="256.5" y="-63.5" font-family="Helvetica,sans-Serif" font-size="10.00">equation.h</text>
</a>
</g>
</g>
<!-- Node1&#45;&gt;Node4 -->
<g id="edge3" class="edge">
<title>Node1&#45;&gt;Node4</title>
<path fill="none" stroke="midnightblue" d="M136.94,-168.41C149.48,-159.61 169.24,-145.38 185.5,-132 204.92,-116.02 226.04,-96.37 240.15,-82.89"/>
<polygon fill="midnightblue" stroke="midnightblue" points="242.81,-85.19 247.58,-75.73 237.95,-80.14 242.81,-85.19"/>
</g>
<!-- Node6 -->
<g id="node6" class="node">
<title>Node6</title>
<g id="a_node6"><a xlink:href="mesh_8h.html" target="_top" xlink:title="Contains the definitions of all structs for the mesh handling.">
<polygon fill="white" stroke="black" points="127,-112.5 127,-131.5 176,-131.5 176,-112.5 127,-112.5"/>
<text text-anchor="middle" x="151.5" y="-119.5" font-family="Helvetica,sans-Serif" font-size="10.00">mesh.h</text>
</a>
</g>
</g>
<!-- Node1&#45;&gt;Node6 -->
<g id="edge5" class="edge">
<title>Node1&#45;&gt;Node6</title>
<path fill="none" stroke="midnightblue" d="M128.96,-168.08C132.65,-160.69 138.02,-149.95 142.59,-140.81"/>
<polygon fill="midnightblue" stroke="midnightblue" points="145.78,-142.26 147.12,-131.75 139.52,-139.13 145.78,-142.26"/>
</g>
<!-- Node5 -->
<g id="node5" class="node">
<title>Node5</title>
<g id="a_node5"><a xlink:title=" ">
<polygon fill="white" stroke="#bfbfbf" points="191.5,-0.5 191.5,-19.5 247.5,-19.5 247.5,-0.5 191.5,-0.5"/>
<text text-anchor="middle" x="219.5" y="-7.5" font-family="Helvetica,sans-Serif" font-size="10.00">stdbool.h</text>
</a>
</g>
</g>
<!-- Node4&#45;&gt;Node5 -->
<g id="edge4" class="edge">
<title>Node4&#45;&gt;Node5</title>
<path fill="none" stroke="midnightblue" d="M250.39,-56.08C245.22,-48.53 237.65,-37.49 231.31,-28.23"/>
<polygon fill="midnightblue" stroke="midnightblue" points="234.04,-26.02 225.5,-19.75 228.26,-29.98 234.04,-26.02"/>
</g>
<!-- Node6&#45;&gt;Node3 -->
<g id="edge6" class="edge">
<title>Node6&#45;&gt;Node3</title>
<path fill="none" stroke="midnightblue" d="M147.84,-112.45C144.04,-103.46 138.04,-88.85 133.5,-76 128.03,-60.52 122.6,-42.68 118.78,-29.61"/>
<polygon fill="midnightblue" stroke="midnightblue" points="122.12,-28.55 115.99,-19.91 115.4,-30.48 122.12,-28.55"/>
</g>
<!-- Node7 -->
<g id="node7" class="node">
<title>Node7</title>
<g id="a_node7"><a xlink:href="boundary_8h.html" target="_top" xlink:title="Contains the structure definition of a boundary.">
<polygon fill="white" stroke="black" points="142,-56.5 142,-75.5 207,-75.5 207,-56.5 142,-56.5"/>
<text text-anchor="middle" x="174.5" y="-63.5" font-family="Helvetica,sans-Serif" font-size="10.00">boundary.h</text>
</a>
</g>
</g>
<!-- Node6&#45;&gt;Node7 -->
<g id="edge7" class="edge">
<title>Node6&#45;&gt;Node7</title>
<path fill="none" stroke="midnightblue" d="M150.13,-112.08C151.74,-104.61 155.98,-93.72 160.67,-84.52"/>
<polygon fill="midnightblue" stroke="midnightblue" points="163.76,-86.18 165.64,-75.75 157.67,-82.73 163.76,-86.18"/>
</g>
<!-- Node7&#45;&gt;Node3 -->
<g id="edge9" class="edge">
<title>Node7&#45;&gt;Node3</title>
<path fill="none" stroke="midnightblue" d="M164.7,-56.32C155.68,-48.34 142.09,-36.31 131.18,-26.65"/>
<polygon fill="midnightblue" stroke="midnightblue" points="133.29,-23.84 123.48,-19.83 128.65,-29.08 133.29,-23.84"/>
</g>
<!-- Node7&#45;&gt;Node5 -->
<g id="edge8" class="edge">
<title>Node7&#45;&gt;Node5</title>
<path fill="none" stroke="midnightblue" d="M181.93,-56.08C188.35,-48.38 197.81,-37.03 205.62,-27.65"/>
<polygon fill="midnightblue" stroke="midnightblue" points="208.49,-29.67 212.21,-19.75 203.12,-25.19 208.49,-29.67"/>
</g>
<!-- Node7&#45;&gt;Node6 -->
<g id="edge10" class="edge">
<title>Node7&#45;&gt;Node6</title>
<path fill="none" stroke="midnightblue" d="M175.9,-75.75C174.34,-83.17 170.12,-94.05 165.43,-103.27"/>
<polygon fill="midnightblue" stroke="midnightblue" points="162.33,-101.65 160.46,-112.08 168.43,-105.09 162.33,-101.65"/>
</g>
</g>
</svg>
