<?xml version="1.0" encoding="UTF-8" standalone="no"?>
<!DOCTYPE svg PUBLIC "-//W3C//DTD SVG 1.1//EN"
 "http://www.w3.org/Graphics/SVG/1.1/DTD/svg11.dtd">
<!-- Generated by graphviz version 2.42.3 (0)
 -->
<!-- Title: sidePtr_t Pages: 1 -->
<svg width="243pt" height="175pt"
 viewBox="0.00 0.00 243.00 175.00" xmlns="http://www.w3.org/2000/svg" xmlns:xlink="http://www.w3.org/1999/xlink">
<g id="graph0" class="graph" transform="scale(1 1) rotate(0) translate(4 171)">
<title>sidePtr_t</title>
<polygon fill="white" stroke="transparent" points="-4,4 -4,-171 239,-171 239,4 -4,4"/>
<!-- Node1 -->
<g id="node1" class="node">
<title>Node1</title>
<g id="a_node1"><a xlink:title="Secondary side lists used for various things.">
<polygon fill="#bfbfbf" stroke="black" points="139,-0.5 139,-19.5 195,-19.5 195,-0.5 139,-0.5"/>
<text text-anchor="middle" x="167" y="-7.5" font-family="Helvetica,sans-Serif" font-size="10.00">sidePtr_t</text>
</a>
</g>
</g>
<!-- Node1&#45;&gt;Node1 -->
<g id="edge1" class="edge">
<title>Node1&#45;&gt;Node1</title>
<path fill="none" stroke="#9a32cd" stroke-dasharray="5,2" d="M205.55,-15.13C210.06,-14.19 213,-12.48 213,-10 213,-5.94 205.09,-3.94 195.3,-4"/>
<polygon fill="#9a32cd" stroke="#9a32cd" points="204.97,-11.67 195.3,-16 205.56,-18.64 204.97,-11.67"/>
<text text-anchor="middle" x="224" y="-7.5" font-family="Helvetica,sans-Serif" font-size="10.00"> next</text>
</g>
<!-- Node2 -->
<g id="node2" class="node">
<title>Node2</title>
<g id="a_node2"><a xlink:href="structside__t.html" target="_top" xlink:title="Structure for a single side in the global side list.">
<polygon fill="white" stroke="black" points="97.5,-74 97.5,-93 140.5,-93 140.5,-74 97.5,-74"/>
<text text-anchor="middle" x="119" y="-81" font-family="Helvetica,sans-Serif" font-size="10.00">side_t</text>
</a>
</g>
</g>
<!-- Node2&#45;&gt;Node1 -->
<g id="edge2" class="edge">
<title>Node2&#45;&gt;Node1</title>
<path fill="none" stroke="#9a32cd" stroke-dasharray="5,2" d="M132.65,-65.83C136.77,-60.56 141.21,-54.63 145,-49 151.55,-39.26 158.18,-27.49 162.43,-19.65"/>
<polygon fill="#9a32cd" stroke="#9a32cd" points="129.69,-63.93 126.18,-73.92 135.16,-68.3 129.69,-63.93"/>
<text text-anchor="middle" x="162" y="-41" font-family="Helvetica,sans-Serif" font-size="10.00"> side</text>
</g>
<!-- Node2&#45;&gt;Node2 -->
<g id="edge11" class="edge">
<title>Node2&#45;&gt;Node2</title>
<path fill="none" stroke="#9a32cd" stroke-dasharray="5,2" d="M150.81,-90.26C155.41,-89.18 158.5,-86.93 158.5,-83.5 158.5,-77.88 150.17,-75.41 140.53,-76.12"/>
<polygon fill="#9a32cd" stroke="#9a32cd" points="150.3,-86.78 140.53,-90.88 150.73,-93.77 150.3,-86.78"/>
<text text-anchor="middle" x="190.5" y="-92" font-family="Helvetica,sans-Serif" font-size="10.00"> nextElemSide</text>
<text text-anchor="middle" x="190.5" y="-81" font-family="Helvetica,sans-Serif" font-size="10.00">next</text>
<text text-anchor="middle" x="190.5" y="-70" font-family="Helvetica,sans-Serif" font-size="10.00">connection</text>
</g>
<!-- Node3 -->
<g id="node3" class="node">
<title>Node3</title>
<g id="a_node3"><a xlink:href="structelem__t.html" target="_top" xlink:title="Structure for a single element in the global element list.">
<polygon fill="white" stroke="black" points="33,-0.5 33,-19.5 79,-19.5 79,-0.5 33,-0.5"/>
<text text-anchor="middle" x="56" y="-7.5" font-family="Helvetica,sans-Serif" font-size="10.00">elem_t</text>
</a>
</g>
</g>
<!-- Node2&#45;&gt;Node3 -->
<g id="edge7" class="edge">
<title>Node2&#45;&gt;Node3</title>
<path fill="none" stroke="#9a32cd" stroke-dasharray="5,2" d="M87.67,-74.53C74.58,-69.49 60.66,-61.48 53,-49 47.53,-40.09 49.95,-27.7 52.61,-19.53"/>
<polygon fill="#9a32cd" stroke="#9a32cd" points="86.8,-77.93 97.39,-77.83 89.05,-71.3 86.8,-77.93"/>
<text text-anchor="middle" x="73" y="-41" font-family="Helvetica,sans-Serif" font-size="10.00"> firstSide</text>
</g>
<!-- Node3&#45;&gt;Node2 -->
<g id="edge3" class="edge">
<title>Node3&#45;&gt;Node2</title>
<path fill="none" stroke="#9a32cd" stroke-dasharray="5,2" d="M81.64,-24.87C87.15,-28.63 92.63,-33.05 97,-38 106.47,-48.72 112.91,-64.25 116.27,-73.84"/>
<polygon fill="#9a32cd" stroke="#9a32cd" points="83.42,-21.85 73.09,-19.51 79.71,-27.79 83.42,-21.85"/>
<text text-anchor="middle" x="117.5" y="-41" font-family="Helvetica,sans-Serif" font-size="10.00"> elem</text>
</g>
<!-- Node3&#45;&gt;Node3 -->
<g id="edge4" class="edge">
<title>Node3&#45;&gt;Node3</title>
<path fill="none" stroke="#9a32cd" stroke-dasharray="5,2" d="M89.41,-15.33C93.96,-14.44 97,-12.67 97,-10 97,-5.62 88.83,-3.64 79.18,-4.05"/>
<polygon fill="#9a32cd" stroke="#9a32cd" points="88.95,-11.85 79.18,-15.95 89.37,-18.84 88.95,-11.85"/>
<text text-anchor="middle" x="108" y="-7.5" font-family="Helvetica,sans-Serif" font-size="10.00"> next</text>
</g>
<!-- Node4 -->
<g id="node4" class="node">
<title>Node4</title>
<g id="a_node4"><a xlink:href="structnode__t.html" target="_top" xlink:title="Structure for a single node in a linked list of nodes.">
<polygon fill="white" stroke="black" points="0,-147.5 0,-166.5 46,-166.5 46,-147.5 0,-147.5"/>
<text text-anchor="middle" x="23" y="-154.5" font-family="Helvetica,sans-Serif" font-size="10.00">node_t</text>
</a>
</g>
</g>
<!-- Node4&#45;&gt;Node2 -->
<g id="edge8" class="edge">
<title>Node4&#45;&gt;Node2</title>
<path fill="none" stroke="#9a32cd" stroke-dasharray="5,2" d="M42.98,-141.12C62.48,-126.59 91.48,-105 107.43,-93.12"/>
<polygon fill="#9a32cd" stroke="#9a32cd" points="40.7,-138.45 34.77,-147.23 44.88,-144.07 40.7,-138.45"/>
<text text-anchor="middle" x="86.5" y="-121" font-family="Helvetica,sans-Serif" font-size="10.00"> node</text>
</g>
<!-- Node4&#45;&gt;Node3 -->
<g id="edge5" class="edge">
<title>Node4&#45;&gt;Node3</title>
<path fill="none" stroke="#9a32cd" stroke-dasharray="5,2" d="M25.68,-137.34C29.26,-113.89 36.31,-72.54 46,-38 47.73,-31.84 50.23,-25.09 52.3,-19.88"/>
<polygon fill="#9a32cd" stroke="#9a32cd" points="22.21,-136.9 24.2,-147.3 29.13,-137.92 22.21,-136.9"/>
<text text-anchor="middle" x="51.5" y="-81" font-family="Helvetica,sans-Serif" font-size="10.00"> node</text>
</g>
<!-- Node4&#45;&gt;Node4 -->
<g id="edge6" class="edge">
<title>Node4&#45;&gt;Node4</title>
<path fill="none" stroke="#9a32cd" stroke-dasharray="5,2" d="M56.41,-162.33C60.96,-161.44 64,-159.67 64,-157 64,-152.62 55.83,-150.64 46.18,-151.05"/>
<polygon fill="#9a32cd" stroke="#9a32cd" points="55.95,-158.85 46.18,-162.95 56.37,-165.84 55.95,-158.85"/>
<text text-anchor="middle" x="75" y="-154.5" font-family="Helvetica,sans-Serif" font-size="10.00"> next</text>
</g>
<!-- Node5 -->
<g id="node5" class="node">
<title>Node5</title>
<g id="a_node5"><a xlink:href="structboundary__t.html" target="_top" xlink:title=" ">
<polygon fill="white" stroke="black" points="104.5,-147.5 104.5,-166.5 169.5,-166.5 169.5,-147.5 104.5,-147.5"/>
<text text-anchor="middle" x="137" y="-154.5" font-family="Helvetica,sans-Serif" font-size="10.00">boundary_t</text>
</a>
</g>
</g>
<!-- Node5&#45;&gt;Node2 -->
<g id="edge9" class="edge">
<title>Node5&#45;&gt;Node2</title>
<path fill="none" stroke="#9a32cd" stroke-dasharray="5,2" d="M132.35,-137.51C128.77,-123.3 123.99,-104.31 121.23,-93.34"/>
<polygon fill="#9a32cd" stroke="#9a32cd" points="128.96,-138.39 134.79,-147.23 135.75,-136.68 128.96,-138.39"/>
<text text-anchor="middle" x="139" y="-121" font-family="Helvetica,sans-Serif" font-size="10.00"> BC</text>
</g>
<!-- Node5&#45;&gt;Node5 -->
<g id="edge10" class="edge">
<title>Node5&#45;&gt;Node5</title>
<path fill="none" stroke="#9a32cd" stroke-dasharray="5,2" d="M179.64,-162.07C184.41,-161.11 187.5,-159.42 187.5,-157 187.5,-153.12 179.6,-151.13 169.54,-151.01"/>
<polygon fill="#9a32cd" stroke="#9a32cd" points="179.18,-158.59 169.54,-162.99 179.82,-165.56 179.18,-158.59"/>
<text text-anchor="middle" x="198.5" y="-154.5" font-family="Helvetica,sans-Serif" font-size="10.00"> next</text>
</g>
</g>
</svg>
