<?xml version="1.0" encoding="UTF-8" standalone="no"?>
<!DOCTYPE svg PUBLIC "-//W3C//DTD SVG 1.1//EN"
 "http://www.w3.org/Graphics/SVG/1.1/DTD/svg11.dtd">
<!-- Generated by graphviz version 2.42.3 (0)
 -->
<!-- Title: wing_t Pages: 1 -->
<svg width="265pt" height="253pt"
 viewBox="0.00 0.00 265.00 253.00" xmlns="http://www.w3.org/2000/svg" xmlns:xlink="http://www.w3.org/1999/xlink">
<g id="graph0" class="graph" transform="scale(1 1) rotate(0) translate(4 249)">
<title>wing_t</title>
<polygon fill="white" stroke="transparent" points="-4,4 -4,-249 261,-249 261,4 -4,4"/>
<!-- Node1 -->
<g id="node1" class="node">
<title>Node1</title>
<g id="a_node1"><a xlink:title="Collection of all necessary values for the calculation of CL and CD.">
<polygon fill="#bfbfbf" stroke="black" points="170.5,-0.5 170.5,-19.5 215.5,-19.5 215.5,-0.5 170.5,-0.5"/>
<text text-anchor="middle" x="193" y="-7.5" font-family="Helvetica,sans-Serif" font-size="10.00">wing_t</text>
</a>
</g>
</g>
<!-- Node2 -->
<g id="node2" class="node">
<title>Node2</title>
<g id="a_node2"><a xlink:href="structsidePtr__t.html" target="_top" xlink:title=" ">
<polygon fill="white" stroke="black" points="117,-78.5 117,-97.5 173,-97.5 173,-78.5 117,-78.5"/>
<text text-anchor="middle" x="145" y="-85.5" font-family="Helvetica,sans-Serif" font-size="10.00">sidePtr_t</text>
</a>
</g>
</g>
<!-- Node2&#45;&gt;Node1 -->
<g id="edge1" class="edge">
<title>Node2&#45;&gt;Node1</title>
<path fill="none" stroke="#9a32cd" stroke-dasharray="5,2" d="M143.64,-68.1C143.81,-58.43 145.43,-46.87 151,-38 155.98,-30.07 164.23,-24.03 172.11,-19.69"/>
<polygon fill="#9a32cd" stroke="#9a32cd" points="140.15,-68.42 143.95,-78.3 147.14,-68.2 140.15,-68.42"/>
<text text-anchor="middle" x="189" y="-52" font-family="Helvetica,sans-Serif" font-size="10.00"> firstSuctionSide</text>
<text text-anchor="middle" x="189" y="-41" font-family="Helvetica,sans-Serif" font-size="10.00">firstPressureSide</text>
</g>
<!-- Node2&#45;&gt;Node2 -->
<g id="edge2" class="edge">
<title>Node2&#45;&gt;Node2</title>
<path fill="none" stroke="#9a32cd" stroke-dasharray="5,2" d="M183.55,-93.13C188.06,-92.19 191,-90.48 191,-88 191,-83.94 183.09,-81.94 173.3,-82"/>
<polygon fill="#9a32cd" stroke="#9a32cd" points="182.97,-89.67 173.3,-94 183.56,-96.64 182.97,-89.67"/>
<text text-anchor="middle" x="202" y="-85.5" font-family="Helvetica,sans-Serif" font-size="10.00"> next</text>
</g>
<!-- Node3 -->
<g id="node3" class="node">
<title>Node3</title>
<g id="a_node3"><a xlink:href="structside__t.html" target="_top" xlink:title=" ">
<polygon fill="white" stroke="black" points="61.5,-152 61.5,-171 104.5,-171 104.5,-152 61.5,-152"/>
<text text-anchor="middle" x="83" y="-159" font-family="Helvetica,sans-Serif" font-size="10.00">side_t</text>
</a>
</g>
</g>
<!-- Node3&#45;&gt;Node2 -->
<g id="edge3" class="edge">
<title>Node3&#45;&gt;Node2</title>
<path fill="none" stroke="#9a32cd" stroke-dasharray="5,2" d="M97.25,-144.07C109.72,-129.69 127.36,-109.35 137.34,-97.84"/>
<polygon fill="#9a32cd" stroke="#9a32cd" points="94.51,-141.88 90.6,-151.73 99.8,-146.47 94.51,-141.88"/>
<text text-anchor="middle" x="133" y="-119" font-family="Helvetica,sans-Serif" font-size="10.00"> side</text>
</g>
<!-- Node3&#45;&gt;Node3 -->
<g id="edge12" class="edge">
<title>Node3&#45;&gt;Node3</title>
<path fill="none" stroke="#9a32cd" stroke-dasharray="5,2" d="M114.81,-168.26C119.41,-167.18 122.5,-164.93 122.5,-161.5 122.5,-155.88 114.17,-153.41 104.53,-154.12"/>
<polygon fill="#9a32cd" stroke="#9a32cd" points="114.3,-164.78 104.53,-168.88 114.73,-171.77 114.3,-164.78"/>
<text text-anchor="middle" x="154.5" y="-170" font-family="Helvetica,sans-Serif" font-size="10.00"> nextElemSide</text>
<text text-anchor="middle" x="154.5" y="-159" font-family="Helvetica,sans-Serif" font-size="10.00">next</text>
<text text-anchor="middle" x="154.5" y="-148" font-family="Helvetica,sans-Serif" font-size="10.00">connection</text>
</g>
<!-- Node4 -->
<g id="node4" class="node">
<title>Node4</title>
<g id="a_node4"><a xlink:href="structelem__t.html" target="_top" xlink:title=" ">
<polygon fill="white" stroke="black" points="12,-78.5 12,-97.5 58,-97.5 58,-78.5 12,-78.5"/>
<text text-anchor="middle" x="35" y="-85.5" font-family="Helvetica,sans-Serif" font-size="10.00">elem_t</text>
</a>
</g>
</g>
<!-- Node3&#45;&gt;Node4 -->
<g id="edge8" class="edge">
<title>Node3&#45;&gt;Node4</title>
<path fill="none" stroke="#9a32cd" stroke-dasharray="5,2" d="M75.68,-142.6C71.86,-134.18 66.78,-124.22 61,-116 56.28,-109.29 49.91,-102.65 44.66,-97.63"/>
<polygon fill="#9a32cd" stroke="#9a32cd" points="72.5,-144.07 79.67,-151.87 78.93,-141.3 72.5,-144.07"/>
<text text-anchor="middle" x="88" y="-119" font-family="Helvetica,sans-Serif" font-size="10.00"> firstSide</text>
</g>
<!-- Node4&#45;&gt;Node3 -->
<g id="edge4" class="edge">
<title>Node4&#45;&gt;Node3</title>
<path fill="none" stroke="#9a32cd" stroke-dasharray="5,2" d="M32.2,-108.13C32.11,-114.45 32.98,-121.32 36,-127 41.93,-138.15 53.41,-146.44 63.54,-151.98"/>
<polygon fill="#9a32cd" stroke="#9a32cd" points="35.73,-107.97 33.13,-97.7 28.75,-107.36 35.73,-107.97"/>
<text text-anchor="middle" x="48.5" y="-119" font-family="Helvetica,sans-Serif" font-size="10.00"> elem</text>
</g>
<!-- Node4&#45;&gt;Node4 -->
<g id="edge5" class="edge">
<title>Node4&#45;&gt;Node4</title>
<path fill="none" stroke="#9a32cd" stroke-dasharray="5,2" d="M68.41,-93.33C72.96,-92.44 76,-90.67 76,-88 76,-83.62 67.83,-81.64 58.18,-82.05"/>
<polygon fill="#9a32cd" stroke="#9a32cd" points="67.95,-89.85 58.18,-93.95 68.37,-96.84 67.95,-89.85"/>
<text text-anchor="middle" x="87" y="-85.5" font-family="Helvetica,sans-Serif" font-size="10.00"> next</text>
</g>
<!-- Node5 -->
<g id="node5" class="node">
<title>Node5</title>
<g id="a_node5"><a xlink:href="structnode__t.html" target="_top" xlink:title=" ">
<polygon fill="white" stroke="black" points="0,-225.5 0,-244.5 46,-244.5 46,-225.5 0,-225.5"/>
<text text-anchor="middle" x="23" y="-232.5" font-family="Helvetica,sans-Serif" font-size="10.00">node_t</text>
</a>
</g>
</g>
<!-- Node5&#45;&gt;Node3 -->
<g id="edge9" class="edge">
<title>Node5&#45;&gt;Node3</title>
<path fill="none" stroke="#9a32cd" stroke-dasharray="5,2" d="M36.79,-217.57C48.86,-203.19 65.93,-182.85 75.58,-171.34"/>
<polygon fill="#9a32cd" stroke="#9a32cd" points="34.1,-215.32 30.36,-225.23 39.47,-219.82 34.1,-215.32"/>
<text text-anchor="middle" x="67.5" y="-199" font-family="Helvetica,sans-Serif" font-size="10.00"> node</text>
</g>
<!-- Node5&#45;&gt;Node4 -->
<g id="edge6" class="edge">
<title>Node5&#45;&gt;Node4</title>
<path fill="none" stroke="#9a32cd" stroke-dasharray="5,2" d="M22.88,-215.13C22.98,-191.75 23.97,-150.73 29,-116 29.88,-109.92 31.38,-103.17 32.66,-97.94"/>
<polygon fill="#9a32cd" stroke="#9a32cd" points="19.38,-215.36 22.89,-225.36 26.38,-215.36 19.38,-215.36"/>
<text text-anchor="middle" x="38.5" y="-159" font-family="Helvetica,sans-Serif" font-size="10.00"> node</text>
</g>
<!-- Node5&#45;&gt;Node5 -->
<g id="edge7" class="edge">
<title>Node5&#45;&gt;Node5</title>
<path fill="none" stroke="#9a32cd" stroke-dasharray="5,2" d="M56.41,-240.33C60.96,-239.44 64,-237.67 64,-235 64,-230.62 55.83,-228.64 46.18,-229.05"/>
<polygon fill="#9a32cd" stroke="#9a32cd" points="55.95,-236.85 46.18,-240.95 56.37,-243.84 55.95,-236.85"/>
<text text-anchor="middle" x="75" y="-232.5" font-family="Helvetica,sans-Serif" font-size="10.00"> next</text>
</g>
<!-- Node6 -->
<g id="node6" class="node">
<title>Node6</title>
<g id="a_node6"><a xlink:href="structboundary__t.html" target="_top" xlink:title=" ">
<polygon fill="white" stroke="black" points="148.5,-225.5 148.5,-244.5 213.5,-244.5 213.5,-225.5 148.5,-225.5"/>
<text text-anchor="middle" x="181" y="-232.5" font-family="Helvetica,sans-Serif" font-size="10.00">boundary_t</text>
</a>
</g>
</g>
<!-- Node6&#45;&gt;Node1 -->
<g id="edge13" class="edge">
<title>Node6&#45;&gt;Node1</title>
<path fill="none" stroke="#9a32cd" stroke-dasharray="5,2" d="M188.4,-215.58C200.41,-184.24 223.18,-118.29 227,-60 227.64,-50.24 231.25,-46.81 227,-38 223.26,-30.26 216.11,-24.06 209.33,-19.56"/>
<polygon fill="#9a32cd" stroke="#9a32cd" points="185.04,-214.56 184.65,-225.15 191.56,-217.11 185.04,-214.56"/>
<text text-anchor="middle" x="238" y="-119" font-family="Helvetica,sans-Serif" font-size="10.00"> wingBC</text>
</g>
<!-- Node6&#45;&gt;Node3 -->
<g id="edge10" class="edge">
<title>Node6&#45;&gt;Node3</title>
<path fill="none" stroke="#9a32cd" stroke-dasharray="5,2" d="M160.87,-219.31C140.96,-204.79 111.17,-183.05 94.81,-171.12"/>
<polygon fill="#9a32cd" stroke="#9a32cd" points="158.84,-222.17 168.98,-225.23 162.97,-216.51 158.84,-222.17"/>
<text text-anchor="middle" x="153" y="-199" font-family="Helvetica,sans-Serif" font-size="10.00"> BC</text>
</g>
<!-- Node6&#45;&gt;Node6 -->
<g id="edge11" class="edge">
<title>Node6&#45;&gt;Node6</title>
<path fill="none" stroke="#9a32cd" stroke-dasharray="5,2" d="M223.64,-240.07C228.41,-239.11 231.5,-237.42 231.5,-235 231.5,-231.12 223.6,-229.13 213.54,-229.01"/>
<polygon fill="#9a32cd" stroke="#9a32cd" points="223.18,-236.59 213.54,-240.99 223.82,-243.56 223.18,-236.59"/>
<text text-anchor="middle" x="242.5" y="-232.5" font-family="Helvetica,sans-Serif" font-size="10.00"> next</text>
</g>
</g>
</svg>
