<?xml version="1.0" encoding="UTF-8" standalone="no"?>
<!DOCTYPE svg PUBLIC "-//W3C//DTD SVG 1.1//EN"
 "http://www.w3.org/Graphics/SVG/1.1/DTD/svg11.dtd">
<!-- Generated by graphviz version 2.44.0 (0)
 -->
<!-- Title: side_t Pages: 1 -->
<svg width="218pt" height="175pt"
 viewBox="0.00 0.00 217.50 175.00" xmlns="http://www.w3.org/2000/svg" xmlns:xlink="http://www.w3.org/1999/xlink">
<g id="graph0" class="graph" transform="scale(1 1) rotate(0) translate(4 171)">
<title>side_t</title>
<polygon fill="white" stroke="transparent" points="-4,4 -4,-171 213.5,-171 213.5,4 -4,4"/>
<!-- Node1 -->
<g id="node1" class="node">
<title>Node1</title>
<g id="a_node1"><a xlink:title="Structure for a single side in the global side list.">
<polygon fill="#bfbfbf" stroke="black" points="74.5,-74 74.5,-93 117.5,-93 117.5,-74 74.5,-74"/>
<text text-anchor="middle" x="96" y="-81" font-family="Helvetica,sans-Serif" font-size="10.00">side_t</text>
</a>
</g>
</g>
<!-- Node1&#45;&gt;Node1 -->
<g id="edge9" class="edge">
<title>Node1&#45;&gt;Node1</title>
<path fill="none" stroke="#9a32cd" stroke-dasharray="5,2" d="M127.81,-90.26C132.41,-89.18 135.5,-86.93 135.5,-83.5 135.5,-77.88 127.17,-75.41 117.53,-76.12"/>
<polygon fill="#9a32cd" stroke="#9a32cd" points="127.3,-86.78 117.53,-90.88 127.73,-93.77 127.3,-86.78"/>
<text text-anchor="middle" x="167.5" y="-92" font-family="Helvetica,sans-Serif" font-size="10.00"> nextElemSide</text>
<text text-anchor="middle" x="167.5" y="-81" font-family="Helvetica,sans-Serif" font-size="10.00">next</text>
<text text-anchor="middle" x="167.5" y="-70" font-family="Helvetica,sans-Serif" font-size="10.00">connection</text>
</g>
<!-- Node2 -->
<g id="node2" class="node">
<title>Node2</title>
<g id="a_node2"><a xlink:href="structelem__t.html" target="_top" xlink:title="Structure for a single element in the global element list.">
<polygon fill="white" stroke="black" points="33,-0.5 33,-19.5 79,-19.5 79,-0.5 33,-0.5"/>
<text text-anchor="middle" x="56" y="-7.5" font-family="Helvetica,sans-Serif" font-size="10.00">elem_t</text>
</a>
</g>
</g>
<!-- Node1&#45;&gt;Node2 -->
<g id="edge5" class="edge">
<title>Node1&#45;&gt;Node2</title>
<path fill="none" stroke="#9a32cd" stroke-dasharray="5,2" d="M92.21,-63.95C90.01,-55.64 86.71,-45.94 82,-38 77.88,-31.06 71.65,-24.51 66.32,-19.6"/>
<polygon fill="#9a32cd" stroke="#9a32cd" points="88.83,-64.87 94.5,-73.81 95.65,-63.28 88.83,-64.87"/>
<text text-anchor="middle" x="108" y="-41" font-family="Helvetica,sans-Serif" font-size="10.00"> firstSide</text>
</g>
<!-- Node2&#45;&gt;Node1 -->
<g id="edge1" class="edge">
<title>Node2&#45;&gt;Node1</title>
<path fill="none" stroke="#9a32cd" stroke-dasharray="5,2" d="M53.5,-29.98C53.43,-36.29 54.24,-43.19 57,-49 61.98,-59.48 71.96,-67.95 80.58,-73.76"/>
<polygon fill="#9a32cd" stroke="#9a32cd" points="57.02,-29.85 54.32,-19.61 50.04,-29.3 57.02,-29.85"/>
<text text-anchor="middle" x="69.5" y="-41" font-family="Helvetica,sans-Serif" font-size="10.00"> elem</text>
</g>
<!-- Node2&#45;&gt;Node2 -->
<g id="edge2" class="edge">
<title>Node2&#45;&gt;Node2</title>
<path fill="none" stroke="#9a32cd" stroke-dasharray="5,2" d="M89.41,-15.33C93.96,-14.44 97,-12.67 97,-10 97,-5.62 88.83,-3.64 79.18,-4.05"/>
<polygon fill="#9a32cd" stroke="#9a32cd" points="88.95,-11.85 79.18,-15.95 89.37,-18.84 88.95,-11.85"/>
<text text-anchor="middle" x="108" y="-7.5" font-family="Helvetica,sans-Serif" font-size="10.00"> next</text>
</g>
<!-- Node3 -->
<g id="node3" class="node">
<title>Node3</title>
<g id="a_node3"><a xlink:href="structnode__t.html" target="_top" xlink:title="Structure for a single node in a linked list of nodes.">
<polygon fill="white" stroke="black" points="0,-147.5 0,-166.5 46,-166.5 46,-147.5 0,-147.5"/>
<text text-anchor="middle" x="23" y="-154.5" font-family="Helvetica,sans-Serif" font-size="10.00">node_t</text>
</a>
</g>
</g>
<!-- Node3&#45;&gt;Node1 -->
<g id="edge6" class="edge">
<title>Node3&#45;&gt;Node1</title>
<path fill="none" stroke="#9a32cd" stroke-dasharray="5,2" d="M39.37,-139.97C54.07,-125.57 75.12,-104.95 86.98,-93.34"/>
<polygon fill="#9a32cd" stroke="#9a32cd" points="36.65,-137.73 31.95,-147.23 41.54,-142.74 36.65,-137.73"/>
<text text-anchor="middle" x="74.5" y="-121" font-family="Helvetica,sans-Serif" font-size="10.00"> node</text>
</g>
<!-- Node3&#45;&gt;Node2 -->
<g id="edge3" class="edge">
<title>Node3&#45;&gt;Node2</title>
<path fill="none" stroke="#9a32cd" stroke-dasharray="5,2" d="M26.07,-137.29C29.16,-119.21 34.27,-91.09 40,-67 44.02,-50.08 49.86,-30.62 53.26,-19.67"/>
<polygon fill="#9a32cd" stroke="#9a32cd" points="22.59,-136.91 24.39,-147.35 29.49,-138.07 22.59,-136.91"/>
<text text-anchor="middle" x="52.5" y="-81" font-family="Helvetica,sans-Serif" font-size="10.00"> node</text>
</g>
<!-- Node3&#45;&gt;Node3 -->
<g id="edge4" class="edge">
<title>Node3&#45;&gt;Node3</title>
<path fill="none" stroke="#9a32cd" stroke-dasharray="5,2" d="M56.41,-162.33C60.96,-161.44 64,-159.67 64,-157 64,-152.62 55.83,-150.64 46.18,-151.05"/>
<polygon fill="#9a32cd" stroke="#9a32cd" points="55.95,-158.85 46.18,-162.95 56.37,-165.84 55.95,-158.85"/>
<text text-anchor="middle" x="75" y="-154.5" font-family="Helvetica,sans-Serif" font-size="10.00"> next</text>
</g>
<!-- Node4 -->
<g id="node4" class="node">
<title>Node4</title>
<g id="a_node4"><a xlink:href="structboundary__t.html" target="_top" xlink:title="Structure that holds the information of a boundary condition.">
<polygon fill="white" stroke="black" points="104.5,-147.5 104.5,-166.5 169.5,-166.5 169.5,-147.5 104.5,-147.5"/>
<text text-anchor="middle" x="137" y="-154.5" font-family="Helvetica,sans-Serif" font-size="10.00">boundary_t</text>
</a>
</g>
</g>
<!-- Node4&#45;&gt;Node1 -->
<g id="edge7" class="edge">
<title>Node4&#45;&gt;Node1</title>
<path fill="none" stroke="#9a32cd" stroke-dasharray="5,2" d="M126.88,-138.34C118.68,-124.05 107.48,-104.52 101.07,-93.34"/>
<polygon fill="#9a32cd" stroke="#9a32cd" points="123.96,-140.3 131.97,-147.23 130.03,-136.82 123.96,-140.3"/>
<text text-anchor="middle" x="130" y="-121" font-family="Helvetica,sans-Serif" font-size="10.00"> BC</text>
</g>
<!-- Node4&#45;&gt;Node4 -->
<g id="edge8" class="edge">
<title>Node4&#45;&gt;Node4</title>
<path fill="none" stroke="#9a32cd" stroke-dasharray="5,2" d="M179.64,-162.07C184.41,-161.11 187.5,-159.42 187.5,-157 187.5,-153.12 179.6,-151.13 169.54,-151.01"/>
<polygon fill="#9a32cd" stroke="#9a32cd" points="179.18,-158.59 169.54,-162.99 179.82,-165.56 179.18,-158.59"/>
<text text-anchor="middle" x="198.5" y="-154.5" font-family="Helvetica,sans-Serif" font-size="10.00"> next</text>
</g>
</g>
</svg>
