<?xml version="1.0" encoding="UTF-8" standalone="no"?>
<!DOCTYPE svg PUBLIC "-//W3C//DTD SVG 1.1//EN"
 "http://www.w3.org/Graphics/SVG/1.1/DTD/svg11.dtd">
<!-- Generated by graphviz version 2.42.3 (0)
 -->
<!-- Title: elem_t Pages: 1 -->
<svg width="279pt" height="175pt"
 viewBox="0.00 0.00 278.50 175.00" xmlns="http://www.w3.org/2000/svg" xmlns:xlink="http://www.w3.org/1999/xlink">
<g id="graph0" class="graph" transform="scale(1 1) rotate(0) translate(4 171)">
<title>elem_t</title>
<polygon fill="white" stroke="transparent" points="-4,4 -4,-171 274.5,-171 274.5,4 -4,4"/>
<!-- Node1 -->
<g id="node1" class="node">
<title>Node1</title>
<g id="a_node1"><a xlink:title=" ">
<polygon fill="#bfbfbf" stroke="black" points="0,-80.5 0,-99.5 46,-99.5 46,-80.5 0,-80.5"/>
<text text-anchor="middle" x="23" y="-87.5" font-family="Helvetica,sans-Serif" font-size="10.00">elem_t</text>
</a>
</g>
</g>
<!-- Node1&#45;&gt;Node1 -->
<g id="edge1" class="edge">
<title>Node1&#45;&gt;Node1</title>
<path fill="none" stroke="#9a32cd" stroke-dasharray="5,2" d="M56.41,-95.33C60.96,-94.44 64,-92.67 64,-90 64,-85.62 55.83,-83.64 46.18,-84.05"/>
<polygon fill="#9a32cd" stroke="#9a32cd" points="55.95,-91.85 46.18,-95.95 56.37,-98.84 55.95,-91.85"/>
<text text-anchor="middle" x="75" y="-87.5" font-family="Helvetica,sans-Serif" font-size="10.00"> next</text>
</g>
<!-- Node3 -->
<g id="node3" class="node">
<title>Node3</title>
<g id="a_node3"><a xlink:href="structside__t.html" target="_top" xlink:title="Structure for a single side in the global side list.">
<polygon fill="white" stroke="black" points="72.5,-7 72.5,-26 115.5,-26 115.5,-7 72.5,-7"/>
<text text-anchor="middle" x="94" y="-14" font-family="Helvetica,sans-Serif" font-size="10.00">side_t</text>
</a>
</g>
</g>
<!-- Node1&#45;&gt;Node3 -->
<g id="edge5" class="edge">
<title>Node1&#45;&gt;Node3</title>
<path fill="none" stroke="#9a32cd" stroke-dasharray="5,2" d="M17.73,-70.3C16.95,-63.75 17.39,-56.63 21,-51 32.22,-33.51 55.11,-25.03 72.28,-21"/>
<polygon fill="#9a32cd" stroke="#9a32cd" points="14.38,-71.36 19.87,-80.42 21.23,-69.91 14.38,-71.36"/>
<text text-anchor="middle" x="33.5" y="-54" font-family="Helvetica,sans-Serif" font-size="10.00"> elem</text>
</g>
<!-- Node2 -->
<g id="node2" class="node">
<title>Node2</title>
<g id="a_node2"><a xlink:href="structnode__t.html" target="_top" xlink:title="Structure for a single node in a linked list of nodes.">
<polygon fill="white" stroke="black" points="50,-147.5 50,-166.5 96,-166.5 96,-147.5 50,-147.5"/>
<text text-anchor="middle" x="73" y="-154.5" font-family="Helvetica,sans-Serif" font-size="10.00">node_t</text>
</a>
</g>
</g>
<!-- Node2&#45;&gt;Node1 -->
<g id="edge2" class="edge">
<title>Node2&#45;&gt;Node1</title>
<path fill="none" stroke="#9a32cd" stroke-dasharray="5,2" d="M60.13,-139.27C50.38,-126.6 37.39,-109.7 29.64,-99.63"/>
<polygon fill="#9a32cd" stroke="#9a32cd" points="57.39,-141.44 66.26,-147.23 62.93,-137.17 57.39,-141.44"/>
<text text-anchor="middle" x="62.5" y="-121" font-family="Helvetica,sans-Serif" font-size="10.00"> node</text>
</g>
<!-- Node2&#45;&gt;Node2 -->
<g id="edge3" class="edge">
<title>Node2&#45;&gt;Node2</title>
<path fill="none" stroke="#9a32cd" stroke-dasharray="5,2" d="M106.41,-162.33C110.96,-161.44 114,-159.67 114,-157 114,-152.62 105.83,-150.64 96.18,-151.05"/>
<polygon fill="#9a32cd" stroke="#9a32cd" points="105.95,-158.85 96.18,-162.95 106.37,-165.84 105.95,-158.85"/>
<text text-anchor="middle" x="125" y="-154.5" font-family="Helvetica,sans-Serif" font-size="10.00"> next</text>
</g>
<!-- Node2&#45;&gt;Node3 -->
<g id="edge6" class="edge">
<title>Node2&#45;&gt;Node3</title>
<path fill="none" stroke="#9a32cd" stroke-dasharray="5,2" d="M81.28,-138.21C89.32,-119.67 100.79,-89.52 104,-62 105.47,-49.42 101.2,-35.18 97.78,-26.27"/>
<polygon fill="#9a32cd" stroke="#9a32cd" points="78.03,-136.9 77.13,-147.46 84.41,-139.77 78.03,-136.9"/>
<text text-anchor="middle" x="112.5" y="-87.5" font-family="Helvetica,sans-Serif" font-size="10.00"> node</text>
</g>
<!-- Node3&#45;&gt;Node1 -->
<g id="edge4" class="edge">
<title>Node3&#45;&gt;Node1</title>
<path fill="none" stroke="#9a32cd" stroke-dasharray="5,2" d="M77.99,-33.62C63.67,-48.05 43.2,-68.65 31.71,-80.23"/>
<polygon fill="#9a32cd" stroke="#9a32cd" points="80.66,-35.9 85.22,-26.34 75.69,-30.97 80.66,-35.9"/>
<text text-anchor="middle" x="80" y="-54" font-family="Helvetica,sans-Serif" font-size="10.00"> firstSide</text>
</g>
<!-- Node3&#45;&gt;Node3 -->
<g id="edge9" class="edge">
<title>Node3&#45;&gt;Node3</title>
<path fill="none" stroke="#9a32cd" stroke-dasharray="5,2" d="M125.81,-23.26C130.41,-22.18 133.5,-19.93 133.5,-16.5 133.5,-10.88 125.17,-8.41 115.53,-9.12"/>
<polygon fill="#9a32cd" stroke="#9a32cd" points="125.3,-19.78 115.53,-23.88 125.73,-26.77 125.3,-19.78"/>
<text text-anchor="middle" x="165.5" y="-25" font-family="Helvetica,sans-Serif" font-size="10.00"> nextElemSide</text>
<text text-anchor="middle" x="165.5" y="-14" font-family="Helvetica,sans-Serif" font-size="10.00">next</text>
<text text-anchor="middle" x="165.5" y="-3" font-family="Helvetica,sans-Serif" font-size="10.00">connection</text>
</g>
<!-- Node4 -->
<g id="node4" class="node">
<title>Node4</title>
<g id="a_node4"><a xlink:href="structboundary__t.html" target="_top" xlink:title=" ">
<polygon fill="white" stroke="black" points="165.5,-80.5 165.5,-99.5 230.5,-99.5 230.5,-80.5 165.5,-80.5"/>
<text text-anchor="middle" x="198" y="-87.5" font-family="Helvetica,sans-Serif" font-size="10.00">boundary_t</text>
</a>
</g>
</g>
<!-- Node4&#45;&gt;Node3 -->
<g id="edge7" class="edge">
<title>Node4&#45;&gt;Node3</title>
<path fill="none" stroke="#9a32cd" stroke-dasharray="5,2" d="M176.92,-74.51C155.79,-59.98 123.97,-38.11 106.53,-26.12"/>
<polygon fill="#9a32cd" stroke="#9a32cd" points="175.02,-77.45 185.25,-80.23 178.99,-71.68 175.02,-77.45"/>
<text text-anchor="middle" x="167" y="-54" font-family="Helvetica,sans-Serif" font-size="10.00"> BC</text>
</g>
<!-- Node4&#45;&gt;Node4 -->
<g id="edge8" class="edge">
<title>Node4&#45;&gt;Node4</title>
<path fill="none" stroke="#9a32cd" stroke-dasharray="5,2" d="M240.64,-95.07C245.41,-94.11 248.5,-92.42 248.5,-90 248.5,-86.12 240.6,-84.13 230.54,-84.01"/>
<polygon fill="#9a32cd" stroke="#9a32cd" points="240.18,-91.59 230.54,-95.99 240.82,-98.56 240.18,-91.59"/>
<text text-anchor="middle" x="259.5" y="-87.5" font-family="Helvetica,sans-Serif" font-size="10.00"> next</text>
</g>
</g>
</svg>
