<?xml version="1.0" encoding="UTF-8" standalone="no"?>
<!DOCTYPE svg PUBLIC "-//W3C//DTD SVG 1.1//EN"
 "http://www.w3.org/Graphics/SVG/1.1/DTD/svg11.dtd">
<!-- Generated by graphviz version 2.42.3 (0)
 -->
<!-- Title: recordPoint_t Pages: 1 -->
<svg width="345pt" height="175pt"
 viewBox="0.00 0.00 344.50 175.00" xmlns="http://www.w3.org/2000/svg" xmlns:xlink="http://www.w3.org/1999/xlink">
<g id="graph0" class="graph" transform="scale(1 1) rotate(0) translate(4 171)">
<title>recordPoint_t</title>
<polygon fill="white" stroke="transparent" points="-4,4 -4,-171 340.5,-171 340.5,4 -4,4"/>
<!-- Node1 -->
<g id="node1" class="node">
<title>Node1</title>
<g id="a_node1"><a xlink:title=" ">
<polygon fill="#bfbfbf" stroke="black" points="0,-7 0,-26 74,-26 74,-7 0,-7"/>
<text text-anchor="middle" x="37" y="-14" font-family="Helvetica,sans-Serif" font-size="10.00">recordPoint_t</text>
</a>
</g>
</g>
<!-- Node2 -->
<g id="node2" class="node">
<title>Node2</title>
<g id="a_node2"><a xlink:href="structelem__t.html" target="_top" xlink:title=" ">
<polygon fill="white" stroke="black" points="64,-80.5 64,-99.5 110,-99.5 110,-80.5 64,-80.5"/>
<text text-anchor="middle" x="87" y="-87.5" font-family="Helvetica,sans-Serif" font-size="10.00">elem_t</text>
</a>
</g>
</g>
<!-- Node2&#45;&gt;Node1 -->
<g id="edge1" class="edge">
<title>Node2&#45;&gt;Node1</title>
<path fill="none" stroke="#9a32cd" stroke-dasharray="5,2" d="M54.66,-77.45C48.07,-73.57 41.95,-68.51 38,-62 31.35,-51.03 32.9,-35.58 34.82,-26.07"/>
<polygon fill="#9a32cd" stroke="#9a32cd" points="53.29,-80.67 63.79,-82.03 56.43,-74.42 53.29,-80.67"/>
<text text-anchor="middle" x="50.5" y="-54" font-family="Helvetica,sans-Serif" font-size="10.00"> elem</text>
</g>
<!-- Node2&#45;&gt;Node2 -->
<g id="edge2" class="edge">
<title>Node2&#45;&gt;Node2</title>
<path fill="none" stroke="#9a32cd" stroke-dasharray="5,2" d="M120.41,-95.33C124.96,-94.44 128,-92.67 128,-90 128,-85.62 119.83,-83.64 110.18,-84.05"/>
<polygon fill="#9a32cd" stroke="#9a32cd" points="119.95,-91.85 110.18,-95.95 120.37,-98.84 119.95,-91.85"/>
<text text-anchor="middle" x="139" y="-87.5" font-family="Helvetica,sans-Serif" font-size="10.00"> next</text>
</g>
<!-- Node4 -->
<g id="node4" class="node">
<title>Node4</title>
<g id="a_node4"><a xlink:href="structside__t.html" target="_top" xlink:title=" ">
<polygon fill="white" stroke="black" points="138.5,-7 138.5,-26 181.5,-26 181.5,-7 138.5,-7"/>
<text text-anchor="middle" x="160" y="-14" font-family="Helvetica,sans-Serif" font-size="10.00">side_t</text>
</a>
</g>
</g>
<!-- Node2&#45;&gt;Node4 -->
<g id="edge6" class="edge">
<title>Node2&#45;&gt;Node4</title>
<path fill="none" stroke="#9a32cd" stroke-dasharray="5,2" d="M82.37,-70.28C81.78,-63.73 82.38,-56.61 86,-51 97.47,-33.22 120.9,-24.78 138.34,-20.83"/>
<polygon fill="#9a32cd" stroke="#9a32cd" points="78.98,-71.18 84.19,-80.41 85.87,-69.95 78.98,-71.18"/>
<text text-anchor="middle" x="98.5" y="-54" font-family="Helvetica,sans-Serif" font-size="10.00"> elem</text>
</g>
<!-- Node3 -->
<g id="node3" class="node">
<title>Node3</title>
<g id="a_node3"><a xlink:href="structnode__t.html" target="_top" xlink:title=" ">
<polygon fill="white" stroke="black" points="116,-147.5 116,-166.5 162,-166.5 162,-147.5 116,-147.5"/>
<text text-anchor="middle" x="139" y="-154.5" font-family="Helvetica,sans-Serif" font-size="10.00">node_t</text>
</a>
</g>
</g>
<!-- Node3&#45;&gt;Node2 -->
<g id="edge3" class="edge">
<title>Node3&#45;&gt;Node2</title>
<path fill="none" stroke="#9a32cd" stroke-dasharray="5,2" d="M125.62,-139.27C115.48,-126.6 101.96,-109.7 93.9,-99.63"/>
<polygon fill="#9a32cd" stroke="#9a32cd" points="123.01,-141.61 131.99,-147.23 128.47,-137.24 123.01,-141.61"/>
<text text-anchor="middle" x="129.5" y="-121" font-family="Helvetica,sans-Serif" font-size="10.00"> node</text>
</g>
<!-- Node3&#45;&gt;Node3 -->
<g id="edge4" class="edge">
<title>Node3&#45;&gt;Node3</title>
<path fill="none" stroke="#9a32cd" stroke-dasharray="5,2" d="M172.41,-162.33C176.96,-161.44 180,-159.67 180,-157 180,-152.62 171.83,-150.64 162.18,-151.05"/>
<polygon fill="#9a32cd" stroke="#9a32cd" points="171.95,-158.85 162.18,-162.95 172.37,-165.84 171.95,-158.85"/>
<text text-anchor="middle" x="191" y="-154.5" font-family="Helvetica,sans-Serif" font-size="10.00"> next</text>
</g>
<!-- Node3&#45;&gt;Node4 -->
<g id="edge7" class="edge">
<title>Node3&#45;&gt;Node4</title>
<path fill="none" stroke="#9a32cd" stroke-dasharray="5,2" d="M147,-138.18C154.82,-119.6 166.11,-89.43 170,-62 171.78,-49.46 167.43,-35.21 163.91,-26.29"/>
<polygon fill="#9a32cd" stroke="#9a32cd" points="143.75,-136.87 142.98,-147.44 150.17,-139.66 143.75,-136.87"/>
<text text-anchor="middle" x="178.5" y="-87.5" font-family="Helvetica,sans-Serif" font-size="10.00"> node</text>
</g>
<!-- Node4&#45;&gt;Node2 -->
<g id="edge5" class="edge">
<title>Node4&#45;&gt;Node2</title>
<path fill="none" stroke="#9a32cd" stroke-dasharray="5,2" d="M143.54,-33.62C128.81,-48.05 107.77,-68.65 95.95,-80.23"/>
<polygon fill="#9a32cd" stroke="#9a32cd" points="146.28,-35.84 150.98,-26.34 141.38,-30.84 146.28,-35.84"/>
<text text-anchor="middle" x="146" y="-54" font-family="Helvetica,sans-Serif" font-size="10.00"> firstSide</text>
</g>
<!-- Node4&#45;&gt;Node4 -->
<g id="edge10" class="edge">
<title>Node4&#45;&gt;Node4</title>
<path fill="none" stroke="#9a32cd" stroke-dasharray="5,2" d="M191.81,-23.26C196.41,-22.18 199.5,-19.93 199.5,-16.5 199.5,-10.88 191.17,-8.41 181.53,-9.12"/>
<polygon fill="#9a32cd" stroke="#9a32cd" points="191.3,-19.78 181.53,-23.88 191.73,-26.77 191.3,-19.78"/>
<text text-anchor="middle" x="231.5" y="-25" font-family="Helvetica,sans-Serif" font-size="10.00"> nextElemSide</text>
<text text-anchor="middle" x="231.5" y="-14" font-family="Helvetica,sans-Serif" font-size="10.00">next</text>
<text text-anchor="middle" x="231.5" y="-3" font-family="Helvetica,sans-Serif" font-size="10.00">connection</text>
</g>
<!-- Node5 -->
<g id="node5" class="node">
<title>Node5</title>
<g id="a_node5"><a xlink:href="structboundary__t.html" target="_top" xlink:title=" ">
<polygon fill="white" stroke="black" points="231.5,-80.5 231.5,-99.5 296.5,-99.5 296.5,-80.5 231.5,-80.5"/>
<text text-anchor="middle" x="264" y="-87.5" font-family="Helvetica,sans-Serif" font-size="10.00">boundary_t</text>
</a>
</g>
</g>
<!-- Node5&#45;&gt;Node4 -->
<g id="edge8" class="edge">
<title>Node5&#45;&gt;Node4</title>
<path fill="none" stroke="#9a32cd" stroke-dasharray="5,2" d="M242.92,-74.51C221.79,-59.98 189.97,-38.11 172.53,-26.12"/>
<polygon fill="#9a32cd" stroke="#9a32cd" points="241.02,-77.45 251.25,-80.23 244.99,-71.68 241.02,-77.45"/>
<text text-anchor="middle" x="233" y="-54" font-family="Helvetica,sans-Serif" font-size="10.00"> BC</text>
</g>
<!-- Node5&#45;&gt;Node5 -->
<g id="edge9" class="edge">
<title>Node5&#45;&gt;Node5</title>
<path fill="none" stroke="#9a32cd" stroke-dasharray="5,2" d="M306.64,-95.07C311.41,-94.11 314.5,-92.42 314.5,-90 314.5,-86.12 306.6,-84.13 296.54,-84.01"/>
<polygon fill="#9a32cd" stroke="#9a32cd" points="306.18,-91.59 296.54,-95.99 306.82,-98.56 306.18,-91.59"/>
<text text-anchor="middle" x="325.5" y="-87.5" font-family="Helvetica,sans-Serif" font-size="10.00"> next</text>
</g>
</g>
</svg>
