<?xml version="1.0" encoding="UTF-8" standalone="no"?>
<!DOCTYPE svg PUBLIC "-//W3C//DTD SVG 1.1//EN"
 "http://www.w3.org/Graphics/SVG/1.1/DTD/svg11.dtd">
<!-- Generated by graphviz version 2.42.3 (0)
 -->
<!-- Title: src/timeDiscretization.c Pages: 1 -->
<svg width="1187pt" height="252pt"
 viewBox="0.00 0.00 1187.00 252.00" xmlns="http://www.w3.org/2000/svg" xmlns:xlink="http://www.w3.org/1999/xlink">
<g id="graph0" class="graph" transform="scale(1 1) rotate(0) translate(4 248)">
<title>src/timeDiscretization.c</title>
<polygon fill="white" stroke="transparent" points="-4,4 -4,-248 1183,-248 1183,4 -4,4"/>
<!-- Node1 -->
<g id="node1" class="node">
<title>Node1</title>
<g id="a_node1"><a xlink:title="Contains the functions for performing the time stepping process.">
<polygon fill="#bfbfbf" stroke="black" points="501,-224.5 501,-243.5 621,-243.5 621,-224.5 501,-224.5"/>
<text text-anchor="middle" x="561" y="-231.5" font-family="Helvetica,sans-Serif" font-size="10.00">src/timeDiscretization.c</text>
</a>
</g>
</g>
<!-- Node2 -->
<g id="node2" class="node">
<title>Node2</title>
<g id="a_node2"><a xlink:title=" ">
<polygon fill="white" stroke="#bfbfbf" points="0,-168.5 0,-187.5 46,-187.5 46,-168.5 0,-168.5"/>
<text text-anchor="middle" x="23" y="-175.5" font-family="Helvetica,sans-Serif" font-size="10.00">stdio.h</text>
</a>
</g>
</g>
<!-- Node1&#45;&gt;Node2 -->
<g id="edge1" class="edge">
<title>Node1&#45;&gt;Node2</title>
<path fill="none" stroke="midnightblue" d="M500.87,-230.5C406.45,-225.92 217.88,-214.14 60,-188 58.75,-187.79 57.49,-187.57 56.21,-187.33"/>
<polygon fill="midnightblue" stroke="midnightblue" points="56.89,-183.89 46.38,-185.24 55.44,-190.74 56.89,-183.89"/>
</g>
<!-- Node3 -->
<g id="node3" class="node">
<title>Node3</title>
<g id="a_node3"><a xlink:title=" ">
<polygon fill="white" stroke="#bfbfbf" points="483,-112.5 483,-131.5 531,-131.5 531,-112.5 483,-112.5"/>
<text text-anchor="middle" x="507" y="-119.5" font-family="Helvetica,sans-Serif" font-size="10.00">stdlib.h</text>
</a>
</g>
</g>
<!-- Node1&#45;&gt;Node3 -->
<g id="edge2" class="edge">
<title>Node1&#45;&gt;Node3</title>
<path fill="none" stroke="midnightblue" d="M559.32,-224.22C556.63,-211.37 550.68,-186.92 541,-168 535.77,-157.78 528.2,-147.48 521.53,-139.32"/>
<polygon fill="midnightblue" stroke="midnightblue" points="524.18,-137.03 515.04,-131.68 518.84,-141.57 524.18,-137.03"/>
</g>
<!-- Node4 -->
<g id="node4" class="node">
<title>Node4</title>
<g id="a_node4"><a xlink:title=" ">
<polygon fill="white" stroke="#bfbfbf" points="102.5,-168.5 102.5,-187.5 151.5,-187.5 151.5,-168.5 102.5,-168.5"/>
<text text-anchor="middle" x="127" y="-175.5" font-family="Helvetica,sans-Serif" font-size="10.00">string.h</text>
</a>
</g>
</g>
<!-- Node1&#45;&gt;Node4 -->
<g id="edge3" class="edge">
<title>Node1&#45;&gt;Node4</title>
<path fill="none" stroke="midnightblue" d="M500.78,-229.16C424.03,-223.61 287.18,-211.56 161.92,-188.13"/>
<polygon fill="midnightblue" stroke="midnightblue" points="162.25,-184.63 151.77,-186.2 160.94,-191.5 162.25,-184.63"/>
</g>
<!-- Node5 -->
<g id="node5" class="node">
<title>Node5</title>
<g id="a_node5"><a xlink:title=" ">
<polygon fill="white" stroke="#bfbfbf" points="169.5,-168.5 169.5,-187.5 216.5,-187.5 216.5,-168.5 169.5,-168.5"/>
<text text-anchor="middle" x="193" y="-175.5" font-family="Helvetica,sans-Serif" font-size="10.00">math.h</text>
</a>
</g>
</g>
<!-- Node1&#45;&gt;Node5 -->
<g id="edge4" class="edge">
<title>Node1&#45;&gt;Node5</title>
<path fill="none" stroke="midnightblue" d="M500.99,-227.37C435.75,-220.7 328.3,-208.13 226.53,-187.85"/>
<polygon fill="midnightblue" stroke="midnightblue" points="227.2,-184.42 216.7,-185.87 225.81,-191.28 227.2,-184.42"/>
</g>
<!-- Node6 -->
<g id="node6" class="node">
<title>Node6</title>
<g id="a_node6"><a xlink:title=" ">
<polygon fill="white" stroke="#bfbfbf" points="235,-168.5 235,-187.5 279,-187.5 279,-168.5 235,-168.5"/>
<text text-anchor="middle" x="257" y="-175.5" font-family="Helvetica,sans-Serif" font-size="10.00">omp.h</text>
</a>
</g>
</g>
<!-- Node1&#45;&gt;Node6 -->
<g id="edge5" class="edge">
<title>Node1&#45;&gt;Node6</title>
<path fill="none" stroke="midnightblue" d="M500.96,-225.2C447.65,-217.8 367.52,-205.52 289.29,-188.08"/>
<polygon fill="midnightblue" stroke="midnightblue" points="289.79,-184.6 279.27,-185.81 288.25,-191.43 289.79,-184.6"/>
</g>
<!-- Node7 -->
<g id="node7" class="node">
<title>Node7</title>
<g id="a_node7"><a xlink:title=" ">
<polygon fill="white" stroke="#bfbfbf" points="297.5,-168.5 297.5,-187.5 340.5,-187.5 340.5,-168.5 297.5,-168.5"/>
<text text-anchor="middle" x="319" y="-175.5" font-family="Helvetica,sans-Serif" font-size="10.00">float.h</text>
</a>
</g>
</g>
<!-- Node1&#45;&gt;Node7 -->
<g id="edge6" class="edge">
<title>Node1&#45;&gt;Node7</title>
<path fill="none" stroke="midnightblue" d="M516.33,-224.45C475.56,-216.43 413.46,-203.66 350.35,-187.94"/>
<polygon fill="midnightblue" stroke="midnightblue" points="351.18,-184.54 340.63,-185.5 349.47,-191.33 351.18,-184.54"/>
</g>
<!-- Node8 -->
<g id="node8" class="node">
<title>Node8</title>
<g id="a_node8"><a xlink:href="main_8h.html" target="_top" xlink:title="Contains the global constants and definitions.">
<polygon fill="white" stroke="black" points="772,-0.5 772,-19.5 818,-19.5 818,-0.5 772,-0.5"/>
<text text-anchor="middle" x="795" y="-7.5" font-family="Helvetica,sans-Serif" font-size="10.00">main.h</text>
</a>
</g>
</g>
<!-- Node1&#45;&gt;Node8 -->
<g id="edge7" class="edge">
<title>Node1&#45;&gt;Node8</title>
<path fill="none" stroke="midnightblue" d="M621.2,-228C694.02,-221.2 811.74,-207.6 851,-188 914.83,-156.13 938.26,-141.73 966,-76 989.37,-20.61 884.68,-11.59 828.54,-10.66"/>
<polygon fill="midnightblue" stroke="midnightblue" points="828.36,-7.16 818.33,-10.57 828.3,-14.16 828.36,-7.16"/>
</g>
<!-- Node9 -->
<g id="node9" class="node">
<title>Node9</title>
<g id="a_node9"><a xlink:href="timeDiscretization_8h.html" target="_top" xlink:title=" ">
<polygon fill="white" stroke="black" points="359,-168.5 359,-187.5 463,-187.5 463,-168.5 359,-168.5"/>
<text text-anchor="middle" x="411" y="-175.5" font-family="Helvetica,sans-Serif" font-size="10.00">timeDiscretization.h</text>
</a>
</g>
</g>
<!-- Node1&#45;&gt;Node9 -->
<g id="edge8" class="edge">
<title>Node1&#45;&gt;Node9</title>
<path fill="none" stroke="midnightblue" d="M537.23,-224.44C512.11,-215.4 472.29,-201.06 444.1,-190.92"/>
<polygon fill="midnightblue" stroke="midnightblue" points="445.25,-187.61 434.66,-187.52 442.88,-194.2 445.25,-187.61"/>
</g>
<!-- Node12 -->
<g id="node12" class="node">
<title>Node12</title>
<g id="a_node12"><a xlink:href="readInTools_8h.html" target="_top" xlink:title=" ">
<polygon fill="white" stroke="black" points="533,-56.5 533,-75.5 607,-75.5 607,-56.5 533,-56.5"/>
<text text-anchor="middle" x="570" y="-63.5" font-family="Helvetica,sans-Serif" font-size="10.00">readInTools.h</text>
</a>
</g>
</g>
<!-- Node1&#45;&gt;Node12 -->
<g id="edge11" class="edge">
<title>Node1&#45;&gt;Node12</title>
<path fill="none" stroke="midnightblue" d="M561.48,-224.08C562.9,-197.95 567.06,-121.21 568.99,-85.58"/>
<polygon fill="midnightblue" stroke="midnightblue" points="572.49,-85.74 569.54,-75.57 565.5,-85.36 572.49,-85.74"/>
</g>
<!-- Node13 -->
<g id="node13" class="node">
<title>Node13</title>
<g id="a_node13"><a xlink:href="output_8h.html" target="_top" xlink:title="Contains outputTime_t struct definition.">
<polygon fill="white" stroke="black" points="481.5,-168.5 481.5,-187.5 532.5,-187.5 532.5,-168.5 481.5,-168.5"/>
<text text-anchor="middle" x="507" y="-175.5" font-family="Helvetica,sans-Serif" font-size="10.00">output.h</text>
</a>
</g>
</g>
<!-- Node1&#45;&gt;Node13 -->
<g id="edge14" class="edge">
<title>Node1&#45;&gt;Node13</title>
<path fill="none" stroke="midnightblue" d="M552.08,-224.08C544.22,-216.22 532.57,-204.57 523.08,-195.08"/>
<polygon fill="midnightblue" stroke="midnightblue" points="525.3,-192.35 515.75,-187.75 520.35,-197.3 525.3,-192.35"/>
</g>
<!-- Node14 -->
<g id="node14" class="node">
<title>Node14</title>
<g id="a_node14"><a xlink:href="mesh_8h.html" target="_top" xlink:title="Contains the definitions of all structs for the mesh handling.">
<polygon fill="white" stroke="black" points="701.5,-112.5 701.5,-131.5 750.5,-131.5 750.5,-112.5 701.5,-112.5"/>
<text text-anchor="middle" x="726" y="-119.5" font-family="Helvetica,sans-Serif" font-size="10.00">mesh.h</text>
</a>
</g>
</g>
<!-- Node1&#45;&gt;Node14 -->
<g id="edge17" class="edge">
<title>Node1&#45;&gt;Node14</title>
<path fill="none" stroke="midnightblue" d="M616.09,-224.48C642.17,-218.1 672.28,-207.04 694,-188 707.87,-175.84 716.35,-156.29 721.06,-141.8"/>
<polygon fill="midnightblue" stroke="midnightblue" points="724.51,-142.49 723.96,-131.91 717.79,-140.52 724.51,-142.49"/>
</g>
<!-- Node16 -->
<g id="node16" class="node">
<title>Node16</title>
<g id="a_node16"><a xlink:href="equation_8h.html" target="_top" xlink:title=" ">
<polygon fill="white" stroke="black" points="185,-56.5 185,-75.5 247,-75.5 247,-56.5 185,-56.5"/>
<text text-anchor="middle" x="216" y="-63.5" font-family="Helvetica,sans-Serif" font-size="10.00">equation.h</text>
</a>
</g>
</g>
<!-- Node1&#45;&gt;Node16 -->
<g id="edge23" class="edge">
<title>Node1&#45;&gt;Node16</title>
<path fill="none" stroke="midnightblue" d="M500.82,-231.63C380.6,-228.28 119.93,-217.64 93,-188 55.41,-146.62 138.01,-101.26 185.53,-79.72"/>
<polygon fill="midnightblue" stroke="midnightblue" points="187.07,-82.86 194.8,-75.62 184.24,-76.46 187.07,-82.86"/>
</g>
<!-- Node17 -->
<g id="node17" class="node">
<title>Node17</title>
<g id="a_node17"><a xlink:href="analyze_8h.html" target="_top" xlink:title="Contains the structure definitions of wing_t and recordPoint_t">
<polygon fill="white" stroke="black" points="627,-168.5 627,-187.5 685,-187.5 685,-168.5 627,-168.5"/>
<text text-anchor="middle" x="656" y="-175.5" font-family="Helvetica,sans-Serif" font-size="10.00">analyze.h</text>
</a>
</g>
</g>
<!-- Node1&#45;&gt;Node17 -->
<g id="edge25" class="edge">
<title>Node1&#45;&gt;Node17</title>
<path fill="none" stroke="midnightblue" d="M576.26,-224.32C591.22,-215.82 614.25,-202.73 631.73,-192.8"/>
<polygon fill="midnightblue" stroke="midnightblue" points="633.81,-195.64 640.77,-187.65 630.35,-189.55 633.81,-195.64"/>
</g>
<!-- Node18 -->
<g id="node18" class="node">
<title>Node18</title>
<g id="a_node18"><a xlink:href="linearSolver_8h.html" target="_top" xlink:title=" ">
<polygon fill="white" stroke="black" points="741.5,-168.5 741.5,-187.5 816.5,-187.5 816.5,-168.5 741.5,-168.5"/>
<text text-anchor="middle" x="779" y="-175.5" font-family="Helvetica,sans-Serif" font-size="10.00">linearSolver.h</text>
</a>
</g>
</g>
<!-- Node1&#45;&gt;Node18 -->
<g id="edge31" class="edge">
<title>Node1&#45;&gt;Node18</title>
<path fill="none" stroke="midnightblue" d="M595.54,-224.44C633.25,-215.1 693.74,-200.12 734.86,-189.93"/>
<polygon fill="midnightblue" stroke="midnightblue" points="735.75,-193.32 744.62,-187.52 734.07,-186.52 735.75,-193.32"/>
</g>
<!-- Node19 -->
<g id="node19" class="node">
<title>Node19</title>
<g id="a_node19"><a xlink:href="equationOfState_8h.html" target="_top" xlink:title=" ">
<polygon fill="white" stroke="black" points="861.5,-56.5 861.5,-75.5 956.5,-75.5 956.5,-56.5 861.5,-56.5"/>
<text text-anchor="middle" x="909" y="-63.5" font-family="Helvetica,sans-Serif" font-size="10.00">equationOfState.h</text>
</a>
</g>
</g>
<!-- Node1&#45;&gt;Node19 -->
<g id="edge35" class="edge">
<title>Node1&#45;&gt;Node19</title>
<path fill="none" stroke="midnightblue" d="M621.1,-228.25C688.55,-221.97 792.88,-209.18 826,-188 865.03,-163.04 890.49,-112.48 901.97,-85.29"/>
<polygon fill="midnightblue" stroke="midnightblue" points="905.3,-86.39 905.8,-75.81 898.81,-83.77 905.3,-86.39"/>
</g>
<!-- Node20 -->
<g id="node20" class="node">
<title>Node20</title>
<g id="a_node20"><a xlink:href="finiteVolume_8h.html" target="_top" xlink:title=" ">
<polygon fill="white" stroke="black" points="1013,-168.5 1013,-187.5 1091,-187.5 1091,-168.5 1013,-168.5"/>
<text text-anchor="middle" x="1052" y="-175.5" font-family="Helvetica,sans-Serif" font-size="10.00">finiteVolume.h</text>
</a>
</g>
</g>
<!-- Node1&#45;&gt;Node20 -->
<g id="edge37" class="edge">
<title>Node1&#45;&gt;Node20</title>
<path fill="none" stroke="midnightblue" d="M621.01,-228.09C705.53,-220.9 864.37,-206.33 999,-188 1000.27,-187.83 1001.57,-187.65 1002.87,-187.46"/>
<polygon fill="midnightblue" stroke="midnightblue" points="1003.61,-190.89 1012.97,-185.93 1002.56,-183.97 1003.61,-190.89"/>
</g>
<!-- Node21 -->
<g id="node21" class="node">
<title>Node21</title>
<g id="a_node21"><a xlink:href="memTools_8h.html" target="_top" xlink:title=" ">
<polygon fill="white" stroke="black" points="1109,-168.5 1109,-187.5 1179,-187.5 1179,-168.5 1109,-168.5"/>
<text text-anchor="middle" x="1144" y="-175.5" font-family="Helvetica,sans-Serif" font-size="10.00">memTools.h</text>
</a>
</g>
</g>
<!-- Node1&#45;&gt;Node21 -->
<g id="edge38" class="edge">
<title>Node1&#45;&gt;Node21</title>
<path fill="none" stroke="midnightblue" d="M621.08,-230.31C719.07,-225.42 919.5,-213.27 1098.4,-188.08"/>
<polygon fill="midnightblue" stroke="midnightblue" points="1099.12,-191.51 1108.52,-186.63 1098.13,-184.58 1099.12,-191.51"/>
</g>
<!-- Node10 -->
<g id="node10" class="node">
<title>Node10</title>
<g id="a_node10"><a xlink:title=" ">
<polygon fill="white" stroke="#bfbfbf" points="477,-0.5 477,-19.5 533,-19.5 533,-0.5 477,-0.5"/>
<text text-anchor="middle" x="505" y="-7.5" font-family="Helvetica,sans-Serif" font-size="10.00">stdbool.h</text>
</a>
</g>
</g>
<!-- Node9&#45;&gt;Node10 -->
<g id="edge9" class="edge">
<title>Node9&#45;&gt;Node10</title>
<path fill="none" stroke="midnightblue" d="M414.56,-168.5C423.14,-148.33 446.09,-96.29 471,-56 477.11,-46.11 484.87,-35.71 491.43,-27.41"/>
<polygon fill="midnightblue" stroke="midnightblue" points="494.16,-29.6 497.72,-19.62 488.71,-25.2 494.16,-29.6"/>
</g>
<!-- Node11 -->
<g id="node11" class="node">
<title>Node11</title>
<g id="a_node11"><a xlink:title=" ">
<polygon fill="white" stroke="#bfbfbf" points="345,-112.5 345,-131.5 389,-131.5 389,-112.5 345,-112.5"/>
<text text-anchor="middle" x="367" y="-119.5" font-family="Helvetica,sans-Serif" font-size="10.00">time.h</text>
</a>
</g>
</g>
<!-- Node9&#45;&gt;Node11 -->
<g id="edge10" class="edge">
<title>Node9&#45;&gt;Node11</title>
<path fill="none" stroke="midnightblue" d="M403.73,-168.08C397.46,-160.38 388.21,-149.03 380.57,-139.65"/>
<polygon fill="midnightblue" stroke="midnightblue" points="383.16,-137.29 374.13,-131.75 377.73,-141.71 383.16,-137.29"/>
</g>
<!-- Node12&#45;&gt;Node8 -->
<g id="edge13" class="edge">
<title>Node12&#45;&gt;Node8</title>
<path fill="none" stroke="midnightblue" d="M605.65,-56.44C648.6,-46.14 720.18,-28.96 761.94,-18.93"/>
<polygon fill="midnightblue" stroke="midnightblue" points="762.97,-22.29 771.88,-16.55 761.34,-15.48 762.97,-22.29"/>
</g>
<!-- Node12&#45;&gt;Node10 -->
<g id="edge12" class="edge">
<title>Node12&#45;&gt;Node10</title>
<path fill="none" stroke="midnightblue" d="M559.56,-56.32C549.85,-48.26 535.18,-36.08 523.5,-26.37"/>
<polygon fill="midnightblue" stroke="midnightblue" points="525.56,-23.53 515.63,-19.83 521.09,-28.92 525.56,-23.53"/>
</g>
<!-- Node13&#45;&gt;Node3 -->
<g id="edge16" class="edge">
<title>Node13&#45;&gt;Node3</title>
<path fill="none" stroke="midnightblue" d="M507,-168.08C507,-161.01 507,-150.86 507,-141.99"/>
<polygon fill="midnightblue" stroke="midnightblue" points="510.5,-141.75 507,-131.75 503.5,-141.75 510.5,-141.75"/>
</g>
<!-- Node13&#45;&gt;Node10 -->
<g id="edge15" class="edge">
<title>Node13&#45;&gt;Node10</title>
<path fill="none" stroke="midnightblue" d="M497.98,-168.34C489.93,-159.93 478.7,-146.36 474,-132 462.13,-95.75 481.2,-52.2 494.3,-28.49"/>
<polygon fill="midnightblue" stroke="midnightblue" points="497.46,-30.03 499.44,-19.62 491.4,-26.52 497.46,-30.03"/>
</g>
<!-- Node14&#45;&gt;Node8 -->
<g id="edge18" class="edge">
<title>Node14&#45;&gt;Node8</title>
<path fill="none" stroke="midnightblue" d="M731.41,-112.37C742.75,-94.3 769.17,-52.18 784.14,-28.31"/>
<polygon fill="midnightblue" stroke="midnightblue" points="787.26,-29.92 789.61,-19.59 781.33,-26.2 787.26,-29.92"/>
</g>
<!-- Node15 -->
<g id="node15" class="node">
<title>Node15</title>
<g id="a_node15"><a xlink:href="boundary_8h.html" target="_top" xlink:title="Contains the structure definition of a boundary.">
<polygon fill="white" stroke="black" points="663.5,-56.5 663.5,-75.5 728.5,-75.5 728.5,-56.5 663.5,-56.5"/>
<text text-anchor="middle" x="696" y="-63.5" font-family="Helvetica,sans-Serif" font-size="10.00">boundary.h</text>
</a>
</g>
</g>
<!-- Node14&#45;&gt;Node15 -->
<g id="edge19" class="edge">
<title>Node14&#45;&gt;Node15</title>
<path fill="none" stroke="midnightblue" d="M715.88,-112.08C710.27,-104.77 703.98,-94.18 699.64,-85.1"/>
<polygon fill="midnightblue" stroke="midnightblue" points="702.82,-83.62 695.73,-75.75 696.36,-86.33 702.82,-83.62"/>
</g>
<!-- Node15&#45;&gt;Node8 -->
<g id="edge21" class="edge">
<title>Node15&#45;&gt;Node8</title>
<path fill="none" stroke="midnightblue" d="M711.91,-56.32C727.64,-47.74 751.94,-34.49 770.21,-24.52"/>
<polygon fill="midnightblue" stroke="midnightblue" points="772.03,-27.52 779.13,-19.65 768.68,-21.37 772.03,-27.52"/>
</g>
<!-- Node15&#45;&gt;Node10 -->
<g id="edge20" class="edge">
<title>Node15&#45;&gt;Node10</title>
<path fill="none" stroke="midnightblue" d="M665.74,-56.44C632.47,-47.04 578.97,-31.91 542.93,-21.72"/>
<polygon fill="midnightblue" stroke="midnightblue" points="543.83,-18.34 533.25,-18.99 541.93,-25.08 543.83,-18.34"/>
</g>
<!-- Node15&#45;&gt;Node14 -->
<g id="edge22" class="edge">
<title>Node15&#45;&gt;Node14</title>
<path fill="none" stroke="midnightblue" d="M705.99,-75.75C711.59,-83.01 717.9,-93.59 722.26,-102.69"/>
<polygon fill="midnightblue" stroke="midnightblue" points="719.11,-104.23 726.21,-112.08 725.56,-101.51 719.11,-104.23"/>
</g>
<!-- Node16&#45;&gt;Node10 -->
<g id="edge24" class="edge">
<title>Node16&#45;&gt;Node10</title>
<path fill="none" stroke="midnightblue" d="M247.2,-59.17C300.52,-49.21 408.97,-28.94 466.75,-18.15"/>
<polygon fill="midnightblue" stroke="midnightblue" points="467.74,-21.52 476.93,-16.25 466.45,-14.64 467.74,-21.52"/>
</g>
<!-- Node17&#45;&gt;Node3 -->
<g id="edge26" class="edge">
<title>Node17&#45;&gt;Node3</title>
<path fill="none" stroke="midnightblue" d="M632.39,-168.44C607.54,-159.44 568.23,-145.19 540.25,-135.05"/>
<polygon fill="midnightblue" stroke="midnightblue" points="541.09,-131.63 530.5,-131.52 538.71,-138.21 541.09,-131.63"/>
</g>
<!-- Node17&#45;&gt;Node8 -->
<g id="edge28" class="edge">
<title>Node17&#45;&gt;Node8</title>
<path fill="none" stroke="midnightblue" d="M652.77,-168.34C645.38,-146.91 629.76,-90.63 655,-56 679.29,-22.68 728.66,-13.49 761.79,-11.25"/>
<polygon fill="midnightblue" stroke="midnightblue" points="762.12,-14.74 771.93,-10.74 761.77,-7.74 762.12,-14.74"/>
</g>
<!-- Node17&#45;&gt;Node10 -->
<g id="edge27" class="edge">
<title>Node17&#45;&gt;Node10</title>
<path fill="none" stroke="midnightblue" d="M638.6,-168.4C610.28,-153.52 554.35,-120.27 524,-76 514.55,-62.21 509.73,-43.69 507.32,-29.94"/>
<polygon fill="midnightblue" stroke="midnightblue" points="510.74,-29.11 505.81,-19.73 503.81,-30.13 510.74,-29.11"/>
</g>
<!-- Node17&#45;&gt;Node14 -->
<g id="edge30" class="edge">
<title>Node17&#45;&gt;Node14</title>
<path fill="none" stroke="midnightblue" d="M667.25,-168.32C677.8,-160.18 693.8,-147.84 706.44,-138.09"/>
<polygon fill="midnightblue" stroke="midnightblue" points="708.77,-140.71 714.55,-131.83 704.49,-135.17 708.77,-140.71"/>
</g>
<!-- Node17&#45;&gt;Node15 -->
<g id="edge29" class="edge">
<title>Node17&#45;&gt;Node15</title>
<path fill="none" stroke="midnightblue" d="M659.14,-168.37C665.62,-150.54 680.62,-109.3 689.36,-85.27"/>
<polygon fill="midnightblue" stroke="midnightblue" points="692.75,-86.19 692.88,-75.59 686.17,-83.79 692.75,-86.19"/>
</g>
<!-- Node18&#45;&gt;Node8 -->
<g id="edge33" class="edge">
<title>Node18&#45;&gt;Node8</title>
<path fill="none" stroke="midnightblue" d="M782.55,-168.21C785.98,-159.27 790.93,-144.93 793,-132 798.75,-96.17 797.65,-53.6 796.33,-29.7"/>
<polygon fill="midnightblue" stroke="midnightblue" points="799.81,-29.34 795.69,-19.58 792.83,-29.78 799.81,-29.34"/>
</g>
<!-- Node18&#45;&gt;Node10 -->
<g id="edge32" class="edge">
<title>Node18&#45;&gt;Node10</title>
<path fill="none" stroke="midnightblue" d="M778.94,-168.3C778.27,-145.76 773.13,-85.21 738,-56 708.92,-31.82 601.74,-19.18 543.41,-13.96"/>
<polygon fill="midnightblue" stroke="midnightblue" points="543.39,-10.45 533.12,-13.07 542.78,-17.42 543.39,-10.45"/>
</g>
<!-- Node18&#45;&gt;Node14 -->
<g id="edge34" class="edge">
<title>Node18&#45;&gt;Node14</title>
<path fill="none" stroke="midnightblue" d="M770.25,-168.08C762.53,-160.22 751.1,-148.57 741.78,-139.08"/>
<polygon fill="midnightblue" stroke="midnightblue" points="744.09,-136.44 734.59,-131.75 739.1,-141.34 744.09,-136.44"/>
</g>
<!-- Node19&#45;&gt;Node8 -->
<g id="edge36" class="edge">
<title>Node19&#45;&gt;Node8</title>
<path fill="none" stroke="midnightblue" d="M890.94,-56.44C872.43,-47.68 843.42,-33.94 822.14,-23.86"/>
<polygon fill="midnightblue" stroke="midnightblue" points="823.51,-20.63 812.98,-19.52 820.52,-26.96 823.51,-20.63"/>
</g>
<!-- Node22 -->
<g id="node22" class="node">
<title>Node22</title>
<g id="a_node22"><a xlink:title=" ">
<polygon fill="white" stroke="#bfbfbf" points="1116,-112.5 1116,-131.5 1172,-131.5 1172,-112.5 1116,-112.5"/>
<text text-anchor="middle" x="1144" y="-119.5" font-family="Helvetica,sans-Serif" font-size="10.00">cgnslib.h</text>
</a>
</g>
</g>
<!-- Node21&#45;&gt;Node22 -->
<g id="edge39" class="edge">
<title>Node21&#45;&gt;Node22</title>
<path fill="none" stroke="midnightblue" d="M1144,-168.08C1144,-161.01 1144,-150.86 1144,-141.99"/>
<polygon fill="midnightblue" stroke="midnightblue" points="1147.5,-141.75 1144,-131.75 1140.5,-141.75 1147.5,-141.75"/>
</g>
</g>
</svg>
