<?xml version="1.0" encoding="UTF-8" standalone="no"?>
<!DOCTYPE svg PUBLIC "-//W3C//DTD SVG 1.1//EN"
 "http://www.w3.org/Graphics/SVG/1.1/DTD/svg11.dtd">
<!-- Generated by graphviz version 2.44.0 (0)
 -->
<!-- Title: src/timeDiscretization.h Pages: 1 -->
<svg width="817pt" height="84pt"
 viewBox="0.00 0.00 817.00 84.00" xmlns="http://www.w3.org/2000/svg" xmlns:xlink="http://www.w3.org/1999/xlink">
<g id="graph0" class="graph" transform="scale(1 1) rotate(0) translate(4 80)">
<title>src/timeDiscretization.h</title>
<polygon fill="white" stroke="transparent" points="-4,4 -4,-80 813,-80 813,4 -4,4"/>
<!-- Node1 -->
<g id="node1" class="node">
<title>Node1</title>
<g id="a_node1"><a xlink:title=" ">
<polygon fill="#bfbfbf" stroke="black" points="362,-56.5 362,-75.5 482,-75.5 482,-56.5 362,-56.5"/>
<text text-anchor="middle" x="422" y="-63.5" font-family="Helvetica,sans-Serif" font-size="10.00">src/timeDiscretization.h</text>
</a>
</g>
</g>
<!-- Node2 -->
<g id="node2" class="node">
<title>Node2</title>
<g id="a_node2"><a xlink:href="analyze_8c.html" target="_top" xlink:title="Contains functions for analyzing flow results.">
<polygon fill="white" stroke="black" points="0,-0.5 0,-19.5 74,-19.5 74,-0.5 0,-0.5"/>
<text text-anchor="middle" x="37" y="-7.5" font-family="Helvetica,sans-Serif" font-size="10.00">src/analyze.c</text>
</a>
</g>
</g>
<!-- Node1&#45;&gt;Node2 -->
<g id="edge1" class="edge">
<title>Node1&#45;&gt;Node2</title>
<path fill="none" stroke="midnightblue" d="M351.56,-56.92C282.86,-48.75 175.51,-35.17 83,-20 80.11,-19.53 77.12,-19.01 74.12,-18.47"/>
<polygon fill="midnightblue" stroke="midnightblue" points="351.48,-60.44 361.82,-58.14 352.31,-53.49 351.48,-60.44"/>
</g>
<!-- Node3 -->
<g id="node3" class="node">
<title>Node3</title>
<g id="a_node3"><a xlink:href="finiteVolume_8c.html" target="_top" xlink:title="Finite volume time derivative functions.">
<polygon fill="white" stroke="black" points="92.5,-0.5 92.5,-19.5 187.5,-19.5 187.5,-0.5 92.5,-0.5"/>
<text text-anchor="middle" x="140" y="-7.5" font-family="Helvetica,sans-Serif" font-size="10.00">src/finiteVolume.c</text>
</a>
</g>
</g>
<!-- Node1&#45;&gt;Node3 -->
<g id="edge2" class="edge">
<title>Node1&#45;&gt;Node3</title>
<path fill="none" stroke="midnightblue" d="M367.36,-54.54C314.06,-44.33 234,-29 184.47,-19.52"/>
<polygon fill="midnightblue" stroke="midnightblue" points="366.84,-58 377.32,-56.44 368.15,-51.13 366.84,-58"/>
</g>
<!-- Node4 -->
<g id="node4" class="node">
<title>Node4</title>
<g id="a_node4"><a xlink:href="initialCondition_8c.html" target="_top" xlink:title="Functions involving the initialization and application of initial conditions.">
<polygon fill="white" stroke="black" points="205.5,-0.5 205.5,-19.5 310.5,-19.5 310.5,-0.5 205.5,-0.5"/>
<text text-anchor="middle" x="258" y="-7.5" font-family="Helvetica,sans-Serif" font-size="10.00">src/initialCondition.c</text>
</a>
</g>
</g>
<!-- Node1&#45;&gt;Node4 -->
<g id="edge3" class="edge">
<title>Node1&#45;&gt;Node4</title>
<path fill="none" stroke="midnightblue" d="M386.48,-53.3C355.58,-43.13 311.53,-28.62 283.86,-19.52"/>
<polygon fill="midnightblue" stroke="midnightblue" points="385.42,-56.64 396.01,-56.44 387.61,-49.99 385.42,-56.64"/>
</g>
<!-- Node5 -->
<g id="node5" class="node">
<title>Node5</title>
<g id="a_node5"><a xlink:href="linearSolver_8c.html" target="_top" xlink:title="Contains the functions for solving the linear system of equations during implicit calculations.">
<polygon fill="white" stroke="black" points="329,-0.5 329,-19.5 421,-19.5 421,-0.5 329,-0.5"/>
<text text-anchor="middle" x="375" y="-7.5" font-family="Helvetica,sans-Serif" font-size="10.00">src/linearSolver.c</text>
</a>
</g>
</g>
<!-- Node1&#45;&gt;Node5 -->
<g id="edge4" class="edge">
<title>Node1&#45;&gt;Node5</title>
<path fill="none" stroke="midnightblue" d="M407.58,-48.43C399.34,-38.97 389.35,-27.48 382.62,-19.75"/>
<polygon fill="midnightblue" stroke="midnightblue" points="405.03,-50.84 414.24,-56.08 410.31,-46.24 405.03,-50.84"/>
</g>
<!-- Node6 -->
<g id="node6" class="node">
<title>Node6</title>
<g id="a_node6"><a xlink:href="main_8c.html" target="_top" xlink:title="Contains the main function of ccfd">
<polygon fill="white" stroke="black" points="439,-0.5 439,-19.5 501,-19.5 501,-0.5 439,-0.5"/>
<text text-anchor="middle" x="470" y="-7.5" font-family="Helvetica,sans-Serif" font-size="10.00">src/main.c</text>
</a>
</g>
</g>
<!-- Node1&#45;&gt;Node6 -->
<g id="edge5" class="edge">
<title>Node1&#45;&gt;Node6</title>
<path fill="none" stroke="midnightblue" d="M436.73,-48.43C445.14,-38.97 455.35,-27.48 462.22,-19.75"/>
<polygon fill="midnightblue" stroke="midnightblue" points="433.95,-46.28 429.93,-56.08 439.19,-50.93 433.95,-46.28"/>
</g>
<!-- Node7 -->
<g id="node7" class="node">
<title>Node7</title>
<g id="a_node7"><a xlink:href="mesh_8c.html" target="_top" xlink:title="Contains all the functions for reading and creating meshes.">
<polygon fill="white" stroke="black" points="519.5,-0.5 519.5,-19.5 584.5,-19.5 584.5,-0.5 519.5,-0.5"/>
<text text-anchor="middle" x="552" y="-7.5" font-family="Helvetica,sans-Serif" font-size="10.00">src/mesh.c</text>
</a>
</g>
</g>
<!-- Node1&#45;&gt;Node7 -->
<g id="edge6" class="edge">
<title>Node1&#45;&gt;Node7</title>
<path fill="none" stroke="midnightblue" d="M452.09,-52.5C476.46,-42.38 510.14,-28.39 531.5,-19.52"/>
<polygon fill="midnightblue" stroke="midnightblue" points="450.49,-49.38 442.6,-56.44 453.18,-55.84 450.49,-49.38"/>
</g>
<!-- Node8 -->
<g id="node8" class="node">
<title>Node8</title>
<g id="a_node8"><a xlink:href="output_8c.html" target="_top" xlink:title="Contains all functions used for writing flow solutions.">
<polygon fill="white" stroke="black" points="603,-0.5 603,-19.5 671,-19.5 671,-0.5 603,-0.5"/>
<text text-anchor="middle" x="637" y="-7.5" font-family="Helvetica,sans-Serif" font-size="10.00">src/output.c</text>
</a>
</g>
</g>
<!-- Node1&#45;&gt;Node8 -->
<g id="edge7" class="edge">
<title>Node1&#45;&gt;Node8</title>
<path fill="none" stroke="midnightblue" d="M465.96,-53.96C506.57,-43.76 566.04,-28.82 603.09,-19.52"/>
<polygon fill="midnightblue" stroke="midnightblue" points="464.91,-50.61 456.07,-56.44 466.62,-57.4 464.91,-50.61"/>
</g>
<!-- Node9 -->
<g id="node9" class="node">
<title>Node9</title>
<g id="a_node9"><a xlink:href="timeDiscretization_8c.html" target="_top" xlink:title="Contains the functions for performing the time stepping process.">
<polygon fill="white" stroke="black" points="689,-0.5 689,-19.5 809,-19.5 809,-0.5 689,-0.5"/>
<text text-anchor="middle" x="749" y="-7.5" font-family="Helvetica,sans-Serif" font-size="10.00">src/timeDiscretization.c</text>
</a>
</g>
</g>
<!-- Node1&#45;&gt;Node9 -->
<g id="edge8" class="edge">
<title>Node1&#45;&gt;Node9</title>
<path fill="none" stroke="midnightblue" d="M483.82,-54.79C545.61,-44.59 639.53,-29.08 697.43,-19.52"/>
<polygon fill="midnightblue" stroke="midnightblue" points="483.11,-51.36 473.81,-56.44 484.25,-58.27 483.11,-51.36"/>
</g>
</g>
</svg>
