<?xml version="1.0" encoding="UTF-8" standalone="no"?>
<!DOCTYPE svg PUBLIC "-//W3C//DTD SVG 1.1//EN"
 "http://www.w3.org/Graphics/SVG/1.1/DTD/svg11.dtd">
<!-- Generated by graphviz version 2.42.3 (0)
 -->
<!-- Title: src/timeDiscretization.c Pages: 1 -->
<!--zoomable 196 -->
<svg id="main" version="1.1" xmlns="http://www.w3.org/2000/svg" xmlns:xlink="http://www.w3.org/1999/xlink" xml:space="preserve" onload="init(evt)">
<style type="text/css"><![CDATA[
.edge:hover path { stroke: red; }
.edge:hover polygon { stroke: red; fill: red; }
]]></style>
<script type="text/javascript"><![CDATA[
var edges = document.getElementsByTagName('g');
if (edges && edges.length) {
  for (var i=0;i<edges.length;i++) {
    if (edges[i].id.substr(0,4)=='edge') {
      edges[i].setAttribute('class','edge');
    }
  }
}
]]></script>
        <defs>
                <circle id="rim" cx="0" cy="0" r="7"/>
                <circle id="rim2" cx="0" cy="0" r="3.5"/>
                <g id="zoomPlus">
                        <use xlink:href="#rim" fill="#404040">
                                <set attributeName="fill" to="#808080" begin="zoomplus.mouseover" end="zoomplus.mouseout"/>
                        </use>
                        <path d="M-4,0h8M0,-4v8" fill="none" stroke="white" stroke-width="1.5" pointer-events="none"/>
                </g>
                <g id="zoomMin">
                        <use xlink:href="#rim" fill="#404040">
                                <set attributeName="fill" to="#808080" begin="zoomminus.mouseover" end="zoomminus.mouseout"/>
                        </use>
                        <path d="M-4,0h8" fill="none" stroke="white" stroke-width="1.5" pointer-events="none"/>
                </g>
                <g id="dirArrow">
                        <path fill="none" stroke="white" stroke-width="1.5" d="M0,-3.0v7 M-2.5,-0.5L0,-3.0L2.5,-0.5"/>
                </g>
               <g id="resetDef">
                       <use xlink:href="#rim2" fill="#404040">
                               <set attributeName="fill" to="#808080" begin="reset.mouseover" end="reset.mouseout"/>
                       </use>
               </g>
        </defs>

<script type="text/javascript">
var viewWidth = 1257;
var viewHeight = 196;
var sectionId = 'dynsection-0';
</script>
<script xlink:href="svgpan.js"/>
<svg id="graph" class="graph">
<g id="viewport">
<title>src/timeDiscretization.c</title>
<polygon fill="white" stroke="transparent" points="-4,4 -4,-192 1253,-192 1253,4 -4,4"/>
<!-- Node1 -->
<g id="node1" class="node">
<title>Node1</title>
<g id="a_node1"><a xlink:title="Contains the functions for performing the time stepping process.">
<polygon fill="#bfbfbf" stroke="black" points="544,-168.5 544,-187.5 664,-187.5 664,-168.5 544,-168.5"/>
<text text-anchor="middle" x="604" y="-175.5" font-family="Helvetica,sans-Serif" font-size="10.00">src/timeDiscretization.c</text>
</a>
</g>
</g>
<!-- Node2 -->
<g id="node2" class="node">
<title>Node2</title>
<g id="a_node2"><a xlink:title=" ">
<polygon fill="white" stroke="#bfbfbf" points="0,-112.5 0,-131.5 46,-131.5 46,-112.5 0,-112.5"/>
<text text-anchor="middle" x="23" y="-119.5" font-family="Helvetica,sans-Serif" font-size="10.00">stdio.h</text>
</a>
</g>
</g>
<!-- Node1&#45;&gt;Node2 -->
<g id="edge1" class="edge">
<title>Node1&#45;&gt;Node2</title>
<path fill="none" stroke="midnightblue" d="M543.66,-175.08C442.89,-171.2 234.23,-160.22 60,-132 58.75,-131.8 57.48,-131.58 56.21,-131.34"/>
<polygon fill="midnightblue" stroke="midnightblue" points="56.88,-127.9 46.38,-129.27 55.44,-134.75 56.88,-127.9"/>
</g>
<!-- Node3 -->
<g id="node3" class="node">
<title>Node3</title>
<g id="a_node3"><a xlink:title=" ">
<polygon fill="white" stroke="#bfbfbf" points="104,-56.5 104,-75.5 152,-75.5 152,-56.5 104,-56.5"/>
<text text-anchor="middle" x="128" y="-63.5" font-family="Helvetica,sans-Serif" font-size="10.00">stdlib.h</text>
</a>
</g>
</g>
<!-- Node1&#45;&gt;Node3 -->
<g id="edge2" class="edge">
<title>Node1&#45;&gt;Node3</title>
<path fill="none" stroke="midnightblue" d="M543.73,-176.16C415.1,-173.74 122.92,-164.67 93,-132 79.63,-117.41 95.12,-96.77 109.52,-82.69"/>
<polygon fill="midnightblue" stroke="midnightblue" points="112.22,-84.96 117.22,-75.62 107.49,-79.81 112.22,-84.96"/>
</g>
<!-- Node4 -->
<g id="node4" class="node">
<title>Node4</title>
<g id="a_node4"><a xlink:title=" ">
<polygon fill="white" stroke="#bfbfbf" points="632.5,-112.5 632.5,-131.5 681.5,-131.5 681.5,-112.5 632.5,-112.5"/>
<text text-anchor="middle" x="657" y="-119.5" font-family="Helvetica,sans-Serif" font-size="10.00">string.h</text>
</a>
</g>
</g>
<!-- Node1&#45;&gt;Node4 -->
<g id="edge3" class="edge">
<title>Node1&#45;&gt;Node4</title>
<path fill="none" stroke="midnightblue" d="M612.75,-168.08C620.47,-160.22 631.9,-148.57 641.22,-139.08"/>
<polygon fill="midnightblue" stroke="midnightblue" points="643.9,-141.34 648.41,-131.75 638.91,-136.44 643.9,-141.34"/>
</g>
<!-- Node5 -->
<g id="node5" class="node">
<title>Node5</title>
<g id="a_node5"><a xlink:title=" ">
<polygon fill="white" stroke="#bfbfbf" points="699.5,-112.5 699.5,-131.5 746.5,-131.5 746.5,-112.5 699.5,-112.5"/>
<text text-anchor="middle" x="723" y="-119.5" font-family="Helvetica,sans-Serif" font-size="10.00">math.h</text>
</a>
</g>
</g>
<!-- Node1&#45;&gt;Node5 -->
<g id="edge4" class="edge">
<title>Node1&#45;&gt;Node5</title>
<path fill="none" stroke="midnightblue" d="M622.86,-168.44C642.27,-159.64 672.73,-145.81 694.96,-135.72"/>
<polygon fill="midnightblue" stroke="midnightblue" points="696.57,-138.84 704.23,-131.52 693.68,-132.46 696.57,-138.84"/>
</g>
<!-- Node6 -->
<g id="node6" class="node">
<title>Node6</title>
<g id="a_node6"><a xlink:title=" ">
<polygon fill="white" stroke="#bfbfbf" points="765,-112.5 765,-131.5 809,-131.5 809,-112.5 765,-112.5"/>
<text text-anchor="middle" x="787" y="-119.5" font-family="Helvetica,sans-Serif" font-size="10.00">omp.h</text>
</a>
</g>
</g>
<!-- Node1&#45;&gt;Node6 -->
<g id="edge5" class="edge">
<title>Node1&#45;&gt;Node6</title>
<path fill="none" stroke="midnightblue" d="M633,-168.44C666.15,-158.66 720.28,-142.69 754.74,-132.52"/>
<polygon fill="midnightblue" stroke="midnightblue" points="756.16,-135.75 764.76,-129.56 754.18,-129.04 756.16,-135.75"/>
</g>
<!-- Node7 -->
<g id="node7" class="node">
<title>Node7</title>
<g id="a_node7"><a xlink:title=" ">
<polygon fill="white" stroke="#bfbfbf" points="827.5,-112.5 827.5,-131.5 870.5,-131.5 870.5,-112.5 827.5,-112.5"/>
<text text-anchor="middle" x="849" y="-119.5" font-family="Helvetica,sans-Serif" font-size="10.00">float.h</text>
</a>
</g>
</g>
<!-- Node1&#45;&gt;Node7 -->
<g id="edge6" class="edge">
<title>Node1&#45;&gt;Node7</title>
<path fill="none" stroke="midnightblue" d="M649.31,-168.5C690.66,-160.51 753.65,-147.77 817.53,-131.96"/>
<polygon fill="midnightblue" stroke="midnightblue" points="818.52,-135.32 827.38,-129.5 816.83,-128.53 818.52,-135.32"/>
</g>
<!-- Node8 -->
<g id="node8" class="node">
<title>Node8</title>
<g id="a_node8"><a xlink:href="main_8h.html" target="_top" xlink:title="Contains the global constants and definitions.">
<polygon fill="white" stroke="black" points="476,-0.5 476,-19.5 522,-19.5 522,-0.5 476,-0.5"/>
<text text-anchor="middle" x="499" y="-7.5" font-family="Helvetica,sans-Serif" font-size="10.00">main.h</text>
</a>
</g>
</g>
<!-- Node1&#45;&gt;Node8 -->
<g id="edge7" class="edge">
<title>Node1&#45;&gt;Node8</title>
<path fill="none" stroke="midnightblue" d="M602.63,-168.14C600.36,-155.19 595.05,-130.62 585,-112 566.72,-78.13 535.66,-45.44 516.29,-26.82"/>
<polygon fill="midnightblue" stroke="midnightblue" points="518.46,-24.05 508.78,-19.74 513.65,-29.15 518.46,-24.05"/>
</g>
<!-- Node9 -->
<g id="node9" class="node">
<title>Node9</title>
<g id="a_node9"><a xlink:href="timeDiscretization_8h.html" target="_top" xlink:title=" ">
<polygon fill="white" stroke="black" points="172,-112.5 172,-131.5 276,-131.5 276,-112.5 172,-112.5"/>
<text text-anchor="middle" x="224" y="-119.5" font-family="Helvetica,sans-Serif" font-size="10.00">timeDiscretization.h</text>
</a>
</g>
</g>
<!-- Node1&#45;&gt;Node9 -->
<g id="edge8" class="edge">
<title>Node1&#45;&gt;Node9</title>
<path fill="none" stroke="midnightblue" d="M543.72,-168.61C481.76,-159.96 382.19,-146 286.39,-132.19"/>
<polygon fill="midnightblue" stroke="midnightblue" points="286.64,-128.69 276.24,-130.73 285.64,-135.62 286.64,-128.69"/>
</g>
<!-- Node12 -->
<g id="node12" class="node">
<title>Node12</title>
<g id="a_node12"><a xlink:href="readInTools_8h.html" target="_top" xlink:title=" ">
<polygon fill="white" stroke="black" points="502,-112.5 502,-131.5 576,-131.5 576,-112.5 502,-112.5"/>
<text text-anchor="middle" x="539" y="-119.5" font-family="Helvetica,sans-Serif" font-size="10.00">readInTools.h</text>
</a>
</g>
</g>
<!-- Node1&#45;&gt;Node12 -->
<g id="edge11" class="edge">
<title>Node1&#45;&gt;Node12</title>
<path fill="none" stroke="midnightblue" d="M593.56,-168.32C583.85,-160.26 569.18,-148.08 557.5,-138.37"/>
<polygon fill="midnightblue" stroke="midnightblue" points="559.56,-135.53 549.63,-131.83 555.09,-140.92 559.56,-135.53"/>
</g>
<!-- Node13 -->
<g id="node13" class="node">
<title>Node13</title>
<g id="a_node13"><a xlink:href="output_8h.html" target="_top" xlink:title="Contains outputTime_t struct definition.">
<polygon fill="white" stroke="black" points="102.5,-112.5 102.5,-131.5 153.5,-131.5 153.5,-112.5 102.5,-112.5"/>
<text text-anchor="middle" x="128" y="-119.5" font-family="Helvetica,sans-Serif" font-size="10.00">output.h</text>
</a>
</g>
</g>
<!-- Node1&#45;&gt;Node13 -->
<g id="edge14" class="edge">
<title>Node1&#45;&gt;Node13</title>
<path fill="none" stroke="midnightblue" d="M543.69,-173.72C460.38,-168.55 305.34,-156.65 163.69,-131.84"/>
<polygon fill="midnightblue" stroke="midnightblue" points="163.98,-128.34 153.52,-130.03 162.75,-135.23 163.98,-128.34"/>
</g>
<!-- Node14 -->
<g id="node14" class="node">
<title>Node14</title>
<g id="a_node14"><a xlink:href="mesh_8h.html" target="_top" xlink:title="Contains the definitions of all structs for the mesh handling.">
<polygon fill="white" stroke="black" points="421.5,-56.5 421.5,-75.5 470.5,-75.5 470.5,-56.5 421.5,-56.5"/>
<text text-anchor="middle" x="446" y="-63.5" font-family="Helvetica,sans-Serif" font-size="10.00">mesh.h</text>
</a>
</g>
</g>
<!-- Node1&#45;&gt;Node14 -->
<g id="edge17" class="edge">
<title>Node1&#45;&gt;Node14</title>
<path fill="none" stroke="midnightblue" d="M543.78,-172.02C489.97,-166.16 416.93,-154.29 399,-132 385.5,-115.21 405.47,-94.98 423.4,-81.6"/>
<polygon fill="midnightblue" stroke="midnightblue" points="425.72,-84.24 431.88,-75.62 421.69,-78.52 425.72,-84.24"/>
</g>
<!-- Node16 -->
<g id="node16" class="node">
<title>Node16</title>
<g id="a_node16"><a xlink:title=" ">
<polygon fill="white" stroke="#bfbfbf" points="889,-112.5 889,-131.5 951,-131.5 951,-112.5 889,-112.5"/>
<text text-anchor="middle" x="920" y="-119.5" font-family="Helvetica,sans-Serif" font-size="10.00">equation.h</text>
</a>
</g>
</g>
<!-- Node1&#45;&gt;Node16 -->
<g id="edge20" class="edge">
<title>Node1&#45;&gt;Node16</title>
<path fill="none" stroke="midnightblue" d="M661.84,-168.46C715.42,-160.34 797.56,-147.37 878.8,-131.95"/>
<polygon fill="midnightblue" stroke="midnightblue" points="879.53,-135.37 888.7,-130.05 878.22,-128.49 879.53,-135.37"/>
</g>
<!-- Node17 -->
<g id="node17" class="node">
<title>Node17</title>
<g id="a_node17"><a xlink:href="analyze_8h.html" target="_top" xlink:title="Contains the structure definitions of wing_t and recordPoint_t">
<polygon fill="white" stroke="black" points="294,-112.5 294,-131.5 352,-131.5 352,-112.5 294,-112.5"/>
<text text-anchor="middle" x="323" y="-119.5" font-family="Helvetica,sans-Serif" font-size="10.00">analyze.h</text>
</a>
</g>
</g>
<!-- Node1&#45;&gt;Node17 -->
<g id="edge21" class="edge">
<title>Node1&#45;&gt;Node17</title>
<path fill="none" stroke="midnightblue" d="M557.43,-168.47C509.41,-159.61 432.4,-145.22 366,-132 364.74,-131.75 363.46,-131.49 362.16,-131.23"/>
<polygon fill="midnightblue" stroke="midnightblue" points="362.63,-127.75 352.13,-129.18 361.22,-134.61 362.63,-127.75"/>
</g>
<!-- Node18 -->
<g id="node18" class="node">
<title>Node18</title>
<g id="a_node18"><a xlink:href="linearSolver_8h.html" target="_top" xlink:title=" ">
<polygon fill="white" stroke="black" points="408.5,-112.5 408.5,-131.5 483.5,-131.5 483.5,-112.5 408.5,-112.5"/>
<text text-anchor="middle" x="446" y="-119.5" font-family="Helvetica,sans-Serif" font-size="10.00">linearSolver.h</text>
</a>
</g>
</g>
<!-- Node1&#45;&gt;Node18 -->
<g id="edge27" class="edge">
<title>Node1&#45;&gt;Node18</title>
<path fill="none" stroke="midnightblue" d="M578.96,-168.44C552.38,-159.36 510.19,-144.94 480.48,-134.78"/>
<polygon fill="midnightblue" stroke="midnightblue" points="481.51,-131.44 470.92,-131.52 479.25,-138.06 481.51,-131.44"/>
</g>
<!-- Node19 -->
<g id="node19" class="node">
<title>Node19</title>
<g id="a_node19"><a xlink:title=" ">
<polygon fill="white" stroke="#bfbfbf" points="969.5,-112.5 969.5,-131.5 1064.5,-131.5 1064.5,-112.5 969.5,-112.5"/>
<text text-anchor="middle" x="1017" y="-119.5" font-family="Helvetica,sans-Serif" font-size="10.00">equationOfState.h</text>
</a>
</g>
</g>
<!-- Node1&#45;&gt;Node19 -->
<g id="edge31" class="edge">
<title>Node1&#45;&gt;Node19</title>
<path fill="none" stroke="midnightblue" d="M664.23,-169.96C733.01,-161.79 849.17,-147.61 959.46,-132.04"/>
<polygon fill="midnightblue" stroke="midnightblue" points="960.02,-135.49 969.43,-130.62 959.04,-128.56 960.02,-135.49"/>
</g>
<!-- Node20 -->
<g id="node20" class="node">
<title>Node20</title>
<g id="a_node20"><a xlink:href="finiteVolume_8h.html" target="_top" xlink:title=" ">
<polygon fill="white" stroke="black" points="1083,-112.5 1083,-131.5 1161,-131.5 1161,-112.5 1083,-112.5"/>
<text text-anchor="middle" x="1122" y="-119.5" font-family="Helvetica,sans-Serif" font-size="10.00">finiteVolume.h</text>
</a>
</g>
</g>
<!-- Node1&#45;&gt;Node20 -->
<g id="edge32" class="edge">
<title>Node1&#45;&gt;Node20</title>
<path fill="none" stroke="midnightblue" d="M664.3,-172.97C752.01,-166.72 920.08,-153.3 1072.72,-132.07"/>
<polygon fill="midnightblue" stroke="midnightblue" points="1073.34,-135.51 1082.75,-130.66 1072.36,-128.58 1073.34,-135.51"/>
</g>
<!-- Node21 -->
<g id="node21" class="node">
<title>Node21</title>
<g id="a_node21"><a xlink:href="memTools_8h.html" target="_top" xlink:title=" ">
<polygon fill="white" stroke="black" points="1179,-112.5 1179,-131.5 1249,-131.5 1249,-112.5 1179,-112.5"/>
<text text-anchor="middle" x="1214" y="-119.5" font-family="Helvetica,sans-Serif" font-size="10.00">memTools.h</text>
</a>
</g>
</g>
<!-- Node1&#45;&gt;Node21 -->
<g id="edge33" class="edge">
<title>Node1&#45;&gt;Node21</title>
<path fill="none" stroke="midnightblue" d="M664.16,-174.64C766.03,-170.11 979.09,-158.35 1168.39,-132.07"/>
<polygon fill="midnightblue" stroke="midnightblue" points="1169.11,-135.5 1178.52,-130.64 1168.13,-128.57 1169.11,-135.5"/>
</g>
<!-- Node10 -->
<g id="node10" class="node">
<title>Node10</title>
<g id="a_node10"><a xlink:title=" ">
<polygon fill="white" stroke="#bfbfbf" points="347,-56.5 347,-75.5 403,-75.5 403,-56.5 347,-56.5"/>
<text text-anchor="middle" x="375" y="-63.5" font-family="Helvetica,sans-Serif" font-size="10.00">stdbool.h</text>
</a>
</g>
</g>
<!-- Node9&#45;&gt;Node10 -->
<g id="edge9" class="edge">
<title>Node9&#45;&gt;Node10</title>
<path fill="none" stroke="midnightblue" d="M247.93,-112.44C273.22,-103.4 313.3,-89.06 341.68,-78.92"/>
<polygon fill="midnightblue" stroke="midnightblue" points="342.95,-82.18 351.19,-75.52 340.59,-75.59 342.95,-82.18"/>
</g>
<!-- Node11 -->
<g id="node11" class="node">
<title>Node11</title>
<g id="a_node11"><a xlink:title=" ">
<polygon fill="white" stroke="#bfbfbf" points="202,-56.5 202,-75.5 246,-75.5 246,-56.5 202,-56.5"/>
<text text-anchor="middle" x="224" y="-63.5" font-family="Helvetica,sans-Serif" font-size="10.00">time.h</text>
</a>
</g>
</g>
<!-- Node9&#45;&gt;Node11 -->
<g id="edge10" class="edge">
<title>Node9&#45;&gt;Node11</title>
<path fill="none" stroke="midnightblue" d="M224,-112.08C224,-105.01 224,-94.86 224,-85.99"/>
<polygon fill="midnightblue" stroke="midnightblue" points="227.5,-85.75 224,-75.75 220.5,-85.75 227.5,-85.75"/>
</g>
<!-- Node12&#45;&gt;Node8 -->
<g id="edge13" class="edge">
<title>Node12&#45;&gt;Node8</title>
<path fill="none" stroke="midnightblue" d="M535.86,-112.37C529.38,-94.54 514.38,-53.3 505.64,-29.27"/>
<polygon fill="midnightblue" stroke="midnightblue" points="508.83,-27.79 502.12,-19.59 502.25,-30.19 508.83,-27.79"/>
</g>
<!-- Node12&#45;&gt;Node10 -->
<g id="edge12" class="edge">
<title>Node12&#45;&gt;Node10</title>
<path fill="none" stroke="midnightblue" d="M513.01,-112.44C485.3,-103.32 441.25,-88.81 410.38,-78.65"/>
<polygon fill="midnightblue" stroke="midnightblue" points="411.46,-75.32 400.86,-75.52 409.27,-81.97 411.46,-75.32"/>
</g>
<!-- Node13&#45;&gt;Node3 -->
<g id="edge16" class="edge">
<title>Node13&#45;&gt;Node3</title>
<path fill="none" stroke="midnightblue" d="M128,-112.08C128,-105.01 128,-94.86 128,-85.99"/>
<polygon fill="midnightblue" stroke="midnightblue" points="131.5,-85.75 128,-75.75 124.5,-85.75 131.5,-85.75"/>
</g>
<!-- Node13&#45;&gt;Node10 -->
<g id="edge15" class="edge">
<title>Node13&#45;&gt;Node10</title>
<path fill="none" stroke="midnightblue" d="M153.58,-114.29C156.75,-113.5 159.95,-112.72 163,-112 223.58,-97.79 294.35,-83.16 336.87,-74.58"/>
<polygon fill="midnightblue" stroke="midnightblue" points="337.68,-77.99 346.8,-72.59 336.3,-71.13 337.68,-77.99"/>
</g>
<!-- Node14&#45;&gt;Node8 -->
<g id="edge18" class="edge">
<title>Node14&#45;&gt;Node8</title>
<path fill="none" stroke="midnightblue" d="M454.75,-56.08C462.47,-48.22 473.9,-36.57 483.22,-27.08"/>
<polygon fill="midnightblue" stroke="midnightblue" points="485.9,-29.34 490.41,-19.75 480.91,-24.44 485.9,-29.34"/>
</g>
<!-- Node15 -->
<g id="node15" class="node">
<title>Node15</title>
<g id="a_node15"><a xlink:title=" ">
<polygon fill="white" stroke="#bfbfbf" points="320.5,-0.5 320.5,-19.5 385.5,-19.5 385.5,-0.5 320.5,-0.5"/>
<text text-anchor="middle" x="353" y="-7.5" font-family="Helvetica,sans-Serif" font-size="10.00">boundary.h</text>
</a>
</g>
</g>
<!-- Node14&#45;&gt;Node15 -->
<g id="edge19" class="edge">
<title>Node14&#45;&gt;Node15</title>
<path fill="none" stroke="midnightblue" d="M431.06,-56.32C416.41,-47.82 393.87,-34.73 376.76,-24.8"/>
<polygon fill="midnightblue" stroke="midnightblue" points="378.31,-21.65 367.9,-19.65 374.8,-27.7 378.31,-21.65"/>
</g>
<!-- Node17&#45;&gt;Node3 -->
<g id="edge22" class="edge">
<title>Node17&#45;&gt;Node3</title>
<path fill="none" stroke="midnightblue" d="M293.81,-112.92C258.55,-103.15 199.36,-86.76 162.06,-76.43"/>
<polygon fill="midnightblue" stroke="midnightblue" points="162.73,-72.98 152.15,-73.69 160.86,-79.73 162.73,-72.98"/>
</g>
<!-- Node17&#45;&gt;Node8 -->
<g id="edge24" class="edge">
<title>Node17&#45;&gt;Node8</title>
<path fill="none" stroke="midnightblue" d="M322.4,-112.12C321.97,-98.25 323.28,-71.41 338,-56 371.3,-21.14 429.17,-12.57 465.7,-10.85"/>
<polygon fill="midnightblue" stroke="midnightblue" points="465.97,-14.35 475.85,-10.53 465.75,-7.35 465.97,-14.35"/>
</g>
<!-- Node17&#45;&gt;Node10 -->
<g id="edge23" class="edge">
<title>Node17&#45;&gt;Node10</title>
<path fill="none" stroke="midnightblue" d="M331.59,-112.08C339.16,-104.22 350.38,-92.57 359.51,-83.08"/>
<polygon fill="midnightblue" stroke="midnightblue" points="362.16,-85.38 366.57,-75.75 357.12,-80.53 362.16,-85.38"/>
</g>
<!-- Node17&#45;&gt;Node14 -->
<g id="edge26" class="edge">
<title>Node17&#45;&gt;Node14</title>
<path fill="none" stroke="midnightblue" d="M342.49,-112.44C362.64,-103.6 394.32,-89.69 417.33,-79.59"/>
<polygon fill="midnightblue" stroke="midnightblue" points="418.85,-82.74 426.6,-75.52 416.04,-76.33 418.85,-82.74"/>
</g>
<!-- Node17&#45;&gt;Node15 -->
<g id="edge25" class="edge">
<title>Node17&#45;&gt;Node15</title>
<path fill="none" stroke="midnightblue" d="M316.97,-112.33C308.92,-99.62 296.62,-75.34 305,-56 310.27,-43.84 320.62,-33.46 330.36,-25.74"/>
<polygon fill="midnightblue" stroke="midnightblue" points="332.64,-28.41 338.63,-19.67 328.5,-22.77 332.64,-28.41"/>
</g>
<!-- Node18&#45;&gt;Node8 -->
<g id="edge29" class="edge">
<title>Node18&#45;&gt;Node8</title>
<path fill="none" stroke="midnightblue" d="M453.78,-112.28C461.17,-103.61 472.13,-89.68 479,-76 486.45,-61.16 491.75,-43.01 495.02,-29.67"/>
<polygon fill="midnightblue" stroke="midnightblue" points="498.46,-30.29 497.28,-19.76 491.64,-28.73 498.46,-30.29"/>
</g>
<!-- Node18&#45;&gt;Node10 -->
<g id="edge28" class="edge">
<title>Node18&#45;&gt;Node10</title>
<path fill="none" stroke="midnightblue" d="M434.59,-112.32C423.89,-104.18 407.66,-91.84 394.84,-82.09"/>
<polygon fill="midnightblue" stroke="midnightblue" points="396.69,-79.1 386.61,-75.83 392.46,-84.67 396.69,-79.1"/>
</g>
<!-- Node18&#45;&gt;Node14 -->
<g id="edge30" class="edge">
<title>Node18&#45;&gt;Node14</title>
<path fill="none" stroke="midnightblue" d="M446,-112.08C446,-105.01 446,-94.86 446,-85.99"/>
<polygon fill="midnightblue" stroke="midnightblue" points="449.5,-85.75 446,-75.75 442.5,-85.75 449.5,-85.75"/>
</g>
<!-- Node22 -->
<g id="node22" class="node">
<title>Node22</title>
<g id="a_node22"><a xlink:title=" ">
<polygon fill="white" stroke="#bfbfbf" points="1186,-56.5 1186,-75.5 1242,-75.5 1242,-56.5 1186,-56.5"/>
<text text-anchor="middle" x="1214" y="-63.5" font-family="Helvetica,sans-Serif" font-size="10.00">cgnslib.h</text>
</a>
</g>
</g>
<!-- Node21&#45;&gt;Node22 -->
<g id="edge34" class="edge">
<title>Node21&#45;&gt;Node22</title>
<path fill="none" stroke="midnightblue" d="M1214,-112.08C1214,-105.01 1214,-94.86 1214,-85.99"/>
<polygon fill="midnightblue" stroke="midnightblue" points="1217.5,-85.75 1214,-75.75 1210.5,-85.75 1217.5,-85.75"/>
</g>
</g>
</svg>
        <g id="navigator" transform="translate(0 0)" fill="#404254">
                <rect fill="#f2f5e9" fill-opacity="0.5" stroke="#606060" stroke-width=".5" x="0" y="0" width="60" height="60"/>
                <use id="zoomplus" xlink:href="#zoomPlus" x="17" y="9" onmousedown="handleZoom(evt,'in')"/>
                <use id="zoomminus" xlink:href="#zoomMin" x="42" y="9" onmousedown="handleZoom(evt,'out')"/>
                <use id="reset" xlink:href="#resetDef" x="30" y="36" onmousedown="handleReset()"/>
                <g id="arrowUp" xlink:href="#dirArrow" transform="translate(30 24)" onmousedown="handlePan(0,-1)">
                  <use xlink:href="#rim" fill="#404040">
                        <set attributeName="fill" to="#808080" begin="arrowUp.mouseover" end="arrowUp.mouseout"/>
                  </use>
                  <path fill="none" stroke="white" stroke-width="1.5" d="M0,-3.0v7 M-2.5,-0.5L0,-3.0L2.5,-0.5"/>
                </g>
                <g id="arrowRight" xlink:href="#dirArrow" transform="rotate(90) translate(36 -43)" onmousedown="handlePan(1,0)">
                  <use xlink:href="#rim" fill="#404040">
                        <set attributeName="fill" to="#808080" begin="arrowRight.mouseover" end="arrowRight.mouseout"/>
                  </use>
                  <path fill="none" stroke="white" stroke-width="1.5" d="M0,-3.0v7 M-2.5,-0.5L0,-3.0L2.5,-0.5"/>
                </g>
                <g id="arrowDown" xlink:href="#dirArrow" transform="rotate(180) translate(-30 -48)" onmousedown="handlePan(0,1)">
                  <use xlink:href="#rim" fill="#404040">
                        <set attributeName="fill" to="#808080" begin="arrowDown.mouseover" end="arrowDown.mouseout"/>
                  </use>
                  <path fill="none" stroke="white" stroke-width="1.5" d="M0,-3.0v7 M-2.5,-0.5L0,-3.0L2.5,-0.5"/>
                </g>
                <g id="arrowLeft" xlink:href="#dirArrow" transform="rotate(270) translate(-36 17)" onmousedown="handlePan(-1,0)">
                  <use xlink:href="#rim" fill="#404040">
                        <set attributeName="fill" to="#808080" begin="arrowLeft.mouseover" end="arrowLeft.mouseout"/>
                  </use>
                  <path fill="none" stroke="white" stroke-width="1.5" d="M0,-3.0v7 M-2.5,-0.5L0,-3.0L2.5,-0.5"/>
                </g>
        </g>
        <svg viewBox="0 0 15 15" width="100%" height="30px" preserveAspectRatio="xMaxYMin meet">
         <g id="arrow_out" transform="scale(0.3 0.3)">
          <a xlink:href="timeDiscretization_8c__incl_org.svg" target="_base">
           <rect id="button" ry="5" rx="5" y="6" x="6" height="38" width="38"
                fill="#f2f5e9" fill-opacity="0.5" stroke="#606060" stroke-width="1.0"/>
           <path id="arrow"
             d="M 11.500037,31.436501 C 11.940474,20.09759 22.043105,11.32322 32.158766,21.979434 L 37.068811,17.246167 C 37.068811,17.246167 37.088388,32 37.088388,32 L 22.160133,31.978069 C 22.160133,31.978069 26.997745,27.140456 26.997745,27.140456 C 18.528582,18.264221 13.291696,25.230495 11.500037,31.436501 z"
             style="fill:#404040;"/>
          </a>
         </g>
        </svg>
</svg>
